<svg width="21" height="21" viewBox="0 0 21 21" fill="none" xmlns="http://www.w3.org/2000/svg">
<path d="M19.9376 9.98606C19.9252 12.2201 19.2564 14.235 17.8967 16.0124C17.7619 16.1891 17.7803 16.2807 17.9307 16.4292C18.8448 17.3274 19.7491 18.2341 20.6547 19.1408C20.9616 19.4483 21.08 19.8139 20.9426 20.2372C20.8039 20.6657 20.4977 20.9156 20.0586 20.9856C19.6942 21.0438 19.3879 20.9071 19.1308 20.6487C18.2265 19.7413 17.3176 18.8379 16.4192 17.9246C16.2773 17.7801 16.1935 17.7637 16.0227 17.8939C14.0165 19.4208 11.7401 20.107 9.23598 19.9186C4.52414 19.5627 0.93382 16.0726 0.159091 11.753C-0.788382 6.46652 2.58862 1.39001 7.82655 0.235365C13.3576 -0.984043 18.8095 2.66175 19.789 8.23283C19.8911 8.81244 19.9546 9.39467 19.9376 9.98606ZM2.19341 10.0024C2.15349 14.1918 5.60117 17.8193 10.0408 17.8023C14.3463 17.786 17.8221 14.2775 17.7946 9.92783C17.7672 5.54934 14.1683 2.16522 9.95444 2.19401C5.64894 2.22345 2.18163 5.69327 2.19341 10.0024Z" fill="black"/>
</svg>
