<svg width="150" height="142" viewBox="0 0 150 142" fill="none" xmlns="http://www.w3.org/2000/svg">
<circle cx="88.7491" cy="55.8546" r="54.9913" fill="#505050"/>
<path d="M43.24 135L0 45.7815C0.290028 45.61 0.393149 45.4967 0.49627 45.4967C9.40819 45.4821 18.3217 45.4482 27.2336 45.5307C27.8137 45.5307 28.6226 46.3204 28.9271 46.9385C34.1121 57.5038 39.2392 68.0999 44.3695 78.6895C49.0228 88.2855 53.6794 97.8815 58.3392 107.477C58.5841 107.984 58.8806 108.465 59.2447 109.123L142.678 17L143 17.28L43.24 135Z" fill="#FCCB06"/>
<path d="M150 16.261C145.538 24.8367 141.078 33.4118 136.618 41.9863C129.593 55.4972 122.568 69.0049 115.544 82.5093C105.641 101.556 95.7506 120.61 85.8735 139.67C85.1963 140.98 84.4427 141.616 82.9357 141.616C81.0697 141.616 79.2005 141.844 77 142L149.708 16L150 16.261Z" fill="#FCCB06"/>
<path d="M70 129.107C67.7553 132.444 65.6472 135.618 63.4726 138.755C63.23 139.104 62.6184 139.401 62.1537 139.441C59.5998 139.665 57.0288 139.802 54 140C54.9362 138.668 55.6588 137.63 56.3916 136.6C57.0152 135.73 57.8625 134.938 58.252 133.991C60.3054 129.029 64.7965 128.751 70 129.107Z" fill="#FCCB06"/>
<path d="M69 122C70.8961 118.77 72.5441 115.783 74.39 112.958C74.7651 112.382 75.8445 112.321 76.6198 112.2C77.5959 112.046 78.5927 112.073 80 112C78.2028 115.277 76.6036 118.26 74.9127 121.188C74.7222 121.526 74.0902 121.601 73.6516 121.646C72.2207 121.794 70.7839 121.87 69 122Z" fill="#FCCB06"/>
<path d="M78 107.447C79.9106 104.801 81.5877 101.953 83.8375 99.6029C84.843 98.5517 86.9974 98.5045 88.6301 98C88.7529 98.2148 88.8773 98.428 89 98.6412C87.0553 101.471 85.3612 104.511 83.0347 107.024C82.157 107.974 79.8373 107.709 78.1738 108C78.121 107.814 78.0597 107.631 78 107.447Z" fill="#FCCB06"/>
<path d="M98 84.1439C96.5014 86.7349 95.3622 89.3501 93.6327 91.4178C92.7573 92.4542 90.7987 92.5043 89.3297 93L89 92.4283C89.4155 91.8099 89.8392 91.1984 90.2447 90.5731C91.018 89.3812 92.0203 88.2792 92.5001 86.9681C93.5008 84.2337 95.3589 83.6879 98 84.1439Z" fill="#FCCB06"/>
<path d="M107 73.0765C105.801 75.0013 104.895 77.0997 103.382 78.6445C102.51 79.5348 100.655 79.5331 99 80C100.435 74.8382 103.16 72.5384 107 73.0765Z" fill="#FCCB06"/>
<path d="M108 69.5432C108.985 67.9931 109.825 66.3155 111.014 64.9479C111.562 64.3196 112.795 64.2977 113.726 64L114 64.4115C113.041 66.0123 112.229 67.7476 111.036 69.1536C110.505 69.7778 109.196 69.738 108.24 70L108 69.5432Z" fill="#FCCB06"/>
<path d="M114 60C115.465 57.5666 116.455 55.561 117.806 53.8623C118.327 53.2104 119.673 53.2621 120.643 53L121 53.4329C119.907 55.3782 118.983 57.4649 117.633 59.1946C117.115 59.8431 115.62 59.6775 114 60Z" fill="#FCCB06"/>
<path d="M127 45.0432C125.109 50.4365 124.304 51.2728 121 50.9349C123.048 48.8118 122.974 44.5239 127 45.0432Z" fill="#FCCB06"/>
<path d="M127 41.9775C128.547 40.5082 128.864 37.8127 132 38.0103C130.511 39.5237 130.293 42.2763 127 41.9775Z" fill="#FCCB06"/>
</svg>
