<svg width="140" height="141" viewBox="0 0 140 141" fill="none" xmlns="http://www.w3.org/2000/svg">
<circle cx="84.4835" cy="55.7218" r="54.9913" fill="#505050"/>
<path d="M0 27.3551V98.0093C5.1 66.0093 35.375 49.0374 49.875 44.5514L47.25 38.1963H70.5L55.5 58.757L51.75 51.6542C38.55 58.5327 30.25 68.7259 27.75 72.9626C10.875 91.6542 16.875 141 57 141C97.125 141 105 115.579 105 96.1402C105 80.5888 90 74.2087 82.5 72.9626C96.6 69.0748 96.875 53.1495 95.25 45.6729C92.55 27.4299 77.625 21.6231 70.5 21H7.125C1.725 21 0.125 25.2368 0 27.3551Z" fill="#FCCB06"/>
</svg>
