<svg width="155" height="154" viewBox="0 0 155 154" fill="none" xmlns="http://www.w3.org/2000/svg">
<circle cx="99.507" cy="55.8488" r="54.9913" fill="#505050"/>
<path d="M53.8085 68.0069C55.4635 67.4223 57.2663 66.9668 59.0058 66.9536C72.9954 66.872 86.9851 66.9088 100.975 66.9088C105.903 66.9088 110.828 66.9404 115.756 66.8667C116.459 66.8186 117.114 66.4981 117.583 65.974C119.922 63.0509 122.165 60.0568 124.433 57.0784C126.059 54.9401 127.669 52.7913 129.498 50.366H127.703C105.578 50.366 83.456 50.3344 61.3339 50.4002C57.9543 50.4397 54.5805 50.6903 51.2323 51.1507C47.067 51.6932 43.1288 53.0784 39.737 55.6011C34.6664 59.3721 32.9375 64.6994 33.0351 70.7904C33.1275 76.4838 35.2233 81.2186 40.0379 84.4234C44.219 87.2042 49.0124 88.4103 53.9721 88.4709C66.3279 88.6236 78.689 88.5209 91.0474 88.5525C92.4522 88.5545 93.8544 88.6743 95.239 88.9106C97.4615 89.2951 98.6705 90.6302 98.8526 92.6237C99.0638 94.8252 98.0607 97.0004 95.9332 97.4006C94.6134 97.664 93.2725 97.9773 91.9343 98.0195C88.8566 98.109 85.7762 98.1037 82.6958 98.0195C81.6085 97.9855 80.547 98.3542 79.7158 99.0544C74.9408 102.712 70.1289 106.322 65.3407 109.964C63.6039 111.281 61.9093 112.65 59.9006 114.212C60.6925 114.259 61.1333 114.307 61.5582 114.307C71.6308 114.307 81.7034 114.344 91.7759 114.294C97.0709 114.27 102.276 113.617 107.183 111.431C111.008 109.727 114.128 107.231 115.894 103.363C117.902 99.0488 118.5 94.214 117.601 89.5427C116.796 85.1713 114.489 81.8269 110.662 79.5648C106.067 76.8603 100.956 76.0493 95.7722 75.994C83.4587 75.8623 71.1425 75.9755 58.8184 75.9123C57.3191 75.9123 55.7908 75.5463 54.3311 75.1407C52.6392 74.672 52.1456 73.1789 52.0743 71.6489C52.0057 70.19 52.2247 68.5652 53.8085 68.0069Z" fill="#FCCB06"/>
<path d="M67.6125 101.963L77.0685 94.7131L76.9523 94.3888C74.7711 94.3888 72.59 94.4204 70.4115 94.3888C63.9896 94.2833 57.5544 94.373 51.1616 93.9063C48.8299 93.7376 47.5677 94.2016 46.1444 95.9706C39.0782 104.816 31.8562 113.537 24.7081 122.319C17.6418 130.992 10.5888 139.677 3.54896 148.372C2.37654 149.837 1.18563 151.322 0 152.798L0.319512 153.117L65.3363 103.679L67.6125 101.963Z" fill="#FCCB06"/>
<path d="M52.1198 38.8347C56.8214 38.2109 61.5284 37.6135 66.2327 37.0003C68.717 36.6752 71.1934 36.276 73.6856 36.0355C75.8845 35.8241 77.3249 37.0928 77.7477 39.2444C78.0755 40.9202 78.4798 42.588 78.9608 44.2268C79.0665 44.5916 79.6348 45.0753 79.9968 45.0779C86.641 45.1282 93.2852 45.1149 100.133 45.1149C100.006 44.7584 99.8543 44.4112 99.6783 44.0762C96.01 38.454 92.3496 32.8319 88.6496 27.231C86.9053 24.5878 84.2386 23.5648 81.2495 24.4662C78.9106 25.1719 76.6272 26.0521 74.3199 26.8609C66.9304 29.4354 59.5418 32.0099 52.1541 34.5844C48.0312 36.0197 43.8978 37.4258 39.7723 38.869C37.8641 39.5351 35.9744 40.2514 34.0742 40.9466C36.8372 40.8596 39.5925 40.6072 42.3253 40.1906C45.5919 39.7492 48.8532 39.2761 52.1198 38.8347Z" fill="#FCCB06"/>
<path d="M112.513 47.2136C114.203 47.2209 115.878 46.886 117.44 46.2285C119.002 45.571 120.419 44.604 121.609 43.384C122.799 42.1639 123.738 40.7153 124.372 39.1224C125.005 37.5296 125.32 35.8246 125.298 34.1067C125.494 26.6466 119.026 20.801 112.095 21.0052C105.688 21.1986 99.5845 26.7514 99.6136 34.0557C99.602 35.7828 99.9275 37.4951 100.571 39.0937C101.215 40.6922 102.164 42.1452 103.363 43.3688C104.563 44.5923 105.989 45.5621 107.559 46.222C109.13 46.882 110.813 47.219 112.513 47.2136Z" fill="#FCCB06"/>
</svg>
