<svg width="188" height="145" viewBox="0 0 188 145" fill="none" xmlns="http://www.w3.org/2000/svg">
<circle cx="109.484" cy="57.7218" r="54.9913" fill="#505050"/>
<path d="M187.993 0.48653C188.159 5.67206 185.3 9.68161 182.657 13.7631C181.912 14.8607 181.075 15.8933 180.155 16.85C177.078 20.1934 176.968 21.0285 179.286 25.4133L182.582 23.8151L180.08 29.1727L183.768 27.7684C183.58 28.5816 183.633 29.2634 183.33 29.5073C180.653 31.6747 181.944 34.058 182.88 36.4099C184.778 41.1826 184.79 41.1763 182.282 44.4697C180.718 42.0771 179.18 39.8064 177.71 37.4952C175.989 34.7898 174.191 32.122 172.674 29.3072C171.517 27.1523 170.557 27.3806 169.159 28.9944C167.16 31.2838 165.093 33.5169 163.007 35.7187C161.196 37.6203 162.869 39.2497 163.432 40.8761C163.995 42.5024 164.893 43.9818 162.75 45.5674C161.9 44.6761 160.94 43.8129 160.148 42.8152C158.606 40.8698 157.734 40.8104 156.395 42.8433C150.368 52.0353 142.678 59.7635 134.53 66.982C120.187 79.6737 104.046 89.8946 87.5103 99.4619C72.8513 107.947 57.4261 114.768 41.097 119.41C33.5533 121.552 25.8782 122.969 17.9936 122.653C12.3639 122.425 7.04704 121.245 2.87798 116.995C2.82168 116.936 2.76226 116.879 2.70283 116.826C1.92976 116.166 1.29883 115.356 0.848309 114.445C0.397783 113.533 0.137049 112.54 0.081922 111.525C-0.0212881 108.935 -0.105733 106.296 0.344639 103.753C0.938879 100.453 2.61213 97.2726 4.2072 94.2388C8.99552 85.1344 15.4164 77.2561 23.1447 70.3535C21.0523 73.3654 18.8411 76.2959 16.8895 79.4079C13.5837 84.6997 11.0222 90.3168 10.0089 96.5564C8.79223 103.987 13.3929 109.955 21.3745 111.237C31.2045 112.82 40.7217 111.125 50.1482 108.557C51.4993 108.191 52.8567 107.844 54.5737 107.393V104.794C54.5737 89.7226 54.4987 74.6508 54.6394 59.5821C54.6644 56.7955 53.6386 56.2106 51.1522 56.2325C40.753 56.3232 30.3538 56.2325 19.9577 56.3076C18.0248 56.3076 17.2805 55.8415 17.3118 53.7648C17.4275 46.1367 17.3931 38.5054 17.343 30.8772C17.343 29.0351 17.7465 28.1687 19.8951 28.1719C55.1888 28.2365 90.4856 28.2542 125.786 28.225C126.158 28.225 126.53 28.2876 127.284 28.3564V36.5538C127.284 42.2772 127.187 48.0038 127.334 53.7242C127.393 55.951 126.758 56.7173 124.475 56.6985C114.364 56.6172 104.252 56.6985 94.1376 56.6985C90.2312 56.6985 90.1812 56.6453 90.1687 60.6361C90.1374 69.8896 90.1374 79.142 90.1687 88.3934C90.1687 89.291 90.4033 90.1855 90.6097 91.6242C115.693 77.7002 138.058 61.1897 156.842 39.4249L150.409 35.9846C151.241 32.7882 153.877 33.6889 155.632 34.2081C158.172 34.9556 159.401 34.2081 160.558 32.0845C161.901 29.7132 163.371 27.4163 164.962 25.2038C166.028 23.6619 165.765 23.0145 163.93 22.4234C158.256 20.6219 152.605 18.6296 147.012 16.7374C147.904 12.24 151.391 13.638 153.774 14.0477C157.262 14.6451 160.061 14.5763 161.822 10.8138L162.478 11.3142L161.653 14.889L165.334 12.5934C166.441 13.6474 167.31 15.0423 168.536 15.5145C170.598 16.3058 171.87 14.9735 173.053 13.1939C176.69 7.72062 181.244 3.13246 187.146 0.00488281L187.993 0.48653Z" fill="#FCCB06"/>
<path d="M22.289 137.784C46.5184 131.967 68.9494 122.127 89.9573 108.697V144.27H54.6407V133.949C43.7098 135.829 33.2168 138.556 22.289 137.784Z" fill="#FCCB06"/>
</svg>
