<svg width="172" height="144" viewBox="0 0 172 144" fill="none" xmlns="http://www.w3.org/2000/svg">
<circle cx="114.983" cy="54.1494" r="53.2881" fill="#505050"/>
<path d="M171.082 78.3064C170.679 78.9517 170.359 79.6817 169.839 80.2168C169.283 80.7881 168.522 80.9373 167.671 80.7236C164.807 80.0057 161.947 79.23 159.046 78.6989C156.047 78.1491 154.546 79.0068 153.399 82.154C152.882 83.6196 152.605 85.159 152.579 86.7128C152.53 88.9647 153.655 90.3521 155.901 90.9396C158.859 91.7167 161.853 92.3889 164.817 93.1592C166.253 93.5316 167.151 95.3734 166.609 96.7205C166.103 97.9829 164.996 98.5193 163.786 98.7532C160.625 99.3595 157.442 99.8287 154.21 99.6943C151.977 99.6002 149.784 99.291 147.734 98.2921C145.615 97.265 144.145 95.688 143.338 93.4617C141.994 89.7323 139.463 87.3071 135.461 86.6483C131.732 86.0339 128.003 85.4061 124.254 84.9154C120.042 84.3642 115.815 83.8963 111.573 83.5119C108.298 83.2107 105.008 83.0306 101.721 82.8934C98.1194 82.7415 94.5138 82.6864 90.9094 82.6138C87.8926 82.5546 84.8745 82.4794 81.8577 82.5049C78.8409 82.5304 75.8267 82.6918 72.8113 82.7913C72.7024 82.7913 72.5921 82.7913 72.3125 82.7913C72.5531 78.4247 72.7898 74.0998 73.0385 69.584C74.2229 69.584 75.3374 69.584 76.4519 69.584C78.3784 69.584 80.3049 69.584 82.2328 69.5517C83.7492 69.5302 85.267 69.4173 86.7822 69.4442C94.7732 69.5557 102.764 69.713 110.722 70.4995C117.76 71.1959 124.785 72.0173 131.814 72.8145C133.279 72.9812 134.722 73.3913 136.189 73.4948C138.404 73.6494 140.632 73.7059 142.851 73.6709C145.364 73.6319 147.273 72.2176 149.006 70.5869C150.529 69.1524 152.313 68.4359 154.367 68.4668C157.207 68.5031 159.854 69.2734 162.36 70.6286C164.982 72.0657 167.473 73.7301 169.804 75.6028C170.484 76.1406 170.821 76.8571 171.089 77.6369L171.082 78.3064Z" fill="#FCCB06"/>
<path d="M103.511 85.5888C105.847 85.7326 108.043 85.7703 110.216 86.0203C115.459 86.6226 120.72 87.1832 125.928 88.0369C129.649 88.6446 133.298 89.6972 136.979 90.5469C137.57 90.6813 137.879 90.9502 137.651 91.6224C137.562 91.8913 137.621 92.2005 137.609 92.4909C137.526 94.6163 137.528 96.7486 137.34 98.8633C137.125 101.186 136.725 103.491 136.414 105.806C135.954 109.224 135.07 112.546 133.931 115.788C132.755 119.131 131.313 122.375 129.234 125.272C128.129 126.814 127.015 128.373 125.726 129.756C124.37 131.213 122.815 132.492 121.312 133.809C120.609 134.443 119.853 135.015 119.051 135.519C117.548 136.43 116.034 137.342 114.456 138.099C112.728 138.926 110.953 139.651 109.14 140.269C107.373 140.859 105.574 141.353 103.753 141.748C101.695 142.206 99.614 142.575 97.5288 142.899C96.0538 143.142 94.5648 143.293 93.0708 143.35C89.2945 143.457 85.514 143.54 81.7376 143.494C79.7211 143.47 77.6924 143.215 75.6812 142.966C73.4105 142.685 71.1331 142.385 68.8933 141.928C66.0121 141.327 63.1886 140.477 60.4546 139.387C54.4304 137.018 49.241 133.51 45.1285 128.498C44.0696 127.181 43.1046 125.792 42.2408 124.339C41.254 122.726 40.282 121.073 39.5305 119.338C38.6369 117.246 37.8653 115.104 37.2195 112.923C36.5888 110.848 36.0771 108.738 35.6869 106.604C35.2755 104.331 34.9865 102.033 34.8036 99.7237C34.5697 96.766 34.4595 93.8084 34.3654 90.8507C34.3076 89.0506 34.3412 87.2437 34.403 85.4422C34.5374 81.5018 34.7189 77.5628 34.8789 73.6237C34.93 72.3492 34.9408 71.0694 35.0268 69.7976C35.1868 67.4166 35.4005 65.0398 35.5646 62.6602C35.6708 61.1652 35.7138 59.6649 35.8334 58.1699C36.0916 54.809 36.3712 51.448 36.6522 48.087C36.7409 47.0209 36.8498 45.9575 36.96 44.8927C37.0044 44.4666 36.9372 44.2662 36.4223 44.113C34.4931 43.5403 32.6002 42.8439 30.6858 42.2214C28.8776 41.6339 27.0559 41.0773 25.245 40.5194C24.761 40.3715 24.5325 40.1309 24.5352 39.5784C24.5603 35.6348 24.5603 31.6913 24.5352 27.7477C24.5352 27.21 24.6696 27.0056 25.2531 27.0056C38.6298 27.0146 52.0073 27.0137 65.3858 27.0029C70.4474 27.0029 75.5077 27.0177 80.5694 27.0029C81.177 27.0029 81.376 27.1548 81.376 27.7827C81.3505 31.7486 81.3612 35.7146 81.3679 39.6792C81.3679 40.0906 81.2604 40.3231 80.8624 40.5732C77.9518 42.4016 75.0722 44.2797 72.1898 46.1538C72.0424 46.2513 71.9383 46.4021 71.8994 46.5746C71.6184 48.8762 71.3334 51.1778 71.0928 53.4834C70.8414 55.949 70.6666 58.4213 70.4206 60.8869C70.1651 63.3929 69.8008 65.8881 69.587 68.3967C69.2751 72.0548 69.0345 75.7209 68.8033 79.3858C68.6339 82.0436 68.4752 84.7028 68.4094 87.3647C68.3139 91.2769 68.2104 95.1917 68.2991 99.1012C68.3489 101.34 68.7535 103.573 69.0331 105.804C69.3664 108.47 70.0616 111.078 71.0995 113.556C72.7504 117.518 75.3034 120.7 79.4374 122.313C82.2983 123.427 85.2882 123.616 88.3251 123.308C90.8002 123.058 93.1125 122.331 95.1815 120.938C97.342 119.485 98.923 117.514 100.111 115.212C101.382 112.745 102.254 110.093 102.697 107.353C103.089 104.96 103.452 102.543 103.557 100.126C103.731 96.1288 103.7 92.1225 103.724 88.1203C103.728 87.3203 103.595 86.5258 103.511 85.5888Z" fill="#FCCB06"/>
<path d="M136.938 69.5231L126.61 68.1572L111.904 66.2105C108.753 65.7937 105.601 65.381 102.45 64.9723C102.11 64.9279 101.955 64.8043 101.924 64.4346C101.738 62.1652 101.544 59.8972 101.317 57.6319C101.098 55.4594 100.831 53.2909 100.589 51.1211C100.427 49.6584 100.286 48.193 100.1 46.733C100.061 46.4785 99.9244 46.2492 99.7197 46.093C96.8346 44.223 93.928 42.3852 91.047 40.5071C90.8279 40.3646 90.6585 39.9693 90.6558 39.7005C90.6316 35.6915 90.6558 31.6812 90.6289 27.6722C90.6289 27.1237 90.805 27 91.324 27C96.9704 27.0161 102.617 27 108.263 27H139.639C142.013 27 144.387 27.0148 146.764 27C147.292 27 147.464 27.168 147.462 27.6937C147.446 31.6812 147.446 35.6695 147.462 39.6588C147.462 40.1253 147.287 40.3538 146.865 40.4815C144.63 41.1537 142.393 41.8259 140.17 42.5304C138.532 43.0507 136.904 43.6059 135.296 44.2042C135.107 44.2754 134.959 44.7675 134.982 45.0484C135.167 47.424 135.402 49.7955 135.612 52.1737C135.755 53.7735 135.881 55.3747 136.016 56.9772C136.262 60.0021 136.512 63.027 136.746 66.0519C136.818 67.1731 136.867 68.3024 136.938 69.5231Z" fill="#FCCB06"/>
<path d="M33.0214 73.844C33.0214 76.0676 33.0079 78.1917 33.0214 80.3158C33.0402 82.6228 33.102 84.9298 33.1061 87.2354C33.1061 87.5137 32.938 87.9076 32.7189 88.0501C30.8004 89.3273 29.5233 91.1274 28.7556 93.2274C27.6075 96.3665 25.3879 98.1546 22.2515 99.0311C19.3315 99.8485 16.3711 99.8377 13.4094 99.5353C11.3928 99.3336 9.40851 98.9357 7.41612 98.5848C6.23171 98.375 5.1562 96.9876 5.20595 95.8073C5.26644 94.2868 6.18466 93.3067 7.72668 92.9679C9.89383 92.4933 12.0502 91.9677 14.2039 91.4299C15.1508 91.2014 16.0839 90.9195 16.9989 90.5856C18.545 90.0062 19.3207 88.7344 19.4188 87.1951C19.593 84.8026 18.995 82.4172 17.7128 80.3898C16.5499 78.5466 14.9541 78.3181 12.7574 78.7241C10.7731 79.0911 8.80622 79.5536 6.84207 80.0053C5.98838 80.2016 5.1441 80.4503 4.31058 80.7219C4.05854 80.8142 3.78827 80.8458 3.52173 80.814C3.25519 80.7822 2.9999 80.688 2.77663 80.539C2.16493 80.1532 1.52635 79.8507 1.23327 79.0844C0.743914 77.8045 0.975149 76.5919 2.03991 75.7234C4.70045 73.5684 7.50082 71.6297 10.6023 70.1509C12.4159 69.2878 14.3088 68.6344 16.3146 68.4301C18.7184 68.1841 20.9165 68.7124 22.7462 70.3889C24.0597 71.5988 25.4753 72.6407 27.1303 73.3304C28.7207 73.9975 30.47 74.1908 32.1677 73.887C32.4513 73.8578 32.7363 73.8434 33.0214 73.844Z" fill="#FCCB06"/>
</svg>
