<svg width="139" height="142" viewBox="0 0 139 142" fill="none" xmlns="http://www.w3.org/2000/svg">
<circle cx="83.507" cy="55.8488" r="54.9913" fill="#505050"/>
<g clip-path="url(#clip0_0_322)">
<path d="M18.4068 62.834H116.27C117.877 83.9471 119.471 104.921 121.088 126.196C124.519 125.734 126.977 126.83 127.614 130.572C127.707 131.104 128.224 131.959 128.617 131.987C135.083 132.662 132.575 138.379 135 142.014H101.226C101.226 135.187 101.193 128.648 101.226 122.126C101.258 115.605 101.521 108.996 101.3 102.442C101.263 101.221 99.4521 99.0616 98.3943 99.0338C88.2001 98.7748 77.9967 98.8766 67.3915 98.8766V113.843H82.4956V127.45C67.0543 129.661 57.7839 126.705 53.091 113.575C48.472 100.625 57.4421 86.9395 72.2553 86.07C80.0245 85.6075 87.8445 85.9729 95.6414 85.9636H100.999V68.8512C87.8814 69.4108 74.7911 68.7864 62.1165 70.8075C46.6474 73.2773 35.7466 86.8979 33.4278 103.312C31.5248 116.789 39.1739 131.862 51.733 139.387C52.897 140.081 54.0933 140.719 56.1996 141.903H0C1.97694 138.388 -0.461902 133 5.86153 132.075C6.53129 131.973 7.01629 130.451 7.529 129.554C8.04171 128.657 8.4528 126.904 8.98399 126.867C15.9864 126.405 14.1665 120.808 14.4852 116.965C15.834 100.657 16.8456 84.3218 17.9818 67.9955C18.0973 66.3398 18.2544 64.6979 18.4068 62.834Z" fill="#FCCB06"/>
<path d="M131.493 43.7376C131.345 49.5374 128.453 50.5456 123.668 50.5179C86.1002 50.3236 48.5322 50.3236 10.9642 50.5179C6.10033 50.5271 3.33354 49.3894 3.17188 43.7376C4.09568 43.3445 5.24119 42.7433 6.46523 42.3178C25.8051 35.6578 45.1449 28.9978 64.5263 22.4627C66.2139 21.8951 68.0338 21.8532 69.7458 22.3424C89.7184 29.0672 109.631 35.9445 129.548 42.8126C130.214 43.0817 130.864 43.3906 131.493 43.7376ZM73.7043 35.8752C73.65 34.1854 72.935 32.5847 71.7133 31.4177C70.4917 30.2507 68.8612 29.6109 67.173 29.636C63.7226 29.7332 60.6833 32.8365 61.0343 36.222C61.4131 39.8711 63.5517 42.031 67.3069 42.1744C68.1437 42.1949 68.976 42.0467 69.7544 41.7388C70.5328 41.4308 71.2415 40.9693 71.8382 40.3817C72.435 39.794 72.9077 39.0923 73.2283 38.3181C73.5488 37.544 73.7107 36.7132 73.7043 35.8752Z" fill="#FCCB06"/>
<path d="M8.15625 59.0787V54.0791H126.44V59.0787H8.15625Z" fill="#FCCB06"/>
</g>
<defs>
<clipPath id="clip0_0_322">
<rect width="135" height="120" fill="white" transform="translate(0 22)"/>
</clipPath>
</defs>
</svg>
