<svg width="119" height="144" viewBox="0 0 119 144" fill="none" xmlns="http://www.w3.org/2000/svg">
<circle cx="64.9951" cy="54.1474" r="53.2881" fill="#505050"/>
<path d="M3.67195 21H47.2518V24.3094L35.2417 28.0429C35.2417 28.0429 34.1507 29.123 34.1507 31.8306V71.3926L52.6555 54.2019L106 102.832L52.6585 68.9587L0 102.832L17.2778 86.5856L16.7338 30.7536C16.7338 30.7536 17.2778 28.0459 14.0139 27.5014L3.67195 24.2522V21Z" fill="#FCCB06"/>
<path d="M16.7319 95.232L34.1517 84.4014V136.479H77.2662L88.8502 112.492H92.3892L90.7572 144H3.89062V140.528L14.0119 136.954C14.8692 136.776 15.6317 136.293 16.156 135.595C16.6803 134.897 16.9302 134.032 16.8588 133.163L16.7319 95.232Z" fill="#FCCB06"/>
<path d="M51.5695 88.7305H40.6836V99.5671H51.5695V88.7305Z" fill="#FCCB06"/>
<path d="M65.1789 88.7305H54.293V99.5671H65.1789V88.7305Z" fill="#FCCB06"/>
<path d="M51.5695 102.278H40.6836V113.115H51.5695V102.278Z" fill="#FCCB06"/>
<path d="M65.1789 102.278H54.293V113.115H65.1789V102.278Z" fill="#FCCB06"/>
</svg>
