<svg width="150" height="145" viewBox="0 0 150 145" fill="none" xmlns="http://www.w3.org/2000/svg">
<circle cx="94.7491" cy="60.8507" r="54.9913" fill="#505050"/>
<path d="M103.136 144.494C79.9556 144.788 56.7717 144.673 33.5908 144.751C23.162 144.785 12.7363 144.92 2.31058 144.998C0.204662 145.014 0.242437 144.995 0.255028 142.95C0.280211 138 0.305394 133.049 0.236141 128.099C0.217254 126.805 0.591849 126.539 1.86673 126.645C10.0291 127.333 18.1947 127.277 26.3665 126.629C32.2184 126.167 38.0702 125.707 43.8654 124.744C52.7581 123.265 61.5784 121.439 70.2665 119.037C78.8507 116.663 87.3153 113.915 95.7075 110.947C96.7998 110.563 97.8386 110.072 98.7893 109.402C100.291 108.349 100.744 106.829 100.055 105.165C99.1544 102.998 97.5521 102.401 95.1755 103.326C86.2387 106.813 77.0753 109.643 67.8301 112.173C58.5313 114.718 49.0846 116.663 39.5371 118.03C29.0894 119.525 18.5693 120.063 8.01135 119.659C5.97154 119.581 3.93487 119.397 1.89506 119.265C0.563518 119.178 -0.00624414 118.543 5.15739e-05 117.154C0.0472694 105.487 0.201514 93.8358 2.16578 82.275C3.69564 73.2722 6.28947 64.6227 10.5706 56.5392C12.0028 53.8374 14.6281 52.6304 17.7099 52.3896C22.0162 52.055 25.9951 53.3308 29.9739 54.6848C31.2614 55.1226 32.6024 55.3947 33.9056 55.7887C34.9066 56.0889 35.2466 55.6886 35.2718 54.738C35.3285 52.7617 35.5205 50.7823 35.489 48.8091C35.3883 42.6519 35.8888 36.5259 36.5719 30.4219C37.2927 23.977 38.8037 17.6947 41.6903 11.8596C43.4121 8.376 45.4425 5.02377 48.3795 2.32198C51.5336 -0.583071 56.1641 -0.764441 59.6331 1.79038C62.7305 4.07002 65.0159 7.03448 67.0966 10.1647C70.8142 15.7559 73.6536 21.8037 76.2191 27.9828C77.5381 31.1567 78.9011 34.312 80.1634 37.5078C81.4446 40.7475 82.6376 44.0247 83.8558 47.2893C84.5295 49.0968 84.7183 49.1437 86.4276 48.4026C93.057 45.5319 99.7305 42.7738 106.694 40.7631C107.94 40.4035 108.28 40.7193 108.315 41.917C108.538 49.3657 109.404 56.7581 110.43 64.1317C110.65 65.714 110.314 66.6053 108.661 67.3776C99.0915 71.8369 89.097 75.1703 79.0427 78.2724C71.4438 80.6177 63.7064 82.5158 55.8336 83.8949C48.2315 85.227 40.6169 86.2308 32.914 86.6248C31.3118 86.7061 29.6843 86.8531 28.7841 88.6355C27.4431 91.2935 28.9698 94.0735 31.9477 93.9765C36.2413 93.8358 40.5193 93.4043 44.7909 92.9196C51.0426 92.2066 57.2501 91.1966 63.379 89.805C72.6809 87.6911 81.8821 85.2082 90.8976 82.0624C97.4262 79.7828 103.86 77.278 110.251 74.6512C111.431 74.1665 111.859 74.4855 112.029 75.6675C113.688 87.1564 115.451 98.6328 117.025 110.134C118.105 118.024 119.036 125.935 119.398 133.9C119.534 136.861 119.773 139.819 119.99 142.778C120.081 144.054 119.546 144.532 118.246 144.519C113.206 144.463 108.17 144.494 103.136 144.494ZM40.982 47.0579C41.0796 49.078 40.8246 52.5678 41.2086 56.0514C41.322 57.0646 41.7312 57.5524 42.7133 57.69C48.9807 58.5656 55.2292 58.7657 61.4557 57.346C67.1911 56.0357 72.7942 54.3096 78.155 51.9111C82.3102 50.0536 81.8821 51.3232 80.3113 47.0423C76.792 37.4578 72.7911 28.0641 67.616 19.2207C65.0883 14.9022 62.463 10.6431 58.1725 7.71306C56.2806 6.42158 54.3824 5.34274 52.0625 6.33089C50.0226 7.20022 48.178 8.52923 47.0227 10.3742C44.388 14.5801 43.1037 19.3489 42.175 24.1458C40.8089 31.2224 40.8372 38.4147 40.982 47.0579Z" fill="#FCCB06"/>
</svg>
