<svg width="183" height="144" viewBox="0 0 183 144" fill="none" xmlns="http://www.w3.org/2000/svg">
<circle cx="106.995" cy="54.1963" r="53.2881" fill="#505050"/>
<path d="M28.6719 97.8326V95.4588C28.6719 76.5269 28.6719 57.5949 28.6719 38.6629C28.6719 35.3171 29.2707 32.1969 31.5143 29.5498C33.4541 27.2802 35.7757 25.4359 38.8091 25.2927C43.4784 25.0758 48.1608 25.2363 53.1296 25.2363V27.7836C53.1296 40.8023 53.1773 53.8209 53.0818 66.8395C53.0818 68.8835 53.7067 69.3695 55.6508 69.3391C63.3145 69.2393 70.9911 69.0267 78.6504 69.3695C86.3792 69.7167 93.6739 67.6076 101.125 66.3318C102.635 66.0671 102.427 65.082 102.427 64.0839V25.1582H127.006V61.2155C129.406 60.8119 131.441 60.4951 133.463 60.1263C139.79 58.9763 146.122 57.8437 152.427 56.5939C153.307 56.3538 154.082 55.8288 154.632 55.1011C156.263 52.9877 157.669 50.6834 159.331 48.5917C160.031 47.7348 160.988 47.1261 162.061 46.8559C165.034 46.253 168.039 45.8184 171.061 45.5541C172.168 45.5264 173.259 45.8155 174.207 46.3873C175.529 47.1377 176.751 48.0519 177.844 49.1082C178.673 49.9066 179.224 50.9959 180.204 52.3932C176.854 53.0658 174.264 53.63 171.656 54.0943C170.31 54.333 169.664 54.8277 169.833 56.3595C170.197 59.5838 170.388 62.8255 170.675 66.4143L181.758 64.9866C182.344 66.7918 181.806 68.1501 180.89 69.695C178.955 73.006 176.147 74.2949 172.506 75.2756C167.733 76.5775 163.827 76.0915 160.316 72.6198C157.782 70.1202 154.892 69.8382 151.403 70.45C137.438 72.7977 123.4 74.7288 109.426 77.0505C101.615 78.3524 93.8736 80.0318 86.1275 81.6808C79.4446 83.1042 72.7486 84.5319 66.1656 86.3154C58.0376 88.5156 50.0007 91.0412 41.9465 93.5104C37.6244 94.7949 33.3456 96.292 28.6719 97.8326Z" fill="#FCCB06"/>
<path d="M126.928 143.689H102.414V94.1225C97.2891 95.1553 92.4549 95.9711 87.7031 97.1124C76.8195 99.7162 65.9793 102.524 55.1087 105.18C53.5552 105.562 53.0778 106.26 53.0865 107.853C53.156 118.845 53.1212 129.837 53.1212 140.833V143.628H28.7807V114.119C26.9538 114.87 25.461 115.343 24.107 116.072C20.6354 117.955 17.1334 119.865 13.7616 121.948C12.503 122.797 11.3993 123.855 10.4982 125.076C8.46297 127.65 8.54109 130.462 11.2533 132.276C14.087 134.172 17.3894 135.366 20.5096 136.819C21.2157 137.081 21.9412 137.287 22.6793 137.436V143.702C15.6232 141.458 8.63221 139.288 3.17741 134.081C-0.584981 130.488 -0.966861 126.322 1.82347 121.93C4.47927 117.734 8.35448 114.818 12.425 112.158C21.6726 106.117 31.7577 101.782 42.0207 97.8371C53.8419 93.2029 66.0157 89.5242 78.4251 86.8364C88.9182 84.6232 99.4228 82.4752 109.939 80.3922C115.524 79.2856 121.152 78.3916 126.928 77.3545V143.689Z" fill="#FCCB06"/>
</svg>
