<svg width="111" height="143" viewBox="0 0 111 143" fill="none" xmlns="http://www.w3.org/2000/svg">
<circle cx="55.4835" cy="55.7218" r="54.9913" fill="#505050"/>
<path d="M3 39.4173V142.78C18.8647 144.822 26.2426 132.146 27.9485 125.553V89.1846H68.25C68.4632 80.6773 68.7618 63.2801 68.25 61.7488C67.6103 59.8347 62.4926 58.5586 59.9338 59.1966C57.8868 59.7071 52.6838 64.5136 50.3382 66.8531L15.1544 65.577C12.0838 64.5562 13.875 62.5995 15.1544 61.7488H36.9044C38.9515 60.2175 38.1838 57.2825 36.9044 56.6445H15.1544C11.5721 55.1132 13.6618 53.0289 15.1544 52.1782C22.1912 52.8162 33.0662 52.4972 36.9044 52.4972C39.0145 52.4972 38.8235 48.3499 36.2647 48.3499H15.1544C11.5721 47.8395 12.8088 45.5851 13.875 44.5217C26.2426 43.8836 51.3618 42.9904 52.8971 44.5217C54.4324 46.053 58.6544 48.988 60.5735 50.264C77.4618 54.8579 87.2279 41.1188 90 33.675V19H22.8309C8.50147 20.5313 3.63971 33.2496 3 39.4173Z" fill="#FCCB06"/>
</svg>
