<svg width="131" height="143" viewBox="0 0 131 143" fill="none" xmlns="http://www.w3.org/2000/svg">
<circle cx="76.9912" cy="54.1474" r="53.2881" fill="#505050"/>
<path d="M0.00317456 91.254H1.09725C8.0225 91.254 14.9477 91.2574 21.873 91.2641C22.5817 91.2641 22.9352 91.1553 23.2134 90.3388C23.9991 88.0818 25.0128 85.9034 25.9209 83.6865C26.5107 82.2426 27.0703 80.7854 27.6567 79.3365C27.722 79.1691 27.8695 79.047 28.0538 78.8027C28.724 80.8824 29.3439 82.8416 29.9789 84.7975C30.6842 86.9725 31.4265 89.1359 32.1101 91.3226C32.9897 94.1401 33.8157 96.9727 34.6886 99.7919C35.0773 101.047 35.5364 102.278 35.9368 103.528C36.535 105.402 37.1096 107.282 37.6944 109.158C37.8502 109.66 38.0295 110.142 38.2087 110.627C38.2389 110.707 38.3763 110.821 38.4232 110.806C38.5383 110.771 38.6346 110.691 38.6913 110.585C39.5541 108.291 40.3852 105.984 41.2681 103.699C41.8747 102.129 42.5733 100.595 43.1849 99.0273C43.8768 97.2521 44.5068 95.4535 45.1804 93.6733C45.8539 91.8931 46.5593 90.1146 47.2311 88.3278C48.0152 86.238 48.7792 84.145 49.5516 82.0486L49.8097 81.9984C52.2173 87.8091 54.6266 93.6181 57.1163 99.6246L66.2677 82.2443C66.6732 82.9437 67.0301 83.5008 67.33 84.0847C68.4039 86.1811 69.4427 88.2943 70.5401 90.3756C70.6507 90.5848 71.0713 90.7303 71.3511 90.7337C73.8073 90.7604 76.2635 90.7487 78.7231 90.7487H97.4397V142.19C97.2422 142.228 97.0424 142.253 96.8416 142.264C87.6031 142.264 78.364 142.269 69.1244 142.279C68.4056 142.279 68.1643 142.08 68.166 141.332C68.1895 133.415 68.1777 125.498 68.1777 117.582C68.1777 116.503 68.1777 116.493 67.1122 116.493H30.5184C29.3824 116.493 29.4126 116.493 29.4159 117.627C29.4327 122.941 29.4399 128.255 29.4377 133.569C29.4377 136.128 29.426 138.687 29.4578 141.247C29.4679 141.988 29.235 142.282 28.4525 142.281C20.5527 142.26 12.6529 142.27 4.75311 142.257C4.48839 142.257 4.23037 142.068 3.96062 142.025C3.57526 141.964 3.27033 141.881 2.78779 142.076C2.04389 142.378 1.0805 142.182 0.220985 142.086C0.118781 142.075 -0.0889759 141.25 0.0701931 141.009C0.489059 140.382 0.303082 139.761 0.266222 139.14C0.22266 138.432 0.0165783 137.73 0.0149028 137.025C0.000382124 122.111 -0.00352729 107.198 0.00317456 92.2847V91.254Z" fill="#FCCB06"/>
<path d="M29.3463 34.6123C29.3463 37.4231 29.3463 40.1787 29.3463 42.936C29.3463 48.7919 29.3463 54.6361 29.3245 60.4869C29.3245 61.183 29.7182 61.1461 30.1907 61.1461C36.2224 61.1461 42.254 61.1461 48.2857 61.1461H68.1818V59.8077C68.1818 57.9388 68.1818 56.0716 68.1818 54.2044C68.1818 53.7895 68.1651 53.4281 68.7665 53.4314C71.8343 53.4465 74.9021 53.4314 78.1826 53.4314V56.7509C78.1826 58.3772 78.1826 60.0034 78.1826 61.6297C78.1692 63.2108 78.124 64.7902 78.1106 66.3713C78.1005 67.5993 78.1759 67.6646 79.3605 67.6646H97.4253V86.2127H96.1889L79.3756 86.221C77.6448 86.221 75.9141 86.2495 74.1816 86.2026C74.0057 86.1865 73.8355 86.1318 73.6832 86.0424C73.5309 85.953 73.4001 85.8312 73.3003 85.6856C71.9901 83.2329 70.7268 80.755 69.4585 78.2805C68.8369 77.0641 68.2304 75.8394 67.6272 74.613C67.3508 74.0525 67.1246 73.4686 66.8297 72.9181C66.7091 72.6923 66.4695 72.53 66.2668 72.3208C64.727 75.3224 63.2727 78.1868 61.7882 81.0361C60.736 83.0589 59.6437 85.0599 58.5697 87.071C58.3368 87.506 58.1089 87.9427 57.861 88.3676C57.804 88.4647 57.623 88.6002 57.5812 88.5751C57.4552 88.4995 57.3566 88.3858 57.2997 88.2505C56.5413 86.409 55.7884 84.5641 55.0412 82.7159C54.1079 80.4154 53.1864 78.1098 52.2431 75.8126C51.3937 73.7447 50.5208 71.6851 49.6378 69.5703C48.9911 69.8313 48.9961 70.5507 48.7816 71.0761C48.2974 72.2573 47.9439 73.4903 47.5066 74.6933C46.9235 76.3146 46.3338 77.9341 45.7122 79.5453C45.0973 81.1231 44.4087 82.6724 43.7988 84.2518C43.08 86.1106 42.4249 87.9945 41.7179 89.8584C41.0896 91.5097 40.416 93.1427 39.7861 94.7924C39.4795 95.5955 39.2265 96.4186 38.9483 97.2318H38.6903L28.5303 65.2955C28.2136 66.0199 27.9573 66.5553 27.7428 67.1074C27.014 68.9863 26.3371 70.887 25.5647 72.7508C24.4623 75.4278 23.2794 78.0763 22.1686 80.7516C21.4263 82.5435 20.7696 84.3689 20.024 86.1591C19.9463 86.3038 19.8361 86.4287 19.7021 86.5239C19.5682 86.619 19.414 86.682 19.2516 86.7079C12.9418 86.7364 6.63368 86.728 0.318865 86.7246C0.224021 86.7145 0.130343 86.6954 0.0390625 86.6678V34.6123H29.3463Z" fill="#FCCB06"/>
<path d="M99.7394 34.6119H97.6602V33.1462C97.6602 29.0756 97.6602 25.0049 97.6819 20.9325C97.6819 20.3185 97.5144 20.1228 96.8811 20.1261C92.3875 20.1484 87.8939 20.1428 83.4003 20.1094C82.638 20.1094 82.395 20.3486 82.4051 21.125C82.4453 25.3077 82.4285 29.4905 82.4285 33.6733C82.4285 33.9426 82.4017 34.212 82.3816 34.5801H68.0246C68.0246 39.3368 68.043 43.9913 68.0078 48.6443C68.0078 49.4507 68.2826 49.6163 69.0265 49.6113C73.1867 49.5795 77.3468 49.5963 81.507 49.5963H82.4302V50.6302C82.4302 54.7294 82.4503 58.8285 82.4118 62.9259C82.4118 63.6822 82.638 63.8478 83.3584 63.8428C87.7783 63.811 92.1998 63.8261 96.6197 63.8261H97.6987V49.5879H111.997V34.4831C108.127 34.4831 104.332 34.6119 100.539 34.6119H99.7394Z" fill="#FCCB06"/>
</svg>
