<svg width="138" height="154" viewBox="0 0 138 154" fill="none" xmlns="http://www.w3.org/2000/svg">
<circle cx="82.507" cy="67.8976" r="54.9913" fill="#505050"/>
<path d="M48.0642 0.306641C47.5224 2.991 46.8038 5.65331 46.4788 8.35972C45.6461 15.2553 47.454 21.5886 51.218 27.4644C51.9195 28.5668 51.9423 30.0606 51.9138 31.4606C43.6101 24.1627 41.4772 10.5315 45.783 0.306641H48.0642Z" fill="#FCCB06"/>
<path d="M75.6513 120.246L54.5028 124.065C53.6513 121.937 53.7785 121.026 55.686 120.971C63.6146 120.742 71.1065 118.718 78.4048 115.733C87.5387 111.995 95.2517 106.43 101.019 98.5071C107.814 89.1656 107.062 78.2637 98.5636 70.0026C93.7423 65.3209 88.0585 61.4687 82.629 57.4527C74.0921 51.1342 65.4226 44.9902 56.8139 38.7698C55.299 37.6786 54.8235 36.4781 56.261 35.3105L75.0597 49.6609L75.7951 49.2626C75.7951 46.0597 75.7951 42.8567 75.7951 39.6483C75.7951 34.6557 76.9285 33.5426 81.9599 33.5371C86.7481 33.5371 91.5418 33.5371 96.3354 33.5371C100.654 33.5371 101.986 34.8521 101.992 39.0645C101.992 48.5205 101.992 57.9711 102.03 67.438C102.03 68.5293 102.152 69.9153 102.777 70.761C109.688 80.1134 109.495 89.5476 103.65 99.3092C102.611 101.183 102.067 103.285 102.069 105.42C101.936 119.684 102.003 133.947 101.997 148.21C101.997 152.761 100.731 153.988 96.059 153.999C91.0829 153.999 86.1067 153.999 81.1306 153.999C77.205 153.999 75.8172 152.641 75.8006 148.723C75.7619 139.812 75.8006 130.908 75.8006 121.986C75.7817 121.404 75.7318 120.823 75.6513 120.246Z" fill="#FCCB06"/>
<path d="M76.344 113.499V105.614H46.7305V82.4529H76.1387V56.3838C84.5949 62.1836 93.1178 66.8452 99.0438 74.5728C103.954 80.9662 103.855 87.915 99.9371 94.7223C96.2195 101.203 90.5376 105.794 84.0345 109.426C81.6874 110.777 79.2515 111.98 76.344 113.499Z" fill="#FCCB06"/>
<path d="M47.293 28.7301L48.2145 36.1521C52.6024 34.422 54.9225 29.215 53.6445 24.0301C50.743 25.3249 50.902 22.7407 50.019 21.1979C52.1581 19.7102 54.171 19.6111 56.1346 21.1483C58.2024 22.7683 58.729 25.2147 57.4949 27.843C54.0942 35.0501 50.6113 42.2186 47.1888 49.4147C41.4479 61.4926 35.7126 73.565 29.9827 85.632C29.6701 86.2821 29.2916 86.8937 28.9406 87.5384C25.4358 85.1581 25.4412 85.1636 26.8234 81.4113C33.2956 63.8858 39.7659 46.3566 46.2344 28.8238L47.293 28.7301Z" fill="#FCCB06"/>
<path d="M16.0948 76.1145L2.07819 63.6309L16.1002 51.1913L30.1168 63.6474L16.0948 76.1145Z" fill="#FCCB06"/>
<path d="M18.6914 137.028C19.1209 136.595 19.4053 136.257 19.7399 135.971C24.1292 132.32 28.5296 128.68 33.0583 124.923C36.9122 128.093 40.7549 131.147 44.4135 134.37C46.1369 135.887 46.0477 137.979 44.5641 139.575C40.6991 143.744 35.2725 144.78 29.8514 145.683C29.422 145.757 28.8141 145.366 28.4181 145.049C25.1944 142.423 21.9875 139.755 18.6914 137.028Z" fill="#FCCB06"/>
<path d="M32.9979 119.73L21.8086 109.974C24.0798 103.672 26.8563 97.938 33.2311 94.8066C36.0354 97.1649 38.9785 99.5399 41.8049 102.037C45.5143 105.324 45.6254 108.656 42.0048 112.049C39.1784 114.68 36.1242 117.077 32.9979 119.73Z" fill="#FCCB06"/>
<path d="M16.0812 81.3066C16.2553 81.3592 16.4251 81.4249 16.5891 81.5034C18.375 83.0502 21.0074 84.3018 21.6792 86.2366C22.269 87.9364 20.6961 90.4069 20.0407 92.5221C19.3854 94.6373 18.6863 96.6595 17.9381 98.7037C17.1899 100.748 16.3543 102.748 15.3931 105.191L2.07819 93.5824L16.0812 81.3066Z" fill="#FCCB06"/>
<path d="M38.4223 40.8263C35.921 47.6719 33.6729 53.8623 31.2191 60.5375L18.6914 49.4939C21.921 46.6438 24.8497 43.8522 28.0265 41.3857C28.9025 40.7038 30.512 40.8955 31.789 40.8529C33.789 40.7677 35.7943 40.8263 38.4223 40.8263Z" fill="#FCCB06"/>
<path d="M20.4699 113.499C23.8303 116.564 26.8791 119.355 30.1149 122.314C25.5962 126.336 21.2022 130.241 16.6628 134.268L12.4609 130.569C15.115 124.909 17.7015 119.392 20.4699 113.499Z" fill="#FCCB06"/>
<path d="M1.03906 118.693V96.8848L13.5007 107.693L1.03906 118.693Z" fill="#FCCB06"/>
<path d="M0.918767 124.923L13.5001 136.251C11.1864 138.348 9.05396 140.281 6.92154 142.148C6.5236 142.472 6.01823 142.621 5.51414 142.565C2.48077 142.016 -0.0781409 138.431 0.00182501 135.213C0.0871219 131.814 0.00182501 128.415 0.00182501 125.011L0.918767 124.923Z" fill="#FCCB06"/>
<path d="M36.3472 146.73C35.5399 150.454 33.4743 152.599 29.9333 152.774C24.8722 153.024 19.8003 153.024 14.7392 152.774C11.2038 152.61 9.10477 150.511 8.30859 146.772C17.6511 149.23 26.821 149.359 36.3472 146.73Z" fill="#FCCB06"/>
<path d="M2.07812 67.8066L13.5013 78.1802L2.07812 88.576V67.8066Z" fill="#FCCB06"/>
<path d="M5.03188 41.8457L13.5019 49.5422L3.70671 58.4612L3.11719 58.2041C3.9536 52.9262 2.53774 47.3807 5.03188 41.8457Z" fill="#FCCB06"/>
<path d="M40.0397 71.9609C44.3389 74.9391 44.8104 80.7985 41.1825 84.0614C38.5586 86.4189 35.9291 88.7649 32.6618 91.6918C32.4565 90.365 32.0072 89.4141 32.2735 88.8162C34.7864 83.1617 37.4269 77.5756 40.0397 71.9609Z" fill="#FCCB06"/>
<path d="M35.3047 122.461L44.6509 114.538V130.115L35.3047 122.461Z" fill="#FCCB06"/>
<path d="M25.0604 87.5381L28.0376 90.3623L20.2021 108.081L19.3695 108.307C19.1429 107.33 18.4895 106.189 18.753 105.404C20.7132 99.5128 22.8578 93.6949 25.0604 87.5381Z" fill="#FCCB06"/>
<path d="M35.3047 92.7131L43.6124 85.4609V99.9995L35.3047 92.7131Z" fill="#FCCB06"/>
<path d="M16.272 138.423L23.8829 145.795L23.6967 146.731L10.5379 144.99L10.3828 144.106L16.272 138.423Z" fill="#FCCB06"/>
<path d="M23.8856 40.8066L16.0689 47.0374L8.30859 40.8066H23.8856Z" fill="#FCCB06"/>
<path d="M2.07819 121.607L11.8907 113.499L12.4629 113.778C10.8436 117.742 9.23016 121.712 7.49652 125.961L2.07819 121.607Z" fill="#FCCB06"/>
<path d="M29.0684 37.691H15.5971C15.4349 34.7706 16.3019 33.4304 18.5834 33.5437C21.1185 33.6704 23.6231 33.6637 26.1379 33.5437C28.3434 33.4437 29.18 34.8172 29.0684 37.691Z" fill="#FCCB06"/>
<path d="M28.0376 71.1786L23.6809 83.3845L18.6914 78.9903L27.6064 70.9229L28.0376 71.1786Z" fill="#FCCB06"/>
<path d="M17.4118 110.464C17.4763 111.195 17.8151 112.063 17.557 112.635C15.7255 116.847 13.6774 120.949 11.4219 124.922L16.5031 110.384L17.4118 110.464Z" fill="#FCCB06"/>
<path d="M33.0848 33.5371L36.3453 36.4114C32.1914 37.4322 33.4239 34.9343 32.1914 34.0828L33.0848 33.5371Z" fill="#FCCB06"/>
<path d="M12.4631 34.0059C11.6883 35.0333 12.5784 37.2526 9.34766 36.4996L11.8257 33.5371L12.4631 34.0059Z" fill="#FCCB06"/>
</svg>
