<svg width="133" height="152" viewBox="0 0 133 152" fill="none" xmlns="http://www.w3.org/2000/svg">
<circle cx="77.7491" cy="55.8507" r="54.9913" fill="#505050"/>
<g clip-path="url(#clip0_3_12)">
<path d="M5.40234 21L6.38483 138.851L31.4383 97.4572L16.2097 84.3085C16.2097 84.3085 11.2973 76.0297 19.6485 76.0297H38.0358L47.6494 54.6022H100.999V21H5.40234Z" fill="#FCCB06"/>
<path d="M64.3531 119.859L49.6158 109.632L0 152L31.4397 140.074H100.214V107.197H70.2481C77.6167 125.216 64.3531 119.859 64.3531 119.859Z" fill="#FCCB06"/>
<path d="M67.7908 95.9964H94.3181V64.8291H56.4922L60.9134 76.5168H81.2657C81.2657 76.5168 87.4406 78.4648 83.0194 83.8217C78.5982 89.1785 67.7908 95.9964 67.7908 95.9964Z" fill="#FCCB06"/>
</g>
<defs>
<clipPath id="clip0_3_12">
<rect width="101" height="131" fill="white" transform="translate(0 21)"/>
</clipPath>
</defs>
</svg>
