<svg width="122" height="155" viewBox="0 0 122 155" fill="none" xmlns="http://www.w3.org/2000/svg">
<circle cx="67.9873" cy="54.0986" r="53.2881" fill="#505050"/>
<g clip-path="url(#clip0_3_6)">
<path d="M54.1206 119.491C53.4288 119.668 52.9814 119.711 52.5982 119.89C44.5795 123.639 36.5678 127.403 28.5629 131.182C27.7322 131.578 27.1253 131.596 26.328 131.082C14.889 123.693 7.17645 113.492 2.98197 100.631C0.489739 92.9896 -0.456823 84.9338 0.196796 76.9273C1.41065 61.6198 7.18159 48.3417 18.7132 37.8215C20.5674 36.1294 22.6222 34.6496 24.5973 33.0879C24.8776 32.8655 25.2376 32.7454 25.9114 32.3978V39.2988C26.6289 39.0432 27.0276 38.941 27.3953 38.7672C34.2155 35.5825 41.0254 32.3773 47.8533 29.2105C49.2807 28.5485 49.957 27.677 49.8721 25.967C49.7178 22.8667 49.5507 23.2629 52.4953 22.9306C58.508 22.2533 64.4641 22.79 70.3919 23.8098C77.6895 25.09 84.6583 27.7991 90.8931 31.7798C97.1279 35.7604 102.504 40.9332 106.71 46.9973C107.772 48.5308 107.723 48.6101 106.162 49.5123C99.8278 53.1622 93.4782 56.784 87.1724 60.4798C86.082 61.1163 85.6062 61.0115 84.8578 59.9354C80.3522 53.451 74.0978 49.5328 66.3209 48.1781C63.3042 47.6542 60.2002 47.649 57.1347 47.4113C56.1729 47.3372 55.5454 47.7257 55.1236 48.6407C54.4087 50.1743 53.4623 51.6312 52.8296 53.2031C52.4362 54.1922 52.3539 55.3322 52.2896 56.4133C52.233 57.3641 52.8039 57.5763 53.65 57.1801C55.0799 56.4985 56.5132 55.828 57.9499 55.1686C58.3254 54.9948 58.7214 54.8517 59.5084 54.5271C59.3084 55.1655 59.0758 55.7934 58.8114 56.4082C56.8724 60.2063 54.8561 63.9687 52.9788 67.7847C52.5133 68.7355 52.3539 69.8857 52.2818 70.9592C52.1918 72.3368 52.6445 72.5592 53.8917 71.9815L59.9224 69.2032C58.8937 71.1841 58.0502 72.8352 57.1964 74.4812C55.7048 77.3567 54.1361 80.1963 52.7602 83.1254C52.3333 84.0328 52.3487 85.1702 52.305 86.2206C52.2664 87.1433 52.773 87.4194 53.6526 87.0053C55.2368 86.2564 56.8364 85.5408 58.4334 84.8174C58.7317 84.682 59.0455 84.5746 59.6781 84.3267C56.9727 90.5044 53.0842 95.8463 51.4178 102.625C51.9698 102.485 52.5133 102.315 53.0457 102.113C55.0516 101.165 57.0447 100.184 59.048 99.2278C59.1766 99.1639 59.3644 99.2278 59.8067 99.2278C59.4209 100.12 59.1458 100.897 58.7626 101.62C56.8106 105.306 54.8279 108.979 52.8476 112.654C51.8189 114.566 52.1507 115.118 54.2646 115.335C58.9478 115.816 63.5897 115.742 68.1674 114.533C75.111 112.7 80.882 109.117 84.9221 103.087C85.5033 102.221 85.9714 101.878 86.9795 102.458C93.5991 106.298 100.228 110.119 106.867 113.924C107.134 114.102 107.392 114.294 107.638 114.5C105.913 117.567 103.732 120.232 101.361 122.742C93.7586 130.796 84.4335 135.944 73.712 138.589C66.7863 140.266 59.6187 140.724 52.5339 139.944C51.5206 139.839 50.888 140.13 50.2193 140.907C46.4158 145.403 42.5505 149.853 38.698 154.303C38.4449 154.556 38.177 154.794 37.8956 155.016C36.3732 153.281 34.8867 151.596 33.4106 149.904C32.5979 148.971 31.8855 147.931 30.9803 147.093C29.4938 145.725 29.1441 144.115 29.8539 141.92C30.1573 142.346 30.4325 142.799 30.7746 143.198C32.8654 145.623 34.9922 148.015 37.0573 150.459C37.7516 151.282 38.2197 151.198 38.878 150.426C42.373 146.336 45.9194 142.293 49.3964 138.193C49.7749 137.692 49.9878 137.086 50.0059 136.46C50.0805 134.502 50.1216 132.537 50.0059 130.581C49.8891 128.75 50.3377 126.926 51.2917 125.355C52.1738 123.849 52.9119 122.259 53.6989 120.698C53.8352 120.404 53.9097 120.087 54.1206 119.491ZM56.5123 102.878L56.1034 102.246C55.7635 102.469 55.4472 102.726 55.1596 103.013C54.9307 103.287 54.9204 103.805 54.6581 103.966C53.6431 104.6 52.5902 105.171 51.5052 105.676C49.9622 106.39 48.3471 106.975 46.7989 107.69C42.1493 109.846 37.5082 112.022 32.8756 114.218C29.1672 115.967 25.4657 117.73 21.771 119.509C21.4649 119.657 21.2566 119.997 20.9994 120.248C21.2113 120.495 21.4562 120.711 21.7272 120.892C22.7276 121.372 23.7486 121.812 24.7696 122.244C25.5617 122.579 25.9937 123.085 25.9346 124.002C25.8754 124.92 25.9166 125.876 25.9346 126.814C25.9526 128.664 26.13 128.774 27.8248 127.982C34.7856 124.721 41.7481 121.463 48.7123 118.208C49.6458 117.776 50.065 117.204 50.0496 116.151C50.029 114.931 49.9364 113.595 50.3556 112.506C51.1812 110.331 52.3179 108.271 53.3825 106.19C53.6068 105.853 53.9531 105.615 54.3495 105.526C55.926 105.17 56.3683 104.726 56.5123 102.875V102.878ZM54.1181 75.1381L53.7503 74.7624C53.1794 74.9899 52.593 75.1867 52.0375 75.4474C45.7317 78.3969 39.4292 81.3533 33.1302 84.3165C29.4193 86.0545 25.698 87.7747 21.9973 89.5383C21.6141 89.7197 21.3415 90.1338 21.0174 90.4379C21.3569 90.7216 21.6527 91.0948 22.0461 91.2712C26.6289 93.3517 25.8317 92.3523 25.9191 97.0655C25.9551 98.9006 26.1069 99.0054 27.7991 98.2105C34.7427 94.9389 41.7044 91.652 48.6789 88.4188C49.6896 87.951 50.1422 87.3401 50.0162 86.259C49.759 84.0941 50.4276 82.1695 51.5 80.3113C52.4644 78.6372 53.254 76.8659 54.1181 75.1381ZM54.0666 45.2746L53.7915 45.0062C53.3161 45.1439 52.8483 45.306 52.3899 45.4918C47.6648 47.6916 42.9439 49.9 38.2274 52.1168C32.7753 54.6727 27.3267 57.2423 21.8815 59.8255C21.5318 59.9916 21.2798 60.352 20.9814 60.623C21.2798 60.8786 21.5395 61.2262 21.8841 61.3897C22.8357 61.8703 23.8103 62.3099 24.8004 62.7137C25.6157 63.046 25.9937 63.5597 25.9371 64.4696C25.8703 65.5738 25.9371 66.6831 25.9191 67.7924C25.8986 68.8556 26.3615 69.0703 27.2719 68.6333C27.9251 68.3163 28.5886 68.0173 29.2444 67.7106C35.63 64.738 42.0053 61.7476 48.4063 58.8134C49.6201 58.2562 50.0985 57.4996 50.0599 56.1526C50.0265 54.9079 50.101 53.5584 50.5614 52.4286C51.374 50.4299 52.5262 48.5641 53.5163 46.6343C53.7503 46.2049 53.884 45.7321 54.0666 45.2746ZM54.1026 60.2217L53.8249 59.8894C53.4007 60.0129 52.9835 60.1588 52.575 60.3265C47.4316 62.712 42.2881 65.1129 37.1447 67.5291C32.0013 69.9453 26.8681 72.3845 21.7452 74.8467C21.4444 74.9899 21.2309 75.3349 20.9943 75.588C21.213 75.8275 21.462 76.038 21.735 76.2142C22.7636 76.7126 23.8181 77.2059 24.8956 77.6174C25.7134 77.9292 25.9757 78.4506 25.9243 79.2838C25.8677 80.4724 25.9243 81.666 25.8934 82.8622C25.8934 83.8002 26.2972 83.9893 27.1047 83.611C34.3055 80.2398 41.4832 76.8506 48.6943 73.5151C49.705 73.0474 50.011 72.416 50.0367 71.3477C50.0676 69.97 50.1087 68.5106 50.5845 67.2454C51.266 65.4281 52.3461 63.7565 53.2437 62.0159C53.5549 61.4127 53.8197 60.8172 54.1026 60.2217ZM54.0692 89.9753L53.7915 89.6584C53.4518 89.7537 53.1178 89.868 52.791 90.0009C45.4016 93.4582 38.0139 96.9206 30.628 100.388C27.6911 101.766 24.7439 103.126 21.8173 104.531C21.4829 104.695 21.2643 105.099 20.9917 105.39C21.2567 105.646 21.548 105.874 21.861 106.07C22.8049 106.571 23.7778 107.015 24.7747 107.402C25.7828 107.765 25.9809 108.398 25.9063 109.38C25.8626 110.526 25.8781 111.673 25.9526 112.818C25.9732 113.584 26.3306 113.784 27.0378 113.452C34.1512 110.114 41.2663 106.776 48.3831 103.44C49.3784 102.972 49.9082 102.262 49.8619 101.032C49.8156 99.8029 49.8413 98.5045 50.2965 97.4233C51.1117 95.4731 52.2844 93.6712 53.2822 91.8003C53.5831 91.2124 53.8069 90.5836 54.0692 89.9753ZM53.8403 30.6086L53.5523 30.353C51.8395 31.061 50.0985 31.7051 48.4217 32.4872C40.0087 36.4063 31.6078 40.3527 23.2188 44.3263C22.4494 44.7376 21.7033 45.1907 20.984 45.6835C21.7401 46.1589 22.4499 46.7442 23.2626 47.0918C25.8857 48.2165 25.9037 48.1832 25.9166 50.9871C25.9166 51.5852 25.9166 52.1807 25.8883 52.7762C25.8523 54.0695 26.1943 54.274 27.4107 53.6989C28.9178 52.9858 30.4299 52.2881 31.9395 51.5826C37.5973 48.9347 43.2551 46.3072 48.8846 43.603C49.399 43.3474 50.0033 42.5551 49.9442 42.0873C49.5687 39.079 50.9188 36.6406 52.2587 34.1639C52.8759 33.0086 53.3208 31.7895 53.8403 30.6086Z" fill="#FCCB07"/>
<path d="M9.08594 2.60668C9.69801 2.28719 10.1275 1.86035 10.5595 1.86035C17.7475 1.86035 24.9483 1.8808 32.1491 1.90125C33.6587 1.90125 33.6613 1.90125 33.669 3.39136C33.669 4.55942 33.687 5.72493 33.669 6.89299C33.6562 7.68533 33.9699 8.06872 34.8083 8.05594C36.5896 8.02867 38.3701 8.02867 40.1498 8.05594C40.983 8.06872 41.3096 7.70833 41.2942 6.90065C41.2685 5.58435 41.2942 4.26549 41.2813 2.94662C41.2813 2.26419 41.4845 1.89358 42.2483 1.89613C50.0509 1.90806 57.8518 1.91403 65.6509 1.91403C65.8529 1.93519 66.0531 1.97021 66.2501 2.01882C65.9441 2.37154 65.7358 2.65269 65.4786 2.90317C60.0609 8.36776 54.6328 13.8247 49.1945 19.2739C48.8129 19.6177 48.3206 19.8152 47.8058 19.8311C41.0627 19.8644 34.3171 19.8465 27.574 19.8567C27.163 19.8741 26.753 19.8021 26.3728 19.6458C25.9926 19.4895 25.6513 19.2527 25.3726 18.9519C20.0363 13.5563 14.6614 8.19651 9.08594 2.60668Z" fill="#FCCB07"/>
</g>
<defs>
<clipPath id="clip0_3_6">
<rect width="104" height="148" fill="white" transform="translate(0 7)"/>
</clipPath>
</defs>
</svg>
