<svg width="139" height="142" viewBox="0 0 139 142" fill="none" xmlns="http://www.w3.org/2000/svg">
<circle cx="83.4835" cy="55.673" r="54.9913" fill="#505050"/>
<path d="M64.0402 141.375C63.534 140.575 62.7883 139.976 62.218 139.228C60.4329 136.887 59.3721 134.311 59.6188 131.329C59.8027 129.102 60.5969 127.047 61.5408 125.039C62.9095 122.126 64.6219 119.388 65.9736 116.464C67.5177 113.122 68.5942 109.668 68.55 105.966C68.503 102.168 67.3951 98.6391 65.5829 95.2985C63.8349 92.0774 61.6748 89.1558 59.1925 86.4549C59.1026 86.3579 58.9686 86.2693 59.0371 86.102C59.134 86.0275 59.221 86.0739 59.2966 86.1259C64.0202 89.3048 68.5429 92.7171 72.076 97.2232C73.9281 99.5867 75.3269 102.178 75.7803 105.184C76.2764 108.47 75.5022 111.514 73.9196 114.387C72.548 116.879 70.7073 119.021 68.7325 121.06C68.6384 121.157 68.5514 121.26 68.4987 121.398C69.8347 120.399 71.0052 119.23 72.153 118.032C74.7337 115.339 76.7413 112.231 78.6718 109.09C81.8214 103.968 81.5847 98.7558 78.6775 93.6099C76.3777 89.5382 72.9771 86.4999 69.0205 84.0605C65.4589 81.8644 61.6106 80.1505 58.1687 77.7392C52.6195 73.8545 47.7148 69.3315 43.8223 63.8102C40.4061 58.9638 37.9694 53.6872 37.0269 47.8074C35.7566 39.8805 37.4575 32.5948 41.8875 25.8953C42.733 24.6173 43.6783 23.4166 44.6507 22.2327C44.9516 21.8672 45.2838 21.7167 45.7486 21.7196C50.9742 21.7477 56.2054 21.5846 61.4253 21.863C67.3153 22.1765 73.0755 23.1818 78.5477 25.4623C84.1397 27.792 88.8677 31.2352 92.3937 36.1477C94.8646 39.5895 96.3617 43.4573 96.9363 47.6303C97.5979 52.4275 97.5822 57.2162 96.135 61.8981C94.3129 67.7962 90.908 72.6159 85.865 76.2981C84.549 77.2584 83.1787 78.1301 81.6032 78.9807C82.7738 79.4784 83.8147 79.8974 84.837 80.3572C89.4608 82.438 93.6441 85.1445 97.1972 88.7649C100.782 92.4176 102.711 96.8422 103.558 101.787C104.005 104.404 104.187 107.041 104.11 109.693C103.934 115.741 102.506 121.424 98.9296 126.446C96.463 129.911 93.3148 132.651 89.6319 134.815C84.0071 138.12 77.852 139.851 71.4415 140.832C69.3299 141.156 67.2069 141.391 65.0739 141.533C64.716 141.556 64.361 141.552 64.0374 141.364L64.0402 141.375Z" fill="#FCCB06"/>
<path d="M64.0347 141.365C63.8608 141.738 63.4958 141.623 63.2192 141.63C61.3214 141.684 59.4194 141.758 57.5231 141.76C39.0147 141.793 20.5049 141.78 1.9966 141.78C0.861664 141.78 0.828871 141.745 0.857387 140.641C0.865942 140.314 0.861664 139.985 0.861664 139.657C0.861664 100.834 0.860238 62.012 0.860238 23.1888C0.860238 21.8391 0.860239 21.8391 2.20762 21.8391C15.7513 21.8405 29.2936 21.8405 42.8373 21.8447C43.1153 21.8447 43.4033 21.7843 43.7626 21.9502C43.2337 22.3565 42.6348 22.5027 42.093 22.746C37.6246 24.7565 33.7549 27.5417 30.497 31.1917C26.7414 35.3983 24.4516 40.3417 22.7335 45.6001C22.4711 46.4015 22.2544 47.217 21.9978 48.0198C21.7582 48.772 21.647 48.8156 20.9384 48.4837C19.7906 47.9481 18.7754 47.2212 17.8273 46.3959C17.6633 46.2525 17.5578 46.0022 17.2427 46.0444C17.267 46.476 17.7346 46.7249 17.7489 47.2465C16.7294 46.7488 15.9866 45.9319 14.7889 45.6662C15.0912 46.14 15.4277 46.4141 15.7627 46.6827C17.4409 48.0296 19.1861 49.2866 21.0225 50.4113C21.6456 50.7924 21.7739 51.2507 21.5971 51.8904C21.3405 52.8127 20.8814 53.6184 20.2169 54.3143C17.9271 56.7185 15.0798 58.3706 12.2752 60.0873C11.1075 60.8029 9.93975 61.534 8.94169 62.4816C8.08763 63.2915 8.07052 64.1843 8.85044 65.0841C9.77864 66.1554 11.012 66.8247 12.1868 67.5713C12.6659 67.875 13.1507 68.1772 13.5912 68.5301C14.9486 69.6184 14.9229 71.6894 13.5542 72.7579C12.9753 73.2092 12.4321 73.6943 11.963 74.2581C11.3983 74.9358 11.4183 75.6247 12.0228 76.2728C12.482 76.7649 13.0594 77.0883 13.6454 77.4004C14.0703 77.6268 14.0732 77.8222 13.6668 78.0922C13.135 78.4451 12.6374 78.843 12.2267 79.3393C11.4597 80.2644 11.4625 81.2598 12.3023 82.1133C12.8313 82.6518 13.4273 83.1115 14.1359 83.4236C15.0684 83.8328 15.1796 84.1154 14.8003 85.0757C14.5594 85.6858 14.3355 86.3115 14.0147 86.8823C12.4306 89.6985 13.9391 93.0138 16.3017 94.3663C18.9166 95.8623 21.7411 96.2307 24.6854 96.0535C26.3422 95.9537 27.9947 95.7681 29.6529 95.6894C32.9978 95.5305 36.3485 95.4166 39.6948 95.553C43.141 95.6936 46.5715 96.069 49.8437 97.2303C55.5441 99.2521 59.1171 103.179 60.4232 109.031C61.1631 112.352 60.667 115.59 59.5834 118.777C58.6765 121.441 57.7783 124.11 57.2621 126.885C56.2983 132.082 57.9594 136.338 61.9944 139.74C62.6602 140.301 63.356 140.828 64.039 141.371C64.0404 141.375 64.0347 141.365 64.0347 141.365Z" fill="#FCCB06"/>
</svg>
