<svg width="127" height="143" viewBox="0 0 127 143" fill="none" xmlns="http://www.w3.org/2000/svg">
<circle cx="71.7491" cy="55.8995" r="54.9913" fill="#505050"/>
<path d="M45.4382 82.5575C45.4382 85.5037 45.4185 88.2731 45.4382 91.0426C45.5138 100.153 45.5598 109.263 45.7306 118.37C45.812 120.439 46.1015 122.494 46.5946 124.505C47.2517 127.428 49.1966 129.304 52.1073 129.945C54.1811 130.448 56.304 130.723 58.438 130.764C65.2713 130.744 72.1276 130.846 78.928 130.309C85.6529 129.778 90.226 125.975 92.3219 119.467C92.841 117.863 93.2615 116.223 93.7445 114.606C93.9317 113.977 94.0303 113.254 94.4212 112.782C94.8349 112.267 95.4332 111.931 96.0901 111.846C96.3989 111.846 97.0034 112.782 96.9968 113.293C97.022 115.853 96.8969 118.413 96.6223 120.959C95.9653 126.04 95.1637 131.107 94.3391 136.155C94.0829 137.438 93.7135 138.695 93.2352 139.913C92.6078 141.688 91.2871 142.653 89.4079 142.768C87.5288 142.882 85.5806 142.987 83.6686 142.987C57.6057 143.005 31.5428 143.005 5.47983 142.987C4.49426 142.987 3.41341 143.033 2.58225 142.634C1.89563 142.306 1.51126 141.341 0.992188 140.669C1.59667 140.221 2.15188 139.488 2.81221 139.38C5.18087 138.987 7.59224 138.836 9.97733 138.542C13.0293 138.165 14.8789 136.424 15.2863 133.402C15.6772 130.489 15.9433 127.552 16.101 124.616C16.3343 120.642 16.4657 116.661 16.5741 112.681C16.5737 112.117 16.6902 111.56 16.9163 111.043C17.1425 110.526 17.4734 110.062 17.8882 109.679C25.1157 102.536 32.3006 95.3374 39.5182 88.1815C41.4072 86.3025 43.3784 84.5217 45.4382 82.5575Z" fill="#FCCB06"/>
<path d="M24.1016 37.2021H29.312C29.312 37.906 29.312 38.5378 29.312 39.1663C29.2988 51.2238 29.2846 63.2792 29.2693 75.3324C29.2693 81.3262 29.2693 87.3201 29.3382 93.3107C29.3665 93.7914 29.2847 94.2722 29.0992 94.7167C28.9137 95.1613 28.6292 95.5581 28.2673 95.8771C26.9532 97.1375 25.6916 98.496 24.118 100.103L24.1016 37.2021Z" fill="#FCCB06"/>
<path d="M33.0156 37.2226H38.1931V39.2359C38.1931 54.1698 38.1734 69.1037 38.2293 84.0376C38.2647 84.6502 38.1654 85.2632 37.9384 85.8337C37.7115 86.4042 37.3623 86.9185 36.9152 87.3406C35.7062 88.5158 34.5859 89.7826 33.4262 91.0069L33.0254 90.7876L33.0156 37.2226Z" fill="#FCCB06"/>
<path d="M31.2604 20.2266H55.7191C58.0845 20.2266 58.7251 20.9697 58.4754 23.3168C58.3604 24.3905 57.8183 25.0125 56.7244 25.1369C56.3966 25.1642 56.0675 25.1718 55.7388 25.1598H6.493C4.23604 25.1598 3.70383 24.636 3.73997 22.518C3.77282 20.7438 4.27875 20.2266 6.14477 20.2266C14.5156 20.2266 22.8875 20.2266 31.2604 20.2266Z" fill="#FCCB06"/>
<path d="M16.7188 107.041V37.249H20.0861V85.812C20.0861 90.7224 19.889 95.6327 20.1617 100.543C20.3227 103.443 19.3075 105.401 16.7188 107.041Z" fill="#FCCB06"/>
<path d="M31.0874 26.6391C37.6579 26.6391 44.2086 26.6391 50.766 26.6391C52.0604 26.6391 52.9934 26.7929 53.0065 28.4559C53.0065 30.0305 52.2706 30.3938 50.881 30.3906C37.7072 30.3665 24.5333 30.3665 11.3595 30.3906C10.1341 30.3906 9.23067 30.2302 9.20767 28.6589C9.18468 27.1628 9.7793 26.6293 11.2445 26.6358C17.861 26.662 24.4742 26.6423 31.0874 26.6391Z" fill="#FCCB06"/>
<path d="M42.2109 37.2002H45.4042C45.4403 37.8189 45.4995 38.395 45.4962 38.9712C45.4962 51.9453 45.4798 64.9206 45.4469 77.8969C45.4557 78.3692 45.304 78.8307 45.0165 79.2063C44.2116 80.0705 43.2984 80.8431 42.2109 81.8251V37.2002Z" fill="#FCCB06"/>
<path d="M31.0468 34.6853C25.7904 34.6853 20.534 34.669 15.3006 34.6853C14.1639 34.6853 13.52 34.358 13.5824 33.1075C13.635 31.9912 14.3183 31.7981 15.2513 31.7981C18.4742 31.8177 21.7003 31.7981 24.9264 31.7981C32.1999 31.7981 39.4702 31.7981 46.7404 31.7981C47.8738 31.7981 48.7115 31.9748 48.6327 33.3726C48.567 34.6133 47.7325 34.6821 46.7897 34.6821C41.5442 34.6777 36.2966 34.6788 31.0468 34.6853Z" fill="#FCCB06"/>
</svg>
