<svg width="128" height="141" viewBox="0 0 128 141" fill="none" xmlns="http://www.w3.org/2000/svg">
<circle cx="72.7491" cy="55.8546" r="54.9913" fill="#505050"/>
<path d="M105.466 64.4855C105.296 65.7872 105.19 67.1024 104.948 68.3922C104.531 70.5928 104.201 72.817 103.533 74.938C101.754 80.5781 98.5256 85.3227 94.0534 89.1872C91.4416 91.4486 88.4573 93.1193 85.2801 94.4955C81.7542 96.0189 78.0624 96.6774 74.2775 96.9889C71.9263 97.1835 69.5735 97.3782 67.2172 97.4967C64.6054 97.6338 61.9901 97.7421 59.3766 97.7675C53.6806 97.8268 47.9846 97.8251 42.2887 97.8505C42.0432 97.8505 41.7978 97.8809 41.488 97.9012V106.28C32.1866 108.02 26.4229 113.772 23.1357 122.361L22.9258 122.286C23.1458 121.019 23.3286 119.747 23.5893 118.485C24.3223 114.94 25.6206 111.588 27.2676 108.382C28.8748 105.321 30.7853 102.429 32.9703 99.7497C35.9574 96.0732 39.2922 92.6936 42.9285 89.6577C47.2974 85.971 51.9591 82.6923 56.8087 79.6708C58.0524 78.8823 59.4842 78.4405 60.9559 78.3911C63.5339 78.2675 66.1288 78.083 68.6696 77.6497C74.0574 76.7339 78.1606 73.9156 80.3933 68.8171C80.8774 67.7118 81.6222 67.3631 82.5515 67.0178C84.6724 66.2307 86.7832 65.3945 88.9177 64.6734C90.9998 63.9709 93.1224 63.3886 95.2248 62.7488C96.7651 62.2816 98.292 61.7737 99.8425 61.3489C101.049 61.0103 102.283 60.7886 103.504 60.5144L105.449 60.081L105.466 64.4855ZM65.8258 96.4235C68.2904 93.8624 71.2018 93.0161 74.6194 93.1938C72.6186 91.518 70.6314 90.7191 68.4427 92.0529C66.9633 92.9535 65.9172 94.289 65.8258 96.4235ZM63.0108 86.8055C64.563 86.8055 66.0916 86.6126 67.5473 86.8597C69.003 87.1068 70.3487 87.7907 71.7012 88.2663C71.581 86.7564 69.9374 85.0214 68.2159 84.6998C66.1034 84.3037 63.5457 85.3684 63.0108 86.8055ZM76.9401 86.362C77.7729 85.6274 77.6748 83.4252 76.8386 82.3622C75.7976 81.0368 73.2839 80.3749 72.1515 81.1773C74.5686 82.1472 76.0261 84.0024 76.9401 86.362ZM59.9538 89.48C60.5039 92.2391 59.7998 94.57 58.2475 96.6943C59.5018 96.7587 60.9897 95.6415 61.4975 94.3246C62.1222 92.7012 61.2893 90.2333 59.9538 89.48ZM61.2758 87.5994C59.3021 86.533 57.6483 86.5838 56.24 87.987C55.375 88.8486 54.7419 90.345 55.2684 91.5417C56.5921 89.2921 58.6995 88.2257 61.2758 87.5994Z" fill="#FCCB06"/>
<path d="M41.5199 78.5128H44.0133L44.1098 78.694C43.905 78.8632 43.7103 79.0579 43.4936 79.2204C40.357 81.575 37.1324 83.8229 34.0991 86.3044C30.3328 89.3834 27.1404 93.0447 24.344 97.0209C22.1615 100.13 20.3301 103.471 18.8833 106.983C18.8139 107.152 18.7141 107.313 18.5109 107.683C18.4754 107.262 18.4432 107.06 18.4432 106.859C18.4432 83.4713 18.4432 60.0838 18.4432 36.6962C18.4432 33.7847 18.4669 30.8715 18.4297 27.9601C18.4297 27.2119 18.6582 26.9902 19.3962 27.0003C21.9353 27.0392 24.4744 27.0003 27.0134 27.024C28.1272 27.0359 29.241 27.1933 30.3548 27.1933C39.5852 27.1493 48.8223 27.0511 58.0628 27.0291C61.956 27.0206 65.8492 27.0545 69.7222 27.261C73.2515 27.4489 76.7977 27.7113 80.283 28.2766C86.5866 29.2922 91.8797 32.3391 96.3045 36.923C99.4326 40.1594 101.807 43.8631 103.245 48.1456C104.159 50.854 104.937 53.6029 104.993 56.5042C105.027 57.3227 105.119 58.1378 105.267 58.9434C105.352 59.4732 105.117 59.6798 104.655 59.7305C102.488 59.976 100.314 60.174 98.1546 60.4703C96.665 60.6751 95.1924 61.0136 93.7129 61.2963C90.7947 61.8549 87.8765 62.405 84.9616 62.9789C84.1153 63.1481 83.2808 63.3936 82.4378 63.5933C82.2279 63.6441 82.0078 63.6576 81.6304 63.7118C81.6304 62.6809 81.693 61.7279 81.6202 60.7868C81.1547 54.7709 78.0452 50.6441 72.5964 48.1727C69.9811 46.9878 67.2 46.7322 64.3969 46.585C62.2573 46.4732 60.116 46.4157 57.9731 46.3852C52.7917 46.3141 47.6103 46.282 42.4289 46.216C41.7891 46.216 41.4607 46.3057 41.4624 47.0809C41.4861 57.3771 41.4917 67.6744 41.4793 77.9729C41.4827 78.1049 41.5013 78.2454 41.5199 78.5128Z" fill="#FCCB06"/>
<path d="M4.69896 140.597C5.54532 137.435 5.43867 134.312 4.86823 131.236C4.42349 128.957 3.81479 126.713 3.04688 124.521C2.22591 122.097 1.1849 119.746 0.252214 117.378C1.39479 117.667 4.52969 120.68 5.94479 122.688C7.48855 124.875 8.65313 127.241 9.62305 129.743C9.98517 125.252 9.78215 120.733 9.01875 116.293C8.25752 111.821 7.03857 107.439 5.38112 103.217C3.72396 99.0628 1.77904 95.024 0 91.0224C2.19037 91.9873 8.33659 99.7602 10.4525 104.273C12.9188 109.532 14.3457 115.074 15.055 120.862C15.7964 116.593 16.7477 112.413 18.371 108.207C18.4402 108.418 18.4901 108.635 18.5199 108.855C18.5199 119.151 18.5199 129.447 18.5199 139.742C18.5199 140.231 18.5961 140.681 17.8242 140.676C13.5925 140.648 9.36068 140.663 5.12891 140.659C4.98439 140.648 4.84077 140.627 4.69896 140.597Z" fill="#FCCB06"/>
<path d="M41.4395 108.631V140.611H31.5998C32.656 135.956 34.1795 131.709 38.5128 129.101C37.7121 128.932 36.7101 129.158 35.5743 129.714C32.7576 131.102 30.7687 133.302 29.2655 135.995C29.1183 136.259 28.927 136.503 28.712 136.808C28.8119 134.607 30.8922 129.592 32.5071 127.103C34.4401 124.124 36.8506 121.634 39.9448 119.825C36.6356 119.857 33.7411 120.857 31.378 123.198C29.2621 125.294 27.6033 127.72 26.1831 130.323C26.0809 130.489 25.9678 130.648 25.8446 130.799C25.6008 129.368 28.0976 123.442 31.3526 118.186C33.8163 114.17 37.2955 110.874 41.4395 108.631Z" fill="#FCCB06"/>
<path d="M51.4457 101.278C48.0773 101.814 45.4552 103.226 43.6847 106.017C43.0076 104.372 44.2433 102.212 45.4265 101.234C46.8026 100.096 48.8288 99.7052 51.4457 101.278Z" fill="#FCCB06"/>
<path d="M52.0352 104.837C52.7004 103.822 54.3051 103.338 55.4206 103.693C56.7003 104.099 57.6566 105.344 57.6566 106.672C56.0503 105.31 54.2458 104.622 52.0352 104.837Z" fill="#FCCB06"/>
<path d="M50.9507 109.152C47.963 109.372 47.3164 109.582 45.4883 110.948C45.6948 109.672 46.5039 108.973 47.4163 108.419C48.2034 107.943 50.216 108.399 50.9507 109.152Z" fill="#FCCB06"/>
</svg>
