<svg width="134" height="142" viewBox="0 0 134 142" fill="none" xmlns="http://www.w3.org/2000/svg">
<circle cx="78.507" cy="55.8488" r="54.9913" fill="#505050"/>
<g clip-path="url(#clip0_3_7)">
<path d="M97.439 142H0V18H97.101V65.0738C89.3271 60.0823 82.2534 55.9894 75.7953 51.095C74.1053 49.8198 74.2984 46.0427 73.5138 42.9943H32.1457V65.8754H56.2882L57.8091 60.7624L58.5455 60.896V97.0029L57.8453 97.1487L56.264 91.6592H32.3026V116.653H73.5259C74.6123 102.274 88.12 101.922 97.439 94.1732V142Z" fill="#FCCB06"/>
<path d="M68.9878 97.489C61.8658 94.0277 60.5379 87.3115 60.6466 78.7615C60.7794 70.5636 61.5881 63.7746 69.1689 60.374L101.001 77.8628C93.758 77.8628 86.3462 77.9842 78.9103 77.7535C77.5946 77.7535 76.3995 75.7252 75.0113 75.4945C73.3093 75.2152 71.0158 75.288 69.8207 76.2596C69.3421 76.9191 69.0426 77.6926 68.9516 78.504C68.8606 79.3154 68.9812 80.1367 69.3016 80.8869C70.2915 82.1014 73.261 83.3158 74.1301 82.7815C82.7369 77.0369 92.068 82.0771 100.759 80.3525C90.4263 85.9027 80.0692 91.5137 68.9878 97.489Z" fill="#FCCB06"/>
</g>
<defs>
<clipPath id="clip0_3_7">
<rect width="101" height="124" fill="white" transform="translate(0 18)"/>
</clipPath>
</defs>
</svg>
