<svg width="137" height="142" viewBox="0 0 137 142" fill="none" xmlns="http://www.w3.org/2000/svg">
<circle cx="81.7491" cy="55.8019" r="54.9913" fill="#505050"/>
<mask id="mask0_0_66" style="mask-type:alpha" maskUnits="userSpaceOnUse" x="0" y="25" width="112" height="117">
<rect y="25" width="111.163" height="116.141" rx="20" fill="#FCCB06"/>
</mask>
<g mask="url(#mask0_0_66)">
<path d="M0.0429565 105.267C0.0429565 94.3144 0.0941002 83.3579 0.000336659 72.4056C-0.0167113 70.263 0.6098 69.5374 2.77062 69.5801C8.80559 69.6996 14.8448 69.6398 20.8798 69.6099C22.1797 69.6057 23.1216 69.8105 23.731 71.2233C27.375 79.7213 34.207 84.2243 43.0932 84.7621C55.1631 85.492 65.9417 81.5311 74.7981 73.1824C80.6242 67.6892 80.5731 61.2186 74.8748 55.6144C68.0301 48.8877 59.4464 45.6866 50.1553 44.1671C43.268 43.0445 36.8707 44.3335 31.1043 48.3371C27.8225 50.6164 25.2994 53.5785 23.812 57.3132C23.2793 58.6577 22.5164 59.14 21.1057 59.1315C14.8576 59.0802 8.60527 59.0674 2.35721 59.1357C0.601276 59.1528 0.00886062 58.5211 0.0173846 56.7711C0.0770523 46.8859 0.0813143 37.0007 0.00886062 27.1113C-0.00392532 25.2418 0.6098 24.6613 2.46376 24.6656C21.6384 24.7339 40.8173 24.5418 59.9877 24.8235C70.1355 24.9729 79.8741 27.3204 88.3 33.4154C97.5911 40.1379 102.335 49.4042 102.991 60.8003C103.456 68.8075 102.569 76.5629 98.5884 83.7292C94.6546 90.8187 88.8413 95.8851 81.613 99.3338C79.823 100.187 79.7164 100.836 80.8117 102.42C89.0629 114.345 97.2331 126.322 105.403 138.303C105.855 138.964 106.831 139.621 106.328 140.501C105.851 141.329 104.768 140.957 103.95 140.962C94.7868 140.979 85.6278 140.953 76.4645 140.987C74.781 140.996 73.9031 140.59 73.7709 138.64C72.9228 125.921 63.5465 115.54 51.0418 113.359C49.9465 113.167 49.1154 112.941 48.523 111.784C47.4745 109.727 45.0878 109.68 43.984 111.695C43.383 112.787 42.6585 113.167 41.5248 113.359C28.9775 115.459 19.4989 125.95 18.655 138.751C18.5442 140.403 17.9731 141.009 16.3536 140.992C11.6654 140.936 6.9772 140.923 2.29328 140.996C0.494727 141.021 0.00459864 140.262 0.0131226 138.559C0.0685283 127.457 0.0429565 116.36 0.0429565 105.267Z" fill="#FCCB06"/>
</g>
</svg>
