<svg width="141" height="143" viewBox="0 0 141 143" fill="none" xmlns="http://www.w3.org/2000/svg">
<circle cx="85.507" cy="55.7999" r="54.9913" fill="#505050"/>
<path fill-rule="evenodd" clip-rule="evenodd" d="M106.196 71.5316C110.504 82.1622 113.403 90.2252 115.194 96.2973L115.208 96.2735L132.201 142.91H92.1819L86.1969 124.612H45.8347L39.8497 142.91H0L17.4515 95.204L17.5601 95.2363L44.3003 21.8242H88.0805L106.196 71.5316ZM66.4999 76.4517C71.9901 76.4517 77.3478 79.2702 81.5865 84.3879C85.3965 88.9881 87.671 94.7855 87.6709 99.8962C87.6709 102.344 86.9074 104.219 85.4016 105.471C82.234 108.105 76.7505 107.087 71.9127 106.189C69.8426 105.805 67.8871 105.442 66.5001 105.442C64.8931 105.442 62.8082 105.824 60.6008 106.229C58.0748 106.693 55.5038 107.164 53.1885 107.164C51.0125 107.164 49.0621 106.748 47.5848 105.517C46.088 104.27 45.3291 102.379 45.3291 99.8962C45.3291 94.7855 47.6036 88.9881 51.4135 84.3879C55.652 79.2702 61.0098 76.4517 66.4999 76.4517ZM75.9269 53.0001C78.2482 53.0001 80.469 54.3114 82.0199 56.598C83.4446 58.6984 84.2292 61.457 84.2292 64.3654C84.2292 67.2737 83.4445 70.0322 82.0199 72.1327C80.469 74.4192 78.2484 75.7306 75.9269 75.7306C73.6057 75.7306 71.3849 74.4192 69.834 72.1327C68.4093 70.0322 67.6247 67.2737 67.6247 64.3654C67.6247 61.457 68.4094 58.6986 69.834 56.598C71.3849 54.3116 73.6055 53.0001 75.9269 53.0001ZM57.0731 53C59.3945 53 61.6151 54.3113 63.166 56.5979C64.5906 58.6983 65.3752 61.4569 65.3753 64.3652C65.3753 67.2737 64.5906 70.032 63.166 72.1326C61.6151 74.4192 59.3945 75.7306 57.0731 75.7306C54.7517 75.7306 52.531 74.4192 50.9801 72.1326C49.5554 70.032 48.7708 67.2736 48.7708 64.3652C48.7708 61.4569 49.5555 58.6984 50.9801 56.5979C52.5309 54.3114 54.7517 53 57.0731 53ZM93.8599 70.087C95.6679 70.7661 97.008 72.3115 97.6332 74.4382C98.199 76.3623 98.1078 78.5745 97.3769 80.6671V80.6672C96.4823 83.2281 94.762 85.2618 92.6573 86.2467C91.7867 86.6541 90.8786 86.8595 89.9894 86.8595C89.3185 86.8595 88.6584 86.7427 88.0327 86.5077C86.2246 85.8286 84.8845 84.2832 84.2593 82.1565C83.6937 80.2324 83.7849 78.0204 84.5159 75.9276C85.4104 73.3666 87.1307 71.3329 89.2355 70.348C90.7627 69.6333 92.405 69.5406 93.8599 70.087ZM43.7647 70.3479C45.8693 71.3328 47.5896 73.3664 48.4843 75.9273C49.2152 78.0203 49.3063 80.2324 48.7409 82.1564C48.1157 84.283 46.7758 85.8283 44.9675 86.5075C44.3419 86.7424 43.6816 86.8593 43.0108 86.8593C42.1215 86.8593 41.2135 86.654 40.3429 86.2466C38.2383 85.2617 36.5181 83.2281 35.6233 80.6671V80.667C34.8922 78.5743 34.8011 76.3622 35.3667 74.4381C35.9919 72.3115 37.332 70.7661 39.1401 70.0869C40.5949 69.5406 42.2373 69.6331 43.7647 70.3479Z" fill="#FCCB06"/>
</svg>
