<svg width="141" height="144" viewBox="0 0 141 144" fill="none" xmlns="http://www.w3.org/2000/svg">
<circle cx="85.507" cy="55.8488" r="54.9913" fill="#505050"/>
<g clip-path="url(#clip0_3_18)">
<path d="M135.117 98.2851V24L89.917 38.1496L44.7052 24V89.3356C38.7203 85.6763 31.6281 84.2801 24.7068 85.3985C17.7855 86.517 11.4905 90.0764 6.95628 95.4355C2.42204 100.794 -0.0531425 107.601 -0.0231684 114.627C0.0068056 121.653 2.53997 128.438 7.11976 133.758C11.6995 139.078 18.0247 142.583 24.9553 143.642C31.8858 144.701 38.9659 143.245 44.9194 139.534C50.8729 135.824 55.3082 130.104 57.426 123.406C59.5438 116.708 59.2048 109.471 56.4699 103.002V53.207L89.4111 74.4314L122.199 53.207V87.4018C115.709 84.6113 108.434 84.2546 101.703 86.3968C94.9716 88.5391 89.2344 93.0372 85.5394 99.0693C81.8444 105.101 80.4383 112.265 81.578 119.25C82.7178 126.235 86.3273 132.577 91.747 137.115C97.1667 141.653 104.035 144.085 111.096 143.967C118.157 143.848 124.94 141.187 130.206 136.47C135.471 131.753 138.867 125.294 139.773 118.275C140.679 111.255 139.035 104.143 135.141 98.238L135.117 98.2851ZM29.4111 127.492C26.8516 127.492 24.3496 126.731 22.2214 125.306C20.0932 123.881 18.4345 121.855 17.455 119.485C16.4755 117.115 16.2193 114.507 16.7186 111.991C17.2179 109.475 18.4505 107.164 20.2603 105.35C22.0702 103.536 24.3761 102.301 26.8864 101.801C29.3968 101.3 31.9988 101.557 34.3635 102.539C36.7282 103.52 38.7493 105.183 40.1713 107.316C41.5933 109.449 42.3523 111.956 42.3523 114.522C42.3523 117.962 40.9889 121.261 38.5619 123.693C36.135 126.126 32.8433 127.492 29.4111 127.492ZM110.588 127.492C108.028 127.492 105.526 126.731 103.398 125.306C101.27 123.881 99.611 121.855 98.6315 119.485C97.652 117.115 97.3957 114.507 97.8951 111.991C98.3944 109.475 99.6269 107.164 101.437 105.35C103.247 103.536 105.553 102.301 108.063 101.801C110.573 101.3 113.175 101.557 115.54 102.539C117.905 103.52 119.926 105.183 121.348 107.316C122.77 109.449 123.529 111.956 123.529 114.522C123.529 117.962 122.165 121.261 119.738 123.693C117.311 126.126 114.02 127.492 110.588 127.492Z" fill="#FCCB06"/>
</g>
<defs>
<clipPath id="clip0_3_18">
<rect width="140" height="120" fill="white" transform="translate(0 24)"/>
</clipPath>
</defs>
</svg>
