<svg width="207" height="79" viewBox="0 0 207 79" fill="none" xmlns="http://www.w3.org/2000/svg">
<mask id="mask0_0_76" style="mask-type:alpha" maskUnits="userSpaceOnUse" x="0" y="0" width="207" height="79">
<rect width="207" height="79" rx="10" fill="white"/>
</mask>
<g mask="url(#mask0_0_76)">
<path d="M20.732 78.9981C19.4713 78.479 19.4713 78.479 19.4713 77.0638C19.4713 66.3766 19.4754 55.6895 19.461 45.0044C19.4589 44.2958 19.6402 43.754 20.1098 43.1999C23.9496 38.6762 26.2609 33.4665 27.0149 27.5729C27.3177 25.204 29.3859 23.9577 31.5921 24.8702C34.9746 26.271 36.7071 28.9593 37.2612 32.4612C37.8256 36.0271 37.255 39.5208 36.3692 42.9733C36.1076 43.993 35.7945 44.9982 35.4979 46.0076C35.2383 46.8872 35.2548 46.9223 36.1715 46.9223C41.309 46.9243 46.4466 46.9223 51.5842 46.9264C52.4082 46.9264 53.2301 46.9758 54.0211 47.2251C57.4757 48.3148 58.9404 52.4368 56.903 55.432C56.524 55.9903 56.4395 56.3693 56.7794 56.9976C57.8795 59.0308 57.5767 61.3359 56.0296 63.0807C55.6815 63.4742 55.6547 63.7543 55.8731 64.226C56.8701 66.3746 56.4704 68.6282 54.8307 70.3421C54.5506 70.6346 54.3528 70.8571 54.5403 71.3309C55.8813 74.7154 54.3549 77.826 50.8591 78.9075C50.787 78.9301 50.7169 78.9672 50.6469 78.9981C40.6746 78.9981 30.7043 78.9981 20.732 78.9981Z" fill="#EFEFEF"/>
<path d="M-0.857436 78.9982C-2.94419 78.1433 -3.67136 77.066 -3.67136 74.8165C-3.67136 66.4138 -3.67342 58.0112 -3.6693 49.6106C-3.6693 47.767 -2.75055 46.3909 -1.18497 45.8223C-0.766797 45.6699 -0.336262 45.6369 0.102512 45.6369C4.31722 45.639 8.52986 45.6431 12.7446 45.6328C13.5438 45.6308 14.271 45.8203 14.922 46.2776C15.6306 46.7761 16.0055 47.39 16.0034 48.3376C15.9705 57.5621 15.9519 66.7867 16.0158 76.0113C16.0261 77.5089 15.371 78.2958 14.1392 78.8355C14.0218 78.887 13.9085 78.9447 13.791 78.9982C8.9089 78.9982 4.02676 78.9982 -0.857436 78.9982ZM3.61477 54.2641C3.84548 54.2641 4.07826 54.2827 4.30692 54.26C5.29777 54.1694 5.98786 53.5102 6.04142 52.6203C6.0991 51.6397 5.53672 50.9558 4.49026 50.7539C3.85372 50.6303 3.21513 50.655 2.58272 50.8013C1.80817 50.9805 1.26434 51.5944 1.2046 52.3525C1.14486 53.092 1.61453 53.8171 2.32934 54.1096C2.7434 54.2827 3.17805 54.2847 3.61477 54.2641Z" fill="#EFEFEF"/>
<path d="M21.1551 21.9552C21.4579 20.4411 21.7978 18.7293 22.1398 17.0195C22.1995 16.7167 22.2531 16.4139 22.3334 16.1173C22.4529 15.6702 22.3231 15.3468 21.9709 15.0337C20.5928 13.8018 19.2352 12.5432 17.8757 11.2907C17.2288 10.6954 16.8498 9.99914 17.1526 9.09481C17.4616 8.17606 18.1599 7.8032 19.0869 7.70844C20.9244 7.52099 22.7578 7.28821 24.5932 7.09869C25.0691 7.04925 25.3101 6.80618 25.4955 6.39212C26.2412 4.72766 27.024 3.08174 27.7656 1.41522C28.1426 0.570635 28.6802 0.00414211 29.669 2.21645e-05C30.6599 -0.00409778 31.2099 0.566515 31.5868 1.40286C32.3367 3.06526 33.1133 4.7153 33.8466 6.38388C34.0629 6.87621 34.3802 7.05749 34.9013 7.10693C36.7656 7.29027 38.6258 7.50863 40.4839 7.73316C41.314 7.8341 41.9197 8.2667 42.1957 9.08451C42.4779 9.9188 42.1895 10.613 41.5901 11.1754C40.2428 12.4423 38.8853 13.6988 37.499 14.9225C37.0581 15.3097 36.9139 15.6744 37.0437 16.2594C37.433 18.0124 37.7544 19.782 38.119 21.5391C38.3003 22.4105 38.1952 23.1953 37.4495 23.7577C36.6791 24.3407 35.8736 24.2397 35.0682 23.7783C33.5067 22.8843 31.9288 22.0253 30.3818 21.1086C29.8729 20.8078 29.4857 20.8161 28.9769 21.1168C27.3618 22.0685 25.7283 22.9935 24.0741 23.8731C22.6424 24.6394 21.1263 23.7227 21.1551 21.9552Z" fill="#EFEFEF"/>
<path d="M-1.67143 26.4742C-1.42423 25.2259 -1.15438 23.7365 -0.822721 22.2595C-0.695003 21.6868 -0.798001 21.2851 -1.2409 20.8979C-2.20702 20.0533 -3.13813 19.1654 -4.0919 18.3043C-4.78817 17.6761 -5.22283 16.9571 -4.88087 15.991C-4.55745 15.0764 -3.83852 14.7303 -2.91565 14.6438C-1.56225 14.5161 -0.215028 14.3286 1.13837 14.1926C1.62659 14.1432 1.84289 13.8569 2.0221 13.4552C2.5577 12.2604 3.13243 11.0821 3.64742 9.87699C4.02646 8.9912 4.61767 8.39999 5.60852 8.41029C6.57259 8.42059 7.12466 9.03652 7.49133 9.87905C8.00427 11.0553 8.5687 12.2109 9.07751 13.3892C9.30617 13.9187 9.62134 14.1659 10.229 14.2112C11.6092 14.3142 12.9853 14.4996 14.3572 14.6788C15.1565 14.7838 15.7353 15.2082 16.0155 15.991C16.3018 16.7882 16.0691 17.4783 15.4923 18.0304C14.4561 19.0274 13.3932 19.9976 12.3158 20.9514C11.9491 21.2769 11.8152 21.5776 11.9326 22.0865C12.2499 23.4605 12.4868 24.8551 12.769 26.2373C12.9461 27.1087 12.6948 27.8235 11.9738 28.3323C11.2693 28.8308 10.5277 28.767 9.79644 28.355C8.63256 27.6978 7.44807 27.0798 6.31097 26.3774C5.74448 26.0292 5.31188 26.0746 4.76599 26.4021C3.57944 27.119 2.37642 27.8173 1.13837 28.4374C-0.237688 29.1336 -1.67761 28.219 -1.67143 26.4742Z" fill="#EFEFEF"/>
<path d="M59.0979 28.6867C58.6158 28.6826 58.2038 28.4746 57.8001 28.2459C56.6362 27.5888 55.4682 26.944 54.3146 26.2683C53.9376 26.0479 53.6327 26.0479 53.2496 26.2724C52.0548 26.9749 50.8312 27.632 49.6261 28.3201C48.8742 28.7485 48.1182 28.8577 47.3787 28.3407C46.6226 27.8133 46.4002 27.0676 46.5856 26.1736C46.8616 24.8408 47.0779 23.4956 47.4013 22.1752C47.5517 21.5675 47.3519 21.2214 46.9275 20.8527C45.9408 19.9895 44.9829 19.0955 44.0209 18.2076C43.372 17.6082 43.0095 16.9078 43.3288 16.0055C43.6522 15.0909 44.3587 14.7345 45.2837 14.648C46.6371 14.5203 47.9843 14.3267 49.3377 14.1989C49.8341 14.1516 50.0463 13.8652 50.2255 13.4697C50.7859 12.2296 51.3668 10.9977 51.9209 9.75352C52.2896 8.92541 52.8829 8.39599 53.8058 8.41453C54.7204 8.43307 55.3013 8.96661 55.6618 9.80296C56.1933 11.0286 56.7845 12.2275 57.3201 13.4512C57.5282 13.927 57.8166 14.1598 58.3542 14.2072C59.7591 14.3308 61.1619 14.4997 62.5607 14.681C63.3888 14.7902 63.9965 15.2289 64.2498 16.057C64.5032 16.8872 64.2169 17.5794 63.6113 18.1438C62.5977 19.0914 61.5781 20.0328 60.5398 20.9515C60.1443 21.3017 60.0434 21.6705 60.1567 22.1813C60.4533 23.508 60.7211 24.8428 60.9724 26.1797C61.2361 27.5847 60.3956 28.6888 59.0979 28.6867Z" fill="#EFEFEF"/>
</g>
</svg>
