<svg width="227" height="79" viewBox="0 0 227 79" fill="none" xmlns="http://www.w3.org/2000/svg">
<mask id="mask0_0_45" style="mask-type:alpha" maskUnits="userSpaceOnUse" x="0" y="0" width="227" height="79">
<rect width="227" height="79" rx="10" fill="white"/>
</mask>
<g mask="url(#mask0_0_45)">
<path d="M66.999 57.6971C64.2657 59.2259 61.2709 59.9748 58.2382 60.6103C55.7804 61.1256 53.2881 61.3318 50.7924 61.5482C50.0798 61.61 49.8526 61.3524 49.8526 60.6618C49.8526 58.2193 50.011 55.763 49.3673 53.3616C47.6943 47.1264 43.8286 42.8734 37.7907 40.5819C36.789 40.2006 36.7855 40.2212 37.5187 39.4242C39.7907 36.9438 41.085 34.0238 41.3329 30.6708C41.3845 29.9666 41.6564 29.7501 42.3139 29.7604C45.8871 29.8085 49.4705 29.544 53.0265 29.9013C58.5377 30.4544 62.6375 33.2645 65.3122 38.1153C66.2107 39.7437 66.6685 41.5164 66.999 43.3268C66.999 48.1123 66.999 52.9047 66.999 57.6971Z" fill="#EFEFEF"/>
<path d="M47.2087 62.5268C47.2087 65.0072 47.1605 67.0031 47.2328 68.9957C47.2638 69.8682 46.923 70.2736 46.1726 70.6069C43.3257 71.8642 40.3447 72.6544 37.2913 73.1868C33.6597 73.8224 29.9901 74.0904 26.3103 73.9736C19.639 73.7606 13.1364 72.5376 6.77153 70.5382C6.19322 70.3561 6.02799 70.0228 6.03487 69.4869C6.09339 65.2579 5.87652 61.0221 6.14847 56.8C6.53401 50.8155 9.53229 46.5041 14.806 43.7489C16.8163 42.6977 19.0091 42.203 21.2776 42.1824C24.8507 42.148 28.4239 42.1274 31.997 42.1824C39.6734 42.2992 46.1003 48.0809 47.0641 55.6732C47.3739 58.1123 47.1054 60.5652 47.2087 62.5268Z" fill="#EFEFEF"/>
<path d="M-14.979 50.5538C-14.979 48.6644 -14.9962 46.7749 -14.9756 44.8854C-14.9102 38.1933 -10.1494 32.1092 -3.6675 30.3606C-2.08058 29.9311 -0.462682 29.7834 1.15522 29.78C4.45987 29.7697 7.76451 29.6735 11.0692 29.8349C11.7129 29.8659 11.9056 30.1544 11.947 30.6938C12.212 34.2048 13.6337 37.197 16.0399 39.7426C16.5907 40.3267 16.0399 40.3679 15.6922 40.4916C11.3411 42.0272 8.0158 44.7961 5.71632 48.7846C4.1535 51.4951 3.44437 54.4461 3.36864 57.5552C3.34455 58.5927 3.33422 59.6302 3.37209 60.6677C3.39274 61.2585 3.21718 61.4715 2.601 61.4269C0.52527 61.2826 -1.53325 61.0249 -3.58488 60.702C-7.1718 60.1386 -10.6692 59.2076 -14.1529 58.2113C-14.7656 58.0361 -15.01 57.7544 -14.9997 57.0948C-14.9618 54.9134 -14.9859 52.7319 -14.9859 50.5504C-14.979 50.5538 -14.979 50.5538 -14.979 50.5538Z" fill="#EFEFEF"/>
<path d="M26.6072 17.4067C33.3301 17.3963 38.7173 22.7624 38.7345 29.4477C38.7518 35.762 33.7776 41.506 26.6382 41.5369C19.9635 41.5644 14.4936 36.1193 14.5314 29.5199C14.5728 22.2437 20.466 17.3551 26.6072 17.4067Z" fill="#EFEFEF"/>
<path d="M-6.5 17.0125C-6.48967 10.7978 -1.86661 5.73404 4.38468 5.08819C11.4277 4.35645 17.6239 9.92179 17.6308 16.9712C17.6308 17.5553 17.4484 17.9538 17.0043 18.3385C14.4707 20.5406 12.8356 23.2889 12.1781 26.5869C12.0783 27.0816 11.8339 27.3702 11.4105 27.6175C4.34682 31.7228 -5.10585 27.219 -6.35198 19.1561C-6.46213 18.4416 -6.49656 17.7305 -6.5 17.0125Z" fill="#EFEFEF"/>
<path d="M58.5787 16.8073C58.5615 25.3545 50.5649 31.0951 42.6888 28.5357C41.756 28.2334 41.3119 27.7765 41.126 26.739C40.441 22.9704 38.5098 19.9025 35.3911 17.6627C34.5546 17.0615 34.3687 16.4225 34.5133 15.5087C35.4462 9.57573 39.9522 5.33645 45.9625 5.01696C52.0761 4.69403 57.3257 9.0192 58.41 14.8834C58.5443 15.6255 58.5856 16.3641 58.5787 16.8073Z" fill="#EFEFEF"/>
</g>
</svg>
