<svg width="44" height="44" viewBox="0 0 44 44" fill="none" xmlns="http://www.w3.org/2000/svg">
<path d="M25.1117 38.0261H23.6767V30.9948C23.6767 30.8046 23.6012 30.6221 23.4666 30.4875C23.332 30.353 23.1496 30.2774 22.9593 30.2774C22.769 30.2774 22.5865 30.353 22.4519 30.4875C22.3174 30.6221 22.2418 30.8046 22.2418 30.9948V38.0261H3.58739V23.6766H9.55679C9.74708 23.6766 9.92957 23.601 10.0641 23.4664C10.1987 23.3319 10.2743 23.1494 10.2743 22.9591C10.2743 22.7688 10.1987 22.5863 10.0641 22.4518C9.92957 22.3172 9.74708 22.2416 9.55679 22.2416H2.86991C2.67962 22.2416 2.49713 22.3172 2.36258 22.4518C2.22802 22.5863 2.15243 22.7688 2.15243 22.9591V38.0261H0.717477C0.52719 38.0261 0.344697 38.1017 0.210144 38.2363C0.0755911 38.3708 0 38.5533 0 38.7436V40.1786C0 41.13 0.377956 42.0425 1.05072 42.7152C1.72349 43.388 2.63595 43.7659 3.58739 43.7659H22.2418C23.1932 43.7659 24.1057 43.388 24.7785 42.7152C25.4512 42.0425 25.8292 41.13 25.8292 40.1786V38.7436C25.8292 38.5533 25.7536 38.3708 25.619 38.2363C25.4845 38.1017 25.302 38.0261 25.1117 38.0261ZM24.3942 40.1786C24.3942 40.7494 24.1674 41.2969 23.7638 41.7006C23.3601 42.1042 22.8126 42.331 22.2418 42.331H20.8068V41.6135C20.8068 41.4232 20.7312 41.2407 20.5967 41.1062C20.4621 40.9716 20.2796 40.896 20.0894 40.896C19.8991 40.896 19.7166 40.9716 19.582 41.1062C19.4475 41.2407 19.3719 41.4232 19.3719 41.6135V42.331H6.45729V41.6135C6.45729 41.4232 6.3817 41.2407 6.24715 41.1062C6.1126 40.9716 5.9301 40.896 5.73982 40.896C5.54953 40.896 5.36704 40.9716 5.23248 41.1062C5.09793 41.2407 5.02234 41.4232 5.02234 41.6135V42.331H3.58739C3.01653 42.331 2.46905 42.1042 2.06539 41.7006C1.66173 41.2969 1.43495 40.7494 1.43495 40.1786V39.4611H24.3942V40.1786ZM37.3088 5.02217H38.7438C38.934 5.02217 39.1165 4.94658 39.2511 4.81203C39.3856 4.67748 39.4612 4.49498 39.4612 4.3047C39.4612 4.11441 39.3856 3.93192 39.2511 3.79736C39.1165 3.66281 38.934 3.58722 38.7438 3.58722H37.3088C36.7379 3.58722 36.1905 3.81399 35.7868 4.21765C35.3832 4.62131 35.1564 5.16879 35.1564 5.73965V6.45713H34.4389C34.2486 6.45713 34.0661 6.53272 33.9316 6.66727C33.797 6.80183 33.7214 6.98432 33.7214 7.1746C33.7214 7.36489 33.797 7.54738 33.9316 7.68194C34.0661 7.81649 34.2486 7.89208 34.4389 7.89208H35.1564V10.0445C35.1564 10.2348 35.232 10.4173 35.3665 10.5518C35.5011 10.6864 35.6836 10.762 35.8739 10.762C36.0641 10.762 36.2466 10.6864 36.3812 10.5518C36.5157 10.4173 36.5913 10.2348 36.5913 10.0445V7.89208H37.3088C37.4991 7.89208 37.6816 7.81649 37.8161 7.68194C37.9507 7.54738 38.0263 7.36489 38.0263 7.1746C38.0263 6.98432 37.9507 6.80183 37.8161 6.66727C37.6816 6.53272 37.4991 6.45713 37.3088 6.45713H36.5913V5.73965C36.5913 5.54936 36.6669 5.36687 36.8015 5.23232C36.936 5.09776 37.1185 5.02217 37.3088 5.02217Z" fill="#909090"/>
<path d="M40.8922 0.717529H32.2824C31.7116 0.717529 31.1641 0.944303 30.7604 1.34796C30.3568 1.75162 30.13 2.2991 30.13 2.86996V4.30491C30.13 4.4952 30.2056 4.67769 30.3401 4.81225C30.4747 4.9468 30.6572 5.02239 30.8475 5.02239C31.0378 5.02239 31.2203 4.9468 31.3548 4.81225C31.4894 4.67769 31.565 4.4952 31.565 4.30491V2.86996C31.565 2.67967 31.6405 2.49718 31.7751 2.36263C31.9097 2.22807 32.0921 2.15248 32.2824 2.15248H40.8922C41.0824 2.15248 41.2649 2.22807 41.3995 2.36263C41.534 2.49718 41.6096 2.67967 41.6096 2.86996V11.4797C41.6096 11.67 41.534 11.8525 41.3995 11.987C41.2649 12.1216 41.0824 12.1972 40.8922 12.1972H32.2824C32.0921 12.1972 31.9097 12.1216 31.7751 11.987C31.6405 11.8525 31.565 11.67 31.565 11.4797V7.17482C31.565 6.98454 31.4894 6.80204 31.3548 6.66749C31.2203 6.53294 31.0378 6.45735 30.8475 6.45735C30.6572 6.45735 30.4747 6.53294 30.3401 6.66749C30.2056 6.80204 30.13 6.98454 30.13 7.17482V11.4797C30.13 12.0505 30.3568 12.598 30.7604 13.0017C31.1641 13.4053 31.7116 13.6321 32.2824 13.6321H40.8922C41.463 13.6321 42.0105 13.4053 42.4142 13.0017C42.8178 12.598 43.0446 12.0505 43.0446 11.4797V2.86996C43.0446 2.2991 42.8178 1.75162 42.4142 1.34796C42.0105 0.944303 41.463 0.717529 40.8922 0.717529ZM33.7174 29.4166C33.7174 29.9842 33.8857 30.5391 34.2011 31.011C34.5164 31.483 34.9646 31.8508 35.489 32.0681C36.0134 32.2853 36.5905 32.3421 37.1472 32.2314C37.7039 32.1206 38.2153 31.8473 38.6166 31.4459C39.018 31.0446 39.2913 30.5332 39.4021 29.9765C39.5128 29.4198 39.456 28.8428 39.2387 28.3183C39.0215 27.7939 38.6537 27.3457 38.1817 27.0304C37.7098 26.715 37.1549 26.5467 36.5873 26.5467C35.8262 26.5467 35.0962 26.8491 34.558 27.3873C34.0198 27.9255 33.7174 28.6555 33.7174 29.4166ZM38.0223 29.4166C38.0223 29.7004 37.9381 29.9779 37.7804 30.2138C37.6227 30.4498 37.3986 30.6337 37.1364 30.7423C36.8742 30.8509 36.5857 30.8794 36.3074 30.824C36.029 30.7686 35.7733 30.632 35.5726 30.4313C35.3719 30.2306 35.2353 29.9749 35.1799 29.6966C35.1245 29.4182 35.153 29.1297 35.2616 28.8675C35.3702 28.6053 35.5541 28.3812 35.7901 28.2235C36.0261 28.0658 36.3035 27.9817 36.5873 27.9817C36.9679 27.9817 37.3329 28.1328 37.602 28.4019C37.8711 28.6711 38.0223 29.036 38.0223 29.4166Z" fill="#909090"/>
<path d="M40.8969 22.9597H32.2871C31.7163 22.9597 31.1688 23.1864 30.7651 23.5901C30.3615 23.9938 30.1347 24.5412 30.1347 25.1121V33.7218C30.1347 34.2927 30.3615 34.8402 30.7651 35.2438C31.1688 35.6475 31.7163 35.8743 32.2871 35.8743H40.8969C41.4677 35.8743 42.0152 35.6475 42.4189 35.2438C42.8225 34.8402 43.0493 34.2927 43.0493 33.7218V32.2869C43.0493 32.0966 42.9737 31.9141 42.8391 31.7795C42.7046 31.645 42.5221 31.5694 42.3318 31.5694C42.1415 31.5694 41.959 31.645 41.8245 31.7795C41.6899 31.9141 41.6143 32.0966 41.6143 32.2869V33.7218C41.6143 33.9121 41.5387 34.0946 41.4042 34.2292C41.2696 34.3637 41.0871 34.4393 40.8969 34.4393H32.2871C32.0968 34.4393 31.9144 34.3637 31.7798 34.2292C31.6452 34.0946 31.5697 33.9121 31.5697 33.7218V25.1121C31.5697 24.9218 31.6452 24.7393 31.7798 24.6048C31.9144 24.4702 32.0968 24.3946 32.2871 24.3946H40.8969C41.0871 24.3946 41.2696 24.4702 41.4042 24.6048C41.5387 24.7393 41.6143 24.9218 41.6143 25.1121V29.417C41.6143 29.6073 41.6899 29.7898 41.8245 29.9243C41.959 30.0589 42.1415 30.1344 42.3318 30.1344C42.5221 30.1344 42.7046 30.0589 42.8391 29.9243C42.9737 29.7898 43.0493 29.6073 43.0493 29.417V25.1121C43.0493 24.5412 42.8225 23.9938 42.4189 23.5901C42.0152 23.1864 41.4677 22.9597 40.8969 22.9597ZM16.1224 9.21999C16.2366 9.29075 16.3683 9.32804 16.5026 9.32761C16.615 9.32694 16.7255 9.29991 16.8255 9.24869L21.1304 7.09626C21.2479 7.03605 21.3465 6.94457 21.4154 6.83191C21.4843 6.71924 21.5207 6.58975 21.5207 6.4577C21.5207 6.32565 21.4843 6.19617 21.4154 6.0835C21.3465 5.97083 21.2479 5.87936 21.1304 5.81915L16.8255 3.66672C16.7163 3.61168 16.5948 3.58548 16.4726 3.59059C16.3504 3.59571 16.2315 3.63198 16.1273 3.69596C16.0231 3.75994 15.9369 3.84951 15.877 3.95615C15.8172 4.06279 15.7855 4.18297 15.7852 4.30527V8.61013C15.7849 8.73207 15.8157 8.85205 15.8747 8.95875C15.9338 9.06546 16.019 9.15537 16.1224 9.21999ZM17.2201 5.46758L19.2003 6.4577L17.2201 7.44782V5.46758Z" fill="#909090"/>
<path d="M17.9369 12.9147C19.2141 12.9147 20.4625 12.536 21.5244 11.8265C22.5863 11.1169 23.414 10.1084 23.9027 8.92852C24.3914 7.7486 24.5193 6.45026 24.2701 5.19766C24.021 3.94507 23.406 2.79449 22.5029 1.89142C21.5999 0.988354 20.4493 0.373356 19.1967 0.1242C17.9441 -0.124956 16.6457 0.00291988 15.4658 0.491657C14.2859 0.980394 13.2774 1.80804 12.5679 2.86994C11.8583 3.93184 11.4796 5.18029 11.4796 6.45742C11.4796 8.17 12.16 9.81244 13.3709 11.0234C14.5819 12.2344 16.2243 12.9147 17.9369 12.9147ZM17.9369 1.43508C18.9303 1.43508 19.9013 1.72963 20.7272 2.2815C21.5531 2.83336 22.1968 3.61774 22.577 4.53545C22.9571 5.45317 23.0566 6.46299 22.8628 7.43723C22.669 8.41147 22.1906 9.30636 21.4883 10.0087C20.7859 10.7111 19.891 11.1895 18.9167 11.3833C17.9425 11.577 16.9327 11.4776 16.015 11.0975C15.0972 10.7173 14.3129 10.0736 13.761 9.24768C13.2091 8.42176 12.9146 7.45074 12.9146 6.45742C12.9146 5.12541 13.4437 3.84796 14.3856 2.90609C15.3275 1.96422 16.6049 1.43508 17.9369 1.43508ZM25.1117 15.7846C25.2231 15.7846 25.3329 15.7587 25.4326 15.7089C25.5322 15.6591 25.6188 15.5867 25.6857 15.4976L27.8381 12.6277C27.9523 12.4755 28.0013 12.2841 27.9744 12.0958C27.9475 11.9074 27.8468 11.7374 27.6946 11.6233C27.5424 11.5091 27.351 11.4601 27.1627 11.487C26.9743 11.5139 26.8043 11.6145 26.6901 11.7667L24.5377 14.6367C24.4235 14.7889 24.3745 14.9802 24.4014 15.1686C24.4283 15.357 24.529 15.527 24.6812 15.6411C24.8054 15.7343 24.9565 15.7846 25.1117 15.7846ZM26.6901 18.3675C26.757 18.4566 26.8436 18.529 26.9433 18.5788C27.0429 18.6286 27.1527 18.6545 27.2641 18.6545C27.4194 18.6545 27.5704 18.6042 27.6946 18.511L30.5645 16.3586C30.7168 16.2444 30.8174 16.0745 30.8443 15.8861C30.8712 15.6977 30.8222 15.5064 30.708 15.3541C30.5938 15.2019 30.4239 15.1013 30.2355 15.0744C30.0471 15.0474 29.8558 15.0965 29.7036 15.2106L26.8336 17.3631C26.6814 17.4772 26.5808 17.6472 26.5539 17.8356C26.527 18.024 26.576 18.2153 26.6901 18.3675ZM33.7214 19.946C33.7044 19.8509 33.6683 19.7602 33.6153 19.6793C33.5623 19.5985 33.4936 19.5292 33.4132 19.4756C33.3328 19.422 33.2424 19.3852 33.1474 19.3674C33.0524 19.3496 32.9548 19.3512 32.8604 19.372L29.2731 20.0895C29.1788 20.0989 29.0874 20.1268 29.004 20.1716C28.9205 20.2163 28.8467 20.2771 28.7867 20.3504C28.6656 20.4984 28.6083 20.6884 28.6273 20.8787C28.6464 21.069 28.7402 21.2439 28.8882 21.365C29.0362 21.4861 29.2263 21.5435 29.4166 21.5244H29.5601L33.1474 20.807C33.2426 20.7899 33.3333 20.7538 33.4141 20.7008C33.4949 20.6479 33.5642 20.5791 33.6178 20.4987C33.6714 20.4183 33.7082 20.3279 33.726 20.2329C33.7438 20.1379 33.7423 20.0403 33.7214 19.946ZM0.717477 20.0895H9.3272C9.51749 20.0895 9.69998 20.0139 9.83453 19.8793C9.96909 19.7448 10.0447 19.5623 10.0447 19.372V7.89237C10.0447 7.70209 9.96909 7.51959 9.83453 7.38504C9.69998 7.25049 9.51749 7.1749 9.3272 7.1749H0.717477C0.52719 7.1749 0.344697 7.25049 0.210144 7.38504C0.0755911 7.51959 0 7.70209 0 7.89237V19.372C0 19.5623 0.0755911 19.7448 0.210144 19.8793C0.344697 20.0139 0.52719 20.0895 0.717477 20.0895ZM1.43495 8.60985H8.60972V18.6545H1.43495V8.60985Z" fill="#909090"/>
<path d="M6.45341 10.045H5.01846C4.82817 10.045 4.64568 10.1206 4.51113 10.2551C4.37657 10.3897 4.30098 10.5722 4.30098 10.7625C4.30098 10.9527 4.37657 11.1352 4.51113 11.2698C4.64568 11.4043 4.82817 11.4799 5.01846 11.4799H6.45341C6.6437 11.4799 6.82619 11.4043 6.96075 11.2698C7.0953 11.1352 7.17089 10.9527 7.17089 10.7625C7.17089 10.5722 7.0953 10.3897 6.96075 10.2551C6.82619 10.1206 6.6437 10.045 6.45341 10.045ZM6.45341 12.9149H3.5835C3.39322 12.9149 3.21073 12.9905 3.07617 13.125C2.94162 13.2596 2.86603 13.4421 2.86603 13.6324C2.86603 13.8227 2.94162 14.0051 3.07617 14.1397C3.21073 14.2743 3.39322 14.3498 3.5835 14.3498H6.45341C6.6437 14.3498 6.82619 14.2743 6.96075 14.1397C7.0953 14.0051 7.17089 13.8227 7.17089 13.6324C7.17089 13.4421 7.0953 13.2596 6.96075 13.125C6.82619 12.9905 6.6437 12.9149 6.45341 12.9149ZM6.45341 15.7848H3.5835C3.39322 15.7848 3.21073 15.8604 3.07617 15.9949C2.94162 16.1295 2.86603 16.312 2.86603 16.5023C2.86603 16.6926 2.94162 16.8751 3.07617 17.0096C3.21073 17.1442 3.39322 17.2198 3.5835 17.2198H6.45341C6.6437 17.2198 6.82619 17.1442 6.96075 17.0096C7.0953 16.8751 7.17089 16.6926 7.17089 16.5023C7.17089 16.312 7.0953 16.1295 6.96075 15.9949C6.82619 15.8604 6.6437 15.7848 6.45341 15.7848ZM24.4764 19.8744C24.4293 19.7924 24.3665 19.7206 24.2916 19.6629C24.2167 19.6052 24.1312 19.5628 24.0399 19.5381C23.9487 19.5135 23.8534 19.507 23.7597 19.5192C23.6659 19.5313 23.5755 19.5618 23.4935 19.609C23.4115 19.6561 23.3396 19.7189 23.2819 19.7938C23.2242 19.8686 23.1818 19.9542 23.1572 20.0454C23.1325 20.1367 23.1261 20.232 23.1383 20.3257C23.1504 20.4195 23.1809 20.5099 23.228 20.5919L26.3921 26.0662L14.9125 30.3711H14.8048L12.9394 31.4473L11.6982 32.1648C11.5348 32.2593 11.3543 32.3206 11.1672 32.3452C10.98 32.3698 10.7899 32.3573 10.6076 32.3083C10.2414 32.2094 9.92927 31.9695 9.73946 31.641L8.3045 29.1586C8.13569 28.8338 8.09737 28.4568 8.19741 28.1046C8.29744 27.7525 8.52825 27.452 8.84261 27.2644L11.3251 25.8295L13.1188 28.9362C13.182 29.0456 13.273 29.1365 13.3826 29.1995C13.4922 29.2625 13.6166 29.2954 13.743 29.2949C13.8692 29.2954 13.9933 29.2626 14.1027 29.1998C14.2122 29.1371 14.3032 29.0465 14.3665 28.9374C14.4298 28.8282 14.4632 28.7043 14.4633 28.5781C14.4634 28.4519 14.4303 28.328 14.3672 28.2187L12.5161 25.0187L21.5204 17.5928L21.8146 18.1023C21.8617 18.1842 21.9245 18.2561 21.9994 18.3138C22.0743 18.3715 22.1598 18.4139 22.2511 18.4386C22.3424 18.4632 22.4376 18.4696 22.5314 18.4575C22.6251 18.4453 22.7156 18.4148 22.7975 18.3677C22.8795 18.3206 22.9514 18.2578 23.0091 18.1829C23.0668 18.108 23.1092 18.0225 23.1339 17.9312C23.1585 17.8399 23.1649 17.7447 23.1528 17.651C23.1406 17.5572 23.1101 17.4667 23.063 17.3848L22.3455 16.1435C22.293 16.0536 22.2214 15.9763 22.1359 15.9168C22.0505 15.8573 21.953 15.8172 21.8505 15.7991C21.7474 15.7797 21.6412 15.7831 21.5396 15.8092C21.4379 15.8352 21.3432 15.8832 21.2621 15.9498L11.2175 24.2295L8.16101 25.9945C7.61251 26.314 7.1854 26.8063 6.94652 27.3944C6.70765 27.9825 6.67048 28.6332 6.84085 29.2447L6.12337 29.6536C5.7537 29.8659 5.45538 30.1832 5.26625 30.5652C5.07713 30.9473 5.0057 31.3769 5.06103 31.7996C5.11637 32.2223 5.29597 32.619 5.57706 32.9395C5.85816 33.26 6.22809 33.4898 6.63996 33.5998C6.82255 33.6481 7.01071 33.6722 7.19959 33.6715C7.57703 33.6699 7.9477 33.5711 8.27581 33.3845L8.99328 32.9755C9.33794 33.3316 9.77139 33.5892 10.2489 33.7217C10.494 33.7903 10.7476 33.8241 11.0022 33.8222C11.5065 33.8233 12.002 33.6896 12.4372 33.4347L13.0614 33.076L14.4963 35.5656C14.7815 36.0587 15.2505 36.4186 15.8005 36.5665C16.3505 36.7145 16.9368 36.6383 17.4308 36.3549C17.6759 36.2136 17.8908 36.0255 18.0631 35.8012C18.2354 35.5769 18.3618 35.3208 18.4351 35.0476C18.5084 34.7744 18.5272 34.4895 18.4903 34.209C18.4534 33.9286 18.3615 33.6581 18.22 33.4132L16.9142 31.1388L27.6764 27.0994C27.774 27.0627 27.8624 27.0052 27.9355 26.9309C28.0086 26.8565 28.0647 26.7671 28.0997 26.6689C28.1346 26.5719 28.1482 26.4685 28.1395 26.3657C28.1309 26.2629 28.1002 26.1632 28.0495 26.0734L24.4764 19.8744ZM7.52963 32.1361C7.44792 32.1833 7.3577 32.214 7.26414 32.2263C7.17057 32.2386 7.07549 32.2323 6.98435 32.2078C6.80053 32.1601 6.64314 32.0414 6.54669 31.8778C6.49945 31.7961 6.4688 31.7059 6.45649 31.6123C6.44418 31.5187 6.45045 31.4237 6.47494 31.3325C6.49943 31.2409 6.54185 31.1551 6.59973 31.0799C6.65761 31.0048 6.72981 30.9419 6.81215 30.8949L7.43636 30.5361L8.15383 31.7774L7.52963 32.1361ZM16.9716 34.145C17.0189 34.2267 17.0495 34.317 17.0618 34.4105C17.0741 34.5041 17.0679 34.5992 17.0434 34.6903C16.9922 34.8727 16.871 35.0275 16.7062 35.1208C16.5423 35.2149 16.3479 35.2406 16.1652 35.1923C15.9825 35.1439 15.8262 35.0254 15.7304 34.8625L14.2954 32.3729L15.4865 31.6913H15.5438L16.9716 34.145Z" fill="#909090"/>
</svg>
