<svg width="42" height="42" viewBox="0 0 42 42" fill="none" xmlns="http://www.w3.org/2000/svg">
<path d="M42 16.2207C41.999 16.0736 41.964 15.9288 41.8976 15.7975C41.8313 15.6662 41.7356 15.552 41.6178 15.4638L38.1818 12.8868V3.81821C38.1819 1.71237 36.4694 0 34.3637 0H7.63634C5.53058 0 3.81821 1.71237 3.81821 3.81821V12.8869L0.382206 15.4638C0.14354 15.6428 0.00187926 15.9225 0 16.2207C0 16.223 0.00152131 16.2249 0.00152131 16.2273H0V38.1818C0 40.2875 1.71237 42 3.81821 42H38.1819C40.2876 42 42.0001 40.2876 42.0001 38.1818V16.2273H41.9986C41.9985 16.2249 42 16.223 42 16.2207ZM38.1819 15.2724L39.471 16.2394C39.1217 16.5106 38.6775 16.8561 38.1819 17.242V15.2724ZM5.72728 3.81821C5.72728 2.76583 6.58395 1.90915 7.63634 1.90915H34.3637C35.416 1.90915 36.2727 2.76583 36.2727 3.81821V18.7316C31.841 22.197 25.1117 27.51 22.3004 29.9983C22.0701 30.2024 21.59 30.5455 20.9702 30.5455C20.5171 30.5455 20.0799 30.3619 19.6698 29.9983C16.8396 27.4923 10.143 22.1962 5.72728 18.7375V3.81821ZM3.81821 15.2725V17.2452C3.32209 16.8582 2.87769 16.5122 2.52806 16.2403L3.81821 15.2725ZM40.0909 38.1819C40.0909 39.2343 39.2343 40.0909 38.1819 40.0909H3.81821C2.76583 40.0909 1.90915 39.2343 1.90915 38.1819V18.1762C5.8905 21.2752 15.1017 28.5029 18.404 31.4283C19.1628 32.0994 20.0502 32.4546 20.9702 32.4546C21.8968 32.4546 22.8187 32.0901 23.5663 31.4283C26.9982 28.3892 36.3921 21.0504 40.0909 18.1756V38.1819Z" fill="#909090"/>
<path d="M21 24.8182C21.2519 24.8185 21.4935 24.7189 21.6721 24.5413L28.8675 17.413C29.9498 16.3326 30.5454 14.8942 30.5454 13.3636C30.5454 10.2054 27.9764 7.63635 24.8181 7.63635C23.3854 7.63635 22.0421 8.16299 20.9999 9.11014C19.9578 8.16308 18.6145 7.63635 17.1818 7.63635C14.0236 7.63635 11.4545 10.2054 11.4545 13.3636C11.4545 14.8942 12.0502 16.3326 13.1352 17.4158L20.3279 24.5413C20.5065 24.7189 20.7482 24.8185 21 24.8182ZM13.3636 13.3636C13.3636 11.2579 15.076 9.54541 17.1818 9.54541C18.388 9.54541 19.5001 10.1104 20.2347 11.0965C20.5945 11.5794 21.4055 11.5794 21.7653 11.0965C22.4998 10.1103 23.6119 9.54541 24.8182 9.54541C26.924 9.54541 28.6364 11.2578 28.6364 13.3636C28.6364 14.3834 28.2393 15.3427 27.5206 16.0604L21 22.5204L14.4822 16.0632C13.7607 15.3427 13.3636 14.3834 13.3636 13.3636Z" fill="#909090"/>
</svg>
