<svg width="46" height="44" viewBox="0 0 46 44" fill="none" xmlns="http://www.w3.org/2000/svg">
<path d="M33.6716 18.8651C34.778 18.1236 35.5713 17.0175 35.9211 15.7122C36.3034 14.2854 36.1095 12.7991 35.3751 11.5271C34.6406 10.255 33.4505 9.34392 32.0237 8.96155C30.7184 8.61183 29.3638 8.74578 28.1685 9.33322L25.0887 3.99891C24.4331 2.86332 23.2556 2.20145 21.9482 2.22374C20.6373 2.24775 19.4884 2.95377 18.8745 4.11237C18.4435 4.92637 18.0387 5.77192 17.6101 6.66719C15.8633 10.316 13.8835 14.4516 9.60346 16.9227L4.10372 20.0979C2.2106 21.1909 0.85457 22.9628 0.285294 25.0871C-0.283892 27.2115 0.00452191 29.424 1.09749 31.3171C2.61697 33.9489 5.38333 35.4219 8.22405 35.4219C9.28042 35.4222 10.3268 35.2173 11.305 34.8185L15.1498 41.4779C15.9452 42.8556 17.3931 43.6265 18.8801 43.6265C19.6324 43.6267 20.3714 43.4283 21.0224 43.0514C22.0138 42.479 22.7239 41.5516 23.0217 40.44C23.3195 39.3285 23.1684 38.1703 22.5959 37.1788L18.8127 30.6261C22.7958 28.7326 26.9766 29.0539 30.6989 29.3416C31.6894 29.4182 32.6249 29.4905 33.546 29.5242C34.8545 29.571 36.0423 28.9301 36.7184 27.8066C37.3946 26.6833 37.4069 25.3348 36.7513 24.1992L33.6715 18.8648L33.6716 18.8651ZM31.4419 11.1326C32.2888 11.3595 32.9944 11.8986 33.4286 12.6509C34.267 14.1029 33.8607 15.937 32.544 16.9117L29.2963 11.2867C29.9686 10.9947 30.7175 10.9384 31.442 11.1326H31.4419ZM8.22036 33.1749C6.15723 33.1748 4.14769 32.1049 3.04411 30.1933C2.25133 28.8202 2.04257 27.2134 2.45649 25.6689C2.87032 24.1244 3.85451 22.8373 5.22762 22.0445L9.75459 19.4309L15.7255 29.7601L11.1931 32.3769C10.2559 32.918 9.23188 33.175 8.22036 33.1749ZM20.8508 39.8584C20.7084 40.3901 20.3702 40.8328 19.8987 41.1051C18.9191 41.6706 17.662 41.3339 17.0963 40.3542L13.29 33.7615L16.8432 31.71L20.6495 38.3027C20.9217 38.7743 20.9932 39.3267 20.8507 39.8584H20.8508ZM34.7928 26.6477C34.5372 27.0724 34.1251 27.2973 33.6283 27.2782C32.7527 27.2462 31.8394 27.1755 30.8723 27.1008C26.8102 26.7869 22.2429 26.435 17.6914 28.6697L11.6818 18.2736C15.8979 15.4463 17.8776 11.3137 19.6374 7.6378C20.0559 6.76366 20.4512 5.93797 20.8608 5.16443C21.0928 4.72633 21.4936 4.48008 21.9893 4.47109L22.0173 4.47082C22.5003 4.47082 22.8991 4.7016 23.1423 5.12281L34.8051 25.3234C35.0529 25.7527 35.0487 26.2231 34.7929 26.6478L34.7928 26.6477ZM31.8735 4.58194L34.1943 0.562126C34.5047 0.024586 35.1919 -0.159629 35.7295 0.150812C36.267 0.461163 36.4511 1.14848 36.1408 1.68593L33.82 5.70575C33.7462 5.83359 33.648 5.94565 33.5309 6.03552C33.4139 6.12539 33.2802 6.19131 33.1377 6.22951C32.9951 6.26771 32.8464 6.27744 32.7001 6.25814C32.5537 6.23885 32.4127 6.19091 32.2849 6.11706C31.7473 5.80671 31.5632 5.11939 31.8735 4.58194ZM42.3072 8.82238L38.1902 11.1995C38.0624 11.2733 37.9213 11.3212 37.7749 11.3405C37.6286 11.3598 37.4799 11.3501 37.3374 11.3119C37.1948 11.2737 37.0612 11.2078 36.9441 11.1179C36.827 11.028 36.7288 10.916 36.655 10.7881C36.3447 10.2506 36.5289 9.56329 37.0663 9.25302L41.1834 6.87595C41.7208 6.56551 42.4082 6.74981 42.7186 7.28726C43.0289 7.82471 42.8447 8.51212 42.3072 8.82238ZM45.4045 16.9082C45.4045 17.5288 44.9013 18.032 44.2807 18.032H39.6389C39.0183 18.032 38.5151 17.5289 38.5151 16.9082C38.5151 16.2875 39.0183 15.7844 39.6389 15.7844H44.2807C44.9013 15.7844 45.4045 16.2875 45.4045 16.9082Z" fill="#919191"/>
</svg>
