<svg width="47" height="44" viewBox="0 0 47 44" fill="none" xmlns="http://www.w3.org/2000/svg">
<path d="M10.4911 29.4747C10.2068 29.4753 9.93303 29.3677 9.7253 29.1737C9.51758 28.9797 9.39153 28.7138 9.37277 28.4302C9.28499 27.3116 9.31798 26.1869 9.47118 25.0753C9.49233 24.93 9.5419 24.7901 9.61708 24.6639C9.69225 24.5377 9.79156 24.4275 9.90931 24.3397C10.0271 24.2518 10.161 24.188 10.3034 24.1519C10.4458 24.1158 10.5939 24.1081 10.7393 24.1293C10.8847 24.1504 11.0245 24.2 11.1507 24.2752C11.277 24.3503 11.3872 24.4496 11.475 24.5674C11.5629 24.6852 11.6267 24.8191 11.6628 24.9615C11.6989 25.1039 11.7066 25.252 11.6854 25.3974C11.5558 26.3498 11.5288 27.3133 11.6049 28.2714C11.6146 28.418 11.5954 28.565 11.5482 28.7042C11.5011 28.8433 11.427 28.9718 11.3303 29.0823C11.2335 29.1928 11.1159 29.2831 10.9841 29.3481C10.8524 29.4132 10.7092 29.4516 10.5626 29.4613L10.4911 29.4747ZM45.7442 10.3474C45.5827 10.3474 45.4231 10.3124 45.2763 10.2449C45.1296 10.1773 44.9993 10.0787 44.8943 9.95599C43.6095 8.4574 42.0805 7.18698 40.3719 6.19852C40.1285 6.04378 39.9543 5.80098 39.8857 5.52083C39.817 5.24067 39.8593 4.94484 40.0037 4.69513C40.148 4.44541 40.3833 4.26112 40.6603 4.18076C40.9373 4.1004 41.2346 4.13017 41.4902 4.26387C43.4176 5.37703 45.1419 6.80942 46.5896 8.49997C46.7292 8.66223 46.8192 8.86112 46.8491 9.07303C46.8789 9.28493 46.8474 9.50096 46.7581 9.69546C46.6689 9.88997 46.5257 10.0548 46.3456 10.1703C46.1655 10.2859 45.9582 10.3473 45.7442 10.3474Z" fill="#7B6300"/>
<path d="M25.4757 43.206C23.2073 43.2574 20.954 42.8239 18.8665 41.9344C16.7791 41.045 14.9056 39.7201 13.3713 38.0485C12.0823 36.6481 11.0754 35.0124 10.4056 33.2308C10.3477 33.0921 10.3183 32.943 10.3194 32.7926C10.3204 32.6423 10.3517 32.4936 10.4115 32.3556C10.4713 32.2176 10.5583 32.0931 10.6673 31.9895C10.7763 31.8859 10.9051 31.8054 11.046 31.7527C11.1868 31.7001 11.3368 31.6763 11.4871 31.683C11.6373 31.6896 11.7847 31.7265 11.9203 31.7914C12.056 31.8563 12.1771 31.9479 12.2766 32.0608C12.376 32.1736 12.4517 32.3053 12.499 32.448C13.0701 33.9682 13.929 35.364 15.0286 36.5589C16.3561 37.9947 17.9747 39.1309 19.7762 39.8915C21.5778 40.652 23.5209 41.0195 25.4757 40.9694C30.0719 40.8215 34.477 39.0952 37.9499 36.0809C41.4228 33.0667 43.7517 28.9483 44.5449 24.4187C44.9095 22.3893 44.8257 20.3046 44.2995 18.311C43.7732 16.3174 42.8173 14.463 41.4987 12.8779C40.1687 11.3657 38.5234 10.1635 36.6786 9.35586C34.8338 8.54824 32.8344 8.15485 30.8212 8.2034C26.2338 8.27821 21.826 9.9991 18.4014 13.0523C15.8537 15.2331 13.8943 18.0186 12.7026 21.1533C12.5993 21.4315 12.3898 21.6573 12.1201 21.781C11.8504 21.9047 11.5426 21.9163 11.2644 21.813C10.9862 21.7098 10.7604 21.5003 10.6367 21.2306C10.513 20.9609 10.5014 20.6531 10.6046 20.3749C11.9281 16.8875 14.106 13.7883 16.9387 11.3615C20.7689 7.95569 25.6963 6.04096 30.8212 5.96681C33.1562 5.91511 35.4742 6.37596 37.6119 7.3169C39.7496 8.25784 41.655 9.656 43.194 11.4129C44.7265 13.2438 45.8387 15.3886 46.4524 17.696C47.066 20.0034 47.1662 22.4173 46.7457 24.7676C45.857 29.8162 43.2575 34.405 39.3841 37.7628C35.5106 41.1206 30.5994 43.0427 25.4757 43.206Z" fill="#7B6300"/>
<path d="M25.9796 39.8461C25.683 39.8461 25.3985 39.7283 25.1888 39.5185C24.9791 39.3088 24.8613 39.0244 24.8613 38.7278C24.8613 38.4312 24.9791 38.1467 25.1888 37.937C25.3985 37.7273 25.683 37.6095 25.9796 37.6095C29.6426 37.4904 33.153 36.1135 35.92 33.7102C38.6871 31.3069 40.542 28.0239 41.1727 24.4136C41.2249 24.127 41.3868 23.8721 41.624 23.7031C41.8613 23.5341 42.1551 23.4643 42.443 23.5086C42.7309 23.5529 42.9901 23.7078 43.1656 23.9403C43.341 24.1728 43.4189 24.4646 43.3825 24.7536C42.6573 28.8858 40.5312 32.6422 37.3617 35.3909C34.1922 38.1396 30.1728 39.7129 25.9796 39.8461ZM27.8628 27.509C27.4782 27.5133 27.0973 27.4342 26.7463 27.277C26.3953 27.1199 26.0826 26.8885 25.8297 26.5988C25.5788 26.3007 25.3955 25.9519 25.2924 25.5762C25.1893 25.2005 25.1689 24.8069 25.2325 24.4225C25.3582 23.6649 25.745 22.975 26.3259 22.4726C26.9068 21.9702 27.6451 21.6868 28.413 21.6715C28.7978 21.6674 29.179 21.7466 29.5303 21.9037C29.8817 22.0608 30.1948 22.2922 30.4483 22.5818C30.6987 22.8802 30.8817 23.2291 30.9847 23.6047C31.0878 23.9803 31.1085 24.3737 31.0454 24.758C30.9197 25.5161 30.5326 26.2062 29.9512 26.7087C29.3699 27.2112 28.631 27.4943 27.8628 27.509ZM28.413 23.9081C28.1807 23.9247 27.9602 24.0167 27.785 24.1702C27.6098 24.3236 27.4894 24.53 27.4423 24.758C27.4283 24.8244 27.4285 24.8929 27.4427 24.9592C27.457 25.0255 27.485 25.088 27.525 25.1427C27.5692 25.1867 27.6221 25.2209 27.6802 25.2433C27.7384 25.2656 27.8005 25.2755 27.8628 25.2725C28.0952 25.2562 28.3159 25.1643 28.4911 25.0109C28.6664 24.8574 28.7866 24.6508 28.8335 24.4225C28.8483 24.3564 28.8488 24.2878 28.8349 24.2215C28.821 24.1551 28.7931 24.0925 28.7529 24.0379C28.7085 23.9936 28.6553 23.9592 28.5967 23.9369C28.5382 23.9145 28.4756 23.9047 28.413 23.9081Z" fill="#7B6300"/>
<path d="M29.6214 24.4326C29.3932 24.4329 29.1704 24.3634 28.9829 24.2335C28.7954 24.1036 28.6521 23.9194 28.5722 23.7056C28.4924 23.4919 28.4798 23.2589 28.5362 23.0378C28.5926 22.8167 28.7153 22.6182 28.8878 22.4689L36.519 15.8486C36.6301 15.7524 36.7589 15.679 36.8983 15.6326C37.0377 15.5862 37.1849 15.5677 37.3314 15.5782C37.4779 15.5887 37.6209 15.628 37.7523 15.6937C37.8836 15.7595 38.0008 15.8505 38.097 15.9615C38.1931 16.0725 38.2665 16.2014 38.3129 16.3408C38.3593 16.4802 38.3778 16.6273 38.3673 16.7739C38.3568 16.9204 38.3175 17.0634 38.2518 17.1948C38.186 17.3261 38.095 17.4432 37.984 17.5394L30.3528 24.1597C30.1497 24.3356 29.89 24.4324 29.6214 24.4326ZM17.6691 13.348C17.5068 13.3478 17.3465 13.3123 17.1994 13.2439C17.0522 13.1756 16.9217 13.076 16.8169 12.9522L15.1193 10.9504C15.0205 10.8389 14.945 10.7088 14.8971 10.5677C14.8493 10.4266 14.8301 10.2774 14.8408 10.1287C14.8514 9.98014 14.8916 9.83515 14.9591 9.7023C15.0266 9.56946 15.1199 9.45143 15.2336 9.35516C15.3473 9.25888 15.4791 9.1863 15.6213 9.14168C15.7634 9.09705 15.9131 9.08129 16.0614 9.0953C16.2097 9.10931 16.3538 9.15283 16.485 9.22328C16.6163 9.29374 16.7322 9.38972 16.8259 9.50559L18.5234 11.5185C18.6578 11.6816 18.7433 11.8794 18.7699 12.089C18.7965 12.2986 18.7632 12.5115 18.6737 12.703C18.5843 12.8944 18.4425 13.0566 18.2647 13.1708C18.0869 13.285 17.8804 13.3464 17.6691 13.348ZM19.3532 33.9403H1.11829C0.821705 33.9403 0.537262 33.8225 0.327541 33.6128C0.11782 33.4031 0 33.1186 0 32.822C0 32.5254 0.11782 32.241 0.327541 32.0313C0.537262 31.8216 0.821705 31.7037 1.11829 31.7037H19.3532C19.6498 31.7037 19.9342 31.8216 20.144 32.0313C20.3537 32.241 20.4715 32.5254 20.4715 32.822C20.4715 33.1186 20.3537 33.4031 20.144 33.6128C19.9342 33.8225 19.6498 33.9403 19.3532 33.9403ZM16.8236 26.3583H6.01866C5.72207 26.3583 5.43763 26.2405 5.22791 26.0308C5.01819 25.821 4.90037 25.5366 4.90037 25.24C4.90037 24.9434 5.01819 24.659 5.22791 24.4492C5.43763 24.2395 5.72207 24.1217 6.01866 24.1217H16.8236C17.1202 24.1217 17.4047 24.2395 17.6144 24.4492C17.8241 24.659 17.9419 24.9434 17.9419 25.24C17.9419 25.5366 17.8241 25.821 17.6144 26.0308C17.4047 26.2405 17.1202 26.3583 16.8236 26.3583ZM18.6957 6.13728H8.48115C8.18456 6.13728 7.90012 6.01946 7.69039 5.80974C7.48067 5.60002 7.36285 5.31558 7.36285 5.01899C7.36285 4.7224 7.48067 4.43796 7.69039 4.22823C7.90012 4.01851 8.18456 3.90069 8.48115 3.90069H18.6957C18.9922 3.90069 19.2767 4.01851 19.4864 4.22823C19.6961 4.43796 19.814 4.7224 19.814 5.01899C19.814 5.31558 19.6961 5.60002 19.4864 5.80974C19.2767 6.01946 18.9922 6.13728 18.6957 6.13728ZM10.2346 40.7396H6.01866C5.72207 40.7396 5.43763 40.6217 5.22791 40.412C5.01819 40.2023 4.90037 39.9179 4.90037 39.6213C4.90037 39.3247 5.01819 39.0402 5.22791 38.8305C5.43763 38.6208 5.72207 38.503 6.01866 38.503H10.2346C10.5312 38.503 10.8157 38.6208 11.0254 38.8305C11.2351 39.0402 11.3529 39.3247 11.3529 39.6213C11.3529 39.9179 11.2351 40.2023 11.0254 40.412C10.8157 40.6217 10.5312 40.7396 10.2346 40.7396ZM7.19511 20.4604H1.11829C0.821705 20.4604 0.537262 20.3426 0.327541 20.1329C0.11782 19.9231 0 19.6387 0 19.3421C0 19.0455 0.11782 18.7611 0.327541 18.5514C0.537262 18.3416 0.821705 18.2238 1.11829 18.2238H7.19511C7.4917 18.2238 7.77614 18.3416 7.98586 18.5514C8.19558 18.7611 8.3134 19.0455 8.3134 19.3421C8.3134 19.6387 8.19558 19.9231 7.98586 20.1329C7.77614 20.3426 7.4917 20.4604 7.19511 20.4604ZM33.7725 5.23594H28.776C28.4253 5.24298 28.0775 5.1722 27.7574 5.02871C27.4374 4.88521 27.1532 4.67256 26.9252 4.40607C26.6972 4.13957 26.5311 3.82585 26.4389 3.48747C26.3466 3.1491 26.3305 2.79448 26.3918 2.44915C26.5035 1.77413 26.8481 1.15957 27.3658 0.712188C27.8834 0.264801 28.5414 0.0128479 29.2255 8.04622e-05H34.2422C34.5891 -0.00275365 34.9325 0.0693127 35.2491 0.211358C35.5656 0.353404 35.8477 0.562083 36.0762 0.823146C36.3027 1.09208 36.4683 1.40681 36.5617 1.74577C36.6552 2.08473 36.6742 2.43988 36.6174 2.78687C36.5045 3.46337 36.1581 4.07888 35.6383 4.52634C35.1185 4.9738 34.4583 5.22489 33.7725 5.23594ZM29.2345 2.23667C29.0853 2.24959 28.9442 2.30999 28.8319 2.40902C28.7196 2.50805 28.642 2.64048 28.6105 2.78687C28.6105 2.78687 28.5613 2.99935 28.776 2.99935H33.7725C33.9219 2.98713 34.0634 2.92696 34.1758 2.82782C34.2883 2.72867 34.3657 2.59585 34.3965 2.44915C34.3965 2.44915 34.4323 2.23667 34.2332 2.23667H29.2345Z" fill="#7B6300"/>
</svg>
