<svg width="43" height="48" viewBox="0 0 43 48" fill="none" xmlns="http://www.w3.org/2000/svg">
<path d="M34.0842 33.9946L29.6412 32.5139L28.0462 29.3238C29.4831 27.8612 30.4808 25.926 30.8173 23.9075L31.0162 22.7152H32.7174C34.2637 22.7152 35.5217 21.4572 35.5217 19.9109V14.0217C35.5217 6.29015 29.2316 0 21.5 0C13.7486 0 7.47826 6.27211 7.47826 14.0217V19.9109C7.47826 21.1295 8.25983 22.1686 9.34783 22.5544V23.65C9.34783 25.1963 10.6059 26.4544 12.1522 26.4544H12.9731C13.3772 27.3344 13.9052 28.152 14.5411 28.8824C14.6738 29.0343 14.8111 29.1821 14.953 29.3255L13.3588 32.5139L8.91568 33.9947C3.7496 35.7173 0 41.1558 0 46.9261C0 47.4424 0.418502 47.8609 0.934783 47.8609H42.0652C42.5814 47.8609 43 47.4424 43 46.9261C43 41.1558 39.2505 35.7173 34.0842 33.9946ZM33.6522 19.9109C33.6522 20.4263 33.2328 20.8457 32.7174 20.8457H31.2907C31.5283 19.0051 31.6867 17.0464 31.7504 15.1173C31.7522 15.0629 31.7537 15.01 31.7554 14.9565H33.6522V19.9109ZM10.2826 20.8457C9.76717 20.8457 9.34783 20.4263 9.34783 19.9109V14.9565H11.2452C11.2483 15.054 11.2516 15.152 11.2553 15.2506L11.2556 15.2606V15.2614C11.3211 17.1377 11.4774 19.0455 11.7096 20.8456H10.2826V20.8457ZM12.1522 24.5848C11.6367 24.5848 11.2174 24.1654 11.2174 23.65V22.7152H11.9837L12.1826 23.9079C12.2209 24.1351 12.2671 24.3608 12.3212 24.5848H12.1522ZM11.219 13.087H9.38335C9.85682 6.82195 15.0852 1.86957 21.5 1.86957C27.8862 1.86957 33.1377 6.8213 33.6166 13.087H31.7811C31.7138 7.92443 27.5098 3.73913 22.3367 3.73913H20.6635C15.4905 3.73913 11.2862 7.92443 11.219 13.087ZM20.6634 5.6087H22.3366C26.5253 5.6087 29.9155 9.03477 29.913 13.2188C29.913 13.5129 29.9107 13.7691 29.9058 14.0021L29.9057 14.0113L28.7364 13.8442C25.56 13.3907 22.5609 11.8911 20.2914 9.62163C20.1161 9.44635 19.8783 9.34786 19.6304 9.34783C17.12 9.34783 14.7168 10.4916 13.1283 12.424C13.5198 8.61767 16.7376 5.6087 20.6634 5.6087ZM14.2592 24.5848C13.7912 23.0281 13.2558 18.4477 13.1374 15.5124L14.3956 13.8349C15.551 12.2947 17.3487 11.3378 19.261 11.228C21.7772 13.6225 25.0323 15.2038 28.4721 15.6949L29.8483 15.8916C29.7563 17.8439 29.5683 19.803 29.299 21.6048L29.2987 21.6067C29.2131 22.1859 29.1456 22.5587 28.9732 23.6C28.4782 26.5693 26.2625 29.2545 23.3377 29.9858C22.1311 30.2863 20.8693 30.2863 19.6628 29.9858C17.8365 29.5292 16.1619 28.2656 15.0812 26.4544H16.9869C17.3727 27.5423 18.4118 28.3239 19.6304 28.3239H21.5C23.0494 28.3239 24.3043 27.0691 24.3043 25.5196C24.3043 23.9733 23.0463 22.7152 21.5 22.7152H19.6304C18.3847 22.7152 17.361 23.5199 16.9853 24.5848H14.2592ZM19.5518 31.8776C20.1924 32.0129 20.8453 32.0813 21.5 32.0817C22.0114 32.0817 22.5229 32.0389 23.0287 31.9559L21.3769 33.7028L19.5518 31.8776ZM20.0918 35.0617L17.1268 38.1972C16.3099 36.6335 15.6104 35.0114 15.0339 33.3441L16.1473 31.1172L20.0918 35.0617ZM26.6942 30.8005L27.9659 33.344C27.3894 35.0118 26.6898 36.6345 25.8727 38.1986L22.6993 35.0252L26.6942 30.8005ZM18.6957 25.5196C18.6957 25.0035 19.1142 24.5848 19.6304 24.5848H21.5C22.0154 24.5848 22.4348 25.0041 22.4348 25.5196C22.4348 26.0358 22.0161 26.4544 21.5 26.4544H19.6304C19.115 26.4544 18.6957 26.035 18.6957 25.5196ZM1.90696 45.9913C2.27741 41.3605 5.3593 37.1514 9.50693 35.7682L13.4418 34.4569C14.1637 36.4526 15.0538 38.3833 16.1025 40.2283L16.1077 40.2377L16.1078 40.2379C16.8786 41.5923 17.7332 42.8972 18.6665 44.1452L19.8165 45.9913H1.90696ZM21.5 45.158L20.2322 43.1227C20.2181 43.1 20.2029 43.0778 20.1868 43.0563C19.4295 42.0455 18.7264 40.9951 18.0806 39.9096L21.4143 36.3842L24.927 39.8969C24.2792 40.9869 23.5737 42.0414 22.8134 43.0561C22.7676 43.1171 22.8325 43.0209 21.5 45.158ZM23.1835 45.9913L24.3334 44.1453C25.274 42.8878 26.1346 41.5724 26.9101 40.2069C26.9147 40.1987 26.9191 40.1902 26.9238 40.182L26.9255 40.179C27.9622 38.349 28.8429 36.4349 29.5582 34.4569L33.493 35.7682C37.6407 37.1514 40.7226 41.3605 41.093 45.9913H23.1835Z" fill="#7B6300"/>
</svg>
