<svg width="47" height="47" viewBox="0 0 47 47" fill="none" xmlns="http://www.w3.org/2000/svg">
<path d="M9.71526 38.5558C11.1663 37.6075 12.129 35.9718 12.129 34.1129C12.129 31.1869 9.74786 28.8065 6.82258 28.8065C3.8973 28.8065 1.51613 31.1869 1.51613 34.1129C1.51613 35.9718 2.47887 37.6075 3.9299 38.5558C1.61165 39.6466 0 41.999 0 44.7258V46.2419C0 46.6602 0.338665 47 0.758065 47H12.8871C13.3065 47 13.6452 46.6602 13.6452 46.2419V44.7258C13.6452 41.999 12.0335 39.6466 9.71526 38.5558ZM10.5362 33.3548H9.85484C8.60119 33.3548 7.58065 32.3343 7.58065 31.0806V30.3992C9.06342 30.7016 10.2339 31.8721 10.5362 33.3548ZM6.06452 30.3992V31.0806C6.06452 32.3343 5.04397 33.3548 3.79032 33.3548H3.10892C3.41129 31.8721 4.58174 30.7016 6.06452 30.3992ZM3.10892 34.871H3.79032C5.0344 34.871 6.13113 34.2598 6.82258 33.3315C7.51403 34.2598 8.61076 34.871 9.85484 34.871H10.5362C10.1839 36.5984 8.6534 37.9032 6.82258 37.9032C4.99176 37.9032 3.46123 36.5984 3.10892 34.871ZM12.129 45.4839H1.51613V44.7258C1.51613 41.7998 3.8973 39.4194 6.82258 39.4194C9.74786 39.4194 12.129 41.7998 12.129 44.7258V45.4839ZM43.0701 38.5558C44.5211 37.6075 45.4839 35.9718 45.4839 34.1129C45.4839 31.1869 43.1027 28.8065 40.1774 28.8065C37.2521 28.8065 34.871 31.1869 34.871 34.1129C34.871 35.9718 35.8337 37.6075 37.2847 38.5558C34.9665 39.6466 33.3548 41.999 33.3548 44.7258V46.2419C33.3548 46.6602 33.6935 47 34.1129 47H46.2419C46.6613 47 47 46.6602 47 46.2419V44.7258C47 41.999 45.3884 39.6466 43.0701 38.5558ZM43.8911 33.3548H43.2097C41.956 33.3548 40.9355 32.3343 40.9355 31.0806V30.3992C42.4183 30.7016 43.5887 31.8721 43.8911 33.3548ZM39.4194 30.3992V31.0806C39.4194 32.3343 38.3988 33.3548 37.1452 33.3548H36.4638C36.7661 31.8721 37.9366 30.7016 39.4194 30.3992ZM36.4638 34.871H37.1452C38.3892 34.871 39.486 34.2598 40.1774 33.3315C40.8689 34.2598 41.9656 34.871 43.2097 34.871H43.8911C43.5388 36.5984 42.0082 37.9032 40.1774 37.9032C38.3466 37.9032 36.8161 36.5984 36.4638 34.871ZM45.4839 45.4839H34.871V44.7258C34.871 41.7998 37.2521 39.4194 40.1774 39.4194C43.1027 39.4194 45.4839 41.7998 45.4839 44.7258V45.4839ZM20.6073 9.74937C18.2891 10.8401 16.6774 13.1925 16.6774 15.9194V17.4355C16.6774 17.8537 17.0161 18.1935 17.4355 18.1935H29.5645C29.9839 18.1935 30.3226 17.8537 30.3226 17.4355V15.9194C30.3226 13.1925 28.7109 10.8401 26.3927 9.74937C27.8437 8.80103 28.8065 7.16532 28.8065 5.30645C28.8065 2.38042 26.4253 0 23.5 0C20.5747 0 18.1935 2.38042 18.1935 5.30645C18.1935 7.16532 19.1563 8.80103 20.6073 9.74937ZM28.8065 15.9194V16.6774H18.1935V15.9194C18.1935 12.9933 20.5747 10.6129 23.5 10.6129C26.4253 10.6129 28.8065 12.9933 28.8065 15.9194ZM19.7863 6.06452H20.4677C21.7118 6.06452 22.8086 5.45333 23.5 4.52508C24.1914 5.45333 25.2882 6.06452 26.5323 6.06452H27.2137C26.8614 7.79196 25.3308 9.09677 23.5 9.09677C21.6692 9.09677 20.1386 7.79196 19.7863 6.06452ZM27.2137 4.54839H26.5323C25.2786 4.54839 24.2581 3.52784 24.2581 2.27419V1.59279C25.7408 1.89516 26.9113 3.06561 27.2137 4.54839ZM22.7419 1.59279V2.27419C22.7419 3.52784 21.7214 4.54839 20.4677 4.54839H19.7863C20.0887 3.06561 21.2592 1.89516 22.7419 1.59279ZM18.1935 35.629C18.1936 35.7789 18.2381 35.9255 18.3214 36.0501C18.4047 36.1747 18.523 36.2719 18.6615 36.3292C18.8 36.3866 18.9524 36.4016 19.0995 36.3724C19.2465 36.3431 19.3815 36.271 19.4876 36.165L22.2977 33.3548H26.5323C26.9517 33.3548 27.2903 33.015 27.2903 32.5968V30.3226H33.3548C33.7742 30.3226 34.1129 29.9828 34.1129 29.5645V20.4677C34.1129 20.0495 33.7742 19.7097 33.3548 19.7097H19.7097C19.2903 19.7097 18.9516 20.0495 18.9516 20.4677V25.7742H14.4032C13.9838 25.7742 13.6452 26.114 13.6452 26.5323V32.5968C13.6452 33.015 13.9838 33.3548 14.4032 33.3548H18.1935V35.629ZM20.4677 21.2258H32.5968V28.8065H27.2903V27.2903H29.5645V25.7742H20.4677V21.2258ZM15.1613 31.8387V27.2903H25.7742V31.8387H21.9839C21.7821 31.8387 21.5897 31.9183 21.4479 32.0608L19.7097 33.7991V32.5968C19.7097 32.1785 19.371 31.8387 18.9516 31.8387H15.1613Z" fill="#7B6300"/>
<path d="M16.6759 28.8073H24.2566V30.3234H16.6759V28.8073ZM21.9824 22.7428H31.0792V24.2589H21.9824V22.7428ZM3.50163 27.8878C3.18829 26.4465 3.03044 24.9758 3.03078 23.5008C3.03078 14.7224 8.61155 6.93191 16.9191 4.11314L16.432 2.67737C7.50961 5.70441 1.51465 14.0728 1.51465 23.5008C1.51465 25.0873 1.68521 26.6727 2.02104 28.2106L3.50163 27.8878ZM23.4985 43.9686C20.7065 43.9686 18.0018 43.4167 15.4585 42.3288L14.8618 43.7228C17.5954 44.8917 20.501 45.4847 23.4985 45.4847C26.496 45.4847 29.4017 44.8917 32.1359 43.7228L31.5392 42.3289C28.9952 43.4166 26.2906 43.9686 23.4985 43.9686ZM43.9663 23.5008C43.9663 24.9792 43.8078 26.455 43.4954 27.8878L44.976 28.2114C45.3128 26.6638 45.4826 25.0846 45.4824 23.5008C45.4824 14.0728 39.4874 5.70441 30.5642 2.67737L30.0772 4.11314C38.3856 6.93191 43.9663 14.7224 43.9663 23.5008Z" fill="#7B6300"/>
</svg>
