<svg width="22" height="24" viewBox="0 0 22 24" fill="none" xmlns="http://www.w3.org/2000/svg">
<path opacity="0.1" d="M21.6155 22.0677L16.6145 17.0667C16.572 17.0241 16.5215 16.9904 16.4659 16.9674C16.4103 16.9443 16.3507 16.9325 16.2905 16.9325C16.2304 16.9325 16.1708 16.9443 16.1152 16.9674C16.0596 16.9904 16.0091 17.0241 15.9666 17.0667L15.8373 17.196L14.1156 15.4742C14.7186 14.728 15.1008 13.8627 15.2625 12.9653H16.2528C16.3313 12.9653 16.4066 12.9341 16.4621 12.8786C16.5177 12.8231 16.5488 12.7478 16.5488 12.6693V7.60263C16.5488 7.3273 16.772 7.10412 17.0474 7.10412C17.3227 7.10412 17.5459 7.3273 17.5459 7.60263V12.6693C17.5459 12.7478 17.5771 12.8231 17.6326 12.8786C17.6881 12.9341 17.7634 12.9653 17.8419 12.9653H19.1984C19.277 12.9653 19.3523 12.9341 19.4078 12.8786C19.4633 12.8231 19.4945 12.7478 19.4945 12.6693V4.97269C19.4945 4.89418 19.4633 4.81888 19.4078 4.76336C19.3523 4.70785 19.277 4.67666 19.1984 4.67666H14.8963C14.8178 4.67666 14.7425 4.70785 14.687 4.76336C14.6315 4.81888 14.6003 4.89418 14.6003 4.97269V9.17152C14.3568 8.7522 14.0598 8.36634 13.7168 8.02366C12.6038 6.91067 11.1377 6.3663 9.67916 6.3898V4.76353L10.488 5.5724C10.5093 5.59367 10.5346 5.61055 10.5624 5.62206C10.5901 5.63357 10.6199 5.6395 10.65 5.6395C10.6801 5.6395 10.7099 5.63357 10.7377 5.62206C10.7655 5.61055 10.7907 5.59367 10.812 5.5724L12.2213 4.16307C12.2426 4.1418 12.2595 4.11655 12.271 4.08875C12.2825 4.06096 12.2884 4.03117 12.2884 4.00109C12.2884 3.971 12.2825 3.94121 12.271 3.91342C12.2595 3.88562 12.2426 3.86037 12.2213 3.8391L9.74622 1.36399C9.70325 1.32102 9.64498 1.29688 9.58421 1.29688H8.40196C8.3114 1.29688 8.22778 1.34957 8.19265 1.43309C7.95849 1.99004 7.40753 2.38127 6.76526 2.38127C6.123 2.38127 5.57204 1.99004 5.33788 1.43309C5.30275 1.34962 5.21912 1.29688 5.12856 1.29688H3.94632C3.88555 1.29688 3.82727 1.32102 3.7843 1.36399L1.30929 3.83905C1.28802 3.86032 1.27114 3.88557 1.25963 3.91337C1.24811 3.94116 1.24219 3.97095 1.24219 4.00104C1.24219 4.03112 1.24811 4.06091 1.25963 4.0887C1.27114 4.1165 1.28802 4.14175 1.30929 4.16302L2.71861 5.57235C2.73989 5.59362 2.76514 5.6105 2.79293 5.62201C2.82073 5.63352 2.85052 5.63945 2.8806 5.63945C2.91069 5.63945 2.94048 5.63352 2.96827 5.62201C2.99607 5.6105 3.02132 5.59362 3.04259 5.57235L3.85146 4.76348V9.66535C3.85146 9.7261 3.8756 9.78437 3.91856 9.82733C3.96152 9.87029 4.01978 9.89442 4.08054 9.89442H4.58689C3.91438 11.5754 4.09196 13.5172 5.11973 15.0604H1.57219C1.49368 15.0604 1.41838 15.0916 1.36287 15.1471C1.30735 15.2026 1.27616 15.2779 1.27616 15.3564V20.062C1.27616 20.1405 1.30735 20.2158 1.36287 20.2713C1.41838 20.3268 1.49368 20.358 1.57219 20.358H2.92873C2.9676 20.358 3.0061 20.3503 3.04202 20.3355C3.07793 20.3206 3.11057 20.2988 3.13806 20.2713C3.16555 20.2438 3.18735 20.2112 3.20223 20.1753C3.21711 20.1393 3.22476 20.1008 3.22476 20.062V17.9864C3.22476 17.711 3.44795 17.4879 3.72328 17.4879C3.99861 17.4879 4.22179 17.711 4.22179 17.9864V20.062C4.22179 20.1405 4.25298 20.2158 4.3085 20.2713C4.36402 20.3268 4.43932 20.358 4.51783 20.358H5.87436C5.95288 20.358 6.02817 20.3268 6.08369 20.2713C6.13921 20.2158 6.1704 20.1405 6.1704 20.062V16.2372C8.21261 17.9639 11.202 17.9905 13.2732 16.3165L14.995 18.0383L14.8657 18.1675C14.8231 18.2101 14.7894 18.2606 14.7664 18.3162C14.7433 18.3718 14.7315 18.4314 14.7315 18.4915C14.7315 18.5517 14.7433 18.6113 14.7664 18.6669C14.7894 18.7224 14.8231 18.773 14.8657 18.8155L19.8667 23.8166C19.9093 23.8591 19.9598 23.8929 20.0153 23.9159C20.0709 23.9389 20.1305 23.9508 20.1907 23.9508C20.2509 23.9508 20.3104 23.9389 20.366 23.9159C20.4216 23.8929 20.4721 23.8591 20.5147 23.8166L21.6156 22.7157C21.6581 22.6731 21.6919 22.6226 21.7149 22.567C21.7379 22.5114 21.7498 22.4519 21.7498 22.3917C21.7498 22.3315 21.7379 22.2719 21.7149 22.2164C21.6918 22.1608 21.6581 22.1103 21.6155 22.0677Z" fill="#0000CC"/>
<path d="M14.6016 3.92494V11.6216C14.6016 11.7001 14.6328 11.7754 14.6883 11.8309C14.7438 11.8864 14.8191 11.9176 14.8976 11.9176H16.2541C16.3326 11.9176 16.4079 11.8864 16.4635 11.8309C16.519 11.7754 16.5502 11.7001 16.5502 11.6216V6.55488C16.5502 6.27955 16.7734 6.05637 17.0487 6.05637C17.324 6.05637 17.5472 6.27955 17.5472 6.55488V11.6215C17.5472 11.7 17.5784 11.7753 17.6339 11.8308C17.6894 11.8864 17.7647 11.9175 17.8432 11.9175H19.1998C19.2783 11.9175 19.3536 11.8864 19.4091 11.8308C19.4646 11.7753 19.4958 11.7 19.4958 11.6215V3.92494C19.4958 3.84643 19.4646 3.77113 19.4091 3.71561C19.3536 3.6601 19.2783 3.62891 19.1998 3.62891H14.8976C14.8588 3.6289 14.8203 3.63655 14.7843 3.65143C14.7484 3.6663 14.7158 3.68811 14.6883 3.7156C14.6608 3.74309 14.639 3.77572 14.6241 3.81164C14.6092 3.84756 14.6016 3.88606 14.6016 3.92494Z" fill="#9494FF"/>
<path d="M19.4958 4.46776V3.92494C19.4958 3.84643 19.4646 3.77113 19.409 3.71561C19.3535 3.6601 19.2782 3.62891 19.1997 3.62891H14.8976C14.8191 3.62891 14.7438 3.6601 14.6883 3.71561C14.6328 3.77113 14.6016 3.84643 14.6016 3.92494V4.46776H19.4958ZM14.6016 11.0295V11.6215C14.6016 11.7 14.6328 11.7753 14.6883 11.8308C14.7438 11.8864 14.8191 11.9175 14.8976 11.9175H16.2542C16.3327 11.9175 16.408 11.8864 16.4635 11.8308C16.519 11.7753 16.5502 11.7 16.5502 11.6215V11.0295H14.6016ZM17.5472 11.0295V11.6215C17.5472 11.7 17.5784 11.7753 17.6339 11.8308C17.6894 11.8864 17.7647 11.9175 17.8432 11.9175H19.1998C19.2783 11.9175 19.3536 11.8864 19.4091 11.8308C19.4646 11.7753 19.4958 11.7 19.4958 11.6215V11.0295H17.5472Z" fill="#D9D9FF"/>
<path d="M18.3227 4.46875C18.3289 4.71663 18.3986 4.95878 18.5253 5.17194C18.652 5.38509 18.8313 5.5621 19.0461 5.68597L19.4955 5.94528V4.46875H18.3227ZM15.7743 4.46875C15.7682 4.71663 15.6984 4.95878 15.5718 5.17194C15.4451 5.38509 15.2657 5.5621 15.0509 5.68597L14.6016 5.94528V4.46875H15.7743Z" fill="#6C6CFF"/>
<path d="M16.1139 4.56222H15.8327C15.8249 4.56222 15.8172 4.56069 15.81 4.55771C15.8028 4.55473 15.7963 4.55037 15.7908 4.54487C15.7853 4.53937 15.7809 4.53284 15.7779 4.52566C15.775 4.51847 15.7734 4.51077 15.7734 4.50299V3.62891H16.1731V4.50299C16.1731 4.51077 16.1715 4.51847 16.1686 4.52566C16.1656 4.53285 16.1613 4.53938 16.1558 4.54488C16.1503 4.55038 16.1437 4.55475 16.1365 4.55772C16.1294 4.5607 16.1217 4.56223 16.1139 4.56222ZM18.2627 4.56222H17.9815C17.9658 4.56222 17.9507 4.55598 17.9396 4.54487C17.9285 4.53376 17.9223 4.5187 17.9223 4.50299V3.62891H18.3219V4.50299C18.3219 4.53572 18.2954 4.56222 18.2627 4.56222Z" fill="#B3B3FF"/>
<path d="M1.28125 14.3078V19.0133C1.28125 19.0918 1.31244 19.1671 1.36796 19.2226C1.42347 19.2781 1.49877 19.3093 1.57729 19.3093H2.93382C2.97269 19.3093 3.01119 19.3017 3.04711 19.2868C3.08302 19.2719 3.11566 19.2501 3.14315 19.2226C3.17064 19.1951 3.19244 19.1625 3.20732 19.1266C3.2222 19.0907 3.22985 19.0522 3.22985 19.0133V16.9377C3.22985 16.6624 3.45304 16.4392 3.72837 16.4392C4.0037 16.4392 4.22688 16.6624 4.22688 16.9377V19.0133C4.22688 19.0918 4.25807 19.1671 4.31359 19.2226C4.36911 19.2781 4.44441 19.3093 4.52292 19.3093H5.87945C5.95797 19.3093 6.03326 19.2781 6.08878 19.2226C6.1443 19.1671 6.17549 19.0918 6.17549 19.0133V14.3078C6.17549 14.2292 6.1443 14.1539 6.08878 14.0984C6.03326 14.0429 5.95797 14.0117 5.87945 14.0117H1.57729C1.49878 14.0117 1.4235 14.0429 1.36799 14.0985C1.31247 14.154 1.28128 14.2292 1.28125 14.3078Z" fill="#FF9494"/>
<path d="M6.17544 14.8506V14.3078C6.17544 14.2292 6.14425 14.1539 6.08873 14.0984C6.03321 14.0429 5.95792 14.0117 5.8794 14.0117H1.57729C1.49877 14.0117 1.42347 14.0429 1.36796 14.0984C1.31244 14.1539 1.28125 14.2292 1.28125 14.3078V14.8506H6.17544ZM1.28125 18.4212V19.0132C1.28125 19.0917 1.31244 19.167 1.36796 19.2226C1.42347 19.2781 1.49877 19.3093 1.57729 19.3093H2.93382C2.97269 19.3093 3.01119 19.3016 3.04711 19.2867C3.08302 19.2719 3.11566 19.2501 3.14315 19.2226C3.17064 19.1951 3.19244 19.1624 3.20732 19.1265C3.2222 19.0906 3.22985 19.0521 3.22985 19.0132V18.4212H1.28125ZM4.22683 18.4212V19.0132C4.22683 19.0521 4.23449 19.0906 4.24937 19.1265C4.26425 19.1624 4.28605 19.1951 4.31354 19.2226C4.34103 19.2501 4.37367 19.2719 4.40958 19.2867C4.4455 19.3016 4.48399 19.3093 4.52287 19.3093H5.8794C5.95792 19.3093 6.03321 19.2781 6.08873 19.2226C6.14425 19.167 6.17544 19.0917 6.17544 19.0132V18.4212H4.22683Z" fill="#FFD9D9"/>
<path d="M5.00242 14.8516C5.00855 15.0994 5.07831 15.3416 5.20499 15.5547C5.33167 15.7679 5.51102 15.9449 5.72582 16.0688L6.17519 16.3281V14.8516H5.00242ZM2.45401 14.8516C2.44788 15.0994 2.37813 15.3416 2.25145 15.5547C2.12477 15.7679 1.94542 15.9449 1.73062 16.0688L1.28125 16.3281V14.8516H2.45401Z" fill="#FF4D4D"/>
<path d="M2.78576 14.945H2.50454C2.48883 14.945 2.47377 14.9388 2.46266 14.9277C2.45155 14.9166 2.44531 14.9015 2.44531 14.8858V14.0117H2.84493V14.8858C2.84494 14.8936 2.84341 14.9013 2.84044 14.9085C2.83747 14.9157 2.83311 14.9222 2.82762 14.9277C2.82212 14.9332 2.8156 14.9375 2.80841 14.9405C2.80123 14.9435 2.79353 14.945 2.78576 14.945ZM4.93454 14.945H4.65333C4.63762 14.945 4.62256 14.9388 4.61145 14.9277C4.60034 14.9166 4.5941 14.9015 4.5941 14.8858V14.0117H4.99372V14.8858C4.99373 14.8936 4.9922 14.9013 4.98923 14.9085C4.98626 14.9157 4.9819 14.9222 4.97641 14.9277C4.97091 14.9332 4.96438 14.9375 4.9572 14.9405C4.95002 14.9435 4.94232 14.945 4.93454 14.945Z" fill="#FF9494"/>
<path d="M12.2213 3.11615L10.812 4.52552C10.7907 4.5468 10.7654 4.56367 10.7376 4.57519C10.7098 4.5867 10.6801 4.59263 10.65 4.59263C10.6199 4.59263 10.5901 4.5867 10.5623 4.57519C10.5345 4.56367 10.5093 4.5468 10.488 4.52552L9.67911 3.71665V8.61852C9.67911 8.67928 9.65498 8.73754 9.61202 8.7805C9.56906 8.82346 9.51079 8.8476 9.45004 8.8476H4.08059C4.01983 8.8476 3.96157 8.82346 3.91861 8.7805C3.87565 8.73754 3.85151 8.67928 3.85151 8.61852V3.71665L3.04264 4.52552C3.02137 4.5468 2.99612 4.56367 2.96832 4.57519C2.94053 4.5867 2.91074 4.59263 2.88065 4.59263C2.85057 4.59263 2.82078 4.5867 2.79298 4.57519C2.76519 4.56367 2.73994 4.5468 2.71866 4.52552L1.30929 3.11615C1.28802 3.09488 1.27114 3.06962 1.25963 3.04183C1.24811 3.01403 1.24219 2.98425 1.24219 2.95416C1.24219 2.92408 1.24811 2.89429 1.25963 2.86649C1.27114 2.8387 1.28802 2.81344 1.30929 2.79217L3.7844 0.317061C3.82739 0.274124 3.88566 0.250004 3.94641 0.25H5.12866C5.21922 0.25 5.30285 0.302691 5.33798 0.386217C5.57214 0.943161 6.1231 1.3344 6.76536 1.3344C7.40763 1.3344 7.95858 0.943161 8.19275 0.386217C8.22788 0.302691 8.3115 0.25 8.40206 0.25H9.58431C9.64508 0.25 9.70331 0.27415 9.74632 0.317111L12.2214 2.79222C12.2644 2.8352 12.2885 2.89346 12.2884 2.95421C12.2884 3.01495 12.2643 3.0732 12.2213 3.11615Z" fill="#FF4D4D"/>
<path d="M12.8281 14.826L13.6705 13.9837L16.1328 16.446L15.2904 17.2883L12.8281 14.826Z" fill="black" stroke="#0000CC" stroke-miterlimit="10" stroke-linecap="round" stroke-linejoin="round"/>
<path d="M13.6705 13.9844L14.5983 14.9122C14.4749 15.0655 14.3417 15.2136 14.1995 15.3558C14.0573 15.498 13.9092 15.6312 13.756 15.7546L12.8281 14.8267L13.6705 13.9844Z" fill="#2C27FF"/>
<path d="M9.76951 16.5058C12.8524 16.5058 15.3515 14.0067 15.3515 10.9238C15.3515 7.84095 12.8524 5.3418 9.76951 5.3418C6.68665 5.3418 4.1875 7.84095 4.1875 10.9238C4.1875 14.0067 6.68665 16.5058 9.76951 16.5058Z" fill="#FF9D33"/>
<path d="M9.76603 15.2196C12.1393 15.2196 14.0633 13.2956 14.0633 10.9223C14.0633 8.54896 12.1393 6.625 9.76603 6.625C7.39271 6.625 5.46875 8.54896 5.46875 10.9223C5.46875 13.2956 7.39271 15.2196 9.76603 15.2196Z" fill="#D9D9FF"/>
<path d="M14.027 10.3572L9.20088 15.1828C8.72297 15.1204 8.25909 14.9775 7.82897 14.76L13.6037 8.98532C13.8216 9.41528 13.9647 9.87919 14.027 10.3572ZM13.3759 8.58895L7.4332 14.5317C7.17884 14.3673 6.94271 14.1763 6.72881 13.9619C6.45762 13.6907 6.2298 13.3921 6.04688 13.075L11.9188 7.20312C12.2431 7.39064 12.5415 7.61991 12.8061 7.88506C13.0203 8.09903 13.2112 8.33496 13.3759 8.58895Z" fill="#EBEBFF"/>
<path d="M11.228 6.88242V12.1916C11.228 12.229 11.2206 12.2662 11.2063 12.3008C11.1919 12.3354 11.1709 12.3669 11.1443 12.3933C11.1178 12.4198 11.0863 12.4408 11.0517 12.4551C11.017 12.4694 10.9799 12.4768 10.9424 12.4767H5.7579C5.16318 10.9383 5.48571 9.12671 6.72698 7.88544C7.94386 6.66852 9.71004 6.33406 11.228 6.88242Z" fill="#FF6C6C"/>
<path d="M21.6185 21.668L20.5176 22.7689C20.475 22.8115 20.4245 22.8452 20.3689 22.8682C20.3133 22.8913 20.2537 22.9031 20.1936 22.9031C20.1334 22.9031 20.0738 22.8913 20.0182 22.8682C19.9626 22.8452 19.9121 22.8115 19.8696 22.7689L14.8686 17.7678C14.826 17.7253 14.7923 17.6748 14.7693 17.6192C14.7462 17.5636 14.7344 17.504 14.7344 17.4439C14.7344 17.3837 14.7462 17.3241 14.7693 17.2685C14.7923 17.2129 14.826 17.1624 14.8686 17.1199L15.9695 16.019C16.012 15.9764 16.0625 15.9427 16.1181 15.9196C16.1737 15.8966 16.2333 15.8848 16.2935 15.8848C16.3536 15.8848 16.4132 15.8966 16.4688 15.9196C16.5244 15.9427 16.5749 15.9764 16.6174 16.019L21.6185 21.02C21.661 21.0626 21.6948 21.1131 21.7178 21.1687C21.7408 21.2243 21.7527 21.2838 21.7527 21.344C21.7527 21.4042 21.7408 21.4638 21.7178 21.5194C21.6948 21.5749 21.661 21.6254 21.6185 21.668Z" fill="#FF9D33"/>
<path d="M15.6406 18.5415L17.3892 16.793L18.1977 17.6014L16.449 19.35L15.6406 18.5415Z" fill="#FFC599"/>
<path d="M12.9883 7.70864C12.1295 6.84987 10.9878 6.37695 9.77327 6.37695C8.55879 6.37695 7.41702 6.84992 6.55825 7.70864C5.69948 8.56735 5.22656 9.70918 5.22656 10.9237C5.22656 12.1381 5.69953 13.2799 6.55825 14.1387C7.41697 14.9975 8.55879 15.4704 9.77327 15.4704C10.9878 15.4704 12.1295 14.9974 12.9883 14.1387C13.8471 13.28 14.32 12.1381 14.32 10.9237C14.32 9.70918 13.8471 8.5674 12.9883 7.70864ZM12.6354 13.7859C11.8709 14.5504 10.8544 14.9715 9.77322 14.9715C8.69202 14.9715 7.67553 14.5504 6.91102 13.7859C6.1465 13.0213 5.72543 12.0049 5.72543 10.9237C5.72543 9.84246 6.14645 8.82597 6.91102 8.06146C7.67558 7.29694 8.69202 6.87587 9.77322 6.87587C10.8544 6.87587 11.8709 7.29689 12.6354 8.06146C13.4 8.82597 13.821 9.84246 13.821 10.9237C13.821 12.0049 13.4 13.0213 12.6354 13.7859Z" fill="#0000CC"/>
<path d="M21.7912 20.8439L17.9897 17.0425C17.9426 16.9972 17.8797 16.9723 17.8144 16.973C17.7491 16.9736 17.6867 16.9999 17.6405 17.046C17.5943 17.0922 17.5681 17.1546 17.5674 17.2199C17.5668 17.2852 17.5917 17.3482 17.6369 17.3953L21.4384 21.1967C21.4775 21.2359 21.4994 21.289 21.4994 21.3443C21.4994 21.3996 21.4775 21.4527 21.4384 21.4919L20.3375 22.5927C20.2983 22.6318 20.2452 22.6538 20.1899 22.6538C20.1346 22.6538 20.0815 22.6318 20.0423 22.5927L15.0413 17.5918C15.0022 17.5526 14.9803 17.4995 14.9803 17.4442C14.9803 17.3888 15.0022 17.3358 15.0413 17.2966L16.1422 16.1957C16.1813 16.1566 16.2344 16.1346 16.2897 16.1346C16.3451 16.1346 16.3982 16.1566 16.4373 16.1957C16.4844 16.2409 16.5474 16.2658 16.6127 16.2652C16.678 16.2645 16.7404 16.2383 16.7866 16.1921C16.8327 16.1459 16.859 16.0835 16.8596 16.0182C16.8603 15.9529 16.8354 15.89 16.7901 15.8429C16.5301 15.5829 16.1166 15.5681 15.8389 15.7981L14.4465 14.4058C14.942 13.7411 15.2892 12.9778 15.4644 12.1674H16.252C16.5528 12.1674 16.7975 11.9227 16.7975 11.6219V6.55524C16.7975 6.41793 16.9092 6.30621 17.0466 6.30621C17.1839 6.30621 17.2956 6.41793 17.2956 6.55524V11.6219C17.2956 11.9226 17.5403 12.1674 17.8411 12.1674H19.1976C19.4984 12.1674 19.7432 11.9227 19.7432 11.6219V3.9253C19.7432 3.62453 19.4984 3.37978 19.1976 3.37978H14.8955C14.5947 3.37978 14.35 3.62448 14.35 3.9253V7.31516C14.2077 7.13459 14.0549 6.96254 13.8924 6.79988C12.7959 5.70336 11.3677 5.13584 9.92783 5.09692V4.31843L10.3108 4.70139C10.4974 4.88795 10.801 4.88795 10.9876 4.70139L12.397 3.29202C12.5836 3.1054 12.5836 2.80178 12.397 2.61522L9.92185 0.140111C9.87751 0.0955528 9.82478 0.0602276 9.7667 0.0361783C9.70863 0.0121291 9.64636 -0.000166828 9.5835 1.71006e-06H8.40125C8.2082 1.71006e-06 8.03576 0.113416 7.96197 0.289002C7.75884 0.772198 7.28881 1.0844 6.76455 1.0844C6.24029 1.0844 5.77032 0.772198 5.56714 0.289002C5.49334 0.113416 5.3209 1.71006e-06 5.12785 1.71006e-06H3.94561C3.88273 -0.000166893 3.82046 0.0121337 3.76237 0.0361917C3.70428 0.0602498 3.65155 0.0955877 3.60721 0.140161L1.13215 2.61527C0.945534 2.80188 0.945534 3.1055 1.13215 3.29207L2.54152 4.70144C2.72813 4.888 3.0317 4.888 3.21832 4.70144L3.60127 4.31848V8.61806C3.60127 8.88196 3.81597 9.09661 4.07983 9.09661H4.23191C3.7291 10.6291 3.87665 12.3303 4.67514 13.7636H1.57143C1.27066 13.7636 1.02592 14.0083 1.02592 14.3091V19.0147C1.02592 19.3155 1.27061 19.5602 1.57143 19.5602H2.92802C3.22879 19.5602 3.47354 19.3155 3.47354 19.0147V16.9391C3.47354 16.8018 3.58525 16.6901 3.72257 16.6901C3.85988 16.6901 3.9716 16.8018 3.9716 16.9391V19.0147C3.9716 19.3155 4.21629 19.5602 4.51712 19.5602H5.87365C6.17443 19.5602 6.41917 19.3155 6.41917 19.0147V16.9172C6.41917 16.851 6.39288 16.7876 6.3461 16.7408C6.29931 16.694 6.23585 16.6677 6.16969 16.6677C6.10352 16.6677 6.04006 16.694 5.99328 16.7408C5.94649 16.7876 5.92021 16.851 5.92021 16.9172V19.0147C5.92019 19.0271 5.91528 19.0389 5.90656 19.0476C5.89783 19.0564 5.88599 19.0613 5.87365 19.0613H4.51712C4.50478 19.0613 4.49294 19.0564 4.48421 19.0476C4.47549 19.0389 4.47058 19.0271 4.47057 19.0147V16.9391C4.47057 16.5267 4.13501 16.1911 3.72257 16.1911C3.31012 16.1911 2.97457 16.5267 2.97457 16.9391V19.0147C2.97456 19.0271 2.96965 19.0389 2.96092 19.0476C2.95219 19.0564 2.94036 19.0613 2.92802 19.0613H1.57143C1.55909 19.0613 1.54726 19.0564 1.53853 19.0476C1.5298 19.0389 1.52489 19.0271 1.52488 19.0147V14.3091C1.52488 14.2835 1.54574 14.2626 1.57143 14.2626H4.98759C5.18353 14.5427 5.40367 14.8052 5.64548 15.0469C6.78237 16.1837 8.27566 16.7521 9.76896 16.7521C10.9957 16.7521 12.2223 16.3682 13.2514 15.601L14.6438 16.9934C14.4138 17.2711 14.4286 17.6846 14.6885 17.9446L19.6896 22.9457C19.7552 23.0114 19.8332 23.0635 19.9191 23.099C20.005 23.1346 20.097 23.1528 20.19 23.1526C20.3712 23.1526 20.5524 23.0836 20.6904 22.9457L21.7913 21.8447C22.0671 21.5688 22.0671 21.1198 21.7912 20.8439ZM14.849 3.9253C14.849 3.89965 14.8699 3.87875 14.8956 3.87875H19.1977C19.2234 3.87875 19.2442 3.8996 19.2442 3.9253V11.6219C19.2442 11.6343 19.2393 11.6461 19.2306 11.6548C19.2219 11.6636 19.21 11.6685 19.1977 11.6685H17.8412C17.8288 11.6685 17.817 11.6636 17.8082 11.6548C17.7995 11.6461 17.7946 11.6343 17.7946 11.6219V6.55524C17.7946 6.1428 17.459 5.80724 17.0466 5.80724C16.6342 5.80724 16.2986 6.1428 16.2986 6.55524V11.6219C16.2986 11.6342 16.2937 11.646 16.285 11.6548C16.2762 11.6635 16.2644 11.6684 16.2521 11.6684H15.5499C15.707 10.4384 15.4735 9.16767 14.849 8.05917V3.9253H14.849ZM4.10023 8.59765V3.71614C4.10021 3.66681 4.08557 3.61859 4.05815 3.57758C4.03074 3.53657 3.99178 3.50461 3.94621 3.48573C3.90064 3.46685 3.85049 3.4619 3.80211 3.47151C3.75372 3.48111 3.70927 3.50484 3.67437 3.5397L2.87997 4.33415L1.49938 2.95367L3.95409 0.498966H5.11423C5.39914 1.1583 6.04495 1.58336 6.76455 1.58336C7.48416 1.58336 8.12997 1.1583 8.41487 0.498966H9.57507L12.0297 2.95367L10.6492 4.33415L9.85484 3.5397C9.81994 3.50482 9.77549 3.48107 9.7271 3.47145C9.6787 3.46183 9.62855 3.46677 9.58296 3.48565C9.53738 3.50454 9.49842 3.53651 9.47101 3.57754C9.4436 3.61856 9.42897 3.6668 9.42897 3.71614V5.1048C8.05098 5.18459 6.69604 5.74931 5.64548 6.79983C5.11238 7.33293 4.70428 7.94446 4.42117 8.5976L4.10023 8.59765ZM5.99829 14.694C3.91916 12.6149 3.91916 9.23188 5.99829 7.1527C7.03798 6.11301 8.40325 5.59334 9.76896 5.59334C11.1343 5.59334 12.5002 6.11326 13.5396 7.1527C15.6188 9.23183 15.6188 12.6149 13.5396 14.694C11.4605 16.7732 8.07748 16.7732 5.99829 14.694ZM13.8925 15.0469C13.974 14.9651 14.0531 14.881 14.1298 14.7946L15.4837 16.1486L14.9942 16.6381L13.6403 15.2842C13.7266 15.2075 13.8107 15.1284 13.8925 15.0469Z" fill="#0000CC"/>
<path d="M9.76821 11.4269H8.27267C8.20657 11.4269 8.14318 11.4006 8.09644 11.3539C8.0497 11.3072 8.02344 11.2438 8.02344 11.1777V10.6127C8.02344 10.5466 8.0497 10.4832 8.09644 10.4365C8.14318 10.3897 8.20657 10.3635 8.27267 10.3635H9.76821C9.83432 10.3635 9.89771 10.3897 9.94445 10.4365C9.99119 10.4832 10.0174 10.5466 10.0174 10.6127V11.1777C10.0174 11.2438 9.99119 11.3072 9.94445 11.3539C9.89771 11.4006 9.83432 11.4269 9.76821 11.4269Z" fill="#4D4DFF"/>
<path d="M11.2322 11.3596V12.1911C11.2322 12.2286 11.2248 12.2657 11.2105 12.3004C11.1961 12.335 11.175 12.3664 11.1485 12.3929C11.122 12.4194 11.0905 12.4404 11.0558 12.4547C11.0212 12.469 10.984 12.4763 10.9466 12.4763H10.1155L11.2322 11.3596ZM11.2322 7.89246V10.7355L9.49143 12.4762H6.64844L11.2322 7.89246Z" fill="#FF9494"/>
<path d="M10.0174 10.6125V11.1773C10.0174 11.2434 9.99115 11.3068 9.94442 11.3535C9.89769 11.4003 9.83431 11.4265 9.76821 11.4266H8.27267C8.20658 11.4265 8.1432 11.4003 8.09647 11.3535C8.04973 11.3068 8.02346 11.2434 8.02344 11.1773V11.101L8.76121 10.3633H9.76821C9.83431 10.3633 9.89769 10.3896 9.94442 10.4363C9.99115 10.483 10.0174 10.5464 10.0174 10.6125Z" fill="#6C6CFF"/>
<path d="M19.5243 15.7205C19.475 15.7205 19.4267 15.7058 19.3857 15.6784C19.3447 15.651 19.3127 15.612 19.2938 15.5665C19.2749 15.5209 19.27 15.4707 19.2796 15.4223C19.2892 15.3739 19.313 15.3295 19.3479 15.2946L19.8464 14.7961C19.8935 14.7509 19.9565 14.7259 20.0217 14.7266C20.087 14.7272 20.1495 14.7535 20.1956 14.7996C20.2418 14.8458 20.268 14.9082 20.2687 14.9735C20.2694 15.0388 20.2444 15.1018 20.1992 15.1489L19.7007 15.6474C19.6776 15.6706 19.6501 15.689 19.6198 15.7015C19.5895 15.7141 19.5571 15.7205 19.5243 15.7205ZM9.02292 19.7993C8.97358 19.7993 8.92535 19.7847 8.88432 19.7573C8.8433 19.7299 8.81132 19.6909 8.79244 19.6453C8.77355 19.5998 8.76861 19.5496 8.77823 19.5012C8.78785 19.4528 8.8116 19.4084 8.84648 19.3735L9.345 18.875C9.3921 18.8297 9.45506 18.8048 9.52035 18.8055C9.58564 18.8061 9.64807 18.8324 9.69424 18.8785C9.74041 18.9247 9.76664 18.9871 9.76731 19.0524C9.76798 19.1177 9.74303 19.1807 9.69781 19.2278L9.1993 19.7263C9.17615 19.7495 9.14866 19.7679 9.11839 19.7804C9.08812 19.7929 9.05568 19.7994 9.02292 19.7993Z" fill="#FF9D33"/>
<path d="M1.99948 7.11346C1.95014 7.11346 1.90191 7.09883 1.86088 7.07142C1.81986 7.04401 1.78788 7.00505 1.769 6.95947C1.75011 6.91389 1.74517 6.86373 1.75479 6.81533C1.76441 6.76694 1.78816 6.72249 1.82305 6.68759L2.32156 6.18908C2.34469 6.16575 2.3722 6.14721 2.40251 6.13454C2.43282 6.12187 2.46534 6.11531 2.4982 6.11523C2.53105 6.11516 2.56359 6.12158 2.59396 6.13412C2.62433 6.14666 2.65192 6.16507 2.67515 6.18831C2.69838 6.21154 2.7168 6.23913 2.72934 6.2695C2.74188 6.29986 2.74829 6.33241 2.74822 6.36526C2.74815 6.39812 2.74159 6.43063 2.72892 6.46095C2.71625 6.49126 2.69771 6.51877 2.67438 6.5419L2.17586 7.04041C2.15272 7.06361 2.12523 7.082 2.09496 7.09454C2.06469 7.10707 2.03224 7.1135 1.99948 7.11346Z" fill="#6C6CFF"/>
<path d="M1.24297 9.03072C1.2102 9.03077 1.17775 9.02433 1.14747 9.0118C1.11719 8.99926 1.08969 8.98087 1.06654 8.95768L0.74446 8.63554L0.422329 8.95768C0.375222 9.00289 0.31227 9.02784 0.246978 9.02717C0.181686 9.02651 0.119257 9.00027 0.0730862 8.9541C0.0269154 8.90793 0.000681447 8.8455 1.30892e-05 8.78021C-0.000655268 8.71492 0.0242953 8.65196 0.0695112 8.60486L0.568026 8.10634C0.591187 8.08316 0.61869 8.06477 0.648964 8.05222C0.679238 8.03967 0.711688 8.03321 0.74446 8.03321C0.777231 8.03321 0.809682 8.03967 0.839955 8.05222C0.870229 8.06477 0.897733 8.08316 0.920893 8.10634L1.41941 8.60486C1.45429 8.63975 1.47804 8.6842 1.48766 8.7326C1.49729 8.78099 1.49234 8.83115 1.47346 8.87673C1.45457 8.92231 1.4226 8.96127 1.38157 8.98868C1.34055 9.01609 1.29231 9.03072 1.24297 9.03072ZM15.6859 2.19272C15.6532 2.19276 15.6207 2.18633 15.5904 2.1738C15.5602 2.16126 15.5327 2.14287 15.5095 2.11967L15.1874 1.79754L14.8653 2.11967C14.8184 2.16612 14.7551 2.19212 14.6891 2.19197C14.6231 2.19183 14.5599 2.16556 14.5132 2.1189C14.4666 2.07225 14.4403 2.00902 14.4402 1.94304C14.44 1.87706 14.466 1.81371 14.5125 1.76686L15.011 1.26834C15.0578 1.22158 15.1212 1.19531 15.1874 1.19531C15.2536 1.19531 15.317 1.22158 15.3638 1.26834L15.8623 1.76686C15.8972 1.80175 15.921 1.8462 15.9306 1.89458C15.9402 1.94297 15.9353 1.99312 15.9164 2.03871C15.8975 2.08429 15.8655 2.12325 15.8245 2.15066C15.7835 2.17807 15.7353 2.19271 15.6859 2.19272Z" fill="#FF6C6C"/>
</svg>
