<svg width="21" height="21" viewBox="0 0 21 21" fill="none" xmlns="http://www.w3.org/2000/svg">
<path d="M10.5053 19.4814C15.4659 19.4814 19.4872 15.46 19.4872 10.4995C19.4872 5.53891 15.4659 1.51758 10.5053 1.51758C5.54477 1.51758 1.52344 5.53891 1.52344 10.4995C1.52344 15.46 5.54477 19.4814 10.5053 19.4814Z" fill="#72D8FF"/>
<path d="M16.0396 5.15428C14.9959 5.15428 14.1498 6.00039 14.1498 7.04411C14.1498 7.43174 13.8355 7.74604 13.4478 7.74604C12.762 7.74604 12.206 8.30205 12.206 8.98791V9.25792C12.206 9.94378 12.762 10.4998 13.4478 10.4998H19.4841C19.4841 8.4972 18.8284 6.6479 17.7205 5.15424L16.0396 5.15428ZM12.0783 14.3322H11.6408C11.3199 14.3322 11.0598 14.072 11.0598 13.7512V11.9917C11.0598 11.1678 10.3919 10.4999 9.56802 10.4999H7.21919C6.67926 10.4999 6.24154 10.9375 6.24154 11.4775C6.24153 11.5423 6.21578 11.6045 6.16994 11.6503C6.12411 11.6962 6.06195 11.7219 5.99713 11.7219H5.96063C5.13232 11.7219 4.4609 12.3934 4.46094 13.2217V13.2219C4.46098 14.0501 5.1324 14.7215 5.96063 14.7215H6.56991C6.9959 14.7215 7.34129 15.0668 7.34129 15.4928C7.34133 16.1867 7.90382 16.7491 8.59763 16.7491H10.5104C11.2042 16.7491 11.7667 17.3116 11.7667 18.0054V19.3927C12.3022 19.3174 12.8297 19.1936 13.3428 19.0228V15.5967C13.3428 14.8983 12.7767 14.3322 12.0783 14.3322Z" fill="#A0E557"/>
<path d="M10.8286 0.43529C10.8871 0.876939 10.8432 1.32613 10.7002 1.74805C10.5571 2.16998 10.3189 2.5533 10.0038 2.86833L8.7468 4.12533L10.7681 8.33585L9.93621 9.16777L7.23489 5.63724L4.78483 8.0873H4.7788L4.93721 9.84473L3.93208 10.8499L3.17473 8.08923L0.414062 7.33192L1.41923 6.32675L3.17666 6.48515V6.47912L5.62672 4.02907L2.09611 1.3277L2.92802 0.495788L7.13859 2.51711L8.39559 1.26011C8.71061 0.945084 9.09393 0.706821 9.51586 0.563785C9.93778 0.420749 10.387 0.376782 10.8286 0.43529Z" fill="white"/>
<path d="M19.8877 1.11293C18.3276 -0.447177 15.4218 -0.342916 12.104 1.27395C12.0346 1.28818 11.97 1.32013 11.9166 1.36669C11.6469 1.50229 11.3804 1.64436 11.1175 1.79276C11.2572 1.34073 11.3014 0.858796 11.2382 0.382032C11.2264 0.292639 11.1854 0.209641 11.1216 0.145878C11.0579 0.0821154 10.9749 0.0411427 10.8855 0.0292995C9.87064 -0.105149 8.8325 0.246763 8.10862 0.970686L7.05707 2.02224L3.10859 0.12667C3.03201 0.0898982 2.94589 0.0778193 2.86215 0.0921025C2.7784 0.106386 2.70116 0.146326 2.6411 0.206404L1.80914 1.03828C1.76781 1.07959 1.73579 1.12926 1.71522 1.18396C1.69465 1.23865 1.68601 1.29711 1.68987 1.35542C1.69374 1.41373 1.71002 1.47054 1.73763 1.52204C1.76523 1.57354 1.80353 1.61855 1.84995 1.65405L5.00855 4.0708L3.01987 6.05952L1.45907 5.91887C1.39924 5.9135 1.33896 5.92132 1.28248 5.94179C1.22601 5.96225 1.17471 5.99487 1.13222 6.03733L0.127094 7.04241C0.07635 7.09318 0.0398167 7.15637 0.0211435 7.22568C0.00247036 7.29499 0.00231114 7.36799 0.0206818 7.43737C0.0390524 7.50676 0.0753096 7.57012 0.125831 7.62111C0.176353 7.6721 0.23937 7.70893 0.308587 7.72794L1.43532 8.03704C1.21864 8.83655 1.10863 9.66305 1.10863 10.4999C1.10863 11.0534 1.15777 11.6074 1.25362 12.1486C0.747904 13.1965 0.386598 14.2175 0.184228 15.1823C-0.243891 17.2238 0.0774649 18.8506 1.11372 19.8868C1.84437 20.6175 2.89892 20.9992 4.17778 20.9992C4.28221 20.9992 4.38831 20.9966 4.49569 20.9915C5.78284 20.9302 7.28569 20.4994 8.84825 19.7462C9.3937 19.8433 9.94666 19.8921 10.5007 19.892C12.4286 19.892 14.2812 19.3121 15.8582 18.215C16.0441 18.0857 16.09 17.8301 15.9606 17.6441C15.8313 17.4582 15.5756 17.4124 15.3897 17.5417C14.4149 18.2198 13.3245 18.681 12.1754 18.9082V18.0056C12.1754 17.0866 11.4278 16.3391 10.5089 16.3391H8.59613C8.12958 16.3391 7.74994 15.9595 7.7499 15.4928C7.74982 14.8414 7.21982 14.3114 6.56837 14.3114H5.95908C5.35837 14.3114 4.86959 13.8226 4.86955 13.2217C4.86955 12.9306 4.98287 12.6571 5.18865 12.4512C5.39442 12.2454 5.66804 12.1321 5.95908 12.1321H5.99559C6.35656 12.1321 6.65015 11.8384 6.65015 11.4775C6.65015 11.1646 6.90473 10.91 7.2176 10.91H9.56647C10.1629 10.91 10.6482 11.3953 10.6482 11.9917V13.7513C10.6482 14.2978 11.0928 14.7424 11.6394 14.7424H12.0769C12.548 14.7424 12.9313 15.1257 12.9313 15.5968V16.59C12.9313 16.8165 13.1149 17.0001 13.3414 17.0001C13.5679 17.0001 13.7515 16.8165 13.7515 16.59V15.5968C13.7515 14.6734 13.0002 13.9221 12.0768 13.9221H11.6393C11.594 13.9221 11.5506 13.9041 11.5185 13.872C11.4865 13.84 11.4685 13.7966 11.4684 13.7513V11.9917C11.4684 10.9429 10.6152 10.0898 9.56647 10.0898H7.2176C6.50725 10.0898 5.91983 10.6263 5.83932 11.3154C5.37424 11.344 4.941 11.5389 4.60865 11.8712C4.24792 12.2319 4.04928 12.7116 4.04932 13.2219C4.04936 14.2749 4.90613 15.1316 5.95908 15.1316H6.56837C6.76754 15.1316 6.92967 15.2937 6.92967 15.4928C6.92971 16.4117 7.6773 17.1593 8.59617 17.1593H10.5089C10.9756 17.1593 11.3552 17.5389 11.3552 18.0055V19.0151C11.3552 19.0199 11.3558 19.0246 11.3559 19.0294C11.0717 19.0575 10.7863 19.0716 10.5007 19.0717C6.44077 19.0717 2.94133 16.2225 2.11228 12.2713C2.45702 11.5841 2.86496 10.8852 3.3286 10.1899L3.53958 10.959C3.55855 11.0283 3.59538 11.0913 3.64637 11.1419C3.69735 11.1924 3.76072 11.2287 3.83013 11.2471C3.89954 11.2655 3.97256 11.2653 4.04188 11.2466C4.1112 11.2279 4.1744 11.1913 4.22515 11.1405L5.23032 10.1354C5.27279 10.0929 5.30542 10.0416 5.3259 9.98513C5.34637 9.92865 5.35419 9.86837 5.34881 9.80853L5.20813 8.24777L7.19685 6.25906L9.61356 9.4177C9.64906 9.46411 9.69408 9.5024 9.74558 9.53C9.79708 9.5576 9.85389 9.57387 9.9122 9.57773C9.9705 9.58159 10.029 9.57295 10.0837 9.55238C10.1383 9.53181 10.188 9.49979 10.2293 9.45847L11.0612 8.62655C11.1213 8.56648 11.1613 8.48924 11.1755 8.40549C11.1898 8.32175 11.1777 8.23564 11.1409 8.15906L9.24541 4.2105L9.99935 3.45655C10.7679 2.93151 11.5287 2.48207 12.2679 2.11071C14.0861 2.49129 15.6713 3.43777 16.8532 4.74423H16.0382C14.77 4.74423 13.7382 5.77602 13.7382 7.04422C13.7382 7.12159 13.7074 7.19576 13.6527 7.25047C13.598 7.30518 13.5238 7.33595 13.4464 7.33604C12.5355 7.33604 11.7944 8.07715 11.7944 8.98806V9.25807C11.7944 10.169 12.5355 10.9101 13.4464 10.9101H16.6546C16.881 10.9101 17.0647 10.7265 17.0647 10.5C17.0647 10.2735 16.881 10.0899 16.6546 10.0899H13.4464C12.9878 10.0899 12.6147 9.71674 12.6147 9.25811V8.9881C12.6147 8.52947 12.9878 8.15635 13.4464 8.15635C14.0596 8.15635 14.5585 7.65748 14.5585 7.04426C14.5585 6.22834 15.2223 5.56454 16.0382 5.56454H17.2261C17.312 5.56454 17.3918 5.53796 17.4577 5.49276C18.4786 6.91182 19.0725 8.64784 19.0725 10.5C19.0725 11.9182 18.719 13.3232 18.0504 14.563C17.9429 14.7623 18.0173 15.0111 18.2167 15.1186C18.2764 15.1509 18.3431 15.1678 18.411 15.1679C18.4851 15.1679 18.5578 15.1479 18.6214 15.11C18.6851 15.072 18.7372 15.0175 18.7724 14.9523C19.5054 13.5933 19.8928 12.0537 19.8928 10.5C19.8928 9.93794 19.8428 9.38562 19.7469 8.84779C20.5008 7.28395 20.9317 5.77987 20.9925 4.49199C21.0595 3.07113 20.6775 1.90268 19.8877 1.11293ZM7.56033 19.4203C4.97159 20.4631 2.82251 20.4356 1.6938 19.3068C0.644053 18.2571 0.730103 16.5761 0.987106 15.3507C1.11388 14.7464 1.314 14.1067 1.57982 13.4466C2.5183 16.2975 4.76607 18.4989 7.56033 19.4203ZM1.93711 10.8668C1.93194 10.7445 1.92898 10.6222 1.92898 10.4998C1.92898 9.73651 2.02914 8.98281 2.22643 8.25401L2.84404 8.42344L3.04506 9.1561C2.63765 9.72765 2.26769 10.2993 1.93711 10.8668ZM8.3801 4.30344L10.2756 8.252L9.98036 8.54727L7.56369 5.38863C7.52819 5.34222 7.48317 5.30393 7.43167 5.27633C7.38017 5.24873 7.32336 5.23245 7.26505 5.22859C7.20675 5.22473 7.14829 5.23338 7.0936 5.25394C7.0389 5.27451 6.98924 5.30653 6.94792 5.34786L4.53667 7.75912C4.48047 7.80102 4.43596 7.85663 4.40737 7.92064C4.37879 7.98465 4.36708 8.05491 4.37338 8.12473L4.51452 9.69103L4.14394 10.0616L3.57334 7.98121C3.5545 7.91258 3.51814 7.85003 3.46781 7.79971C3.41749 7.74939 3.35494 7.71302 3.28631 7.69419L1.20596 7.12358L1.57654 6.75297L3.14284 6.8941C3.19958 6.89926 3.25677 6.89253 3.31076 6.87432C3.36475 6.85611 3.41434 6.82683 3.45636 6.78836C3.4755 6.7709 3.49292 6.75166 3.50841 6.7309L5.91975 4.31956C5.96108 4.27825 5.9931 4.22858 6.01367 4.17388C6.03424 4.11919 6.04288 4.06073 6.03901 4.00242C6.03515 3.94411 6.01887 3.8873 5.99126 3.8358C5.96365 3.7843 5.92536 3.73929 5.87894 3.70379L2.72034 1.28708L3.01561 0.991809L6.96417 2.88734C7.04075 2.92411 7.12686 2.93619 7.21061 2.92191C7.29435 2.90762 7.3716 2.86768 7.43166 2.8076L8.68866 1.5506C9.15452 1.08471 9.79333 0.823605 10.4463 0.821185C10.4438 1.47411 10.1827 2.11293 9.71684 2.57882L9.44158 2.85408L9.44138 2.85432L8.4598 3.8359C8.39973 3.89598 8.35979 3.97323 8.34552 4.05698C8.33124 4.14074 8.34333 4.22685 8.3801 4.30344ZM19.4209 7.55994C18.4989 4.76499 16.2958 2.5159 13.4438 1.578C15.9925 0.553108 18.1644 0.549663 19.3076 1.69297C20.4363 2.82159 20.4638 4.97109 19.4209 7.55994Z" fill="black"/>
<path d="M17.5045 16.1423C17.3334 15.9892 17.0776 16.005 16.9219 16.1781L16.9199 16.1805C16.7656 16.3549 16.7791 16.6108 16.9507 16.7633C17.0294 16.8332 17.1257 16.8675 17.2218 16.8675C17.3356 16.8675 17.4492 16.8194 17.5332 16.7252C17.6881 16.5515 17.6756 16.2954 17.5045 16.1423Z" fill="black"/>
</svg>
