<svg width="20" height="21" viewBox="0 0 20 21" fill="none" xmlns="http://www.w3.org/2000/svg">
<path fill-rule="evenodd" clip-rule="evenodd" d="M11.1959 17.4198C11.0393 18.8682 9.78659 20.0426 8.25988 20.0426C6.65488 20.0426 5.3239 18.7116 5.3239 17.1066C5.3239 14.5621 8.41646 13.192 10.2563 14.9535V8.45526C10.2563 8.25953 10.4129 8.06379 10.5695 8.02465L18.5945 5.04953C18.9077 4.93209 19.2209 5.12782 19.2209 5.48013V13.5834C19.2209 13.7009 19.26 13.7792 19.26 13.8966C19.26 15.5016 17.929 16.8326 16.324 16.8326C14.6799 16.8326 13.388 15.5016 13.388 13.8966C13.388 11.3521 16.4023 10.0211 18.2813 11.7435V6.14562L11.235 8.76843V16.5977C11.235 16.8717 11.235 17.1066 11.1959 17.4198ZM0 10.0603C0 7.4766 3.09256 6.14562 4.97159 7.90721V1.36977C4.97159 1.17404 5.08902 1.01745 5.28476 0.939159L7.71183 0.0387933C8.29902 -0.196085 8.65134 0.704281 8.06415 0.900013L5.9111 1.72209C5.9111 2.85733 6.02854 9.62965 5.87195 10.1385C5.8328 11.7044 4.54098 12.9962 2.93598 12.9962C1.33098 12.9962 0 11.6653 0 10.0603ZM2.93598 8.02465C1.83988 8.02465 0.939512 8.92501 0.939512 10.0603C0.939512 11.1564 1.83988 12.0567 2.93598 12.0567C4.07122 12.0567 4.97159 11.1564 4.97159 10.0603C4.97159 8.92501 4.07122 8.02465 2.93598 8.02465ZM8.25988 15.1101C7.16378 15.1101 6.26341 16.0105 6.26341 17.1066C6.26341 18.2027 7.16378 19.1031 8.25988 19.1031C9.39512 19.1031 10.2563 18.2027 10.2563 17.1066C10.2563 16.0105 9.39512 15.1101 8.25988 15.1101ZM18.3205 14.0532C18.2422 13.8966 18.2813 13.7009 18.2813 13.5443C18.1248 12.6048 17.3027 11.9001 16.324 11.9001C15.1888 11.9001 14.2884 12.8005 14.2884 13.8966C14.2884 14.9927 15.1888 15.8931 16.324 15.8931C17.381 15.8931 18.2422 15.071 18.3205 14.0532Z" fill="black"/>
<path fill-rule="evenodd" clip-rule="evenodd" d="M2.93396 12.0555C4.06921 12.0555 4.96957 11.1551 4.96957 10.059C4.96957 8.9238 4.06921 8.02344 2.93396 8.02344C1.83787 8.02344 0.9375 8.9238 0.9375 10.059C0.9375 11.1551 1.83787 12.0555 2.93396 12.0555Z" fill="#CF2431"/>
<path fill-rule="evenodd" clip-rule="evenodd" d="M8.26209 15.1104C7.16599 15.1104 6.26562 16.0108 6.26562 17.1069C6.26562 18.203 7.16599 19.1033 8.26209 19.1033C9.39733 19.1033 10.2586 18.203 10.2586 17.1069C10.2586 16.0108 9.39733 15.1104 8.26209 15.1104ZM16.3262 11.9004C15.191 11.9004 14.2906 12.8008 14.2906 13.8969C14.2906 14.993 15.191 15.8933 16.3262 15.8933C17.3832 15.8933 18.2444 15.0712 18.3227 14.0534C18.2444 13.8969 18.2836 13.7011 18.2836 13.5445C18.127 12.605 17.3049 11.9004 16.3262 11.9004Z" fill="#48E1FF"/>
</svg>
