<svg width="22" height="18" viewBox="0 0 22 18" fill="none" xmlns="http://www.w3.org/2000/svg">
<path d="M15.8086 8.24969L21.2622 5.59308C21.3444 5.55359 21.4179 5.49813 21.4785 5.42995C21.539 5.36177 21.5854 5.28222 21.6149 5.19594C21.6444 5.10966 21.6565 5.01837 21.6504 4.92739C21.6443 4.8364 21.6201 4.74754 21.5793 4.66598L21.4989 4.50503C21.4196 4.34646 21.2821 4.22465 21.1151 4.16504C20.9482 4.10542 20.7647 4.11261 20.6029 4.18509L15.25 6.61694L15.8086 8.24969Z" fill="#D38F29"/>
<path d="M15.6406 8.24993C16.1152 8.24993 16.4999 7.86519 16.4999 7.39059C16.4999 6.91599 16.1152 6.53125 15.6406 6.53125C15.166 6.53125 14.7812 6.91599 14.7812 7.39059C14.7812 7.86519 15.166 8.24993 15.6406 8.24993Z" fill="#AA6B17"/>
<path d="M14.6599 8.57812C15.7825 11.8056 13.4946 15.5342 9.55025 16.9063C5.60589 18.2783 1.4976 16.7742 0.375 13.5469L14.6599 8.57812Z" fill="#CCCCCC"/>
<path d="M3.7811 10.3999C4.40842 10.0835 5.1016 9.77426 5.84352 9.48385C6.1672 9.35712 6.49976 9.23431 6.84121 9.11541C10.7859 7.74334 14.287 7.5032 14.6612 8.57901C15.0354 9.65481 12.141 11.6392 8.1963 13.0113C4.25163 14.3834 0.75051 14.6235 0.376311 13.5478C0.249859 13.1842 0.496619 12.7169 1.03121 12.2046" fill="#A0A09D"/>
<path d="M7.05885 13.3806C5.64523 13.8047 4.32787 14.0719 3.24123 14.1738C1.20245 13.8111 0.668798 11.2662 0.664072 10.5005C0.663658 10.4307 0.67706 10.3615 0.703506 10.2969C0.729951 10.2323 0.768918 10.1736 0.818162 10.1241C0.867405 10.0746 0.925952 10.0353 0.99043 10.0086C1.05491 9.98183 1.12404 9.96809 1.19385 9.96817C1.33423 9.96811 1.46884 9.91232 1.5681 9.81306C1.66736 9.7138 1.72315 9.57919 1.72321 9.43881V7.00774C1.72321 6.7902 1.80963 6.58157 1.96345 6.42774C2.11728 6.27392 2.32591 6.1875 2.54345 6.1875C2.76099 6.1875 2.96962 6.27392 3.12344 6.42774C3.27727 6.58157 3.36369 6.7902 3.36369 7.00774C3.36369 7.02149 3.36369 7.03524 3.36283 7.04899C3.27475 8.84673 3.32931 12.8311 7.05111 13.3626L7.05885 13.3806Z" fill="#F9EE64"/>
<path d="M3.09372 4.12482C3.4734 4.12482 3.78119 3.81703 3.78119 3.43735C3.78119 3.05767 3.4734 2.74988 3.09372 2.74988C2.71404 2.74988 2.40625 3.05767 2.40625 3.43735C2.40625 3.81703 2.71404 4.12482 3.09372 4.12482Z" fill="#AA6F21"/>
<path d="M5.49997 1.71869C5.87965 1.71869 6.18744 1.4109 6.18744 1.03122C6.18744 0.651542 5.87965 0.34375 5.49997 0.34375C5.12029 0.34375 4.8125 0.651542 4.8125 1.03122C4.8125 1.4109 5.12029 1.71869 5.49997 1.71869Z" fill="#79C143"/>
<path d="M13.358 9.70489C13.3137 10.0817 13.2278 10.4899 13.0615 10.6562L13.0649 10.6725C12.4239 11.1138 11.6187 11.5667 10.6953 11.9993C10.896 11.8313 11.7901 11.0102 11.9903 9.53603C12.0123 9.37069 12.0934 9.2189 12.2187 9.10884C12.344 8.99877 12.505 8.9379 12.6718 8.9375H12.6752C12.7723 8.93751 12.8682 8.95805 12.9567 8.99778C13.0452 9.03751 13.1243 9.09552 13.1888 9.16801C13.2533 9.24049 13.3017 9.32581 13.3308 9.41834C13.36 9.51087 13.3693 9.60853 13.358 9.70489Z" fill="#F9EE64"/>
<path opacity="0.3" d="M1.7154 11.0002C2.90279 10.162 2.61414 7.25178 2.46444 6.19148C2.26002 6.2093 2.06969 6.30309 1.93103 6.45435C1.79236 6.60561 1.71543 6.80334 1.7154 7.00854V9.43961C1.71534 9.57999 1.65955 9.7146 1.56029 9.81386C1.46103 9.91312 1.32642 9.96891 1.18604 9.96897C1.11623 9.96889 1.0471 9.98263 0.982618 10.0094C0.91814 10.0361 0.859593 10.0754 0.810349 10.1249C0.761106 10.1744 0.722139 10.2331 0.695693 10.2977C0.669247 10.3623 0.655846 10.4315 0.656259 10.5013C0.658494 10.8639 0.779489 11.6255 1.12262 12.3653C1.06127 11.8791 1.18209 11.3767 1.7154 11.0002ZM3.49999 2.88685C3.42581 2.83133 3.34116 2.7914 3.25114 2.76945C3.16113 2.7475 3.0676 2.74399 2.97619 2.75914C2.88478 2.77428 2.79738 2.80776 2.71925 2.85757C2.64112 2.90737 2.57388 2.97247 2.52157 3.04894C2.46925 3.12542 2.43295 3.21168 2.41485 3.30255C2.39675 3.39342 2.39723 3.48701 2.41624 3.5777C2.43526 3.66838 2.47243 3.75427 2.52551 3.83022C2.57859 3.90616 2.64649 3.97057 2.72512 4.01959C2.6449 3.37938 3.11853 3.04793 3.49999 2.88685ZM5.90614 0.480697C5.83196 0.42518 5.74731 0.385246 5.65729 0.363298C5.56728 0.34135 5.47375 0.337842 5.38234 0.352986C5.29093 0.36813 5.20353 0.401612 5.1254 0.451417C5.04728 0.501222 4.98003 0.56632 4.92772 0.642793C4.8754 0.719267 4.83911 0.805534 4.82101 0.896403C4.80291 0.987272 4.80338 1.08086 4.82239 1.17155C4.84141 1.26223 4.87858 1.34812 4.93166 1.42406C4.98474 1.50001 5.05264 1.56442 5.13127 1.61344C5.05105 0.973228 5.52468 0.64178 5.90614 0.480697ZM11.3839 11.1905C12.5362 10.7372 12.9483 9.61939 13.0838 9.07444C12.9652 8.98542 12.8207 8.93745 12.6724 8.93776H12.669C12.5022 8.93815 12.3412 8.99903 12.2159 9.1091C12.0906 9.21916 12.0094 9.37095 11.9875 9.53629C11.9091 10.1251 11.7031 10.6896 11.3839 11.1905Z" fill="white"/>
<path d="M21.5341 4.57296L21.5002 4.50503C21.4209 4.34646 21.2834 4.22465 21.1165 4.16504C20.9495 4.10542 20.766 4.11261 20.6042 4.18509L15.5625 6.47562C18.6183 6.19771 20.6702 5.11829 21.5341 4.57296Z" fill="#EFB66A"/>
<path opacity="0.3" d="M5.07022 13.8872C2.5478 14.4142 0.645434 14.3239 0.375 13.5469C1.49764 16.7743 5.60541 18.2783 9.55021 16.9062C10.4117 16.6086 11.2232 16.1825 11.9574 15.6423C7.40186 16.4035 5.65534 14.7507 5.07022 13.8872Z" fill="white"/>
<path d="M3.78842 17.2747C4.68873 17.5999 5.63924 17.7643 6.59649 17.7602C7.64178 17.7566 8.67908 17.578 9.66536 17.2317C11.6479 16.5422 13.294 15.2589 14.3005 13.6185C15.3206 11.956 15.5643 10.1261 14.9869 8.46596C14.9757 8.43434 14.9628 8.40336 14.9482 8.37315C15.0931 8.47573 15.259 8.54484 15.4339 8.5755C15.6087 8.60616 15.7882 8.5976 15.9594 8.55043L21.4154 5.90298C21.5387 5.84374 21.649 5.76056 21.7398 5.65829C21.8306 5.55602 21.9002 5.4367 21.9445 5.30729C21.9888 5.17787 22.0068 5.04093 21.9977 4.90446C21.9885 4.76798 21.9523 4.63469 21.8911 4.51235L21.8106 4.35135C21.6918 4.11281 21.4852 3.92963 21.2341 3.84031C20.9831 3.751 20.7072 3.76252 20.4644 3.87244L15.3264 6.21844C15.0704 6.28948 14.8448 6.44262 14.6843 6.65434C14.5238 6.86606 14.4372 7.12464 14.438 7.39032C14.4379 7.52672 14.4612 7.66212 14.5067 7.79069L14.4056 7.8581C13.0568 7.18352 9.78567 7.72735 6.72934 8.79049C6.54977 8.85293 6.37074 8.9173 6.19225 8.98358C5.85449 7.73225 6.72857 6.82148 6.77613 6.77323L6.28914 6.28805C5.95606 6.64825 5.70691 7.07777 5.55961 7.54573C5.38568 8.09388 5.38087 8.6817 5.54581 9.23262C4.99584 9.45222 4.46734 9.68437 3.96725 9.92563C3.6899 8.89606 3.66528 7.83374 3.70305 7.06609C3.71046 6.91115 3.68683 6.75629 3.63355 6.61061C3.58027 6.46493 3.49842 6.33137 3.3928 6.21777C3.28718 6.10417 3.15992 6.01282 3.0185 5.94909C2.87708 5.88535 2.72435 5.85053 2.56928 5.84665C2.41421 5.84277 2.25993 5.86993 2.1155 5.92651C1.97108 5.98309 1.83941 6.06797 1.72825 6.17615C1.61708 6.28434 1.52866 6.41364 1.46817 6.55648C1.40767 6.69931 1.37634 6.8528 1.376 7.00792V9.43899C1.37589 9.48822 1.35628 9.53541 1.32144 9.5702C1.28661 9.60499 1.2394 9.62456 1.19016 9.6246C1.07505 9.62456 0.961064 9.64729 0.854766 9.69147C0.748468 9.73565 0.651957 9.80042 0.570787 9.88204C0.489617 9.96367 0.425391 10.0605 0.381804 10.1671C0.338218 10.2736 0.316132 10.3877 0.316817 10.5028C0.332056 11.0606 0.431443 11.6128 0.611614 12.1408C0.0856548 12.7039 -0.102455 13.2143 0.0526132 13.6603C0.630132 15.3204 1.95687 16.6041 3.78842 17.2747ZM9.43952 16.5822C7.60647 17.2198 5.68352 17.2365 4.02478 16.6292C2.79919 16.1804 1.82917 15.4301 1.20615 14.4664C1.56557 14.5368 1.93131 14.5697 2.29751 14.5646C2.50808 14.5646 2.73294 14.5565 2.97209 14.5401C4.15725 14.4588 5.58358 14.176 7.08047 13.7316C7.11054 13.7364 7.93018 13.4679 8.31044 13.3357C9.17779 13.0355 10.029 12.6906 10.8607 12.3023L10.8782 12.2942C11.7775 11.871 12.5822 11.4209 13.2439 10.9672C13.8359 10.5613 14.2819 10.1772 14.5817 9.8149C14.8403 12.5599 12.7434 15.4331 9.43952 16.5822ZM13.0181 9.66452C12.9457 10.2807 12.825 10.4076 12.82 10.4127L12.8266 10.4194C12.542 10.6131 12.2299 10.8064 11.8942 10.9971C12.1185 10.5532 12.2667 10.0747 12.3326 9.58164C12.3439 9.49839 12.385 9.42206 12.4483 9.36677C12.5115 9.31148 12.5927 9.28096 12.6767 9.28087C12.7252 9.28085 12.7732 9.29111 12.8175 9.31097C12.8618 9.33083 12.9013 9.35984 12.9336 9.39609C12.9658 9.43234 12.9901 9.47501 13.0046 9.52129C13.0192 9.56757 13.0238 9.61641 13.0182 9.66461L13.0181 9.66452ZM20.7477 4.49864C20.8286 4.46219 20.9204 4.45849 21.004 4.48831C21.0875 4.51813 21.1562 4.57915 21.1957 4.65857L21.2762 4.81956C21.2967 4.86048 21.3088 4.90507 21.3118 4.95073C21.3148 4.99638 21.3087 5.04217 21.2937 5.08541C21.2788 5.12866 21.2554 5.1685 21.2249 5.20258C21.1944 5.23666 21.1574 5.26431 21.116 5.28391L16.8435 7.36519C16.84 7.19522 16.8005 7.02794 16.7275 6.8744C16.6545 6.72086 16.5498 6.58458 16.4202 6.47457L20.7477 4.49864ZM15.641 6.87472C15.7486 6.87459 15.8535 6.90814 15.941 6.97067C16.0285 7.03319 16.0943 7.12155 16.129 7.22335C16.1638 7.32514 16.1658 7.43526 16.1348 7.53825C16.1038 7.64124 16.0413 7.73194 15.9561 7.79761L15.767 7.88977C15.7059 7.9059 15.6422 7.91002 15.5795 7.90189L15.66 7.84822C15.698 7.8234 15.7308 7.79128 15.7563 7.75372C15.7819 7.71617 15.7997 7.67392 15.8089 7.62942C15.818 7.58492 15.8182 7.53905 15.8095 7.49447C15.8008 7.44988 15.7833 7.40747 15.7581 7.36967C15.7329 7.33188 15.7005 7.29945 15.6627 7.27427C15.6249 7.24908 15.5825 7.23164 15.5379 7.22296C15.4933 7.21427 15.4474 7.2145 15.4029 7.22365C15.3584 7.2328 15.3162 7.25067 15.2787 7.27624L15.1262 7.37786C15.1295 7.24344 15.1852 7.11564 15.2814 7.02166C15.3775 6.92768 15.5066 6.87496 15.641 6.87472ZM6.26796 10.5322L6.79611 10.092C6.67129 9.94335 6.55918 9.78442 6.46097 9.61696C6.62512 9.55636 6.78984 9.4973 6.95509 9.43976C8.83489 8.78593 10.6674 8.37113 12.1146 8.27187C12.7881 8.22573 13.3557 8.25263 13.756 8.34977C14.0817 8.42875 14.2882 8.55017 14.3374 8.69166C14.3866 8.83315 14.3 9.05645 14.0937 9.32053C13.9742 9.4696 13.8431 9.60887 13.7014 9.73701C13.7304 9.46702 13.652 9.19646 13.483 8.98392C13.314 8.77137 13.068 8.63394 12.7985 8.60138C12.5289 8.56881 12.2573 8.64374 12.0426 8.80993C11.8278 8.97612 11.6872 9.22021 11.6511 9.48934C11.4765 10.7745 10.7167 11.5235 10.5048 11.71C9.71481 12.0757 8.90694 12.4016 8.08426 12.6863C7.73359 12.8083 7.38533 12.9218 7.03947 13.0267C5.68142 12.7646 4.72119 11.944 4.1835 10.5841C4.69618 10.3341 5.24221 10.0936 5.81122 9.86659C5.94133 10.1028 6.09431 10.3258 6.26796 10.5322ZM1.05804 10.367C1.07531 10.3495 1.09588 10.3357 1.11857 10.3262C1.14126 10.3168 1.1656 10.312 1.19016 10.3121C1.4217 10.3118 1.64367 10.2197 1.80739 10.056C1.97111 9.89228 2.06321 9.67031 2.06347 9.43877V7.00792C2.06355 6.88145 2.11382 6.76019 2.20325 6.67076C2.29267 6.58133 2.41394 6.53106 2.5404 6.53098C2.60506 6.53101 2.66903 6.54419 2.72844 6.56972C2.78784 6.59524 2.84144 6.63258 2.88596 6.67945C2.93049 6.72633 2.96502 6.78178 2.98746 6.84241C3.00989 6.90305 3.01977 6.96762 3.01648 7.03219C2.96732 8.03087 3.01841 9.50009 3.54097 10.828C3.84196 11.5928 4.26767 12.2222 4.80622 12.6985C5.11292 12.9689 5.4581 13.1923 5.83047 13.3614C5.04432 13.5648 4.24507 13.7137 3.43841 13.8071L3.15126 13.7541C2.38353 13.6262 1.80047 13.1411 1.41823 12.3125C1.16305 11.7407 1.02245 11.1244 1.00437 10.4986C1.00414 10.4742 1.00876 10.45 1.01797 10.4274C1.02719 10.4048 1.04081 10.3843 1.05804 10.367ZM0.701973 13.4344C0.654409 13.2978 0.733124 13.0893 0.916464 12.8446C1.11938 13.2301 1.39668 13.5716 1.73232 13.8493C1.58119 13.8352 1.43121 13.8108 1.2834 13.7762C0.957842 13.6973 0.751428 13.576 0.702102 13.4346V13.4344L0.701973 13.4344ZM3.09468 2.40615C2.89072 2.40615 2.69135 2.46663 2.52177 2.57994C2.35219 2.69325 2.22001 2.8543 2.14196 3.04273C2.06391 3.23116 2.04349 3.4385 2.08328 3.63854C2.12307 3.83857 2.22128 4.02232 2.3655 4.16653C2.50972 4.31075 2.69346 4.40896 2.8935 4.44875C3.09353 4.48854 3.30087 4.46812 3.4893 4.39007C3.67773 4.31202 3.83878 4.17985 3.95209 4.01027C4.0654 3.84069 4.12588 3.64131 4.12588 3.43736C4.12558 3.16396 4.01683 2.90185 3.82351 2.70852C3.63019 2.5152 3.36807 2.40646 3.09468 2.40615ZM3.09468 3.78109C3.02669 3.78109 2.96023 3.76094 2.90371 3.72316C2.84718 3.68539 2.80312 3.63171 2.77711 3.5689C2.75109 3.50609 2.74428 3.43698 2.75754 3.3703C2.77081 3.30362 2.80355 3.24237 2.85162 3.1943C2.89969 3.14623 2.96094 3.11349 3.02762 3.10023C3.09429 3.08696 3.16341 3.09377 3.22622 3.11979C3.28903 3.1458 3.34271 3.18986 3.38048 3.24639C3.41825 3.30292 3.43841 3.36937 3.43841 3.43736C3.43831 3.52849 3.40206 3.61586 3.33762 3.6803C3.27318 3.74474 3.18581 3.78099 3.09468 3.78109ZM6.53203 1.03121C6.53203 0.827254 6.47156 0.627881 6.35824 0.4583C6.24493 0.288718 6.08388 0.156546 5.89545 0.0784965C5.70702 0.000446808 5.49968 -0.0199745 5.29965 0.0198148C5.09961 0.0596042 4.91587 0.157817 4.77165 0.302034C4.62744 0.446251 4.52922 0.629995 4.48943 0.830029C4.44964 1.03006 4.47007 1.23741 4.54812 1.42583C4.62616 1.61426 4.75834 1.77531 4.92792 1.88863C5.0975 2.00194 5.29687 2.06242 5.50083 2.06242C5.77423 2.06211 6.03634 1.95336 6.22966 1.76004C6.42298 1.56672 6.53173 1.30461 6.53203 1.03121ZM5.15709 1.03121C5.15709 0.963223 5.17725 0.896765 5.21502 0.840238C5.25279 0.783711 5.30648 0.739654 5.36928 0.713637C5.43209 0.687621 5.50121 0.680814 5.56789 0.694077C5.63457 0.70734 5.69581 0.740078 5.74389 0.78815C5.79196 0.836222 5.82469 0.89747 5.83796 0.964148C5.85122 1.03083 5.84441 1.09994 5.8184 1.16275C5.79238 1.22556 5.74832 1.27924 5.6918 1.31701C5.63527 1.35478 5.56881 1.37494 5.50083 1.37494C5.40969 1.37484 5.32232 1.33859 5.25788 1.27415C5.19344 1.20971 5.15719 1.12234 5.15709 1.03121Z" fill="black"/>
<path d="M4.46859 4.81328H5.15607V5.50075H4.46859V4.81328ZM4.12486 7.9069H4.81233V8.59437H4.12486V7.9069ZM6.18727 11.0005H6.87475V11.688H6.18727V11.0005ZM0.6875 4.46954H1.37497V5.15701H0.6875V4.46954ZM3.59048 13.6927L3.97181 13.1207C3.13172 12.5606 3.09464 12.0446 3.09365 12.0229C3.09395 12.0287 3.09365 12.0317 3.09365 12.0317H2.40618C2.40618 12.1209 2.43939 12.9254 3.59048 13.6927ZM6.98169 3.2531C7.12368 3.0383 7.28436 2.83644 7.46185 2.64989L6.97542 2.16406C6.92923 2.21029 5.84354 3.30943 5.84354 4.46954H6.53101C6.53101 4.11902 6.68685 3.69837 6.98169 3.2531Z" fill="black"/>
</svg>
