<svg width="29" height="27" viewBox="0 0 29 27" fill="none" xmlns="http://www.w3.org/2000/svg">
<g filter="url(#filter0_d_1_342)">
<path d="M21.1917 5.52315V0.913078C21.1917 0.573838 20.9167 0.298828 20.5774 0.298828H4.91113C4.57188 0.298828 4.29688 0.573838 4.29688 0.913078V16.2157C4.29688 17.1791 5.07785 17.9601 6.04127 17.9601H22.9454C23.914 17.9601 24.6992 17.1749 24.6992 16.2063V6.1374C24.6992 5.79816 24.4241 5.52315 24.0849 5.52315H21.1917Z" fill="#E1EFFB"/>
<path d="M24.0854 5.52315H21.1921V0.913078C21.1921 0.573838 20.9171 0.298828 20.5779 0.298828H19.3466V16.291C19.3466 16.84 18.9015 17.2851 18.3525 17.2851H4.66406C4.98321 17.6956 5.48146 17.9601 6.04174 17.9601H22.9459C23.9145 17.9601 24.6996 17.175 24.6996 16.2064V6.1374C24.6996 5.79816 24.4247 5.52315 24.0854 5.52315Z" fill="#CCDFED"/>
<path d="M12.8443 7.48051H7.00109C6.72436 7.48051 6.5 7.25616 6.5 6.97942V3.08507C6.5 2.80834 6.72436 2.58398 7.00109 2.58398H12.8443C13.121 2.58398 13.3453 2.80834 13.3453 3.08507V6.97942C13.3453 7.25616 13.121 7.48051 12.8443 7.48051Z" fill="#61AFF6"/>
<path d="M12.8451 2.58398H11.4685C11.4988 2.64946 11.5145 2.72074 11.5145 2.79288V6.68723C11.5145 6.96396 11.2902 7.18832 11.0134 7.18832H6.54688C6.62612 7.36062 6.79982 7.48055 7.00194 7.48055H12.8451C13.1218 7.48055 13.3462 7.2562 13.3462 6.97946V3.08511C13.3462 2.80834 13.1218 2.58398 12.8451 2.58398Z" fill="#55A2F0"/>
<path d="M22.9491 17.9602C21.9805 17.9602 21.1953 17.1751 21.1953 16.2065V5.52332H24.0886C24.4278 5.52332 24.7028 5.79833 24.7028 6.13757V16.2065C24.7028 17.1751 23.9176 17.9602 22.9491 17.9602Z" fill="#BCD1DD"/>
<path d="M24.0869 5.22437H21.4925V0.913131C21.4925 0.409623 21.0829 4.09931e-05 20.5794 4.09931e-05H18.3419C18.1768 4.09931e-05 18.043 0.133834 18.043 0.298922C18.043 0.46401 18.1768 0.597803 18.3419 0.597803H20.5794C20.7533 0.597803 20.8948 0.739266 20.8948 0.913172V16.2064C20.8948 16.7745 21.1269 17.2893 21.501 17.6613H6.04323C5.24618 17.6613 4.59772 17.0129 4.59772 16.2158V0.913131C4.59772 0.739224 4.73918 0.597762 4.91309 0.597762H16.4858C16.6509 0.597762 16.7847 0.463969 16.7847 0.298881C16.7847 0.133793 16.6509 0 16.4858 0H4.91309C4.40962 4.10156e-05 4 0.409664 4 0.913131V16.2157C4 17.3424 4.91662 18.259 6.04323 18.259H22.9474C24.0792 18.259 25 17.3382 25 16.2064V6.13745C25 5.63399 24.5904 5.22437 24.0869 5.22437ZM24.4023 16.2064C24.4023 17.0086 23.7496 17.6613 22.9474 17.6613C22.1451 17.6613 21.4925 17.0086 21.4925 16.2064V15.9988H22.9474C23.1125 15.9988 23.2463 15.865 23.2463 15.6999C23.2463 15.5348 23.1125 15.401 22.9474 15.401H21.4925V13.1131H22.9474C23.1125 13.1131 23.2463 12.9793 23.2463 12.8142C23.2463 12.6491 23.1125 12.5153 22.9474 12.5153H21.4925V10.2274H22.9474C23.0266 10.2274 23.1027 10.1959 23.1587 10.1399C23.2148 10.0838 23.2463 10.0078 23.2463 9.92853C23.2463 9.84926 23.2148 9.77324 23.1587 9.71719C23.1027 9.66114 23.0266 9.62965 22.9474 9.62965H21.4925V5.82196H24.0868C24.2607 5.82196 24.4022 5.96343 24.4022 6.13733L24.4023 16.2064Z" fill="black"/>
<path d="M13.6384 6.97948V3.08512C13.6384 2.64404 13.2795 2.28516 12.8384 2.28516H6.99528C6.5542 2.28516 6.19531 2.64404 6.19531 3.08512V6.97948C6.19531 7.42056 6.5542 7.7794 6.99528 7.7794H12.8384C13.2795 7.7794 13.6384 7.42056 13.6384 6.97948ZM6.79303 6.97948V3.08512C6.7931 3.03151 6.81443 2.9801 6.85234 2.94219C6.89026 2.90427 6.94166 2.88294 6.99528 2.88288H12.8384C12.8921 2.88294 12.9435 2.90427 12.9814 2.94219C13.0193 2.9801 13.0406 3.03151 13.0407 3.08512V6.97948C13.0406 7.03309 13.0193 7.08449 12.9814 7.1224C12.9435 7.16031 12.8921 7.18163 12.8384 7.18168H6.99528C6.94167 7.18163 6.89026 7.16031 6.85234 7.1224C6.81443 7.08449 6.7931 7.03309 6.79303 6.97948ZM19.0504 3.50931H15.1642C15.0849 3.50931 15.0089 3.5408 14.9529 3.59685C14.8968 3.6529 14.8653 3.72892 14.8653 3.80819C14.8653 3.88746 14.8968 3.96348 14.9529 4.01953C15.0089 4.07558 15.0849 4.10707 15.1642 4.10707H19.0504C19.0897 4.10708 19.1285 4.09935 19.1648 4.08433C19.2011 4.06931 19.234 4.0473 19.2618 4.01954C19.2895 3.99179 19.3116 3.95884 19.3266 3.92257C19.3416 3.88631 19.3493 3.84744 19.3493 3.80819C19.3493 3.76894 19.3416 3.73007 19.3266 3.69381C19.3116 3.65754 19.2895 3.62459 19.2618 3.59684C19.234 3.56908 19.2011 3.54707 19.1648 3.53205C19.1285 3.51703 19.0897 3.5093 19.0504 3.50931ZM19.0504 5.95757H15.1642C15.0849 5.95757 15.0089 5.98906 14.9529 6.04511C14.8968 6.10116 14.8653 6.17718 14.8653 6.25645C14.8653 6.33572 14.8968 6.41174 14.9529 6.46779C15.0089 6.52385 15.0849 6.55533 15.1642 6.55533H19.0504C19.2155 6.55533 19.3493 6.42154 19.3493 6.25645C19.3493 6.09137 19.2155 5.95757 19.0504 5.95757ZM19.0504 9.62995H10.3834C10.3041 9.62995 10.2281 9.66144 10.172 9.71749C10.116 9.77354 10.0845 9.84956 10.0845 9.92883C10.0845 10.0081 10.116 10.0841 10.172 10.1402C10.2281 10.1962 10.3041 10.2277 10.3834 10.2277H19.0504C19.1297 10.2277 19.2057 10.1962 19.2618 10.1402C19.3178 10.0841 19.3493 10.0081 19.3493 9.92883C19.3493 9.84956 19.3178 9.77354 19.2618 9.71749C19.2057 9.66144 19.1297 9.62995 19.0504 9.62995ZM6.7165 9.62995C6.63723 9.62995 6.56121 9.66144 6.50516 9.71749C6.44911 9.77354 6.41762 9.84956 6.41762 9.92883C6.41762 10.0081 6.44911 10.0841 6.50516 10.1402C6.56121 10.1962 6.63723 10.2277 6.7165 10.2277H8.52438C8.60365 10.2277 8.67967 10.1962 8.73573 10.1402C8.79178 10.0841 8.82327 10.0081 8.82327 9.92883C8.82327 9.84956 8.79178 9.77354 8.73573 9.71749C8.67967 9.66144 8.60365 9.62995 8.52438 9.62995H6.7165ZM19.0504 12.5156H6.7165C6.63723 12.5156 6.56121 12.5471 6.50516 12.6031C6.44911 12.6592 6.41762 12.7352 6.41762 12.8145C6.41762 12.8938 6.44911 12.9698 6.50516 13.0258C6.56121 13.0819 6.63723 13.1134 6.7165 13.1134H19.0504C19.2155 13.1134 19.3493 12.9796 19.3493 12.8145C19.3493 12.6494 19.2155 12.5156 19.0504 12.5156ZM19.0504 15.4013H6.7165C6.63723 15.4013 6.56121 15.4327 6.50516 15.4888C6.44911 15.5448 6.41762 15.6209 6.41762 15.7001C6.41762 15.7794 6.44911 15.8554 6.50516 15.9115C6.56121 15.9675 6.63723 15.999 6.7165 15.999H19.0504C19.2155 15.999 19.3493 15.8652 19.3493 15.7001C19.3493 15.535 19.2155 15.4013 19.0504 15.4013Z" fill="black"/>
</g>
<defs>
<filter id="filter0_d_1_342" x="0" y="0" width="29" height="26.259" filterUnits="userSpaceOnUse" color-interpolation-filters="sRGB">
<feFlood flood-opacity="0" result="BackgroundImageFix"/>
<feColorMatrix in="SourceAlpha" type="matrix" values="0 0 0 0 0 0 0 0 0 0 0 0 0 0 0 0 0 0 127 0" result="hardAlpha"/>
<feOffset dy="4"/>
<feGaussianBlur stdDeviation="2"/>
<feComposite in2="hardAlpha" operator="out"/>
<feColorMatrix type="matrix" values="0 0 0 0 0 0 0 0 0 0 0 0 0 0 0 0 0 0 0.25 0"/>
<feBlend mode="normal" in2="BackgroundImageFix" result="effect1_dropShadow_1_342"/>
<feBlend mode="normal" in="SourceGraphic" in2="effect1_dropShadow_1_342" result="shape"/>
</filter>
</defs>
</svg>
