<svg width="21" height="23" viewBox="0 0 21 23" fill="none" xmlns="http://www.w3.org/2000/svg">
<g id="Group">
<path id="Vector" d="M20.6508 3.69775C20.752 3.72507 20.8403 3.7788 20.903 3.8512C20.9658 3.92361 20.9997 4.01095 21 4.10068V8.43734C21 20.1051 11.6828 22.1556 10.6018 22.3546C10.5347 22.3669 10.4653 22.3669 10.3982 22.3546C9.31715 22.1556 0 20.1051 0 8.43734V4.10068C0.000265467 4.01095 0.0342165 3.92361 0.0969704 3.8512C0.159724 3.7788 0.248048 3.72507 0.349239 3.69775C6.13839 2.10529 9.34637 0.535964 10.2398 0.0636245C10.3177 0.0220614 10.4079 0 10.5 0C10.5921 0 10.6823 0.0220614 10.7602 0.0636245C11.6536 0.534422 14.8616 2.10529 20.6508 3.69775Z" fill="#E8EDF4"/>
<path id="Vector_2" d="M10.7223 20.3267C10.5765 20.3676 10.4189 20.3676 10.2731 20.3267C8.2279 19.7618 2.28125 17.35 2.28125 8.43644V5.6078C2.28207 5.48298 2.32857 5.36144 2.41439 5.25983C2.50021 5.15821 2.62114 5.08151 2.7606 5.04022C5.3081 4.30068 7.7829 3.39331 10.1622 2.32648C10.2653 2.27886 10.3809 2.25391 10.4984 2.25391C10.6159 2.25391 10.7315 2.27886 10.8346 2.32648C13.2141 3.39335 15.689 4.30072 18.2367 5.04022C18.3761 5.08151 18.4971 5.15821 18.5829 5.25983C18.6687 5.36144 18.7152 5.48298 18.716 5.6078V8.43644C18.716 17.3461 12.7767 19.7591 10.7223 20.3267Z" fill="#39B54A"/>
<path id="Vector_3" d="M8.06551 14.4237L5.72675 12.3801C5.56468 12.2381 5.47488 12.0482 5.47659 11.851C5.47829 11.6538 5.57137 11.465 5.73588 11.3251L6.3499 10.8042C6.43358 10.7329 6.53344 10.6767 6.64349 10.6389C6.75355 10.6011 6.87152 10.5824 6.99032 10.5841C7.10911 10.5857 7.22629 10.6077 7.3348 10.6485C7.44332 10.6894 7.54093 10.7484 7.62177 10.8219L8.56449 11.6768L13.2667 6.82844C13.3402 6.7523 13.4309 6.68922 13.5335 6.64283C13.6361 6.59644 13.7486 6.56767 13.8644 6.55817C13.9802 6.54867 14.0971 6.55864 14.2083 6.58748C14.3196 6.61633 14.423 6.6635 14.5125 6.72626L15.1973 7.20361C15.3784 7.33086 15.4928 7.51339 15.5153 7.71148C15.5379 7.90957 15.4669 8.10717 15.3178 8.26126L9.38303 14.3782C9.30412 14.4595 9.20569 14.5259 9.09424 14.5729C8.98278 14.6198 8.86081 14.6463 8.73636 14.6506C8.61191 14.6549 8.48779 14.6369 8.37217 14.5978C8.25654 14.5587 8.15203 14.4993 8.06551 14.4237Z" fill="white"/>
</g>
</svg>
