<svg width="167" height="233" viewBox="0 0 167 233" fill="none" xmlns="http://www.w3.org/2000/svg">
<path d="M176.556 186.933C170.725 183.342 163.94 180.481 159.455 175.077C157.194 172.478 155.992 169.117 156.092 165.675C156.194 164.069 156.772 162.534 157.752 161.268C158.732 160.001 160.068 159.062 161.588 158.572C162.459 158.281 163.38 158.168 164.297 158.24C165.214 158.313 166.109 158.569 166.929 158.993C168.313 159.789 169.302 161.111 170.381 162.242C170.739 162.607 171.472 162.672 171.662 162.076C172.687 158.904 175.508 155.767 178.831 155.003C181.836 154.303 184.568 156.356 186.144 158.783C186.921 159.952 187.445 161.272 187.68 162.656C187.916 164.039 187.858 165.456 187.511 166.812C186.479 170.36 184.5 173.711 182.667 176.889C181.645 178.635 180.652 180.409 179.583 182.117C178.515 183.825 176.782 185.342 175.522 187.072C174.955 187.846 176.133 188.766 176.697 187.985C177.997 186.215 179.714 184.778 180.855 182.894C181.906 181.161 182.917 179.412 183.929 177.662C184.941 175.913 186.051 173.953 186.985 172.033C187.903 170.319 188.624 168.506 189.136 166.626C189.435 165.105 189.428 163.537 189.114 162.015C188.8 160.493 188.187 159.047 187.31 157.764C185.552 155.128 182.518 152.964 179.248 153.407C175.169 153.954 171.566 157.692 170.339 161.49L171.613 161.326C170.609 160.122 169.488 159.022 168.266 158.042C166.889 157.123 165.258 156.67 163.613 156.749C161.84 156.817 160.126 157.389 158.669 158.399C157.212 159.41 156.072 160.817 155.381 162.458C153.933 165.852 154.698 170.027 156.446 173.21C158.293 176.556 161.262 179.111 164.326 181.271C167.986 183.828 171.937 185.78 175.71 188.104C176.51 188.588 177.423 187.405 176.61 186.927L176.556 186.933Z" fill="#FCCB06"/>
<path d="M160.137 163.731C160.249 163.612 160.041 163.81 160.137 163.731L160.272 163.611L160.579 163.38L160.929 163.156C160.785 163.215 160.998 163.128 161.005 163.125L161.211 163.041C161.488 162.908 161.773 162.791 162.064 162.693C162.327 162.598 162.596 162.521 162.869 162.462C163.427 162.334 164.002 162.296 164.573 162.35L164.988 162.423L165.177 162.492L165.361 162.571L165.445 162.618C165.562 162.69 165.67 162.777 165.766 162.875C165.843 162.941 165.932 162.99 166.028 163.02C166.125 163.05 166.225 163.06 166.325 163.05C166.425 163.04 166.521 163.009 166.609 162.96C166.696 162.911 166.773 162.845 166.834 162.765C166.896 162.686 166.94 162.594 166.965 162.497C166.99 162.399 166.995 162.297 166.98 162.197C166.965 162.097 166.93 162.001 166.878 161.915C166.825 161.829 166.755 161.754 166.673 161.695C165.633 160.718 163.987 160.718 162.686 160.989C161.274 161.223 159.967 161.881 158.937 162.876C158.877 162.953 158.834 163.043 158.809 163.138C158.783 163.233 158.777 163.332 158.79 163.43C158.803 163.528 158.835 163.622 158.885 163.707C158.934 163.793 158.999 163.868 159.077 163.928C159.155 163.988 159.244 164.033 159.339 164.059C159.433 164.085 159.532 164.092 159.629 164.079C159.726 164.067 159.819 164.035 159.904 163.986C159.989 163.937 160.063 163.871 160.122 163.793L160.137 163.731Z" fill="#FCCB06"/>
<path d="M117.006 89.8307C110.871 87.5792 104.14 86.1701 98.7562 82.2591C96.0397 80.4031 94.0409 77.6599 93.1009 74.4975C92.5908 72.8016 92.6353 70.989 93.2278 69.3278C93.8203 67.6665 94.9294 66.2448 96.391 65.2728C97.22 64.7178 98.1588 64.3491 99.144 64.1917C100.129 64.0342 101.138 64.0916 102.102 64.36C103.634 64.869 104.875 65.9827 106.184 66.8904C106.288 66.9709 106.41 67.0229 106.539 67.041C106.668 67.0591 106.8 67.0427 106.92 66.9935C107.041 66.9443 107.146 66.864 107.226 66.7607C107.306 66.6574 107.357 66.5346 107.374 66.4047C107.763 62.9327 110.145 58.9957 113.559 57.8216C116.376 56.8583 119.45 58.6093 121.279 60.7307C122.18 61.7357 122.867 62.9154 123.297 64.1962C123.727 65.4771 123.891 66.8318 123.779 68.1757C123.356 71.9371 122.133 75.5874 120.92 79.1445C120.276 81.0275 119.703 82.9868 118.946 84.8104C118.19 86.634 116.911 88.3385 116.062 90.1917C115.658 91.0695 117.034 91.65 117.435 90.7819C118.31 88.8772 119.62 87.2087 120.377 85.2474C121.133 83.2861 121.738 81.3462 122.394 79.3936C123.05 77.441 123.687 75.4634 124.213 73.4668C124.814 71.5075 125.181 69.4814 125.305 67.4314C125.308 65.92 125.016 64.4209 124.444 63.0196C123.872 61.6184 123.032 60.3425 121.973 59.2648C119.856 57.0666 116.668 55.4509 113.589 56.2051C109.382 57.2821 106.361 61.974 105.892 66.1348L107.082 65.6491C105.835 64.6463 104.484 63.7824 103.053 63.0726C101.337 62.4215 99.4543 62.3858 97.7231 62.9714C95.9262 63.5565 94.3499 64.6748 93.2002 66.1801C92.0506 67.6855 91.381 69.508 91.2789 71.4094C91.1499 75.0264 92.9225 78.7018 95.4175 81.2561C97.9125 83.8104 101.295 85.6298 104.643 87.0097C108.503 88.602 112.542 89.7082 116.467 91.1444C117.399 91.4609 117.942 90.0971 117.035 89.7624L117.006 89.8307Z" fill="#FCCB06"/>
<path d="M96.2824 70.5317C96.5312 70.1131 96.8657 69.753 97.2638 69.4751C97.7175 69.1061 98.2203 68.8028 98.7579 68.5737C99.2712 68.3196 99.8267 68.1616 100.397 68.1072L100.582 68.0885L100.743 68.0879L100.859 68.0972L101.061 68.1201L101.261 68.1597C101.465 68.2062 101.145 68.11 101.336 68.1858L101.518 68.2575C101.518 68.2575 101.717 68.3708 101.579 68.2892C101.657 68.3497 101.746 68.3941 101.84 68.42C101.935 68.446 102.034 68.4529 102.131 68.4404C102.228 68.4279 102.321 68.3962 102.406 68.3472C102.49 68.2981 102.564 68.2327 102.624 68.1546C102.683 68.0767 102.727 67.9877 102.752 67.8926C102.777 67.7975 102.783 67.6982 102.77 67.6004C102.757 67.5027 102.725 67.4083 102.676 67.3228C102.627 67.2373 102.561 67.1623 102.483 67.1022C101.205 66.3113 99.6549 66.5632 98.3396 67.1161C97.0345 67.6048 95.9058 68.4742 95.0973 69.6139C95.0378 69.6918 94.9942 69.7808 94.9691 69.8759C94.9439 69.971 94.9377 70.0703 94.9508 70.168C94.9638 70.2658 94.9959 70.3602 95.0452 70.4457C95.0944 70.5312 95.1599 70.6062 95.2379 70.6663C95.3156 70.7267 95.4044 70.7712 95.499 70.7971C95.5936 70.8231 95.6923 70.83 95.7893 70.8175C95.8864 70.805 95.9799 70.7733 96.0645 70.7243C96.1491 70.6752 96.2232 70.6098 96.2824 70.5317Z" fill="#FCCB06"/>
<path d="M93.5384 142.363C90.4236 136.744 88.2146 130.667 86.9944 124.36C86.349 121.52 86.0444 118.615 86.0872 115.706C86.1881 113.121 86.8138 110.249 88.9218 108.571C92.6554 105.605 99.4908 106.583 102.64 110.053C106.346 114.138 105.349 120.742 102.971 125.18C101.487 127.956 99.4811 130.395 97.7237 132.992C95.8307 135.846 94.2535 138.904 92.6261 141.917C92.5725 142.042 92.5539 142.18 92.5723 142.315C92.5908 142.45 92.6455 142.578 92.7306 142.685L92.7617 142.761C92.8639 142.896 93.0082 142.993 93.1712 143.035C93.3342 143.077 93.5063 143.063 93.6594 142.994L93.7833 142.944C93.9657 142.869 94.1109 142.725 94.1868 142.542C94.2626 142.359 94.263 142.153 94.1879 141.969C94.1127 141.784 93.9682 141.637 93.786 141.56C93.6038 141.482 93.399 141.48 93.2165 141.555L93.0514 141.622L93.9463 141.848L93.9151 141.772L94.0196 142.539C95.6003 139.444 97.3364 136.432 99.2212 133.515C100.93 130.995 102.836 128.605 104.285 125.924C106.894 121.125 107.843 114.168 104.177 109.572C100.971 105.55 94.4146 104.272 89.8261 106.323C84.1235 108.868 84.2781 115.934 84.9761 121.263C85.5295 125.072 86.4292 128.824 87.6639 132.471C88.8693 136.236 90.4654 139.864 92.4259 143.295C92.9028 144.129 94.0775 143.212 93.5966 142.388L93.5384 142.363Z" fill="#FCCB06"/>
<path d="M92.7011 114.528C92.0979 115.118 91.6512 115.85 91.4013 116.659C91.1514 117.469 91.1062 118.329 91.2697 119.163C91.6095 120.644 92.4247 122.288 94.0101 122.614C95.9568 123.018 97.4815 120.913 97.9941 119.278C98.3606 118.23 98.3708 117.086 98.0233 116.026C97.8342 115.529 97.5271 115.085 97.129 114.733C96.7309 114.382 96.2538 114.133 95.7396 114.009C95.2686 113.849 94.7686 113.798 94.2766 113.858C93.7846 113.919 93.3131 114.09 92.8969 114.359C91.9856 115.057 91.3865 116.091 91.2294 117.235C91.2119 117.427 91.269 117.62 91.3886 117.771C91.5082 117.923 91.6812 118.023 91.8714 118.05C92.0617 118.077 92.2544 118.029 92.4093 117.916C92.5643 117.803 92.6695 117.634 92.703 117.444C92.8032 116.778 93.1161 116.164 93.5944 115.695C93.7748 115.536 93.9891 115.421 94.221 115.359C94.4529 115.296 94.6962 115.288 94.9324 115.335C95.2545 115.358 95.5671 115.458 95.8441 115.627C96.121 115.796 96.3542 116.028 96.5242 116.306C96.8234 117.026 96.8667 117.827 96.6467 118.573C96.4536 119.256 96.1187 119.89 95.6639 120.432C95.4781 120.674 95.2481 120.878 94.9861 121.033L94.8141 121.103C94.5801 121.198 94.8897 121.072 94.6971 121.15L94.4846 121.18C94.409 121.211 94.4021 121.214 94.4846 121.18L94.3519 121.17L94.2203 121.142C94.0196 121.103 94.3397 121.199 94.1552 121.12C94.0939 121.098 94.0345 121.071 93.9775 121.039C93.7873 120.947 94.0848 121.125 93.9136 121C93.7423 120.876 93.7367 120.862 93.6488 120.784C93.7674 120.898 93.6262 120.729 93.6205 120.715C93.5739 120.662 93.53 120.607 93.489 120.55C93.3965 120.436 93.3126 120.316 93.238 120.19C93.2805 120.295 93.1671 120.017 93.1445 119.961C93.0097 119.69 92.8951 119.409 92.8016 119.121C92.7109 118.899 92.8582 119.26 92.7676 119.038C92.7336 118.954 92.7311 118.85 92.7109 118.761C92.6906 118.672 92.6708 118.486 92.657 118.354C92.6432 118.222 92.6117 118.243 92.644 118.165C92.6764 118.087 92.6497 117.903 92.6412 118.02C92.6327 118.137 92.6529 117.95 92.6569 117.941C92.661 117.931 92.6772 117.754 92.6942 117.658C92.8013 116.927 93.1164 116.244 93.6013 115.692C93.6787 115.632 93.7435 115.558 93.7921 115.473C93.8407 115.388 93.872 115.294 93.8844 115.196C93.8967 115.098 93.8898 114.999 93.8641 114.904C93.8383 114.809 93.7943 114.72 93.7343 114.641C93.6745 114.563 93.6 114.497 93.5151 114.448C93.4303 114.398 93.3366 114.366 93.2396 114.353C93.1426 114.34 93.0441 114.346 92.9497 114.372C92.8554 114.397 92.767 114.441 92.6897 114.501L92.7011 114.528Z" fill="#FCCB06"/>
<path d="M58.4626 85.3019C53.4923 84.148 48.7083 82.2807 44.2579 79.7573C42.0062 78.5263 39.8776 77.0779 37.9025 75.4327C36.0686 73.8885 34.1775 71.752 34.0331 69.2349C33.8092 65.1462 38.0984 61.2411 41.8703 60.6902C46.5321 60.0191 50.5851 64.1492 52.285 68.1378C53.4869 70.9849 53.9065 74.0783 54.669 77.048C55.4314 80.0177 56.4901 82.907 57.5087 85.7965C57.5589 85.9174 57.6395 86.0231 57.7426 86.1033C57.8457 86.1834 57.9677 86.2351 58.0964 86.2533L58.1684 86.2725C58.3312 86.2957 58.4967 86.2641 58.6391 86.1825C58.7815 86.101 58.8928 85.9741 58.9556 85.8217L58.9972 85.7075C59.3363 84.8076 57.9667 84.2243 57.6276 85.1242L57.5859 85.2384L58.3731 84.7876L58.3111 84.8128L58.8988 85.2697C57.767 82.3033 56.7998 79.2768 56.002 76.2043C55.3088 73.2468 54.8151 70.2079 53.6128 67.4583C51.7117 63.1143 47.4827 58.9264 42.5229 59.1034C38.1516 59.2671 33.6981 63.0448 32.7038 67.3147C31.4389 72.6914 36.8043 76.8124 40.7348 79.3642C46.094 82.8713 52.0273 85.3885 58.2539 86.7966C59.1941 86.9962 59.3947 85.521 58.4516 85.3145L58.4626 85.3019Z" fill="#FCCB06"/>
<path d="M39.8781 69.7243C39.9523 70.6 40.267 71.4393 40.7869 72.1482C41.1987 72.7239 41.7488 73.1853 42.3853 73.4887C43.7453 74.2056 45.7272 74.4013 46.596 72.8722C46.9674 72.1286 47.0359 71.2669 46.7871 70.4692C46.6142 69.6842 46.2815 68.9428 45.8103 68.2918C45.2579 67.5478 44.4736 67.0116 43.5841 66.77C43.1467 66.6811 42.696 66.6882 42.2628 66.7909C41.8296 66.8936 41.4241 67.0894 41.0741 67.3649C40.7386 67.5978 40.4563 67.8998 40.2455 68.251C40.0348 68.6023 39.9005 68.9949 39.8513 69.4031C39.7936 70.4098 40.1161 71.4038 40.7542 72.1859C40.8808 72.3234 41.0537 72.4086 41.2388 72.4248C41.4239 72.4409 41.6078 72.3869 41.7545 72.2732C41.9012 72.1596 42 71.9945 42.0316 71.8105C42.0631 71.6265 42.025 71.4368 41.9249 71.2788C41.7451 71.0114 41.6066 70.7183 41.514 70.4095C41.4857 70.3401 41.4545 70.2637 41.4262 70.1942C41.48 70.3262 41.3922 70.1109 41.3893 70.104C41.3624 69.9631 41.3471 69.8203 41.3435 69.6771C41.3452 69.8385 41.3265 69.6354 41.3553 69.6075L41.3795 69.4113C41.4038 69.2151 41.331 69.5283 41.3597 69.3627L41.4256 69.19L41.4839 69.0771C41.5567 68.9015 41.3965 69.1775 41.511 69.0255L41.6749 68.8371L41.7583 68.7464C41.6899 68.8148 41.6757 68.7801 41.7583 68.7464C41.8711 68.6486 41.9892 68.5572 42.112 68.4724L42.2564 68.4135C42.1326 68.464 42.3665 68.3686 42.3665 68.3686C42.5978 68.2348 42.8611 68.1666 43.1286 68.171C43.6459 68.2638 44.1153 68.5368 44.4545 68.9422C44.842 69.3688 45.1271 69.879 45.2876 70.4331L45.3726 70.6414C45.4661 70.8706 45.3216 70.5164 45.4151 70.7456C45.4477 70.8851 45.4731 71.0261 45.4913 71.1682C45.5127 71.309 45.5225 71.4513 45.5205 71.5937C45.5273 71.4532 45.5132 71.6939 45.5132 71.6939C45.5132 71.6939 45.4582 71.9917 45.4942 71.8636L45.4201 72.0559C45.3433 72.2412 45.4889 72.0278 45.3631 72.1521L45.2814 72.2664C45.1737 72.4157 45.3777 72.2271 45.2126 72.2945L45.0576 72.4063C45.2158 72.3418 45.0576 72.4063 44.9956 72.4316C44.9337 72.4569 44.7755 72.5215 44.9406 72.4541L44.6771 72.4968C44.4582 72.5163 44.2373 72.4997 44.0231 72.4477C43.9511 72.4285 43.875 72.4191 43.8098 72.3971L43.6989 72.3613C43.5589 72.3132 43.4229 72.2552 43.2869 72.1973L43.087 72.1007C43.087 72.1007 42.8202 71.9584 42.9356 72.0247C42.7985 71.9427 42.6657 71.8536 42.5377 71.7578C42.443 71.683 42.3552 71.6054 42.2673 71.5279L42.1119 71.324C42.0697 71.2692 42.0304 71.2122 41.9941 71.1533C41.9941 71.1533 41.8326 70.8952 41.9233 70.9797C41.8609 70.8269 41.7986 70.6741 41.7334 70.5144C41.5787 70.1963 41.4968 69.8476 41.4937 69.4943C41.4818 69.3965 41.4509 69.3019 41.4027 69.2159C41.3545 69.1299 41.29 69.0542 41.2129 68.9931C41.1358 68.9321 41.0476 68.8868 40.9533 68.86C40.8591 68.8331 40.7606 68.8252 40.6635 68.8367C40.5664 68.848 40.4727 68.8786 40.3876 68.9265C40.3024 68.9744 40.2277 69.0388 40.1675 69.1161C40.1073 69.1933 40.0629 69.2818 40.0369 69.3765C40.0108 69.4713 40.0036 69.5703 40.0157 69.6681L39.8781 69.7243Z" fill="#FCCB06"/>
<path d="M105.314 157.896C105.852 158.51 106.237 159.245 106.437 160.038C106.771 160.857 107.108 161.684 107.443 162.503C107.781 163.45 108.085 164.412 108.336 165.379C108.6 166.305 108.995 167.189 109.51 168.002C109.585 168.109 109.687 168.193 109.806 168.245C109.925 168.297 110.056 168.314 110.183 168.295C111.016 167.986 111.81 167.583 112.55 167.094C113.517 166.729 114.455 166.295 115.359 165.794C116.149 165.253 115.231 164.064 114.447 164.602C113.651 165.024 112.828 165.393 111.984 165.705C111.619 165.854 111.283 166.072 110.951 166.28C110.663 166.499 110.346 166.675 110.008 166.803L110.681 167.095C109.648 165.33 109.317 163.261 108.611 161.354C108.277 160.534 107.948 159.729 107.614 158.909C107.341 158.067 106.863 157.307 106.222 156.699C105.497 156.063 104.593 157.25 105.322 157.876L105.314 157.896Z" fill="#FCCB06"/>
<path d="M111.677 153.623C113.35 157.387 115.2 161.096 117.106 164.725C117.549 165.573 118.928 165.019 118.482 164.163C116.568 160.514 114.711 156.791 113.053 153.061C112.687 152.165 111.311 152.727 111.677 153.623Z" fill="#FCCB06"/>
<path d="M116.723 151.564C117.504 153.68 118.441 155.734 119.528 157.71L121.064 160.47C121.315 160.912 121.592 161.341 121.892 161.752C122.016 161.953 122.154 162.146 122.304 162.329C122.416 162.445 122.35 162.658 122.358 162.185L123.005 161.549L122.97 161.563C122.018 161.57 122.208 163.057 123.153 163.052L123.187 163.038C123.35 163.019 123.502 162.946 123.619 162.831C123.736 162.716 123.812 162.565 123.834 162.401C123.838 161.662 123.192 161.043 122.806 160.471C122.42 159.9 122.233 159.441 121.938 158.914C121.642 158.386 121.342 157.926 121.064 157.423C119.909 155.364 118.917 153.217 118.099 151.002C117.734 150.107 116.358 150.668 116.723 151.564Z" fill="#FCCB06"/>
<path d="M120.775 156.908C120.928 154.258 121.409 151.639 122.209 149.113C122.284 148.931 122.284 148.726 122.21 148.542C122.135 148.359 121.991 148.212 121.81 148.134C121.628 148.057 121.424 148.056 121.242 148.13C121.061 148.204 120.916 148.348 120.84 148.53C119.988 151.172 119.473 153.913 119.306 156.69C119.292 156.787 119.298 156.887 119.323 156.982C119.347 157.078 119.39 157.168 119.449 157.247C119.508 157.326 119.582 157.392 119.667 157.442C119.751 157.493 119.845 157.526 119.942 157.54C120.136 157.567 120.333 157.516 120.489 157.397C120.645 157.279 120.748 157.103 120.775 156.908Z" fill="#FCCB06"/>
<path d="M119.924 156.648C121.116 157.15 122.371 157.472 123.596 157.896C124.8 158.401 126.031 158.837 127.283 159.202C127.477 159.229 127.674 159.178 127.83 159.06C127.986 158.941 128.089 158.766 128.116 158.57C128.145 158.374 128.095 158.174 127.977 158.014C127.859 157.854 127.683 157.747 127.487 157.717C126.325 157.373 125.184 156.959 124.069 156.479C122.877 156.075 121.662 155.753 120.499 155.263C120.408 155.224 120.311 155.204 120.213 155.203C120.115 155.202 120.018 155.221 119.927 155.258C119.836 155.295 119.754 155.35 119.684 155.419C119.615 155.488 119.56 155.571 119.522 155.662C119.484 155.753 119.465 155.85 119.465 155.949C119.464 156.048 119.483 156.146 119.521 156.237C119.558 156.329 119.613 156.412 119.682 156.483C119.752 156.553 119.834 156.609 119.924 156.648Z" fill="#FCCB06"/>
<path d="M124.551 147.757C124.773 148.619 125.197 149.415 125.787 150.08C126.284 150.753 126.743 151.452 127.164 152.175C127.677 153.019 128.148 153.879 128.595 154.758C129.042 155.637 129.543 156.332 129.899 157.167C129.974 157.351 130.119 157.498 130.301 157.576C130.483 157.653 130.688 157.655 130.871 157.581C132.171 157.05 133.329 156.229 134.632 155.705C134.814 155.631 134.959 155.486 135.035 155.303C135.111 155.121 135.112 154.914 135.036 154.73C134.961 154.546 134.817 154.399 134.635 154.321C134.452 154.244 134.248 154.242 134.065 154.317C132.765 154.847 131.599 155.647 130.304 156.192L131.275 156.605C130.955 155.821 130.441 155.131 130.062 154.379C129.603 153.472 129.12 152.584 128.612 151.73C128.19 151.011 127.765 150.285 127.29 149.612C126.738 149.037 126.312 148.353 126.037 147.604C125.862 146.663 124.381 146.83 124.559 147.778L124.551 147.757Z" fill="#FCCB06"/>
<path d="M128.601 152.579C128.677 152.548 128.44 152.734 128.511 152.672L128.566 152.65L128.697 152.597C128.731 152.583 128.91 152.51 128.758 152.571L128.82 152.546C129.068 152.445 129.316 152.344 129.563 152.243C129.983 152.072 130.396 151.903 130.809 151.735C130.991 151.66 131.136 151.516 131.212 151.333C131.288 151.15 131.288 150.944 131.213 150.76C131.138 150.575 130.994 150.428 130.811 150.351C130.629 150.273 130.424 150.271 130.242 150.346L128.935 150.879C128.381 151.07 127.875 151.376 127.447 151.778C127.388 151.856 127.344 151.945 127.319 152.04C127.294 152.135 127.288 152.234 127.301 152.332C127.314 152.43 127.346 152.524 127.395 152.61C127.445 152.695 127.51 152.77 127.588 152.83C127.746 152.951 127.944 153.003 128.139 152.977C128.335 152.95 128.511 152.847 128.63 152.689L128.601 152.579Z" fill="#FCCB06"/>
<path d="M125.936 147.979C126.053 147.833 125.795 148.085 125.936 147.979L126.084 147.87L126.18 147.83C126.311 147.777 126.002 147.903 126.139 147.847C126.277 147.791 126.297 147.782 126.38 147.749C126.752 147.597 127.13 147.443 127.501 147.291C128.245 147.027 128.968 146.71 129.667 146.343C129.744 146.283 129.809 146.209 129.857 146.123C129.906 146.038 129.937 145.944 129.95 145.847C129.962 145.749 129.955 145.65 129.929 145.555C129.904 145.46 129.859 145.37 129.8 145.292C129.74 145.214 129.665 145.148 129.58 145.099C129.496 145.049 129.402 145.017 129.305 145.004C129.208 144.991 129.109 144.997 129.015 145.022C128.921 145.048 128.832 145.092 128.755 145.151L128.514 145.25L126.808 145.946C126.443 146.095 126.079 146.243 125.714 146.392C125.364 146.543 125.051 146.768 124.795 147.051C124.731 147.128 124.682 147.217 124.653 147.314C124.624 147.41 124.614 147.512 124.625 147.612C124.636 147.713 124.667 147.81 124.716 147.898C124.765 147.987 124.832 148.064 124.911 148.127C124.991 148.189 125.082 148.234 125.179 148.26C125.276 148.286 125.377 148.292 125.477 148.277C125.576 148.263 125.671 148.228 125.756 148.176C125.842 148.123 125.915 148.054 125.973 147.971L125.936 147.979Z" fill="#FCCB06"/>
<path d="M134.005 109.182C133.294 113.4 132.84 117.66 132.645 121.937C132.501 124.062 132.364 126.183 132.335 128.317C132.313 130.052 132.146 132.08 132.923 133.691C133.573 134.989 135.024 135.475 136.327 135.778C138.152 136.199 140.019 136.507 141.864 136.758C143.885 137.051 145.919 137.218 147.94 137.47C149.81 137.735 151.691 137.901 153.576 137.966C154.688 137.994 155.799 137.92 156.896 137.745C157.985 137.56 158.974 137.132 159.807 138.112C160.484 138.905 160.987 139.842 161.583 140.693C162.308 141.733 163.112 142.716 163.986 143.633C164.066 143.736 164.171 143.818 164.292 143.868C164.412 143.918 164.543 143.936 164.672 143.919C164.801 143.903 164.923 143.853 165.026 143.774C165.129 143.695 165.21 143.59 165.26 143.469C165.567 142.514 165.658 141.5 165.525 140.501C165.405 139.296 165.355 138.086 165.378 136.876L164.355 137.455C166.615 138.234 168.776 138.025 169.856 135.656C170.813 133.556 170.756 130.841 170.78 128.579C170.821 125.671 170.575 122.766 170.326 119.854C170.211 118.451 170.177 117.031 170.038 115.629C169.878 114.463 169.532 113.33 169.014 112.272C168.644 111.264 167.901 110.438 166.941 109.967C165.877 109.522 164.748 109.254 163.601 109.175C162.401 109.049 161.202 109.02 160.004 108.877C158.634 108.707 157.275 108.484 155.903 108.347C153.53 108.117 151.157 108.161 148.805 108.003C146.856 107.851 144.927 107.568 142.99 107.363C140.986 107.059 138.954 107.017 136.944 107.238C135.568 107.467 134.146 108.072 133.9 109.614C133.751 110.566 135.228 110.781 135.374 109.822C135.52 108.864 136.949 108.726 137.719 108.647C139.288 108.55 140.863 108.604 142.424 108.809C144.098 108.976 145.794 109.2 147.47 109.374C149.146 109.549 151.016 109.547 152.792 109.633C155.108 109.741 157.385 110.051 159.683 110.353C161.733 110.618 163.919 110.447 165.896 111.163C167.874 111.879 168.543 114.797 168.632 116.746C168.74 119.213 169.036 121.668 169.184 124.135C169.363 126.868 169.336 129.609 169.103 132.334C169.067 133.361 168.823 134.368 168.384 135.293C167.621 136.689 166.277 136.541 164.939 136.075C164.834 136.03 164.72 136.011 164.606 136.018C164.493 136.025 164.382 136.058 164.284 136.114C164.185 136.171 164.101 136.25 164.037 136.345C163.974 136.44 163.933 136.548 163.918 136.661C163.872 137.734 163.889 138.809 163.972 139.88C164.17 140.873 164.143 141.897 163.894 142.876L165.168 142.713C163.816 141.19 162.583 139.564 161.482 137.85C160.492 136.447 159.472 135.738 157.737 136.049C155.9 136.406 154.024 136.527 152.153 136.407C150.227 136.27 148.323 135.969 146.405 135.772C144.486 135.575 142.493 135.351 140.55 135.034C138.835 134.848 137.143 134.489 135.497 133.961C133.6 133.245 133.788 131.07 133.795 129.358C133.783 127.362 133.816 125.299 134.012 123.34C134.418 118.67 134.571 113.99 135.459 109.383C135.642 108.433 134.182 108.219 133.986 109.174L134.005 109.182Z" fill="#FCCB06"/>
<path d="M140.674 115.795L162.281 116.942L162.479 115.46L161.802 115.395C160.851 115.346 160.644 116.824 161.602 116.871L162.283 116.908C163.235 116.958 163.449 115.477 162.481 115.426L140.874 114.28C139.923 114.23 139.708 115.711 140.676 115.762L140.674 115.795Z" fill="#FCCB06"/>
<path d="M140.34 123.238L161.947 124.385L162.148 122.909L161.466 122.872C160.515 122.822 160.308 124.3 161.269 124.354L161.947 124.385C162.898 124.434 163.113 122.953 162.148 122.909L140.538 121.756C139.587 121.706 139.372 123.187 140.34 123.238Z" fill="#FCCB06"/>
<path d="M139.99 130.677L161.607 131.827L161.805 130.345L161.117 130.31C160.166 130.261 159.961 131.746 160.919 131.792L161.607 131.827C162.558 131.877 162.766 130.399 161.805 130.345L140.188 129.194C139.237 129.145 139.026 130.633 139.99 130.677Z" fill="#FCCB06"/>
<path d="M38.7557 110.807L38.9965 110.847C39.1585 110.847 39.3157 110.794 39.4442 110.695C39.5728 110.597 39.6657 110.459 39.7088 110.302C39.7519 110.145 39.7429 109.978 39.6831 109.826C39.6233 109.674 39.5161 109.546 39.3776 109.46C36.2859 107.857 33.3325 105.994 30.5488 103.893C29.764 103.346 28.8572 104.526 29.6489 105.07C32.5343 107.247 35.5972 109.173 38.8043 110.828L39.1918 109.398L38.9534 109.325C38.0068 109.169 37.8022 110.654 38.7557 110.807Z" fill="#FCCB06"/>
<path d="M29.189 105.092C29.486 105.894 29.6789 106.73 29.7628 107.58C29.8948 108.474 30.111 109.358 30.3078 110.234C30.575 111.183 30.7615 112.153 30.8651 113.133C30.8907 114.043 30.818 114.953 30.648 115.846C30.4988 116.798 31.9724 117.007 32.1216 116.055C32.2873 115.129 32.3656 114.188 32.3556 113.246C32.2976 112.164 32.1283 111.09 31.8506 110.041C31.638 109.107 31.4088 108.172 31.2832 107.235C31.1825 106.301 30.9619 105.384 30.6269 104.506C30.5517 104.321 30.4072 104.174 30.225 104.097C30.0428 104.019 29.838 104.018 29.6555 104.092C29.473 104.166 29.3279 104.311 29.252 104.494C29.1761 104.677 29.1757 104.883 29.2509 105.067L29.189 105.092Z" fill="#FCCB06"/>
<path d="M39.6703 110.366C40.9961 109.897 42.115 108.922 43.3336 108.231C44.371 107.674 45.3772 107.061 46.3477 106.393L45.1836 105.507C44.6412 107.097 44.3132 108.753 44.2084 110.434C44.1577 111.241 43.9773 112.034 43.6741 112.782C43.4258 113.348 43.2067 113.927 43.0174 114.516C42.9539 114.668 42.9422 114.838 42.9844 114.998C43.0265 115.158 43.12 115.3 43.2502 115.402C44.1654 116.13 45.0955 116.836 46.0556 117.497C47.5778 118.553 49.4886 119.223 50.794 120.554L50.7902 119.64C49.8769 120.588 47.9249 120.485 46.7075 120.609C44.9468 120.758 43.201 121.043 41.4851 121.46C40.5661 121.706 41.1397 123.092 42.0519 122.849C43.9141 122.426 45.8081 122.154 47.7154 122.037C49.2558 121.878 50.8637 121.708 51.9369 120.581C52.0484 120.455 52.1135 120.293 52.1216 120.123C52.1296 119.954 52.0802 119.786 51.9813 119.648C50.599 118.227 48.7016 117.511 47.096 116.408C46.0914 115.716 45.1208 114.97 44.1611 114.212L44.3939 115.097C44.8361 113.742 45.5009 112.539 45.6452 111.103C45.7314 110.33 45.8798 109.573 45.9728 108.798C46.0553 107.879 46.2623 106.977 46.5881 106.117C46.6547 105.962 46.6674 105.79 46.6242 105.626C46.581 105.463 46.4843 105.319 46.35 105.217C46.2156 105.115 46.0513 105.062 45.8837 105.066C45.7162 105.07 45.5552 105.13 45.4268 105.238C44.4902 105.883 43.5178 106.475 42.5143 107.01C41.4366 107.779 40.292 108.45 39.0942 109.013C38.1926 109.34 38.7593 110.729 39.661 110.402L39.6703 110.366Z" fill="#FCCB06"/>
<path d="M30.2529 115.448C29.4088 116.546 28.1231 117.289 27.1227 118.24C26.1693 119.148 25.1569 119.992 24.0921 120.765C23.9663 120.865 23.8766 121.004 23.8363 121.161C23.7961 121.317 23.8074 121.483 23.8688 121.633C23.9301 121.784 24.038 121.91 24.1764 121.994C24.3148 122.078 24.4761 122.114 24.6362 122.098C26.2376 121.971 27.8448 122.409 29.4285 122.573C30.2723 122.674 31.1138 122.946 31.9673 123.051C32.389 123.078 32.8118 123.076 33.2329 123.045C33.5466 123.047 34.1216 122.942 34.4078 123.092C35.1966 123.492 34.9605 125.411 35.033 126.159C35.1538 126.94 35.3171 127.714 35.5222 128.478C35.6767 129.312 35.9376 130.124 36.2983 130.892C36.3735 131.076 36.5181 131.223 36.7002 131.3C36.8824 131.378 37.0873 131.38 37.2697 131.305C38.6926 130.603 39.3703 129.039 39.9724 127.643C40.6794 125.882 41.5262 124.182 42.5045 122.559C43.02 121.757 41.8418 120.836 41.3291 121.645C40.4215 123.128 39.6302 124.681 38.9625 126.289C38.4506 127.453 37.9531 129.342 36.724 129.948L37.6954 130.362C36.9489 128.749 36.5362 127.002 36.4826 125.227C36.4169 124.063 36.3107 122.446 35.1697 121.793C34.4491 121.529 33.6751 121.452 32.9195 121.569C31.918 121.504 30.9218 121.369 29.9379 121.166C28.1336 120.914 26.286 120.477 24.4636 120.613L25.0077 121.946C26.1336 121.106 27.2121 120.204 28.2382 119.243C29.2896 118.279 30.5554 117.487 31.4311 116.368C31.5417 116.211 31.5873 116.017 31.5585 115.825C31.5298 115.634 31.4288 115.461 31.2767 115.342C31.1246 115.223 30.9332 115.168 30.7424 115.188C30.5516 115.207 30.3762 115.301 30.2529 115.448Z" fill="#FCCB06"/>
<path d="M71.2341 126.94L71.3305 127.038C71.8482 127.54 72.8368 126.796 72.4656 126.162C71.5421 124.384 70.7654 122.533 70.1435 120.629C70.0683 120.444 69.9238 120.297 69.7416 120.22C69.5594 120.142 69.3546 120.14 69.1721 120.215C68.9896 120.289 68.8445 120.434 68.7686 120.617C68.6927 120.8 68.6923 121.006 68.7675 121.19C69.3895 123.095 70.1661 124.945 71.0896 126.723L72.2345 125.851L72.1312 125.755C71.975 125.635 71.7784 125.582 71.5841 125.606C71.3898 125.631 71.2135 125.732 71.0936 125.887C71.0341 125.965 70.9905 126.054 70.9653 126.149C70.9402 126.244 70.9339 126.344 70.947 126.441C70.9601 126.539 70.9922 126.633 71.0414 126.719C71.0907 126.804 71.1562 126.879 71.2341 126.94Z" fill="#FCCB06"/>
<path d="M68.5447 120.889C68.4925 121.111 68.4164 121.327 68.3178 121.532C68.215 121.753 68.1037 121.952 67.9981 122.165C67.7638 122.633 67.5935 123.14 67.3718 123.62C67.197 124.086 66.9834 124.536 66.7333 124.966C66.4433 125.382 66.1156 125.771 65.7544 126.127C65.6361 126.283 65.5842 126.481 65.6099 126.676C65.6357 126.872 65.7371 127.05 65.8921 127.172C65.9699 127.233 66.0586 127.277 66.1533 127.303C66.2479 127.329 66.3466 127.336 66.4436 127.323C66.5406 127.311 66.6341 127.279 66.7188 127.23C66.8034 127.181 66.8774 127.116 66.9367 127.037C67.3051 126.666 67.6364 126.26 67.9261 125.824C68.2433 125.314 68.5126 124.776 68.7305 124.215C68.93 123.721 69.1351 123.24 69.369 122.732C69.648 122.224 69.8612 121.683 70.0034 121.12C70.0209 121.021 70.0182 120.919 69.9956 120.82C69.9729 120.721 69.9307 120.628 69.8715 120.546C69.8123 120.464 69.7374 120.395 69.6511 120.343C69.5649 120.291 69.4691 120.257 69.3697 120.243C69.2702 120.229 69.1691 120.235 69.0724 120.261C68.9757 120.287 68.8853 120.333 68.8069 120.396C68.7284 120.458 68.6634 120.536 68.6158 120.625C68.5682 120.713 68.5389 120.811 68.5298 120.911L68.5447 120.889Z" fill="#FCCB06"/>
<path d="M71.7774 127.019C72.5707 127.181 73.377 127.267 74.1855 127.276C74.9447 127.347 75.6558 127.437 76.4171 127.434L75.8702 126.094C75.0623 126.67 74.3412 127.36 73.7286 128.143C73.186 128.659 72.5889 129.115 71.9476 129.501C71.816 129.604 71.7228 129.749 71.6831 129.912C71.6434 130.075 71.6595 130.247 71.7288 130.401C71.9077 131.016 72.1033 131.633 72.3264 132.239C72.7174 133.197 73.3416 134.117 73.5166 135.155L74.1644 134.324C73.4708 134.453 72.6811 133.836 72.1254 133.536C71.2717 133.017 70.3776 132.569 69.452 132.197C68.5588 131.856 67.9814 133.234 68.8816 133.572C69.8792 133.979 70.8418 134.47 71.7593 135.038C72.5105 135.597 73.428 135.88 74.3581 135.841C74.4551 135.829 74.5489 135.799 74.634 135.751C74.7191 135.703 74.7939 135.639 74.8541 135.561C74.9143 135.484 74.9586 135.396 74.9847 135.301C75.0107 135.206 75.018 135.107 75.0059 135.009C74.8384 134.275 74.5757 133.565 74.2246 132.898C74.1622 132.745 74.1027 132.599 74.0432 132.454C73.9837 132.308 73.9068 132.218 74.0035 132.356L73.978 132.294C73.9072 132.12 73.8363 131.947 73.7626 131.766C73.5076 131.141 73.3311 130.492 73.1379 129.842L72.9122 130.744C73.5905 130.334 74.2221 129.851 74.796 129.303C75.3754 128.55 76.0624 127.887 76.8348 127.337C76.9682 127.235 77.0632 127.09 77.1042 126.926C77.1452 126.763 77.1298 126.589 77.0605 126.435C77.0018 126.276 76.8916 126.141 76.7477 126.053C76.6037 125.964 76.4347 125.927 76.268 125.948C75.6435 125.952 75.0498 125.854 74.4261 125.8C73.7417 125.806 73.0577 125.755 72.381 125.647C72.1993 125.57 71.9953 125.568 71.8136 125.643C71.6318 125.717 71.4871 125.861 71.411 126.042C71.3359 126.225 71.3358 126.43 71.4107 126.614C71.4856 126.797 71.6293 126.944 71.8105 127.022L71.7774 127.019Z" fill="#FCCB06"/>
<path d="M65.8194 125.705C65.0726 125.839 64.3161 125.912 63.5571 125.924C62.8248 126.03 62.0858 126.085 61.3453 126.089C61.1981 126.106 61.0596 126.167 60.9475 126.264C60.8354 126.361 60.7547 126.489 60.716 126.633C60.6772 126.777 60.682 126.929 60.7299 127.071C60.7777 127.212 60.8664 127.336 60.9845 127.427C61.7436 127.972 62.4511 128.586 63.0977 129.263C63.4559 129.57 63.736 129.942 64.0793 130.272C64.2755 130.441 64.4855 130.594 64.707 130.728C64.8086 130.8 64.9171 130.869 65.0147 130.951C65.1122 131.033 65.3328 131.259 65.1826 131.028C65.0324 130.798 65.1656 130.987 65.1171 131.104C65.0659 131.275 64.9923 131.438 64.8982 131.59C64.7598 131.841 64.5894 132.072 64.4413 132.319C64.2164 132.756 64.0197 133.207 63.8526 133.669C63.6615 134.103 63.5273 134.561 63.4533 135.031C63.4397 135.129 63.4454 135.228 63.47 135.324C63.4946 135.419 63.5377 135.509 63.5968 135.588C63.6559 135.667 63.7298 135.734 63.8143 135.784C63.8988 135.834 63.9922 135.867 64.0892 135.881C65.0472 135.912 65.9835 135.604 66.736 135.012C67.6183 134.447 68.5437 133.953 69.5037 133.534C69.6862 133.46 69.8313 133.315 69.9072 133.132C69.983 132.949 69.9834 132.743 69.9083 132.559C69.8331 132.375 69.6886 132.228 69.5064 132.15C69.3242 132.073 69.1194 132.071 68.9369 132.145C67.9992 132.551 67.0941 133.029 66.2295 133.574C65.7022 133.895 64.9499 134.509 64.2825 134.369L64.9156 135.212C65.0059 134.73 65.161 134.264 65.3768 133.825C65.5256 133.469 65.7023 133.126 65.9052 132.799C66.3241 132.134 66.8817 131.258 66.5473 130.439C66.2911 129.993 65.9094 129.633 65.4508 129.404C65.0255 129.057 64.6268 128.678 64.2579 128.271C63.8827 127.922 63.4966 127.585 63.1323 127.223C62.7724 126.844 62.367 126.511 61.9257 126.233L61.5648 127.571C62.3496 127.564 63.1332 127.514 63.9122 127.423C64.7505 127.394 65.5844 127.293 66.4044 127.119C66.5869 127.045 66.732 126.9 66.8079 126.717C66.8838 126.534 66.8842 126.328 66.809 126.144C66.7339 125.96 66.5893 125.813 66.4071 125.735C66.225 125.658 66.0201 125.656 65.8376 125.73L65.8194 125.705Z" fill="#FCCB06"/>
<path d="M160.482 28.9349L160.576 29.1641C160.931 29.8777 162.164 29.6742 162.025 28.7831C161.52 25.2618 161.309 21.7058 161.395 18.1528C161.383 18.055 161.352 17.9604 161.304 17.8744C161.256 17.7884 161.191 17.7127 161.114 17.6516C161.037 17.5905 160.949 17.5452 160.855 17.5184C160.761 17.4916 160.662 17.4837 160.565 17.4951C160.468 17.5065 160.374 17.537 160.289 17.5849C160.204 17.6329 160.129 17.6973 160.069 17.7745C160.009 17.8517 159.964 17.9402 159.938 18.035C159.912 18.1297 159.905 18.2288 159.917 18.3266C159.831 21.8796 160.042 25.4356 160.547 28.9569L162 28.5829L161.906 28.3538C161.482 27.4901 160.103 28.0447 160.53 28.9153L160.482 28.9349Z" fill="#FCCB06"/>
<path d="M159.712 17.8206C159.227 18.5366 158.649 19.1838 157.994 19.7452C157.309 20.389 156.681 21.091 156.058 21.8069C155.436 22.5539 154.747 23.2418 154 23.862C153.303 24.3719 152.557 24.8094 151.772 25.1681C150.917 25.5899 151.477 26.9816 152.339 26.557C153.16 26.1804 153.946 25.732 154.689 25.2171C155.529 24.5563 156.301 23.8125 156.993 22.9968C157.626 22.2851 158.254 21.5428 158.949 20.8864C159.687 20.2606 160.34 19.5394 160.891 18.7413C161.369 17.9466 160.188 17.019 159.712 17.8206Z" fill="#FCCB06"/>
<path d="M161.38 29.4778C162.544 30.1772 163.771 30.7615 165.046 31.2224C166.203 31.7383 167.285 32.3255 168.493 32.748L168.705 31.3006C166.999 31.7765 165.371 32.493 163.867 33.4287C162.621 34.1316 161.281 34.2896 159.93 34.6952C159.808 34.7442 159.702 34.8247 159.622 34.9285C159.542 35.0324 159.49 35.1559 159.473 35.2867C159.418 36.5081 159.381 37.7546 159.372 38.9731C159.4 40.8495 159.95 42.7879 159.622 44.6391L160.458 44.0142C159.139 43.791 158.139 42.2632 157.326 41.3148C156.178 39.9181 154.919 38.6166 153.563 37.4229C152.827 36.7997 151.93 37.984 152.663 38.6002C154.118 39.9165 155.469 41.3454 156.702 42.8736C157.657 43.9745 158.765 45.2724 160.245 45.4783C160.342 45.4927 160.441 45.4876 160.536 45.4634C160.63 45.4393 160.719 45.3965 160.797 45.3375C160.876 45.2786 160.941 45.2046 160.991 45.1199C161.04 45.0351 161.072 44.9413 161.086 44.8437C161.416 42.9591 160.919 41.0316 160.852 39.1387C160.814 37.9232 160.862 36.7045 160.923 35.4969L160.47 36.0786C161.729 35.7025 163.009 35.5935 164.174 34.9479C165.631 34.0158 167.207 33.2879 168.861 32.7842C169.516 32.6385 169.83 31.6191 169.076 31.3437C167.985 30.9368 166.92 30.4656 165.884 29.9326C164.728 29.3833 163.357 29.0517 162.313 28.3031C161.526 27.7496 160.619 28.9298 161.407 29.4832L161.38 29.4778Z" fill="#FCCB06"/>
<path d="M151.893 24.6712C150.536 24.6094 149.22 24.0204 147.894 23.7193C146.582 23.4407 145.287 23.0847 144.015 22.6529C143.358 22.4188 142.639 23.2144 143.15 23.8162C144.231 25.1085 144.859 26.7643 145.662 28.2427C146.093 29.0228 146.357 29.9441 146.813 30.6893C147.132 31.175 148.14 32.0921 148.044 32.6822C147.897 33.6008 146.42 34.2684 145.804 34.8438C144.596 35.9138 143.571 37.1774 142.772 38.5843C142.697 38.7667 142.697 38.972 142.772 39.1555C142.847 39.339 142.99 39.4856 143.172 39.5634C144.5 40.3013 146.201 39.9472 147.585 39.6416C149.476 39.2019 151.4 38.9179 153.338 38.7927C154.296 38.7585 154.104 37.2653 153.156 37.3036C151.368 37.4109 149.593 37.6641 147.847 38.0605C146.601 38.31 144.956 38.8432 143.763 38.18L144.165 39.1661C144.997 37.7018 146.111 36.4209 147.443 35.3983C148.324 34.7065 149.471 33.7605 149.495 32.56C149.395 31.8247 149.065 31.1392 148.552 30.6036C147.986 29.7023 147.484 28.7619 147.051 27.7896C146.188 26.1487 145.458 24.3 144.246 22.8829L143.38 24.0462C144.708 24.4994 146.063 24.8638 147.437 25.137C148.857 25.4322 150.232 26.0864 151.71 26.1477C152.658 26.1901 152.872 24.7093 151.907 24.6655L151.893 24.6712Z" fill="#FCCB06"/>
<path d="M93.3869 43.4385L93.3635 43.5777C93.3397 43.7573 93.3816 43.94 93.4813 44.0917C93.5809 44.2434 93.7317 44.354 93.9055 44.4028C94.0794 44.4516 94.2645 44.4353 94.4265 44.3571C94.5885 44.2788 94.7164 44.1438 94.7865 43.9772C95.1946 43.122 95.6627 42.2975 96.1874 41.51C96.7247 40.6831 97.2941 39.8756 97.8606 39.0612C97.9201 38.9833 97.9637 38.8943 97.9888 38.7992C98.014 38.7041 98.0202 38.6048 98.0071 38.507C97.9941 38.4092 97.962 38.3149 97.9127 38.2294C97.8635 38.1439 97.798 38.0689 97.72 38.0087C97.6423 37.9483 97.5535 37.9038 97.4589 37.8779C97.3643 37.852 97.2656 37.8451 97.1686 37.8576C97.0715 37.8701 96.978 37.9018 96.8934 37.9508C96.8088 37.9998 96.7347 38.0653 96.6755 38.1433C95.4523 39.794 94.3683 41.5451 93.4347 43.3785L94.8606 43.785L94.8771 43.6486C94.9017 43.5469 94.9047 43.441 94.8861 43.3378C94.8674 43.2346 94.8275 43.1363 94.7688 43.0493C94.7102 42.9623 94.6341 42.8886 94.5456 42.8328C94.4571 42.7771 94.358 42.7406 94.2549 42.7257C94.1517 42.7109 94.0468 42.7179 93.9468 42.7465C93.8468 42.775 93.754 42.8244 93.6744 42.8914C93.5948 42.9585 93.5302 43.0417 93.4847 43.1357C93.4392 43.2296 93.4139 43.3323 93.4104 43.437L93.3869 43.4385Z" fill="#FCCB06"/>
<path d="M96.7745 37.8095C96.3518 37.9603 95.912 38.0582 95.4649 38.1009C94.9557 38.1709 94.4802 38.2839 93.9812 38.3985C93.4471 38.5359 92.9022 38.6282 92.3522 38.6744C91.8706 38.6807 91.3894 38.6354 90.9167 38.5392C89.9672 38.3758 89.7626 39.8608 90.7161 40.0144C91.2641 40.112 91.8198 40.1565 92.3755 40.1473C92.9825 40.1161 93.5843 40.0225 94.1716 39.868C94.6844 39.7479 95.2109 39.6221 95.7366 39.5534C96.2885 39.4998 96.8307 39.3739 97.3494 39.1788C97.5318 39.1044 97.677 38.9598 97.7528 38.7769C97.8287 38.594 97.8291 38.3878 97.754 38.2036C97.6788 38.0195 97.5342 37.8724 97.3521 37.7948C97.1699 37.7172 96.9651 37.7155 96.7826 37.7899L96.7745 37.8095Z" fill="#FCCB06"/>
<path d="M93.6683 44.1369C94.0056 44.8699 94.4095 45.5701 94.875 46.2287C95.228 46.838 95.5409 47.4475 95.953 48.0246L96.8186 46.8613C95.9046 46.5238 94.9483 46.3194 93.9786 46.2542C93.5521 46.2217 93.1333 46.1189 92.7389 45.95C92.4227 45.7945 92.0984 45.6564 91.7675 45.5363C91.6077 45.4846 91.436 45.4853 91.2773 45.5384C91.1186 45.5916 90.9811 45.6943 90.8849 45.8317C90.4867 46.3507 90.0885 46.8696 89.7183 47.4176C89.4908 47.7453 89.2914 48.1022 89.1 48.4395C88.8245 49.0093 88.482 49.5434 88.0799 50.0304L88.9876 50.0326C88.8222 49.7936 88.7248 49.514 88.7059 49.2241C88.6366 48.7987 88.6046 48.3662 88.556 47.9324C88.4682 46.9093 88.3008 45.8942 88.0554 44.8964C87.9802 44.7122 87.8357 44.5651 87.6535 44.4875C87.4713 44.41 87.2665 44.4082 87.084 44.4827C86.9015 44.5571 86.7564 44.7017 86.6805 44.8846C86.6046 45.0675 86.6042 45.2737 86.6794 45.4579C86.9189 46.4844 87.0764 47.5281 87.1505 48.5789C87.1447 49.5437 87.4843 50.4807 88.1071 51.2182C88.2376 51.3194 88.3974 51.3744 88.5616 51.3748C88.7258 51.3752 88.8852 51.3209 89.0149 51.2204C89.5099 50.6855 89.9288 50.0838 90.2596 49.4325L90.6671 48.7397C90.7334 48.6073 90.6153 48.8094 90.6982 48.6784L90.8751 48.4037C91.2603 47.8334 91.6649 47.2713 92.0935 46.7481L91.2145 46.9934C91.9582 47.3278 92.736 47.5782 93.5336 47.7401C93.9638 47.7913 94.3916 47.876 94.8246 47.9342C95.3164 47.9802 95.8001 48.0935 96.2623 48.271C96.4161 48.3391 96.5879 48.3531 96.7498 48.3106C96.9118 48.2682 97.0544 48.1718 97.1546 48.0372C97.2547 47.9026 97.3066 47.7375 97.3017 47.5688C97.2969 47.4002 97.2356 47.2377 97.1278 47.1077C96.7794 46.5973 96.459 46.0682 96.168 45.5228C95.736 44.8999 95.3572 44.2415 95.0358 43.5546C94.7115 42.6419 93.3384 43.2104 93.6598 44.1161L93.6683 44.1369Z" fill="#FCCB06"/>
<path d="M91.2916 38.3962C90.7452 37.8614 90.2413 37.2842 89.7846 36.67C89.2764 36.1235 88.8022 35.5459 88.3647 34.9407C88.265 34.8098 88.1256 34.7152 87.9678 34.6716C87.81 34.6279 87.6427 34.6377 87.4917 34.6993C87.3407 34.761 87.2143 34.8711 87.1321 35.0126C87.0499 35.1542 87.0164 35.3193 87.0368 35.4826C87.0321 36.3668 86.9457 37.2482 86.7789 38.1153C86.7272 38.5982 86.5731 39.0661 86.5144 39.5518C86.4968 39.8204 86.4995 40.0901 86.5226 40.3585C86.5538 40.4349 86.5299 40.5337 86.5267 40.6242C86.5235 40.7146 86.4778 40.9763 86.536 40.8634C86.5943 40.7505 86.536 40.8634 86.4122 40.9139C86.2791 40.9475 86.1435 40.9703 86.0067 40.9822C85.7003 41.0181 85.3907 41.0067 85.0787 41.0288C84.6473 41.0942 84.2198 41.1822 83.7978 41.2922C83.3059 41.3786 82.828 41.53 82.3764 41.7426C82.194 41.8171 82.0488 41.9617 81.973 42.1445C81.8971 42.3274 81.8967 42.5336 81.9718 42.7178C82.4908 43.5379 83.2801 44.1484 84.2 44.4413C85.1688 44.8343 86.1046 45.3058 86.9984 45.8511C87.7982 46.3754 88.7119 45.1924 87.9052 44.671C87.0498 44.1355 86.1554 43.6664 85.2299 43.2677C84.8579 43.1035 84.4888 42.9463 84.1249 42.7627C83.7967 42.6354 83.513 42.4127 83.3102 42.1231L82.9056 43.0983C83.771 42.6977 84.7106 42.4825 85.6653 42.4663C86.4524 42.4286 87.3978 42.3263 87.8255 41.5847C88.0182 41.1147 88.0854 40.6014 88.0204 40.0956C88.052 39.5582 88.1209 39.0239 88.2267 38.4966C88.4387 37.4465 88.5399 36.3761 88.5286 35.3032L87.2008 35.845C87.6818 36.4877 88.2001 37.1012 88.7531 37.6823C89.2546 38.3595 89.8154 38.9901 90.4289 39.5665C90.5857 39.6788 90.7793 39.726 90.969 39.6983C91.1587 39.6705 91.33 39.57 91.4471 39.4177C91.5641 39.2654 91.6179 39.073 91.5971 38.8808C91.5764 38.6886 91.4827 38.5115 91.3357 38.3863L91.2916 38.3962Z" fill="#FCCB06"/>
<path d="M60.638 154.891C57.945 155.018 57.7888 158.549 58.2691 160.532C58.584 161.877 59.2502 163.116 60.1987 164.119C61.1471 165.122 62.3433 165.854 63.663 166.237C66.6908 166.97 69.3592 164.836 70.4092 162.099C71.4591 159.362 71.0779 156.107 68.7643 154.135C66.2888 152.002 62.1651 152.477 59.8893 154.629C59.2009 155.283 60.0987 156.48 60.8008 155.821C61.6261 155.034 62.6671 154.513 63.7912 154.326C64.9153 154.138 66.0716 154.292 67.1127 154.768C69.2101 155.856 69.7871 158.391 69.3268 160.548C68.8665 162.704 67.2264 164.88 64.8693 164.886C62.5122 164.892 60.7531 162.961 59.9661 160.973C59.6327 160.128 59.4922 159.219 59.555 158.314C59.6156 157.479 59.8122 156.427 60.8203 156.38C61.8285 156.333 61.5895 154.843 60.638 154.891Z" fill="#FCCB06"/>
<path d="M60.9857 164.935C60.412 166.263 59.6104 167.465 59.2847 168.869C58.9251 170.634 58.8521 172.447 59.0684 174.239C59.5003 177.992 60.9289 181.395 62.343 184.86C62.4182 185.044 62.5628 185.191 62.7449 185.269C62.9271 185.346 63.1319 185.348 63.3144 185.273C63.4969 185.199 63.642 185.054 63.7179 184.872C63.7938 184.689 63.7942 184.482 63.719 184.298C62.3899 181.041 61.1062 177.896 60.5857 174.398C60.3592 172.728 60.3966 171.034 60.6964 169.379C60.9282 167.98 61.7796 166.782 62.3149 165.478C62.7025 164.599 61.3231 164.011 60.9452 164.895L60.9857 164.935Z" fill="#FCCB06"/>
<path d="M64.0414 185.216L72.5175 181.757C72.6999 181.682 72.8451 181.538 72.9209 181.355C72.9968 181.172 72.9972 180.966 72.9221 180.782C72.8469 180.598 72.7023 180.451 72.5202 180.373C72.338 180.295 72.1331 180.294 71.9507 180.368L63.4747 183.827C63.2922 183.901 63.1471 184.046 63.0712 184.229C62.9953 184.412 62.9949 184.618 63.0701 184.802C63.1452 184.986 63.2898 185.133 63.472 185.211C63.6541 185.289 63.859 185.29 64.0414 185.216Z" fill="#FCCB06"/>
<path d="M70.3192 162.271C71.6289 162.806 73.0547 163.074 74.2046 163.925C75.5769 164.897 76.7869 166.082 77.7884 167.437C79.8994 170.269 81.1418 173.432 82.4709 176.689C82.546 176.873 82.6906 177.02 82.8728 177.098C83.0549 177.175 83.2598 177.177 83.4423 177.103C83.6247 177.028 83.7699 176.884 83.8457 176.701C83.9216 176.518 83.922 176.312 83.8469 176.128C82.4299 172.655 81.0414 169.253 78.7628 166.245C77.6898 164.859 76.4123 163.645 74.9751 162.647C73.7228 161.781 72.2564 161.472 70.8759 160.901C69.981 160.537 69.4134 161.919 70.2985 162.279L70.3192 162.271Z" fill="#FCCB06"/>
<path d="M82.3276 176.128L72.2004 180.261C72.0179 180.335 71.8728 180.48 71.7969 180.663C71.721 180.846 71.7206 181.052 71.7958 181.236C71.8709 181.42 72.0155 181.567 72.1977 181.645C72.3798 181.722 72.5847 181.724 72.7671 181.65L82.8943 177.517C83.0768 177.443 83.2219 177.298 83.2978 177.115C83.3737 176.932 83.3741 176.726 83.2989 176.542C83.2238 176.358 83.0792 176.211 82.897 176.133C82.7149 176.056 82.51 176.054 82.3276 176.128Z" fill="#FCCB06"/>
<path d="M142.852 66.38C140.585 67.7266 142.077 70.8925 143.36 72.4025C145.214 74.5864 148.508 75.8344 151.253 74.8519C157.049 72.8107 155.395 63.3679 149.986 61.9135C146.708 61.0396 143.16 63.3382 142.097 66.4774C141.803 67.4077 143.167 67.9771 143.477 67.0648C144.215 64.9408 146.385 63.0995 148.688 63.1966C150.991 63.2938 152.461 65.0674 153.093 67.0695C153.726 69.0715 153.45 71.6222 151.696 72.9293C149.608 74.4783 146.68 73.4779 144.916 71.889C144.276 71.2793 143.77 70.5419 143.431 69.7246C143.093 68.8982 142.931 68.0489 143.751 67.5604C143.906 67.4389 144.006 67.2604 144.029 67.0641C144.053 66.8677 143.998 66.6694 143.877 66.5125C143.818 66.4342 143.743 66.3685 143.658 66.319C143.573 66.2696 143.48 66.2374 143.383 66.2243C143.286 66.2112 143.187 66.2175 143.093 66.2428C142.998 66.2681 142.91 66.3119 142.833 66.3717L142.852 66.38Z" fill="#FCCB06"/>
<path d="M147.842 75.1338C147.967 76.7593 147.823 78.3331 148.353 79.9071C148.924 81.6299 149.755 83.2553 150.817 84.7261C152.966 87.6322 155.607 89.8758 158.354 92.1816C159.094 92.7951 159.991 91.6108 159.261 91.0015C156.697 88.848 154.211 86.768 152.19 84.077C151.158 82.6847 150.347 81.141 149.785 79.5012C149.275 78.0161 149.435 76.5007 149.323 74.9669C149.249 74.0004 147.771 74.1742 147.842 75.1338Z" fill="#FCCB06"/>
<path d="M159.98 91.6165L165.849 84.58C166.456 83.8461 165.274 82.9352 164.673 83.6663L158.795 90.6987C158.181 91.4354 159.366 92.3533 159.971 91.6124L159.98 91.6165Z" fill="#FCCB06"/>
<path d="M154.871 68.3351C156.559 68.1647 158.068 67.7515 159.777 68.0832C161.405 68.3892 162.98 68.9365 164.452 69.7072C167.263 71.3144 169.89 73.2315 172.282 75.4229C173.018 76.0461 173.922 74.859 173.189 74.2428C171.879 73.1571 170.585 71.9921 169.212 70.9484C167.825 69.9244 166.357 69.0171 164.823 68.2356C163.295 67.4576 161.661 66.9145 159.976 66.6247C159.094 66.4402 158.19 66.3938 157.295 66.4872C156.418 66.5781 155.562 66.7816 154.684 66.8725C154.488 66.8955 154.309 66.996 154.188 67.152C154.066 67.3079 154.012 67.5064 154.036 67.7039C154.06 67.9014 154.161 68.0816 154.317 68.2049C154.473 68.3282 154.67 68.3846 154.866 68.3615L154.871 68.3351Z" fill="#FCCB06"/>
<path d="M171.813 75.0098L164.821 83.4443C164.207 84.181 165.392 85.0988 165.997 84.358L172.991 75.9305C173.605 75.1937 172.42 74.2759 171.813 75.0098Z" fill="#FCCB06"/>
<path d="M74.1125 91.7663C76.5798 92.8171 79.0438 93.8665 81.5047 94.9145C81.6827 94.9746 81.8763 94.9649 82.0467 94.8875C82.217 94.8101 82.3517 94.6706 82.4238 94.497C82.4958 94.3233 82.5 94.1282 82.4353 93.9507C82.3707 93.7732 82.2421 93.6263 82.0751 93.5395L74.683 90.3913C74.505 90.3312 74.3114 90.3409 74.141 90.4183C73.9706 90.4957 73.8359 90.6352 73.7639 90.8089C73.6918 90.9825 73.6877 91.1776 73.7523 91.3551C73.817 91.5326 73.9456 91.6795 74.1125 91.7663Z" fill="#FCCB06"/>
<path d="M77.5093 96.0339C78.2781 94.181 79.044 92.3212 79.8196 90.4655C79.8569 90.3748 79.876 90.2774 79.8758 90.179C79.8757 90.0806 79.8563 89.983 79.8187 89.8919C79.7811 89.8008 79.7262 89.7179 79.6569 89.6479C79.5877 89.578 79.5055 89.5224 79.4152 89.4843C79.3248 89.4462 79.2279 89.4263 79.1302 89.4258C79.0324 89.4253 78.9356 89.4442 78.8454 89.4814C78.7551 89.5186 78.6731 89.5734 78.6041 89.6427C78.5351 89.7119 78.4803 89.7943 78.4431 89.885L76.13 95.4464C76.0538 95.63 76.0534 95.8371 76.1288 96.022C76.2043 96.207 76.3494 96.3546 76.5324 96.4325C76.7153 96.5104 76.921 96.5122 77.1042 96.4374C77.2874 96.3627 77.4331 96.2175 77.5093 96.0339Z" fill="#FCCB06"/>
<path d="M95.8732 187.378C98.3385 188.424 100.803 189.474 103.265 190.526C103.448 190.603 103.653 190.604 103.835 190.529C104.017 190.454 104.162 190.309 104.237 190.126C104.313 189.942 104.312 189.736 104.236 189.552C104.161 189.368 104.015 189.221 103.833 189.144C101.37 188.092 98.9062 187.042 96.4408 185.996C96.2583 185.919 96.0533 185.918 95.871 185.993C95.6887 186.068 95.544 186.214 95.4687 186.397C95.3934 186.58 95.3938 186.786 95.4696 186.97C95.5455 187.154 95.6906 187.301 95.8732 187.378Z" fill="#FCCB06"/>
<path d="M99.2655 191.642L101.576 186.073C101.613 185.982 101.632 185.885 101.632 185.787C101.632 185.688 101.612 185.591 101.575 185.5C101.537 185.408 101.482 185.326 101.413 185.256C101.344 185.186 101.262 185.13 101.171 185.092C101.081 185.054 100.984 185.034 100.886 185.033C100.789 185.033 100.692 185.052 100.602 185.089C100.511 185.126 100.429 185.181 100.36 185.25C100.291 185.32 100.237 185.402 100.199 185.493L97.889 191.061C97.8517 191.152 97.8326 191.249 97.8327 191.348C97.8329 191.446 97.8523 191.544 97.8899 191.635C97.9274 191.726 97.9824 191.809 98.0516 191.879C98.1209 191.949 98.203 192.004 98.2934 192.042C98.3838 192.08 98.4806 192.1 98.5784 192.101C98.6762 192.101 98.7729 192.082 98.8632 192.045C98.9535 192.008 99.0355 191.953 99.1045 191.884C99.1735 191.815 99.2282 191.732 99.2655 191.642Z" fill="#FCCB06"/>
<path d="M118.129 105.024L125.522 108.173C125.705 108.25 125.91 108.252 126.093 108.177C126.277 108.103 126.422 107.957 126.499 107.774C126.575 107.59 126.575 107.383 126.5 107.198C126.424 107.013 126.279 106.866 126.096 106.788C123.631 105.742 121.167 104.692 118.704 103.64C118.613 103.601 118.516 103.581 118.418 103.58C118.32 103.579 118.223 103.598 118.132 103.635C118.041 103.672 117.959 103.726 117.89 103.796C117.82 103.865 117.765 103.947 117.727 104.038C117.689 104.129 117.67 104.227 117.67 104.326C117.669 104.424 117.689 104.522 117.726 104.614C117.763 104.705 117.818 104.789 117.887 104.859C117.957 104.93 118.039 104.986 118.129 105.024Z" fill="#FCCB06"/>
<path d="M121.512 109.289L123.823 103.72C123.898 103.538 123.898 103.333 123.823 103.149C123.748 102.966 123.604 102.819 123.423 102.741C123.333 102.702 123.235 102.682 123.137 102.681C123.039 102.68 122.942 102.698 122.851 102.735C122.76 102.772 122.677 102.827 122.608 102.896C122.539 102.966 122.484 103.049 122.446 103.14L120.143 108.705C120.084 108.884 120.095 109.079 120.173 109.251C120.251 109.423 120.391 109.56 120.563 109.633C120.736 109.707 120.93 109.713 121.106 109.649C121.282 109.585 121.427 109.456 121.512 109.289Z" fill="#FCCB06"/>
<path d="M67.0406 62.6128C66.9352 63.2447 66.954 63.892 67.0959 64.5183C67.1635 64.877 67.2713 65.227 67.4174 65.5617C67.5019 65.739 67.5964 65.9114 67.7003 66.0781C67.7258 66.1406 67.7542 66.21 67.8347 66.2501C67.9043 66.3603 67.995 66.4555 68.1015 66.5301C68.1735 66.5493 68.0533 66.412 68.0816 66.4814C68.0867 66.514 68.0993 66.5449 68.1185 66.5717C68.1601 66.6235 68.2044 66.673 68.2512 66.7201C68.3738 66.8506 68.5083 66.9693 68.6527 67.0747C68.9321 67.2743 69.245 67.4212 69.576 67.508C70.1092 67.6315 70.6669 67.5721 71.1604 67.3394C71.7085 67.0777 72.1536 66.6396 72.4258 66.0939C72.6854 65.5288 72.7741 64.8983 72.681 64.2805C72.6321 63.7039 72.4626 63.1434 72.1836 62.6359C71.9046 62.1285 71.5224 61.6855 71.0622 61.3363C70.5393 60.9539 69.8961 60.778 69.2555 60.8422C68.5079 60.9771 67.8311 61.3677 67.3392 61.9482C67.2209 62.1047 67.169 62.3023 67.1948 62.4981C67.2206 62.6938 67.322 62.8719 67.477 62.9937C67.6332 63.1139 67.8298 63.1674 68.0241 63.1427C68.2184 63.1181 68.3947 63.0171 68.5147 62.8619C68.5347 62.8333 68.5603 62.8091 68.5899 62.7907L68.7255 62.6705C68.8402 62.5999 68.9507 62.5224 69.0561 62.4384L69.3382 62.3233C69.3932 62.3008 69.4483 62.2784 69.2625 62.3542L69.352 62.3177L69.6377 62.2902C69.755 62.2828 69.4552 62.2756 69.6377 62.2902L69.7996 62.3132C69.7996 62.3132 69.9271 62.3503 69.9477 62.3419C69.9683 62.3335 69.7619 62.28 69.8659 62.3186L69.9003 62.3045C69.9982 62.3394 70.0934 62.3819 70.1849 62.4314C70.029 62.3249 70.2946 62.4839 70.1849 62.4314L70.2933 62.5006C70.3803 62.567 70.4631 62.6387 70.5415 62.7153C70.567 62.7778 70.5046 62.625 70.5075 62.6319C70.5128 62.6565 70.5224 62.68 70.5358 62.7014C70.5743 62.7411 70.6103 62.7832 70.6435 62.8276C70.7148 62.9095 70.7798 62.9966 70.8382 63.0883C70.858 63.1369 70.8807 63.1925 70.9005 63.2411C70.9203 63.2897 70.8325 63.0744 70.8637 63.1508C70.8948 63.2272 70.8863 63.2064 70.8948 63.2272C70.9033 63.2481 70.9827 63.4425 71.0252 63.5467C71.0677 63.6508 71.1074 63.7481 71.1499 63.8522C71.1924 63.9564 71.1855 64.0969 71.1499 63.8522C71.1697 63.9008 71.1952 63.9633 71.2151 64.0119C71.2349 64.0606 71.2576 64.2538 71.2726 64.3692L71.288 64.5249C71.2827 64.5944 71.2843 64.6643 71.2929 64.7336C71.2929 64.7336 71.2965 64.5458 71.273 64.685L71.2957 64.7405C71.296 64.7986 71.2929 64.8567 71.2864 64.9144L71.2589 65.0634C71.3075 64.9463 71.2249 65.2554 71.2589 65.0634C71.2285 65.1573 71.1906 65.2486 71.1456 65.3364C71.2043 65.2639 71.0631 65.5078 71.1456 65.3364L71.0598 65.4605L70.9643 65.5805L70.9024 65.6058C70.9024 65.6058 71.0449 65.4828 70.9712 65.5777C70.899 65.6443 70.822 65.7055 70.7409 65.7608C70.7409 65.7608 70.5621 65.8338 70.6928 65.7804C70.8235 65.7271 70.6928 65.7804 70.6309 65.8057L70.5139 65.8534C70.4795 65.8675 70.3006 65.9405 70.4382 65.8843C70.5758 65.8282 70.4382 65.8843 70.397 65.9012L70.2662 65.9545C70.2662 65.9545 70.1294 65.9536 70.1185 65.9662C70.1076 65.9787 70.2844 65.9795 70.2221 65.9644L70.1323 65.9606L69.9841 65.9319C69.9841 65.9319 69.8 65.8936 69.936 65.9516C70.072 66.0095 69.936 65.9516 69.8651 65.9157C69.7943 65.8797 69.7583 65.8701 69.7 65.8453C69.853 65.9449 69.6417 65.8205 69.7 65.8453C69.547 65.7457 69.6235 65.7955 69.5859 65.7623C69.5398 65.7288 69.4956 65.6928 69.4535 65.6543C69.428 65.5918 69.428 65.5918 69.4762 65.7098C69.4508 65.6784 69.4228 65.6492 69.3924 65.6225C69.3669 65.56 69.3414 65.4975 69.2609 65.4575C69.1803 65.4174 69.1617 65.3521 69.1087 65.3009C69.2163 65.427 69.0556 65.2496 69.1087 65.3009L68.9674 65.1317C68.9674 65.1317 68.9447 65.0761 68.9306 65.0414C68.9306 65.0414 68.769 64.6456 68.7492 64.597C68.7294 64.5484 68.6953 64.465 68.667 64.3956C68.6472 64.3662 68.6337 64.3331 68.6273 64.2984C68.6698 64.4025 68.6585 64.3747 68.6273 64.2984C68.5587 63.9901 68.5167 63.6765 68.5018 63.3613C68.5018 63.3613 68.4791 63.3057 68.4649 63.271L68.4479 63.2294C68.4224 63.1669 68.4167 63.153 68.4548 63.0888C68.4651 62.9651 68.4818 62.842 68.5049 62.72C68.5224 62.5278 68.4654 62.3356 68.3457 62.1838C68.2261 62.032 68.0531 61.9321 67.8629 61.9052C67.6727 61.8782 67.48 61.9263 67.325 62.0392C67.1701 62.1522 67.0648 62.3213 67.0313 62.5113L67.0406 62.6128Z" fill="#FCCB06"/>
<path d="M118.932 42.1632L124.601 39.8498C124.783 39.7753 124.928 39.6308 125.004 39.4479C125.08 39.265 125.081 39.0588 125.005 38.8746C124.93 38.6904 124.786 38.5434 124.603 38.4658C124.421 38.3882 124.216 38.3865 124.034 38.4609L118.365 40.7743C118.183 40.8488 118.037 40.9933 117.962 41.1762C117.886 41.3591 117.885 41.5653 117.96 41.7495C118.036 41.9337 118.18 42.0807 118.362 42.1583C118.544 42.2359 118.749 42.2376 118.932 42.1632Z" fill="#FCCB06"/>
<path d="M8.67199 88.2351L14.3204 85.9302C14.5028 85.8557 14.648 85.7111 14.7239 85.5283C14.7997 85.3454 14.8001 85.1392 14.725 84.955C14.6498 84.7708 14.5053 84.6238 14.3231 84.5462C14.1409 84.4686 13.9361 84.4668 13.7536 84.5413L8.10522 86.8463C7.92276 86.9207 7.77762 87.0653 7.70174 87.2482C7.62587 87.4311 7.62546 87.6373 7.70062 87.8215C7.77578 88.0056 7.92034 88.1527 8.10251 88.2303C8.28468 88.3079 8.48953 88.3096 8.67199 88.2351Z" fill="#FCCB06"/>
<path d="M37.7744 62.0103C38.168 62.114 38.5695 62.1832 38.9744 62.2173C39.4184 62.2629 39.841 62.374 40.3036 62.485C41.1758 62.6556 42.0945 62.7829 42.9995 62.9159C43.214 62.9499 43.7255 62.4333 43.4017 62.3872C42.5437 62.2513 41.6856 62.1154 40.8191 61.9586C40.401 61.8781 39.9951 61.7684 39.5815 61.7184C39.1587 61.6883 38.7392 61.621 38.3276 61.5172C38.2449 61.507 38.161 61.5181 38.084 61.5496C38.007 61.581 37.9393 61.6317 37.8873 61.6969C37.8254 61.7222 37.6567 61.9773 37.8133 62.0268L37.7744 62.0103Z" fill="#FCCB06"/>
<path d="M45.4061 63.4639C46.0168 63.6036 46.651 63.604 47.2723 63.6907C47.8935 63.7774 48.582 63.8124 49.2324 63.9115C49.3231 63.919 49.4139 63.9009 49.4948 63.8594C49.5756 63.8178 49.6432 63.7544 49.6901 63.6762C49.7621 63.5577 49.7669 63.3532 49.554 63.3428C48.9008 63.2368 48.2524 63.2016 47.598 63.1122C46.9436 63.0229 46.3454 63.032 45.7347 62.8924C45.4396 62.8184 44.9811 63.3862 45.3717 63.478L45.4061 63.4639Z" fill="#FCCB06"/>
<path d="M34.4324 65.9304C34.9314 66.0951 35.4516 66.1832 35.9757 66.1918C36.6758 66.2949 37.3805 66.4286 38.0709 66.5276C39.4689 66.7233 40.8486 67.0383 42.1951 67.4693C42.4169 67.5408 42.9312 67.0311 42.7123 66.9666C41.4131 66.5385 40.0798 66.226 38.7277 66.0327C38.047 65.9379 37.3573 65.7819 36.6948 65.712C36.4042 65.6686 36.1108 65.6182 35.8396 65.583C35.541 65.5836 35.2447 65.5257 34.9674 65.4124C34.7646 65.3088 34.2309 65.8102 34.4531 65.922L34.4324 65.9304Z" fill="#FCCB06"/>
<path d="M44.1518 68.0614C44.8773 68.2103 45.6126 68.3029 46.3515 68.3384C47.2344 68.4701 48.106 68.6725 48.9579 68.9435C49.7423 69.1743 50.5157 69.4176 51.3203 69.5997C51.7538 69.6982 52.1925 69.7703 52.6495 69.8674C53.0007 69.8912 53.3497 69.9439 53.6928 70.0248C53.9466 70.1157 54.4678 69.6033 54.1946 69.5041C53.9127 69.4176 53.6219 69.365 53.3281 69.3474C52.9242 69.3016 52.5199 69.2155 52.1184 69.1363C51.2434 68.9587 50.34 68.7117 49.5083 68.4435C48.7272 68.2015 47.9337 68.0034 47.1313 67.85C46.3263 67.7935 45.5246 67.6934 44.7297 67.5502C44.4706 67.4857 43.966 67.9995 44.221 68.0737L44.1518 68.0614Z" fill="#FCCB06"/>
<path d="M33.3685 69.0695C34.8397 69.5871 36.4282 69.5464 37.9192 69.9748C38.002 69.985 38.0858 69.9739 38.1628 69.9425C38.2398 69.911 38.3075 69.8603 38.3595 69.7952C38.4214 69.7699 38.5873 69.5078 38.4307 69.4583C36.9397 69.0298 35.3597 69.0913 33.8771 68.546C33.6456 68.4703 33.1313 68.98 33.3656 69.0626L33.3685 69.0695Z" fill="#FCCB06"/>
<path d="M46.1751 71.9561C46.8797 72.1236 47.5921 72.2547 48.3096 72.3488C49.0547 72.5227 49.7853 72.7592 50.517 72.979C52.004 73.4172 53.5104 73.8637 55.014 74.1655C55.3463 74.2325 55.7728 73.6453 55.3684 73.5592C53.8414 73.2588 52.3378 72.8193 50.8715 72.3726C50.1592 72.1611 49.4509 71.9398 48.7264 71.7574C48.0019 71.5751 47.2532 71.589 46.5295 71.3497C46.2135 71.2438 45.7744 71.8199 46.182 71.9533L46.1751 71.9561Z" fill="#FCCB06"/>
<path d="M35.4016 73.9385C35.685 74.3575 36.545 74.4197 37.0003 74.4931C37.6965 74.606 38.3845 74.7383 39.0822 74.8749C40.5425 75.1295 41.9999 75.3773 43.4375 75.7141C44.8751 76.051 46.3103 76.4212 47.7588 76.7455C49.2073 77.0698 50.5749 77.3137 51.9486 77.7496C52.6763 77.9792 53.3826 78.2742 54.1046 78.4899C54.4624 78.6024 54.8276 78.6889 55.1974 78.7487C55.5248 78.7757 55.8419 78.8793 56.1234 79.0513L56.2893 78.5138C56.1583 78.5782 56.0521 78.6841 55.987 78.8154C55.7717 79.2515 56.3938 79.2812 56.5576 78.9551L56.4269 79.0085C56.6058 78.9355 56.8211 78.637 56.5928 78.4709C56.1344 78.219 55.6292 78.0664 55.1099 78.023C54.4812 77.8591 53.8627 77.657 53.2578 77.4178C51.9448 76.9499 50.5988 76.5838 49.2315 76.3228C46.3547 75.7631 43.5346 74.9293 40.6363 74.4351C39.8418 74.2976 39.0405 74.1628 38.2375 74.0044C37.8623 73.9307 37.4888 73.8806 37.1107 73.8C36.7327 73.7193 36.1633 73.7006 35.9949 73.4452C35.8265 73.1899 35.2021 73.6068 35.3806 73.9066L35.4016 73.9385Z" fill="#FCCB06"/>
<path d="M44.1677 80.7769C46.2444 81.1851 48.355 81.4012 50.4604 81.6437C51.4633 81.761 52.4779 81.8087 53.4824 81.9497C54.487 82.0906 55.5279 82.4192 56.5685 82.5697C56.8854 82.6186 57.3188 82.0286 56.9161 81.9661C55.9046 81.828 54.93 81.5047 53.9158 81.3597C52.9016 81.2146 51.8452 81.1434 50.7966 81.0124C48.6957 80.8004 46.5944 80.5481 44.5108 80.1427C44.1883 80.0799 43.752 80.6629 44.1564 80.7491L44.1677 80.7769Z" fill="#FCCB06"/>
<path d="M67.9121 64.6097C69.357 64.9841 70.7186 65.5869 72.2112 65.9013C72.5131 65.9725 72.9619 65.4005 72.5644 65.3116C71.1062 64.9832 69.72 64.3985 68.2654 64.02C67.9703 63.946 67.5187 64.511 67.9121 64.6097Z" fill="#FCCB06"/>
<path d="M68.2626 62.9416C69.2199 63.3206 70.2746 63.5058 71.2791 63.7845C71.3714 63.7981 71.4655 63.7833 71.5489 63.7421C71.6324 63.7008 71.7013 63.6349 71.7465 63.5532C71.7668 63.5218 71.7792 63.4859 71.7827 63.4485C71.7861 63.4111 71.7805 63.3734 71.7663 63.3386C71.7521 63.3038 71.7297 63.2729 71.7011 63.2486C71.6725 63.2243 71.6385 63.2073 71.602 63.1991C70.5878 62.9163 69.5606 62.7198 68.5758 62.3521C68.2735 62.2405 67.8316 62.8097 68.2282 62.9556L68.2626 62.9416Z" fill="#FCCB06"/>
<path d="M86.2629 44.3321C86.4414 44.1506 86.5857 43.9381 86.689 43.7046C86.778 43.4901 86.8379 43.2631 86.9269 43.0486C87.1195 42.5568 87.3315 42.0734 87.4561 41.5527C87.5002 41.4051 87.3185 41.4711 87.2525 41.5061C87.1648 41.5471 87.0842 41.6019 87.0137 41.6684C86.9501 41.7136 86.9004 41.7759 86.8705 41.8484C86.7123 42.3261 86.5484 42.7899 86.3765 43.2732C86.3279 43.3902 86.2766 43.5003 86.2377 43.6214C86.2138 43.7176 86.1824 43.8116 86.1439 43.9028L86.0099 44.1842C85.9625 44.2626 85.9057 44.3348 85.8408 44.3991C85.7789 44.4243 85.6773 44.6278 85.8388 44.6105C86.004 44.5608 86.1513 44.4641 86.2629 44.3321Z" fill="#FCCB06"/>
<path d="M87.141 45.3034C88.0139 44.7285 88.3315 43.6187 88.7867 42.7282C89.4345 41.4836 90.1114 40.2515 90.8037 39.0373C90.8839 38.8993 90.7806 38.8037 90.6426 38.8195C90.5536 38.8366 90.4698 38.8739 90.3976 38.9287C90.3253 38.9834 90.2666 39.0542 90.2258 39.1355C89.5796 40.2659 88.9694 41.406 88.3524 42.5489C88.1233 42.9907 87.9166 43.4477 87.711 43.8881C87.5475 44.3299 87.2731 44.721 86.9143 45.0233C86.8111 45.0654 86.6419 45.2802 86.7399 45.4023C86.8379 45.5243 87.0645 45.3913 87.1523 45.3312L87.141 45.3034Z" fill="#FCCB06"/>
<path d="M87.6495 47.0679C88.308 47.0099 88.6827 46.217 89.0469 45.7524C89.6614 44.9801 90.2326 44.1737 90.7577 43.3369C91.6548 41.8772 92.6255 40.0472 94.2783 39.3971C94.4159 39.3409 94.6397 39.201 94.6324 39.0258C94.6251 38.8505 94.4891 38.7926 94.3377 38.8544C92.8605 39.5636 91.6497 40.7303 90.8814 42.1847C90.3833 42.9307 89.9625 43.6695 89.4599 44.385C89.1698 44.795 88.8728 45.2078 88.5632 45.6096C88.4268 45.7867 88.271 45.9556 88.1375 46.1397C88.0926 46.2067 87.9615 46.4951 87.8773 46.5051C87.5888 46.5257 87.212 47.1169 87.6524 47.0749L87.6495 47.0679Z" fill="#FCCB06"/>
<path d="M89.4366 48.9807C89.9704 48.6139 90.415 48.1307 90.7376 47.5668C91.2556 46.8694 91.6683 46.1501 92.1183 45.4237C92.9803 44.0215 94.0428 42.7555 95.2718 41.6661C95.3677 41.5864 95.5441 41.4091 95.4377 41.2662C95.3312 41.1234 95.1017 41.2494 95.0127 41.3262C93.8537 42.3321 92.8335 43.4894 91.979 44.7677C91.5407 45.4245 91.147 46.1117 90.7116 46.7754C90.4858 47.1268 90.2475 47.4671 89.9966 47.7963C89.833 48.0831 89.6127 48.3329 89.3491 48.5303C89.0193 48.7054 88.9995 49.2076 89.4366 48.9807Z" fill="#FCCB06"/>
<path d="M87.8506 40.1452C88.465 39.84 88.9458 39.3182 89.2022 38.6783C89.3361 38.3968 89.4506 38.107 89.5748 37.8214C89.6315 37.6849 89.6881 37.5484 89.7545 37.416C89.8079 37.305 89.8726 37.1999 89.9475 37.1023C90.0183 37.0005 90.0482 36.8182 89.8863 36.7951C89.7966 36.798 89.709 36.822 89.6304 36.8653C89.5519 36.9086 89.4847 36.97 89.4343 37.0444C89.145 37.5249 88.9035 38.0331 88.7133 38.5618C88.6112 38.8071 88.4868 39.0422 88.3418 39.2643L88.29 39.334L88.2487 39.3509L88.1079 39.4974L88.0185 39.5339C88.0185 39.5339 87.9015 39.5817 87.9634 39.5564C87.8784 39.5823 87.8012 39.6292 87.7388 39.6928C87.6765 39.7564 87.631 39.8348 87.6065 39.9208C87.5778 40.0864 87.7591 40.1177 87.883 40.0672L87.8506 40.1452Z" fill="#FCCB06"/>
<path d="M93.6214 78.3331C96.0324 79.423 98.3719 80.6718 100.833 81.6683C102.055 82.1659 103.282 82.6538 104.5 83.1611C105.672 83.6933 106.886 84.1275 108.128 84.4594C108.351 84.5142 108.835 84.0088 108.648 83.9636C107.442 83.6328 106.264 83.206 105.125 82.6873C103.882 82.1577 102.622 81.6672 101.371 81.1572C98.9194 80.1648 96.58 78.916 94.1592 77.822C93.9649 77.7392 93.4352 78.2308 93.6421 78.3246L93.6214 78.3331Z" fill="#FCCB06"/>
<path d="M111.336 85.4483C112.479 85.7918 113.613 85.9934 114.743 86.2855C115.873 86.5776 117.01 86.8266 118.136 87.0477C118.217 87.0528 118.298 87.0395 118.373 87.0089C118.448 86.9783 118.515 86.9311 118.569 86.8708C118.611 86.854 118.814 86.5848 118.659 86.5589C117.509 86.3638 116.371 86.1181 115.244 85.8219C114.114 85.5298 112.973 85.2906 111.843 84.9818C111.618 84.92 111.127 85.4282 111.319 85.4873L111.336 85.4483Z" fill="#FCCB06"/>
<path d="M107.244 63.8025C107.899 64.0245 108.567 64.2037 109.244 64.3389C109.946 64.506 110.661 64.6439 111.362 64.8277C112.801 65.1882 114.233 65.5514 115.656 65.9509C115.941 66.0375 116.405 65.4836 116.022 65.3723C114.635 64.9824 113.246 64.6259 111.859 64.2764C111.171 64.1037 110.484 63.9546 109.797 63.8055C109.459 63.7247 109.121 63.6439 108.784 63.5464C108.431 63.4694 108.081 63.3741 107.737 63.261C107.454 63.1577 106.932 63.6868 107.244 63.8025Z" fill="#FCCB06"/>
<path d="M118.024 66.4137C119.73 66.5929 121.425 66.8722 123.1 67.2504C123.315 67.2843 123.822 66.7775 123.503 66.7217C121.828 66.3396 120.133 66.0547 118.427 65.8684C118.338 65.8774 118.252 65.9055 118.175 65.9509C118.098 65.9963 118.032 66.0579 117.981 66.1315C117.918 66.2138 117.845 66.3894 118.018 66.3999L118.024 66.4137Z" fill="#FCCB06"/>
<path d="M109.354 60.4173C111.734 60.9774 114.16 61.3564 116.558 61.8441C118.956 62.3318 121.449 62.8942 123.884 63.4152C124.088 63.4617 124.507 62.9747 124.417 62.9305C121.981 62.4096 119.537 61.8678 117.09 61.3595C114.644 60.8511 112.266 60.4927 109.887 59.9326C109.69 59.8833 109.264 60.3731 109.354 60.4173Z" fill="#FCCB06"/>
<path d="M92.112 73.679C92.1715 74.1002 93.0733 74.3236 93.4132 74.4684C94.1195 74.7634 94.8464 75.0501 95.5648 75.3158L100.156 77.0473C103.181 78.1943 106.21 79.3371 109.243 80.4757C109.442 80.5487 109.952 80.0488 109.763 79.98C106.848 78.8933 103.941 77.7871 101.027 76.6838L96.6923 75.0502C95.9905 74.7857 95.2928 74.5115 94.595 74.2373C94.2607 74.1064 93.9361 73.9796 93.6236 73.8236C93.3112 73.6675 92.7737 73.5304 92.7311 73.2886C92.6886 73.0467 92.0848 73.4551 92.1229 73.6664L92.112 73.679Z" fill="#FCCB06"/>
<path d="M101.953 73.4404C102.456 73.8065 103.042 74.0384 103.656 74.1142C104.422 74.2797 105.184 74.4952 105.937 74.7067L111.235 76.206C112.942 76.692 114.672 77.0959 116.393 77.5361C118.113 77.9762 119.833 78.433 121.568 78.7534C121.762 78.7958 122.186 78.2991 122.104 78.2757C120.371 77.9622 118.694 77.5122 117.021 77.1095C115.348 76.7067 113.619 76.2458 111.936 75.7986C110.253 75.3514 108.524 74.8334 106.82 74.3542C106.029 74.1263 105.239 73.8816 104.437 73.7065C103.76 73.6302 103.111 73.3892 102.545 73.0042C102.404 72.8753 101.888 73.3613 101.931 73.4655L101.953 73.4404Z" fill="#FCCB06"/>
<path d="M104.502 70.2297C108.079 70.8118 111.64 71.5538 115.156 72.4602C115.444 72.5371 115.908 71.9831 115.521 71.8816C112.006 70.9752 108.431 70.2388 104.868 69.6511C104.575 69.6007 104.116 70.1685 104.502 70.2297Z" fill="#FCCB06"/>
<path d="M118.75 73.543C119.602 73.583 120.451 73.6891 121.287 73.8604C122.126 74.0925 122.979 74.2641 123.841 74.374C123.93 74.3699 124.018 74.3446 124.096 74.3C124.174 74.2555 124.24 74.1931 124.29 74.1177C124.356 74.0257 124.401 73.8211 124.222 73.8134C123.363 73.71 122.512 73.5397 121.678 73.304C120.84 73.1325 119.991 73.0241 119.138 72.9796C119.05 72.982 118.963 73.0056 118.886 73.0485C118.808 73.0913 118.742 73.1522 118.693 73.226C118.629 73.325 118.581 73.5227 118.757 73.5402L118.75 73.543Z" fill="#FCCB06"/>
<path d="M109.719 67.8748C111.316 68.035 112.889 68.3946 114.401 68.9452C116.162 69.4658 117.927 69.9364 119.672 70.553C119.942 70.6452 120.454 70.1287 120.174 70.0323C118.445 69.4337 116.688 68.9436 114.929 68.4299C113.366 67.8583 111.739 67.4853 110.086 67.3198C109.997 67.3182 109.909 67.3401 109.831 67.3833C109.753 67.4265 109.687 67.4896 109.641 67.5663C109.584 67.6625 109.525 67.8727 109.712 67.8776L109.719 67.8748Z" fill="#FCCB06"/>
<path d="M113.041 81.0249C114.18 81.3049 115.343 81.4679 116.514 81.5114C116.602 81.506 116.688 81.4804 116.764 81.4364C116.841 81.3925 116.907 81.3315 116.956 81.258C117.023 81.1659 117.079 80.989 116.913 80.9758C115.781 80.9335 114.655 80.777 113.552 80.5083C113.469 80.4981 113.386 80.5093 113.309 80.5407C113.232 80.5721 113.164 80.6228 113.112 80.688C113.05 80.7133 112.877 80.9782 113.041 81.0249Z" fill="#FCCB06"/>
<path d="M60.6038 169.123C63.6611 169.496 66.5594 170.541 69.5269 171.322C69.7098 171.377 70.1497 170.882 70.0623 170.845C67.1086 170.057 64.2017 168.991 61.1392 168.645C60.9967 168.631 60.8227 168.774 60.7297 168.861C60.6366 168.948 60.4877 169.114 60.6038 169.123Z" fill="#FCCB06"/>
<path d="M73.2976 172.624C74.7159 172.694 76.1216 172.937 77.4845 173.346C79.2345 173.701 80.9749 174.19 82.7201 174.612C83.0483 174.688 83.4748 174.101 83.0648 174.001C81.2864 173.576 79.4797 173.082 77.7268 172.72C76.3427 172.475 74.9253 171.952 73.4918 172.018C73.1534 172.035 72.8475 172.662 73.3033 172.638L73.2976 172.624Z" fill="#FCCB06"/>
<path d="M66.8898 164.955C68.0453 165.82 69.6508 165.683 71.0172 165.944C71.4816 166.061 71.9392 166.204 72.388 166.373L73.7698 166.789C74.7594 167.09 75.7461 167.384 76.7235 167.714C76.9093 167.776 77.403 167.275 77.2533 167.223C76.3244 166.913 75.404 166.625 74.4837 166.336L73.0922 165.915C72.6223 165.767 72.1492 165.571 71.6768 165.456C70.3113 165.139 68.7204 165.35 67.5178 164.488C67.3369 164.359 66.8226 164.869 66.9035 164.949L66.8898 164.955Z" fill="#FCCB06"/>
<path d="M60.0716 173.317C60.0142 173.648 61.3348 173.895 61.5384 173.942C61.8566 174.026 62.1799 174.089 62.5061 174.13C63.0568 174.245 63.5937 174.419 64.1072 174.651C66.9736 175.677 69.8618 176.678 72.7067 177.769C74.3046 178.38 75.8863 179.031 77.4304 179.786C77.5789 179.855 78.0673 179.38 77.9629 179.301C74.5348 177.743 71.0276 176.37 67.4564 175.188L64.7066 174.212C64.1161 173.96 63.5009 173.771 62.8715 173.649C62.6198 173.622 60.5836 173.254 60.6329 172.942C60.6516 172.87 60.0656 173.125 60.0275 173.327L60.0716 173.317Z" fill="#FCCB06"/>
<path d="M59.5931 178.092C61.5783 178.748 63.7043 178.845 65.7361 179.182C67.8791 179.59 69.9698 180.246 71.9665 181.136C72.1899 181.231 72.714 180.725 72.4809 180.626C70.5488 179.77 68.5317 179.127 66.4649 178.707C64.351 178.305 62.1578 178.261 60.1006 177.585C59.8691 177.51 59.3616 178.017 59.5931 178.092Z" fill="#FCCB06"/>
<path d="M58.3042 157.482C60.2051 158.344 62.1885 159.006 64.2226 159.457C65.2644 159.729 66.2653 160.195 67.2954 160.536C68.3254 160.878 69.5546 161.235 70.6862 161.648C70.904 161.729 71.4183 161.219 71.2006 161.138C70.0916 160.781 68.9551 160.434 67.8126 160.034C66.67 159.633 65.7873 159.24 64.737 158.948C62.7018 158.501 60.7169 157.842 58.8145 156.982C58.6049 156.881 58.0683 157.376 58.2973 157.485L58.3042 157.482Z" fill="#FCCB06"/>
<path d="M58.5898 160.946C62.0231 161.61 65.2756 162.973 68.6636 163.802C68.8506 163.847 69.2836 163.354 69.199 163.324C65.811 162.495 62.5727 161.167 59.1252 160.468C58.9314 160.426 58.5081 160.922 58.5898 160.946Z" fill="#FCCB06"/>
<path d="M60.0117 155.656C62.685 156.636 65.4062 157.475 68.1642 158.17C68.3706 158.223 68.8546 157.718 68.6842 157.674C65.9267 156.977 63.2056 156.138 60.5317 155.16C60.3334 155.087 59.8231 155.587 60.0117 155.656Z" fill="#FCCB06"/>
<path d="M155.19 164.66C156.73 165.949 158.375 167.104 160.107 168.114C161.901 169.207 163.667 170.342 165.404 171.517C167.15 172.709 168.888 173.919 170.649 175.048C171.493 175.602 172.335 176.191 173.226 176.662C174.116 177.133 174.777 177.414 175.551 177.778C177.344 178.61 179.127 179.519 180.381 181.097C180.543 181.298 181.137 180.845 180.995 180.636C179.892 179.367 178.524 178.359 176.99 177.685C175.348 176.942 173.748 176.107 172.198 175.185C168.637 172.928 165.263 170.384 161.64 168.153C159.576 166.986 157.615 165.643 155.779 164.136C155.572 163.962 155.016 164.448 155.165 164.598L155.19 164.66Z" fill="#FCCB06"/>
<path d="M157.162 172.7C161.631 175.412 166.044 178.221 170.659 180.68C170.964 180.839 171.491 180.34 171.149 180.131C166.528 177.675 162.112 174.86 157.645 172.154C157.348 171.976 156.827 172.488 157.162 172.7Z" fill="#FCCB06"/>
<path d="M167.335 166.515C172.042 169.074 176.568 171.958 180.882 175.147C181.103 175.316 181.652 174.833 181.381 174.619C177.069 171.428 172.542 168.544 167.834 165.987C167.591 165.843 167.05 166.348 167.335 166.515Z" fill="#FCCB06"/>
<path d="M152.119 84.8916C155.012 85.963 158.038 86.632 160.888 87.8344C161.206 87.9639 161.629 87.3865 161.233 87.2238C158.383 86.0215 155.357 85.3525 152.457 84.2839C152.136 84.164 151.713 84.7415 152.119 84.8916Z" fill="#FCCB06"/>
<path d="M150.505 81.6477C154.804 82.8419 158.979 84.4594 163.272 85.6564C163.517 85.7264 164.019 85.2057 163.783 85.1398C159.484 83.9456 155.309 82.3281 151.023 81.1283C150.78 81.0652 150.269 81.5818 150.511 81.6449L150.505 81.6477Z" fill="#FCCB06"/>
<path d="M149.121 77.2216C149.809 78.1802 151.18 78.3337 152.21 78.7152C153.79 79.3019 155.403 79.7939 157 80.3249C157.854 80.6082 158.73 80.8665 159.56 81.2084C160.149 81.4538 160.734 81.7257 161.321 81.9641C162.596 82.5548 163.981 82.8628 165.381 82.8671C165.689 82.8548 166.046 82.2554 165.597 82.2765C164.194 82.26 162.81 81.9347 161.541 81.3234C160.216 80.7706 158.898 80.2552 157.526 79.8027C155.919 79.2676 154.292 78.7812 152.699 78.1834C151.745 77.8114 150.359 77.6802 149.714 76.7687C149.527 76.5051 148.937 76.9483 149.1 77.23L149.121 77.2216Z" fill="#FCCB06"/>
<path d="M152.803 74.0228C158.496 75.9769 164.059 78.3404 169.89 79.8655C170.178 79.9424 170.643 79.3884 170.256 79.2869C164.428 77.7687 158.862 75.3983 153.169 73.4442C152.889 73.3479 152.422 73.8949 152.803 74.0228Z" fill="#FCCB06"/>
<path d="M154.791 69.7642C156.041 70.3348 157.342 70.7832 158.676 71.1032C160.131 71.5624 161.599 72.0327 163.05 72.5586C164.5 73.0846 165.72 73.5349 167.092 73.9472C168.531 74.3544 169.949 74.8357 171.34 75.3891C171.514 75.4636 172.018 74.9665 171.872 74.9045C170.481 74.351 169.063 73.8697 167.624 73.4625C166.252 73.0503 164.933 72.5517 163.582 72.074C162.232 71.5963 160.672 71.0986 159.208 70.6186C157.875 70.2986 156.574 69.8502 155.323 69.2796C155.169 69.1967 154.637 69.6813 154.791 69.7642Z" fill="#FCCB06"/>
<path d="M142.251 69.0447C143.944 69.786 145.675 70.4316 147.438 70.9784C149.154 71.7341 150.919 72.3671 152.722 72.8727C152.959 72.9219 153.449 72.4138 153.239 72.3701C151.437 71.8618 149.672 71.2288 147.956 70.4757C146.194 69.9236 144.463 69.2782 142.768 68.542C142.563 68.4315 142.022 68.9356 142.251 69.0447Z" fill="#FCCB06"/>
<path d="M143.245 65.9694C146.636 67.907 150.456 68.8915 154.125 70.1326C154.431 70.2344 154.873 69.6652 154.479 69.5262C150.852 68.3086 147.078 67.3378 143.731 65.4307C143.439 65.2662 142.912 65.7647 143.245 65.9694Z" fill="#FCCB06"/>
<path d="M144.972 64.6543C148.174 65.203 151.178 66.4882 154.21 67.6245C154.535 67.7513 154.961 67.1641 154.555 67.014C151.53 65.8749 148.527 64.6133 145.317 64.0438C144.981 63.9866 144.564 64.5779 144.972 64.6543Z" fill="#FCCB06"/>
<path d="M146.067 36.4227C147.148 37.6202 148.403 38.6461 149.788 39.4648C150.021 39.6212 150.573 39.1448 150.284 38.9302C148.938 38.1318 147.718 37.1326 146.668 35.967C146.481 35.727 145.888 36.1799 146.053 36.4283L146.067 36.4227Z" fill="#FCCB06"/>
<path d="M147.656 34.2682C149.651 35.5767 151.14 37.4559 152.905 39.0282C153.166 39.2539 153.74 38.7928 153.519 38.5669C151.719 36.9683 150.202 35.06 148.17 33.7183C147.899 33.5454 147.365 34.0467 147.677 34.2598L147.656 34.2682Z" fill="#FCCB06"/>
<path d="M147.987 31.2957C148.22 31.7227 148.565 32.078 148.984 32.3227C149.506 32.7172 150.006 33.1368 150.521 33.5341C151.544 34.3483 152.569 35.129 153.609 35.968C155.643 37.5685 157.64 39.2567 159.54 41.0412C159.787 41.2726 160.361 40.8114 160.154 40.5799C158.354 38.884 156.474 37.2858 154.537 35.7434C153.571 34.9708 152.595 34.2108 151.616 33.4438L150.088 32.2366C149.526 31.9179 149.039 31.4813 148.659 30.9566C148.52 30.6163 147.877 31.0082 147.994 31.2929L147.987 31.2957Z" fill="#FCCB06"/>
<path d="M145.864 25.0425C146.159 25.6019 146.598 26.0721 147.134 26.4037C147.752 26.86 148.348 27.3471 148.918 27.8632L152.41 30.934C153.536 31.9244 154.564 33.0278 155.644 34.0615C156.724 35.0952 157.964 36.2659 159.131 37.3535C159.343 37.5586 159.911 37.0836 159.745 36.8922C158.586 35.8018 157.417 34.7073 156.268 33.6043C155.12 32.5014 154.151 31.4631 153.031 30.4699L149.53 27.3782C149.014 26.8896 148.468 26.4331 147.897 26.0114C147.305 25.6601 146.82 25.1517 146.495 24.5422C146.399 24.3061 145.77 24.7326 145.881 25.0035L145.864 25.0425Z" fill="#FCCB06"/>
<path d="M151.777 25.3273C152.067 25.8062 152.443 26.2271 152.885 26.5682C153.304 26.9644 153.74 27.3453 154.16 27.7249C155.056 28.4852 155.97 29.2302 156.827 30.031C157.683 30.8318 158.504 31.7037 159.384 32.503C160.264 33.3023 161.173 34.0738 162.099 34.8298C162.289 34.9793 162.825 34.4849 162.714 34.3685C161.813 33.6559 160.93 32.9011 160.064 32.1041C159.159 31.2826 158.32 30.3857 157.427 29.5753C156.535 28.7649 155.697 28.0697 154.823 27.3246C154.39 26.9507 153.954 26.5698 153.552 26.1748C153.084 25.817 152.686 25.3751 152.378 24.8716C152.31 24.705 151.673 25.1107 151.763 25.3329L151.777 25.3273Z" fill="#FCCB06"/>
<path d="M155.138 23.7275C156.751 25.2808 158.712 26.4086 160.394 27.8768C160.558 28.0209 161.104 27.5306 161.009 27.4155C159.333 25.9445 157.383 24.8445 155.752 23.2662C155.603 23.1166 155.081 23.5887 155.138 23.7275Z" fill="#FCCB06"/>
<path d="M89.4596 134.924C91.6151 135.503 93.711 136.292 95.7176 137.279C95.9605 137.382 96.4914 136.874 96.2194 136.758C94.1767 135.757 92.0437 134.956 89.8505 134.367C89.5971 134.317 89.1079 134.848 89.4596 134.924Z" fill="#FCCB06"/>
<path d="M88.1416 130.073C89.886 130.414 91.46 131.4 93.0381 132.238C94.7263 133.17 96.548 133.779 98.2455 134.674C98.4734 134.8 99.014 134.296 98.7501 134.16C97.0207 133.246 95.1573 132.613 93.4371 131.662C91.9296 130.691 90.2795 129.967 88.5491 129.518C88.3054 129.471 87.8065 129.999 88.1554 130.067L88.1416 130.073Z" fill="#FCCB06"/>
<path d="M86.2151 123.346C87.1268 124.155 88.1479 124.83 89.2475 125.349C90.4213 125.964 91.6128 126.563 92.7785 127.197C93.437 127.552 94.0846 127.92 94.7241 128.307C95.3636 128.694 95.755 129.004 96.3022 129.283C97.5161 129.811 98.6986 130.411 99.8437 131.078C100.022 131.2 100.495 130.707 100.461 130.624C99.4131 129.992 98.3208 129.438 97.193 128.968C95.9642 128.376 94.8361 127.5 93.6526 126.881C92.4692 126.262 91.2954 125.648 90.1285 125.03C88.9437 124.482 87.8413 123.767 86.8545 122.907C86.7108 122.771 86.1892 123.243 86.2402 123.368L86.2151 123.346Z" fill="#FCCB06"/>
<path d="M95.7469 122.154C96.8121 123.124 98.0301 123.908 99.3503 124.475C99.9643 124.799 100.567 125.137 101.17 125.474C101.774 125.811 102.454 126.279 103.149 126.586C103.324 126.661 103.844 126.165 103.679 126.095C103.034 125.776 102.405 125.424 101.796 125.04C101.197 124.693 100.59 124.366 99.976 124.041C98.6446 123.469 97.416 122.678 96.3405 121.701C96.2037 121.563 95.6525 121.982 95.7262 122.163L95.7469 122.154Z" fill="#FCCB06"/>
<path d="M85.0662 112.352C85.2188 112.631 85.471 112.841 85.7713 112.939C85.9246 112.991 86.081 113.033 86.2396 113.064C86.4276 113.131 86.6081 113.217 86.7783 113.322C87.4148 113.661 88.0722 113.958 88.7465 114.212C89.11 114.355 89.5143 114.441 89.8656 114.614C90.2169 114.787 90.5533 114.981 90.8937 115.167C91.6117 115.517 92.2999 115.927 92.951 116.393C93.2044 116.581 93.7353 116.073 93.4374 115.854C92.8203 115.411 92.169 115.018 91.4897 114.68C91.1425 114.498 90.798 114.323 90.4645 114.135C90.129 113.977 89.781 113.848 89.4244 113.749C88.7598 113.516 88.1108 113.24 87.4816 112.922C87.1796 112.736 86.8522 112.597 86.5102 112.508C86.3367 112.488 86.1698 112.428 86.0232 112.331C85.8766 112.235 85.7542 112.105 85.6659 111.953C85.5441 111.655 84.9213 112.095 85.0516 112.415L85.0662 112.352Z" fill="#FCCB06"/>
<path d="M85.6631 118.672C87.2164 119.277 88.7131 120.022 90.1347 120.897C90.3472 121.005 90.8838 120.511 90.649 120.388C89.2274 119.512 87.7308 118.767 86.1774 118.162C86.0277 118.11 85.848 118.24 85.7371 118.342C85.6262 118.444 85.5134 118.619 85.6631 118.672Z" fill="#FCCB06"/>
<path d="M88.5194 108.242C89.0364 108.821 89.6945 109.254 90.4278 109.497C91.2591 109.863 92.0589 110.249 92.8712 110.647C95.0568 111.715 97.2343 112.803 99.3576 113.994C99.6174 114.139 100.169 113.663 99.8537 113.46C97.7778 112.306 95.6654 111.24 93.5381 110.196C92.748 109.814 91.9758 109.416 91.1696 109.073C90.3868 108.835 89.6785 108.395 89.1159 107.796C88.9337 107.547 88.3372 107.993 88.5016 108.258L88.5194 108.242Z" fill="#FCCB06"/>
<path d="M97.8427 118.447C99.6867 119.771 101.697 120.841 103.82 121.629C103.903 121.662 103.995 121.667 104.08 121.643C104.166 121.62 104.242 121.57 104.297 121.499C104.38 121.409 104.476 121.151 104.301 121.077C102.179 120.295 100.171 119.225 98.3332 117.898C98.0616 117.685 97.5488 118.218 97.8427 118.447Z" fill="#FCCB06"/>
<path d="M92.4913 107.073C92.7564 107.605 93.7112 107.879 94.2038 108.084C94.9003 108.374 95.6211 108.607 96.3047 108.846C98.9952 109.963 101.618 111.241 104.158 112.673C104.415 112.811 104.946 112.303 104.657 112.145C102.127 110.724 99.518 109.451 96.8425 108.335C96.1974 108.072 95.532 107.857 94.8828 107.604C94.4874 107.441 94.0891 107.272 93.703 107.073C93.4488 106.978 93.2285 106.808 93.0708 106.585C92.9659 106.329 92.3374 106.755 92.4565 107.047L92.4913 107.073Z" fill="#FCCB06"/>
<path d="M35.5159 124.503C36.8325 124.897 38.0912 125.445 39.4078 125.839C39.5284 125.879 39.7381 125.704 39.8145 125.616C39.891 125.528 40.0541 125.397 39.9432 125.361C38.6335 124.964 37.3679 124.419 36.0582 124.022C35.9307 123.985 35.7279 124.157 35.6486 124.238C35.5693 124.319 35.405 124.467 35.5159 124.503Z" fill="#FCCB06"/>
<path d="M29.6713 117.913C33.6939 119.471 37.4124 121.68 41.312 123.507C41.5286 123.605 42.0623 123.104 41.8264 122.998C37.9267 121.171 34.2083 118.962 30.1994 117.398C29.9788 117.309 29.4547 117.815 29.685 117.907L29.6713 117.913Z" fill="#FCCB06"/>
<path d="M31.4689 114.21C32.4472 115.172 33.9281 115.418 35.148 115.949C36.7662 116.65 38.3681 117.389 39.9713 118.112C41.5745 118.835 43.0583 119.501 44.5943 120.276C46.0739 121.026 47.6151 121.644 49.2002 122.123C49.4191 122.188 49.9169 121.677 49.727 121.624C48.1908 121.16 46.6952 120.568 45.2559 119.852C43.741 119.109 42.2058 118.416 40.6706 117.722C39.1354 117.028 37.514 116.28 35.9307 115.605C35.2673 115.317 34.6003 115.079 33.9192 114.806C33.2404 114.605 32.6119 114.259 32.0768 113.792C31.912 113.624 31.3406 114.092 31.4625 114.253L31.4689 114.21Z" fill="#FCCB06"/>
<path d="M30.6927 110.578C34.8134 112.809 39.5576 113.441 43.7814 115.355C44.0368 115.469 44.5677 114.961 44.2832 114.834C40.0379 112.848 35.3188 112.238 31.2009 110.014C30.9536 109.88 30.4158 110.391 30.6923 110.538L30.6927 110.578Z" fill="#FCCB06"/>
<path d="M30.8899 108.877C32.4842 109.539 34.2111 109.523 35.9073 109.746C35.9881 109.749 36.0684 109.735 36.1431 109.704C36.2178 109.674 36.2852 109.628 36.3407 109.569C36.3751 109.555 36.5783 109.286 36.433 109.264C34.7368 109.041 32.9973 109.046 31.4018 108.401C31.2047 108.311 30.6807 108.817 30.8818 108.897L30.8899 108.877Z" fill="#FCCB06"/>
<path d="M65.4613 130.912C65.6329 131.25 65.8863 131.539 66.198 131.753C66.5957 132.051 67.0192 132.312 67.4632 132.533C68.2674 132.95 69.1052 133.273 69.9406 133.628C70.164 133.723 70.6881 133.218 70.455 133.119C69.639 132.771 68.8178 132.45 68.029 132.051C67.5956 131.838 67.1816 131.587 66.7916 131.3C66.4766 131.09 66.2223 130.8 66.055 130.459C65.9756 130.264 65.3386 130.67 65.4407 130.92L65.4613 130.912Z" fill="#FCCB06"/>
<path d="M62.8507 126.615C63.0357 126.898 63.2923 127.126 63.5938 127.276C64.0163 127.561 64.46 127.814 64.921 128.03C65.8304 128.469 66.7888 128.831 67.6631 129.341C69.5646 130.461 71.4717 131.595 73.3757 132.681C73.6481 132.837 74.1875 132.35 73.8718 132.146C72.0011 131.063 70.1399 129.97 68.2883 128.868C67.4413 128.397 66.5709 127.971 65.6806 127.591C65.2477 127.393 64.827 127.17 64.4206 126.922C64.0291 126.746 63.6881 126.472 63.4302 126.127C63.314 125.843 62.6883 126.276 62.8159 126.589L62.8507 126.615Z" fill="#FCCB06"/>
<path d="M66.5378 125.794C68.8744 127.449 71.6214 128.418 74.0147 129.937C74.1968 130.049 74.7488 129.572 74.5347 129.441C72.1139 127.934 69.3945 126.953 67.0578 125.298C66.8894 125.181 66.3249 125.646 66.5378 125.794Z" fill="#FCCB06"/>
</svg>
