<svg width="36" height="117" viewBox="0 0 36 117" fill="none" xmlns="http://www.w3.org/2000/svg">
<circle cx="29.8822" cy="5.84656" r="5.84656" transform="rotate(90 29.8822 5.84656)" fill="#F4DD35"/>
<circle cx="6.49654" cy="5.84656" r="5.84656" transform="rotate(90 6.49654 5.84656)" fill="#F4DD35"/>
<circle cx="29.8822" cy="26.8985" r="5.84656" transform="rotate(90 29.8822 26.8985)" fill="#F4DD35"/>
<circle cx="6.49654" cy="26.8985" r="5.84656" transform="rotate(90 6.49654 26.8985)" fill="#F4DD35"/>
<circle cx="29.8822" cy="47.9416" r="5.84656" transform="rotate(90 29.8822 47.9416)" fill="#F4DD35"/>
<circle cx="6.49654" cy="47.9416" r="5.84656" transform="rotate(90 6.49654 47.9416)" fill="#F4DD35"/>
<circle cx="29.8822" cy="68.9848" r="5.84656" transform="rotate(90 29.8822 68.9848)" fill="#F4DD35"/>
<circle cx="6.49654" cy="68.9848" r="5.84656" transform="rotate(90 6.49654 68.9848)" fill="#F4DD35"/>
<circle cx="29.8822" cy="90.0367" r="5.84656" transform="rotate(90 29.8822 90.0367)" fill="#F4DD35"/>
<circle cx="6.49654" cy="90.0367" r="5.84656" transform="rotate(90 6.49654 90.0367)" fill="#F4DD35"/>
<circle cx="29.8822" cy="111.089" r="5.84656" transform="rotate(90 29.8822 111.089)" fill="#F4DD35"/>
<circle cx="6.49654" cy="111.089" r="5.84656" transform="rotate(90 6.49654 111.089)" fill="#F4DD35"/>
</svg>
