<svg width="145" height="152" viewBox="0 0 145 152" fill="none" xmlns="http://www.w3.org/2000/svg">
<path d="M17.6867 85.734L17.6867 85.7341C17.717 86.3913 17.7144 87.2392 17.5424 88.004C17.3685 88.7774 17.0451 89.3661 16.5158 89.6538C16.0287 89.9155 15.5933 89.9438 15.1914 89.8384C14.7738 89.729 14.3586 89.4654 13.9544 89.0878C13.1401 88.3272 12.4836 87.2141 12.0428 86.4235C11.5674 85.5655 11.4105 84.6386 11.6053 83.8608C11.7945 83.1053 12.3276 82.4352 13.3618 82.0673L13.3623 82.0672C14.7431 81.5743 15.7578 81.9315 16.4636 82.6479C17.2001 83.3954 17.6337 84.575 17.6867 85.734Z" stroke="#FCCB06"/>
<path d="M3.34158 57.6364C5.57919 62.1804 3.74233 67.6902 -0.753272 69.9457C-5.24888 72.2013 -10.7094 70.3527 -12.947 65.8087C-15.1846 61.2648 -13.3477 55.7548 -8.85211 53.4993C-4.35652 51.2438 1.10396 53.0925 3.34158 57.6364Z" stroke="#FCCB06"/>
<path d="M140.482 110.197C141.873 113.023 140.728 116.438 137.946 117.834C135.165 119.229 131.776 118.089 130.385 115.263C128.993 112.438 130.139 109.022 132.92 107.627C135.701 106.232 139.09 107.372 140.482 110.197Z" stroke="#FCCB06" stroke-width="3"/>
<path d="M23.6592 116.175C21.8325 116.694 19.9325 117.172 18.1516 117.561C20.9677 115.26 24.3625 112.236 26.948 109.876L29.1654 107.851L26.1742 108.135L9.12504 109.751C12.1008 108.454 14.9924 107.215 17.7947 106.013C30.0547 100.757 40.6062 96.2331 49.0212 90.8815L54.4812 101.23C49.1815 108.696 38.981 115.788 27.7108 121.45C27.9506 121.224 28.1893 120.995 28.4251 120.764C29.4499 119.762 30.4384 118.712 31.2449 117.669C32.0432 116.635 32.7096 115.55 33.0271 114.475L33.7191 112.133L31.5869 113.305C30.0427 114.154 27.0295 115.218 23.6592 116.175Z" stroke="#FCCB06" stroke-width="2"/>
<mask id="path-5-inside-1_1_140" fill="white">
<path d="M51.6806 90.668C44.6391 95.8677 35.1635 100.063 23.6461 106.093L37.4439 103.997C35.1015 106.333 31.7405 109.578 30.014 110.888C33.2488 110.23 38.7154 108.337 40.7256 107.07C39.9909 109.419 36.2446 112.635 34.4658 114.461C42.8389 110.098 51.0606 104.196 55.0288 98.0957L51.6713 90.6625"/>
</mask>
<path d="M23.6461 106.093L22.7147 104.315L23.9567 108.075L23.6461 106.093ZM37.4439 103.997L38.8548 105.423L43.1955 101.094L37.1333 102.015L37.4439 103.997ZM30.014 110.888L28.8047 109.286L30.4217 112.852L30.014 110.888ZM40.7256 107.07L42.6301 107.682L44.261 102.469L39.6569 105.371L40.7256 107.07ZM34.4658 114.461L33.0345 113.056L35.3939 116.241L34.4658 114.461ZM55.0288 98.0957L56.7018 99.199L57.2989 98.2811L56.8456 97.2774L55.0288 98.0957ZM50.4916 89.0509C43.6136 94.1299 34.4138 98.19 22.7147 104.315L24.5775 107.871C35.9133 101.937 45.6646 97.6055 52.8696 92.2851L50.4916 89.0509ZM23.9567 108.075L37.7545 105.978L37.1333 102.015L23.3355 104.112L23.9567 108.075ZM36.0329 102.571C33.6636 104.933 30.4029 108.074 28.8047 109.286L31.2233 112.49C33.0782 111.083 36.5395 107.732 38.8548 105.423L36.0329 102.571ZM30.4217 112.852C32.1583 112.499 34.4264 111.831 36.5014 111.099C38.536 110.381 40.5874 109.53 41.7943 108.769L39.6569 105.371C38.8536 105.877 37.1667 106.607 35.1567 107.316C33.1871 108.012 31.1046 108.619 29.6063 108.923L30.4217 112.852ZM38.8211 106.459C38.7318 106.744 38.5036 107.181 38.0757 107.767C37.6616 108.334 37.1307 108.946 36.5341 109.578C35.9403 110.208 35.3084 110.829 34.6989 111.421C34.1046 111.998 33.5047 112.573 33.0345 113.056L35.8971 115.867C36.3163 115.436 36.8517 114.924 37.4831 114.311C38.0993 113.713 38.7834 113.041 39.4403 112.344C40.0945 111.651 40.749 110.904 41.2997 110.151C41.8364 109.416 42.352 108.57 42.6301 107.682L38.8211 106.459ZM35.3939 116.241C43.8496 111.834 52.4476 105.739 56.7018 99.199L53.3557 96.9925C49.6736 102.653 41.8282 108.361 33.5377 112.681L35.3939 116.241ZM56.8456 97.2774L53.4882 89.8441L49.8545 91.4808L53.2119 98.914L56.8456 97.2774Z" fill="#FCCB06" mask="url(#path-5-inside-1_1_140)"/>
<path d="M69.9625 59.8706L56.3555 40.2978C58.2971 39.2292 60.7135 38.9574 63.5899 39.1817C66.5773 39.4148 69.9081 40.1671 73.513 40.9813C73.8988 41.0685 74.2878 41.1563 74.6798 41.2443C80.7644 42.6102 87.5359 44.0078 94.0826 42.9234L69.9625 59.8706Z" stroke="#FCCB06" stroke-width="2"/>
<path d="M92.8609 92.9893L117.01 76.0168C113.743 81.831 112.72 88.7118 111.903 94.935C111.851 95.3368 111.799 95.7358 111.748 96.1315C111.269 99.8184 110.826 103.226 110.016 106.132C109.237 108.928 108.151 111.121 106.485 112.591L92.8609 92.9893Z" stroke="#FCCB06" stroke-width="2"/>
<path d="M135.96 48.1963L126.527 34.6233L142.222 33.6938L135.96 48.1963Z" stroke="#FCCB06" stroke-width="2"/>
<path d="M124.196 34.8765L135.037 50.4726C124.617 76.3074 97.7587 95.3021 69.747 102.127L53.4927 78.7658C71.2879 52.719 94.4007 37.287 124.196 34.8765Z" fill="white" stroke="#FCCB06" stroke-width="2"/>
<path d="M61.7963 111.397L42.2101 83.22L51.8814 80.0678L68.0707 103.333L61.7963 111.397Z" stroke="#FCCB06" stroke-width="2"/>
<path d="M120.854 57.2633C119.935 62.6279 114.867 66.2031 109.54 65.2569C104.214 64.3107 100.634 59.1993 101.552 53.8347C102.471 48.4701 107.539 44.8948 112.866 45.8411C118.193 46.7873 121.773 51.8987 120.854 57.2633Z" stroke="#FCCB06" stroke-width="2"/>
</svg>
