<svg width="99" height="68" viewBox="0 0 99 68" fill="none" xmlns="http://www.w3.org/2000/svg">
<path d="M83.4297 2.94744L83.4271 2.94708C78.3813 2.25481 72.945 5.27299 70.8666 10.0345C68.7839 14.8057 70.1202 20.9149 74.0249 24.2514C77.9351 27.5924 84.0371 28.0001 88.3104 25.137C92.5948 22.2666 94.7765 16.4285 93.348 11.4538C91.8587 6.47889 86.9526 3.41199 83.4297 2.94744Z" fill="#FCCB06" stroke="black"/>
<mask id="path-2-inside-1_5_45" fill="white">
<path d="M79.8377 27.7702C82.9419 28.2346 86.2086 27.6129 88.8046 25.8458C93.4039 22.8107 95.6457 16.4836 94.1106 11.1592C92.6101 6.03587 87.6709 2.68427 83.6798 2.08721C83.6165 2.07773 83.6165 2.07773 83.5531 2.06825C78.1587 1.32658 72.3618 4.5744 70.1114 9.65914C67.8611 14.7439 69.3414 21.3012 73.4726 24.8585C75.2991 26.5034 77.4937 27.4196 79.8377 27.7702ZM83.5747 2.78997C87.3757 3.3586 92.0806 6.54452 93.4926 11.3933C94.9393 16.4433 92.8086 22.4603 88.4281 25.3322C84.1109 28.2135 77.8165 27.8598 73.9196 24.4681C69.9593 21.067 68.6213 14.8576 70.7701 10.0189C72.9188 5.18028 78.3703 2.07674 83.5113 2.7805L83.5747 2.78997Z"/>
</mask>
<path d="M79.8377 27.7702C82.9419 28.2346 86.2086 27.6129 88.8046 25.8458C93.4039 22.8107 95.6457 16.4836 94.1106 11.1592C92.6101 6.03587 87.6709 2.68427 83.6798 2.08721C83.6165 2.07773 83.6165 2.07773 83.5531 2.06825C78.1587 1.32658 72.3618 4.5744 70.1114 9.65914C67.8611 14.7439 69.3414 21.3012 73.4726 24.8585C75.2991 26.5034 77.4937 27.4196 79.8377 27.7702ZM83.5747 2.78997C87.3757 3.3586 92.0806 6.54452 93.4926 11.3933C94.9393 16.4433 92.8086 22.4603 88.4281 25.3322C84.1109 28.2135 77.8165 27.8598 73.9196 24.4681C69.9593 21.067 68.6213 14.8576 70.7701 10.0189C72.9188 5.18028 78.3703 2.07674 83.5113 2.7805L83.5747 2.78997Z" fill="#FCCB06"/>
<path d="M88.8046 25.8458L88.2419 25.0191L88.2478 25.0151L88.2538 25.0111L88.8046 25.8458ZM94.1106 11.1592L95.0703 10.8781L95.0714 10.8821L94.1106 11.1592ZM83.5531 2.06825L83.6893 1.0775L83.7011 1.07926L83.5531 2.06825ZM73.4726 24.8585L74.1251 24.1007L74.1335 24.108L74.1418 24.1154L73.4726 24.8585ZM93.4926 11.3933L94.4528 11.1137L94.454 11.1179L93.4926 11.3933ZM88.4281 25.3322L87.8729 24.5004L87.8798 24.4959L88.4281 25.3322ZM73.9196 24.4681L74.5711 23.7095L74.5761 23.7138L73.9196 24.4681ZM83.5113 2.7805L83.647 1.78966L83.6593 1.7915L83.5113 2.7805ZM79.9856 26.7812C82.8691 27.2126 85.8763 26.6294 88.2419 25.0191L89.3673 26.6724C86.5409 28.5964 83.0147 29.2566 79.6897 28.7592L79.9856 26.7812ZM88.2538 25.0111C92.4762 22.2247 94.5676 16.354 93.1497 11.4362L95.0714 10.8821C96.7239 16.6133 94.3315 23.3966 89.3554 26.6804L88.2538 25.0111ZM93.1509 11.4402C91.7761 6.74606 87.1978 3.62462 83.5319 3.0762L83.8278 1.09821C88.144 1.74391 93.4441 5.32569 95.0703 10.8781L93.1509 11.4402ZM83.5319 3.0762C83.5317 3.07618 83.5316 3.07616 83.5315 3.07614C83.5314 3.07613 83.5312 3.07611 83.5311 3.07609C83.531 3.07607 83.5309 3.07605 83.5307 3.07603C83.5306 3.07602 83.5305 3.076 83.5304 3.07598C83.5303 3.07596 83.5301 3.07594 83.53 3.07592C83.5299 3.07591 83.5298 3.07589 83.5296 3.07587C83.5295 3.07585 83.5294 3.07583 83.5293 3.07582C83.5292 3.0758 83.529 3.07578 83.5289 3.07576C83.5288 3.07574 83.5287 3.07573 83.5286 3.07571C83.5284 3.07569 83.5283 3.07567 83.5282 3.07566C83.5281 3.07564 83.528 3.07562 83.5279 3.0756C83.5277 3.07558 83.5276 3.07557 83.5275 3.07555C83.5274 3.07553 83.5273 3.07551 83.5271 3.0755C83.527 3.07548 83.5269 3.07546 83.5268 3.07544C83.5267 3.07543 83.5266 3.07541 83.5264 3.07539C83.5263 3.07537 83.5262 3.07536 83.5261 3.07534C83.526 3.07532 83.5259 3.0753 83.5257 3.07529C83.5256 3.07527 83.5255 3.07525 83.5254 3.07523C83.5253 3.07522 83.5252 3.0752 83.5251 3.07518C83.5249 3.07517 83.5248 3.07515 83.5247 3.07513C83.5246 3.07511 83.5245 3.0751 83.5244 3.07508C83.5243 3.07506 83.5241 3.07505 83.524 3.07503C83.5239 3.07501 83.5238 3.075 83.5237 3.07498C83.5236 3.07496 83.5235 3.07494 83.5233 3.07493C83.5232 3.07491 83.5231 3.07489 83.523 3.07488C83.5229 3.07486 83.5228 3.07484 83.5227 3.07483C83.5226 3.07481 83.5225 3.07479 83.5223 3.07478C83.5222 3.07476 83.5221 3.07474 83.522 3.07473C83.5219 3.07471 83.5218 3.07469 83.5217 3.07468C83.5216 3.07466 83.5215 3.07464 83.5213 3.07463C83.5212 3.07461 83.5211 3.0746 83.521 3.07458C83.5209 3.07456 83.5208 3.07455 83.5207 3.07453C83.5206 3.07451 83.5205 3.0745 83.5204 3.07448C83.5202 3.07446 83.5201 3.07445 83.52 3.07443C83.5199 3.07442 83.5198 3.0744 83.5197 3.07438C83.5196 3.07437 83.5195 3.07435 83.5194 3.07433C83.5193 3.07432 83.5192 3.0743 83.5191 3.07429C83.519 3.07427 83.5188 3.07425 83.5187 3.07424C83.5186 3.07422 83.5185 3.07421 83.5184 3.07419C83.5183 3.07417 83.5182 3.07416 83.5181 3.07414C83.518 3.07413 83.5179 3.07411 83.5178 3.0741C83.5177 3.07408 83.5176 3.07406 83.5175 3.07405C83.5174 3.07403 83.5173 3.07402 83.5172 3.074C83.5171 3.07399 83.5169 3.07397 83.5168 3.07395C83.5167 3.07394 83.5166 3.07392 83.5165 3.07391C83.5164 3.07389 83.5163 3.07388 83.5162 3.07386C83.5161 3.07385 83.516 3.07383 83.5159 3.07382C83.5158 3.0738 83.5157 3.07378 83.5156 3.07377C83.5155 3.07375 83.5154 3.07374 83.5153 3.07372C83.5152 3.07371 83.5151 3.07369 83.515 3.07368C83.5149 3.07366 83.5148 3.07365 83.5147 3.07363C83.5146 3.07362 83.5145 3.0736 83.5144 3.07359C83.5143 3.07357 83.5142 3.07356 83.5141 3.07354C83.514 3.07353 83.5139 3.07351 83.5138 3.0735C83.5137 3.07348 83.5136 3.07347 83.5135 3.07345C83.5134 3.07344 83.5133 3.07342 83.5132 3.07341C83.5131 3.07339 83.513 3.07338 83.5129 3.07336C83.5128 3.07335 83.5127 3.07333 83.5126 3.07332C83.5125 3.0733 83.5124 3.07329 83.5123 3.07327C83.5122 3.07326 83.5121 3.07324 83.512 3.07323C83.5119 3.07321 83.5118 3.0732 83.5117 3.07318C83.5116 3.07317 83.5115 3.07315 83.5114 3.07314C83.5113 3.07313 83.5112 3.07311 83.5111 3.0731C83.511 3.07308 83.5109 3.07307 83.5108 3.07305C83.5107 3.07304 83.5106 3.07302 83.5105 3.07301C83.5104 3.073 83.5103 3.07298 83.5102 3.07297C83.5101 3.07295 83.51 3.07294 83.51 3.07292C83.5099 3.07291 83.5098 3.0729 83.5097 3.07288C83.5096 3.07287 83.5095 3.07285 83.5094 3.07284C83.5093 3.07282 83.5092 3.07281 83.5091 3.0728C83.509 3.07278 83.5089 3.07277 83.5088 3.07275C83.5087 3.07274 83.5086 3.07273 83.5085 3.07271C83.5084 3.0727 83.5083 3.07268 83.5083 3.07267C83.5082 3.07266 83.5081 3.07264 83.508 3.07263C83.5079 3.07261 83.5078 3.0726 83.5077 3.07259C83.5076 3.07257 83.5075 3.07256 83.5074 3.07254C83.5073 3.07253 83.5072 3.07252 83.5071 3.0725C83.507 3.07249 83.507 3.07248 83.5069 3.07246C83.5068 3.07245 83.5067 3.07243 83.5066 3.07242C83.5065 3.07241 83.5064 3.07239 83.5063 3.07238C83.5062 3.07237 83.5061 3.07235 83.506 3.07234C83.5059 3.07233 83.5059 3.07231 83.5058 3.0723C83.5057 3.07228 83.5056 3.07227 83.5055 3.07226C83.5054 3.07224 83.5053 3.07223 83.5052 3.07222C83.5051 3.0722 83.505 3.07219 83.505 3.07218C83.5049 3.07216 83.5048 3.07215 83.5047 3.07214C83.5046 3.07212 83.5045 3.07211 83.5044 3.0721C83.5043 3.07208 83.5042 3.07207 83.5042 3.07206C83.5041 3.07204 83.504 3.07203 83.5039 3.07202C83.5038 3.072 83.5037 3.07199 83.5036 3.07198C83.5035 3.07196 83.5035 3.07195 83.5034 3.07194C83.5033 3.07193 83.5032 3.07191 83.5031 3.0719C83.503 3.07189 83.5029 3.07187 83.5028 3.07186C83.5028 3.07185 83.5027 3.07183 83.5026 3.07182C83.5025 3.07181 83.5024 3.0718 83.5023 3.07178C83.5022 3.07177 83.5021 3.07176 83.5021 3.07174C83.502 3.07173 83.5019 3.07172 83.5018 3.07171C83.5017 3.07169 83.5016 3.07168 83.5015 3.07167C83.5015 3.07165 83.5014 3.07164 83.5013 3.07163C83.5012 3.07162 83.5011 3.0716 83.501 3.07159C83.501 3.07158 83.5009 3.07156 83.5008 3.07155C83.5007 3.07154 83.5006 3.07153 83.5005 3.07151C83.5004 3.0715 83.5004 3.07149 83.5003 3.07148C83.5002 3.07146 83.5001 3.07145 83.5 3.07144C83.4999 3.07143 83.4999 3.07141 83.4998 3.0714C83.4997 3.07139 83.4996 3.07138 83.4995 3.07136C83.4994 3.07135 83.4994 3.07134 83.4993 3.07133C83.4992 3.07131 83.4991 3.0713 83.499 3.07129C83.4989 3.07128 83.4989 3.07127 83.4988 3.07125C83.4987 3.07124 83.4986 3.07123 83.4985 3.07122C83.4985 3.0712 83.4984 3.07119 83.4983 3.07118C83.4982 3.07117 83.4981 3.07115 83.498 3.07114C83.498 3.07113 83.4979 3.07112 83.4978 3.07111C83.4977 3.07109 83.4976 3.07108 83.4976 3.07107C83.4975 3.07106 83.4974 3.07105 83.4973 3.07103C83.4972 3.07102 83.4972 3.07101 83.4971 3.071C83.497 3.07099 83.4969 3.07097 83.4968 3.07096C83.4968 3.07095 83.4967 3.07094 83.4966 3.07093C83.4965 3.07091 83.4964 3.0709 83.4964 3.07089C83.4963 3.07088 83.4962 3.07087 83.4961 3.07085C83.496 3.07084 83.496 3.07083 83.4959 3.07082C83.4958 3.07081 83.4957 3.07079 83.4956 3.07078C83.4956 3.07077 83.4955 3.07076 83.4954 3.07075C83.4953 3.07074 83.4952 3.07072 83.4952 3.07071C83.4951 3.0707 83.495 3.07069 83.4949 3.07068C83.4949 3.07067 83.4948 3.07065 83.4947 3.07064C83.4946 3.07063 83.4945 3.07062 83.4945 3.07061C83.4944 3.0706 83.4943 3.07058 83.4942 3.07057C83.4942 3.07056 83.4941 3.07055 83.494 3.07054C83.4939 3.07053 83.4939 3.07052 83.4938 3.0705C83.4937 3.07049 83.4936 3.07048 83.4935 3.07047C83.4935 3.07046 83.4934 3.07045 83.4933 3.07044C83.4932 3.07042 83.4932 3.07041 83.4931 3.0704C83.493 3.07039 83.4929 3.07038 83.4929 3.07037C83.4928 3.07036 83.4927 3.07034 83.4926 3.07033C83.4926 3.07032 83.4925 3.07031 83.4924 3.0703C83.4923 3.07029 83.4923 3.07028 83.4922 3.07026C83.4921 3.07025 83.492 3.07024 83.492 3.07023C83.4919 3.07022 83.4918 3.07021 83.4917 3.0702C83.4917 3.07019 83.4916 3.07018 83.4915 3.07016C83.4914 3.07015 83.4914 3.07014 83.4913 3.07013C83.4912 3.07012 83.4911 3.07011 83.4911 3.0701C83.491 3.07009 83.4909 3.07008 83.4908 3.07006C83.4908 3.07005 83.4907 3.07004 83.4906 3.07003C83.4905 3.07002 83.4905 3.07001 83.4904 3.07C83.4903 3.06999 83.4902 3.06998 83.4902 3.06997C83.4901 3.06995 83.49 3.06994 83.49 3.06993C83.4899 3.06992 83.4898 3.06991 83.4897 3.0699C83.4897 3.06989 83.4896 3.06988 83.4895 3.06987C83.4894 3.06986 83.4894 3.06984 83.4893 3.06983C83.4892 3.06982 83.4892 3.06981 83.4891 3.0698C83.489 3.06979 83.4889 3.06978 83.4889 3.06977C83.4888 3.06976 83.4887 3.06975 83.4886 3.06974C83.4886 3.06973 83.4885 3.06972 83.4884 3.0697C83.4884 3.06969 83.4883 3.06968 83.4882 3.06967C83.4881 3.06966 83.4881 3.06965 83.488 3.06964C83.4879 3.06963 83.4879 3.06962 83.4878 3.06961C83.4877 3.0696 83.4876 3.06959 83.4876 3.06958C83.4875 3.06957 83.4874 3.06956 83.4874 3.06955C83.4873 3.06953 83.4872 3.06952 83.4872 3.06951C83.4871 3.0695 83.487 3.06949 83.4869 3.06948C83.4869 3.06947 83.4868 3.06946 83.4867 3.06945C83.4867 3.06944 83.4866 3.06943 83.4865 3.06942C83.4865 3.06941 83.4864 3.0694 83.4863 3.06939C83.4862 3.06938 83.4862 3.06937 83.4861 3.06936C83.486 3.06935 83.486 3.06934 83.4859 3.06932C83.4858 3.06931 83.4858 3.0693 83.4857 3.06929C83.4856 3.06928 83.4855 3.06927 83.4855 3.06926C83.4854 3.06925 83.4853 3.06924 83.4853 3.06923C83.4852 3.06922 83.4851 3.06921 83.4851 3.0692C83.485 3.06919 83.4849 3.06918 83.4849 3.06917C83.4848 3.06916 83.4847 3.06915 83.4847 3.06914C83.4846 3.06913 83.4845 3.06912 83.4844 3.06911C83.4844 3.0691 83.4843 3.06909 83.4842 3.06908C83.4842 3.06907 83.4841 3.06906 83.484 3.06905C83.484 3.06904 83.4839 3.06903 83.4838 3.06902C83.4838 3.06901 83.4837 3.069 83.4836 3.06899C83.4836 3.06898 83.4835 3.06897 83.4834 3.06896C83.4834 3.06895 83.4833 3.06894 83.4832 3.06893C83.4832 3.06892 83.4831 3.06891 83.483 3.0689C83.483 3.06888 83.4829 3.06887 83.4828 3.06886C83.4828 3.06885 83.4827 3.06884 83.4826 3.06883C83.4826 3.06882 83.4825 3.06881 83.4824 3.0688C83.4823 3.06879 83.4823 3.06878 83.4822 3.06877C83.4821 3.06876 83.4821 3.06875 83.482 3.06874C83.4819 3.06873 83.4819 3.06872 83.4818 3.06871C83.4817 3.0687 83.4817 3.0687 83.4816 3.06869C83.4816 3.06868 83.4815 3.06867 83.4814 3.06866C83.4814 3.06865 83.4813 3.06864 83.4812 3.06863C83.4812 3.06862 83.4811 3.06861 83.481 3.0686C83.481 3.06859 83.4809 3.06858 83.4808 3.06857C83.4808 3.06856 83.4807 3.06855 83.4806 3.06854C83.4806 3.06853 83.4805 3.06852 83.4804 3.06851C83.4804 3.0685 83.4803 3.06849 83.4802 3.06848C83.4802 3.06847 83.4801 3.06846 83.48 3.06845C83.48 3.06844 83.4799 3.06843 83.4798 3.06842C83.4798 3.06841 83.4797 3.0684 83.4796 3.06839C83.4796 3.06838 83.4795 3.06837 83.4795 3.06836C83.4794 3.06835 83.4793 3.06834 83.4793 3.06833C83.4792 3.06832 83.4791 3.06831 83.4791 3.0683C83.479 3.06829 83.4789 3.06828 83.4789 3.06827C83.4788 3.06826 83.4787 3.06825 83.4787 3.06824C83.4786 3.06823 83.4785 3.06823 83.4785 3.06822C83.4784 3.06821 83.4783 3.0682 83.4783 3.06819C83.4782 3.06818 83.4782 3.06817 83.4781 3.06816C83.478 3.06815 83.478 3.06814 83.4779 3.06813C83.4778 3.06812 83.4778 3.06811 83.4777 3.0681C83.4776 3.06809 83.4776 3.06808 83.4775 3.06807C83.4774 3.06806 83.4774 3.06805 83.4773 3.06804C83.4773 3.06803 83.4772 3.06802 83.4771 3.06801C83.4771 3.068 83.477 3.06799 83.4769 3.06799C83.4769 3.06798 83.4768 3.06797 83.4767 3.06796C83.4767 3.06795 83.4766 3.06794 83.4766 3.06793C83.4765 3.06792 83.4764 3.06791 83.4764 3.0679C83.4763 3.06789 83.4762 3.06788 83.4762 3.06787C83.4761 3.06786 83.476 3.06785 83.476 3.06784C83.4759 3.06783 83.4759 3.06782 83.4758 3.06781C83.4757 3.0678 83.4757 3.0678 83.4756 3.06779C83.4755 3.06778 83.4755 3.06777 83.4754 3.06776C83.4754 3.06775 83.4753 3.06774 83.4752 3.06773C83.4752 3.06772 83.4751 3.06771 83.475 3.0677C83.475 3.06769 83.4749 3.06768 83.4748 3.06767C83.4748 3.06766 83.4747 3.06765 83.4747 3.06764C83.4746 3.06763 83.4745 3.06763 83.4745 3.06762C83.4744 3.06761 83.4743 3.0676 83.4743 3.06759C83.4742 3.06758 83.4742 3.06757 83.4741 3.06756C83.474 3.06755 83.474 3.06754 83.4739 3.06753C83.4738 3.06752 83.4738 3.06751 83.4737 3.0675C83.4737 3.06749 83.4736 3.06748 83.4735 3.06748C83.4735 3.06747 83.4734 3.06746 83.4733 3.06745C83.4733 3.06744 83.4732 3.06743 83.4732 3.06742C83.4731 3.06741 83.473 3.0674 83.473 3.06739C83.4729 3.06738 83.4728 3.06737 83.4728 3.06736C83.4727 3.06735 83.4727 3.06734 83.4726 3.06734C83.4725 3.06733 83.4725 3.06732 83.4724 3.06731C83.4723 3.0673 83.4723 3.06729 83.4722 3.06728C83.4722 3.06727 83.4721 3.06726 83.472 3.06725C83.472 3.06724 83.4719 3.06723 83.4718 3.06722C83.4718 3.06721 83.4717 3.0672 83.4717 3.0672C83.4716 3.06719 83.4715 3.06718 83.4715 3.06717C83.4714 3.06716 83.4714 3.06715 83.4713 3.06714C83.4712 3.06713 83.4712 3.06712 83.4711 3.06711C83.471 3.0671 83.471 3.06709 83.4709 3.06708C83.4709 3.06707 83.4708 3.06707 83.4707 3.06706C83.4707 3.06705 83.4706 3.06704 83.4705 3.06703C83.4705 3.06702 83.4704 3.06701 83.4704 3.067C83.4703 3.06699 83.4702 3.06698 83.4702 3.06697C83.4701 3.06696 83.47 3.06695 83.47 3.06695C83.4699 3.06694 83.4699 3.06693 83.4698 3.06692C83.4697 3.06691 83.4697 3.0669 83.4696 3.06689C83.4696 3.06688 83.4695 3.06687 83.4694 3.06686C83.4694 3.06685 83.4693 3.06684 83.4692 3.06683C83.4692 3.06682 83.4691 3.06682 83.4691 3.06681C83.469 3.0668 83.4689 3.06679 83.4689 3.06678C83.4688 3.06677 83.4687 3.06676 83.4687 3.06675C83.4686 3.06674 83.4686 3.06673 83.4685 3.06672C83.4684 3.06671 83.4684 3.0667 83.4683 3.0667C83.4683 3.06669 83.4682 3.06668 83.4681 3.06667C83.4681 3.06666 83.468 3.06665 83.4679 3.06664C83.4679 3.06663 83.4678 3.06662 83.4678 3.06661C83.4677 3.0666 83.4676 3.06659 83.4676 3.06658C83.4675 3.06657 83.4674 3.06657 83.4674 3.06656C83.4673 3.06655 83.4673 3.06654 83.4672 3.06653C83.4671 3.06652 83.4671 3.06651 83.467 3.0665C83.467 3.06649 83.4669 3.06648 83.4668 3.06647C83.4668 3.06646 83.4667 3.06645 83.4666 3.06645C83.4666 3.06644 83.4665 3.06643 83.4665 3.06642C83.4664 3.06641 83.4663 3.0664 83.4663 3.06639C83.4662 3.06638 83.4661 3.06637 83.4661 3.06636C83.466 3.06635 83.466 3.06634 83.4659 3.06633C83.4658 3.06632 83.4658 3.06632 83.4657 3.06631C83.4657 3.0663 83.4656 3.06629 83.4655 3.06628C83.4655 3.06627 83.4654 3.06626 83.4653 3.06625C83.4653 3.06624 83.4652 3.06623 83.4652 3.06622C83.4651 3.06621 83.465 3.0662 83.465 3.06619C83.4649 3.06619 83.4648 3.06618 83.4648 3.06617C83.4647 3.06616 83.4647 3.06615 83.4646 3.06614C83.4645 3.06613 83.4645 3.06612 83.4644 3.06611C83.4643 3.0661 83.4643 3.06609 83.4642 3.06608C83.4642 3.06607 83.4641 3.06606 83.464 3.06605C83.464 3.06605 83.4639 3.06604 83.4638 3.06603C83.4638 3.06602 83.4637 3.06601 83.4637 3.066C83.4636 3.06599 83.4635 3.06598 83.4635 3.06597C83.4634 3.06596 83.4633 3.06595 83.4633 3.06594C83.4632 3.06593 83.4632 3.06592 83.4631 3.06591C83.463 3.0659 83.463 3.0659 83.4629 3.06589C83.4628 3.06588 83.4628 3.06587 83.4627 3.06586C83.4627 3.06585 83.4626 3.06584 83.4625 3.06583C83.4625 3.06582 83.4624 3.06581 83.4623 3.0658C83.4623 3.06579 83.4622 3.06578 83.4622 3.06577C83.4621 3.06576 83.462 3.06575 83.462 3.06575C83.4619 3.06574 83.4618 3.06573 83.4618 3.06572C83.4617 3.06571 83.4616 3.0657 83.4616 3.06569C83.4615 3.06568 83.4615 3.06567 83.4614 3.06566C83.4613 3.06565 83.4613 3.06564 83.4612 3.06563C83.4611 3.06562 83.4611 3.06561 83.461 3.0656C83.461 3.06559 83.4609 3.06558 83.4608 3.06557C83.4608 3.06557 83.4607 3.06556 83.4606 3.06555C83.4606 3.06554 83.4605 3.06553 83.4604 3.06552C83.4604 3.06551 83.4603 3.0655 83.4603 3.06549C83.4602 3.06548 83.4601 3.06547 83.4601 3.06546C83.46 3.06545 83.4599 3.06544 83.4599 3.06543C83.4598 3.06542 83.4597 3.06541 83.4597 3.0654C83.4596 3.06539 83.4596 3.06538 83.4595 3.06537C83.4594 3.06537 83.4594 3.06536 83.4593 3.06535C83.4592 3.06534 83.4592 3.06533 83.4591 3.06532C83.459 3.06531 83.459 3.0653 83.4589 3.06529C83.4588 3.06528 83.4588 3.06527 83.4587 3.06526C83.4587 3.06525 83.4586 3.06524 83.4585 3.06523C83.4585 3.06522 83.4584 3.06521 83.4583 3.0652C83.4583 3.06519 83.4582 3.06518 83.4581 3.06517C83.4581 3.06516 83.458 3.06515 83.4579 3.06514C83.4579 3.06513 83.4578 3.06512 83.4577 3.06511C83.4577 3.0651 83.4576 3.06509 83.4576 3.06509C83.4575 3.06508 83.4574 3.06507 83.4574 3.06506C83.4573 3.06505 83.4572 3.06504 83.4572 3.06503C83.4571 3.06502 83.457 3.06501 83.457 3.065C83.4569 3.06499 83.4568 3.06498 83.4568 3.06497C83.4567 3.06496 83.4566 3.06495 83.4566 3.06494C83.4565 3.06493 83.4564 3.06492 83.4564 3.06491C83.4563 3.0649 83.4562 3.06489 83.4562 3.06488C83.4561 3.06487 83.456 3.06486 83.456 3.06485C83.4559 3.06484 83.4558 3.06483 83.4558 3.06482C83.4557 3.06481 83.4557 3.0648 83.4556 3.06479C83.4555 3.06478 83.4555 3.06477 83.4554 3.06476C83.4553 3.06475 83.4553 3.06474 83.4552 3.06473C83.4551 3.06472 83.4551 3.06471 83.455 3.0647C83.4549 3.06469 83.4549 3.06468 83.4548 3.06467C83.4547 3.06466 83.4547 3.06465 83.4546 3.06464C83.4545 3.06463 83.4545 3.06462 83.4544 3.06461C83.4543 3.0646 83.4543 3.06459 83.4542 3.06458C83.4541 3.06457 83.454 3.06456 83.454 3.06455C83.4539 3.06454 83.4538 3.06453 83.4538 3.06452C83.4537 3.06451 83.4536 3.0645 83.4536 3.06449C83.4535 3.06448 83.4534 3.06447 83.4534 3.06446C83.4533 3.06445 83.4532 3.06444 83.4532 3.06443C83.4531 3.06442 83.453 3.06441 83.453 3.0644C83.4529 3.06439 83.4528 3.06438 83.4528 3.06437C83.4527 3.06436 83.4526 3.06435 83.4526 3.06434C83.4525 3.06433 83.4524 3.06432 83.4524 3.06431C83.4523 3.0643 83.4522 3.06429 83.4521 3.06428C83.4521 3.06427 83.452 3.06426 83.4519 3.06425C83.4519 3.06424 83.4518 3.06422 83.4517 3.06421C83.4517 3.0642 83.4516 3.06419 83.4515 3.06418C83.4515 3.06417 83.4514 3.06416 83.4513 3.06415C83.4512 3.06414 83.4512 3.06413 83.4511 3.06412C83.451 3.06411 83.451 3.0641 83.4509 3.06409C83.4508 3.06408 83.4508 3.06407 83.4507 3.06406C83.4506 3.06405 83.4506 3.06404 83.4505 3.06403C83.4504 3.06402 83.4503 3.06401 83.4503 3.064C83.4502 3.06399 83.4501 3.06397 83.4501 3.06396C83.45 3.06395 83.4499 3.06394 83.4498 3.06393C83.4498 3.06392 83.4497 3.06391 83.4496 3.0639C83.4496 3.06389 83.4495 3.06388 83.4494 3.06387C83.4494 3.06386 83.4493 3.06385 83.4492 3.06384C83.4491 3.06383 83.4491 3.06382 83.449 3.06381C83.4489 3.06379 83.4489 3.06378 83.4488 3.06377C83.4487 3.06376 83.4486 3.06375 83.4486 3.06374C83.4485 3.06373 83.4484 3.06372 83.4484 3.06371C83.4483 3.0637 83.4482 3.06369 83.4481 3.06368C83.4481 3.06367 83.448 3.06366 83.4479 3.06364C83.4478 3.06363 83.4478 3.06362 83.4477 3.06361C83.4476 3.0636 83.4476 3.06359 83.4475 3.06358C83.4474 3.06357 83.4473 3.06356 83.4473 3.06355C83.4472 3.06354 83.4471 3.06352 83.447 3.06351C83.447 3.0635 83.4469 3.06349 83.4468 3.06348C83.4468 3.06347 83.4467 3.06346 83.4466 3.06345C83.4465 3.06344 83.4465 3.06343 83.4464 3.06342C83.4463 3.0634 83.4462 3.06339 83.4462 3.06338C83.4461 3.06337 83.446 3.06336 83.4459 3.06335C83.4459 3.06334 83.4458 3.06333 83.4457 3.06332C83.4456 3.0633 83.4456 3.06329 83.4455 3.06328C83.4454 3.06327 83.4453 3.06326 83.4453 3.06325C83.4452 3.06324 83.4451 3.06323 83.4451 3.06321C83.445 3.0632 83.4449 3.06319 83.4448 3.06318C83.4447 3.06317 83.4447 3.06316 83.4446 3.06315C83.4445 3.06314 83.4444 3.06312 83.4444 3.06311C83.4443 3.0631 83.4442 3.06309 83.4441 3.06308C83.4441 3.06307 83.444 3.06306 83.4439 3.06305C83.4438 3.06303 83.4438 3.06302 83.4437 3.06301C83.4436 3.063 83.4435 3.06299 83.4435 3.06298C83.4434 3.06297 83.4433 3.06295 83.4432 3.06294C83.4432 3.06293 83.4431 3.06292 83.443 3.06291C83.4429 3.0629 83.4428 3.06288 83.4428 3.06287C83.4427 3.06286 83.4426 3.06285 83.4425 3.06284C83.4425 3.06283 83.4424 3.06281 83.4423 3.0628C83.4422 3.06279 83.4421 3.06278 83.4421 3.06277C83.442 3.06276 83.4419 3.06274 83.4418 3.06273C83.4418 3.06272 83.4417 3.06271 83.4416 3.0627C83.4415 3.06269 83.4414 3.06267 83.4414 3.06266C83.4413 3.06265 83.4412 3.06264 83.4411 3.06263C83.441 3.06262 83.441 3.0626 83.4409 3.06259C83.4408 3.06258 83.4407 3.06257 83.4406 3.06256C83.4406 3.06254 83.4405 3.06253 83.4404 3.06252C83.4403 3.06251 83.4402 3.0625 83.4402 3.06248C83.4401 3.06247 83.44 3.06246 83.4399 3.06245C83.4398 3.06244 83.4398 3.06242 83.4397 3.06241C83.4396 3.0624 83.4395 3.06239 83.4394 3.06238C83.4394 3.06236 83.4393 3.06235 83.4392 3.06234C83.4391 3.06233 83.439 3.06232 83.439 3.0623C83.4389 3.06229 83.4388 3.06228 83.4387 3.06227C83.4386 3.06225 83.4385 3.06224 83.4385 3.06223C83.4384 3.06222 83.4383 3.06221 83.4382 3.06219C83.4381 3.06218 83.4381 3.06217 83.438 3.06216C83.4379 3.06214 83.4378 3.06213 83.4377 3.06212C83.4376 3.06211 83.4376 3.06209 83.4375 3.06208C83.4374 3.06207 83.4373 3.06206 83.4372 3.06204C83.4371 3.06203 83.4371 3.06202 83.437 3.06201C83.4369 3.06199 83.4368 3.06198 83.4367 3.06197C83.4366 3.06196 83.4366 3.06194 83.4365 3.06193C83.4364 3.06192 83.4363 3.06191 83.4362 3.06189C83.4361 3.06188 83.436 3.06187 83.436 3.06186C83.4359 3.06184 83.4358 3.06183 83.4357 3.06182C83.4356 3.0618 83.4355 3.06179 83.4355 3.06178C83.4354 3.06177 83.4353 3.06175 83.4352 3.06174C83.4351 3.06173 83.435 3.06172 83.4349 3.0617C83.4349 3.06169 83.4348 3.06168 83.4347 3.06166C83.4346 3.06165 83.4345 3.06164 83.4344 3.06162C83.4343 3.06161 83.4342 3.0616 83.4342 3.06159C83.4341 3.06157 83.434 3.06156 83.4339 3.06155C83.4338 3.06153 83.4337 3.06152 83.4336 3.06151C83.4336 3.06149 83.4335 3.06148 83.4334 3.06147C83.4333 3.06145 83.4332 3.06144 83.4331 3.06143C83.433 3.06142 83.4329 3.0614 83.4328 3.06139C83.4328 3.06138 83.4327 3.06136 83.4326 3.06135C83.4325 3.06134 83.4324 3.06132 83.4323 3.06131C83.4322 3.0613 83.4321 3.06128 83.432 3.06127C83.432 3.06126 83.4319 3.06124 83.4318 3.06123C83.4317 3.06122 83.4316 3.0612 83.4315 3.06119C83.4314 3.06118 83.4313 3.06116 83.4312 3.06115C83.4311 3.06113 83.4311 3.06112 83.431 3.06111C83.4309 3.06109 83.4308 3.06108 83.4307 3.06107C83.4306 3.06105 83.4305 3.06104 83.4304 3.06103C83.4303 3.06101 83.4302 3.061 83.4301 3.06098C83.4301 3.06097 83.43 3.06096 83.4299 3.06094C83.4298 3.06093 83.4297 3.06092 83.4296 3.0609C83.4295 3.06089 83.4294 3.06087 83.4293 3.06086C83.4292 3.06085 83.4291 3.06083 83.429 3.06082C83.4289 3.0608 83.4288 3.06079 83.4288 3.06078C83.4287 3.06076 83.4286 3.06075 83.4285 3.06073C83.4284 3.06072 83.4283 3.06071 83.4282 3.06069C83.4281 3.06068 83.428 3.06066 83.4279 3.06065C83.4278 3.06064 83.4277 3.06062 83.4276 3.06061C83.4275 3.06059 83.4274 3.06058 83.4273 3.06056C83.4272 3.06055 83.4271 3.06054 83.4271 3.06052C83.427 3.06051 83.4269 3.06049 83.4268 3.06048C83.4267 3.06046 83.4266 3.06045 83.4265 3.06044C83.4264 3.06042 83.4263 3.06041 83.4262 3.06039C83.4261 3.06038 83.426 3.06036 83.4259 3.06035C83.4258 3.06033 83.4257 3.06032 83.4256 3.06031C83.4255 3.06029 83.4254 3.06028 83.4253 3.06026C83.4252 3.06025 83.4251 3.06023 83.425 3.06022C83.4249 3.0602 83.4248 3.06019 83.4247 3.06017C83.4246 3.06016 83.4245 3.06014 83.4244 3.06013C83.4243 3.06011 83.4242 3.0601 83.4241 3.06009C83.424 3.06007 83.4239 3.06006 83.4238 3.06004C83.4237 3.06003 83.4236 3.06001 83.4235 3.06C83.4234 3.05998 83.4233 3.05997 83.4232 3.05995C83.4231 3.05994 83.423 3.05992 83.4229 3.05991C83.4228 3.05989 83.4227 3.05988 83.4226 3.05986C83.4225 3.05985 83.4224 3.05983 83.4223 3.05981C83.4222 3.0598 83.4221 3.05978 83.422 3.05977C83.4219 3.05975 83.4218 3.05974 83.4217 3.05972C83.4216 3.05971 83.4215 3.05969 83.4214 3.05968C83.4213 3.05966 83.4212 3.05965 83.4211 3.05963C83.421 3.05962 83.4209 3.0596 83.4208 3.05958C83.4207 3.05957 83.4206 3.05955 83.4205 3.05954C83.4204 3.05952 83.4203 3.05951 83.4202 3.05949C83.4201 3.05948 83.42 3.05946 83.4198 3.05944C83.4197 3.05943 83.4196 3.05941 83.4195 3.0594C83.4194 3.05938 83.4193 3.05937 83.4192 3.05935C83.4191 3.05933 83.419 3.05932 83.4189 3.0593C83.4188 3.05929 83.4187 3.05927 83.4186 3.05926C83.4185 3.05924 83.4184 3.05922 83.4183 3.05921C83.4182 3.05919 83.418 3.05918 83.4179 3.05916C83.4178 3.05914 83.4177 3.05913 83.4176 3.05911C83.4175 3.05909 83.4174 3.05908 83.4173 3.05906C83.4172 3.05905 83.4171 3.05903 83.417 3.05901C83.4169 3.059 83.4168 3.05898 83.4166 3.05897C83.4165 3.05895 83.4164 3.05893 83.4163 3.05892C83.4162 3.0589 83.4161 3.05888 83.416 3.05887C83.4159 3.05885 83.4158 3.05883 83.4157 3.05882C83.4155 3.0588 83.4154 3.05879 83.4153 3.05877C83.4152 3.05875 83.4151 3.05874 83.415 3.05872C83.4149 3.0587 83.4148 3.05869 83.4147 3.05867C83.4146 3.05865 83.4144 3.05864 83.4143 3.05862C83.4142 3.0586 83.4141 3.05859 83.414 3.05857C83.4139 3.05855 83.4138 3.05854 83.4137 3.05852C83.4135 3.0585 83.4134 3.05848 83.4133 3.05847C83.4132 3.05845 83.4131 3.05843 83.413 3.05842C83.4129 3.0584 83.4127 3.05838 83.4126 3.05837C83.4125 3.05835 83.4124 3.05833 83.4123 3.05831C83.4122 3.0583 83.4121 3.05828 83.4119 3.05826C83.4118 3.05825 83.4117 3.05823 83.4116 3.05821C83.4115 3.05819 83.4114 3.05818 83.4113 3.05816C83.4111 3.05814 83.411 3.05812 83.4109 3.05811C83.4108 3.05809 83.4107 3.05807 83.4106 3.05806C83.4104 3.05804 83.4103 3.05802 83.4102 3.058C83.4101 3.05799 83.41 3.05797 83.4099 3.05795C83.4097 3.05793 83.4096 3.05791 83.4095 3.0579C83.4094 3.05788 83.4093 3.05786 83.4091 3.05784C83.409 3.05783 83.4089 3.05781 83.4088 3.05779C83.4087 3.05777 83.4086 3.05775 83.4084 3.05774C83.4083 3.05772 83.4082 3.0577 83.4081 3.05768C83.408 3.05767 83.4078 3.05765 83.4077 3.05763C83.4076 3.05761 83.4075 3.05759 83.4074 3.05758C83.4072 3.05756 83.4071 3.05754 83.407 3.05752C83.4069 3.0575 83.4067 3.05748 83.4066 3.05747C83.4065 3.05745 83.4064 3.05743 83.4063 3.05741C83.4061 3.05739 83.406 3.05737 83.4059 3.05736C83.4058 3.05734 83.4056 3.05732 83.4055 3.0573C83.4054 3.05728 83.4053 3.05726 83.4052 3.05725L83.7011 1.07926C83.7012 1.07928 83.7013 1.07929 83.7014 1.07931C83.7015 1.07933 83.7017 1.07935 83.7018 1.07937C83.7019 1.07939 83.702 1.0794 83.7022 1.07942C83.7023 1.07944 83.7024 1.07946 83.7025 1.07948C83.7026 1.0795 83.7028 1.07951 83.7029 1.07953C83.703 1.07955 83.7031 1.07957 83.7033 1.07959C83.7034 1.0796 83.7035 1.07962 83.7036 1.07964C83.7037 1.07966 83.7039 1.07968 83.704 1.07969C83.7041 1.07971 83.7042 1.07973 83.7043 1.07975C83.7045 1.07977 83.7046 1.07978 83.7047 1.0798C83.7048 1.07982 83.7049 1.07984 83.705 1.07985C83.7052 1.07987 83.7053 1.07989 83.7054 1.07991C83.7055 1.07993 83.7056 1.07994 83.7058 1.07996C83.7059 1.07998 83.706 1.08 83.7061 1.08001C83.7062 1.08003 83.7063 1.08005 83.7065 1.08007C83.7066 1.08008 83.7067 1.0801 83.7068 1.08012C83.7069 1.08014 83.707 1.08015 83.7072 1.08017C83.7073 1.08019 83.7074 1.0802 83.7075 1.08022C83.7076 1.08024 83.7077 1.08026 83.7079 1.08027C83.708 1.08029 83.7081 1.08031 83.7082 1.08032C83.7083 1.08034 83.7084 1.08036 83.7085 1.08038C83.7087 1.08039 83.7088 1.08041 83.7089 1.08043C83.709 1.08044 83.7091 1.08046 83.7092 1.08048C83.7093 1.08049 83.7094 1.08051 83.7096 1.08053C83.7097 1.08055 83.7098 1.08056 83.7099 1.08058C83.71 1.0806 83.7101 1.08061 83.7102 1.08063C83.7103 1.08065 83.7105 1.08066 83.7106 1.08068C83.7107 1.0807 83.7108 1.08071 83.7109 1.08073C83.711 1.08075 83.7111 1.08076 83.7112 1.08078C83.7113 1.0808 83.7115 1.08081 83.7116 1.08083C83.7117 1.08085 83.7118 1.08086 83.7119 1.08088C83.712 1.08089 83.7121 1.08091 83.7122 1.08093C83.7123 1.08094 83.7124 1.08096 83.7125 1.08098C83.7127 1.08099 83.7128 1.08101 83.7129 1.08102C83.713 1.08104 83.7131 1.08106 83.7132 1.08107C83.7133 1.08109 83.7134 1.08111 83.7135 1.08112C83.7136 1.08114 83.7137 1.08115 83.7138 1.08117C83.714 1.08119 83.7141 1.0812 83.7142 1.08122C83.7143 1.08123 83.7144 1.08125 83.7145 1.08127C83.7146 1.08128 83.7147 1.0813 83.7148 1.08131C83.7149 1.08133 83.715 1.08134 83.7151 1.08136C83.7152 1.08138 83.7153 1.08139 83.7154 1.08141C83.7155 1.08142 83.7156 1.08144 83.7157 1.08145C83.7159 1.08147 83.716 1.08149 83.7161 1.0815C83.7162 1.08152 83.7163 1.08153 83.7164 1.08155C83.7165 1.08156 83.7166 1.08158 83.7167 1.0816C83.7168 1.08161 83.7169 1.08163 83.717 1.08164C83.7171 1.08166 83.7172 1.08167 83.7173 1.08169C83.7174 1.0817 83.7175 1.08172 83.7176 1.08173C83.7177 1.08175 83.7178 1.08176 83.7179 1.08178C83.718 1.08179 83.7181 1.08181 83.7182 1.08183C83.7183 1.08184 83.7184 1.08186 83.7185 1.08187C83.7186 1.08189 83.7187 1.0819 83.7188 1.08192C83.7189 1.08193 83.719 1.08195 83.7191 1.08196C83.7192 1.08198 83.7193 1.08199 83.7194 1.08201C83.7195 1.08202 83.7196 1.08204 83.7197 1.08205C83.7198 1.08207 83.7199 1.08208 83.72 1.0821C83.7201 1.08211 83.7202 1.08213 83.7203 1.08214C83.7204 1.08215 83.7205 1.08217 83.7206 1.08218C83.7207 1.0822 83.7208 1.08221 83.7209 1.08223C83.721 1.08224 83.7211 1.08226 83.7212 1.08227C83.7213 1.08229 83.7214 1.0823 83.7215 1.08232C83.7216 1.08233 83.7217 1.08235 83.7218 1.08236C83.7219 1.08237 83.722 1.08239 83.7221 1.0824C83.7222 1.08242 83.7223 1.08243 83.7224 1.08245C83.7225 1.08246 83.7226 1.08248 83.7227 1.08249C83.7228 1.0825 83.7229 1.08252 83.723 1.08253C83.723 1.08255 83.7231 1.08256 83.7232 1.08258C83.7233 1.08259 83.7234 1.0826 83.7235 1.08262C83.7236 1.08263 83.7237 1.08265 83.7238 1.08266C83.7239 1.08267 83.724 1.08269 83.7241 1.0827C83.7242 1.08272 83.7243 1.08273 83.7244 1.08275C83.7245 1.08276 83.7246 1.08277 83.7247 1.08279C83.7247 1.0828 83.7248 1.08282 83.7249 1.08283C83.725 1.08284 83.7251 1.08286 83.7252 1.08287C83.7253 1.08288 83.7254 1.0829 83.7255 1.08291C83.7256 1.08293 83.7257 1.08294 83.7258 1.08295C83.7259 1.08297 83.726 1.08298 83.726 1.083C83.7261 1.08301 83.7262 1.08302 83.7263 1.08304C83.7264 1.08305 83.7265 1.08306 83.7266 1.08308C83.7267 1.08309 83.7268 1.0831 83.7269 1.08312C83.727 1.08313 83.727 1.08315 83.7271 1.08316C83.7272 1.08317 83.7273 1.08319 83.7274 1.0832C83.7275 1.08321 83.7276 1.08323 83.7277 1.08324C83.7278 1.08325 83.7279 1.08327 83.7279 1.08328C83.728 1.08329 83.7281 1.08331 83.7282 1.08332C83.7283 1.08333 83.7284 1.08335 83.7285 1.08336C83.7286 1.08337 83.7287 1.08339 83.7287 1.0834C83.7288 1.08341 83.7289 1.08343 83.729 1.08344C83.7291 1.08345 83.7292 1.08347 83.7293 1.08348C83.7294 1.08349 83.7295 1.0835 83.7295 1.08352C83.7296 1.08353 83.7297 1.08354 83.7298 1.08356C83.7299 1.08357 83.73 1.08358 83.7301 1.0836C83.7302 1.08361 83.7302 1.08362 83.7303 1.08364C83.7304 1.08365 83.7305 1.08366 83.7306 1.08367C83.7307 1.08369 83.7308 1.0837 83.7308 1.08371C83.7309 1.08373 83.731 1.08374 83.7311 1.08375C83.7312 1.08376 83.7313 1.08378 83.7314 1.08379C83.7314 1.0838 83.7315 1.08382 83.7316 1.08383C83.7317 1.08384 83.7318 1.08385 83.7319 1.08387C83.732 1.08388 83.732 1.08389 83.7321 1.0839C83.7322 1.08392 83.7323 1.08393 83.7324 1.08394C83.7325 1.08395 83.7325 1.08397 83.7326 1.08398C83.7327 1.08399 83.7328 1.084 83.7329 1.08402C83.733 1.08403 83.733 1.08404 83.7331 1.08405C83.7332 1.08407 83.7333 1.08408 83.7334 1.08409C83.7335 1.0841 83.7335 1.08412 83.7336 1.08413C83.7337 1.08414 83.7338 1.08415 83.7339 1.08417C83.734 1.08418 83.734 1.08419 83.7341 1.0842C83.7342 1.08422 83.7343 1.08423 83.7344 1.08424C83.7345 1.08425 83.7345 1.08426 83.7346 1.08428C83.7347 1.08429 83.7348 1.0843 83.7349 1.08431C83.7349 1.08433 83.735 1.08434 83.7351 1.08435C83.7352 1.08436 83.7353 1.08437 83.7353 1.08439C83.7354 1.0844 83.7355 1.08441 83.7356 1.08442C83.7357 1.08443 83.7357 1.08445 83.7358 1.08446C83.7359 1.08447 83.736 1.08448 83.7361 1.0845C83.7362 1.08451 83.7362 1.08452 83.7363 1.08453C83.7364 1.08454 83.7365 1.08455 83.7365 1.08457C83.7366 1.08458 83.7367 1.08459 83.7368 1.0846C83.7369 1.08461 83.7369 1.08463 83.737 1.08464C83.7371 1.08465 83.7372 1.08466 83.7373 1.08467C83.7373 1.08469 83.7374 1.0847 83.7375 1.08471C83.7376 1.08472 83.7377 1.08473 83.7377 1.08474C83.7378 1.08476 83.7379 1.08477 83.738 1.08478C83.738 1.08479 83.7381 1.0848 83.7382 1.08481C83.7383 1.08483 83.7384 1.08484 83.7384 1.08485C83.7385 1.08486 83.7386 1.08487 83.7387 1.08488C83.7387 1.0849 83.7388 1.08491 83.7389 1.08492C83.739 1.08493 83.7391 1.08494 83.7391 1.08495C83.7392 1.08496 83.7393 1.08498 83.7394 1.08499C83.7394 1.085 83.7395 1.08501 83.7396 1.08502C83.7397 1.08503 83.7397 1.08504 83.7398 1.08506C83.7399 1.08507 83.74 1.08508 83.74 1.08509C83.7401 1.0851 83.7402 1.08511 83.7403 1.08512C83.7403 1.08514 83.7404 1.08515 83.7405 1.08516C83.7406 1.08517 83.7407 1.08518 83.7407 1.08519C83.7408 1.0852 83.7409 1.08521 83.741 1.08523C83.741 1.08524 83.7411 1.08525 83.7412 1.08526C83.7413 1.08527 83.7413 1.08528 83.7414 1.08529C83.7415 1.0853 83.7415 1.08531 83.7416 1.08533C83.7417 1.08534 83.7418 1.08535 83.7418 1.08536C83.7419 1.08537 83.742 1.08538 83.7421 1.08539C83.7421 1.0854 83.7422 1.08541 83.7423 1.08543C83.7424 1.08544 83.7424 1.08545 83.7425 1.08546C83.7426 1.08547 83.7427 1.08548 83.7427 1.08549C83.7428 1.0855 83.7429 1.08551 83.743 1.08552C83.743 1.08554 83.7431 1.08555 83.7432 1.08556C83.7432 1.08557 83.7433 1.08558 83.7434 1.08559C83.7435 1.0856 83.7435 1.08561 83.7436 1.08562C83.7437 1.08563 83.7438 1.08564 83.7438 1.08565C83.7439 1.08567 83.744 1.08568 83.744 1.08569C83.7441 1.0857 83.7442 1.08571 83.7443 1.08572C83.7443 1.08573 83.7444 1.08574 83.7445 1.08575C83.7445 1.08576 83.7446 1.08577 83.7447 1.08578C83.7448 1.08579 83.7448 1.08581 83.7449 1.08582C83.745 1.08583 83.745 1.08584 83.7451 1.08585C83.7452 1.08586 83.7453 1.08587 83.7453 1.08588C83.7454 1.08589 83.7455 1.0859 83.7455 1.08591C83.7456 1.08592 83.7457 1.08593 83.7458 1.08594C83.7458 1.08595 83.7459 1.08596 83.746 1.08597C83.746 1.08599 83.7461 1.086 83.7462 1.08601C83.7462 1.08602 83.7463 1.08603 83.7464 1.08604C83.7465 1.08605 83.7465 1.08606 83.7466 1.08607C83.7467 1.08608 83.7467 1.08609 83.7468 1.0861C83.7469 1.08611 83.7469 1.08612 83.747 1.08613C83.7471 1.08614 83.7472 1.08615 83.7472 1.08616C83.7473 1.08617 83.7474 1.08618 83.7474 1.08619C83.7475 1.0862 83.7476 1.08621 83.7476 1.08623C83.7477 1.08624 83.7478 1.08625 83.7478 1.08626C83.7479 1.08627 83.748 1.08628 83.748 1.08629C83.7481 1.0863 83.7482 1.08631 83.7483 1.08632C83.7483 1.08633 83.7484 1.08634 83.7485 1.08635C83.7485 1.08636 83.7486 1.08637 83.7487 1.08638C83.7487 1.08639 83.7488 1.0864 83.7489 1.08641C83.7489 1.08642 83.749 1.08643 83.7491 1.08644C83.7491 1.08645 83.7492 1.08646 83.7493 1.08647C83.7493 1.08648 83.7494 1.08649 83.7495 1.0865C83.7495 1.08651 83.7496 1.08652 83.7497 1.08653C83.7497 1.08654 83.7498 1.08655 83.7499 1.08656C83.75 1.08657 83.75 1.08658 83.7501 1.08659C83.7502 1.0866 83.7502 1.08661 83.7503 1.08662C83.7504 1.08663 83.7504 1.08664 83.7505 1.08665C83.7506 1.08666 83.7506 1.08667 83.7507 1.08668C83.7508 1.08669 83.7508 1.0867 83.7509 1.08671C83.751 1.08672 83.751 1.08673 83.7511 1.08674C83.7512 1.08675 83.7512 1.08676 83.7513 1.08677C83.7514 1.08678 83.7514 1.08679 83.7515 1.0868C83.7516 1.08681 83.7516 1.08682 83.7517 1.08683C83.7518 1.08684 83.7518 1.08685 83.7519 1.08686C83.7519 1.08687 83.752 1.08688 83.7521 1.08689C83.7521 1.0869 83.7522 1.08691 83.7523 1.08692C83.7523 1.08693 83.7524 1.08694 83.7525 1.08695C83.7525 1.08696 83.7526 1.08697 83.7527 1.08698C83.7527 1.08699 83.7528 1.087 83.7529 1.08701C83.7529 1.08702 83.753 1.08703 83.7531 1.08704C83.7531 1.08705 83.7532 1.08706 83.7533 1.08707C83.7533 1.08708 83.7534 1.08709 83.7535 1.0871C83.7535 1.08711 83.7536 1.08712 83.7536 1.08712C83.7537 1.08713 83.7538 1.08714 83.7538 1.08715C83.7539 1.08716 83.754 1.08717 83.754 1.08718C83.7541 1.08719 83.7542 1.0872 83.7542 1.08721C83.7543 1.08722 83.7544 1.08723 83.7544 1.08724C83.7545 1.08725 83.7546 1.08726 83.7546 1.08727C83.7547 1.08728 83.7547 1.08729 83.7548 1.0873C83.7549 1.08731 83.7549 1.08732 83.755 1.08733C83.7551 1.08734 83.7551 1.08735 83.7552 1.08736C83.7553 1.08737 83.7553 1.08738 83.7554 1.08739C83.7555 1.08739 83.7555 1.0874 83.7556 1.08741C83.7556 1.08742 83.7557 1.08743 83.7558 1.08744C83.7558 1.08745 83.7559 1.08746 83.756 1.08747C83.756 1.08748 83.7561 1.08749 83.7562 1.0875C83.7562 1.08751 83.7563 1.08752 83.7563 1.08753C83.7564 1.08754 83.7565 1.08755 83.7565 1.08756C83.7566 1.08757 83.7567 1.08758 83.7567 1.08759C83.7568 1.08759 83.7569 1.0876 83.7569 1.08761C83.757 1.08762 83.757 1.08763 83.7571 1.08764C83.7572 1.08765 83.7572 1.08766 83.7573 1.08767C83.7574 1.08768 83.7574 1.08769 83.7575 1.0877C83.7576 1.08771 83.7576 1.08772 83.7577 1.08773C83.7577 1.08774 83.7578 1.08775 83.7579 1.08776C83.7579 1.08777 83.758 1.08777 83.7581 1.08778C83.7581 1.08779 83.7582 1.0878 83.7582 1.08781C83.7583 1.08782 83.7584 1.08783 83.7584 1.08784C83.7585 1.08785 83.7586 1.08786 83.7586 1.08787C83.7587 1.08788 83.7587 1.08789 83.7588 1.0879C83.7589 1.08791 83.7589 1.08792 83.759 1.08793C83.7591 1.08793 83.7591 1.08794 83.7592 1.08795C83.7592 1.08796 83.7593 1.08797 83.7594 1.08798C83.7594 1.08799 83.7595 1.088 83.7596 1.08801C83.7596 1.08802 83.7597 1.08803 83.7597 1.08804C83.7598 1.08805 83.7599 1.08806 83.7599 1.08807C83.76 1.08807 83.7601 1.08808 83.7601 1.08809C83.7602 1.0881 83.7602 1.08811 83.7603 1.08812C83.7604 1.08813 83.7604 1.08814 83.7605 1.08815C83.7606 1.08816 83.7606 1.08817 83.7607 1.08818C83.7607 1.08819 83.7608 1.0882 83.7609 1.08821C83.7609 1.08821 83.761 1.08822 83.7611 1.08823C83.7611 1.08824 83.7612 1.08825 83.7612 1.08826C83.7613 1.08827 83.7614 1.08828 83.7614 1.08829C83.7615 1.0883 83.7616 1.08831 83.7616 1.08832C83.7617 1.08833 83.7617 1.08834 83.7618 1.08834C83.7619 1.08835 83.7619 1.08836 83.762 1.08837C83.7621 1.08838 83.7621 1.08839 83.7622 1.0884C83.7622 1.08841 83.7623 1.08842 83.7624 1.08843C83.7624 1.08844 83.7625 1.08845 83.7625 1.08846C83.7626 1.08846 83.7627 1.08847 83.7627 1.08848C83.7628 1.08849 83.7629 1.0885 83.7629 1.08851C83.763 1.08852 83.763 1.08853 83.7631 1.08854C83.7632 1.08855 83.7632 1.08856 83.7633 1.08857C83.7634 1.08858 83.7634 1.08859 83.7635 1.08859C83.7635 1.0886 83.7636 1.08861 83.7637 1.08862C83.7637 1.08863 83.7638 1.08864 83.7638 1.08865C83.7639 1.08866 83.764 1.08867 83.764 1.08868C83.7641 1.08869 83.7642 1.0887 83.7642 1.08871C83.7643 1.08872 83.7643 1.08872 83.7644 1.08873C83.7645 1.08874 83.7645 1.08875 83.7646 1.08876C83.7647 1.08877 83.7647 1.08878 83.7648 1.08879C83.7648 1.0888 83.7649 1.08881 83.765 1.08882C83.765 1.08883 83.7651 1.08884 83.7651 1.08884C83.7652 1.08885 83.7653 1.08886 83.7653 1.08887C83.7654 1.08888 83.7655 1.08889 83.7655 1.0889C83.7656 1.08891 83.7656 1.08892 83.7657 1.08893C83.7658 1.08894 83.7658 1.08895 83.7659 1.08896C83.766 1.08897 83.766 1.08897 83.7661 1.08898C83.7661 1.08899 83.7662 1.089 83.7663 1.08901C83.7663 1.08902 83.7664 1.08903 83.7664 1.08904C83.7665 1.08905 83.7666 1.08906 83.7666 1.08907C83.7667 1.08908 83.7668 1.08909 83.7668 1.08909C83.7669 1.0891 83.7669 1.08911 83.767 1.08912C83.7671 1.08913 83.7671 1.08914 83.7672 1.08915C83.7673 1.08916 83.7673 1.08917 83.7674 1.08918C83.7674 1.08919 83.7675 1.0892 83.7676 1.08921C83.7676 1.08922 83.7677 1.08922 83.7677 1.08923C83.7678 1.08924 83.7679 1.08925 83.7679 1.08926C83.768 1.08927 83.7681 1.08928 83.7681 1.08929C83.7682 1.0893 83.7682 1.08931 83.7683 1.08932C83.7684 1.08933 83.7684 1.08934 83.7685 1.08935C83.7686 1.08936 83.7686 1.08936 83.7687 1.08937C83.7687 1.08938 83.7688 1.08939 83.7689 1.0894C83.7689 1.08941 83.769 1.08942 83.7691 1.08943C83.7691 1.08944 83.7692 1.08945 83.7692 1.08946C83.7693 1.08947 83.7694 1.08948 83.7694 1.08949C83.7695 1.0895 83.7696 1.0895 83.7696 1.08951C83.7697 1.08952 83.7697 1.08953 83.7698 1.08954C83.7699 1.08955 83.7699 1.08956 83.77 1.08957C83.7701 1.08958 83.7701 1.08959 83.7702 1.0896C83.7702 1.08961 83.7703 1.08962 83.7704 1.08963C83.7704 1.08964 83.7705 1.08965 83.7706 1.08965C83.7706 1.08966 83.7707 1.08967 83.7708 1.08968C83.7708 1.08969 83.7709 1.0897 83.7709 1.08971C83.771 1.08972 83.7711 1.08973 83.7711 1.08974C83.7712 1.08975 83.7713 1.08976 83.7713 1.08977C83.7714 1.08978 83.7714 1.08979 83.7715 1.0898C83.7716 1.08981 83.7716 1.08982 83.7717 1.08982C83.7718 1.08983 83.7718 1.08984 83.7719 1.08985C83.772 1.08986 83.772 1.08987 83.7721 1.08988C83.7721 1.08989 83.7722 1.0899 83.7723 1.08991C83.7723 1.08992 83.7724 1.08993 83.7725 1.08994C83.7725 1.08995 83.7726 1.08996 83.7727 1.08997C83.7727 1.08998 83.7728 1.08999 83.7728 1.09C83.7729 1.09001 83.773 1.09001 83.773 1.09002C83.7731 1.09003 83.7732 1.09004 83.7732 1.09005C83.7733 1.09006 83.7734 1.09007 83.7734 1.09008C83.7735 1.09009 83.7735 1.0901 83.7736 1.09011C83.7737 1.09012 83.7737 1.09013 83.7738 1.09014C83.7739 1.09015 83.7739 1.09016 83.774 1.09017C83.7741 1.09018 83.7741 1.09019 83.7742 1.0902C83.7743 1.09021 83.7743 1.09022 83.7744 1.09023C83.7744 1.09024 83.7745 1.09025 83.7746 1.09026C83.7746 1.09026 83.7747 1.09027 83.7748 1.09028C83.7748 1.09029 83.7749 1.0903 83.775 1.09031C83.775 1.09032 83.7751 1.09033 83.7752 1.09034C83.7752 1.09035 83.7753 1.09036 83.7754 1.09037C83.7754 1.09038 83.7755 1.09039 83.7755 1.0904C83.7756 1.09041 83.7757 1.09042 83.7757 1.09043C83.7758 1.09044 83.7759 1.09045 83.7759 1.09046C83.776 1.09047 83.7761 1.09048 83.7761 1.09049C83.7762 1.0905 83.7763 1.09051 83.7763 1.09052C83.7764 1.09053 83.7765 1.09054 83.7765 1.09055C83.7766 1.09056 83.7767 1.09057 83.7767 1.09058C83.7768 1.09059 83.7769 1.0906 83.7769 1.09061C83.777 1.09062 83.7771 1.09063 83.7771 1.09064C83.7772 1.09065 83.7773 1.09066 83.7773 1.09067C83.7774 1.09068 83.7775 1.09069 83.7775 1.0907C83.7776 1.09071 83.7777 1.09072 83.7777 1.09073C83.7778 1.09074 83.7779 1.09075 83.7779 1.09076C83.778 1.09077 83.7781 1.09078 83.7781 1.09079C83.7782 1.0908 83.7783 1.09081 83.7783 1.09082C83.7784 1.09083 83.7785 1.09084 83.7785 1.09085C83.7786 1.09086 83.7787 1.09087 83.7787 1.09088C83.7788 1.09089 83.7789 1.0909 83.7789 1.09091C83.779 1.09092 83.7791 1.09093 83.7791 1.09094C83.7792 1.09095 83.7793 1.09096 83.7793 1.09097C83.7794 1.09098 83.7795 1.09099 83.7795 1.091C83.7796 1.09101 83.7797 1.09102 83.7797 1.09103C83.7798 1.09104 83.7799 1.09105 83.7799 1.09106C83.78 1.09107 83.7801 1.09108 83.7801 1.09109C83.7802 1.0911 83.7803 1.09111 83.7803 1.09112C83.7804 1.09113 83.7805 1.09114 83.7806 1.09115C83.7806 1.09116 83.7807 1.09117 83.7808 1.09118C83.7808 1.09119 83.7809 1.0912 83.781 1.09121C83.781 1.09122 83.7811 1.09123 83.7812 1.09124C83.7812 1.09125 83.7813 1.09126 83.7814 1.09127C83.7814 1.09128 83.7815 1.09129 83.7816 1.0913C83.7817 1.09131 83.7817 1.09132 83.7818 1.09134C83.7819 1.09135 83.7819 1.09136 83.782 1.09137C83.7821 1.09138 83.7821 1.09139 83.7822 1.0914C83.7823 1.09141 83.7824 1.09142 83.7824 1.09143C83.7825 1.09144 83.7826 1.09145 83.7826 1.09146C83.7827 1.09147 83.7828 1.09148 83.7828 1.09149C83.7829 1.0915 83.783 1.09151 83.7831 1.09152C83.7831 1.09153 83.7832 1.09154 83.7833 1.09156C83.7833 1.09157 83.7834 1.09158 83.7835 1.09159C83.7836 1.0916 83.7836 1.09161 83.7837 1.09162C83.7838 1.09163 83.7838 1.09164 83.7839 1.09165C83.784 1.09166 83.784 1.09167 83.7841 1.09168C83.7842 1.09169 83.7843 1.0917 83.7843 1.09172C83.7844 1.09173 83.7845 1.09174 83.7846 1.09175C83.7846 1.09176 83.7847 1.09177 83.7848 1.09178C83.7848 1.09179 83.7849 1.0918 83.785 1.09181C83.7851 1.09182 83.7851 1.09183 83.7852 1.09184C83.7853 1.09186 83.7853 1.09187 83.7854 1.09188C83.7855 1.09189 83.7856 1.0919 83.7856 1.09191C83.7857 1.09192 83.7858 1.09193 83.7859 1.09194C83.7859 1.09195 83.786 1.09196 83.7861 1.09198C83.7861 1.09199 83.7862 1.092 83.7863 1.09201C83.7864 1.09202 83.7864 1.09203 83.7865 1.09204C83.7866 1.09205 83.7867 1.09206 83.7867 1.09207C83.7868 1.09209 83.7869 1.0921 83.787 1.09211C83.787 1.09212 83.7871 1.09213 83.7872 1.09214C83.7873 1.09215 83.7873 1.09216 83.7874 1.09217C83.7875 1.09219 83.7876 1.0922 83.7876 1.09221C83.7877 1.09222 83.7878 1.09223 83.7879 1.09224C83.7879 1.09225 83.788 1.09226 83.7881 1.09228C83.7882 1.09229 83.7882 1.0923 83.7883 1.09231C83.7884 1.09232 83.7885 1.09233 83.7885 1.09234C83.7886 1.09235 83.7887 1.09237 83.7888 1.09238C83.7888 1.09239 83.7889 1.0924 83.789 1.09241C83.7891 1.09242 83.7891 1.09243 83.7892 1.09245C83.7893 1.09246 83.7894 1.09247 83.7894 1.09248C83.7895 1.09249 83.7896 1.0925 83.7897 1.09251C83.7898 1.09253 83.7898 1.09254 83.7899 1.09255C83.79 1.09256 83.7901 1.09257 83.7901 1.09258C83.7902 1.0926 83.7903 1.09261 83.7904 1.09262C83.7904 1.09263 83.7905 1.09264 83.7906 1.09265C83.7907 1.09266 83.7908 1.09268 83.7908 1.09269C83.7909 1.0927 83.791 1.09271 83.7911 1.09272C83.7912 1.09274 83.7912 1.09275 83.7913 1.09276C83.7914 1.09277 83.7915 1.09278 83.7915 1.09279C83.7916 1.09281 83.7917 1.09282 83.7918 1.09283C83.7919 1.09284 83.7919 1.09285 83.792 1.09286C83.7921 1.09288 83.7922 1.09289 83.7923 1.0929C83.7923 1.09291 83.7924 1.09292 83.7925 1.09294C83.7926 1.09295 83.7927 1.09296 83.7927 1.09297C83.7928 1.09298 83.7929 1.093 83.793 1.09301C83.7931 1.09302 83.7931 1.09303 83.7932 1.09304C83.7933 1.09306 83.7934 1.09307 83.7935 1.09308C83.7935 1.09309 83.7936 1.0931 83.7937 1.09312C83.7938 1.09313 83.7939 1.09314 83.7939 1.09315C83.794 1.09317 83.7941 1.09318 83.7942 1.09319C83.7943 1.0932 83.7944 1.09321 83.7944 1.09323C83.7945 1.09324 83.7946 1.09325 83.7947 1.09326C83.7948 1.09328 83.7948 1.09329 83.7949 1.0933C83.795 1.09331 83.7951 1.09333 83.7952 1.09334C83.7953 1.09335 83.7953 1.09336 83.7954 1.09337C83.7955 1.09339 83.7956 1.0934 83.7957 1.09341C83.7958 1.09342 83.7958 1.09344 83.7959 1.09345C83.796 1.09346 83.7961 1.09347 83.7962 1.09349C83.7963 1.0935 83.7963 1.09351 83.7964 1.09353C83.7965 1.09354 83.7966 1.09355 83.7967 1.09356C83.7968 1.09358 83.7969 1.09359 83.7969 1.0936C83.797 1.09361 83.7971 1.09363 83.7972 1.09364C83.7973 1.09365 83.7974 1.09366 83.7975 1.09368C83.7975 1.09369 83.7976 1.0937 83.7977 1.09372C83.7978 1.09373 83.7979 1.09374 83.798 1.09375C83.7981 1.09377 83.7981 1.09378 83.7982 1.09379C83.7983 1.09381 83.7984 1.09382 83.7985 1.09383C83.7986 1.09384 83.7987 1.09386 83.7987 1.09387C83.7988 1.09388 83.7989 1.0939 83.799 1.09391C83.7991 1.09392 83.7992 1.09394 83.7993 1.09395C83.7994 1.09396 83.7994 1.09398 83.7995 1.09399C83.7996 1.094 83.7997 1.09401 83.7998 1.09403C83.7999 1.09404 83.8 1.09405 83.8001 1.09407C83.8001 1.09408 83.8002 1.09409 83.8003 1.09411C83.8004 1.09412 83.8005 1.09413 83.8006 1.09415C83.8007 1.09416 83.8008 1.09417 83.8009 1.09419C83.8009 1.0942 83.801 1.09421 83.8011 1.09423C83.8012 1.09424 83.8013 1.09425 83.8014 1.09427C83.8015 1.09428 83.8016 1.09429 83.8017 1.09431C83.8018 1.09432 83.8019 1.09434 83.8019 1.09435C83.802 1.09436 83.8021 1.09438 83.8022 1.09439C83.8023 1.0944 83.8024 1.09442 83.8025 1.09443C83.8026 1.09444 83.8027 1.09446 83.8028 1.09447C83.8029 1.09449 83.8029 1.0945 83.803 1.09451C83.8031 1.09453 83.8032 1.09454 83.8033 1.09455C83.8034 1.09457 83.8035 1.09458 83.8036 1.0946C83.8037 1.09461 83.8038 1.09462 83.8039 1.09464C83.804 1.09465 83.8041 1.09467 83.8042 1.09468C83.8042 1.09469 83.8043 1.09471 83.8044 1.09472C83.8045 1.09474 83.8046 1.09475 83.8047 1.09476C83.8048 1.09478 83.8049 1.09479 83.805 1.09481C83.8051 1.09482 83.8052 1.09483 83.8053 1.09485C83.8054 1.09486 83.8055 1.09488 83.8056 1.09489C83.8057 1.09491 83.8058 1.09492 83.8059 1.09493C83.8059 1.09495 83.806 1.09496 83.8061 1.09498C83.8062 1.09499 83.8063 1.09501 83.8064 1.09502C83.8065 1.09504 83.8066 1.09505 83.8067 1.09506C83.8068 1.09508 83.8069 1.09509 83.807 1.09511C83.8071 1.09512 83.8072 1.09514 83.8073 1.09515C83.8074 1.09517 83.8075 1.09518 83.8076 1.09519C83.8077 1.09521 83.8078 1.09522 83.8079 1.09524C83.808 1.09525 83.8081 1.09527 83.8082 1.09528C83.8083 1.0953 83.8084 1.09531 83.8085 1.09533C83.8086 1.09534 83.8087 1.09536 83.8088 1.09537C83.8089 1.09539 83.809 1.0954 83.8091 1.09542C83.8092 1.09543 83.8093 1.09545 83.8094 1.09546C83.8095 1.09548 83.8096 1.09549 83.8097 1.09551C83.8098 1.09552 83.8099 1.09554 83.81 1.09555C83.8101 1.09557 83.8102 1.09558 83.8103 1.0956C83.8104 1.09561 83.8105 1.09563 83.8106 1.09564C83.8107 1.09566 83.8108 1.09567 83.8109 1.09569C83.811 1.0957 83.8111 1.09572 83.8112 1.09573C83.8113 1.09575 83.8114 1.09576 83.8115 1.09578C83.8116 1.09579 83.8117 1.09581 83.8118 1.09583C83.8119 1.09584 83.812 1.09586 83.8121 1.09587C83.8122 1.09589 83.8123 1.0959 83.8124 1.09592C83.8125 1.09593 83.8126 1.09595 83.8127 1.09597C83.8128 1.09598 83.813 1.096 83.8131 1.09601C83.8132 1.09603 83.8133 1.09604 83.8134 1.09606C83.8135 1.09607 83.8136 1.09609 83.8137 1.09611C83.8138 1.09612 83.8139 1.09614 83.814 1.09615C83.8141 1.09617 83.8142 1.09619 83.8143 1.0962C83.8144 1.09622 83.8145 1.09623 83.8146 1.09625C83.8147 1.09627 83.8149 1.09628 83.815 1.0963C83.8151 1.09631 83.8152 1.09633 83.8153 1.09635C83.8154 1.09636 83.8155 1.09638 83.8156 1.09639C83.8157 1.09641 83.8158 1.09643 83.8159 1.09644C83.816 1.09646 83.8162 1.09647 83.8163 1.09649C83.8164 1.09651 83.8165 1.09652 83.8166 1.09654C83.8167 1.09656 83.8168 1.09657 83.8169 1.09659C83.817 1.09661 83.8171 1.09662 83.8172 1.09664C83.8174 1.09665 83.8175 1.09667 83.8176 1.09669C83.8177 1.0967 83.8178 1.09672 83.8179 1.09674C83.818 1.09675 83.8181 1.09677 83.8182 1.09679C83.8184 1.0968 83.8185 1.09682 83.8186 1.09684C83.8187 1.09685 83.8188 1.09687 83.8189 1.09689C83.819 1.0969 83.8191 1.09692 83.8192 1.09694C83.8194 1.09696 83.8195 1.09697 83.8196 1.09699C83.8197 1.09701 83.8198 1.09702 83.8199 1.09704C83.82 1.09706 83.8202 1.09707 83.8203 1.09709C83.8204 1.09711 83.8205 1.09713 83.8206 1.09714C83.8207 1.09716 83.8208 1.09718 83.821 1.09719C83.8211 1.09721 83.8212 1.09723 83.8213 1.09725C83.8214 1.09726 83.8215 1.09728 83.8216 1.0973C83.8218 1.09731 83.8219 1.09733 83.822 1.09735C83.8221 1.09737 83.8222 1.09738 83.8223 1.0974C83.8225 1.09742 83.8226 1.09744 83.8227 1.09745C83.8228 1.09747 83.8229 1.09749 83.823 1.09751C83.8232 1.09752 83.8233 1.09754 83.8234 1.09756C83.8235 1.09758 83.8236 1.09759 83.8238 1.09761C83.8239 1.09763 83.824 1.09765 83.8241 1.09767C83.8242 1.09768 83.8244 1.0977 83.8245 1.09772C83.8246 1.09774 83.8247 1.09776 83.8248 1.09777C83.8249 1.09779 83.8251 1.09781 83.8252 1.09783C83.8253 1.09785 83.8254 1.09786 83.8256 1.09788C83.8257 1.0979 83.8258 1.09792 83.8259 1.09794C83.826 1.09795 83.8262 1.09797 83.8263 1.09799C83.8264 1.09801 83.8265 1.09803 83.8266 1.09804C83.8268 1.09806 83.8269 1.09808 83.827 1.0981C83.8271 1.09812 83.8273 1.09814 83.8274 1.09816C83.8275 1.09817 83.8276 1.09819 83.8278 1.09821L83.5319 3.0762ZM83.4169 3.05893C78.4713 2.37897 73.0987 5.38021 71.0259 10.0638L69.197 9.25444C71.6249 3.76859 77.8461 0.274198 83.6893 1.07757L83.4169 3.05893ZM71.0259 10.0638C68.9521 14.7498 70.3311 20.8337 74.1251 24.1007L72.82 25.6163C68.3516 21.7686 66.7701 14.738 69.197 9.25444L71.0259 10.0638ZM74.1418 24.1154C75.8021 25.6107 77.8069 26.4553 79.9856 26.7812L79.6897 28.7592C77.1805 28.3838 74.796 27.3961 72.8034 25.6016L74.1418 24.1154ZM83.7226 1.80098C87.846 2.41783 92.9147 5.83216 94.4528 11.1137L92.5325 11.6729C91.2465 7.25689 86.9055 4.29938 83.4267 3.77897L83.7226 1.80098ZM94.454 11.1179C96.0168 16.5734 93.7365 23.0478 88.9763 26.1685L87.8798 24.4959C91.8807 21.8729 93.8618 16.3132 92.5313 11.6687L94.454 11.1179ZM88.9832 26.164C84.2984 29.2907 77.5069 28.9161 73.2631 25.2224L74.5761 23.7138C78.126 26.8035 83.9234 27.1364 87.8729 24.5004L88.9832 26.164ZM73.268 25.2268C68.9631 21.5296 67.5334 14.8435 69.8561 9.61308L71.684 10.4248C69.7092 14.8718 70.9555 20.6044 74.5711 23.7095L73.268 25.2268ZM69.8561 9.61308C72.1798 4.3806 78.0509 1.02369 83.6469 1.78974L83.3757 3.77126C78.6897 3.12978 73.6579 5.97996 71.684 10.4248L69.8561 9.61308ZM83.6593 1.7915L83.7226 1.80098L83.4267 3.77897L83.3634 3.76949L83.6593 1.7915Z" fill="black" mask="url(#path-2-inside-1_5_45)"/>
<path d="M78.2787 10.4802C77.9715 10.3689 77.5627 10.5037 77.3978 10.7403C77.2329 10.9769 77.1313 11.223 77.2197 11.4975C77.3082 11.772 77.533 12.0016 77.8497 12.0489C78.2932 12.1153 78.7211 11.8527 78.7784 11.4694C78.8453 11.0222 78.5859 10.5914 78.2787 10.4802Z" fill="black"/>
<path d="M86.8959 11.7849C86.5887 11.6736 86.1799 11.8084 86.015 12.045C85.85 12.2816 85.7485 12.5277 85.8369 12.8022C85.9254 13.0767 86.1597 13.2424 86.4669 13.3536C86.9104 13.42 87.3382 13.1574 87.3956 12.7741C87.3991 12.3174 87.1397 11.8867 86.8959 11.7849Z" fill="black"/>
<path d="M80.8793 21.195C84.427 21.7258 85.6807 18.974 85.744 18.9835C85.836 18.8013 85.738 18.5907 85.5479 18.5622C85.3674 18.4699 85.1583 18.5693 85.1296 18.7609C85.1105 18.8887 84.0696 21.0844 80.9654 20.6201C78.0512 20.1841 77.4988 17.8153 77.5084 17.7515C77.4737 17.5503 77.2932 17.458 77.0936 17.4934C76.894 17.5289 76.8019 17.7111 76.8366 17.9122C76.9 17.9217 77.5217 20.6928 80.8793 21.195Z" fill="black"/>
<path d="M41.0412 8.27176L45.1208 13.0293L45.3232 13.2653L45.6243 13.1882L51.8182 11.6033L48.3682 16.7014L48.1777 16.983L48.3695 17.2638L51.8435 22.3471L45.6431 20.7895L45.3415 20.7137L45.1402 20.9507L41.0841 25.7266L40.7227 19.6199L40.7033 19.2921L40.3948 19.1797L34.4512 17.0132L40.3844 14.8207L40.6925 14.7068L40.7103 14.3787L41.0412 8.27176Z" fill="#252525" stroke="#FCCB06"/>
<path d="M73.2825 51.7241L74.1477 55.417L74.1831 55.5683L74.3345 55.6035L78.1075 56.4797L74.8258 58.2605L74.6764 58.3415L74.6968 58.5103L75.1469 62.2175L72.2473 59.6496L72.1309 59.5465L71.987 59.6053L68.4767 61.0401L69.9861 57.6566L70.053 57.5067L69.942 57.3857L67.347 54.5583L71.1545 55.0356L71.3175 55.0561L71.4009 54.9146L73.2825 51.7241Z" fill="#252525" stroke="#FCCB06" stroke-width="0.5"/>
<path d="M9.2825 27.7241L10.1477 31.417L10.1831 31.5683L10.3345 31.6035L14.1075 32.4797L10.8258 34.2605L10.6764 34.3415L10.6968 34.5103L11.1469 38.2175L8.24734 35.6496L8.13093 35.5465L7.987 35.6053L4.47673 37.0401L5.98611 33.6566L6.053 33.5067L5.94198 33.3857L3.34699 30.5583L7.15447 31.0356L7.31746 31.0561L7.40091 30.9146L9.2825 27.7241Z" fill="#252525" stroke="#FCCB06" stroke-width="0.5"/>
<path d="M59.0115 39.7478C57.94 39.106 56.6651 38.9794 55.3247 39.3819L55.3184 39.384C53.9933 39.8339 53.0287 40.6771 52.5288 41.8217C52.0857 42.8366 52.0405 44.0178 52.402 45.1475C52.7635 46.2772 53.4858 47.2139 54.4355 47.7821C55.5071 48.4242 56.782 48.5508 58.1223 48.1483L58.1286 48.1463C59.4537 47.696 60.4184 46.8531 60.9183 45.7085C61.3614 44.6936 61.4065 43.5125 61.0451 42.3828C60.6836 41.2531 59.9614 40.317 59.0115 39.7478ZM60.0269 42.7078C60.5345 44.2942 60.053 46.351 57.7968 47.1194C55.514 47.8034 53.9276 46.4085 53.42 44.8221C52.9124 43.2357 53.3941 41.1792 55.6502 40.4105C57.9332 39.7272 59.5192 41.121 60.0269 42.7078Z" fill="#FCCB06"/>
<path d="M84.4909 44.4625C84.0082 44.6963 81.1704 41.9451 80.7797 41.7418C79.928 41.0374 80.9932 39.7356 81.8522 40.4334L84.2893 42.4308L88.7814 36.9489C89.4846 36.0977 90.7875 37.1615 90.0897 38.021C89.8584 38.1598 84.7985 44.8616 84.4909 44.4625Z" fill="#FCCB06"/>
<path d="M14.8505 14.1464C14.5365 14.2985 12.6903 12.5087 12.4361 12.3764C11.882 11.9181 12.575 11.0712 13.1339 11.5252L14.7194 12.8247L17.6418 9.25823C18.0993 8.70444 18.947 9.39658 18.493 9.95571C18.3425 10.046 15.0507 14.4061 14.8505 14.1464Z" fill="#FCCB06"/>
<path d="M34.7044 35.2441C33.9415 34.7871 33.0337 34.6969 32.0793 34.9835L32.0749 34.985C31.1313 35.3054 30.4445 35.9057 30.0885 36.7207C29.773 37.4434 29.7409 38.2844 29.9983 39.0888C30.2556 39.8932 30.77 40.5601 31.4462 40.9647C32.2092 41.4219 33.117 41.5121 34.0713 41.2255L34.0758 41.224C35.0193 40.9034 35.7062 40.3033 36.0621 39.4883C36.3776 38.7656 36.4098 37.9246 36.1524 37.1202C35.895 36.3158 35.3808 35.6494 34.7044 35.2441ZM35.4275 37.3517C35.7889 38.4812 35.446 39.9458 33.8395 40.4928C32.2141 40.9798 31.0846 39.9867 30.7231 38.8571C30.3617 37.7275 30.7047 36.2632 32.3111 35.7159C33.9367 35.2294 35.066 36.2218 35.4275 37.3517Z" fill="#FCCB06"/>
<path d="M95.7044 60.2441C94.9415 59.7871 94.0337 59.6969 93.0793 59.9835L93.0749 59.985C92.1313 60.3054 91.4445 60.9057 91.0885 61.7207C90.773 62.4434 90.7409 63.2844 90.9983 64.0888C91.2556 64.8932 91.77 65.5601 92.4462 65.9647C93.2092 66.4219 94.117 66.5121 95.0713 66.2255L95.0758 66.224C96.0193 65.9034 96.7062 65.3033 97.0621 64.4883C97.3776 63.7656 97.4098 62.9246 97.1524 62.1202C96.895 61.3158 96.3808 60.6494 95.7044 60.2441ZM96.4275 62.3517C96.7889 63.4812 96.446 64.9458 94.8395 65.4928C93.2141 65.9798 92.0846 64.9867 91.7231 63.8571C91.3617 62.7275 91.7047 61.2632 93.3111 60.7159C94.9367 60.2294 96.066 61.2218 96.4275 62.3517Z" fill="#FCCB06"/>
</svg>
