<svg width="116" height="106" viewBox="0 0 116 106" fill="none" xmlns="http://www.w3.org/2000/svg">
<path d="M79.0412 58.2717L83.1208 63.0292L83.3232 63.2652L83.6243 63.1882L89.8182 61.6033L86.3682 66.7014L86.1776 66.983L86.3695 67.2637L89.8435 72.347L83.6431 70.7894L83.3415 70.7136L83.1402 70.9507L79.084 75.7266L78.7227 69.6199L78.7033 69.2921L78.3948 69.1796L72.4512 67.0132L78.3843 64.8206L78.6925 64.7067L78.7103 64.3787L79.0412 58.2717Z" fill="#252525" stroke="#FCCB06"/>
<path d="M59.2825 59.724L60.1476 63.4169L60.1831 63.5683L60.3345 63.6034L64.1074 64.4797L60.8258 66.2604L60.6763 66.3415L60.6968 66.5103L61.1469 70.2175L58.2473 67.6495L58.1309 67.5465L57.987 67.6053L54.4767 69.04L55.9861 65.6565L56.053 65.5066L55.942 65.3856L53.347 62.5582L57.1545 63.0356L57.3174 63.056L57.4009 62.9145L59.2825 59.724Z" fill="#252525" stroke="#FCCB06" stroke-width="0.5"/>
<path d="M18.356 45.791L17.5735 49.5023L17.5414 49.6544L17.6636 49.7505L20.7089 52.144L16.9818 52.365L16.8121 52.3751L16.7591 52.5366L15.5945 56.0848L14.0576 52.5297L13.9959 52.3869L13.8406 52.3792L10.0532 52.1899L12.8549 49.7658L12.9791 49.6584L12.9298 49.5018L11.7788 45.8407L15.0245 47.8877L15.1634 47.9753L15.299 47.8825L18.356 45.791Z" fill="#252525" stroke="#FCCB06" stroke-width="0.5"/>
<path d="M87.0115 30.7478C85.9399 30.106 84.6651 29.9793 83.3247 30.3819L83.3184 30.3839C81.9933 30.8338 81.0287 31.677 80.5287 32.8216C80.0856 33.8366 80.0405 35.0177 80.402 36.1474C80.7634 37.2771 81.4858 38.2138 82.4355 38.782C83.5071 39.4241 84.782 39.5508 86.1223 39.1482L86.1286 39.1462C87.4537 38.6959 88.4184 37.8531 88.9183 36.7085C89.3614 35.6936 89.4065 34.5124 89.0451 33.3827C88.6836 32.253 87.9614 31.317 87.0115 30.7478ZM88.0269 33.7077C88.5345 35.2941 88.0529 37.351 85.7968 38.1193C83.5139 38.8033 81.9276 37.4085 81.42 35.8221C80.9124 34.2356 81.3941 32.1791 83.6502 31.4105C85.9332 30.7272 87.5192 32.121 88.0269 33.7077Z" fill="#FCCB06"/>
<path d="M99.3815 49.9077C98.8988 50.1415 96.061 47.3904 95.6703 47.187C94.8186 46.4826 95.8838 45.1808 96.7428 45.8787L99.1799 47.876L103.672 42.3941C104.375 41.5429 105.678 42.6068 104.98 43.4662C104.749 43.605 99.6891 50.3069 99.3815 49.9077Z" fill="#FCCB06"/>
<path d="M25.8505 24.1464C25.5365 24.2985 23.6903 22.5086 23.4361 22.3763C22.882 21.9181 23.575 21.0711 24.1338 21.5251L25.7193 22.8246L28.6418 19.2582C29.0993 18.7044 29.947 19.3965 29.493 19.9556C29.3425 20.046 26.0506 24.4061 25.8505 24.1464Z" fill="#FCCB06"/>
<path d="M42.7044 53.0409C41.9414 52.5839 41.0337 52.4937 40.0793 52.7804L40.0748 52.7818C39.1313 53.1022 38.4445 53.7025 38.0885 54.5175C37.773 55.2402 37.7409 56.0812 37.9983 56.8856C38.2556 57.69 38.77 58.3569 39.4461 58.7615C40.2092 59.2187 41.1169 59.3089 42.0713 59.0223L42.0758 59.0208C43.0193 58.7002 43.7061 58.1001 44.0621 57.2851C44.3776 56.5624 44.4097 55.7214 44.1524 54.917C43.895 54.1127 43.3808 53.4462 42.7044 53.0409ZM43.4274 55.1485C43.7889 56.278 43.446 57.7426 41.8395 58.2896C40.2141 58.7767 39.0845 57.7835 38.7231 56.6539C38.3617 55.5244 38.7047 54.0601 40.3111 53.5127C41.9366 53.0262 43.0659 54.0187 43.4274 55.1485Z" fill="#FCCB06"/>
<path d="M103.704 78.0409C102.941 77.5839 102.034 77.4937 101.079 77.7804L101.075 77.7818C100.131 78.1022 99.4445 78.7025 99.0885 79.5175C98.773 80.2402 98.7409 81.0812 98.9983 81.8856C99.2556 82.69 99.77 83.3569 100.446 83.7615C101.209 84.2187 102.117 84.3089 103.071 84.0223L103.076 84.0208C104.019 83.7002 104.706 83.1001 105.062 82.2851C105.378 81.5624 105.41 80.7214 105.152 79.917C104.895 79.1127 104.381 78.4462 103.704 78.0409ZM104.427 80.1485C104.789 81.278 104.446 82.7426 102.839 83.2896C101.214 83.7767 100.085 82.7835 99.7231 81.6539C99.3617 80.5244 99.7047 79.0601 101.311 78.5127C102.937 78.0262 104.066 79.0187 104.427 80.1485Z" fill="#FCCB06"/>
<mask id="path-9-inside-1_1_4018" fill="white">
<path fill-rule="evenodd" clip-rule="evenodd" d="M47.4325 44.1069L43.8116 30.0785C43.7129 29.6979 43.6903 29.3017 43.7449 28.9124C43.7994 28.5231 43.9302 28.1484 44.1297 27.8096C44.3291 27.4709 44.5934 27.1748 44.9074 26.9383C45.2214 26.7018 45.5789 26.5294 45.9595 26.4311L59.9885 22.8123C60.369 22.7135 60.7653 22.6907 61.1546 22.7452C61.5439 22.7997 61.9187 22.9304 62.2575 23.1299C62.5962 23.3293 62.8924 23.5936 63.1289 23.9076C63.3654 24.2216 63.5378 24.5791 63.636 24.9597L67.2569 38.9882C67.3555 39.3688 67.3782 39.765 67.3236 40.1543C67.269 40.5436 67.1383 40.9183 66.9388 41.257C66.7393 41.5957 66.4751 41.8918 66.1611 42.1284C65.8471 42.3649 65.4896 42.5372 65.109 42.6355L60.7226 43.7673L59.365 49.36L55.2583 45.1771L51.0802 46.2551C50.6996 46.3538 50.3033 46.3765 49.914 46.322C49.5246 46.2674 49.1498 46.1366 48.811 45.9371C48.4723 45.7376 48.1761 45.4733 47.9396 45.1592C47.703 44.8452 47.5307 44.4876 47.4325 44.1069Z"/>
</mask>
<path fill-rule="evenodd" clip-rule="evenodd" d="M47.4325 44.1069L43.8116 30.0785C43.7129 29.6979 43.6903 29.3017 43.7449 28.9124C43.7994 28.5231 43.9302 28.1484 44.1297 27.8096C44.3291 27.4709 44.5934 27.1748 44.9074 26.9383C45.2214 26.7018 45.5789 26.5294 45.9595 26.4311L59.9885 22.8123C60.369 22.7135 60.7653 22.6907 61.1546 22.7452C61.5439 22.7997 61.9187 22.9304 62.2575 23.1299C62.5962 23.3293 62.8924 23.5936 63.1289 23.9076C63.3654 24.2216 63.5378 24.5791 63.636 24.9597L67.2569 38.9882C67.3555 39.3688 67.3782 39.765 67.3236 40.1543C67.269 40.5436 67.1383 40.9183 66.9388 41.257C66.7393 41.5957 66.4751 41.8918 66.1611 42.1284C65.8471 42.3649 65.4896 42.5372 65.109 42.6355L60.7226 43.7673L59.365 49.36L55.2583 45.1771L51.0802 46.2551C50.6996 46.3538 50.3033 46.3765 49.914 46.322C49.5246 46.2674 49.1498 46.1366 48.811 45.9371C48.4723 45.7376 48.1761 45.4733 47.9396 45.1592C47.703 44.8452 47.5307 44.4876 47.4325 44.1069Z" fill="#252525"/>
<path d="M43.8116 30.0785L44.7799 29.8287L44.7796 29.8277L43.8116 30.0785ZM47.4325 44.1069L48.4008 43.8572L48.4008 43.8572L47.4325 44.1069ZM43.7449 28.9124L42.7545 28.7734L42.7545 28.7734L43.7449 28.9124ZM44.1297 27.8096L43.2679 27.3022L43.2679 27.3022L44.1297 27.8096ZM44.9074 26.9383L45.5093 27.737L45.5093 27.737L44.9074 26.9383ZM45.9595 26.4311L45.7096 25.4629L45.7093 25.4629L45.9595 26.4311ZM59.9885 22.8123L60.2385 23.7806L60.24 23.7802L59.9885 22.8123ZM61.1546 22.7452L61.0161 23.7355L61.1546 22.7452ZM62.2575 23.1299L62.7647 22.2682L62.7647 22.2682L62.2575 23.1299ZM63.1289 23.9076L62.3302 24.5091L62.3302 24.5091L63.1289 23.9076ZM63.636 24.9597L62.6677 25.2094L62.6677 25.2095L63.636 24.9597ZM67.2569 38.9882L66.2886 39.238L66.2888 39.2389L67.2569 38.9882ZM66.1611 42.1284L66.7629 42.9271L66.7629 42.9271L66.1611 42.1284ZM65.109 42.6355L65.359 43.6038L65.3592 43.6037L65.109 42.6355ZM60.7226 43.7673L60.4726 42.799L59.8921 42.9488L59.7508 43.5312L60.7226 43.7673ZM59.365 49.36L58.6514 50.0605L59.9123 51.3448L60.3368 49.596L59.365 49.36ZM55.2583 45.1771L55.9719 44.4766L55.5674 44.0646L55.0083 44.2088L55.2583 45.1771ZM51.0802 46.2551L50.8301 45.2868L50.8289 45.2872L51.0802 46.2551ZM49.914 46.322L50.0526 45.3317L50.0526 45.3317L49.914 46.322ZM48.811 45.9371L48.3036 46.7987L48.3036 46.7987L48.811 45.9371ZM42.8433 30.3282L46.4642 44.3567L48.4008 43.8572L44.7799 29.8287L42.8433 30.3282ZM42.7545 28.7734C42.6817 29.2928 42.7119 29.8215 42.8435 30.3292L44.7796 29.8277C44.714 29.5744 44.6989 29.3106 44.7352 29.0514L42.7545 28.7734ZM43.2679 27.3022C43.0018 27.7541 42.8273 28.254 42.7545 28.7734L44.7352 29.0514C44.7716 28.7922 44.8586 28.5427 44.9914 28.3171L43.2679 27.3022ZM44.3055 26.1396C43.8866 26.4552 43.534 26.8502 43.2679 27.3022L44.9914 28.3171C45.1242 28.0916 45.3002 27.8945 45.5093 27.737L44.3055 26.1396ZM45.7093 25.4629C45.2015 25.5941 44.7245 25.824 44.3055 26.1396L45.5093 27.737C45.7183 27.5795 45.9563 27.4648 46.2098 27.3993L45.7093 25.4629ZM59.7386 21.8441L45.7096 25.4629L46.2095 27.3994L60.2385 23.7806L59.7386 21.8441ZM61.293 21.7549C60.7735 21.6822 60.2447 21.7127 59.737 21.8445L60.24 23.7802C60.4933 23.7144 60.757 23.6993 61.0161 23.7355L61.293 21.7549ZM62.7647 22.2682C62.3127 22.002 61.8126 21.8276 61.293 21.7549L61.0161 23.7355C61.2753 23.7718 61.5247 23.8588 61.7502 23.9915L62.7647 22.2682ZM63.9276 23.306C63.612 22.887 63.2168 22.5343 62.7647 22.2682L61.7502 23.9915C61.9756 24.1243 62.1727 24.3001 62.3302 24.5091L63.9276 23.306ZM64.6043 24.71C64.4732 24.2021 64.2433 23.725 63.9276 23.306L62.3302 24.5091C62.4876 24.7181 62.6023 24.9561 62.6677 25.2094L64.6043 24.71ZM68.2252 38.7385L64.6043 24.71L62.6677 25.2095L66.2886 39.238L68.2252 38.7385ZM68.314 40.2933C68.3868 39.7739 68.3566 39.2452 68.225 38.7375L66.2888 39.2389C66.3545 39.4923 66.3696 39.7561 66.3333 40.0153L68.314 40.2933ZM67.8006 41.7645C68.0667 41.3126 68.2412 40.8127 68.314 40.2933L66.3333 40.0153C66.2969 40.2745 66.2099 40.524 66.077 40.7495L67.8006 41.7645ZM66.7629 42.9271C67.1818 42.6115 67.5344 42.2164 67.8006 41.7645L66.077 40.7495C65.9442 40.9751 65.7683 41.1722 65.5592 41.3297L66.7629 42.9271ZM65.3592 43.6037C65.867 43.4726 66.344 43.2426 66.7629 42.9271L65.5592 41.3297C65.3502 41.4872 65.1121 41.6019 64.8587 41.6673L65.3592 43.6037ZM60.9726 44.7355L65.359 43.6038L64.8589 41.6673L60.4726 42.799L60.9726 44.7355ZM59.7508 43.5312L58.3932 49.124L60.3368 49.596L61.6944 44.0033L59.7508 43.5312ZM60.0786 48.6596L55.9719 44.4766L54.5447 45.8775L58.6514 50.0605L60.0786 48.6596ZM51.3302 47.2233L55.5083 46.1453L55.0083 44.2088L50.8301 45.2868L51.3302 47.2233ZM49.7753 47.3122C50.2949 47.385 50.8236 47.3547 51.3314 47.223L50.8289 45.2872C50.5756 45.3529 50.3118 45.368 50.0526 45.3317L49.7753 47.3122ZM48.3036 46.7987C48.7557 47.0649 49.2558 47.2394 49.7753 47.3122L50.0526 45.3317C49.7934 45.2954 49.544 45.2083 49.3185 45.0755L48.3036 46.7987ZM47.1408 45.7607C47.4564 46.1798 47.8516 46.5325 48.3036 46.7987L49.3185 45.0755C49.093 44.9427 48.8958 44.7668 48.7384 44.5577L47.1408 45.7607ZM46.4642 44.3566C46.5952 44.8646 46.8252 45.3417 47.1408 45.7607L48.7384 44.5577C48.5809 44.3487 48.4662 44.1106 48.4008 43.8572L46.4642 44.3566Z" fill="#FCCB06" mask="url(#path-9-inside-1_1_4018)"/>
<path d="M55.324 32.3026L55.8262 31.449C55.8263 31.4489 55.8263 31.4488 55.8264 31.4487C56.1408 30.916 56.6539 30.5298 57.253 30.3752C57.8522 30.2206 58.4882 30.3103 59.0212 30.6246C59.5542 30.9389 59.9404 31.452 60.095 32.051C60.2495 32.6499 60.1598 33.2857 59.8456 33.8185C59.8456 33.8186 59.8455 33.8187 59.8454 33.8188L59.3395 34.6732L59.3389 34.6743L56.723 39.1169L52.2746 36.4944L52.2736 36.4938L51.4202 35.988L51.4197 35.9877C50.8875 35.6731 50.5018 35.1603 50.3474 34.5618C50.1929 33.9632 50.2823 33.3279 50.5958 32.795L50.6428 32.7153C50.9603 32.2258 51.4507 31.8718 52.018 31.7254C52.6165 31.571 53.2517 31.6601 53.7844 31.9733C53.7847 31.9734 53.7849 31.9735 53.7851 31.9737L54.6381 32.4792L55.0696 32.7349L55.324 32.3026Z" fill="#252525" stroke="#FCCB06"/>
</svg>
