<svg width="39" height="39" viewBox="0 0 39 39" fill="none" xmlns="http://www.w3.org/2000/svg">
<path d="M30.639 31.0618C32.1577 29.5873 33.3583 27.8174 34.1669 25.8612C34.9755 23.905 35.375 21.8039 35.3406 19.6874V19.2778C35.3739 17.165 34.9739 15.0677 34.1653 13.1154C33.3567 11.1631 32.1565 9.39723 30.639 7.92672C29.1678 6.40592 27.4009 5.20244 25.447 4.39041C23.4931 3.57838 21.3936 3.175 19.2779 3.20512C17.1601 3.17106 15.058 3.5726 13.1019 4.38482C11.1458 5.19704 9.37753 6.40261 7.90678 7.92672C6.38924 9.39723 5.18913 11.1631 4.3805 13.1154C3.57186 15.0677 3.17186 17.165 3.20516 19.2778V19.6874C3.17083 21.8039 3.57027 23.905 4.37887 25.8612C5.18747 27.8174 6.3881 29.5873 7.90678 31.0618C9.38061 32.5803 11.15 33.7806 13.1057 34.5887C15.0615 35.3967 17.1621 35.7954 19.2779 35.7601C21.3917 35.7915 23.4896 35.391 25.4432 34.5831C27.3967 33.7752 29.1648 32.577 30.639 31.0618Z" fill="#FCCB06"/>
<path d="M36.5919 19.7031V19.2969C36.6284 17.0209 36.1978 14.7616 35.3267 12.6586C34.4556 10.5556 33.1625 8.65357 31.5273 7.07003C29.9437 5.43383 28.0412 4.13988 25.9376 3.26819C23.834 2.3965 21.5739 1.96561 19.2971 2.00214C17.0209 1.96606 14.7615 2.39718 12.6584 3.26886C10.5554 4.14053 8.65352 5.43424 7.07026 7.07003C5.43447 8.65328 4.14077 10.5552 3.26909 12.6582C2.39742 14.7612 1.9663 17.0207 2.00238 19.2969V19.7031C1.96386 21.9802 2.39385 24.2408 3.26566 26.3447C4.13746 28.4486 5.43247 30.3509 7.07026 31.9333C8.6538 33.5685 10.5558 34.8616 12.6588 35.7327C14.7618 36.6038 17.0211 37.0344 19.2971 36.9979C21.5735 37.0334 23.833 36.6024 25.9364 35.7314C28.0398 34.8604 29.9425 33.5678 31.5273 31.9333C33.1618 30.3485 34.4544 28.4458 35.3254 26.3424C36.1964 24.239 36.6274 21.9795 36.5919 19.7031Z" stroke="white" stroke-width="3"/>
<path d="M27.014 24.8753C26.7923 24.7227 26.521 24.6597 26.2548 24.6988C26.1205 24.714 25.9912 24.7585 25.8761 24.8293C25.761 24.9001 25.6629 24.9954 25.5888 25.1084C24.0349 27.1529 22.0782 28.2628 19.7185 28.4382C17.8995 28.5726 16.0933 28.0439 14.6339 26.9498C13.3686 25.7821 12.7171 25.1683 12.6794 25.1084C12.6016 24.9989 12.5026 24.9061 12.3881 24.8358C12.2737 24.7654 12.1463 24.7188 12.0134 24.6988C11.7472 24.6597 11.4759 24.7227 11.2542 24.8753C11.1447 24.9531 11.052 25.0521 10.9816 25.1666C10.9112 25.281 10.8647 25.4084 10.8447 25.5413C10.7971 25.8082 10.853 26.0833 11.0012 26.3104L13.2521 28.4715C14.9397 29.7847 17.014 30.5035 19.1524 30.5159L19.8816 30.486C21.7002 30.3543 23.4433 29.7063 24.9062 28.618C25.7898 27.9645 26.5748 27.1874 27.2371 26.3104C27.3935 26.0888 27.4567 25.8147 27.4131 25.5469C27.3695 25.2792 27.2226 25.0392 27.004 24.8786L27.014 24.8753Z" fill="black"/>
<path d="M24.8535 15.1758C25.5594 15.036 26.1632 15.3567 26.6648 16.1381C26.9171 16.5388 27.1069 16.9756 27.2276 17.4334C27.2724 17.6018 27.372 17.7506 27.5106 17.8563C27.6533 17.9622 27.8257 18.0204 28.0034 18.0228L28.1932 17.9961C28.2966 17.9701 28.3936 17.9233 28.4783 17.8586C28.563 17.794 28.6337 17.7127 28.686 17.6199C28.7405 17.5336 28.7768 17.4372 28.7928 17.3364C28.8089 17.2357 28.8042 17.1327 28.7792 17.0338C28.5508 16.1248 28.0921 15.29 27.4473 14.6098C27.101 14.1898 26.6451 13.8742 26.1302 13.6978C25.6152 13.5215 25.0615 13.4914 24.5305 13.6108C23.5202 13.793 22.6188 14.3569 22.0132 15.1858C21.5781 15.7514 21.3094 16.4271 21.2373 17.137C21.2282 17.243 21.2403 17.3496 21.2728 17.4508C21.3054 17.5521 21.3579 17.6457 21.4271 17.7264C21.4857 17.81 21.5627 17.879 21.6522 17.928C21.7417 17.9771 21.8413 18.005 21.9433 18.0094C22.0477 18.0252 22.1543 18.0185 22.2559 17.9898C22.3575 17.9611 22.4519 17.911 22.5326 17.8429C22.6162 17.7817 22.6858 17.7035 22.7369 17.6133C22.7879 17.5232 22.8193 17.4233 22.829 17.3202C22.885 16.9966 22.9977 16.6855 23.1619 16.4012C23.3371 16.0856 23.5794 15.8124 23.8716 15.6007C24.1639 15.389 24.4991 15.2439 24.8535 15.1758Z" fill="black"/>
<path d="M16.1744 18.0215L16.3842 17.9949C16.4875 17.9689 16.5845 17.9221 16.6693 17.8574C16.754 17.7927 16.8247 17.7115 16.877 17.6186C16.9304 17.5319 16.9645 17.4347 16.9772 17.3336C16.9898 17.2325 16.9806 17.1298 16.9502 17.0326C16.7203 16.1242 16.2618 15.2898 15.6183 14.6085C15.2725 14.188 14.8166 13.8719 14.3015 13.6955C13.7865 13.5191 13.2325 13.4894 12.7015 13.6096C11.7009 13.7981 10.8101 14.3614 10.2108 15.1846C9.76495 15.7465 9.48679 16.4228 9.40835 17.1358C9.39313 17.3494 9.46114 17.5606 9.59814 17.7252C9.66264 17.8081 9.74415 17.8763 9.83719 17.9251C9.93024 17.974 10.0327 18.0023 10.1376 18.0082C10.242 18.0219 10.348 18.0142 10.4494 17.9856C10.5507 17.957 10.6451 17.908 10.7269 17.8417C10.8103 17.7803 10.8798 17.7021 10.9309 17.612C10.982 17.5219 11.0134 17.422 11.0233 17.319C11.0639 16.9915 11.1777 16.6774 11.3563 16.3999C11.5311 16.0845 11.7733 15.8114 12.0657 15.6002C12.358 15.389 12.6933 15.2448 13.0478 15.1779C13.7359 15.0381 14.3319 15.3588 14.8358 16.1402C15.0895 16.5402 15.2794 16.9771 15.3986 17.4355C15.4448 17.6033 15.5441 17.7517 15.6816 17.8584C15.8249 17.9627 15.9972 18.0197 16.1744 18.0215Z" fill="black"/>
</svg>
