<svg width="248" height="277" viewBox="0 0 248 277" fill="none" xmlns="http://www.w3.org/2000/svg">
<path d="M22.0736 66.6201L22.7436 67.1049L22.8616 66.2863C23.4933 61.9034 25.5903 57.9912 29.0445 56.0137C30.7946 55.0747 32.8086 54.7478 34.766 55.085C36.7256 55.4226 38.5158 56.4065 39.8513 57.8797L40.5207 58.6181L40.7124 57.6401C42.0939 50.593 48.662 45.6844 54.6958 46.925C57.7175 47.5463 60.4619 49.665 62.3895 52.5681C64.3152 55.4683 65.3957 59.1092 65.1249 62.7064L65.019 64.1135L65.9872 63.0871C66.9928 62.021 68.3303 61.3277 69.781 61.1204C71.231 60.9132 72.7083 61.2038 73.9717 61.9447C75.2582 62.7169 76.4683 64.3282 77.2315 66.3885C77.9912 68.4393 78.2846 70.8753 77.798 73.2375C77.313 75.5915 76.0527 77.8804 73.6851 79.6638C71.3122 81.4512 67.7946 82.7547 62.7613 83.0679C58.2015 83.3517 53.5889 83.5462 48.9642 83.7413C42.5905 84.0101 36.1939 84.2798 29.8807 84.7855C27.052 85.0102 23.0853 85.2925 19.2565 85.0338C15.4025 84.7735 11.8073 83.9707 9.63115 82.1198L9.30721 82.5006L9.63114 82.1198C7.64499 80.4305 6.62407 77.6364 6.57367 74.7194C6.52329 71.8036 7.44564 68.8624 9.22135 66.9184C11.0071 64.9635 13.135 64.125 15.3425 64.1434C17.5645 64.1619 19.9041 65.0502 22.0736 66.6201Z" fill="#FCCB06" stroke="black"/>
<path d="M97.7004 66.9052C97.6366 66.8372 97.6012 66.7474 97.6014 66.6541C97.6017 66.5609 97.6376 66.4713 97.7017 66.4036L133.927 29.5931C133.995 29.5268 134.086 29.4883 134.181 29.4848C134.278 29.4874 134.37 29.5266 134.438 29.5945L164.642 59.3823C164.677 59.4163 164.703 59.4568 164.721 59.5015C164.739 59.5462 164.747 59.594 164.746 59.642C164.747 59.689 164.738 59.7357 164.72 59.7791C164.702 59.8225 164.675 59.8617 164.641 59.894L154.823 69.847C154.79 69.8805 154.751 69.9072 154.707 69.9255C154.664 69.9439 154.617 69.9535 154.57 69.9538C154.523 69.9542 154.477 69.9452 154.433 69.9275C154.389 69.9099 154.35 69.8837 154.316 69.8507C154.248 69.7835 154.209 69.6923 154.207 69.5966C154.206 69.5009 154.242 69.4084 154.308 69.3389L163.869 59.6462L134.18 30.3664L98.4686 66.6565L128.158 95.8552L133.963 89.9654C134.034 89.9196 134.119 89.8997 134.202 89.9091C134.286 89.9185 134.364 89.9567 134.423 90.0171C134.482 90.0775 134.518 90.1565 134.526 90.2406C134.533 90.3247 134.511 90.4087 134.463 90.4784L128.428 96.6034C128.394 96.6373 128.354 96.6642 128.31 96.6826C128.266 96.7009 128.219 96.7103 128.172 96.7102C128.124 96.7101 128.077 96.7004 128.033 96.6818C127.989 96.6632 127.949 96.6361 127.916 96.602L97.7312 66.8751L97.7004 66.9052Z" fill="#FCCB06"/>
<path d="M147.746 54.0967C147.725 54.0744 147.712 54.0447 147.712 54.0136C147.711 53.9825 147.722 53.9524 147.743 53.9294C147.767 53.9063 147.798 53.8932 147.831 53.8927C147.864 53.8922 147.896 53.9043 147.921 53.9266L153.425 59.3566C153.446 59.3805 153.457 59.4113 153.457 59.4431C153.457 59.4749 153.444 59.5054 153.423 59.5288C153.401 59.5505 153.371 59.563 153.34 59.5635C153.309 59.5641 153.279 59.5527 153.256 59.5317L147.751 54.1018L147.746 54.0967Z" fill="#FCCB06"/>
<path d="M143.788 53.5766C143.775 53.5531 143.769 53.5257 143.773 53.4988C143.776 53.4718 143.789 53.4468 143.808 53.4279C143.828 53.4089 143.853 53.3969 143.88 53.394C143.907 53.391 143.934 53.3972 143.958 53.4116L151.734 61.0792C151.756 61.1024 151.769 61.1335 151.768 61.1658C151.768 61.1981 151.755 61.2289 151.732 61.2514C151.708 61.274 151.677 61.2864 151.645 61.286C151.613 61.2856 151.582 61.2724 151.559 61.2493L143.793 53.5817L143.788 53.5766Z" fill="#FCCB06"/>
<path d="M124.929 50.0218C124.908 50 124.896 49.9707 124.896 49.9403C124.897 49.9099 124.909 49.8809 124.931 49.8596C124.941 49.848 124.954 49.8387 124.969 49.8322C124.983 49.8257 124.998 49.8222 125.014 49.822C125.03 49.8217 125.045 49.8246 125.06 49.8306C125.074 49.8366 125.087 49.8455 125.098 49.8567L142.042 66.5674C142.053 66.5779 142.063 66.5908 142.069 66.605C142.076 66.6193 142.079 66.6348 142.079 66.6504C142.08 66.6661 142.077 66.6816 142.071 66.6961C142.065 66.7106 142.056 66.7237 142.045 66.7347C142.022 66.757 141.992 66.7703 141.96 66.7717C141.928 66.7732 141.897 66.7628 141.872 66.7426L124.934 50.0269L124.929 50.0218Z" fill="#FCCB06"/>
<path d="M119.514 55.6876C119.492 55.6645 119.479 55.6334 119.48 55.6011C119.48 55.5688 119.493 55.538 119.516 55.5154C119.539 55.4937 119.568 55.4812 119.6 55.4807C119.631 55.4801 119.661 55.4915 119.684 55.5124L133.92 69.5595C133.932 69.57 133.941 69.5828 133.947 69.597C133.954 69.6113 133.957 69.6268 133.958 69.6424C133.958 69.6581 133.955 69.6737 133.949 69.6882C133.943 69.7027 133.934 69.7158 133.923 69.7267C133.9 69.7491 133.87 69.7623 133.838 69.7637C133.807 69.7652 133.775 69.7549 133.751 69.7347L119.514 55.6876Z" fill="#FCCB06"/>
<path d="M137.163 87.5445C136.787 87.161 136.44 86.7502 136.125 86.3154C136.079 86.2518 136.055 86.1751 136.056 86.0966C136.057 86.0182 136.083 85.9421 136.131 85.8797L136.228 85.7847C136.667 85.2562 137.052 84.6858 137.379 84.0817C136.864 83.2903 136.426 82.4518 136.069 81.5775L136.014 81.5211C135.193 81.531 134.579 81.5485 133.713 81.573C133.625 81.5776 133.538 81.5489 133.47 81.4927C133.403 81.4364 133.359 81.3568 133.347 81.2695C133.112 79.7951 133.273 78.285 133.812 76.8929C133.839 76.8192 133.89 76.7567 133.957 76.7153C134.024 76.6739 134.102 76.656 134.18 76.6645C134.637 76.6947 135.096 76.6921 135.553 76.6565C135.903 76.6356 136.253 76.6147 136.638 76.5993C137.004 75.6631 137.481 74.7743 138.06 73.9524L137.56 73.4394C137.162 73.0319 136.786 72.6026 136.436 72.1535C136.383 72.0841 136.356 71.998 136.361 71.9107C136.366 71.8233 136.402 71.7406 136.462 71.6776C137.789 70.4175 139.464 69.5861 141.27 69.2913C141.36 69.2752 141.453 69.2927 141.531 69.3403C141.608 69.388 141.666 69.4626 141.693 69.55C141.838 70.0585 142.01 70.5014 142.186 70.9698C142.363 71.4381 142.486 71.7386 142.627 72.1812C143.523 72.1271 144.421 72.1266 145.317 72.1797L145.515 72.1873C145.807 71.4567 146.154 70.7497 146.555 70.0726C146.596 70.0031 146.66 69.9497 146.736 69.9212C146.812 69.8928 146.895 69.8908 146.972 69.9157C148.445 70.4055 149.829 71.1314 151.069 72.0651C151.14 72.1186 151.189 72.1965 151.205 72.2838C151.222 72.3711 151.206 72.4615 151.159 72.5374C150.677 73.3682 150.144 74.1685 149.564 74.9339C150.18 75.6965 150.703 76.5297 151.123 77.4159C152.081 77.3723 153.049 77.3389 154.102 77.3928C154.192 77.3989 154.276 77.4379 154.339 77.5023C154.402 77.5666 154.439 77.6518 154.442 77.7416C154.499 79.0294 154.415 80.3195 154.191 81.589C154.131 81.9277 154.066 82.2612 153.991 82.5947C153.968 82.8022 153.884 82.9985 153.751 83.159C153.714 83.1957 153.671 83.2239 153.622 83.2417C153.574 83.2595 153.522 83.2664 153.471 83.2619C153 83.2306 152.641 83.1703 152.308 83.0952C151.908 83.0209 151.504 82.9701 151.099 82.9431L150.522 83.7059C150.084 84.283 149.656 84.8704 149.265 85.3417C149.338 85.641 149.436 85.9338 149.558 86.2168C149.777 86.7148 149.929 87.2398 150.009 87.7779C150.017 87.8451 150.006 87.9132 149.977 87.9745C149.949 88.0359 149.904 88.0882 149.848 88.1255C148.689 88.9153 147.374 89.4464 145.993 89.6828C145.918 89.6929 145.841 89.6799 145.774 89.6455C145.706 89.6112 145.651 89.5571 145.615 89.4905L145.324 88.8333C145.124 88.4022 144.891 87.9876 144.626 87.5933C143.65 87.717 142.662 87.7113 141.687 87.5764C141.441 87.9427 141.166 88.2882 140.864 88.6096C140.628 88.8397 140.411 89.1106 140.159 89.4367C140.105 89.5085 140.027 89.5579 139.939 89.5754C139.85 89.593 139.759 89.5776 139.682 89.532C138.764 88.9755 137.918 88.3079 137.163 87.5445ZM136.853 86.0865C137.667 87.1295 138.655 88.0246 139.773 88.7326C139.988 88.5226 140.138 88.2965 140.308 88.1112C140.636 87.7725 140.925 87.397 141.168 86.9922C141.207 86.929 141.263 86.8786 141.33 86.847C141.397 86.8154 141.472 86.8042 141.545 86.8146C142.595 86.9834 143.664 86.9901 144.716 86.8344C144.783 86.8262 144.85 86.8354 144.912 86.861C144.974 86.8867 145.028 86.928 145.069 86.9808C145.409 87.4629 145.705 87.9735 145.957 88.5069L146.14 88.8791C147.252 88.6573 148.313 88.2272 149.266 87.6115C149.183 87.2076 149.057 86.8138 148.891 86.4364C148.722 86.0587 148.598 85.6626 148.521 85.2563C148.511 85.2038 148.513 85.1497 148.526 85.0981C148.54 85.0465 148.566 84.9987 148.601 84.9584C148.966 84.5222 149.497 83.8247 149.93 83.2424C150.187 82.8911 150.435 82.5699 150.63 82.309C150.667 82.2641 150.714 82.2283 150.767 82.2044C150.82 82.1804 150.878 82.169 150.936 82.1709C151.431 82.2011 151.924 82.2581 152.413 82.3416C152.691 82.3907 152.954 82.4346 153.293 82.4845C153.306 82.4738 153.318 82.4621 153.329 82.4495C153.399 82.1109 153.469 81.7825 153.524 81.4488C153.719 80.3465 153.802 79.2271 153.769 78.108C152.756 78.0952 151.844 78.1242 150.941 78.1634C150.867 78.1675 150.794 78.1495 150.73 78.1117C150.667 78.0739 150.616 78.018 150.584 77.9512C150.15 76.9542 149.578 76.0227 148.887 75.1837C148.835 75.1204 148.806 75.0416 148.804 74.9598C148.802 74.878 148.828 74.7981 148.877 74.7327C149.437 74.0072 149.956 73.2509 150.431 72.4674C149.411 71.727 148.293 71.133 147.109 70.7027C146.767 71.3102 146.464 71.9393 146.204 72.5861L146.157 72.7021C146.127 72.7691 146.079 72.8257 146.017 72.8647C145.955 72.9036 145.883 72.9231 145.809 72.9206L145.364 72.9048C144.404 72.8419 143.44 72.8483 142.481 72.9241C142.397 72.9344 142.312 72.9146 142.241 72.8683C142.17 72.8219 142.118 72.752 142.094 72.6709C141.933 72.1369 141.757 71.6787 141.58 71.2306C141.403 70.7825 141.306 70.4976 141.164 70.0753C139.727 70.3546 138.388 71.0049 137.28 71.9615C137.594 72.3455 137.869 72.6377 138.159 72.9454C138.379 73.1711 138.609 73.4071 138.874 73.6789C138.928 73.742 138.959 73.8216 138.961 73.9045C138.964 73.9874 138.938 74.0687 138.888 74.1351C138.223 75.035 137.689 76.0243 137.301 77.0738C137.273 77.1439 137.224 77.2038 137.161 77.2455C137.098 77.2873 137.024 77.3089 136.948 77.3075C136.472 77.2913 136.057 77.3165 135.656 77.3368C135.255 77.368 134.852 77.3765 134.45 77.362C134.071 78.4667 133.942 79.6418 134.072 80.8024C134.863 80.782 135.466 80.7643 136.307 80.7547C136.377 80.7551 136.446 80.7759 136.505 80.8143C136.564 80.8528 136.61 80.9075 136.639 80.9717L136.767 81.2672C137.122 82.1616 137.578 83.0123 138.128 83.8024C138.171 83.8569 138.198 83.9226 138.205 83.9918C138.212 84.061 138.2 84.1308 138.168 84.1931C137.805 84.873 137.363 85.5084 136.853 86.0865ZM141.415 82.2683C140.861 81.6026 140.501 80.7968 140.375 79.9398C140.293 79.504 140.299 79.0563 140.391 78.6226C140.484 78.1888 140.661 77.7778 140.914 77.4134C141.24 76.9845 141.654 76.6305 142.128 76.3752C142.603 76.1199 143.126 75.9692 143.664 75.9333C144.206 75.8627 144.757 75.9366 145.262 76.1476C145.766 76.3586 146.206 76.6992 146.536 77.1349C147.099 77.8029 147.46 78.6178 147.576 79.4837C147.613 80.1194 147.48 80.7535 147.19 81.3206C146.901 81.8878 146.465 82.3675 145.929 82.7105C145.388 83.0323 144.777 83.2163 144.148 83.2464C143.52 83.2764 142.893 83.1515 142.324 82.8828C141.994 82.7402 141.693 82.5389 141.435 82.2888L141.415 82.2683ZM145.769 77.3431C145.508 77.0853 145.193 76.8896 144.846 76.7703C144.499 76.651 144.13 76.6113 143.766 76.6541C143.328 76.6779 142.901 76.7964 142.514 77.0015C142.126 77.2065 141.788 77.4931 141.522 77.8416C141.132 78.4061 140.973 79.0983 141.077 79.7764C141.514 81.692 142.052 81.9471 142.627 82.2178C143.088 82.4339 143.595 82.5345 144.103 82.5109C144.612 82.4873 145.107 82.3403 145.547 82.0825C145.973 81.8144 146.32 81.4365 146.55 80.9883C146.78 80.5402 146.886 80.0384 146.856 79.5354C146.74 78.8067 146.422 78.1251 145.938 77.5682C145.895 77.4984 145.846 77.4317 145.794 77.3687L145.769 77.3431Z" fill="#FCCB06"/>
<path d="M24.0764 174.804C23.2466 174.591 22.5154 174.093 22.0007 173.392C21.4861 172.69 21.2181 171.826 21.2399 170.939L21.5494 136.982C21.556 136.337 21.688 135.698 21.9375 135.103C22.187 134.507 22.5489 133.968 23.0017 133.517C23.4264 133.094 23.9291 132.764 24.4786 132.547C25.0281 132.33 25.6127 132.232 26.1965 132.257L33.7854 132.573C34.3629 132.596 34.9277 132.74 35.4458 132.997C35.9639 133.254 36.4244 133.617 36.7997 134.065C37.1996 134.542 37.5022 135.097 37.6897 135.7C37.8772 136.302 37.946 136.94 37.8919 137.574L35.1192 170.249C35.1146 170.303 35.0996 170.356 35.0753 170.405C35.0509 170.453 35.0175 170.497 34.9771 170.532C34.9367 170.568 34.89 170.595 34.8398 170.613C34.7895 170.63 34.7366 170.637 34.6841 170.633C34.6316 170.629 34.5806 170.614 34.5338 170.59C34.4871 170.566 34.4457 170.532 34.4119 170.491C34.378 170.449 34.3525 170.402 34.3367 170.35C34.3209 170.298 34.3152 170.244 34.3199 170.189L37.0848 137.513C37.1306 136.987 37.0725 136.458 36.9139 135.959C36.7553 135.46 36.4997 135.002 36.1625 134.611C35.8565 134.247 35.4816 133.951 35.06 133.741C34.6385 133.531 34.1789 133.412 33.7088 133.39L26.1199 133.075C25.6413 133.057 25.1626 133.141 24.7138 133.323C24.265 133.505 23.8557 133.78 23.5117 134.13C23.1359 134.501 22.8358 134.946 22.6296 135.438C22.4234 135.929 22.3155 136.457 22.3124 136.99L21.9875 170.943C21.9621 171.756 22.2461 172.542 22.7786 173.131C23.3111 173.72 24.0495 174.065 24.8351 174.093L27.9215 174.15C28.709 174.139 29.467 173.814 30.0377 173.243C30.6085 172.672 30.9479 171.899 30.9855 171.085L32.5298 144.203C32.5909 143.274 32.2943 142.363 31.7047 141.671C31.4261 141.334 31.0827 141.061 30.6958 140.868C30.3088 140.675 29.8864 140.567 29.4545 140.55C29.0196 140.531 28.5841 140.605 28.175 140.767C27.766 140.929 27.3922 141.176 27.0771 141.492C26.736 141.835 26.4636 142.244 26.2759 142.694C26.0881 143.145 25.9889 143.628 25.984 144.116L25.8223 166.883C25.8199 166.993 25.7754 167.099 25.6986 167.177C25.6217 167.254 25.5187 167.298 25.412 167.298C25.3599 167.3 25.3083 167.29 25.2602 167.27C25.2122 167.25 25.1687 167.22 25.1324 167.182C25.096 167.144 25.0676 167.098 25.0488 167.049C25.0299 166.999 25.0211 166.945 25.0227 166.891L25.1845 144.124C25.1886 143.525 25.3099 142.931 25.5408 142.377C25.7718 141.824 26.1078 141.322 26.5287 140.903C26.9203 140.508 27.385 140.198 27.8939 139.994C28.4028 139.79 28.9451 139.695 29.4871 139.716C30.0291 139.737 30.5593 139.873 31.0448 140.115C31.5302 140.358 31.9606 140.701 32.3093 141.125C33.033 141.98 33.3979 143.1 33.3253 144.244L31.8368 171.098C31.7877 172.127 31.355 173.103 30.6296 173.822C29.9043 174.54 28.9427 174.945 27.9468 174.951L24.8604 174.893C24.5963 174.892 24.3335 174.862 24.0764 174.804Z" fill="#FCCB06"/>
<path d="M170.42 219.407C169.976 219.715 169.444 219.869 168.911 219.845C168.378 219.82 167.874 219.619 167.482 219.272L152.24 206.262C151.951 206.015 151.717 205.711 151.552 205.368C151.388 205.026 151.295 204.652 151.281 204.269C151.267 203.909 151.328 203.549 151.461 203.209C151.593 202.869 151.793 202.558 152.05 202.294L155.373 198.856C155.626 198.594 155.928 198.384 156.261 198.238C156.595 198.093 156.952 198.014 157.312 198.008C157.696 198.001 158.074 198.07 158.425 198.21C158.777 198.351 159.094 198.56 159.358 198.826L172.987 212.504C173.009 212.527 173.027 212.554 173.039 212.584C173.051 212.614 173.056 212.646 173.056 212.679C173.055 212.711 173.048 212.743 173.034 212.773C173.021 212.803 173.002 212.831 172.978 212.854C172.955 212.877 172.927 212.896 172.896 212.908C172.865 212.921 172.833 212.927 172.8 212.928C172.767 212.928 172.735 212.922 172.705 212.91C172.675 212.898 172.648 212.88 172.625 212.857L158.993 199.181C158.773 198.96 158.51 198.787 158.218 198.672C157.925 198.558 157.611 198.504 157.292 198.514C156.999 198.519 156.708 198.583 156.436 198.701C156.165 198.819 155.918 198.989 155.711 199.201L152.388 202.639C152.179 202.857 152.016 203.113 151.911 203.393C151.805 203.672 151.758 203.968 151.772 204.262C151.783 204.579 151.858 204.888 151.994 205.171C152.13 205.454 152.324 205.704 152.564 205.907L167.797 218.923C168.154 219.243 168.629 219.408 169.119 219.381C169.609 219.355 170.075 219.14 170.416 218.782L171.736 217.357C172.061 216.983 172.231 216.505 172.212 216.021C172.193 215.537 171.986 215.085 171.633 214.759L160.111 203.851C159.716 203.47 159.18 203.264 158.62 203.278C158.35 203.281 158.083 203.338 157.833 203.447C157.584 203.555 157.358 203.712 157.169 203.908C156.978 204.105 156.829 204.337 156.731 204.59C156.633 204.843 156.588 205.112 156.599 205.38C156.611 205.67 156.682 205.952 156.807 206.211C156.933 206.469 157.11 206.699 157.328 206.886L167.566 215.587C167.615 215.63 167.645 215.691 167.648 215.757C167.651 215.822 167.627 215.887 167.583 215.937C167.561 215.962 167.535 215.982 167.506 215.997C167.477 216.012 167.445 216.021 167.413 216.024C167.38 216.027 167.348 216.023 167.317 216.013C167.287 216.003 167.259 215.987 167.235 215.965L156.997 207.264C156.728 207.035 156.51 206.753 156.356 206.435C156.202 206.117 156.116 205.77 156.103 205.414C156.088 205.08 156.142 204.745 156.263 204.429C156.384 204.113 156.569 203.823 156.805 203.577C157.042 203.331 157.326 203.134 157.639 202.998C157.952 202.862 158.288 202.791 158.626 202.788C159.316 202.773 159.976 203.026 160.464 203.493L171.996 214.365C172.441 214.778 172.701 215.351 172.722 215.963C172.744 216.575 172.524 217.179 172.109 217.648L170.789 219.073C170.678 219.196 170.554 219.308 170.42 219.407Z" fill="#FCCB06"/>
<path d="M35.04 24.9276C33.5133 24.559 32.1302 23.7459 31.0656 22.5913C30.001 21.4366 29.3027 19.9921 29.0591 18.4406C28.8154 16.8891 29.0372 15.3001 29.6966 13.8747C30.356 12.4492 31.4233 11.2514 32.7635 10.4325C34.1036 9.61361 35.6566 9.21053 37.2258 9.27423C38.7951 9.33792 40.3102 9.86554 41.5796 10.7903C42.8491 11.7151 43.8157 12.9956 44.3574 14.4698C44.899 15.9439 44.9914 17.5456 44.6228 19.0723C44.378 20.086 43.936 21.0416 43.322 21.8844C42.708 22.7273 41.9339 23.4409 41.0441 23.9847C40.1542 24.5284 39.166 24.8915 38.1358 25.0533C37.1056 25.2151 36.0537 25.1724 35.04 24.9276ZM38.5129 10.6361C37.2125 10.3177 35.8469 10.3922 34.5888 10.8503C33.3308 11.3083 32.2369 12.1292 31.4456 13.2091C30.6543 14.289 30.2011 15.5794 30.1434 16.9169C30.0857 18.2545 30.4262 19.5791 31.1215 20.7232C31.8169 21.8672 32.8361 22.7793 34.05 23.3439C35.2639 23.9085 36.6179 24.1004 37.9409 23.8952C39.2639 23.69 40.4963 23.0969 41.4821 22.1911C42.4679 21.2852 43.1629 20.1073 43.479 18.8064C43.8991 17.0646 43.6125 15.2274 42.6819 13.6964C41.7513 12.1654 40.2524 11.0651 38.5129 10.6361Z" fill="#FCCB06"/>
<path d="M128.208 172.871C126.579 172.478 125.104 171.61 123.968 170.379C122.833 169.147 122.088 167.606 121.828 165.951C121.568 164.296 121.805 162.601 122.508 161.081C123.211 159.56 124.35 158.283 125.779 157.409C127.209 156.536 128.865 156.106 130.539 156.174C132.213 156.242 133.829 156.804 135.183 157.791C136.537 158.777 137.568 160.143 138.146 161.716C138.724 163.288 138.822 164.997 138.429 166.625C138.168 167.706 137.697 168.726 137.042 169.625C136.387 170.524 135.561 171.285 134.612 171.865C133.663 172.445 132.609 172.832 131.51 173.005C130.411 173.177 129.289 173.132 128.208 172.871ZM131.912 157.626C130.525 157.287 129.068 157.366 127.726 157.855C126.384 158.343 125.218 159.219 124.373 160.371C123.529 161.523 123.046 162.899 122.985 164.326C122.923 165.753 123.286 167.166 124.028 168.386C124.77 169.606 125.857 170.579 127.151 171.181C128.446 171.784 129.891 171.988 131.302 171.769C132.713 171.551 134.028 170.918 135.079 169.952C136.131 168.985 136.872 167.729 137.209 166.341C137.657 164.484 137.352 162.524 136.359 160.891C135.366 159.258 133.767 158.084 131.912 157.626Z" fill="#FCCB06"/>
<path d="M165.303 269.05C164.387 268.829 163.557 268.341 162.918 267.648C162.279 266.956 161.86 266.089 161.714 265.158C161.568 264.227 161.701 263.274 162.096 262.419C162.492 261.563 163.132 260.845 163.937 260.353C164.741 259.862 165.672 259.62 166.614 259.658C167.556 259.696 168.465 260.013 169.226 260.568C169.988 261.123 170.568 261.891 170.893 262.776C171.218 263.66 171.273 264.621 171.052 265.537C170.905 266.145 170.64 266.719 170.272 267.224C169.903 267.73 169.439 268.158 168.905 268.485C168.371 268.811 167.778 269.029 167.16 269.126C166.542 269.223 165.911 269.197 165.303 269.05ZM167.386 260.475C166.606 260.284 165.787 260.329 165.032 260.604C164.277 260.879 163.621 261.371 163.146 262.019C162.671 262.667 162.399 263.441 162.365 264.244C162.33 265.046 162.534 265.841 162.951 266.528C163.369 267.214 163.98 267.761 164.708 268.1C165.437 268.439 166.249 268.554 167.043 268.431C167.837 268.308 168.576 267.952 169.168 267.408C169.759 266.865 170.176 266.158 170.366 265.378C170.618 264.333 170.446 263.23 169.888 262.312C169.329 261.393 168.43 260.733 167.386 260.475Z" fill="#FCCB06"/>
<path d="M77.5362 149.231C77.4558 149.193 77.3857 149.136 77.3316 149.065C77.2822 148.996 77.2492 148.916 77.2355 148.832C77.2218 148.748 77.2275 148.662 77.2524 148.581L79.9662 140.545C80.0029 140.44 80.0703 140.349 80.1596 140.283L117.44 112.333C117.497 112.291 117.562 112.261 117.63 112.245C117.698 112.228 117.769 112.226 117.838 112.237C117.982 112.245 118.116 112.308 118.215 112.413L124.184 120.395C124.227 120.451 124.259 120.515 124.277 120.583C124.295 120.651 124.299 120.722 124.289 120.792C124.28 120.862 124.256 120.929 124.22 120.99C124.184 121.051 124.137 121.104 124.08 121.146L86.7992 149.096C86.7088 149.17 86.5945 149.209 86.4778 149.204L77.7858 149.301C77.6984 149.297 77.613 149.273 77.5362 149.231ZM80.9325 141.045L78.5202 148.209L86.2743 148.156L122.97 120.627L117.643 113.51L80.9325 141.045Z" fill="#FCCB06"/>
<path d="M125.472 108.808L118.447 114.074L122.749 119.812L129.774 114.545L125.472 108.808Z" fill="#FCCB06"/>
<path d="M90.823 35.211L83.6211 33.4609L81.871 40.6628L89.0729 42.4129L90.823 35.211Z" fill="#FFD42E"/>
<path d="M133.212 232.926L127.039 231.426L125.289 238.628L131.462 240.128L133.212 232.926Z" fill="#FFD42E"/>
<path d="M213.294 80.9835L211.687 68.707L199.411 70.3139L201.018 82.5904L213.294 80.9835Z" fill="#FFD42E"/>
<path d="M213.48 198.228L204.229 190L196 199.252L205.252 207.48L213.48 198.228Z" fill="#FFD42E"/>
<path d="M53.2474 217.737C53.2474 217.737 42.2104 212.65 39.631 211.085C37.6682 214.301 36.9963 216.706 37.7171 219.815C38.31 222.327 39.8606 223.841 42.2702 225.013C49.1664 228.381 53.2474 217.737 53.2474 217.737Z" fill="#FFD42E"/>
<path d="M42.1117 225.426L42.0582 225.4C39.3201 224.089 37.8647 222.377 37.2876 219.91C36.5636 216.828 37.1134 214.383 39.2493 210.865C39.2781 210.817 39.3163 210.775 39.3614 210.742C39.4065 210.709 39.4578 210.685 39.5122 210.671C39.5667 210.658 39.6232 210.656 39.6786 210.664C39.7339 210.673 39.787 210.693 39.8347 210.722C42.3642 212.253 53.2982 217.3 53.4053 217.351C53.5049 217.396 53.5839 217.477 53.6264 217.577C53.6689 217.678 53.6719 217.791 53.6345 217.893C53.5174 218.138 51.2441 224.045 47.0811 225.69C46.2819 226.003 45.425 226.141 44.5679 226.095C43.7108 226.05 42.8734 225.822 42.1117 225.426ZM39.7598 211.664C37.9165 214.768 37.4765 216.983 38.1149 219.714C38.6232 221.932 39.9227 223.4 42.4391 224.605L42.4926 224.631C43.1464 224.973 43.8661 225.171 44.603 225.21C45.3399 225.25 46.0767 225.131 46.7635 224.861C50.0113 223.595 52.1136 219.224 52.6793 217.925C50.7492 217.067 42.5367 213.247 39.7598 211.664Z" fill="#FCCB06"/>
<path d="M78.5077 243.525L78.1558 243.357C72.0591 240.381 63.9602 236.325 56.8369 232.764C50.6813 229.676 44.8703 226.771 41.0607 224.909C40.9621 224.86 40.8861 224.775 40.8484 224.671C40.8106 224.567 40.814 224.453 40.8577 224.352C40.9055 224.251 40.9895 224.172 41.0929 224.131C41.1963 224.09 41.3115 224.089 41.4153 224.13C44.7394 225.552 48.1856 227.014 52.6232 217.922C60.9051 200.978 74.3791 173.151 74.511 172.875C74.5453 172.828 74.5896 172.788 74.6409 172.759C74.6921 172.73 74.749 172.712 74.8077 172.707C74.913 172.67 75.0286 172.675 75.1303 172.721L117.797 193.572C117.848 193.596 117.893 193.631 117.93 193.673C117.968 193.715 117.997 193.764 118.015 193.817C118.033 193.871 118.04 193.927 118.037 193.984C118.033 194.04 118.018 194.095 117.992 194.145C117.806 194.535 99.0127 233.373 97.1779 236.754C95.0775 240.594 91.5989 243.494 87.4439 244.87C84.3805 245.829 81.9189 245.158 78.5077 243.525ZM45.2863 226.04C48.7061 227.733 52.8762 229.824 57.2221 231.999C64.3377 235.556 72.3907 239.59 78.5334 242.588C81.9828 244.239 84.2479 244.948 87.1486 244.014C91.0917 242.701 94.3924 239.946 96.3888 236.301C98.1171 233.123 115.02 198.213 117.002 194.113L75.0967 173.635C73.4525 177.069 61.1426 202.446 53.392 218.3C50.4614 224.362 47.7436 226.013 45.3093 226.051L45.2863 226.04Z" fill="#FCCB06"/>
<path d="M86.8851 188.998L78.6578 184.974C78.6364 184.97 78.6162 184.96 78.5989 184.947C78.5816 184.934 78.5675 184.917 78.5578 184.897C78.548 184.877 78.5429 184.856 78.5428 184.834C78.5426 184.812 78.5474 184.79 78.5569 184.771C78.5663 184.751 78.5802 184.734 78.5973 184.72C78.6144 184.706 78.6345 184.697 78.6558 184.692C78.6772 184.687 78.6994 184.688 78.7206 184.693C78.7419 184.698 78.7617 184.708 78.7786 184.722L87.002 188.734C87.0365 188.751 87.063 188.78 87.0757 188.816C87.0884 188.852 87.0863 188.892 87.0697 188.926C87.0532 188.961 87.0237 188.987 86.9876 189C86.9516 189.013 86.912 189.011 86.8775 188.994L86.8851 188.998Z" fill="#FCCB06"/>
<path d="M89.0085 193.222L77.404 187.553C77.3695 187.536 77.343 187.507 77.3303 187.471C77.3176 187.435 77.3197 187.395 77.3362 187.36C77.3543 187.327 77.3839 187.302 77.4194 187.29C77.4548 187.277 77.4937 187.278 77.5285 187.293L89.1294 192.969C89.1473 192.977 89.1635 192.987 89.1768 193.001C89.1901 193.015 89.2004 193.032 89.2068 193.05C89.2132 193.068 89.2156 193.088 89.214 193.107C89.2123 193.126 89.2066 193.145 89.1972 193.162C89.1892 193.178 89.1778 193.193 89.1639 193.205C89.1499 193.218 89.1336 193.227 89.1159 193.233C89.0982 193.238 89.0795 193.24 89.0611 193.238C89.0426 193.236 89.0247 193.231 89.0085 193.222Z" fill="#FCCB06"/>
<path d="M100.37 212.886L78.5954 202.244C78.5609 202.228 78.5344 202.198 78.5217 202.162C78.5089 202.126 78.5111 202.086 78.5276 202.052C78.5456 202.019 78.5753 201.994 78.6108 201.981C78.6462 201.969 78.6851 201.97 78.7199 201.984L100.495 212.626C100.529 212.643 100.556 212.672 100.568 212.708C100.581 212.744 100.579 212.784 100.563 212.818C100.545 212.851 100.515 212.876 100.479 212.889C100.444 212.901 100.405 212.9 100.37 212.886Z" fill="#FCCB06"/>
<path d="M96.2573 221.297L74.4977 210.662C74.4798 210.655 74.4636 210.644 74.4503 210.63C74.437 210.616 74.4267 210.6 74.4203 210.582C74.4139 210.563 74.4115 210.544 74.4131 210.525C74.4148 210.506 74.4205 210.487 74.43 210.47C74.4478 210.438 74.4772 210.414 74.5123 210.403C74.5474 210.391 74.5854 210.394 74.6186 210.41L96.3935 221.052C96.4114 221.059 96.4276 221.07 96.4409 221.084C96.4542 221.098 96.4645 221.114 96.4709 221.133C96.4773 221.151 96.4798 221.17 96.4781 221.189C96.4764 221.209 96.4707 221.227 96.4612 221.244C96.4518 221.262 96.4389 221.277 96.4233 221.289C96.4078 221.301 96.3899 221.31 96.3707 221.315C96.3516 221.32 96.3317 221.321 96.3122 221.318C96.2927 221.315 96.274 221.308 96.2573 221.297Z" fill="#FCCB06"/>
<path d="M92.1437 229.71L70.3688 219.068C70.3343 219.052 70.3078 219.022 70.2951 218.986C70.2824 218.95 70.2845 218.911 70.301 218.876C70.3175 218.842 70.3471 218.815 70.3831 218.802C70.4192 218.79 70.4588 218.792 70.4933 218.808L92.2759 229.454C92.3081 229.472 92.3322 229.501 92.3434 229.536C92.3546 229.571 92.3519 229.609 92.336 229.642C92.3195 229.677 92.2899 229.703 92.2539 229.716C92.2178 229.729 92.1782 229.727 92.1437 229.71Z" fill="#FCCB06"/>
<path d="M71.6544 198.697C71.7104 198.549 71.7966 198.414 71.9075 198.3C72.0185 198.187 72.1518 198.098 72.299 198.039C72.4462 197.98 72.6041 197.952 72.7626 197.957C72.9212 197.962 73.077 198 73.22 198.069C73.3631 198.137 73.4904 198.235 73.5938 198.355C73.6972 198.475 73.7745 198.616 73.8207 198.767C73.867 198.919 73.8812 199.079 73.8624 199.236C73.8437 199.394 73.7924 199.546 73.7119 199.682C73.6473 199.817 73.5565 199.938 73.4449 200.038C73.3333 200.137 73.2029 200.213 73.0615 200.262C72.9201 200.311 72.7704 200.331 72.6212 200.321C72.472 200.311 72.3262 200.272 72.1923 200.205C71.9233 200.074 71.7164 199.843 71.6159 199.561C71.5154 199.279 71.5292 198.969 71.6544 198.697Z" fill="#FCCB06"/>
<path d="M72.0073 200.609C71.632 200.429 71.3435 200.108 71.2052 199.715C71.0669 199.323 71.0901 198.892 71.2698 198.516C71.4495 198.141 71.7709 197.853 72.1633 197.714C72.5557 197.576 72.9869 197.599 73.3622 197.779C73.7375 197.959 74.026 198.28 74.1643 198.672C74.3026 199.065 74.2794 199.496 74.0997 199.871C73.92 200.247 73.5986 200.535 73.2062 200.674C72.8138 200.812 72.3826 200.789 72.0073 200.609ZM72.0459 198.879C72.0034 198.962 71.978 199.054 71.9712 199.147C71.9645 199.241 71.9766 199.335 72.0067 199.424C72.0369 199.513 72.0845 199.595 72.1468 199.665C72.2091 199.735 72.2848 199.792 72.3695 199.833C72.5399 199.914 72.7357 199.925 72.9139 199.862C73.0921 199.799 73.238 199.668 73.3196 199.498C73.4011 199.328 73.4117 199.132 73.3489 198.953C73.2861 198.775 73.1551 198.629 72.9847 198.548C72.8156 198.467 72.6215 198.456 72.4443 198.517C72.2671 198.578 72.1213 198.707 72.0383 198.875L72.0459 198.879Z" fill="#FCCB06"/>
<path d="M67.5482 207.115C67.6127 206.98 67.7035 206.859 67.8151 206.76C67.9268 206.66 68.0571 206.584 68.1985 206.536C68.3399 206.487 68.4896 206.467 68.6388 206.477C68.788 206.486 68.9338 206.526 69.0677 206.592C69.2726 206.69 69.4436 206.847 69.5591 207.043C69.6746 207.238 69.7292 207.464 69.7161 207.691C69.7031 207.917 69.6228 208.135 69.4856 208.316C69.3485 208.497 69.1605 208.633 68.9457 208.707C68.731 208.781 68.4991 208.789 68.2795 208.731C68.06 208.673 67.8628 208.551 67.7129 208.38C67.5631 208.209 67.4674 207.998 67.4381 207.773C67.4087 207.547 67.4471 207.318 67.5482 207.115Z" fill="#FCCB06"/>
<path d="M67.8942 209.023C67.7077 208.934 67.5409 208.808 67.4035 208.653C67.2661 208.499 67.1607 208.318 67.0936 208.123C66.9619 207.73 66.9886 207.301 67.168 206.927C67.3507 206.555 67.6722 206.271 68.0629 206.134C68.4537 205.998 68.8825 206.02 69.2567 206.197C69.4416 206.288 69.6067 206.414 69.7427 206.569C69.8787 206.724 69.9828 206.904 70.0492 207.099C70.1156 207.294 70.1429 207.5 70.1296 207.706C70.1163 207.912 70.0626 208.113 69.9716 208.297C69.8821 208.482 69.7567 208.648 69.6028 208.784C69.4488 208.92 69.2694 209.024 69.0749 209.09C68.6875 209.222 68.2642 209.198 67.8942 209.023ZM68.8792 206.966C68.7085 206.886 68.5135 206.877 68.336 206.94C68.1585 207.002 68.0125 207.132 67.9292 207.301C67.8881 207.384 67.864 207.474 67.8584 207.567C67.8528 207.66 67.8658 207.752 67.8967 207.84C67.9266 207.928 67.9739 208.01 68.0357 208.08C68.0974 208.149 68.1724 208.206 68.2564 208.247C68.3402 208.29 68.4319 208.316 68.526 208.322C68.6201 208.328 68.7144 208.315 68.8032 208.283C68.8915 208.253 68.973 208.206 69.0429 208.144C69.1128 208.082 69.1698 208.007 69.2104 207.924C69.2918 207.754 69.3035 207.559 69.243 207.381C69.1826 207.202 69.0547 207.055 68.8869 206.969L68.8792 206.966Z" fill="#FCCB06"/>
<path d="M63.4956 215.404C63.5604 215.269 63.6512 215.147 63.763 215.048C63.8747 214.948 64.0052 214.871 64.1468 214.821C64.2884 214.772 64.4383 214.751 64.588 214.76C64.7377 214.769 64.8841 214.808 65.0188 214.873C65.2901 215.008 65.4975 215.244 65.5961 215.531C65.6946 215.817 65.6765 216.131 65.5457 216.404C65.4002 216.651 65.1674 216.834 64.8932 216.918C64.6191 217.001 64.3236 216.979 64.0651 216.855C63.8066 216.732 63.604 216.515 63.4972 216.249C63.3904 215.984 63.3872 215.687 63.4883 215.419L63.4956 215.404Z" fill="#FCCB06"/>
<path d="M63.853 217.289C63.4777 217.109 63.1892 216.788 63.0509 216.395C62.9126 216.003 62.9358 215.571 63.1155 215.196C63.2952 214.821 63.6166 214.532 64.009 214.394C64.4014 214.256 64.8327 214.279 65.2079 214.459C65.3931 214.548 65.5587 214.673 65.6948 214.827C65.831 214.981 65.935 215.161 66.0008 215.355C66.0697 215.549 66.0987 215.755 66.0859 215.961C66.0731 216.167 66.0189 216.367 65.9265 216.551C65.7484 216.923 65.4303 217.21 65.0418 217.348C64.6533 217.486 64.2259 217.465 63.853 217.289ZM64.8381 215.231C64.6677 215.15 64.4718 215.139 64.2937 215.202C64.1155 215.265 63.9696 215.396 63.888 215.566C63.8064 215.736 63.7959 215.932 63.8586 216.11C63.9214 216.289 64.0525 216.435 64.2229 216.516C64.3932 216.598 64.5891 216.608 64.7672 216.545C64.9454 216.483 65.0913 216.352 65.1729 216.181C65.216 216.099 65.2411 216.008 65.2467 215.915C65.2523 215.822 65.2382 215.729 65.2054 215.642C65.1759 215.554 65.1288 215.472 65.067 215.402C65.0052 215.332 64.9299 215.275 64.8457 215.235L64.8381 215.231Z" fill="#FCCB06"/>
<path d="M47.7159 118.444C47.5547 118.404 47.4157 118.302 47.3296 118.16L43.1204 111.233C43.076 111.165 43.0461 111.09 43.0328 111.01C43.0194 110.931 43.0228 110.849 43.0428 110.771C43.0611 110.691 43.0957 110.615 43.1445 110.549C43.1933 110.482 43.2552 110.427 43.3264 110.385L50.2453 106.162C50.3885 106.082 50.5567 106.059 50.716 106.098C50.8754 106.136 51.0143 106.234 51.105 106.371L55.3141 113.298C55.3583 113.368 55.3877 113.446 55.4006 113.527C55.4134 113.608 55.4094 113.692 55.3888 113.771C55.3707 113.85 55.3364 113.924 55.2881 113.988C55.2398 114.053 55.1785 114.106 55.1081 114.146L48.1893 118.369C48.0476 118.456 47.8774 118.483 47.7159 118.444ZM44.4995 111.125L48.0698 116.987L53.9918 113.432L50.3763 107.496L44.4995 111.125Z" fill="#FCCB06"/>
<path d="M-5.88175 168.616C-6.04301 168.576 -6.18195 168.474 -6.26808 168.332L-10.4773 161.405C-10.5217 161.337 -10.5515 161.262 -10.5649 161.182C-10.5782 161.103 -10.5748 161.021 -10.5548 160.943C-10.5365 160.863 -10.5019 160.787 -10.4532 160.721C-10.4044 160.654 -10.3425 160.598 -10.2713 160.557L-3.35238 156.333C-3.20912 156.254 -3.041 156.231 -2.88163 156.27C-2.72225 156.308 -2.58336 156.406 -2.4927 156.542L1.71647 163.47C1.76066 163.54 1.79009 163.617 1.80294 163.699C1.81578 163.78 1.81176 163.863 1.79114 163.943C1.77307 164.022 1.73877 164.096 1.69044 164.16C1.64211 164.225 1.5808 164.278 1.51049 164.318L-5.40839 168.541C-5.55006 168.628 -5.72031 168.654 -5.88175 168.616ZM-9.09816 161.297L-5.52781 167.159L0.394164 163.604L-3.22137 157.668L-9.09816 161.297Z" fill="#FCCB06"/>
<path d="M181.211 157.421C181.043 157.38 180.899 157.274 180.809 157.126C180.719 156.979 180.691 156.801 180.732 156.633C180.773 156.465 180.879 156.32 181.027 156.23C181.174 156.14 181.351 156.112 181.519 156.153C183.159 156.484 184.838 156.585 186.506 156.453C186.596 156.435 186.689 156.436 186.778 156.457C186.868 156.478 186.952 156.517 187.025 156.572C187.098 156.628 187.159 156.698 187.203 156.779C187.247 156.859 187.274 156.948 187.281 157.04C187.288 157.132 187.276 157.224 187.246 157.311C187.215 157.397 187.166 157.476 187.103 157.543C187.039 157.609 186.963 157.662 186.877 157.697C186.792 157.731 186.701 157.748 186.609 157.745C184.816 157.88 183.013 157.77 181.25 157.417L181.211 157.421ZM176.299 155.721L176.156 155.686C174.55 154.871 173.064 153.836 171.743 152.612C171.62 152.49 171.549 152.325 171.544 152.152C171.539 151.979 171.6 151.81 171.716 151.681C171.836 151.558 171.998 151.487 172.169 151.481C172.34 151.476 172.507 151.536 172.634 151.651C173.866 152.798 175.253 153.766 176.754 154.526C176.908 154.606 177.023 154.743 177.076 154.908C177.128 155.072 177.113 155.251 177.034 155.405C176.963 155.528 176.855 155.626 176.725 155.683C176.595 155.741 176.45 155.755 176.311 155.723L176.299 155.721ZM191.485 156.624C191.382 156.6 191.286 156.55 191.206 156.48C191.126 156.41 191.065 156.321 191.027 156.222C190.968 156.059 190.975 155.88 191.047 155.722C191.118 155.564 191.248 155.441 191.409 155.377C192.988 154.796 194.48 153.999 195.842 153.01C195.982 152.908 196.158 152.866 196.329 152.893C196.5 152.921 196.653 153.015 196.755 153.156C196.857 153.296 196.899 153.471 196.871 153.643C196.844 153.814 196.749 153.968 196.609 154.07C195.152 155.133 193.552 155.985 191.858 156.601C191.751 156.642 191.634 156.653 191.521 156.633L191.485 156.624ZM168.764 148.735C168.595 148.694 168.448 148.591 168.354 148.445C167.417 146.906 166.693 145.248 166.2 143.514C166.157 143.346 166.179 143.168 166.263 143.017C166.347 142.865 166.486 142.751 166.651 142.699C166.82 142.654 167 142.677 167.152 142.764C167.303 142.85 167.415 142.994 167.462 143.162C167.918 144.781 168.592 146.33 169.467 147.766C169.512 147.839 169.542 147.92 169.555 148.005C169.568 148.089 169.564 148.176 169.544 148.259C169.524 148.343 169.487 148.421 169.437 148.49C169.386 148.559 169.322 148.618 169.249 148.663C169.103 148.749 168.929 148.775 168.764 148.735ZM199.831 150.597C199.738 150.578 199.653 150.536 199.582 150.474C199.448 150.367 199.361 150.21 199.341 150.04C199.321 149.869 199.369 149.697 199.475 149.561C200.519 148.241 201.376 146.782 202.021 145.228C202.09 145.069 202.219 144.944 202.378 144.879C202.538 144.814 202.717 144.814 202.877 144.878C202.956 144.91 203.028 144.957 203.089 145.017C203.15 145.077 203.198 145.148 203.231 145.227C203.263 145.306 203.28 145.39 203.28 145.475C203.279 145.561 203.262 145.645 203.228 145.724C202.536 147.389 201.62 148.952 200.506 150.369C200.425 150.463 200.319 150.532 200.201 150.569C200.082 150.605 199.956 150.607 199.836 150.573L199.831 150.597ZM166.012 138.82C165.872 138.787 165.746 138.707 165.657 138.594C165.567 138.48 165.519 138.339 165.52 138.194C165.524 134.816 166.396 131.495 168.053 128.551C168.084 128.46 168.135 128.377 168.202 128.309C168.269 128.24 168.35 128.187 168.44 128.153C168.53 128.119 168.626 128.105 168.721 128.113C168.817 128.121 168.91 128.15 168.993 128.197C169.076 128.245 169.148 128.311 169.202 128.389C169.257 128.468 169.294 128.558 169.311 128.652C169.327 128.747 169.322 128.844 169.296 128.937C169.271 129.029 169.225 129.115 169.163 129.188C167.615 131.935 166.801 135.035 166.799 138.188C166.795 138.36 166.726 138.524 166.604 138.646C166.482 138.768 166.319 138.837 166.147 138.84L166.012 138.82ZM203.837 141.084C203.684 141.048 203.549 140.956 203.459 140.827C203.37 140.698 203.33 140.54 203.35 140.383C203.569 138.718 203.553 137.03 203.303 135.369C203.278 135.197 203.321 135.021 203.424 134.88C203.527 134.739 203.681 134.644 203.853 134.616C204.024 134.591 204.197 134.634 204.336 134.737C204.475 134.839 204.567 134.993 204.593 135.163C204.88 136.943 204.912 138.755 204.689 140.544C204.681 140.629 204.655 140.712 204.614 140.788C204.573 140.863 204.517 140.93 204.45 140.983C204.383 141.037 204.306 141.076 204.223 141.099C204.14 141.121 204.054 141.127 203.969 141.116L203.837 141.084ZM171.562 125.351C171.447 125.326 171.342 125.265 171.263 125.177C171.202 125.116 171.153 125.045 171.12 124.965C171.087 124.886 171.07 124.801 171.069 124.715C171.069 124.629 171.086 124.544 171.119 124.464C171.151 124.385 171.2 124.312 171.26 124.252C172.541 122.982 173.988 121.894 175.563 121.016C175.636 120.972 175.717 120.942 175.802 120.929C175.886 120.915 175.972 120.919 176.056 120.939C176.139 120.959 176.217 120.996 176.286 121.046C176.355 121.097 176.414 121.161 176.458 121.234C176.503 121.307 176.533 121.388 176.546 121.473C176.559 121.558 176.555 121.644 176.535 121.728C176.515 121.811 176.478 121.889 176.428 121.959C176.377 122.028 176.314 122.086 176.24 122.131C174.768 122.946 173.417 123.965 172.229 125.158C172.146 125.249 172.04 125.315 171.923 125.349C171.805 125.383 171.68 125.383 171.562 125.351ZM202.202 130.897C202.106 130.873 202.017 130.828 201.94 130.765C201.864 130.703 201.802 130.625 201.759 130.536C201.061 129.006 200.156 127.58 199.07 126.298C198.957 126.164 198.902 125.991 198.916 125.817C198.93 125.642 199.012 125.48 199.144 125.366C199.277 125.256 199.448 125.203 199.62 125.218C199.791 125.234 199.95 125.317 200.06 125.449C201.226 126.813 202.202 128.328 202.962 129.954C203.032 130.111 203.038 130.289 202.977 130.45C202.917 130.611 202.796 130.741 202.64 130.813C202.507 130.881 202.354 130.902 202.208 130.873L202.202 130.897ZM180.573 120.334C180.455 120.304 180.348 120.244 180.262 120.158C180.176 120.073 180.114 119.965 180.084 119.848C180.063 119.764 180.06 119.677 180.074 119.592C180.088 119.507 180.119 119.426 180.165 119.353C180.211 119.28 180.271 119.218 180.342 119.169C180.412 119.12 180.492 119.086 180.577 119.068C182.328 118.647 184.129 118.471 185.928 118.545C186.014 118.548 186.098 118.567 186.176 118.603C186.254 118.639 186.324 118.691 186.382 118.754C186.439 118.818 186.484 118.893 186.512 118.974C186.54 119.055 186.552 119.141 186.546 119.227C186.538 119.398 186.464 119.559 186.338 119.676C186.213 119.792 186.047 119.855 185.876 119.85C184.196 119.781 182.514 119.944 180.877 120.332C180.777 120.348 180.675 120.34 180.579 120.31L180.573 120.334ZM195.537 123.033C195.459 123.026 195.383 123.008 195.311 122.978C193.91 122.042 192.387 121.301 190.786 120.777C190.705 120.75 190.629 120.708 190.564 120.652C190.498 120.597 190.445 120.528 190.406 120.452C190.367 120.375 190.343 120.292 190.337 120.206C190.33 120.121 190.34 120.035 190.367 119.953C190.393 119.871 190.435 119.796 190.491 119.73C190.547 119.665 190.615 119.611 190.691 119.572C190.768 119.533 190.851 119.509 190.937 119.503C191.022 119.496 191.108 119.506 191.19 119.532C192.902 120.096 194.53 120.888 196.031 121.887C196.173 121.986 196.271 122.138 196.303 122.309C196.334 122.481 196.298 122.657 196.201 122.802C196.122 122.896 196.019 122.965 195.902 123.002C195.786 123.039 195.661 123.041 195.543 123.009L195.537 123.033Z" fill="#FCCB06"/>
</svg>
