<svg width="141" height="143" viewBox="0 0 141 143" fill="none" xmlns="http://www.w3.org/2000/svg">
<circle cx="86.9834" cy="54.1006" r="53.2881" fill="#505050"/>
<mask id="mask0_0_196" style="mask-type:alpha" maskUnits="userSpaceOnUse" x="0" y="26" width="113" height="117">
<rect x="0.90625" y="26.7734" width="111.163" height="116.141" rx="20" fill="#FCCB06"/>
</mask>
<g mask="url(#mask0_0_196)">
<path d="M0.949206 107.04C0.949206 96.0878 1.00035 85.1313 0.906587 74.179C0.889539 72.0364 1.51605 71.3108 3.67687 71.3535C9.71184 71.473 15.7511 71.4132 21.786 71.3834C23.0859 71.3791 24.0278 71.584 24.6373 72.9968C28.2813 81.4948 35.1132 85.9977 43.9995 86.5355C56.0694 87.2654 66.8479 83.3045 75.7043 74.9559C81.5305 69.4627 81.4793 62.9921 75.781 57.3879C68.9363 50.6612 60.3527 47.46 51.0616 45.9405C44.1742 44.818 37.777 46.107 32.0105 50.1106C28.7288 52.3898 26.2057 55.3519 24.7183 59.0866C24.1855 60.4311 23.4226 60.9134 22.0119 60.9049C15.7638 60.8537 9.51152 60.8409 3.26346 60.9092C1.50753 60.9262 0.915111 60.2945 0.923635 58.5446C0.983302 48.6594 0.987564 38.7742 0.915111 28.8847C0.902325 27.0152 1.51605 26.4348 3.37001 26.439C22.5447 26.5073 41.7236 26.3153 60.8939 26.597C71.0417 26.7464 80.7803 29.0939 89.2063 35.1889C98.4974 41.9113 103.241 51.1776 103.897 62.5738C104.362 70.5809 103.475 78.3363 99.4947 85.5026C95.5609 92.5921 89.7476 97.6585 82.5192 101.107C80.7292 101.961 80.6227 102.61 81.718 104.193C89.9692 116.119 98.1394 128.095 106.31 140.076C106.761 140.738 107.737 141.395 107.234 142.274C106.757 143.102 105.675 142.731 104.856 142.735C95.693 142.752 86.534 142.727 77.3708 142.761C75.6873 142.769 74.8093 142.364 74.6772 140.413C73.8291 127.694 64.4527 117.314 51.9481 115.133C50.8527 114.941 50.0216 114.714 49.4292 113.558C48.3808 111.5 45.9941 111.453 44.8902 113.468C44.2893 114.561 43.5647 114.941 42.4311 115.133C29.8838 117.233 20.4051 127.724 19.5613 140.524C19.4505 142.176 18.8794 142.782 17.2598 142.765C12.5716 142.71 7.88345 142.697 3.19953 142.769C1.40098 142.795 0.910849 142.035 0.919373 140.332C0.974778 129.231 0.949206 118.133 0.949206 107.04Z" fill="#FCCB06"/>
</g>
</svg>
