<svg width="141" height="143" viewBox="0 0 141 143" fill="none" xmlns="http://www.w3.org/2000/svg">
<circle cx="85.507" cy="55.8038" r="54.9913" fill="#505050"/>
<path d="M55.987 56.0716C54.962 56.134 53.9415 56.2142 52.9165 56.2498C47.747 56.4414 42.6221 56.9539 37.6085 58.2775C36.9222 58.4602 35.973 58.38 35.7279 59.2C35.4784 60.0423 36.3295 60.4567 36.8465 60.9425C39.048 63.0103 41.3163 65.0112 43.4732 67.128C47.3414 70.9116 51.6553 73.2156 57.3373 72.3956C62.9569 71.5845 68.5275 70.5328 74.0936 69.4409C85.2748 67.2484 96.1664 67.6539 106.684 71.5355L88.5682 21.8281H44.7879L32.0469 56.6554C40.3092 55.3942 48.108 55.1892 55.987 56.0716Z" fill="#FCCB06"/>
<path d="M115.701 96.2794C112.612 101.248 107.269 105.705 98.0486 106.806L97.4336 106.877C95.9808 107.126 94.5324 107.416 93.0841 107.683C85.9938 108.994 78.8858 109.145 71.751 108.018C70.0442 107.746 69.1573 107.349 70.1199 105.344C71.1494 103.196 71.4881 100.834 71.1984 98.9132C70.931 93.9709 69.4158 90.0671 66.1358 86.9743C63.3327 84.3361 59.9815 83.4715 56.3138 84.648C52.5169 85.8646 50.4268 88.6366 49.8029 92.5582C49.3216 95.5975 49.5355 98.5967 50.311 101.547C50.7967 103.396 50.3332 103.846 48.4081 103.45C38.0824 101.315 28.0287 98.2135 17.9437 95.2098L0.492188 142.916H40.3419L46.3269 124.618H86.689L92.6741 142.916H132.693L115.701 96.2794ZM66.6483 105.397C64.3399 108.392 60.6098 109.011 57.4502 106.912C52.9091 103.895 50.6719 96.8676 52.6417 91.814C54.6827 86.5821 60.3915 85.4145 64.4379 89.3986C66.8088 91.7293 68.1769 94.8801 68.422 98.9087C68.3864 100.936 68.2304 103.343 66.6483 105.397Z" fill="#FCCB06"/>
<path d="M15.6866 94.956C15.2811 95.6156 16.11 96.137 16.569 96.5559L17.1617 94.9605C16.6358 94.7154 16.0476 94.3678 15.6866 94.956Z" fill="#FCCB06"/>
<path d="M65.2919 104.42C63.3801 106.6 60.2249 107.023 57.8318 105.374C54.8727 103.333 53.4912 100.414 53.157 96.225C53.0188 95.2534 53.4912 93.7204 54.1196 92.2498C55.4476 89.1303 58.8523 87.9315 61.9317 89.4333C67.1191 91.9646 68.9685 100.227 65.2919 104.42Z" fill="#FCCB06"/>
<path d="M76.5091 81.0315C84.611 87.3908 93.6308 86.5798 102.825 84.4719C103.012 84.4273 103.159 84.1866 103.337 84.0218C102.802 83.3667 102.129 83.6875 101.541 83.643C99.0722 83.4513 96.5988 83.3265 94.1389 83.0904C93.2342 83.0012 92.1869 82.6536 92.9401 81.4236C94.2815 79.2311 92.949 78.8255 91.2065 78.5091C85.48 77.4708 79.5529 77.6178 73.9868 75.599C73.55 75.4386 72.9885 75.247 72.6988 75.7818C72.4537 76.2408 72.7612 76.7042 73.0331 77.1053C74.018 78.567 75.092 79.9218 76.5091 81.0315Z" fill="#FCCB06"/>
<path d="M36.9533 61.6064C35.6966 60.6349 34.9479 60.8577 34.3908 62.364C33.5887 64.5387 32.6884 66.6778 31.7704 68.808C31.2401 70.0424 31.7615 70.604 32.9113 70.7733C36.2804 71.268 39.6539 71.7225 43.0274 72.1949C44.4 72.2484 44.8635 71.6869 44.1906 70.4703C42.3144 67.0789 40.0505 64.0039 36.9533 61.6064Z" fill="#FCCB06"/>
<path d="M93.9558 100.369C93.6082 100.975 93.02 101.63 93.4834 102.343C94.0004 103.137 94.9051 102.86 95.5111 102.838C97.8107 102.468 99.9498 102.201 102.058 101.769C104.219 101.323 105.69 98.8808 105.253 96.7194C105.119 96.0599 104.923 95.5251 104.121 95.3869C101.666 94.9636 95.2839 98.0519 93.9558 100.369Z" fill="#FCCB06"/>
<path d="M106.918 78.142C106.374 78.2846 105.804 78.4316 105.902 79.2605C106.664 80.4281 107.956 80.9317 109.164 81.4977C109.583 81.6937 110.055 81.9478 110.519 82.0503L108.905 77.625C108.246 77.7988 107.582 77.9681 106.918 78.142Z" fill="#FCCB06"/>
<path d="M61.9227 89.4314C58.8388 87.9251 55.4385 89.1283 54.1105 92.2478C53.4822 93.7185 53.0142 95.2515 53.1479 96.223C53.4822 100.417 54.8637 103.336 57.8228 105.372C60.2159 107.025 63.371 106.598 65.2829 104.418C68.9639 100.225 67.1145 91.9626 61.9227 89.4314Z" fill="#FCCB06"/>
</svg>
