<svg width="137" height="142" viewBox="0 0 137 142" fill="none" xmlns="http://www.w3.org/2000/svg">
<circle cx="81.7491" cy="55.8038" r="54.9913" fill="#505050"/>
<path d="M85.8628 141.027C66.5908 141.271 47.3161 141.175 28.044 141.239C19.3736 141.268 10.7059 141.379 2.03816 141.444C0.28734 141.457 0.318745 141.442 0.329213 139.746C0.350149 135.643 0.371086 131.539 0.31351 127.436C0.297808 126.363 0.609239 126.142 1.66915 126.23C8.45521 126.801 15.2439 126.754 22.0378 126.217C26.9029 125.834 31.768 125.453 36.5861 124.654C43.9793 123.428 51.3123 121.914 58.5354 119.924C65.6722 117.956 72.7095 115.677 79.6866 113.217C80.5947 112.899 81.4583 112.492 82.2487 111.937C83.497 111.063 83.8739 109.803 83.3007 108.424C82.5523 106.628 81.2202 106.133 79.2443 106.9C71.8144 109.791 64.1961 112.136 56.5098 114.234C48.779 116.344 40.9252 117.956 32.9876 119.089C24.3016 120.328 15.5553 120.774 6.77767 120.439C5.08181 120.375 3.38857 120.222 1.69271 120.113C0.585686 120.04 0.111996 119.514 0.11723 118.363C0.156486 108.691 0.284723 99.0328 1.91777 89.4493C3.18967 81.9863 5.34613 74.8162 8.90534 68.1152C10.0961 65.8756 12.2787 64.875 14.8409 64.6754C18.421 64.398 21.729 65.4556 25.037 66.5781C26.1073 66.941 27.2222 67.1665 28.3057 67.4931C29.1379 67.742 29.4205 67.4102 29.4415 66.6221C29.4886 64.9838 29.6482 63.3429 29.6221 61.7073C29.5383 56.6032 29.9544 51.525 30.5223 46.4649C31.1216 41.1224 32.3778 35.9146 34.7777 31.0775C36.2092 28.1897 37.8972 25.4109 40.3389 23.1712C42.9612 20.763 46.811 20.6126 49.695 22.7305C52.2702 24.6202 54.1702 27.0777 55.9 29.6725C58.9908 34.3074 61.3514 39.3208 63.4843 44.443C64.5808 47.0741 65.714 49.6897 66.7635 52.3389C67.8286 55.0245 68.8205 57.7411 69.8333 60.4474C70.3934 61.9457 70.5504 61.9846 71.9715 61.3703C77.483 58.9906 83.0312 56.7043 88.8201 55.0374C89.8565 54.7393 90.1391 55.0012 90.1679 55.994C90.3537 62.1687 91.0734 68.2967 91.9266 74.4092C92.1098 75.7208 91.8298 76.4596 90.4558 77.0999C82.4999 80.7964 74.1907 83.5597 65.8318 86.1312C59.5142 88.0754 53.0815 89.6489 46.5362 90.7921C40.2159 91.8964 33.8853 92.7285 27.4813 93.0551C26.1492 93.1225 24.7962 93.2443 24.0477 94.7219C22.9328 96.9253 24.2021 99.2298 26.6779 99.1494C30.2475 99.0328 33.8041 98.675 37.3555 98.2732C42.553 97.6822 47.7138 96.8449 52.8093 95.6914C60.5427 93.939 68.1924 91.8808 75.6877 89.273C81.1155 87.3833 86.4648 85.3069 91.7774 83.1294C92.7588 82.7276 93.1147 82.992 93.2561 83.9719C94.6353 93.4958 96.1008 103.009 97.4093 112.543C98.307 119.084 99.0817 125.642 99.3826 132.244C99.4952 134.699 99.6941 137.151 99.8746 139.604C99.9505 140.661 99.5056 141.058 98.4248 141.048C94.2348 141.001 90.0475 141.027 85.8628 141.027ZM34.1888 60.2556C34.27 61.9302 34.058 64.8231 34.3773 67.7109C34.4715 68.5507 34.8117 68.9551 35.6282 69.0692C40.8388 69.795 46.0337 69.9609 51.2102 68.784C55.9785 67.6979 60.6369 66.267 65.0938 64.2787C68.5483 62.739 68.1924 63.7914 66.8865 60.2426C63.9606 52.2975 60.6343 44.5104 56.3318 37.1796C54.2303 33.5997 52.0477 30.0691 48.4806 27.6402C46.9078 26.5696 45.3297 25.6753 43.4009 26.4944C41.7051 27.2151 40.1715 28.3167 39.211 29.8462C37.0205 33.3327 35.9527 37.2859 35.1807 41.2623C34.0449 47.1286 34.0685 53.0907 34.1888 60.2556Z" fill="#FCCB06"/>
</svg>
