<svg width="139" height="142" viewBox="0 0 139 142" fill="none" xmlns="http://www.w3.org/2000/svg">
<circle cx="83.4835" cy="55.671" r="54.9913" fill="#505050"/>
<path d="M64.0402 141.373C63.534 140.573 62.7883 139.974 62.218 139.226C60.4329 136.885 59.3721 134.31 59.6188 131.327C59.8027 129.1 60.5969 127.045 61.5408 125.037C62.9095 122.124 64.6219 119.386 65.9736 116.462C67.5177 113.12 68.5942 109.666 68.55 105.964C68.503 102.166 67.3951 98.6371 65.5829 95.2965C63.8349 92.0754 61.6748 89.1538 59.1925 86.4529C59.1026 86.3559 58.9686 86.2673 59.0371 86.1C59.134 86.0255 59.221 86.0719 59.2966 86.1239C64.0202 89.3028 68.5429 92.7151 72.076 97.2213C73.9281 99.5847 75.3269 102.176 75.7803 105.182C76.2764 108.468 75.5022 111.512 73.9196 114.385C72.548 116.877 70.7073 119.02 68.7325 121.058C68.6384 121.155 68.5514 121.258 68.4987 121.396C69.8347 120.397 71.0052 119.228 72.153 118.03C74.7337 115.337 76.7413 112.229 78.6718 109.088C81.8214 103.966 81.5847 98.7538 78.6775 93.6079C76.3777 89.5362 72.9771 86.4979 69.0205 84.0586C65.4589 81.8624 61.6106 80.1485 58.1687 77.7373C52.6195 73.8526 47.7148 69.3296 43.8223 63.8083C40.4061 58.9619 37.9694 53.6853 37.0269 47.8055C35.7566 39.8786 37.4575 32.5928 41.8875 25.8933C42.733 24.6153 43.6783 23.4146 44.6507 22.2308C44.9516 21.8652 45.2838 21.7148 45.7486 21.7176C50.9742 21.7457 56.2054 21.5826 61.4253 21.861C67.3153 22.1745 73.0755 23.1798 78.5477 25.4603C84.1397 27.79 88.8677 31.2332 92.3937 36.1457C94.8646 39.5875 96.3617 43.4554 96.9363 47.6283C97.5979 52.4255 97.5822 57.2143 96.135 61.8962C94.3129 67.7942 90.908 72.6139 85.865 76.2962C84.549 77.2564 83.1787 78.1281 81.6032 78.9788C82.7738 79.4765 83.8147 79.8955 84.837 80.3552C89.4608 82.4361 93.6441 85.1426 97.1972 88.7629C100.782 92.4157 102.711 96.8403 103.558 101.785C104.005 104.402 104.187 107.039 104.11 109.691C103.934 115.739 102.506 121.422 98.9296 126.444C96.463 129.909 93.3148 132.649 89.6319 134.813C84.0071 138.118 77.852 139.849 71.4415 140.83C69.3299 141.154 67.2069 141.389 65.0739 141.531C64.716 141.555 64.361 141.55 64.0374 141.362L64.0402 141.373Z" fill="#FCCB06"/>
<path d="M64.0347 141.363C63.8608 141.736 63.4958 141.621 63.2192 141.628C61.3214 141.682 59.4194 141.756 57.5231 141.758C39.0147 141.791 20.5049 141.778 1.9966 141.778C0.861664 141.778 0.828871 141.743 0.857387 140.639C0.865942 140.312 0.861664 139.983 0.861664 139.655C0.861664 100.832 0.860238 62.0101 0.860238 23.1869C0.860238 21.8372 0.860239 21.8372 2.20762 21.8372C15.7513 21.8386 29.2936 21.8386 42.8373 21.8428C43.1153 21.8428 43.4033 21.7823 43.7626 21.9482C43.2337 22.3546 42.6348 22.5008 42.093 22.744C37.6246 24.7546 33.7549 27.5398 30.497 31.1897C26.7414 35.3964 24.4516 40.3398 22.7335 45.5981C22.4711 46.3995 22.2544 47.215 21.9978 48.0178C21.7582 48.77 21.647 48.8136 20.9384 48.4818C19.7906 47.9461 18.7754 47.2192 17.8273 46.3939C17.6633 46.2505 17.5578 46.0002 17.2427 46.0424C17.267 46.4741 17.7346 46.7229 17.7489 47.2445C16.7294 46.7468 15.9866 45.9299 14.7889 45.6642C15.0912 46.138 15.4277 46.4122 15.7627 46.6807C17.4409 48.0277 19.1861 49.2846 21.0225 50.4094C21.6456 50.7904 21.7739 51.2487 21.5971 51.8885C21.3405 52.8108 20.8814 53.6164 20.2169 54.3124C17.9271 56.7166 15.0798 58.3686 12.2752 60.0853C11.1075 60.8009 9.93975 61.5321 8.94169 62.4797C8.08763 63.2895 8.07052 64.1823 8.85044 65.0821C9.77864 66.1535 11.012 66.8227 12.1868 67.5693C12.6659 67.873 13.1507 68.1753 13.5912 68.5282C14.9486 69.6164 14.9229 71.6874 13.5542 72.756C12.9753 73.2073 12.4321 73.6923 11.963 74.2561C11.3983 74.9338 11.4183 75.6227 12.0228 76.2709C12.482 76.763 13.0594 77.0864 13.6454 77.3985C14.0703 77.6248 14.0732 77.8203 13.6668 78.0902C13.135 78.4431 12.6374 78.841 12.2267 79.3373C11.4597 80.2625 11.4625 81.2579 12.3023 82.1113C12.8313 82.6498 13.4273 83.1096 14.1359 83.4217C15.0684 83.8308 15.1796 84.1134 14.8003 85.0737C14.5594 85.6839 14.3355 86.3096 14.0147 86.8804C12.4306 89.6965 13.9391 93.0118 16.3017 94.3644C18.9166 95.8603 21.7411 96.2287 24.6854 96.0516C26.3422 95.9517 27.9947 95.7661 29.6529 95.6874C32.9978 95.5285 36.3485 95.4146 39.6948 95.551C43.141 95.6916 46.5715 96.067 49.8437 97.2284C55.5441 99.2501 59.1171 103.177 60.4232 109.029C61.1631 112.35 60.667 115.588 59.5834 118.775C58.6765 121.439 57.7783 124.108 57.2621 126.883C56.2983 132.08 57.9594 136.336 61.9944 139.738C62.6602 140.299 63.356 140.826 64.039 141.369C64.0404 141.373 64.0347 141.363 64.0347 141.363Z" fill="#FCCB06"/>
</svg>
