<svg width="1440" height="1086" viewBox="0 0 1440 1086" fill="none" xmlns="http://www.w3.org/2000/svg">
<path d="M1449.56 186.933C1443.73 183.342 1436.94 180.481 1432.46 175.077C1430.19 172.478 1428.99 169.117 1429.09 165.675C1429.19 164.069 1429.77 162.534 1430.75 161.268C1431.73 160.001 1433.07 159.062 1434.59 158.572C1435.46 158.281 1436.38 158.168 1437.3 158.24C1438.21 158.313 1439.11 158.569 1439.93 158.993C1441.31 159.789 1442.3 161.111 1443.38 162.242C1443.74 162.607 1444.47 162.672 1444.66 162.076C1445.69 158.904 1448.51 155.767 1451.83 155.003C1454.84 154.303 1457.57 156.356 1459.14 158.783C1459.92 159.952 1460.44 161.272 1460.68 162.656C1460.92 164.039 1460.86 165.456 1460.51 166.812C1459.48 170.36 1457.5 173.711 1455.67 176.889C1454.65 178.635 1453.65 180.409 1452.58 182.117C1451.51 183.825 1449.78 185.342 1448.52 187.072C1447.95 187.846 1449.13 188.766 1449.7 187.985C1451 186.215 1452.71 184.778 1453.86 182.894C1454.91 181.161 1455.92 179.412 1456.93 177.662C1457.94 175.913 1459.05 173.953 1459.98 172.033C1460.9 170.319 1461.62 168.506 1462.14 166.626C1462.44 165.105 1462.43 163.537 1462.11 162.015C1461.8 160.493 1461.19 159.047 1460.31 157.764C1458.55 155.128 1455.52 152.964 1452.25 153.407C1448.17 153.954 1444.57 157.692 1443.34 161.49L1444.61 161.326C1443.61 160.122 1442.49 159.022 1441.27 158.042C1439.89 157.123 1438.26 156.67 1436.61 156.749C1434.84 156.817 1433.13 157.389 1431.67 158.399C1430.21 159.41 1429.07 160.817 1428.38 162.458C1426.93 165.852 1427.7 170.027 1429.45 173.21C1431.29 176.556 1434.26 179.111 1437.33 181.271C1440.99 183.828 1444.94 185.78 1448.71 188.104C1449.51 188.588 1450.42 187.405 1449.61 186.927L1449.56 186.933Z" fill="#FCCB06"/>
<path d="M1433.14 163.731C1433.25 163.612 1433.04 163.81 1433.14 163.731L1433.27 163.611L1433.58 163.38L1433.93 163.156C1433.78 163.215 1434 163.128 1434 163.125L1434.21 163.041C1434.49 162.908 1434.77 162.791 1435.06 162.693C1435.33 162.598 1435.6 162.521 1435.87 162.462C1436.43 162.334 1437 162.296 1437.57 162.35L1437.99 162.423L1438.18 162.492L1438.36 162.571L1438.44 162.618C1438.56 162.69 1438.67 162.777 1438.77 162.875C1438.84 162.941 1438.93 162.99 1439.03 163.02C1439.12 163.05 1439.23 163.06 1439.33 163.05C1439.42 163.04 1439.52 163.009 1439.61 162.96C1439.7 162.911 1439.77 162.845 1439.83 162.765C1439.9 162.686 1439.94 162.594 1439.97 162.497C1439.99 162.399 1440 162.297 1439.98 162.197C1439.97 162.097 1439.93 162.001 1439.88 161.915C1439.82 161.829 1439.76 161.754 1439.67 161.695C1438.63 160.718 1436.99 160.718 1435.69 160.989C1434.27 161.223 1432.97 161.881 1431.94 162.876C1431.88 162.953 1431.83 163.043 1431.81 163.138C1431.78 163.233 1431.78 163.332 1431.79 163.43C1431.8 163.528 1431.84 163.622 1431.88 163.707C1431.93 163.793 1432 163.868 1432.08 163.928C1432.16 163.988 1432.24 164.033 1432.34 164.059C1432.43 164.085 1432.53 164.092 1432.63 164.079C1432.73 164.067 1432.82 164.035 1432.9 163.986C1432.99 163.937 1433.06 163.871 1433.12 163.793L1433.14 163.731Z" fill="#FCCB06"/>
<path d="M1390.01 89.8307C1383.87 87.5792 1377.14 86.1701 1371.76 82.2591C1369.04 80.4031 1367.04 77.6599 1366.1 74.4975C1365.59 72.8016 1365.64 70.989 1366.23 69.3278C1366.82 67.6665 1367.93 66.2448 1369.39 65.2728C1370.22 64.7178 1371.16 64.3491 1372.14 64.1917C1373.13 64.0342 1374.14 64.0916 1375.1 64.36C1376.63 64.869 1377.87 65.9827 1379.18 66.8904C1379.29 66.9709 1379.41 67.0229 1379.54 67.041C1379.67 67.0591 1379.8 67.0427 1379.92 66.9935C1380.04 66.9443 1380.15 66.864 1380.23 66.7607C1380.31 66.6574 1380.36 66.5346 1380.37 66.4047C1380.76 62.9327 1383.15 58.9957 1386.56 57.8216C1389.38 56.8583 1392.45 58.6093 1394.28 60.7307C1395.18 61.7357 1395.87 62.9154 1396.3 64.1962C1396.73 65.4771 1396.89 66.8318 1396.78 68.1757C1396.36 71.9371 1395.13 75.5874 1393.92 79.1445C1393.28 81.0275 1392.7 82.9868 1391.95 84.8104C1391.19 86.634 1389.91 88.3385 1389.06 90.1917C1388.66 91.0695 1390.03 91.65 1390.43 90.7819C1391.31 88.8772 1392.62 87.2087 1393.38 85.2474C1394.13 83.2861 1394.74 81.3462 1395.39 79.3936C1396.05 77.441 1396.69 75.4634 1397.21 73.4668C1397.81 71.5075 1398.18 69.4814 1398.31 67.4314C1398.31 65.92 1398.02 64.4209 1397.44 63.0196C1396.87 61.6184 1396.03 60.3425 1394.97 59.2648C1392.86 57.0666 1389.67 55.4509 1386.59 56.2051C1382.38 57.2821 1379.36 61.974 1378.89 66.1348L1380.08 65.6491C1378.83 64.6463 1377.48 63.7824 1376.05 63.0726C1374.34 62.4215 1372.45 62.3858 1370.72 62.9714C1368.93 63.5565 1367.35 64.6748 1366.2 66.1801C1365.05 67.6855 1364.38 69.508 1364.28 71.4094C1364.15 75.0264 1365.92 78.7018 1368.42 81.2561C1370.91 83.8104 1374.3 85.6298 1377.64 87.0097C1381.5 88.602 1385.54 89.7082 1389.47 91.1444C1390.4 91.4609 1390.94 90.0971 1390.03 89.7624L1390.01 89.8307Z" fill="#FCCB06"/>
<path d="M1369.28 70.5317C1369.53 70.1131 1369.87 69.753 1370.26 69.4751C1370.72 69.1061 1371.22 68.8028 1371.76 68.5737C1372.27 68.3196 1372.83 68.1616 1373.4 68.1072L1373.58 68.0885L1373.74 68.0879L1373.86 68.0972L1374.06 68.1201L1374.26 68.1597C1374.46 68.2062 1374.14 68.11 1374.34 68.1858L1374.52 68.2575C1374.52 68.2575 1374.72 68.3708 1374.58 68.2892C1374.66 68.3497 1374.75 68.3941 1374.84 68.42C1374.93 68.446 1375.03 68.4529 1375.13 68.4404C1375.23 68.4279 1375.32 68.3962 1375.41 68.3472C1375.49 68.2981 1375.56 68.2327 1375.62 68.1546C1375.68 68.0767 1375.73 67.9877 1375.75 67.8926C1375.78 67.7975 1375.78 67.6982 1375.77 67.6004C1375.76 67.5027 1375.73 67.4083 1375.68 67.3228C1375.63 67.2373 1375.56 67.1623 1375.48 67.1022C1374.21 66.3113 1372.65 66.5632 1371.34 67.1161C1370.03 67.6048 1368.91 68.4742 1368.1 69.6139C1368.04 69.6918 1367.99 69.7808 1367.97 69.8759C1367.94 69.971 1367.94 70.0703 1367.95 70.168C1367.96 70.2658 1368 70.3602 1368.05 70.4457C1368.09 70.5312 1368.16 70.6062 1368.24 70.6663C1368.32 70.7267 1368.4 70.7712 1368.5 70.7971C1368.59 70.8231 1368.69 70.83 1368.79 70.8175C1368.89 70.805 1368.98 70.7733 1369.06 70.7243C1369.15 70.6752 1369.22 70.6098 1369.28 70.5317Z" fill="#FCCB06"/>
<path d="M1366.54 142.363C1363.42 136.744 1361.21 130.667 1359.99 124.36C1359.35 121.52 1359.04 118.615 1359.09 115.706C1359.19 113.121 1359.81 110.249 1361.92 108.571C1365.66 105.605 1372.49 106.583 1375.64 110.053C1379.35 114.138 1378.35 120.742 1375.97 125.18C1374.49 127.956 1372.48 130.395 1370.72 132.992C1368.83 135.846 1367.25 138.904 1365.63 141.917C1365.57 142.042 1365.55 142.18 1365.57 142.315C1365.59 142.45 1365.65 142.578 1365.73 142.685L1365.76 142.761C1365.86 142.896 1366.01 142.993 1366.17 143.035C1366.33 143.077 1366.51 143.063 1366.66 142.994L1366.78 142.944C1366.97 142.869 1367.11 142.725 1367.19 142.542C1367.26 142.359 1367.26 142.153 1367.19 141.969C1367.11 141.784 1366.97 141.637 1366.79 141.56C1366.6 141.482 1366.4 141.48 1366.22 141.555L1366.05 141.622L1366.95 141.848L1366.92 141.772L1367.02 142.539C1368.6 139.444 1370.34 136.432 1372.22 133.515C1373.93 130.995 1375.84 128.605 1377.29 125.924C1379.89 121.125 1380.84 114.168 1377.18 109.572C1373.97 105.55 1367.41 104.272 1362.83 106.323C1357.12 108.868 1357.28 115.934 1357.98 121.263C1358.53 125.072 1359.43 128.824 1360.66 132.471C1361.87 136.236 1363.47 139.864 1365.43 143.295C1365.9 144.129 1367.08 143.212 1366.6 142.388L1366.54 142.363Z" fill="#FCCB06"/>
<path d="M1365.7 114.528C1365.1 115.118 1364.65 115.85 1364.4 116.659C1364.15 117.469 1364.11 118.329 1364.27 119.163C1364.61 120.644 1365.42 122.288 1367.01 122.614C1368.96 123.018 1370.48 120.913 1370.99 119.278C1371.36 118.23 1371.37 117.086 1371.02 116.026C1370.83 115.529 1370.53 115.085 1370.13 114.733C1369.73 114.382 1369.25 114.133 1368.74 114.009C1368.27 113.849 1367.77 113.798 1367.28 113.858C1366.78 113.919 1366.31 114.09 1365.9 114.359C1364.99 115.057 1364.39 116.091 1364.23 117.235C1364.21 117.427 1364.27 117.62 1364.39 117.771C1364.51 117.923 1364.68 118.023 1364.87 118.05C1365.06 118.077 1365.25 118.029 1365.41 117.916C1365.56 117.803 1365.67 117.634 1365.7 117.444C1365.8 116.778 1366.12 116.164 1366.59 115.695C1366.77 115.536 1366.99 115.421 1367.22 115.359C1367.45 115.296 1367.7 115.288 1367.93 115.335C1368.25 115.358 1368.57 115.458 1368.84 115.627C1369.12 115.796 1369.35 116.028 1369.52 116.306C1369.82 117.026 1369.87 117.827 1369.65 118.573C1369.45 119.256 1369.12 119.89 1368.66 120.432C1368.48 120.674 1368.25 120.878 1367.99 121.033L1367.81 121.103C1367.58 121.198 1367.89 121.072 1367.7 121.15L1367.48 121.18C1367.41 121.211 1367.4 121.214 1367.48 121.18L1367.35 121.17L1367.22 121.142C1367.02 121.103 1367.34 121.199 1367.16 121.12C1367.09 121.098 1367.03 121.071 1366.98 121.039C1366.79 120.947 1367.08 121.125 1366.91 121C1366.74 120.876 1366.74 120.862 1366.65 120.784C1366.77 120.898 1366.63 120.729 1366.62 120.715C1366.57 120.662 1366.53 120.607 1366.49 120.55C1366.4 120.436 1366.31 120.316 1366.24 120.19C1366.28 120.295 1366.17 120.017 1366.14 119.961C1366.01 119.69 1365.9 119.409 1365.8 119.121C1365.71 118.899 1365.86 119.26 1365.77 119.038C1365.73 118.954 1365.73 118.85 1365.71 118.761C1365.69 118.672 1365.67 118.486 1365.66 118.354C1365.64 118.222 1365.61 118.243 1365.64 118.165C1365.68 118.087 1365.65 117.903 1365.64 118.02C1365.63 118.137 1365.65 117.95 1365.66 117.941C1365.66 117.931 1365.68 117.754 1365.69 117.658C1365.8 116.927 1366.12 116.244 1366.6 115.692C1366.68 115.632 1366.74 115.558 1366.79 115.473C1366.84 115.388 1366.87 115.294 1366.88 115.196C1366.9 115.098 1366.89 114.999 1366.86 114.904C1366.84 114.809 1366.79 114.72 1366.73 114.641C1366.67 114.563 1366.6 114.497 1366.52 114.448C1366.43 114.398 1366.34 114.366 1366.24 114.353C1366.14 114.34 1366.04 114.346 1365.95 114.372C1365.86 114.397 1365.77 114.441 1365.69 114.501L1365.7 114.528Z" fill="#FCCB06"/>
<path d="M1331.46 85.3019C1326.49 84.148 1321.71 82.2807 1317.26 79.7573C1315.01 78.5263 1312.88 77.0779 1310.9 75.4327C1309.07 73.8885 1307.18 71.752 1307.03 69.2349C1306.81 65.1462 1311.1 61.2411 1314.87 60.6902C1319.53 60.0191 1323.59 64.1492 1325.28 68.1378C1326.49 70.9849 1326.91 74.0783 1327.67 77.048C1328.43 80.0177 1329.49 82.907 1330.51 85.7965C1330.56 85.9174 1330.64 86.0231 1330.74 86.1033C1330.85 86.1834 1330.97 86.2351 1331.1 86.2533L1331.17 86.2725C1331.33 86.2957 1331.5 86.2641 1331.64 86.1825C1331.78 86.101 1331.89 85.9741 1331.96 85.8217L1332 85.7075C1332.34 84.8076 1330.97 84.2243 1330.63 85.1242L1330.59 85.2384L1331.37 84.7876L1331.31 84.8128L1331.9 85.2697C1330.77 82.3033 1329.8 79.2768 1329 76.2043C1328.31 73.2468 1327.82 70.2079 1326.61 67.4583C1324.71 63.1143 1320.48 58.9264 1315.52 59.1034C1311.15 59.2671 1306.7 63.0448 1305.7 67.3147C1304.44 72.6914 1309.8 76.8124 1313.73 79.3642C1319.09 82.8713 1325.03 85.3885 1331.25 86.7966C1332.19 86.9962 1332.39 85.521 1331.45 85.3145L1331.46 85.3019Z" fill="#FCCB06"/>
<path d="M1312.88 69.7243C1312.95 70.6 1313.27 71.4393 1313.79 72.1482C1314.2 72.7239 1314.75 73.1853 1315.39 73.4887C1316.75 74.2056 1318.73 74.4013 1319.6 72.8722C1319.97 72.1286 1320.04 71.2669 1319.79 70.4692C1319.61 69.6842 1319.28 68.9428 1318.81 68.2918C1318.26 67.5478 1317.47 67.0116 1316.58 66.77C1316.15 66.6811 1315.7 66.6882 1315.26 66.7909C1314.83 66.8936 1314.42 67.0894 1314.07 67.3649C1313.74 67.5978 1313.46 67.8998 1313.25 68.251C1313.03 68.6023 1312.9 68.9949 1312.85 69.4031C1312.79 70.4098 1313.12 71.4038 1313.75 72.1859C1313.88 72.3234 1314.05 72.4086 1314.24 72.4248C1314.42 72.4409 1314.61 72.3869 1314.75 72.2732C1314.9 72.1596 1315 71.9945 1315.03 71.8105C1315.06 71.6265 1315.03 71.4368 1314.92 71.2788C1314.75 71.0114 1314.61 70.7183 1314.51 70.4095C1314.49 70.3401 1314.45 70.2637 1314.43 70.1942C1314.48 70.3262 1314.39 70.1109 1314.39 70.104C1314.36 69.9631 1314.35 69.8203 1314.34 69.6771C1314.35 69.8385 1314.33 69.6354 1314.36 69.6075L1314.38 69.4113C1314.4 69.2151 1314.33 69.5283 1314.36 69.3627L1314.43 69.19L1314.48 69.0771C1314.56 68.9015 1314.4 69.1775 1314.51 69.0255L1314.67 68.8371L1314.76 68.7464C1314.69 68.8148 1314.68 68.7801 1314.76 68.7464C1314.87 68.6486 1314.99 68.5572 1315.11 68.4724L1315.26 68.4135C1315.13 68.464 1315.37 68.3686 1315.37 68.3686C1315.6 68.2348 1315.86 68.1666 1316.13 68.171C1316.65 68.2638 1317.12 68.5368 1317.45 68.9422C1317.84 69.3688 1318.13 69.879 1318.29 70.4331L1318.37 70.6414C1318.47 70.8706 1318.32 70.5164 1318.42 70.7456C1318.45 70.8851 1318.47 71.0261 1318.49 71.1682C1318.51 71.309 1318.52 71.4513 1318.52 71.5937C1318.53 71.4532 1318.51 71.6939 1318.51 71.6939C1318.51 71.6939 1318.46 71.9917 1318.49 71.8636L1318.42 72.0559C1318.34 72.2412 1318.49 72.0278 1318.36 72.1521L1318.28 72.2664C1318.17 72.4157 1318.38 72.2271 1318.21 72.2945L1318.06 72.4063C1318.22 72.3418 1318.06 72.4063 1318 72.4316C1317.93 72.4569 1317.78 72.5215 1317.94 72.4541L1317.68 72.4968C1317.46 72.5163 1317.24 72.4997 1317.02 72.4477C1316.95 72.4285 1316.87 72.4191 1316.81 72.3971L1316.7 72.3613C1316.56 72.3132 1316.42 72.2552 1316.29 72.1973L1316.09 72.1007C1316.09 72.1007 1315.82 71.9584 1315.94 72.0247C1315.8 71.9427 1315.67 71.8536 1315.54 71.7578C1315.44 71.683 1315.36 71.6054 1315.27 71.5279L1315.11 71.324C1315.07 71.2692 1315.03 71.2122 1314.99 71.1533C1314.99 71.1533 1314.83 70.8952 1314.92 70.9797C1314.86 70.8269 1314.8 70.6741 1314.73 70.5144C1314.58 70.1963 1314.5 69.8476 1314.49 69.4943C1314.48 69.3965 1314.45 69.3019 1314.4 69.2159C1314.35 69.1299 1314.29 69.0542 1314.21 68.9931C1314.14 68.9321 1314.05 68.8868 1313.95 68.86C1313.86 68.8331 1313.76 68.8252 1313.66 68.8367C1313.57 68.848 1313.47 68.8786 1313.39 68.9265C1313.3 68.9744 1313.23 69.0388 1313.17 69.1161C1313.11 69.1933 1313.06 69.2818 1313.04 69.3765C1313.01 69.4713 1313 69.5703 1313.02 69.6681L1312.88 69.7243Z" fill="#FCCB06"/>
<path d="M1378.31 157.896C1378.85 158.51 1379.24 159.245 1379.44 160.038C1379.77 160.857 1380.11 161.684 1380.44 162.503C1380.78 163.45 1381.09 164.412 1381.34 165.379C1381.6 166.305 1382 167.189 1382.51 168.002C1382.58 168.109 1382.69 168.193 1382.81 168.245C1382.92 168.297 1383.06 168.314 1383.18 168.295C1384.02 167.986 1384.81 167.583 1385.55 167.094C1386.52 166.729 1387.46 166.295 1388.36 165.794C1389.15 165.253 1388.23 164.064 1387.45 164.602C1386.65 165.024 1385.83 165.393 1384.98 165.705C1384.62 165.854 1384.28 166.072 1383.95 166.28C1383.66 166.499 1383.35 166.675 1383.01 166.803L1383.68 167.095C1382.65 165.33 1382.32 163.261 1381.61 161.354C1381.28 160.534 1380.95 159.729 1380.61 158.909C1380.34 158.067 1379.86 157.307 1379.22 156.699C1378.5 156.063 1377.59 157.25 1378.32 157.876L1378.31 157.896Z" fill="#FCCB06"/>
<path d="M1384.68 153.623C1386.35 157.387 1388.2 161.096 1390.11 164.725C1390.55 165.573 1391.93 165.019 1391.48 164.163C1389.57 160.514 1387.71 156.791 1386.05 153.061C1385.69 152.165 1384.31 152.727 1384.68 153.623Z" fill="#FCCB06"/>
<path d="M1389.72 151.564C1390.5 153.68 1391.44 155.734 1392.53 157.71L1394.06 160.47C1394.32 160.912 1394.59 161.341 1394.89 161.752C1395.02 161.953 1395.15 162.146 1395.3 162.329C1395.42 162.445 1395.35 162.658 1395.36 162.185L1396 161.549L1395.97 161.563C1395.02 161.57 1395.21 163.057 1396.15 163.052L1396.19 163.038C1396.35 163.019 1396.5 162.946 1396.62 162.831C1396.74 162.716 1396.81 162.565 1396.83 162.401C1396.84 161.662 1396.19 161.043 1395.81 160.471C1395.42 159.9 1395.23 159.441 1394.94 158.914C1394.64 158.386 1394.34 157.926 1394.06 157.423C1392.91 155.364 1391.92 153.217 1391.1 151.002C1390.73 150.107 1389.36 150.668 1389.72 151.564Z" fill="#FCCB06"/>
<path d="M1393.78 156.908C1393.93 154.258 1394.41 151.639 1395.21 149.113C1395.28 148.931 1395.28 148.726 1395.21 148.542C1395.13 148.359 1394.99 148.212 1394.81 148.134C1394.63 148.057 1394.42 148.056 1394.24 148.13C1394.06 148.204 1393.92 148.348 1393.84 148.53C1392.99 151.172 1392.47 153.913 1392.31 156.69C1392.29 156.787 1392.3 156.887 1392.32 156.982C1392.35 157.078 1392.39 157.168 1392.45 157.247C1392.51 157.326 1392.58 157.392 1392.67 157.442C1392.75 157.493 1392.84 157.526 1392.94 157.54C1393.14 157.567 1393.33 157.516 1393.49 157.397C1393.64 157.279 1393.75 157.103 1393.78 156.908Z" fill="#FCCB06"/>
<path d="M1392.92 156.648C1394.12 157.15 1395.37 157.472 1396.6 157.896C1397.8 158.401 1399.03 158.837 1400.28 159.202C1400.48 159.229 1400.67 159.178 1400.83 159.06C1400.99 158.941 1401.09 158.766 1401.12 158.57C1401.14 158.374 1401.09 158.174 1400.98 158.014C1400.86 157.854 1400.68 157.747 1400.49 157.717C1399.33 157.373 1398.18 156.959 1397.07 156.479C1395.88 156.075 1394.66 155.753 1393.5 155.263C1393.41 155.224 1393.31 155.204 1393.21 155.203C1393.11 155.202 1393.02 155.221 1392.93 155.258C1392.84 155.295 1392.75 155.35 1392.68 155.419C1392.61 155.488 1392.56 155.571 1392.52 155.662C1392.48 155.753 1392.46 155.85 1392.46 155.949C1392.46 156.048 1392.48 156.146 1392.52 156.237C1392.56 156.329 1392.61 156.412 1392.68 156.483C1392.75 156.553 1392.83 156.609 1392.92 156.648Z" fill="#FCCB06"/>
<path d="M1397.55 147.757C1397.77 148.619 1398.2 149.415 1398.79 150.08C1399.28 150.753 1399.74 151.452 1400.16 152.175C1400.68 153.019 1401.15 153.879 1401.6 154.758C1402.04 155.637 1402.54 156.332 1402.9 157.167C1402.97 157.351 1403.12 157.498 1403.3 157.576C1403.48 157.653 1403.69 157.655 1403.87 157.581C1405.17 157.05 1406.33 156.229 1407.63 155.705C1407.81 155.631 1407.96 155.486 1408.04 155.303C1408.11 155.121 1408.11 154.914 1408.04 154.73C1407.96 154.546 1407.82 154.399 1407.63 154.321C1407.45 154.244 1407.25 154.242 1407.07 154.317C1405.76 154.847 1404.6 155.647 1403.3 156.192L1404.28 156.605C1403.96 155.821 1403.44 155.131 1403.06 154.379C1402.6 153.472 1402.12 152.584 1401.61 151.73C1401.19 151.011 1400.77 150.285 1400.29 149.612C1399.74 149.037 1399.31 148.353 1399.04 147.604C1398.86 146.663 1397.38 146.83 1397.56 147.778L1397.55 147.757Z" fill="#FCCB06"/>
<path d="M1401.6 152.579C1401.68 152.548 1401.44 152.734 1401.51 152.672L1401.57 152.65L1401.7 152.597C1401.73 152.583 1401.91 152.51 1401.76 152.571L1401.82 152.546C1402.07 152.445 1402.32 152.344 1402.56 152.243C1402.98 152.072 1403.4 151.903 1403.81 151.735C1403.99 151.66 1404.14 151.516 1404.21 151.333C1404.29 151.15 1404.29 150.944 1404.21 150.76C1404.14 150.575 1403.99 150.428 1403.81 150.351C1403.63 150.273 1403.42 150.271 1403.24 150.346L1401.93 150.879C1401.38 151.07 1400.87 151.376 1400.45 151.778C1400.39 151.856 1400.34 151.945 1400.32 152.04C1400.29 152.135 1400.29 152.234 1400.3 152.332C1400.31 152.43 1400.35 152.524 1400.4 152.61C1400.44 152.695 1400.51 152.77 1400.59 152.83C1400.75 152.951 1400.94 153.003 1401.14 152.977C1401.33 152.95 1401.51 152.847 1401.63 152.689L1401.6 152.579Z" fill="#FCCB06"/>
<path d="M1398.94 147.979C1399.05 147.833 1398.79 148.085 1398.94 147.979L1399.08 147.87L1399.18 147.83C1399.31 147.777 1399 147.903 1399.14 147.847C1399.28 147.791 1399.3 147.782 1399.38 147.749C1399.75 147.597 1400.13 147.443 1400.5 147.291C1401.24 147.027 1401.97 146.71 1402.67 146.343C1402.74 146.283 1402.81 146.209 1402.86 146.123C1402.91 146.038 1402.94 145.944 1402.95 145.847C1402.96 145.749 1402.96 145.65 1402.93 145.555C1402.9 145.46 1402.86 145.37 1402.8 145.292C1402.74 145.214 1402.67 145.148 1402.58 145.099C1402.5 145.049 1402.4 145.017 1402.3 145.004C1402.21 144.991 1402.11 144.997 1402.01 145.022C1401.92 145.048 1401.83 145.092 1401.75 145.151L1401.51 145.25L1399.81 145.946C1399.44 146.095 1399.08 146.243 1398.71 146.392C1398.36 146.543 1398.05 146.768 1397.8 147.051C1397.73 147.128 1397.68 147.217 1397.65 147.314C1397.62 147.41 1397.61 147.512 1397.63 147.612C1397.64 147.713 1397.67 147.81 1397.72 147.898C1397.77 147.987 1397.83 148.064 1397.91 148.127C1397.99 148.189 1398.08 148.234 1398.18 148.26C1398.28 148.286 1398.38 148.292 1398.48 148.277C1398.58 148.263 1398.67 148.228 1398.76 148.176C1398.84 148.123 1398.92 148.054 1398.97 147.971L1398.94 147.979Z" fill="#FCCB06"/>
<path d="M1407.01 109.182C1406.29 113.4 1405.84 117.66 1405.65 121.937C1405.5 124.062 1405.36 126.183 1405.34 128.317C1405.31 130.052 1405.15 132.08 1405.92 133.691C1406.57 134.989 1408.02 135.475 1409.33 135.778C1411.15 136.199 1413.02 136.507 1414.86 136.758C1416.89 137.051 1418.92 137.218 1420.94 137.47C1422.81 137.735 1424.69 137.901 1426.58 137.966C1427.69 137.994 1428.8 137.92 1429.9 137.745C1430.98 137.56 1431.97 137.132 1432.81 138.112C1433.48 138.905 1433.99 139.842 1434.58 140.693C1435.31 141.733 1436.11 142.716 1436.99 143.633C1437.07 143.736 1437.17 143.818 1437.29 143.868C1437.41 143.918 1437.54 143.936 1437.67 143.919C1437.8 143.903 1437.92 143.853 1438.03 143.774C1438.13 143.695 1438.21 143.59 1438.26 143.469C1438.57 142.514 1438.66 141.5 1438.53 140.501C1438.4 139.296 1438.36 138.086 1438.38 136.876L1437.35 137.455C1439.61 138.234 1441.78 138.025 1442.86 135.656C1443.81 133.556 1443.76 130.841 1443.78 128.579C1443.82 125.671 1443.58 122.766 1443.33 119.854C1443.21 118.451 1443.18 117.031 1443.04 115.629C1442.88 114.463 1442.53 113.33 1442.01 112.272C1441.64 111.264 1440.9 110.438 1439.94 109.967C1438.88 109.522 1437.75 109.254 1436.6 109.175C1435.4 109.049 1434.2 109.02 1433 108.877C1431.63 108.707 1430.28 108.484 1428.9 108.347C1426.53 108.117 1424.16 108.161 1421.8 108.003C1419.86 107.851 1417.93 107.568 1415.99 107.363C1413.99 107.059 1411.95 107.017 1409.94 107.238C1408.57 107.467 1407.15 108.072 1406.9 109.614C1406.75 110.566 1408.23 110.781 1408.37 109.822C1408.52 108.864 1409.95 108.726 1410.72 108.647C1412.29 108.55 1413.86 108.604 1415.42 108.809C1417.1 108.976 1418.79 109.2 1420.47 109.374C1422.15 109.549 1424.02 109.547 1425.79 109.633C1428.11 109.741 1430.38 110.051 1432.68 110.353C1434.73 110.618 1436.92 110.447 1438.9 111.163C1440.87 111.879 1441.54 114.797 1441.63 116.746C1441.74 119.213 1442.04 121.668 1442.18 124.135C1442.36 126.868 1442.34 129.609 1442.1 132.334C1442.07 133.361 1441.82 134.368 1441.38 135.293C1440.62 136.689 1439.28 136.541 1437.94 136.075C1437.83 136.03 1437.72 136.011 1437.61 136.018C1437.49 136.025 1437.38 136.058 1437.28 136.114C1437.19 136.171 1437.1 136.25 1437.04 136.345C1436.97 136.44 1436.93 136.548 1436.92 136.661C1436.87 137.734 1436.89 138.809 1436.97 139.88C1437.17 140.873 1437.14 141.897 1436.89 142.876L1438.17 142.713C1436.82 141.19 1435.58 139.564 1434.48 137.85C1433.49 136.447 1432.47 135.738 1430.74 136.049C1428.9 136.406 1427.02 136.527 1425.15 136.407C1423.23 136.27 1421.32 135.969 1419.4 135.772C1417.49 135.575 1415.49 135.351 1413.55 135.034C1411.84 134.848 1410.14 134.489 1408.5 133.961C1406.6 133.245 1406.79 131.07 1406.8 129.358C1406.78 127.362 1406.82 125.299 1407.01 123.34C1407.42 118.67 1407.57 113.99 1408.46 109.383C1408.64 108.433 1407.18 108.219 1406.99 109.174L1407.01 109.182Z" fill="#FCCB06"/>
<path d="M1413.67 115.795L1435.28 116.942L1435.48 115.46L1434.8 115.395C1433.85 115.346 1433.64 116.824 1434.6 116.871L1435.28 116.908C1436.23 116.958 1436.45 115.477 1435.48 115.426L1413.87 114.28C1412.92 114.23 1412.71 115.711 1413.68 115.762L1413.67 115.795Z" fill="#FCCB06"/>
<path d="M1413.34 123.238L1434.95 124.385L1435.15 122.909L1434.47 122.872C1433.52 122.822 1433.31 124.3 1434.27 124.354L1434.95 124.385C1435.9 124.434 1436.11 122.953 1435.15 122.909L1413.54 121.756C1412.59 121.706 1412.37 123.187 1413.34 123.238Z" fill="#FCCB06"/>
<path d="M1412.99 130.677L1434.61 131.827L1434.81 130.345L1434.12 130.31C1433.17 130.261 1432.96 131.746 1433.92 131.792L1434.61 131.827C1435.56 131.877 1435.77 130.399 1434.81 130.345L1413.19 129.194C1412.24 129.145 1412.03 130.633 1412.99 130.677Z" fill="#FCCB06"/>
<path d="M1311.76 110.807L1312 110.847C1312.16 110.847 1312.32 110.794 1312.44 110.695C1312.57 110.597 1312.67 110.459 1312.71 110.302C1312.75 110.145 1312.74 109.978 1312.68 109.826C1312.62 109.674 1312.52 109.546 1312.38 109.46C1309.29 107.857 1306.33 105.994 1303.55 103.893C1302.76 103.346 1301.86 104.526 1302.65 105.07C1305.53 107.247 1308.6 109.173 1311.8 110.828L1312.19 109.398L1311.95 109.325C1311.01 109.169 1310.8 110.654 1311.76 110.807Z" fill="#FCCB06"/>
<path d="M1302.19 105.092C1302.49 105.894 1302.68 106.73 1302.76 107.58C1302.89 108.474 1303.11 109.358 1303.31 110.234C1303.58 111.183 1303.76 112.153 1303.87 113.133C1303.89 114.043 1303.82 114.953 1303.65 115.846C1303.5 116.798 1304.97 117.007 1305.12 116.055C1305.29 115.129 1305.37 114.188 1305.36 113.246C1305.3 112.164 1305.13 111.09 1304.85 110.041C1304.64 109.107 1304.41 108.172 1304.28 107.235C1304.18 106.301 1303.96 105.384 1303.63 104.506C1303.55 104.321 1303.41 104.174 1303.22 104.097C1303.04 104.019 1302.84 104.018 1302.66 104.092C1302.47 104.166 1302.33 104.311 1302.25 104.494C1302.18 104.677 1302.18 104.883 1302.25 105.067L1302.19 105.092Z" fill="#FCCB06"/>
<path d="M1312.67 110.366C1314 109.897 1315.12 108.922 1316.33 108.231C1317.37 107.674 1318.38 107.061 1319.35 106.393L1318.18 105.507C1317.64 107.097 1317.31 108.753 1317.21 110.434C1317.16 111.241 1316.98 112.034 1316.67 112.782C1316.43 113.348 1316.21 113.927 1316.02 114.516C1315.95 114.668 1315.94 114.838 1315.98 114.998C1316.03 115.158 1316.12 115.3 1316.25 115.402C1317.17 116.13 1318.1 116.836 1319.06 117.497C1320.58 118.553 1322.49 119.223 1323.79 120.554L1323.79 119.64C1322.88 120.588 1320.92 120.485 1319.71 120.609C1317.95 120.758 1316.2 121.043 1314.49 121.46C1313.57 121.706 1314.14 123.092 1315.05 122.849C1316.91 122.426 1318.81 122.154 1320.72 122.037C1322.26 121.878 1323.86 121.708 1324.94 120.581C1325.05 120.455 1325.11 120.293 1325.12 120.123C1325.13 119.954 1325.08 119.786 1324.98 119.648C1323.6 118.227 1321.7 117.511 1320.1 116.408C1319.09 115.716 1318.12 114.97 1317.16 114.212L1317.39 115.097C1317.84 113.742 1318.5 112.539 1318.65 111.103C1318.73 110.33 1318.88 109.573 1318.97 108.798C1319.06 107.879 1319.26 106.977 1319.59 106.117C1319.65 105.962 1319.67 105.79 1319.62 105.626C1319.58 105.463 1319.48 105.319 1319.35 105.217C1319.22 105.115 1319.05 105.062 1318.88 105.066C1318.72 105.07 1318.56 105.13 1318.43 105.238C1317.49 105.883 1316.52 106.475 1315.51 107.01C1314.44 107.779 1313.29 108.45 1312.09 109.013C1311.19 109.34 1311.76 110.729 1312.66 110.402L1312.67 110.366Z" fill="#FCCB06"/>
<path d="M1303.25 115.448C1302.41 116.546 1301.12 117.289 1300.12 118.24C1299.17 119.148 1298.16 119.992 1297.09 120.765C1296.97 120.865 1296.88 121.004 1296.84 121.161C1296.8 121.317 1296.81 121.483 1296.87 121.633C1296.93 121.784 1297.04 121.91 1297.18 121.994C1297.31 122.078 1297.48 122.114 1297.64 122.098C1299.24 121.971 1300.84 122.409 1302.43 122.573C1303.27 122.674 1304.11 122.946 1304.97 123.051C1305.39 123.078 1305.81 123.076 1306.23 123.045C1306.55 123.047 1307.12 122.942 1307.41 123.092C1308.2 123.492 1307.96 125.411 1308.03 126.159C1308.15 126.94 1308.32 127.714 1308.52 128.478C1308.68 129.312 1308.94 130.124 1309.3 130.892C1309.37 131.076 1309.52 131.223 1309.7 131.3C1309.88 131.378 1310.09 131.38 1310.27 131.305C1311.69 130.603 1312.37 129.039 1312.97 127.643C1313.68 125.882 1314.53 124.182 1315.5 122.559C1316.02 121.757 1314.84 120.836 1314.33 121.645C1313.42 123.128 1312.63 124.681 1311.96 126.289C1311.45 127.453 1310.95 129.342 1309.72 129.948L1310.7 130.362C1309.95 128.749 1309.54 127.002 1309.48 125.227C1309.42 124.063 1309.31 122.446 1308.17 121.793C1307.45 121.529 1306.68 121.452 1305.92 121.569C1304.92 121.504 1303.92 121.369 1302.94 121.166C1301.13 120.914 1299.29 120.477 1297.46 120.613L1298.01 121.946C1299.13 121.106 1300.21 120.204 1301.24 119.243C1302.29 118.279 1303.56 117.487 1304.43 116.368C1304.54 116.211 1304.59 116.017 1304.56 115.825C1304.53 115.634 1304.43 115.461 1304.28 115.342C1304.12 115.223 1303.93 115.168 1303.74 115.188C1303.55 115.207 1303.38 115.301 1303.25 115.448Z" fill="#FCCB06"/>
<path d="M1344.23 126.94L1344.33 127.038C1344.85 127.54 1345.84 126.796 1345.47 126.162C1344.54 124.384 1343.77 122.533 1343.14 120.629C1343.07 120.444 1342.92 120.297 1342.74 120.22C1342.56 120.142 1342.35 120.14 1342.17 120.215C1341.99 120.289 1341.84 120.434 1341.77 120.617C1341.69 120.8 1341.69 121.006 1341.77 121.19C1342.39 123.095 1343.17 124.945 1344.09 126.723L1345.23 125.851L1345.13 125.755C1344.98 125.635 1344.78 125.582 1344.58 125.606C1344.39 125.631 1344.21 125.732 1344.09 125.887C1344.03 125.965 1343.99 126.054 1343.97 126.149C1343.94 126.244 1343.93 126.344 1343.95 126.441C1343.96 126.539 1343.99 126.633 1344.04 126.719C1344.09 126.804 1344.16 126.879 1344.23 126.94Z" fill="#FCCB06"/>
<path d="M1341.54 120.889C1341.49 121.111 1341.42 121.327 1341.32 121.532C1341.21 121.753 1341.1 121.952 1341 122.165C1340.76 122.633 1340.59 123.14 1340.37 123.62C1340.2 124.086 1339.98 124.536 1339.73 124.966C1339.44 125.382 1339.12 125.771 1338.75 126.127C1338.64 126.283 1338.58 126.481 1338.61 126.676C1338.64 126.872 1338.74 127.05 1338.89 127.172C1338.97 127.233 1339.06 127.277 1339.15 127.303C1339.25 127.329 1339.35 127.336 1339.44 127.323C1339.54 127.311 1339.63 127.279 1339.72 127.23C1339.8 127.181 1339.88 127.116 1339.94 127.037C1340.31 126.666 1340.64 126.26 1340.93 125.824C1341.24 125.314 1341.51 124.776 1341.73 124.215C1341.93 123.721 1342.14 123.24 1342.37 122.732C1342.65 122.224 1342.86 121.683 1343 121.12C1343.02 121.021 1343.02 120.919 1343 120.82C1342.97 120.721 1342.93 120.628 1342.87 120.546C1342.81 120.464 1342.74 120.395 1342.65 120.343C1342.56 120.291 1342.47 120.257 1342.37 120.243C1342.27 120.229 1342.17 120.235 1342.07 120.261C1341.98 120.287 1341.89 120.333 1341.81 120.396C1341.73 120.458 1341.66 120.536 1341.62 120.625C1341.57 120.713 1341.54 120.811 1341.53 120.911L1341.54 120.889Z" fill="#FCCB06"/>
<path d="M1344.78 127.019C1345.57 127.181 1346.38 127.267 1347.19 127.276C1347.94 127.347 1348.66 127.437 1349.42 127.434L1348.87 126.094C1348.06 126.67 1347.34 127.36 1346.73 128.143C1346.19 128.659 1345.59 129.115 1344.95 129.501C1344.82 129.604 1344.72 129.749 1344.68 129.912C1344.64 130.075 1344.66 130.247 1344.73 130.401C1344.91 131.016 1345.1 131.633 1345.33 132.239C1345.72 133.197 1346.34 134.117 1346.52 135.155L1347.16 134.324C1346.47 134.453 1345.68 133.836 1345.13 133.536C1344.27 133.017 1343.38 132.569 1342.45 132.197C1341.56 131.856 1340.98 133.234 1341.88 133.572C1342.88 133.979 1343.84 134.47 1344.76 135.038C1345.51 135.597 1346.43 135.88 1347.36 135.841C1347.46 135.829 1347.55 135.799 1347.63 135.751C1347.72 135.703 1347.79 135.639 1347.85 135.561C1347.91 135.484 1347.96 135.396 1347.98 135.301C1348.01 135.206 1348.02 135.107 1348.01 135.009C1347.84 134.275 1347.58 133.565 1347.22 132.898C1347.16 132.745 1347.1 132.599 1347.04 132.454C1346.98 132.308 1346.91 132.218 1347 132.356L1346.98 132.294C1346.91 132.12 1346.84 131.947 1346.76 131.766C1346.51 131.141 1346.33 130.492 1346.14 129.842L1345.91 130.744C1346.59 130.334 1347.22 129.851 1347.8 129.303C1348.38 128.55 1349.06 127.887 1349.83 127.337C1349.97 127.235 1350.06 127.09 1350.1 126.926C1350.15 126.763 1350.13 126.589 1350.06 126.435C1350 126.276 1349.89 126.141 1349.75 126.053C1349.6 125.964 1349.43 125.927 1349.27 125.948C1348.64 125.952 1348.05 125.854 1347.43 125.8C1346.74 125.806 1346.06 125.755 1345.38 125.647C1345.2 125.57 1345 125.568 1344.81 125.643C1344.63 125.717 1344.49 125.861 1344.41 126.042C1344.34 126.225 1344.34 126.43 1344.41 126.614C1344.49 126.797 1344.63 126.944 1344.81 127.022L1344.78 127.019Z" fill="#FCCB06"/>
<path d="M1338.82 125.705C1338.07 125.839 1337.32 125.912 1336.56 125.924C1335.82 126.03 1335.09 126.085 1334.35 126.089C1334.2 126.106 1334.06 126.167 1333.95 126.264C1333.84 126.361 1333.75 126.489 1333.72 126.633C1333.68 126.777 1333.68 126.929 1333.73 127.071C1333.78 127.212 1333.87 127.336 1333.98 127.427C1334.74 127.972 1335.45 128.586 1336.1 129.263C1336.46 129.57 1336.74 129.942 1337.08 130.272C1337.28 130.441 1337.49 130.594 1337.71 130.728C1337.81 130.8 1337.92 130.869 1338.01 130.951C1338.11 131.033 1338.33 131.259 1338.18 131.028C1338.03 130.798 1338.17 130.987 1338.12 131.104C1338.07 131.275 1337.99 131.438 1337.9 131.59C1337.76 131.841 1337.59 132.072 1337.44 132.319C1337.22 132.756 1337.02 133.207 1336.85 133.669C1336.66 134.103 1336.53 134.561 1336.45 135.031C1336.44 135.129 1336.45 135.228 1336.47 135.324C1336.49 135.419 1336.54 135.509 1336.6 135.588C1336.66 135.667 1336.73 135.734 1336.81 135.784C1336.9 135.834 1336.99 135.867 1337.09 135.881C1338.05 135.912 1338.98 135.604 1339.74 135.012C1340.62 134.447 1341.54 133.953 1342.5 133.534C1342.69 133.46 1342.83 133.315 1342.91 133.132C1342.98 132.949 1342.98 132.743 1342.91 132.559C1342.83 132.375 1342.69 132.228 1342.51 132.15C1342.32 132.073 1342.12 132.071 1341.94 132.145C1341 132.551 1340.09 133.029 1339.23 133.574C1338.7 133.895 1337.95 134.509 1337.28 134.369L1337.92 135.212C1338.01 134.73 1338.16 134.264 1338.38 133.825C1338.53 133.469 1338.7 133.126 1338.91 132.799C1339.32 132.134 1339.88 131.258 1339.55 130.439C1339.29 129.993 1338.91 129.633 1338.45 129.404C1338.03 129.057 1337.63 128.678 1337.26 128.271C1336.88 127.922 1336.5 127.585 1336.13 127.223C1335.77 126.844 1335.37 126.511 1334.93 126.233L1334.56 127.571C1335.35 127.564 1336.13 127.514 1336.91 127.423C1337.75 127.394 1338.58 127.293 1339.4 127.119C1339.59 127.045 1339.73 126.9 1339.81 126.717C1339.88 126.534 1339.88 126.328 1339.81 126.144C1339.73 125.96 1339.59 125.813 1339.41 125.735C1339.22 125.658 1339.02 125.656 1338.84 125.73L1338.82 125.705Z" fill="#FCCB06"/>
<path d="M1433.48 28.9349L1433.58 29.1641C1433.93 29.8777 1435.16 29.6742 1435.03 28.7831C1434.52 25.2618 1434.31 21.7058 1434.4 18.1528C1434.38 18.055 1434.35 17.9604 1434.3 17.8744C1434.26 17.7884 1434.19 17.7127 1434.11 17.6516C1434.04 17.5905 1433.95 17.5452 1433.85 17.5184C1433.76 17.4916 1433.66 17.4837 1433.56 17.4951C1433.47 17.5065 1433.37 17.537 1433.29 17.5849C1433.2 17.6329 1433.13 17.6973 1433.07 17.7745C1433.01 17.8517 1432.96 17.9402 1432.94 18.035C1432.91 18.1297 1432.91 18.2288 1432.92 18.3266C1432.83 21.8796 1433.04 25.4356 1433.55 28.9569L1435 28.5829L1434.91 28.3538C1434.48 27.4901 1433.1 28.0447 1433.53 28.9153L1433.48 28.9349Z" fill="#FCCB06"/>
<path d="M1432.71 17.8206C1432.23 18.5366 1431.65 19.1838 1430.99 19.7452C1430.31 20.389 1429.68 21.091 1429.06 21.8069C1428.44 22.5539 1427.75 23.2418 1427 23.862C1426.3 24.3719 1425.56 24.8094 1424.77 25.1681C1423.92 25.5899 1424.48 26.9816 1425.34 26.557C1426.16 26.1804 1426.95 25.732 1427.69 25.2171C1428.53 24.5563 1429.3 23.8125 1429.99 22.9968C1430.63 22.2851 1431.25 21.5428 1431.95 20.8864C1432.69 20.2606 1433.34 19.5394 1433.89 18.7413C1434.37 17.9466 1433.19 17.019 1432.71 17.8206Z" fill="#FCCB06"/>
<path d="M1434.38 29.4778C1435.54 30.1772 1436.77 30.7615 1438.05 31.2224C1439.2 31.7383 1440.29 32.3255 1441.49 32.748L1441.71 31.3006C1440 31.7765 1438.37 32.493 1436.87 33.4287C1435.62 34.1316 1434.28 34.2896 1432.93 34.6952C1432.81 34.7442 1432.7 34.8247 1432.62 34.9285C1432.54 35.0324 1432.49 35.1559 1432.47 35.2867C1432.42 36.5081 1432.38 37.7546 1432.37 38.9731C1432.4 40.8495 1432.95 42.7879 1432.62 44.6391L1433.46 44.0142C1432.14 43.791 1431.14 42.2632 1430.33 41.3148C1429.18 39.9181 1427.92 38.6166 1426.56 37.4229C1425.83 36.7997 1424.93 37.984 1425.66 38.6002C1427.12 39.9165 1428.47 41.3454 1429.7 42.8736C1430.66 43.9745 1431.76 45.2724 1433.25 45.4783C1433.34 45.4927 1433.44 45.4876 1433.54 45.4634C1433.63 45.4393 1433.72 45.3965 1433.8 45.3375C1433.88 45.2786 1433.94 45.2046 1433.99 45.1199C1434.04 45.0351 1434.07 44.9413 1434.09 44.8437C1434.42 42.9591 1433.92 41.0316 1433.85 39.1387C1433.81 37.9232 1433.86 36.7045 1433.92 35.4969L1433.47 36.0786C1434.73 35.7025 1436.01 35.5935 1437.17 34.9479C1438.63 34.0158 1440.21 33.2879 1441.86 32.7842C1442.52 32.6385 1442.83 31.6191 1442.08 31.3437C1440.99 30.9368 1439.92 30.4656 1438.88 29.9326C1437.73 29.3833 1436.36 29.0517 1435.31 28.3031C1434.53 27.7496 1433.62 28.9298 1434.41 29.4832L1434.38 29.4778Z" fill="#FCCB06"/>
<path d="M1424.89 24.6712C1423.54 24.6094 1422.22 24.0204 1420.89 23.7193C1419.58 23.4407 1418.29 23.0847 1417.02 22.6529C1416.36 22.4188 1415.64 23.2144 1416.15 23.8162C1417.23 25.1085 1417.86 26.7643 1418.66 28.2427C1419.09 29.0228 1419.36 29.9441 1419.81 30.6893C1420.13 31.175 1421.14 32.0921 1421.04 32.6822C1420.9 33.6008 1419.42 34.2684 1418.8 34.8438C1417.6 35.9138 1416.57 37.1774 1415.77 38.5843C1415.7 38.7667 1415.7 38.972 1415.77 39.1555C1415.85 39.339 1415.99 39.4856 1416.17 39.5634C1417.5 40.3013 1419.2 39.9472 1420.59 39.6416C1422.48 39.2019 1424.4 38.9179 1426.34 38.7927C1427.3 38.7585 1427.1 37.2653 1426.16 37.3036C1424.37 37.4109 1422.59 37.6641 1420.85 38.0605C1419.6 38.31 1417.96 38.8432 1416.76 38.18L1417.17 39.1661C1418 37.7018 1419.11 36.4209 1420.44 35.3983C1421.32 34.7065 1422.47 33.7605 1422.49 32.56C1422.4 31.8247 1422.06 31.1392 1421.55 30.6036C1420.99 29.7023 1420.48 28.7619 1420.05 27.7896C1419.19 26.1487 1418.46 24.3 1417.25 22.8829L1416.38 24.0462C1417.71 24.4994 1419.06 24.8638 1420.44 25.137C1421.86 25.4322 1423.23 26.0864 1424.71 26.1477C1425.66 26.1901 1425.87 24.7093 1424.91 24.6655L1424.89 24.6712Z" fill="#FCCB06"/>
<path d="M1366.39 43.4385L1366.36 43.5777C1366.34 43.7573 1366.38 43.94 1366.48 44.0917C1366.58 44.2434 1366.73 44.354 1366.91 44.4028C1367.08 44.4516 1367.26 44.4353 1367.43 44.3571C1367.59 44.2788 1367.72 44.1438 1367.79 43.9772C1368.19 43.122 1368.66 42.2975 1369.19 41.51C1369.72 40.6831 1370.29 39.8756 1370.86 39.0612C1370.92 38.9833 1370.96 38.8943 1370.99 38.7992C1371.01 38.7041 1371.02 38.6048 1371.01 38.507C1370.99 38.4092 1370.96 38.3149 1370.91 38.2294C1370.86 38.1439 1370.8 38.0689 1370.72 38.0087C1370.64 37.9483 1370.55 37.9038 1370.46 37.8779C1370.36 37.852 1370.27 37.8451 1370.17 37.8576C1370.07 37.8701 1369.98 37.9018 1369.89 37.9508C1369.81 37.9998 1369.73 38.0653 1369.68 38.1433C1368.45 39.794 1367.37 41.5451 1366.43 43.3785L1367.86 43.785L1367.88 43.6486C1367.9 43.5469 1367.9 43.441 1367.89 43.3378C1367.87 43.2346 1367.83 43.1363 1367.77 43.0493C1367.71 42.9623 1367.63 42.8886 1367.55 42.8328C1367.46 42.7771 1367.36 42.7406 1367.25 42.7257C1367.15 42.7109 1367.05 42.7179 1366.95 42.7465C1366.85 42.775 1366.75 42.8244 1366.67 42.8914C1366.59 42.9585 1366.53 43.0417 1366.48 43.1357C1366.44 43.2296 1366.41 43.3323 1366.41 43.437L1366.39 43.4385Z" fill="#FCCB06"/>
<path d="M1369.77 37.8095C1369.35 37.9603 1368.91 38.0582 1368.46 38.1009C1367.96 38.1709 1367.48 38.2839 1366.98 38.3985C1366.45 38.5359 1365.9 38.6282 1365.35 38.6744C1364.87 38.6807 1364.39 38.6354 1363.92 38.5392C1362.97 38.3758 1362.76 39.8608 1363.72 40.0144C1364.26 40.112 1364.82 40.1565 1365.38 40.1473C1365.98 40.1161 1366.58 40.0225 1367.17 39.868C1367.68 39.7479 1368.21 39.6221 1368.74 39.5534C1369.29 39.4998 1369.83 39.3739 1370.35 39.1788C1370.53 39.1044 1370.68 38.9598 1370.75 38.7769C1370.83 38.594 1370.83 38.3878 1370.75 38.2036C1370.68 38.0195 1370.53 37.8724 1370.35 37.7948C1370.17 37.7172 1369.97 37.7155 1369.78 37.7899L1369.77 37.8095Z" fill="#FCCB06"/>
<path d="M1366.67 44.1369C1367.01 44.8699 1367.41 45.5701 1367.88 46.2287C1368.23 46.838 1368.54 47.4475 1368.95 48.0246L1369.82 46.8613C1368.9 46.5238 1367.95 46.3194 1366.98 46.2542C1366.55 46.2217 1366.13 46.1189 1365.74 45.95C1365.42 45.7945 1365.1 45.6564 1364.77 45.5363C1364.61 45.4846 1364.44 45.4853 1364.28 45.5384C1364.12 45.5916 1363.98 45.6943 1363.88 45.8317C1363.49 46.3507 1363.09 46.8696 1362.72 47.4176C1362.49 47.7453 1362.29 48.1022 1362.1 48.4395C1361.82 49.0093 1361.48 49.5434 1361.08 50.0304L1361.99 50.0326C1361.82 49.7936 1361.72 49.514 1361.71 49.2241C1361.64 48.7987 1361.6 48.3662 1361.56 47.9324C1361.47 46.9093 1361.3 45.8942 1361.06 44.8964C1360.98 44.7122 1360.84 44.5651 1360.65 44.4875C1360.47 44.41 1360.27 44.4082 1360.08 44.4827C1359.9 44.5571 1359.76 44.7017 1359.68 44.8846C1359.6 45.0675 1359.6 45.2737 1359.68 45.4579C1359.92 46.4844 1360.08 47.5281 1360.15 48.5789C1360.14 49.5437 1360.48 50.4807 1361.11 51.2182C1361.24 51.3194 1361.4 51.3744 1361.56 51.3748C1361.73 51.3752 1361.89 51.3209 1362.01 51.2204C1362.51 50.6855 1362.93 50.0838 1363.26 49.4325L1363.67 48.7397C1363.73 48.6073 1363.62 48.8094 1363.7 48.6784L1363.88 48.4037C1364.26 47.8334 1364.66 47.2713 1365.09 46.7481L1364.21 46.9934C1364.96 47.3278 1365.74 47.5782 1366.53 47.7401C1366.96 47.7913 1367.39 47.876 1367.82 47.9342C1368.32 47.9802 1368.8 48.0935 1369.26 48.271C1369.42 48.3391 1369.59 48.3531 1369.75 48.3106C1369.91 48.2682 1370.05 48.1718 1370.15 48.0372C1370.25 47.9026 1370.31 47.7375 1370.3 47.5688C1370.3 47.4002 1370.24 47.2377 1370.13 47.1077C1369.78 46.5973 1369.46 46.0682 1369.17 45.5228C1368.74 44.8999 1368.36 44.2415 1368.04 43.5546C1367.71 42.6419 1366.34 43.2104 1366.66 44.1161L1366.67 44.1369Z" fill="#FCCB06"/>
<path d="M1364.29 38.3962C1363.75 37.8614 1363.24 37.2842 1362.78 36.67C1362.28 36.1235 1361.8 35.5459 1361.36 34.9407C1361.27 34.8098 1361.13 34.7152 1360.97 34.6716C1360.81 34.6279 1360.64 34.6377 1360.49 34.6993C1360.34 34.761 1360.21 34.8711 1360.13 35.0126C1360.05 35.1542 1360.02 35.3193 1360.04 35.4826C1360.03 36.3668 1359.95 37.2482 1359.78 38.1153C1359.73 38.5982 1359.57 39.0661 1359.51 39.5518C1359.5 39.8204 1359.5 40.0901 1359.52 40.3585C1359.55 40.4349 1359.53 40.5337 1359.53 40.6242C1359.52 40.7146 1359.48 40.9763 1359.54 40.8634C1359.59 40.7505 1359.54 40.8634 1359.41 40.9139C1359.28 40.9475 1359.14 40.9703 1359.01 40.9822C1358.7 41.0181 1358.39 41.0067 1358.08 41.0288C1357.65 41.0942 1357.22 41.1822 1356.8 41.2922C1356.31 41.3786 1355.83 41.53 1355.38 41.7426C1355.19 41.8171 1355.05 41.9617 1354.97 42.1445C1354.9 42.3274 1354.9 42.5336 1354.97 42.7178C1355.49 43.5379 1356.28 44.1484 1357.2 44.4413C1358.17 44.8343 1359.1 45.3058 1360 45.8511C1360.8 46.3754 1361.71 45.1924 1360.91 44.671C1360.05 44.1355 1359.16 43.6664 1358.23 43.2677C1357.86 43.1035 1357.49 42.9463 1357.12 42.7627C1356.8 42.6354 1356.51 42.4127 1356.31 42.1231L1355.91 43.0983C1356.77 42.6977 1357.71 42.4825 1358.67 42.4663C1359.45 42.4286 1360.4 42.3263 1360.83 41.5847C1361.02 41.1147 1361.09 40.6014 1361.02 40.0956C1361.05 39.5582 1361.12 39.0239 1361.23 38.4966C1361.44 37.4465 1361.54 36.3761 1361.53 35.3032L1360.2 35.845C1360.68 36.4877 1361.2 37.1012 1361.75 37.6823C1362.25 38.3595 1362.82 38.9901 1363.43 39.5665C1363.59 39.6788 1363.78 39.726 1363.97 39.6983C1364.16 39.6705 1364.33 39.57 1364.45 39.4177C1364.56 39.2654 1364.62 39.073 1364.6 38.8808C1364.58 38.6886 1364.48 38.5115 1364.34 38.3863L1364.29 38.3962Z" fill="#FCCB06"/>
<path d="M1333.64 154.891C1330.95 155.018 1330.79 158.549 1331.27 160.532C1331.58 161.877 1332.25 163.116 1333.2 164.119C1334.15 165.122 1335.34 165.854 1336.66 166.237C1339.69 166.97 1342.36 164.836 1343.41 162.099C1344.46 159.362 1344.08 156.107 1341.76 154.135C1339.29 152.002 1335.17 152.477 1332.89 154.629C1332.2 155.283 1333.1 156.48 1333.8 155.821C1334.63 155.034 1335.67 154.513 1336.79 154.326C1337.92 154.138 1339.07 154.292 1340.11 154.768C1342.21 155.856 1342.79 158.391 1342.33 160.548C1341.87 162.704 1340.23 164.88 1337.87 164.886C1335.51 164.892 1333.75 162.961 1332.97 160.973C1332.63 160.128 1332.49 159.219 1332.55 158.314C1332.62 157.479 1332.81 156.427 1333.82 156.38C1334.83 156.333 1334.59 154.843 1333.64 154.891Z" fill="#FCCB06"/>
<path d="M1333.99 164.935C1333.41 166.263 1332.61 167.465 1332.28 168.869C1331.93 170.634 1331.85 172.447 1332.07 174.239C1332.5 177.992 1333.93 181.395 1335.34 184.86C1335.42 185.044 1335.56 185.191 1335.74 185.269C1335.93 185.346 1336.13 185.348 1336.31 185.273C1336.5 185.199 1336.64 185.054 1336.72 184.872C1336.79 184.689 1336.79 184.482 1336.72 184.298C1335.39 181.041 1334.11 177.896 1333.59 174.398C1333.36 172.728 1333.4 171.034 1333.7 169.379C1333.93 167.98 1334.78 166.782 1335.31 165.478C1335.7 164.599 1334.32 164.011 1333.95 164.895L1333.99 164.935Z" fill="#FCCB06"/>
<path d="M1337.04 185.216L1345.52 181.757C1345.7 181.682 1345.85 181.538 1345.92 181.355C1346 181.172 1346 180.966 1345.92 180.782C1345.85 180.598 1345.7 180.451 1345.52 180.373C1345.34 180.295 1345.13 180.294 1344.95 180.368L1336.47 183.827C1336.29 183.901 1336.15 184.046 1336.07 184.229C1336 184.412 1335.99 184.618 1336.07 184.802C1336.15 184.986 1336.29 185.133 1336.47 185.211C1336.65 185.289 1336.86 185.29 1337.04 185.216Z" fill="#FCCB06"/>
<path d="M1343.32 162.271C1344.63 162.806 1346.05 163.074 1347.2 163.925C1348.58 164.897 1349.79 166.082 1350.79 167.437C1352.9 170.269 1354.14 173.432 1355.47 176.689C1355.55 176.873 1355.69 177.02 1355.87 177.098C1356.05 177.175 1356.26 177.177 1356.44 177.103C1356.62 177.028 1356.77 176.884 1356.85 176.701C1356.92 176.518 1356.92 176.312 1356.85 176.128C1355.43 172.655 1354.04 169.253 1351.76 166.245C1350.69 164.859 1349.41 163.645 1347.98 162.647C1346.72 161.781 1345.26 161.472 1343.88 160.901C1342.98 160.537 1342.41 161.919 1343.3 162.279L1343.32 162.271Z" fill="#FCCB06"/>
<path d="M1355.33 176.128L1345.2 180.261C1345.02 180.335 1344.87 180.48 1344.8 180.663C1344.72 180.846 1344.72 181.052 1344.8 181.236C1344.87 181.42 1345.02 181.567 1345.2 181.645C1345.38 181.722 1345.58 181.724 1345.77 181.65L1355.89 177.517C1356.08 177.443 1356.22 177.298 1356.3 177.115C1356.37 176.932 1356.37 176.726 1356.3 176.542C1356.22 176.358 1356.08 176.211 1355.9 176.133C1355.71 176.056 1355.51 176.054 1355.33 176.128Z" fill="#FCCB06"/>
<path d="M1415.85 66.38C1413.58 67.7266 1415.08 70.8925 1416.36 72.4025C1418.21 74.5864 1421.51 75.8344 1424.25 74.8519C1430.05 72.8107 1428.39 63.3679 1422.99 61.9135C1419.71 61.0396 1416.16 63.3382 1415.1 66.4774C1414.8 67.4077 1416.17 67.9771 1416.48 67.0648C1417.22 64.9408 1419.39 63.0995 1421.69 63.1966C1423.99 63.2938 1425.46 65.0674 1426.09 67.0695C1426.73 69.0715 1426.45 71.6222 1424.7 72.9293C1422.61 74.4783 1419.68 73.4779 1417.92 71.889C1417.28 71.2793 1416.77 70.5419 1416.43 69.7246C1416.09 68.8982 1415.93 68.0489 1416.75 67.5604C1416.91 67.4389 1417.01 67.2604 1417.03 67.0641C1417.05 66.8677 1417 66.6694 1416.88 66.5125C1416.82 66.4342 1416.74 66.3685 1416.66 66.319C1416.57 66.2696 1416.48 66.2374 1416.38 66.2243C1416.29 66.2112 1416.19 66.2175 1416.09 66.2428C1416 66.2681 1415.91 66.3119 1415.83 66.3717L1415.85 66.38Z" fill="#FCCB06"/>
<path d="M1420.84 75.1338C1420.97 76.7593 1420.82 78.3331 1421.35 79.9071C1421.92 81.6299 1422.76 83.2553 1423.82 84.7261C1425.97 87.6322 1428.61 89.8758 1431.35 92.1816C1432.09 92.7951 1432.99 91.6108 1432.26 91.0015C1429.7 88.848 1427.21 86.768 1425.19 84.077C1424.16 82.6847 1423.35 81.141 1422.78 79.5012C1422.27 78.0161 1422.43 76.5007 1422.32 74.9669C1422.25 74.0004 1420.77 74.1742 1420.84 75.1338Z" fill="#FCCB06"/>
<path d="M1432.98 91.6165L1438.85 84.58C1439.46 83.8461 1438.27 82.9352 1437.67 83.6663L1431.8 90.6987C1431.18 91.4354 1432.37 92.3533 1432.97 91.6124L1432.98 91.6165Z" fill="#FCCB06"/>
<path d="M1427.87 68.3351C1429.56 68.1647 1431.07 67.7515 1432.78 68.0832C1434.4 68.3892 1435.98 68.9365 1437.45 69.7072C1440.26 71.3144 1442.89 73.2315 1445.28 75.4229C1446.02 76.0461 1446.92 74.859 1446.19 74.2428C1444.88 73.1571 1443.58 71.9921 1442.21 70.9484C1440.82 69.9244 1439.36 69.0171 1437.82 68.2356C1436.29 67.4576 1434.66 66.9145 1432.98 66.6247C1432.09 66.4402 1431.19 66.3938 1430.3 66.4872C1429.42 66.5781 1428.56 66.7816 1427.68 66.8725C1427.49 66.8955 1427.31 66.996 1427.19 67.152C1427.07 67.3079 1427.01 67.5064 1427.04 67.7039C1427.06 67.9014 1427.16 68.0816 1427.32 68.2049C1427.47 68.3282 1427.67 68.3846 1427.87 68.3615L1427.87 68.3351Z" fill="#FCCB06"/>
<path d="M1444.81 75.0098L1437.82 83.4443C1437.21 84.181 1438.39 85.0988 1439 84.358L1445.99 75.9305C1446.61 75.1937 1445.42 74.2759 1444.81 75.0098Z" fill="#FCCB06"/>
<path d="M1347.11 91.7663C1349.58 92.8171 1352.04 93.8665 1354.5 94.9145C1354.68 94.9746 1354.88 94.9649 1355.05 94.8875C1355.22 94.8101 1355.35 94.6706 1355.42 94.497C1355.5 94.3233 1355.5 94.1282 1355.44 93.9507C1355.37 93.7732 1355.24 93.6263 1355.08 93.5395L1347.68 90.3913C1347.5 90.3312 1347.31 90.3409 1347.14 90.4183C1346.97 90.4957 1346.84 90.6352 1346.76 90.8089C1346.69 90.9825 1346.69 91.1776 1346.75 91.3551C1346.82 91.5326 1346.95 91.6795 1347.11 91.7663Z" fill="#FCCB06"/>
<path d="M1350.51 96.0339C1351.28 94.181 1352.04 92.3212 1352.82 90.4655C1352.86 90.3748 1352.88 90.2774 1352.88 90.179C1352.88 90.0806 1352.86 89.983 1352.82 89.8919C1352.78 89.8008 1352.73 89.7179 1352.66 89.6479C1352.59 89.578 1352.51 89.5224 1352.42 89.4843C1352.32 89.4462 1352.23 89.4263 1352.13 89.4258C1352.03 89.4253 1351.94 89.4442 1351.85 89.4814C1351.76 89.5186 1351.67 89.5734 1351.6 89.6427C1351.54 89.7119 1351.48 89.7943 1351.44 89.885L1349.13 95.4464C1349.05 95.63 1349.05 95.8371 1349.13 96.022C1349.2 96.207 1349.35 96.3546 1349.53 96.4325C1349.72 96.5104 1349.92 96.5122 1350.1 96.4374C1350.29 96.3627 1350.43 96.2175 1350.51 96.0339Z" fill="#FCCB06"/>
<path d="M1368.87 187.378C1371.34 188.424 1373.8 189.474 1376.27 190.526C1376.45 190.603 1376.65 190.604 1376.84 190.529C1377.02 190.454 1377.16 190.309 1377.24 190.126C1377.31 189.942 1377.31 189.736 1377.24 189.552C1377.16 189.368 1377.02 189.221 1376.83 189.144C1374.37 188.092 1371.91 187.042 1369.44 185.996C1369.26 185.919 1369.05 185.918 1368.87 185.993C1368.69 186.068 1368.54 186.214 1368.47 186.397C1368.39 186.58 1368.39 186.786 1368.47 186.97C1368.55 187.154 1368.69 187.301 1368.87 187.378Z" fill="#FCCB06"/>
<path d="M1372.27 191.642L1374.58 186.073C1374.61 185.982 1374.63 185.885 1374.63 185.787C1374.63 185.688 1374.61 185.591 1374.57 185.5C1374.54 185.408 1374.48 185.326 1374.41 185.256C1374.34 185.186 1374.26 185.13 1374.17 185.092C1374.08 185.054 1373.98 185.034 1373.89 185.033C1373.79 185.033 1373.69 185.052 1373.6 185.089C1373.51 185.126 1373.43 185.181 1373.36 185.25C1373.29 185.32 1373.24 185.402 1373.2 185.493L1370.89 191.061C1370.85 191.152 1370.83 191.249 1370.83 191.348C1370.83 191.446 1370.85 191.544 1370.89 191.635C1370.93 191.726 1370.98 191.809 1371.05 191.879C1371.12 191.949 1371.2 192.004 1371.29 192.042C1371.38 192.08 1371.48 192.1 1371.58 192.101C1371.68 192.101 1371.77 192.082 1371.86 192.045C1371.95 192.008 1372.04 191.953 1372.1 191.884C1372.17 191.815 1372.23 191.732 1372.27 191.642Z" fill="#FCCB06"/>
<path d="M1391.13 105.024L1398.52 108.173C1398.7 108.25 1398.91 108.252 1399.09 108.177C1399.28 108.103 1399.42 107.957 1399.5 107.774C1399.57 107.59 1399.58 107.383 1399.5 107.198C1399.42 107.013 1399.28 106.866 1399.1 106.788C1396.63 105.742 1394.17 104.692 1391.7 103.64C1391.61 103.601 1391.52 103.581 1391.42 103.58C1391.32 103.579 1391.22 103.598 1391.13 103.635C1391.04 103.672 1390.96 103.726 1390.89 103.796C1390.82 103.865 1390.76 103.947 1390.73 104.038C1390.69 104.129 1390.67 104.227 1390.67 104.326C1390.67 104.424 1390.69 104.522 1390.73 104.614C1390.76 104.705 1390.82 104.789 1390.89 104.859C1390.96 104.93 1391.04 104.986 1391.13 105.024Z" fill="#FCCB06"/>
<path d="M1394.51 109.289L1396.82 103.72C1396.9 103.538 1396.9 103.333 1396.82 103.149C1396.75 102.966 1396.6 102.819 1396.42 102.741C1396.33 102.702 1396.24 102.682 1396.14 102.681C1396.04 102.68 1395.94 102.698 1395.85 102.735C1395.76 102.772 1395.68 102.827 1395.61 102.896C1395.54 102.966 1395.48 103.049 1395.45 103.14L1393.14 108.705C1393.08 108.884 1393.1 109.079 1393.17 109.251C1393.25 109.423 1393.39 109.56 1393.56 109.633C1393.74 109.707 1393.93 109.713 1394.11 109.649C1394.28 109.585 1394.43 109.456 1394.51 109.289Z" fill="#FCCB06"/>
<path d="M1340.04 62.6128C1339.94 63.2447 1339.95 63.892 1340.1 64.5183C1340.16 64.877 1340.27 65.227 1340.42 65.5617C1340.5 65.739 1340.6 65.9114 1340.7 66.0781C1340.73 66.1406 1340.75 66.21 1340.83 66.2501C1340.9 66.3603 1340.99 66.4555 1341.1 66.5301C1341.17 66.5493 1341.05 66.412 1341.08 66.4814C1341.09 66.514 1341.1 66.5449 1341.12 66.5717C1341.16 66.6235 1341.2 66.673 1341.25 66.7201C1341.37 66.8506 1341.51 66.9693 1341.65 67.0747C1341.93 67.2743 1342.24 67.4212 1342.58 67.508C1343.11 67.6315 1343.67 67.5721 1344.16 67.3394C1344.71 67.0777 1345.15 66.6396 1345.43 66.0939C1345.69 65.5288 1345.77 64.8983 1345.68 64.2805C1345.63 63.7039 1345.46 63.1434 1345.18 62.6359C1344.9 62.1285 1344.52 61.6855 1344.06 61.3363C1343.54 60.9539 1342.9 60.778 1342.26 60.8422C1341.51 60.9771 1340.83 61.3677 1340.34 61.9482C1340.22 62.1047 1340.17 62.3023 1340.19 62.4981C1340.22 62.6938 1340.32 62.8719 1340.48 62.9937C1340.63 63.1139 1340.83 63.1674 1341.02 63.1427C1341.22 63.1181 1341.39 63.0171 1341.51 62.8619C1341.53 62.8333 1341.56 62.8091 1341.59 62.7907L1341.73 62.6705C1341.84 62.5999 1341.95 62.5224 1342.06 62.4384L1342.34 62.3233C1342.39 62.3008 1342.45 62.2784 1342.26 62.3542L1342.35 62.3177L1342.64 62.2902C1342.76 62.2828 1342.46 62.2756 1342.64 62.2902L1342.8 62.3132C1342.8 62.3132 1342.93 62.3503 1342.95 62.3419C1342.97 62.3335 1342.76 62.28 1342.87 62.3186L1342.9 62.3045C1343 62.3394 1343.09 62.3819 1343.18 62.4314C1343.03 62.3249 1343.29 62.4839 1343.18 62.4314L1343.29 62.5006C1343.38 62.567 1343.46 62.6387 1343.54 62.7153C1343.57 62.7778 1343.5 62.625 1343.51 62.6319C1343.51 62.6565 1343.52 62.68 1343.54 62.7014C1343.57 62.7411 1343.61 62.7832 1343.64 62.8276C1343.71 62.9095 1343.78 62.9966 1343.84 63.0883C1343.86 63.1369 1343.88 63.1925 1343.9 63.2411C1343.92 63.2897 1343.83 63.0744 1343.86 63.1508C1343.89 63.2272 1343.89 63.2064 1343.89 63.2272C1343.9 63.2481 1343.98 63.4425 1344.03 63.5467C1344.07 63.6508 1344.11 63.7481 1344.15 63.8522C1344.19 63.9564 1344.19 64.0969 1344.15 63.8522C1344.17 63.9008 1344.2 63.9633 1344.22 64.0119C1344.23 64.0606 1344.26 64.2538 1344.27 64.3692L1344.29 64.5249C1344.28 64.5944 1344.28 64.6643 1344.29 64.7336C1344.29 64.7336 1344.3 64.5458 1344.27 64.685L1344.3 64.7405C1344.3 64.7986 1344.29 64.8567 1344.29 64.9144L1344.26 65.0634C1344.31 64.9463 1344.22 65.2554 1344.26 65.0634C1344.23 65.1573 1344.19 65.2486 1344.15 65.3364C1344.2 65.2639 1344.06 65.5078 1344.15 65.3364L1344.06 65.4605L1343.96 65.5805L1343.9 65.6058C1343.9 65.6058 1344.04 65.4828 1343.97 65.5777C1343.9 65.6443 1343.82 65.7055 1343.74 65.7608C1343.74 65.7608 1343.56 65.8338 1343.69 65.7804C1343.82 65.7271 1343.69 65.7804 1343.63 65.8057L1343.51 65.8534C1343.48 65.8675 1343.3 65.9405 1343.44 65.8843C1343.58 65.8282 1343.44 65.8843 1343.4 65.9012L1343.27 65.9545C1343.27 65.9545 1343.13 65.9536 1343.12 65.9662C1343.11 65.9787 1343.28 65.9795 1343.22 65.9644L1343.13 65.9606L1342.98 65.9319C1342.98 65.9319 1342.8 65.8936 1342.94 65.9516C1343.07 66.0095 1342.94 65.9516 1342.87 65.9157C1342.79 65.8797 1342.76 65.8701 1342.7 65.8453C1342.85 65.9449 1342.64 65.8205 1342.7 65.8453C1342.55 65.7457 1342.62 65.7955 1342.59 65.7623C1342.54 65.7288 1342.5 65.6928 1342.45 65.6543C1342.43 65.5918 1342.43 65.5918 1342.48 65.7098C1342.45 65.6784 1342.42 65.6492 1342.39 65.6225C1342.37 65.56 1342.34 65.4975 1342.26 65.4575C1342.18 65.4174 1342.16 65.3521 1342.11 65.3009C1342.22 65.427 1342.06 65.2496 1342.11 65.3009L1341.97 65.1317C1341.97 65.1317 1341.94 65.0761 1341.93 65.0414C1341.93 65.0414 1341.77 64.6456 1341.75 64.597C1341.73 64.5484 1341.7 64.465 1341.67 64.3956C1341.65 64.3662 1341.63 64.3331 1341.63 64.2984C1341.67 64.4025 1341.66 64.3747 1341.63 64.2984C1341.56 63.9901 1341.52 63.6765 1341.5 63.3613C1341.5 63.3613 1341.48 63.3057 1341.46 63.271L1341.45 63.2294C1341.42 63.1669 1341.42 63.153 1341.45 63.0888C1341.47 62.9651 1341.48 62.842 1341.5 62.72C1341.52 62.5278 1341.47 62.3356 1341.35 62.1838C1341.23 62.032 1341.05 61.9321 1340.86 61.9052C1340.67 61.8782 1340.48 61.9263 1340.33 62.0392C1340.17 62.1522 1340.06 62.3213 1340.03 62.5113L1340.04 62.6128Z" fill="#FCCB06"/>
<path d="M1391.93 42.1632L1397.6 39.8498C1397.78 39.7753 1397.93 39.6308 1398 39.4479C1398.08 39.265 1398.08 39.0588 1398.01 38.8746C1397.93 38.6904 1397.79 38.5434 1397.6 38.4658C1397.42 38.3882 1397.22 38.3865 1397.03 38.4609L1391.36 40.7743C1391.18 40.8488 1391.04 40.9933 1390.96 41.1762C1390.89 41.3591 1390.89 41.5653 1390.96 41.7495C1391.04 41.9337 1391.18 42.0807 1391.36 42.1583C1391.54 42.2359 1391.75 42.2376 1391.93 42.1632Z" fill="#FCCB06"/>
<path d="M1281.67 88.2351L1287.32 85.9302C1287.5 85.8557 1287.65 85.7111 1287.72 85.5283C1287.8 85.3454 1287.8 85.1392 1287.72 84.955C1287.65 84.7708 1287.51 84.6238 1287.32 84.5462C1287.14 84.4686 1286.94 84.4668 1286.75 84.5413L1281.11 86.8463C1280.92 86.9207 1280.78 87.0653 1280.7 87.2482C1280.63 87.4311 1280.63 87.6373 1280.7 87.8215C1280.78 88.0056 1280.92 88.1527 1281.1 88.2303C1281.28 88.3079 1281.49 88.3096 1281.67 88.2351Z" fill="#FCCB06"/>
<path d="M1310.77 62.0103C1311.17 62.114 1311.57 62.1832 1311.97 62.2173C1312.42 62.2629 1312.84 62.374 1313.3 62.485C1314.18 62.6556 1315.09 62.7829 1316 62.9159C1316.21 62.9499 1316.73 62.4333 1316.4 62.3872C1315.54 62.2513 1314.69 62.1154 1313.82 61.9586C1313.4 61.8781 1313 61.7684 1312.58 61.7184C1312.16 61.6883 1311.74 61.621 1311.33 61.5172C1311.24 61.507 1311.16 61.5181 1311.08 61.5496C1311.01 61.581 1310.94 61.6317 1310.89 61.6969C1310.83 61.7222 1310.66 61.9773 1310.81 62.0268L1310.77 62.0103Z" fill="#FCCB06"/>
<path d="M1318.41 63.4639C1319.02 63.6036 1319.65 63.604 1320.27 63.6907C1320.89 63.7774 1321.58 63.8124 1322.23 63.9115C1322.32 63.919 1322.41 63.9009 1322.49 63.8594C1322.58 63.8178 1322.64 63.7544 1322.69 63.6762C1322.76 63.5577 1322.77 63.3532 1322.55 63.3428C1321.9 63.2368 1321.25 63.2016 1320.6 63.1122C1319.94 63.0229 1319.35 63.032 1318.73 62.8924C1318.44 62.8184 1317.98 63.3862 1318.37 63.478L1318.41 63.4639Z" fill="#FCCB06"/>
<path d="M1307.43 65.9304C1307.93 66.0951 1308.45 66.1832 1308.98 66.1918C1309.68 66.2949 1310.38 66.4286 1311.07 66.5276C1312.47 66.7233 1313.85 67.0383 1315.2 67.4693C1315.42 67.5408 1315.93 67.0311 1315.71 66.9666C1314.41 66.5385 1313.08 66.226 1311.73 66.0327C1311.05 65.9379 1310.36 65.7819 1309.69 65.712C1309.4 65.6686 1309.11 65.6182 1308.84 65.583C1308.54 65.5836 1308.24 65.5257 1307.97 65.4124C1307.76 65.3088 1307.23 65.8102 1307.45 65.922L1307.43 65.9304Z" fill="#FCCB06"/>
<path d="M1317.15 68.0614C1317.88 68.2103 1318.61 68.3029 1319.35 68.3384C1320.23 68.4701 1321.11 68.6725 1321.96 68.9435C1322.74 69.1743 1323.52 69.4176 1324.32 69.5997C1324.75 69.6982 1325.19 69.7703 1325.65 69.8674C1326 69.8912 1326.35 69.9439 1326.69 70.0248C1326.95 70.1157 1327.47 69.6033 1327.19 69.5041C1326.91 69.4176 1326.62 69.365 1326.33 69.3474C1325.92 69.3016 1325.52 69.2155 1325.12 69.1363C1324.24 68.9587 1323.34 68.7117 1322.51 68.4435C1321.73 68.2015 1320.93 68.0034 1320.13 67.85C1319.33 67.7935 1318.52 67.6934 1317.73 67.5502C1317.47 67.4857 1316.97 67.9995 1317.22 68.0737L1317.15 68.0614Z" fill="#FCCB06"/>
<path d="M1306.37 69.0695C1307.84 69.5871 1309.43 69.5464 1310.92 69.9748C1311 69.985 1311.09 69.9739 1311.16 69.9425C1311.24 69.911 1311.31 69.8603 1311.36 69.7952C1311.42 69.7699 1311.59 69.5078 1311.43 69.4583C1309.94 69.0298 1308.36 69.0913 1306.88 68.546C1306.65 68.4703 1306.13 68.98 1306.37 69.0626L1306.37 69.0695Z" fill="#FCCB06"/>
<path d="M1319.18 71.9561C1319.88 72.1236 1320.59 72.2547 1321.31 72.3488C1322.05 72.5227 1322.79 72.7592 1323.52 72.979C1325 73.4172 1326.51 73.8637 1328.01 74.1655C1328.35 74.2325 1328.77 73.6453 1328.37 73.5592C1326.84 73.2588 1325.34 72.8193 1323.87 72.3726C1323.16 72.1611 1322.45 71.9398 1321.73 71.7574C1321 71.5751 1320.25 71.589 1319.53 71.3497C1319.21 71.2438 1318.77 71.8199 1319.18 71.9533L1319.18 71.9561Z" fill="#FCCB06"/>
<path d="M1308.4 73.9385C1308.68 74.3575 1309.55 74.4197 1310 74.4931C1310.7 74.606 1311.38 74.7383 1312.08 74.8749C1313.54 75.1295 1315 75.3773 1316.44 75.7141C1317.88 76.051 1319.31 76.4212 1320.76 76.7455C1322.21 77.0698 1323.57 77.3137 1324.95 77.7496C1325.68 77.9792 1326.38 78.2742 1327.1 78.4899C1327.46 78.6024 1327.83 78.6889 1328.2 78.7487C1328.52 78.7757 1328.84 78.8793 1329.12 79.0513L1329.29 78.5138C1329.16 78.5782 1329.05 78.6841 1328.99 78.8154C1328.77 79.2515 1329.39 79.2812 1329.56 78.9551L1329.43 79.0085C1329.61 78.9355 1329.82 78.637 1329.59 78.4709C1329.13 78.219 1328.63 78.0664 1328.11 78.023C1327.48 77.8591 1326.86 77.657 1326.26 77.4178C1324.94 76.9499 1323.6 76.5838 1322.23 76.3228C1319.35 75.7631 1316.53 74.9293 1313.64 74.4351C1312.84 74.2976 1312.04 74.1628 1311.24 74.0044C1310.86 73.9307 1310.49 73.8806 1310.11 73.8C1309.73 73.7193 1309.16 73.7006 1308.99 73.4452C1308.83 73.1899 1308.2 73.6068 1308.38 73.9066L1308.4 73.9385Z" fill="#FCCB06"/>
<path d="M1317.17 80.7769C1319.24 81.1851 1321.35 81.4012 1323.46 81.6437C1324.46 81.761 1325.48 81.8087 1326.48 81.9497C1327.49 82.0906 1328.53 82.4192 1329.57 82.5697C1329.89 82.6186 1330.32 82.0286 1329.92 81.9661C1328.9 81.828 1327.93 81.5047 1326.92 81.3597C1325.9 81.2146 1324.85 81.1434 1323.8 81.0124C1321.7 80.8004 1319.59 80.5481 1317.51 80.1427C1317.19 80.0799 1316.75 80.6629 1317.16 80.7491L1317.17 80.7769Z" fill="#FCCB06"/>
<path d="M1340.91 64.6097C1342.36 64.9841 1343.72 65.5869 1345.21 65.9013C1345.51 65.9725 1345.96 65.4005 1345.56 65.3116C1344.11 64.9832 1342.72 64.3985 1341.27 64.02C1340.97 63.946 1340.52 64.511 1340.91 64.6097Z" fill="#FCCB06"/>
<path d="M1341.26 62.9416C1342.22 63.3206 1343.27 63.5058 1344.28 63.7845C1344.37 63.7981 1344.47 63.7833 1344.55 63.7421C1344.63 63.7008 1344.7 63.6349 1344.75 63.5532C1344.77 63.5218 1344.78 63.4859 1344.78 63.4485C1344.79 63.4111 1344.78 63.3734 1344.77 63.3386C1344.75 63.3038 1344.73 63.2729 1344.7 63.2486C1344.67 63.2243 1344.64 63.2073 1344.6 63.1991C1343.59 62.9163 1342.56 62.7198 1341.58 62.3521C1341.27 62.2405 1340.83 62.8097 1341.23 62.9556L1341.26 62.9416Z" fill="#FCCB06"/>
<path d="M1359.26 44.3321C1359.44 44.1506 1359.59 43.9381 1359.69 43.7046C1359.78 43.4901 1359.84 43.2631 1359.93 43.0486C1360.12 42.5568 1360.33 42.0734 1360.46 41.5527C1360.5 41.4051 1360.32 41.4711 1360.25 41.5061C1360.16 41.5471 1360.08 41.6019 1360.01 41.6684C1359.95 41.7136 1359.9 41.7759 1359.87 41.8484C1359.71 42.3261 1359.55 42.7899 1359.38 43.2732C1359.33 43.3902 1359.28 43.5003 1359.24 43.6214C1359.21 43.7176 1359.18 43.8116 1359.14 43.9028L1359.01 44.1842C1358.96 44.2626 1358.91 44.3348 1358.84 44.3991C1358.78 44.4243 1358.68 44.6278 1358.84 44.6105C1359 44.5608 1359.15 44.4641 1359.26 44.3321Z" fill="#FCCB06"/>
<path d="M1360.14 45.3034C1361.01 44.7285 1361.33 43.6187 1361.79 42.7282C1362.43 41.4836 1363.11 40.2515 1363.8 39.0373C1363.88 38.8993 1363.78 38.8037 1363.64 38.8195C1363.55 38.8366 1363.47 38.8739 1363.4 38.9287C1363.33 38.9834 1363.27 39.0542 1363.23 39.1355C1362.58 40.2659 1361.97 41.406 1361.35 42.5489C1361.12 42.9907 1360.92 43.4477 1360.71 43.8881C1360.55 44.3299 1360.27 44.721 1359.91 45.0233C1359.81 45.0654 1359.64 45.2802 1359.74 45.4023C1359.84 45.5243 1360.06 45.3913 1360.15 45.3312L1360.14 45.3034Z" fill="#FCCB06"/>
<path d="M1360.65 47.0679C1361.31 47.0099 1361.68 46.217 1362.05 45.7524C1362.66 44.9801 1363.23 44.1737 1363.76 43.3369C1364.65 41.8772 1365.63 40.0472 1367.28 39.3971C1367.42 39.3409 1367.64 39.201 1367.63 39.0258C1367.63 38.8505 1367.49 38.7926 1367.34 38.8544C1365.86 39.5636 1364.65 40.7303 1363.88 42.1847C1363.38 42.9307 1362.96 43.6695 1362.46 44.385C1362.17 44.795 1361.87 45.2078 1361.56 45.6096C1361.43 45.7867 1361.27 45.9556 1361.14 46.1397C1361.09 46.2067 1360.96 46.4951 1360.88 46.5051C1360.59 46.5257 1360.21 47.1169 1360.65 47.0749L1360.65 47.0679Z" fill="#FCCB06"/>
<path d="M1362.44 48.9807C1362.97 48.6139 1363.41 48.1307 1363.74 47.5668C1364.26 46.8694 1364.67 46.1501 1365.12 45.4237C1365.98 44.0215 1367.04 42.7555 1368.27 41.6661C1368.37 41.5864 1368.54 41.4091 1368.44 41.2662C1368.33 41.1234 1368.1 41.2494 1368.01 41.3262C1366.85 42.3321 1365.83 43.4894 1364.98 44.7677C1364.54 45.4245 1364.15 46.1117 1363.71 46.7754C1363.49 47.1268 1363.25 47.4671 1363 47.7963C1362.83 48.0831 1362.61 48.3329 1362.35 48.5303C1362.02 48.7054 1362 49.2076 1362.44 48.9807Z" fill="#FCCB06"/>
<path d="M1360.85 40.1452C1361.47 39.84 1361.95 39.3182 1362.2 38.6783C1362.34 38.3968 1362.45 38.107 1362.57 37.8214C1362.63 37.6849 1362.69 37.5484 1362.75 37.416C1362.81 37.305 1362.87 37.1999 1362.95 37.1023C1363.02 37.0005 1363.05 36.8182 1362.89 36.7951C1362.8 36.798 1362.71 36.822 1362.63 36.8653C1362.55 36.9086 1362.48 36.97 1362.43 37.0444C1362.14 37.5249 1361.9 38.0331 1361.71 38.5618C1361.61 38.8071 1361.49 39.0422 1361.34 39.2643L1361.29 39.334L1361.25 39.3509L1361.11 39.4974L1361.02 39.5339C1361.02 39.5339 1360.9 39.5817 1360.96 39.5564C1360.88 39.5823 1360.8 39.6292 1360.74 39.6928C1360.68 39.7564 1360.63 39.8348 1360.61 39.9208C1360.58 40.0864 1360.76 40.1177 1360.88 40.0672L1360.85 40.1452Z" fill="#FCCB06"/>
<path d="M1366.62 78.3331C1369.03 79.423 1371.37 80.6718 1373.83 81.6683C1375.06 82.1659 1376.28 82.6538 1377.5 83.1611C1378.67 83.6933 1379.89 84.1275 1381.13 84.4594C1381.35 84.5142 1381.83 84.0088 1381.65 83.9636C1380.44 83.6328 1379.26 83.206 1378.13 82.6873C1376.88 82.1577 1375.62 81.6672 1374.37 81.1572C1371.92 80.1648 1369.58 78.916 1367.16 77.822C1366.96 77.7392 1366.44 78.2308 1366.64 78.3246L1366.62 78.3331Z" fill="#FCCB06"/>
<path d="M1384.34 85.4483C1385.48 85.7918 1386.61 85.9934 1387.74 86.2855C1388.87 86.5776 1390.01 86.8266 1391.14 87.0477C1391.22 87.0528 1391.3 87.0395 1391.37 87.0089C1391.45 86.9783 1391.51 86.9311 1391.57 86.8708C1391.61 86.854 1391.81 86.5848 1391.66 86.5589C1390.51 86.3638 1389.37 86.1181 1388.24 85.8219C1387.11 85.5298 1385.97 85.2906 1384.84 84.9818C1384.62 84.92 1384.13 85.4282 1384.32 85.4873L1384.34 85.4483Z" fill="#FCCB06"/>
<path d="M1380.24 63.8025C1380.9 64.0245 1381.57 64.2037 1382.24 64.3389C1382.95 64.506 1383.66 64.6439 1384.36 64.8277C1385.8 65.1882 1387.23 65.5514 1388.66 65.9509C1388.94 66.0375 1389.4 65.4836 1389.02 65.3723C1387.64 64.9824 1386.25 64.6259 1384.86 64.2764C1384.17 64.1037 1383.48 63.9546 1382.8 63.8055C1382.46 63.7247 1382.12 63.6439 1381.78 63.5464C1381.43 63.4694 1381.08 63.3741 1380.74 63.261C1380.45 63.1577 1379.93 63.6868 1380.24 63.8025Z" fill="#FCCB06"/>
<path d="M1391.02 66.4137C1392.73 66.5929 1394.43 66.8722 1396.1 67.2504C1396.31 67.2843 1396.82 66.7775 1396.5 66.7217C1394.83 66.3396 1393.13 66.0547 1391.43 65.8684C1391.34 65.8774 1391.25 65.9055 1391.18 65.9509C1391.1 65.9963 1391.03 66.0579 1390.98 66.1315C1390.92 66.2138 1390.85 66.3894 1391.02 66.3999L1391.02 66.4137Z" fill="#FCCB06"/>
<path d="M1382.35 60.4173C1384.73 60.9774 1387.16 61.3564 1389.56 61.8441C1391.96 62.3318 1394.45 62.8942 1396.88 63.4152C1397.09 63.4617 1397.51 62.9747 1397.42 62.9305C1394.98 62.4096 1392.54 61.8678 1390.09 61.3595C1387.64 60.8511 1385.27 60.4927 1382.89 59.9326C1382.69 59.8833 1382.26 60.3731 1382.35 60.4173Z" fill="#FCCB06"/>
<path d="M1365.11 73.679C1365.17 74.1002 1366.07 74.3236 1366.41 74.4684C1367.12 74.7634 1367.85 75.0501 1368.56 75.3158L1373.16 77.0473C1376.18 78.1943 1379.21 79.3371 1382.24 80.4757C1382.44 80.5487 1382.95 80.0488 1382.76 79.98C1379.85 78.8933 1376.94 77.7871 1374.03 76.6838L1369.69 75.0502C1368.99 74.7857 1368.29 74.5115 1367.59 74.2373C1367.26 74.1064 1366.94 73.9796 1366.62 73.8236C1366.31 73.6675 1365.77 73.5304 1365.73 73.2886C1365.69 73.0467 1365.08 73.4551 1365.12 73.6664L1365.11 73.679Z" fill="#FCCB06"/>
<path d="M1374.95 73.4404C1375.46 73.8065 1376.04 74.0384 1376.66 74.1142C1377.42 74.2797 1378.18 74.4952 1378.94 74.7067L1384.24 76.206C1385.94 76.692 1387.67 77.0959 1389.39 77.5361C1391.11 77.9762 1392.83 78.433 1394.57 78.7534C1394.76 78.7958 1395.19 78.2991 1395.1 78.2757C1393.37 77.9622 1391.69 77.5122 1390.02 77.1095C1388.35 76.7067 1386.62 76.2458 1384.94 75.7986C1383.25 75.3514 1381.52 74.8334 1379.82 74.3542C1379.03 74.1263 1378.24 73.8816 1377.44 73.7065C1376.76 73.6302 1376.11 73.3892 1375.55 73.0042C1375.4 72.8753 1374.89 73.3613 1374.93 73.4655L1374.95 73.4404Z" fill="#FCCB06"/>
<path d="M1377.5 70.2297C1381.08 70.8118 1384.64 71.5538 1388.16 72.4602C1388.44 72.5371 1388.91 71.9831 1388.52 71.8816C1385.01 70.9752 1381.43 70.2388 1377.87 69.6511C1377.57 69.6007 1377.12 70.1685 1377.5 70.2297Z" fill="#FCCB06"/>
<path d="M1391.75 73.543C1392.6 73.583 1393.45 73.6891 1394.29 73.8604C1395.13 74.0925 1395.98 74.2641 1396.84 74.374C1396.93 74.3699 1397.02 74.3446 1397.1 74.3C1397.17 74.2555 1397.24 74.1931 1397.29 74.1177C1397.36 74.0257 1397.4 73.8211 1397.22 73.8134C1396.36 73.71 1395.51 73.5397 1394.68 73.304C1393.84 73.1325 1392.99 73.0241 1392.14 72.9796C1392.05 72.982 1391.96 73.0056 1391.89 73.0485C1391.81 73.0913 1391.74 73.1522 1391.69 73.226C1391.63 73.325 1391.58 73.5227 1391.76 73.5402L1391.75 73.543Z" fill="#FCCB06"/>
<path d="M1382.72 67.8748C1384.32 68.035 1385.89 68.3946 1387.4 68.9452C1389.16 69.4658 1390.93 69.9364 1392.67 70.553C1392.94 70.6452 1393.45 70.1287 1393.17 70.0323C1391.44 69.4337 1389.69 68.9436 1387.93 68.4299C1386.37 67.8583 1384.74 67.4853 1383.09 67.3198C1383 67.3182 1382.91 67.3401 1382.83 67.3833C1382.75 67.4265 1382.69 67.4896 1382.64 67.5663C1382.58 67.6625 1382.53 67.8727 1382.71 67.8776L1382.72 67.8748Z" fill="#FCCB06"/>
<path d="M1386.04 81.0249C1387.18 81.3049 1388.34 81.4679 1389.51 81.5114C1389.6 81.506 1389.69 81.4804 1389.76 81.4364C1389.84 81.3925 1389.91 81.3315 1389.96 81.258C1390.02 81.1659 1390.08 80.989 1389.91 80.9758C1388.78 80.9335 1387.65 80.777 1386.55 80.5083C1386.47 80.4981 1386.39 80.5093 1386.31 80.5407C1386.23 80.5721 1386.16 80.6228 1386.11 80.688C1386.05 80.7133 1385.88 80.9782 1386.04 81.0249Z" fill="#FCCB06"/>
<path d="M1333.6 169.123C1336.66 169.496 1339.56 170.541 1342.53 171.322C1342.71 171.377 1343.15 170.882 1343.06 170.845C1340.11 170.057 1337.2 168.991 1334.14 168.645C1334 168.631 1333.82 168.774 1333.73 168.861C1333.64 168.948 1333.49 169.114 1333.6 169.123Z" fill="#FCCB06"/>
<path d="M1346.3 172.624C1347.72 172.694 1349.12 172.937 1350.48 173.346C1352.23 173.701 1353.97 174.19 1355.72 174.612C1356.05 174.688 1356.47 174.101 1356.06 174.001C1354.29 173.576 1352.48 173.082 1350.73 172.72C1349.34 172.475 1347.93 171.952 1346.49 172.018C1346.15 172.035 1345.85 172.662 1346.3 172.638L1346.3 172.624Z" fill="#FCCB06"/>
<path d="M1339.89 164.955C1341.05 165.82 1342.65 165.683 1344.02 165.944C1344.48 166.061 1344.94 166.204 1345.39 166.373L1346.77 166.789C1347.76 167.09 1348.75 167.384 1349.72 167.714C1349.91 167.776 1350.4 167.275 1350.25 167.223C1349.32 166.913 1348.4 166.625 1347.48 166.336L1346.09 165.915C1345.62 165.767 1345.15 165.571 1344.68 165.456C1343.31 165.139 1341.72 165.35 1340.52 164.488C1340.34 164.359 1339.82 164.869 1339.9 164.949L1339.89 164.955Z" fill="#FCCB06"/>
<path d="M1333.07 173.317C1333.01 173.648 1334.33 173.895 1334.54 173.942C1334.86 174.026 1335.18 174.089 1335.51 174.13C1336.06 174.245 1336.59 174.419 1337.11 174.651C1339.97 175.677 1342.86 176.678 1345.71 177.769C1347.3 178.38 1348.89 179.031 1350.43 179.786C1350.58 179.855 1351.07 179.38 1350.96 179.301C1347.53 177.743 1344.03 176.37 1340.46 175.188L1337.71 174.212C1337.12 173.96 1336.5 173.771 1335.87 173.649C1335.62 173.622 1333.58 173.254 1333.63 172.942C1333.65 172.87 1333.07 173.125 1333.03 173.327L1333.07 173.317Z" fill="#FCCB06"/>
<path d="M1332.59 178.092C1334.58 178.748 1336.7 178.845 1338.74 179.182C1340.88 179.59 1342.97 180.246 1344.97 181.136C1345.19 181.231 1345.71 180.725 1345.48 180.626C1343.55 179.77 1341.53 179.127 1339.46 178.707C1337.35 178.305 1335.16 178.261 1333.1 177.585C1332.87 177.51 1332.36 178.017 1332.59 178.092Z" fill="#FCCB06"/>
<path d="M1331.3 157.482C1333.21 158.344 1335.19 159.006 1337.22 159.457C1338.26 159.729 1339.27 160.195 1340.3 160.536C1341.33 160.878 1342.55 161.235 1343.69 161.648C1343.9 161.729 1344.42 161.219 1344.2 161.138C1343.09 160.781 1341.96 160.434 1340.81 160.034C1339.67 159.633 1338.79 159.24 1337.74 158.948C1335.7 158.501 1333.72 157.842 1331.81 156.982C1331.6 156.881 1331.07 157.376 1331.3 157.485L1331.3 157.482Z" fill="#FCCB06"/>
<path d="M1331.59 160.946C1335.02 161.61 1338.28 162.973 1341.66 163.802C1341.85 163.847 1342.28 163.354 1342.2 163.324C1338.81 162.495 1335.57 161.167 1332.13 160.468C1331.93 160.426 1331.51 160.922 1331.59 160.946Z" fill="#FCCB06"/>
<path d="M1333.01 155.656C1335.68 156.636 1338.41 157.475 1341.16 158.17C1341.37 158.223 1341.85 157.718 1341.68 157.674C1338.93 156.977 1336.21 156.138 1333.53 155.16C1333.33 155.087 1332.82 155.587 1333.01 155.656Z" fill="#FCCB06"/>
<path d="M1428.19 164.66C1429.73 165.949 1431.37 167.104 1433.11 168.114C1434.9 169.207 1436.67 170.342 1438.4 171.517C1440.15 172.709 1441.89 173.919 1443.65 175.048C1444.49 175.602 1445.34 176.191 1446.23 176.662C1447.12 177.133 1447.78 177.414 1448.55 177.778C1450.34 178.61 1452.13 179.519 1453.38 181.097C1453.54 181.298 1454.14 180.845 1454 180.636C1452.89 179.367 1451.52 178.359 1449.99 177.685C1448.35 176.942 1446.75 176.107 1445.2 175.185C1441.64 172.928 1438.26 170.384 1434.64 168.153C1432.58 166.986 1430.61 165.643 1428.78 164.136C1428.57 163.962 1428.02 164.448 1428.16 164.598L1428.19 164.66Z" fill="#FCCB06"/>
<path d="M1430.16 172.7C1434.63 175.412 1439.04 178.221 1443.66 180.68C1443.96 180.839 1444.49 180.34 1444.15 180.131C1439.53 177.675 1435.11 174.86 1430.65 172.154C1430.35 171.976 1429.83 172.488 1430.16 172.7Z" fill="#FCCB06"/>
<path d="M1440.34 166.515C1445.04 169.074 1449.57 171.958 1453.88 175.147C1454.1 175.316 1454.65 174.833 1454.38 174.619C1450.07 171.428 1445.54 168.544 1440.83 165.987C1440.59 165.843 1440.05 166.348 1440.34 166.515Z" fill="#FCCB06"/>
<path d="M1425.12 84.8916C1428.01 85.963 1431.04 86.632 1433.89 87.8344C1434.21 87.9639 1434.63 87.3865 1434.23 87.2238C1431.38 86.0215 1428.36 85.3525 1425.46 84.2839C1425.14 84.164 1424.71 84.7415 1425.12 84.8916Z" fill="#FCCB06"/>
<path d="M1423.5 81.6477C1427.8 82.8419 1431.98 84.4594 1436.27 85.6564C1436.52 85.7264 1437.02 85.2057 1436.78 85.1398C1432.48 83.9456 1428.31 82.3281 1424.02 81.1283C1423.78 81.0652 1423.27 81.5818 1423.51 81.6449L1423.5 81.6477Z" fill="#FCCB06"/>
<path d="M1422.12 77.2216C1422.81 78.1802 1424.18 78.3337 1425.21 78.7152C1426.79 79.3019 1428.4 79.7939 1430 80.3249C1430.85 80.6082 1431.73 80.8665 1432.56 81.2084C1433.15 81.4538 1433.73 81.7257 1434.32 81.9641C1435.6 82.5548 1436.98 82.8628 1438.38 82.8671C1438.69 82.8548 1439.05 82.2554 1438.6 82.2765C1437.19 82.26 1435.81 81.9347 1434.54 81.3234C1433.22 80.7706 1431.9 80.2552 1430.53 79.8027C1428.92 79.2676 1427.29 78.7812 1425.7 78.1834C1424.75 77.8114 1423.36 77.6802 1422.71 76.7687C1422.53 76.5051 1421.94 76.9483 1422.1 77.23L1422.12 77.2216Z" fill="#FCCB06"/>
<path d="M1425.8 74.0228C1431.5 75.9769 1437.06 78.3404 1442.89 79.8655C1443.18 79.9424 1443.64 79.3884 1443.26 79.2869C1437.43 77.7687 1431.86 75.3983 1426.17 73.4442C1425.89 73.3479 1425.42 73.8949 1425.8 74.0228Z" fill="#FCCB06"/>
<path d="M1427.79 69.7642C1429.04 70.3348 1430.34 70.7832 1431.68 71.1032C1433.13 71.5624 1434.6 72.0327 1436.05 72.5586C1437.5 73.0846 1438.72 73.5349 1440.09 73.9472C1441.53 74.3544 1442.95 74.8357 1444.34 75.3891C1444.51 75.4636 1445.02 74.9665 1444.87 74.9045C1443.48 74.351 1442.06 73.8697 1440.62 73.4625C1439.25 73.0503 1437.93 72.5517 1436.58 72.074C1435.23 71.5963 1433.67 71.0986 1432.21 70.6186C1430.87 70.2986 1429.57 69.8502 1428.32 69.2796C1428.17 69.1967 1427.64 69.6813 1427.79 69.7642Z" fill="#FCCB06"/>
<path d="M1415.25 69.0447C1416.94 69.786 1418.68 70.4316 1420.44 70.9784C1422.15 71.7341 1423.92 72.3671 1425.72 72.8727C1425.96 72.9219 1426.45 72.4138 1426.24 72.3701C1424.44 71.8618 1422.67 71.2288 1420.96 70.4757C1419.19 69.9236 1417.46 69.2782 1415.77 68.542C1415.56 68.4315 1415.02 68.9356 1415.25 69.0447Z" fill="#FCCB06"/>
<path d="M1416.24 65.9694C1419.64 67.907 1423.46 68.8915 1427.12 70.1326C1427.43 70.2344 1427.87 69.6652 1427.48 69.5262C1423.85 68.3086 1420.08 67.3378 1416.73 65.4307C1416.44 65.2662 1415.91 65.7647 1416.24 65.9694Z" fill="#FCCB06"/>
<path d="M1417.97 64.6543C1421.17 65.203 1424.18 66.4882 1427.21 67.6245C1427.53 67.7513 1427.96 67.1641 1427.55 67.014C1424.53 65.8749 1421.53 64.6133 1418.32 64.0438C1417.98 63.9866 1417.56 64.5779 1417.97 64.6543Z" fill="#FCCB06"/>
<path d="M1419.07 36.4227C1420.15 37.6202 1421.4 38.6461 1422.79 39.4648C1423.02 39.6212 1423.57 39.1448 1423.28 38.9302C1421.94 38.1318 1420.72 37.1326 1419.67 35.967C1419.48 35.727 1418.89 36.1799 1419.05 36.4283L1419.07 36.4227Z" fill="#FCCB06"/>
<path d="M1420.66 34.2682C1422.65 35.5767 1424.14 37.4559 1425.9 39.0282C1426.17 39.2539 1426.74 38.7928 1426.52 38.5669C1424.72 36.9683 1423.2 35.06 1421.17 33.7183C1420.9 33.5454 1420.37 34.0467 1420.68 34.2598L1420.66 34.2682Z" fill="#FCCB06"/>
<path d="M1420.99 31.2957C1421.22 31.7227 1421.56 32.078 1421.98 32.3227C1422.51 32.7172 1423.01 33.1368 1423.52 33.5341C1424.54 34.3483 1425.57 35.129 1426.61 35.968C1428.64 37.5685 1430.64 39.2567 1432.54 41.0412C1432.79 41.2726 1433.36 40.8114 1433.15 40.5799C1431.35 38.884 1429.47 37.2858 1427.54 35.7434C1426.57 34.9708 1425.6 34.2108 1424.62 33.4438L1423.09 32.2366C1422.53 31.9179 1422.04 31.4813 1421.66 30.9566C1421.52 30.6163 1420.88 31.0082 1420.99 31.2929L1420.99 31.2957Z" fill="#FCCB06"/>
<path d="M1418.86 25.0425C1419.16 25.6019 1419.6 26.0721 1420.13 26.4037C1420.75 26.86 1421.35 27.3471 1421.92 27.8632L1425.41 30.934C1426.54 31.9244 1427.56 33.0278 1428.64 34.0615C1429.72 35.0952 1430.96 36.2659 1432.13 37.3535C1432.34 37.5586 1432.91 37.0836 1432.74 36.8922C1431.59 35.8018 1430.42 34.7073 1429.27 33.6043C1428.12 32.5014 1427.15 31.4631 1426.03 30.4699L1422.53 27.3782C1422.01 26.8896 1421.47 26.4331 1420.9 26.0114C1420.31 25.6601 1419.82 25.1517 1419.49 24.5422C1419.4 24.3061 1418.77 24.7326 1418.88 25.0035L1418.86 25.0425Z" fill="#FCCB06"/>
<path d="M1424.78 25.3273C1425.07 25.8062 1425.44 26.2271 1425.89 26.5682C1426.3 26.9644 1426.74 27.3453 1427.16 27.7249C1428.06 28.4852 1428.97 29.2302 1429.83 30.031C1430.68 30.8318 1431.5 31.7037 1432.38 32.503C1433.26 33.3023 1434.17 34.0738 1435.1 34.8298C1435.29 34.9793 1435.83 34.4849 1435.71 34.3685C1434.81 33.6559 1433.93 32.9011 1433.06 32.1041C1432.16 31.2826 1431.32 30.3857 1430.43 29.5753C1429.53 28.7649 1428.7 28.0697 1427.82 27.3246C1427.39 26.9507 1426.95 26.5698 1426.55 26.1748C1426.08 25.817 1425.69 25.3751 1425.38 24.8716C1425.31 24.705 1424.67 25.1107 1424.76 25.3329L1424.78 25.3273Z" fill="#FCCB06"/>
<path d="M1428.14 23.7275C1429.75 25.2808 1431.71 26.4086 1433.39 27.8768C1433.56 28.0209 1434.1 27.5306 1434.01 27.4155C1432.33 25.9445 1430.38 24.8445 1428.75 23.2662C1428.6 23.1166 1428.08 23.5887 1428.14 23.7275Z" fill="#FCCB06"/>
<path d="M1362.46 134.924C1364.62 135.503 1366.71 136.292 1368.72 137.279C1368.96 137.382 1369.49 136.874 1369.22 136.758C1367.18 135.757 1365.04 134.956 1362.85 134.367C1362.6 134.317 1362.11 134.848 1362.46 134.924Z" fill="#FCCB06"/>
<path d="M1361.14 130.073C1362.89 130.414 1364.46 131.4 1366.04 132.238C1367.73 133.17 1369.55 133.779 1371.25 134.674C1371.47 134.8 1372.01 134.296 1371.75 134.16C1370.02 133.246 1368.16 132.613 1366.44 131.662C1364.93 130.691 1363.28 129.967 1361.55 129.518C1361.31 129.471 1360.81 129.999 1361.16 130.067L1361.14 130.073Z" fill="#FCCB06"/>
<path d="M1359.22 123.346C1360.13 124.155 1361.15 124.83 1362.25 125.349C1363.42 125.964 1364.61 126.563 1365.78 127.197C1366.44 127.552 1367.08 127.92 1367.72 128.307C1368.36 128.694 1368.75 129.004 1369.3 129.283C1370.52 129.811 1371.7 130.411 1372.84 131.078C1373.02 131.2 1373.49 130.707 1373.46 130.624C1372.41 129.992 1371.32 129.438 1370.19 128.968C1368.96 128.376 1367.84 127.5 1366.65 126.881C1365.47 126.262 1364.3 125.648 1363.13 125.03C1361.94 124.482 1360.84 123.767 1359.85 122.907C1359.71 122.771 1359.19 123.243 1359.24 123.368L1359.22 123.346Z" fill="#FCCB06"/>
<path d="M1368.75 122.154C1369.81 123.124 1371.03 123.908 1372.35 124.475C1372.96 124.799 1373.57 125.137 1374.17 125.474C1374.77 125.811 1375.45 126.279 1376.15 126.586C1376.32 126.661 1376.84 126.165 1376.68 126.095C1376.03 125.776 1375.41 125.424 1374.8 125.04C1374.2 124.693 1373.59 124.366 1372.98 124.041C1371.64 123.469 1370.42 122.678 1369.34 121.701C1369.2 121.563 1368.65 121.982 1368.73 122.163L1368.75 122.154Z" fill="#FCCB06"/>
<path d="M1358.07 112.352C1358.22 112.631 1358.47 112.841 1358.77 112.939C1358.92 112.991 1359.08 113.033 1359.24 113.064C1359.43 113.131 1359.61 113.217 1359.78 113.322C1360.41 113.661 1361.07 113.958 1361.75 114.212C1362.11 114.355 1362.51 114.441 1362.87 114.614C1363.22 114.787 1363.55 114.981 1363.89 115.167C1364.61 115.517 1365.3 115.927 1365.95 116.393C1366.2 116.581 1366.74 116.073 1366.44 115.854C1365.82 115.411 1365.17 115.018 1364.49 114.68C1364.14 114.498 1363.8 114.323 1363.46 114.135C1363.13 113.977 1362.78 113.848 1362.42 113.749C1361.76 113.516 1361.11 113.24 1360.48 112.922C1360.18 112.736 1359.85 112.597 1359.51 112.508C1359.34 112.488 1359.17 112.428 1359.02 112.331C1358.88 112.235 1358.75 112.105 1358.67 111.953C1358.54 111.655 1357.92 112.095 1358.05 112.415L1358.07 112.352Z" fill="#FCCB06"/>
<path d="M1358.66 118.672C1360.22 119.277 1361.71 120.022 1363.13 120.897C1363.35 121.005 1363.88 120.511 1363.65 120.388C1362.23 119.512 1360.73 118.767 1359.18 118.162C1359.03 118.11 1358.85 118.24 1358.74 118.342C1358.63 118.444 1358.51 118.619 1358.66 118.672Z" fill="#FCCB06"/>
<path d="M1361.52 108.242C1362.04 108.821 1362.69 109.254 1363.43 109.497C1364.26 109.863 1365.06 110.249 1365.87 110.647C1368.06 111.715 1370.23 112.803 1372.36 113.994C1372.62 114.139 1373.17 113.663 1372.85 113.46C1370.78 112.306 1368.67 111.24 1366.54 110.196C1365.75 109.814 1364.98 109.416 1364.17 109.073C1363.39 108.835 1362.68 108.395 1362.12 107.796C1361.93 107.547 1361.34 107.993 1361.5 108.258L1361.52 108.242Z" fill="#FCCB06"/>
<path d="M1370.84 118.447C1372.69 119.771 1374.7 120.841 1376.82 121.629C1376.9 121.662 1376.99 121.667 1377.08 121.643C1377.17 121.62 1377.24 121.57 1377.3 121.499C1377.38 121.409 1377.48 121.151 1377.3 121.077C1375.18 120.295 1373.17 119.225 1371.33 117.898C1371.06 117.685 1370.55 118.218 1370.84 118.447Z" fill="#FCCB06"/>
<path d="M1365.49 107.073C1365.76 107.605 1366.71 107.879 1367.2 108.084C1367.9 108.374 1368.62 108.607 1369.3 108.846C1372 109.963 1374.62 111.241 1377.16 112.673C1377.42 112.811 1377.95 112.303 1377.66 112.145C1375.13 110.724 1372.52 109.451 1369.84 108.335C1369.2 108.072 1368.53 107.857 1367.88 107.604C1367.49 107.441 1367.09 107.272 1366.7 107.073C1366.45 106.978 1366.23 106.808 1366.07 106.585C1365.97 106.329 1365.34 106.755 1365.46 107.047L1365.49 107.073Z" fill="#FCCB06"/>
<path d="M1308.52 124.503C1309.83 124.897 1311.09 125.445 1312.41 125.839C1312.53 125.879 1312.74 125.704 1312.81 125.616C1312.89 125.528 1313.05 125.397 1312.94 125.361C1311.63 124.964 1310.37 124.419 1309.06 124.022C1308.93 123.985 1308.73 124.157 1308.65 124.238C1308.57 124.319 1308.4 124.467 1308.52 124.503Z" fill="#FCCB06"/>
<path d="M1302.67 117.913C1306.69 119.471 1310.41 121.68 1314.31 123.507C1314.53 123.605 1315.06 123.104 1314.83 122.998C1310.93 121.171 1307.21 118.962 1303.2 117.398C1302.98 117.309 1302.45 117.815 1302.69 117.907L1302.67 117.913Z" fill="#FCCB06"/>
<path d="M1304.47 114.21C1305.45 115.172 1306.93 115.418 1308.15 115.949C1309.77 116.65 1311.37 117.389 1312.97 118.112C1314.57 118.835 1316.06 119.501 1317.59 120.276C1319.07 121.026 1320.62 121.644 1322.2 122.123C1322.42 122.188 1322.92 121.677 1322.73 121.624C1321.19 121.16 1319.7 120.568 1318.26 119.852C1316.74 119.109 1315.21 118.416 1313.67 117.722C1312.14 117.028 1310.51 116.28 1308.93 115.605C1308.27 115.317 1307.6 115.079 1306.92 114.806C1306.24 114.605 1305.61 114.259 1305.08 113.792C1304.91 113.624 1304.34 114.092 1304.46 114.253L1304.47 114.21Z" fill="#FCCB06"/>
<path d="M1303.69 110.578C1307.81 112.809 1312.56 113.441 1316.78 115.355C1317.04 115.469 1317.57 114.961 1317.28 114.834C1313.04 112.848 1308.32 112.238 1304.2 110.014C1303.95 109.88 1303.42 110.391 1303.69 110.538L1303.69 110.578Z" fill="#FCCB06"/>
<path d="M1303.89 108.877C1305.48 109.539 1307.21 109.523 1308.91 109.746C1308.99 109.749 1309.07 109.735 1309.14 109.704C1309.22 109.674 1309.29 109.628 1309.34 109.569C1309.38 109.555 1309.58 109.286 1309.43 109.264C1307.74 109.041 1306 109.046 1304.4 108.401C1304.2 108.311 1303.68 108.817 1303.88 108.897L1303.89 108.877Z" fill="#FCCB06"/>
<path d="M1338.46 130.912C1338.63 131.25 1338.89 131.539 1339.2 131.753C1339.6 132.051 1340.02 132.312 1340.46 132.533C1341.27 132.95 1342.11 133.273 1342.94 133.628C1343.16 133.723 1343.69 133.218 1343.45 133.119C1342.64 132.771 1341.82 132.45 1341.03 132.051C1340.6 131.838 1340.18 131.587 1339.79 131.3C1339.48 131.09 1339.22 130.8 1339.05 130.459C1338.98 130.264 1338.34 130.67 1338.44 130.92L1338.46 130.912Z" fill="#FCCB06"/>
<path d="M1335.85 126.615C1336.04 126.898 1336.29 127.126 1336.59 127.276C1337.02 127.561 1337.46 127.814 1337.92 128.03C1338.83 128.469 1339.79 128.831 1340.66 129.341C1342.56 130.461 1344.47 131.595 1346.38 132.681C1346.65 132.837 1347.19 132.35 1346.87 132.146C1345 131.063 1343.14 129.97 1341.29 128.868C1340.44 128.397 1339.57 127.971 1338.68 127.591C1338.25 127.393 1337.83 127.17 1337.42 126.922C1337.03 126.746 1336.69 126.472 1336.43 126.127C1336.31 125.843 1335.69 126.276 1335.82 126.589L1335.85 126.615Z" fill="#FCCB06"/>
<path d="M1339.54 125.794C1341.87 127.449 1344.62 128.418 1347.01 129.937C1347.2 130.049 1347.75 129.572 1347.53 129.441C1345.11 127.934 1342.39 126.953 1340.06 125.298C1339.89 125.181 1339.32 125.646 1339.54 125.794Z" fill="#FCCB06"/>
<path d="M17.6867 1019.73L17.6867 1019.73C17.717 1020.39 17.7144 1021.24 17.5424 1022C17.3685 1022.78 17.0451 1023.37 16.5158 1023.65C16.0287 1023.92 15.5933 1023.94 15.1914 1023.84C14.7738 1023.73 14.3586 1023.47 13.9544 1023.09C13.1401 1022.33 12.4836 1021.21 12.0428 1020.42C11.5674 1019.57 11.4105 1018.64 11.6053 1017.86C11.7945 1017.11 12.3276 1016.44 13.3618 1016.07L13.3623 1016.07C14.7431 1015.57 15.7578 1015.93 16.4636 1016.65C17.2001 1017.4 17.6337 1018.58 17.6867 1019.73Z" stroke="#FCCB06"/>
<path d="M3.34158 991.636C5.57919 996.18 3.74233 1001.69 -0.753272 1003.95C-5.24888 1006.2 -10.7094 1004.35 -12.947 999.809C-15.1846 995.265 -13.3477 989.755 -8.85211 987.499C-4.35652 985.244 1.10396 987.092 3.34158 991.636Z" stroke="#FCCB06"/>
<path d="M140.482 1044.2C141.873 1047.02 140.728 1050.44 137.946 1051.83C135.165 1053.23 131.776 1052.09 130.385 1049.26C128.993 1046.44 130.139 1043.02 132.92 1041.63C135.701 1040.23 139.09 1041.37 140.482 1044.2Z" stroke="#FCCB06" stroke-width="3"/>
<path d="M23.6592 1050.18C21.8325 1050.69 19.9325 1051.17 18.1516 1051.56C20.9677 1049.26 24.3625 1046.24 26.948 1043.88L29.1654 1041.85L26.1742 1042.14L9.12504 1043.75C12.1008 1042.45 14.9924 1041.21 17.7947 1040.01C30.0547 1034.76 40.6062 1030.23 49.0212 1024.88L54.4812 1035.23C49.1815 1042.7 38.981 1049.79 27.7108 1055.45C27.9506 1055.22 28.1893 1054.99 28.4251 1054.76C29.4499 1053.76 30.4384 1052.71 31.2449 1051.67C32.0432 1050.64 32.7096 1049.55 33.0271 1048.48L33.7191 1046.13L31.5869 1047.31C30.0427 1048.15 27.0295 1049.22 23.6592 1050.18Z" stroke="#FCCB06" stroke-width="2"/>
<mask id="path-128-inside-1_5_458" fill="white">
<path d="M51.6806 1024.67C44.6391 1029.87 35.1635 1034.06 23.6461 1040.09L37.4439 1038C35.1015 1040.33 31.7405 1043.58 30.014 1044.89C33.2488 1044.23 38.7154 1042.34 40.7256 1041.07C39.9909 1043.42 36.2446 1046.63 34.4658 1048.46C42.8389 1044.1 51.0606 1038.2 55.0288 1032.1L51.6713 1024.66"/>
</mask>
<path d="M23.6461 1040.09L22.7147 1038.31L23.9567 1042.07L23.6461 1040.09ZM37.4439 1038L38.8548 1039.42L43.1955 1035.09L37.1333 1036.02L37.4439 1038ZM30.014 1044.89L28.8047 1043.29L30.4217 1046.85L30.014 1044.89ZM40.7256 1041.07L42.6301 1041.68L44.261 1036.47L39.6569 1039.37L40.7256 1041.07ZM34.4658 1048.46L33.0345 1047.06L35.3939 1050.24L34.4658 1048.46ZM55.0288 1032.1L56.7018 1033.2L57.2989 1032.28L56.8456 1031.28L55.0288 1032.1ZM50.4916 1023.05C43.6136 1028.13 34.4138 1032.19 22.7147 1038.31L24.5775 1041.87C35.9133 1035.94 45.6646 1031.61 52.8696 1026.29L50.4916 1023.05ZM23.9567 1042.07L37.7545 1039.98L37.1333 1036.02L23.3355 1038.11L23.9567 1042.07ZM36.0329 1036.57C33.6636 1038.93 30.4029 1042.07 28.8047 1043.29L31.2233 1046.49C33.0782 1045.08 36.5395 1041.73 38.8548 1039.42L36.0329 1036.57ZM30.4217 1046.85C32.1583 1046.5 34.4264 1045.83 36.5014 1045.1C38.536 1044.38 40.5874 1043.53 41.7943 1042.77L39.6569 1039.37C38.8536 1039.88 37.1667 1040.61 35.1567 1041.32C33.1871 1042.01 31.1046 1042.62 29.6063 1042.92L30.4217 1046.85ZM38.8211 1040.46C38.7318 1040.74 38.5036 1041.18 38.0757 1041.77C37.6616 1042.33 37.1307 1042.95 36.5341 1043.58C35.9403 1044.21 35.3084 1044.83 34.6989 1045.42C34.1046 1046 33.5047 1046.57 33.0345 1047.06L35.8971 1049.87C36.3163 1049.44 36.8517 1048.92 37.4831 1048.31C38.0993 1047.71 38.7834 1047.04 39.4403 1046.34C40.0945 1045.65 40.749 1044.9 41.2997 1044.15C41.8364 1043.42 42.352 1042.57 42.6301 1041.68L38.8211 1040.46ZM35.3939 1050.24C43.8496 1045.83 52.4476 1039.74 56.7018 1033.2L53.3557 1030.99C49.6736 1036.65 41.8282 1042.36 33.5377 1046.68L35.3939 1050.24ZM56.8456 1031.28L53.4882 1023.84L49.8545 1025.48L53.2119 1032.91L56.8456 1031.28Z" fill="#FCCB06" mask="url(#path-128-inside-1_5_458)"/>
<path d="M69.9625 993.871L56.3555 974.298C58.2971 973.229 60.7135 972.957 63.5899 973.182C66.5773 973.415 69.9081 974.167 73.513 974.981C73.8988 975.068 74.2878 975.156 74.6798 975.244C80.7644 976.61 87.5359 978.008 94.0826 976.923L69.9625 993.871Z" stroke="#FCCB06" stroke-width="2"/>
<path d="M92.8609 1026.99L117.01 1010.02C113.743 1015.83 112.72 1022.71 111.903 1028.93C111.851 1029.34 111.799 1029.74 111.748 1030.13C111.269 1033.82 110.826 1037.23 110.016 1040.13C109.237 1042.93 108.151 1045.12 106.485 1046.59L92.8609 1026.99Z" stroke="#FCCB06" stroke-width="2"/>
<path d="M135.96 982.196L126.527 968.623L142.222 967.694L135.96 982.196Z" stroke="#FCCB06" stroke-width="2"/>
<path d="M124.196 968.877L135.037 984.473C124.617 1010.31 97.7587 1029.3 69.747 1036.13L53.4927 1012.77C71.2879 986.719 94.4007 971.287 124.196 968.877Z" fill="white" stroke="#FCCB06" stroke-width="2"/>
<path d="M61.7963 1045.4L42.2101 1017.22L51.8814 1014.07L68.0707 1037.33L61.7963 1045.4Z" stroke="#FCCB06" stroke-width="2"/>
<path d="M120.854 991.263C119.935 996.628 114.867 1000.2 109.54 999.257C104.214 998.311 100.634 993.199 101.552 987.835C102.471 982.47 107.539 978.895 112.866 979.841C118.193 980.787 121.773 985.899 120.854 991.263Z" stroke="#FCCB06" stroke-width="2"/>
</svg>
