<svg width="144" height="91" viewBox="0 0 144 91" fill="none" xmlns="http://www.w3.org/2000/svg">
<path d="M117.289 2.09437L117.287 2.09434C112.95 2.04349 108.672 5.17148 107.42 9.4157C106.164 13.6702 107.943 18.6952 111.595 21.1012C115.254 23.511 120.456 23.2089 123.764 20.3374C127.082 17.4572 128.308 12.2882 126.574 8.23476C124.789 4.18898 120.315 2.11399 117.289 2.09437Z" fill="#FCCB06" stroke="black"/>
<mask id="path-2-inside-1_1_232" fill="white">
<path d="M116.88 23.533C119.572 23.5972 122.286 22.7197 124.307 20.9386C127.899 17.8647 129.132 12.2399 127.258 7.87134C125.434 3.67029 120.873 1.34402 117.412 1.26138C117.357 1.26006 117.357 1.26006 117.302 1.25875C112.631 1.20266 108.043 4.58541 106.669 9.15361C105.296 13.7218 107.255 19.1456 111.151 21.7332C112.881 22.9386 114.847 23.4844 116.88 23.533ZM117.397 1.8708C120.693 1.9495 125.038 4.15972 126.757 8.13655C128.527 12.2809 127.355 17.63 123.932 20.5416C120.565 23.4546 115.169 23.8247 111.49 21.3532C107.756 18.8804 105.955 13.7375 107.268 9.38964C108.582 5.04175 112.891 1.81864 117.342 1.86949L117.397 1.8708Z"/>
</mask>
<path d="M116.88 23.533C119.572 23.5972 122.286 22.7197 124.307 20.9386C127.899 17.8647 129.132 12.2399 127.258 7.87134C125.434 3.67029 120.873 1.34402 117.412 1.26138C117.357 1.26006 117.357 1.26006 117.302 1.25875C112.631 1.20266 108.043 4.58541 106.669 9.15361C105.296 13.7218 107.255 19.1456 111.151 21.7332C112.881 22.9386 114.847 23.4844 116.88 23.533ZM117.397 1.8708C120.693 1.9495 125.038 4.15972 126.757 8.13655C128.527 12.2809 127.355 17.63 123.932 20.5416C120.565 23.4546 115.169 23.8247 111.49 21.3532C107.756 18.8804 105.955 13.7375 107.268 9.38964C108.582 5.04175 112.891 1.81864 117.342 1.86949L117.397 1.8708Z" fill="#FCCB06"/>
<path d="M124.307 20.9386L123.646 20.1883L123.652 20.1836L123.657 20.1789L124.307 20.9386ZM127.258 7.87134L128.175 7.47316L128.177 7.47702L127.258 7.87134ZM117.302 1.25875L117.314 0.258755L117.326 0.259038L117.302 1.25875ZM111.151 21.7332L111.705 20.9002L111.714 20.9063L111.723 20.9127L111.151 21.7332ZM126.757 8.13655L127.675 7.73978L127.677 7.74379L126.757 8.13655ZM123.932 20.5416L123.278 19.7853L123.284 19.78L123.932 20.5416ZM111.49 21.3532L112.042 20.5195L112.048 20.5232L111.49 21.3532ZM117.342 1.86949L117.354 0.869474L117.366 0.869771L117.342 1.86949ZM116.904 22.5332C119.372 22.5922 121.834 21.7851 123.646 20.1883L124.969 21.6889C122.738 23.6542 119.771 24.6023 116.856 24.5327L116.904 22.5332ZM123.657 20.1789C126.905 17.3986 128.047 12.2453 126.339 8.26567L128.177 7.47702C130.218 12.2346 128.892 18.3308 124.958 21.6983L123.657 20.1789ZM126.341 8.26952C124.695 4.47863 120.52 2.33588 117.388 2.26109L117.436 0.261661C121.225 0.352151 126.174 2.86194 128.175 7.47317L126.341 8.26952ZM117.388 2.26109C117.388 2.26109 117.388 2.26109 117.387 2.26108C117.387 2.26108 117.387 2.26108 117.387 2.26108C117.387 2.26107 117.387 2.26107 117.387 2.26107C117.387 2.26107 117.387 2.26106 117.387 2.26106C117.386 2.26106 117.386 2.26106 117.386 2.26105C117.386 2.26105 117.386 2.26105 117.386 2.26105C117.386 2.26104 117.386 2.26104 117.386 2.26104C117.385 2.26104 117.385 2.26103 117.385 2.26103C117.385 2.26103 117.385 2.26103 117.385 2.26102C117.385 2.26102 117.385 2.26102 117.385 2.26102C117.385 2.26101 117.384 2.26101 117.384 2.26101C117.384 2.26101 117.384 2.261 117.384 2.261C117.384 2.261 117.384 2.261 117.384 2.26099C117.384 2.26099 117.384 2.26099 117.383 2.26099C117.383 2.26098 117.383 2.26098 117.383 2.26098C117.383 2.26098 117.383 2.26097 117.383 2.26097C117.383 2.26097 117.383 2.26097 117.383 2.26097C117.382 2.26096 117.382 2.26096 117.382 2.26096C117.382 2.26096 117.382 2.26095 117.382 2.26095C117.382 2.26095 117.382 2.26095 117.382 2.26094C117.382 2.26094 117.381 2.26094 117.381 2.26094C117.381 2.26093 117.381 2.26093 117.381 2.26093C117.381 2.26093 117.381 2.26092 117.381 2.26092C117.381 2.26092 117.381 2.26092 117.38 2.26092C117.38 2.26091 117.38 2.26091 117.38 2.26091C117.38 2.26091 117.38 2.2609 117.38 2.2609C117.38 2.2609 117.38 2.2609 117.38 2.26089C117.379 2.26089 117.379 2.26089 117.379 2.26089C117.379 2.26089 117.379 2.26088 117.379 2.26088C117.379 2.26088 117.379 2.26088 117.379 2.26087C117.379 2.26087 117.378 2.26087 117.378 2.26087C117.378 2.26086 117.378 2.26086 117.378 2.26086C117.378 2.26086 117.378 2.26086 117.378 2.26085C117.378 2.26085 117.378 2.26085 117.378 2.26085C117.377 2.26084 117.377 2.26084 117.377 2.26084C117.377 2.26084 117.377 2.26084 117.377 2.26083C117.377 2.26083 117.377 2.26083 117.377 2.26083C117.377 2.26082 117.377 2.26082 117.376 2.26082C117.376 2.26082 117.376 2.26082 117.376 2.26081C117.376 2.26081 117.376 2.26081 117.376 2.26081C117.376 2.2608 117.376 2.2608 117.376 2.2608C117.376 2.2608 117.375 2.2608 117.375 2.26079C117.375 2.26079 117.375 2.26079 117.375 2.26079C117.375 2.26079 117.375 2.26078 117.375 2.26078C117.375 2.26078 117.375 2.26078 117.375 2.26077C117.374 2.26077 117.374 2.26077 117.374 2.26077C117.374 2.26077 117.374 2.26076 117.374 2.26076C117.374 2.26076 117.374 2.26076 117.374 2.26076C117.374 2.26075 117.374 2.26075 117.373 2.26075C117.373 2.26075 117.373 2.26074 117.373 2.26074C117.373 2.26074 117.373 2.26074 117.373 2.26074C117.373 2.26073 117.373 2.26073 117.373 2.26073C117.373 2.26073 117.372 2.26073 117.372 2.26072C117.372 2.26072 117.372 2.26072 117.372 2.26072C117.372 2.26072 117.372 2.26071 117.372 2.26071C117.372 2.26071 117.372 2.26071 117.372 2.2607C117.372 2.2607 117.371 2.2607 117.371 2.2607C117.371 2.2607 117.371 2.26069 117.371 2.26069C117.371 2.26069 117.371 2.26069 117.371 2.26069C117.371 2.26068 117.371 2.26068 117.371 2.26068C117.37 2.26068 117.37 2.26068 117.37 2.26067C117.37 2.26067 117.37 2.26067 117.37 2.26067C117.37 2.26067 117.37 2.26066 117.37 2.26066C117.37 2.26066 117.37 2.26066 117.37 2.26066C117.369 2.26065 117.369 2.26065 117.369 2.26065C117.369 2.26065 117.369 2.26065 117.369 2.26064C117.369 2.26064 117.369 2.26064 117.369 2.26064C117.369 2.26064 117.369 2.26063 117.369 2.26063C117.368 2.26063 117.368 2.26063 117.368 2.26063C117.368 2.26062 117.368 2.26062 117.368 2.26062C117.368 2.26062 117.368 2.26062 117.368 2.26061C117.368 2.26061 117.368 2.26061 117.368 2.26061C117.367 2.26061 117.367 2.2606 117.367 2.2606C117.367 2.2606 117.367 2.2606 117.367 2.2606C117.367 2.2606 117.367 2.26059 117.367 2.26059C117.367 2.26059 117.367 2.26059 117.367 2.26059C117.367 2.26058 117.366 2.26058 117.366 2.26058C117.366 2.26058 117.366 2.26058 117.366 2.26057C117.366 2.26057 117.366 2.26057 117.366 2.26057C117.366 2.26057 117.366 2.26056 117.366 2.26056C117.366 2.26056 117.365 2.26056 117.365 2.26056C117.365 2.26056 117.365 2.26055 117.365 2.26055C117.365 2.26055 117.365 2.26055 117.365 2.26055C117.365 2.26054 117.365 2.26054 117.365 2.26054C117.365 2.26054 117.365 2.26054 117.364 2.26053C117.364 2.26053 117.364 2.26053 117.364 2.26053C117.364 2.26053 117.364 2.26053 117.364 2.26052C117.364 2.26052 117.364 2.26052 117.364 2.26052C117.364 2.26052 117.364 2.26051 117.364 2.26051C117.363 2.26051 117.363 2.26051 117.363 2.26051C117.363 2.26051 117.363 2.2605 117.363 2.2605C117.363 2.2605 117.363 2.2605 117.363 2.2605C117.363 2.26049 117.363 2.26049 117.363 2.26049C117.363 2.26049 117.362 2.26049 117.362 2.26049C117.362 2.26048 117.362 2.26048 117.362 2.26048C117.362 2.26048 117.362 2.26048 117.362 2.26047C117.362 2.26047 117.362 2.26047 117.362 2.26047C117.362 2.26047 117.362 2.26047 117.362 2.26046C117.361 2.26046 117.361 2.26046 117.361 2.26046C117.361 2.26046 117.361 2.26046 117.361 2.26045C117.361 2.26045 117.361 2.26045 117.361 2.26045C117.361 2.26045 117.361 2.26044 117.361 2.26044C117.361 2.26044 117.36 2.26044 117.36 2.26044C117.36 2.26044 117.36 2.26043 117.36 2.26043C117.36 2.26043 117.36 2.26043 117.36 2.26043C117.36 2.26043 117.36 2.26042 117.36 2.26042C117.36 2.26042 117.36 2.26042 117.36 2.26042C117.359 2.26042 117.359 2.26041 117.359 2.26041C117.359 2.26041 117.359 2.26041 117.359 2.26041C117.359 2.26041 117.359 2.2604 117.359 2.2604C117.359 2.2604 117.359 2.2604 117.359 2.2604C117.359 2.26039 117.359 2.26039 117.358 2.26039C117.358 2.26039 117.358 2.26039 117.358 2.26039C117.358 2.26038 117.358 2.26038 117.358 2.26038C117.358 2.26038 117.358 2.26038 117.358 2.26038C117.358 2.26037 117.358 2.26037 117.358 2.26037C117.358 2.26037 117.358 2.26037 117.357 2.26037C117.357 2.26036 117.357 2.26036 117.357 2.26036C117.357 2.26036 117.357 2.26036 117.357 2.26036C117.357 2.26035 117.357 2.26035 117.357 2.26035C117.357 2.26035 117.357 2.26035 117.357 2.26035C117.357 2.26035 117.356 2.26034 117.356 2.26034C117.356 2.26034 117.356 2.26034 117.356 2.26034C117.356 2.26034 117.356 2.26033 117.356 2.26033C117.356 2.26033 117.356 2.26033 117.356 2.26033C117.356 2.26033 117.356 2.26032 117.356 2.26032C117.356 2.26032 117.355 2.26032 117.355 2.26032C117.355 2.26032 117.355 2.26031 117.355 2.26031C117.355 2.26031 117.355 2.26031 117.355 2.26031C117.355 2.26031 117.355 2.2603 117.355 2.2603C117.355 2.2603 117.355 2.2603 117.355 2.2603C117.355 2.2603 117.354 2.2603 117.354 2.26029C117.354 2.26029 117.354 2.26029 117.354 2.26029C117.354 2.26029 117.354 2.26029 117.354 2.26028C117.354 2.26028 117.354 2.26028 117.354 2.26028C117.354 2.26028 117.354 2.26028 117.354 2.26027C117.354 2.26027 117.353 2.26027 117.353 2.26027C117.353 2.26027 117.353 2.26027 117.353 2.26027C117.353 2.26026 117.353 2.26026 117.353 2.26026C117.353 2.26026 117.353 2.26026 117.353 2.26026C117.353 2.26025 117.353 2.26025 117.353 2.26025C117.353 2.26025 117.352 2.26025 117.352 2.26025C117.352 2.26025 117.352 2.26024 117.352 2.26024C117.352 2.26024 117.352 2.26024 117.352 2.26024C117.352 2.26024 117.352 2.26023 117.352 2.26023C117.352 2.26023 117.352 2.26023 117.352 2.26023C117.352 2.26023 117.352 2.26023 117.351 2.26022C117.351 2.26022 117.351 2.26022 117.351 2.26022C117.351 2.26022 117.351 2.26022 117.351 2.26022C117.351 2.26021 117.351 2.26021 117.351 2.26021C117.351 2.26021 117.351 2.26021 117.351 2.26021C117.351 2.2602 117.351 2.2602 117.351 2.2602C117.35 2.2602 117.35 2.2602 117.35 2.2602C117.35 2.2602 117.35 2.26019 117.35 2.26019C117.35 2.26019 117.35 2.26019 117.35 2.26019C117.35 2.26019 117.35 2.26019 117.35 2.26018C117.35 2.26018 117.35 2.26018 117.35 2.26018C117.35 2.26018 117.349 2.26018 117.349 2.26017C117.349 2.26017 117.349 2.26017 117.349 2.26017C117.349 2.26017 117.349 2.26017 117.349 2.26017C117.349 2.26016 117.349 2.26016 117.349 2.26016C117.349 2.26016 117.349 2.26016 117.349 2.26016C117.349 2.26016 117.349 2.26015 117.348 2.26015C117.348 2.26015 117.348 2.26015 117.348 2.26015C117.348 2.26015 117.348 2.26015 117.348 2.26014C117.348 2.26014 117.348 2.26014 117.348 2.26014C117.348 2.26014 117.348 2.26014 117.348 2.26014C117.348 2.26013 117.348 2.26013 117.348 2.26013C117.348 2.26013 117.347 2.26013 117.347 2.26013C117.347 2.26013 117.347 2.26012 117.347 2.26012C117.347 2.26012 117.347 2.26012 117.347 2.26012C117.347 2.26012 117.347 2.26012 117.347 2.26011C117.347 2.26011 117.347 2.26011 117.347 2.26011C117.347 2.26011 117.347 2.26011 117.347 2.26011C117.346 2.2601 117.346 2.2601 117.346 2.2601C117.346 2.2601 117.346 2.2601 117.346 2.2601C117.346 2.2601 117.346 2.26009 117.346 2.26009C117.346 2.26009 117.346 2.26009 117.346 2.26009C117.346 2.26009 117.346 2.26009 117.346 2.26008C117.346 2.26008 117.346 2.26008 117.345 2.26008C117.345 2.26008 117.345 2.26008 117.345 2.26008C117.345 2.26007 117.345 2.26007 117.345 2.26007C117.345 2.26007 117.345 2.26007 117.345 2.26007C117.345 2.26007 117.345 2.26007 117.345 2.26006C117.345 2.26006 117.345 2.26006 117.345 2.26006C117.345 2.26006 117.344 2.26006 117.344 2.26006C117.344 2.26005 117.344 2.26005 117.344 2.26005C117.344 2.26005 117.344 2.26005 117.344 2.26005C117.344 2.26005 117.344 2.26004 117.344 2.26004C117.344 2.26004 117.344 2.26004 117.344 2.26004C117.344 2.26004 117.344 2.26004 117.344 2.26004C117.343 2.26003 117.343 2.26003 117.343 2.26003C117.343 2.26003 117.343 2.26003 117.343 2.26003C117.343 2.26003 117.343 2.26002 117.343 2.26002C117.343 2.26002 117.343 2.26002 117.343 2.26002C117.343 2.26002 117.343 2.26002 117.343 2.26001C117.343 2.26001 117.343 2.26001 117.343 2.26001C117.342 2.26001 117.342 2.26001 117.342 2.26001C117.342 2.26001 117.342 2.26 117.342 2.26C117.342 2.26 117.342 2.26 117.342 2.26C117.342 2.26 117.342 2.26 117.342 2.25999C117.342 2.25999 117.342 2.25999 117.342 2.25999C117.342 2.25999 117.342 2.25999 117.342 2.25999C117.341 2.25999 117.341 2.25998 117.341 2.25998C117.341 2.25998 117.341 2.25998 117.341 2.25998C117.341 2.25998 117.341 2.25998 117.341 2.25997C117.341 2.25997 117.341 2.25997 117.341 2.25997C117.341 2.25997 117.341 2.25997 117.341 2.25997C117.341 2.25997 117.341 2.25996 117.341 2.25996C117.34 2.25996 117.34 2.25996 117.34 2.25996C117.34 2.25996 117.34 2.25996 117.34 2.25995C117.34 2.25995 117.34 2.25995 117.34 2.25995C117.34 2.25995 117.34 2.25995 117.34 2.25995C117.34 2.25995 117.34 2.25994 117.34 2.25994C117.34 2.25994 117.34 2.25994 117.34 2.25994C117.339 2.25994 117.339 2.25994 117.339 2.25993C117.339 2.25993 117.339 2.25993 117.339 2.25993C117.339 2.25993 117.339 2.25993 117.339 2.25993C117.339 2.25993 117.339 2.25992 117.339 2.25992C117.339 2.25992 117.339 2.25992 117.339 2.25992C117.339 2.25992 117.339 2.25992 117.339 2.25992C117.338 2.25991 117.338 2.25991 117.338 2.25991C117.338 2.25991 117.338 2.25991 117.338 2.25991C117.338 2.25991 117.338 2.2599 117.338 2.2599C117.338 2.2599 117.338 2.2599 117.338 2.2599C117.338 2.2599 117.338 2.2599 117.338 2.2599C117.338 2.25989 117.338 2.25989 117.338 2.25989C117.338 2.25989 117.337 2.25989 117.337 2.25989C117.337 2.25989 117.337 2.25989 117.337 2.25988C117.337 2.25988 117.337 2.25988 117.337 2.25988C117.337 2.25988 117.337 2.25988 117.337 2.25988C117.337 2.25987 117.337 2.25987 117.337 2.25987C117.337 2.25987 117.337 2.25987 117.337 2.25987C117.337 2.25987 117.336 2.25987 117.336 2.25986C117.336 2.25986 117.336 2.25986 117.336 2.25986C117.336 2.25986 117.336 2.25986 117.336 2.25986C117.336 2.25986 117.336 2.25985 117.336 2.25985C117.336 2.25985 117.336 2.25985 117.336 2.25985C117.336 2.25985 117.336 2.25985 117.336 2.25985C117.336 2.25984 117.335 2.25984 117.335 2.25984C117.335 2.25984 117.335 2.25984 117.335 2.25984C117.335 2.25984 117.335 2.25984 117.335 2.25983C117.335 2.25983 117.335 2.25983 117.335 2.25983C117.335 2.25983 117.335 2.25983 117.335 2.25983C117.335 2.25982 117.335 2.25982 117.335 2.25982C117.335 2.25982 117.335 2.25982 117.334 2.25982C117.334 2.25982 117.334 2.25982 117.334 2.25981C117.334 2.25981 117.334 2.25981 117.334 2.25981C117.334 2.25981 117.334 2.25981 117.334 2.25981C117.334 2.25981 117.334 2.2598 117.334 2.2598C117.334 2.2598 117.334 2.2598 117.334 2.2598C117.334 2.2598 117.334 2.2598 117.334 2.2598C117.333 2.25979 117.333 2.25979 117.333 2.25979C117.333 2.25979 117.333 2.25979 117.333 2.25979C117.333 2.25979 117.333 2.25978 117.333 2.25978C117.333 2.25978 117.333 2.25978 117.333 2.25978C117.333 2.25978 117.333 2.25978 117.333 2.25978C117.333 2.25977 117.333 2.25977 117.333 2.25977C117.332 2.25977 117.332 2.25977 117.332 2.25977C117.332 2.25977 117.332 2.25977 117.332 2.25976C117.332 2.25976 117.332 2.25976 117.332 2.25976C117.332 2.25976 117.332 2.25976 117.332 2.25976C117.332 2.25976 117.332 2.25975 117.332 2.25975C117.332 2.25975 117.332 2.25975 117.332 2.25975C117.332 2.25975 117.331 2.25975 117.331 2.25975C117.331 2.25974 117.331 2.25974 117.331 2.25974C117.331 2.25974 117.331 2.25974 117.331 2.25974C117.331 2.25974 117.331 2.25974 117.331 2.25973C117.331 2.25973 117.331 2.25973 117.331 2.25973C117.331 2.25973 117.331 2.25973 117.331 2.25973C117.331 2.25972 117.331 2.25972 117.33 2.25972C117.33 2.25972 117.33 2.25972 117.33 2.25972C117.33 2.25972 117.33 2.25972 117.33 2.25971C117.33 2.25971 117.33 2.25971 117.33 2.25971C117.33 2.25971 117.33 2.25971 117.33 2.25971C117.33 2.25971 117.33 2.2597 117.33 2.2597C117.33 2.2597 117.33 2.2597 117.329 2.2597C117.329 2.2597 117.329 2.2597 117.329 2.2597C117.329 2.25969 117.329 2.25969 117.329 2.25969C117.329 2.25969 117.329 2.25969 117.329 2.25969C117.329 2.25969 117.329 2.25968 117.329 2.25968C117.329 2.25968 117.329 2.25968 117.329 2.25968C117.329 2.25968 117.329 2.25968 117.329 2.25968C117.328 2.25967 117.328 2.25967 117.328 2.25967C117.328 2.25967 117.328 2.25967 117.328 2.25967C117.328 2.25967 117.328 2.25967 117.328 2.25966C117.328 2.25966 117.328 2.25966 117.328 2.25966C117.328 2.25966 117.328 2.25966 117.328 2.25966C117.328 2.25965 117.328 2.25965 117.328 2.25965C117.327 2.25965 117.327 2.25965 117.327 2.25965C117.327 2.25965 117.327 2.25965 117.327 2.25964C117.327 2.25964 117.327 2.25964 117.327 2.25964C117.327 2.25964 117.327 2.25964 117.327 2.25964C117.327 2.25964 117.327 2.25963 117.327 2.25963C117.327 2.25963 117.327 2.25963 117.327 2.25963C117.326 2.25963 117.326 2.25963 117.326 2.25962C117.326 2.25962 117.326 2.25962 117.326 2.25962C117.326 2.25962 117.326 2.25962 117.326 2.25962C117.326 2.25962 117.326 2.25961 117.326 2.25961C117.326 2.25961 117.326 2.25961 117.326 2.25961C117.326 2.25961 117.326 2.25961 117.326 2.25961C117.325 2.2596 117.325 2.2596 117.325 2.2596C117.325 2.2596 117.325 2.2596 117.325 2.2596C117.325 2.2596 117.325 2.25959 117.325 2.25959C117.325 2.25959 117.325 2.25959 117.325 2.25959C117.325 2.25959 117.325 2.25959 117.325 2.25959C117.325 2.25958 117.325 2.25958 117.325 2.25958C117.324 2.25958 117.324 2.25958 117.324 2.25958C117.324 2.25958 117.324 2.25957 117.324 2.25957C117.324 2.25957 117.324 2.25957 117.324 2.25957C117.324 2.25957 117.324 2.25957 117.324 2.25957C117.324 2.25956 117.324 2.25956 117.324 2.25956C117.324 2.25956 117.324 2.25956 117.324 2.25956C117.323 2.25956 117.323 2.25955 117.323 2.25955C117.323 2.25955 117.323 2.25955 117.323 2.25955C117.323 2.25955 117.323 2.25955 117.323 2.25955C117.323 2.25954 117.323 2.25954 117.323 2.25954C117.323 2.25954 117.323 2.25954 117.323 2.25954C117.323 2.25954 117.323 2.25953 117.323 2.25953C117.322 2.25953 117.322 2.25953 117.322 2.25953C117.322 2.25953 117.322 2.25953 117.322 2.25952C117.322 2.25952 117.322 2.25952 117.322 2.25952C117.322 2.25952 117.322 2.25952 117.322 2.25952C117.322 2.25952 117.322 2.25951 117.322 2.25951C117.322 2.25951 117.322 2.25951 117.321 2.25951C117.321 2.25951 117.321 2.25951 117.321 2.2595C117.321 2.2595 117.321 2.2595 117.321 2.2595C117.321 2.2595 117.321 2.2595 117.321 2.2595C117.321 2.25949 117.321 2.25949 117.321 2.25949C117.321 2.25949 117.321 2.25949 117.321 2.25949C117.321 2.25949 117.321 2.25948 117.32 2.25948C117.32 2.25948 117.32 2.25948 117.32 2.25948C117.32 2.25948 117.32 2.25948 117.32 2.25948C117.32 2.25947 117.32 2.25947 117.32 2.25947C117.32 2.25947 117.32 2.25947 117.32 2.25947C117.32 2.25947 117.32 2.25946 117.32 2.25946C117.32 2.25946 117.319 2.25946 117.319 2.25946C117.319 2.25946 117.319 2.25946 117.319 2.25945C117.319 2.25945 117.319 2.25945 117.319 2.25945C117.319 2.25945 117.319 2.25945 117.319 2.25945C117.319 2.25944 117.319 2.25944 117.319 2.25944C117.319 2.25944 117.319 2.25944 117.319 2.25944C117.318 2.25944 117.318 2.25943 117.318 2.25943C117.318 2.25943 117.318 2.25943 117.318 2.25943C117.318 2.25943 117.318 2.25943 117.318 2.25942C117.318 2.25942 117.318 2.25942 117.318 2.25942C117.318 2.25942 117.318 2.25942 117.318 2.25942C117.318 2.25941 117.317 2.25941 117.317 2.25941C117.317 2.25941 117.317 2.25941 117.317 2.25941C117.317 2.25941 117.317 2.2594 117.317 2.2594C117.317 2.2594 117.317 2.2594 117.317 2.2594C117.317 2.2594 117.317 2.2594 117.317 2.25939C117.317 2.25939 117.317 2.25939 117.317 2.25939C117.316 2.25939 117.316 2.25939 117.316 2.25938C117.316 2.25938 117.316 2.25938 117.316 2.25938C117.316 2.25938 117.316 2.25938 117.316 2.25938C117.316 2.25937 117.316 2.25937 117.316 2.25937C117.316 2.25937 117.316 2.25937 117.316 2.25937C117.316 2.25937 117.315 2.25936 117.315 2.25936C117.315 2.25936 117.315 2.25936 117.315 2.25936C117.315 2.25936 117.315 2.25936 117.315 2.25935C117.315 2.25935 117.315 2.25935 117.315 2.25935C117.315 2.25935 117.315 2.25935 117.315 2.25934C117.315 2.25934 117.315 2.25934 117.314 2.25934C117.314 2.25934 117.314 2.25934 117.314 2.25934C117.314 2.25933 117.314 2.25933 117.314 2.25933C117.314 2.25933 117.314 2.25933 117.314 2.25933C117.314 2.25933 117.314 2.25932 117.314 2.25932C117.314 2.25932 117.314 2.25932 117.313 2.25932C117.313 2.25932 117.313 2.25931 117.313 2.25931C117.313 2.25931 117.313 2.25931 117.313 2.25931C117.313 2.25931 117.313 2.25931 117.313 2.2593C117.313 2.2593 117.313 2.2593 117.313 2.2593C117.313 2.2593 117.313 2.2593 117.313 2.25929C117.312 2.25929 117.312 2.25929 117.312 2.25929C117.312 2.25929 117.312 2.25929 117.312 2.25928C117.312 2.25928 117.312 2.25928 117.312 2.25928C117.312 2.25928 117.312 2.25928 117.312 2.25928C117.312 2.25927 117.312 2.25927 117.312 2.25927C117.311 2.25927 117.311 2.25927 117.311 2.25927C117.311 2.25926 117.311 2.25926 117.311 2.25926C117.311 2.25926 117.311 2.25926 117.311 2.25926C117.311 2.25925 117.311 2.25925 117.311 2.25925C117.311 2.25925 117.311 2.25925 117.311 2.25925C117.31 2.25925 117.31 2.25924 117.31 2.25924C117.31 2.25924 117.31 2.25924 117.31 2.25924C117.31 2.25924 117.31 2.25923 117.31 2.25923C117.31 2.25923 117.31 2.25923 117.31 2.25923C117.31 2.25923 117.31 2.25922 117.31 2.25922C117.309 2.25922 117.309 2.25922 117.309 2.25922C117.309 2.25922 117.309 2.25921 117.309 2.25921C117.309 2.25921 117.309 2.25921 117.309 2.25921C117.309 2.25921 117.309 2.2592 117.309 2.2592C117.309 2.2592 117.309 2.2592 117.309 2.2592C117.308 2.2592 117.308 2.25919 117.308 2.25919C117.308 2.25919 117.308 2.25919 117.308 2.25919C117.308 2.25919 117.308 2.25918 117.308 2.25918C117.308 2.25918 117.308 2.25918 117.308 2.25918C117.308 2.25918 117.308 2.25917 117.307 2.25917C117.307 2.25917 117.307 2.25917 117.307 2.25917C117.307 2.25917 117.307 2.25916 117.307 2.25916C117.307 2.25916 117.307 2.25916 117.307 2.25916C117.307 2.25916 117.307 2.25915 117.307 2.25915C117.307 2.25915 117.306 2.25915 117.306 2.25915C117.306 2.25915 117.306 2.25914 117.306 2.25914C117.306 2.25914 117.306 2.25914 117.306 2.25914C117.306 2.25914 117.306 2.25913 117.306 2.25913C117.306 2.25913 117.306 2.25913 117.306 2.25913C117.305 2.25913 117.305 2.25912 117.305 2.25912C117.305 2.25912 117.305 2.25912 117.305 2.25912C117.305 2.25911 117.305 2.25911 117.305 2.25911C117.305 2.25911 117.305 2.25911 117.305 2.25911C117.305 2.2591 117.305 2.2591 117.304 2.2591C117.304 2.2591 117.304 2.2591 117.304 2.2591C117.304 2.25909 117.304 2.25909 117.304 2.25909C117.304 2.25909 117.304 2.25909 117.304 2.25908C117.304 2.25908 117.304 2.25908 117.304 2.25908C117.303 2.25908 117.303 2.25908 117.303 2.25907C117.303 2.25907 117.303 2.25907 117.303 2.25907C117.303 2.25907 117.303 2.25907 117.303 2.25906C117.303 2.25906 117.303 2.25906 117.303 2.25906C117.303 2.25906 117.302 2.25905 117.302 2.25905C117.302 2.25905 117.302 2.25905 117.302 2.25905C117.302 2.25905 117.302 2.25904 117.302 2.25904C117.302 2.25904 117.302 2.25904 117.302 2.25904C117.302 2.25903 117.302 2.25903 117.301 2.25903C117.301 2.25903 117.301 2.25903 117.301 2.25902C117.301 2.25902 117.301 2.25902 117.301 2.25902C117.301 2.25902 117.301 2.25902 117.301 2.25901C117.301 2.25901 117.301 2.25901 117.301 2.25901C117.3 2.25901 117.3 2.259 117.3 2.259C117.3 2.259 117.3 2.259 117.3 2.259C117.3 2.259 117.3 2.25899 117.3 2.25899C117.3 2.25899 117.3 2.25899 117.3 2.25899C117.3 2.25898 117.299 2.25898 117.299 2.25898C117.299 2.25898 117.299 2.25898 117.299 2.25897C117.299 2.25897 117.299 2.25897 117.299 2.25897C117.299 2.25897 117.299 2.25896 117.299 2.25896C117.299 2.25896 117.298 2.25896 117.298 2.25896C117.298 2.25895 117.298 2.25895 117.298 2.25895C117.298 2.25895 117.298 2.25895 117.298 2.25895C117.298 2.25894 117.298 2.25894 117.298 2.25894C117.298 2.25894 117.298 2.25894 117.297 2.25893C117.297 2.25893 117.297 2.25893 117.297 2.25893C117.297 2.25893 117.297 2.25892 117.297 2.25892C117.297 2.25892 117.297 2.25892 117.297 2.25892C117.297 2.25891 117.297 2.25891 117.296 2.25891C117.296 2.25891 117.296 2.25891 117.296 2.2589C117.296 2.2589 117.296 2.2589 117.296 2.2589C117.296 2.2589 117.296 2.25889 117.296 2.25889C117.296 2.25889 117.295 2.25889 117.295 2.25889C117.295 2.25888 117.295 2.25888 117.295 2.25888C117.295 2.25888 117.295 2.25888 117.295 2.25887C117.295 2.25887 117.295 2.25887 117.295 2.25887C117.295 2.25887 117.294 2.25886 117.294 2.25886C117.294 2.25886 117.294 2.25886 117.294 2.25885C117.294 2.25885 117.294 2.25885 117.294 2.25885C117.294 2.25885 117.294 2.25884 117.294 2.25884C117.294 2.25884 117.293 2.25884 117.293 2.25884C117.293 2.25883 117.293 2.25883 117.293 2.25883C117.293 2.25883 117.293 2.25883 117.293 2.25882C117.293 2.25882 117.293 2.25882 117.293 2.25882C117.292 2.25882 117.292 2.25881 117.292 2.25881C117.292 2.25881 117.292 2.25881 117.292 2.2588C117.292 2.2588 117.292 2.2588 117.292 2.2588C117.292 2.2588 117.292 2.25879 117.291 2.25879C117.291 2.25879 117.291 2.25879 117.291 2.25879C117.291 2.25878 117.291 2.25878 117.291 2.25878C117.291 2.25878 117.291 2.25877 117.291 2.25877C117.291 2.25877 117.29 2.25877 117.29 2.25877C117.29 2.25876 117.29 2.25876 117.29 2.25876C117.29 2.25876 117.29 2.25875 117.29 2.25875C117.29 2.25875 117.29 2.25875 117.29 2.25875C117.289 2.25874 117.289 2.25874 117.289 2.25874C117.289 2.25874 117.289 2.25874 117.289 2.25873C117.289 2.25873 117.289 2.25873 117.289 2.25873C117.289 2.25872 117.289 2.25872 117.288 2.25872C117.288 2.25872 117.288 2.25872 117.288 2.25871C117.288 2.25871 117.288 2.25871 117.288 2.25871C117.288 2.2587 117.288 2.2587 117.288 2.2587C117.288 2.2587 117.287 2.25869 117.287 2.25869C117.287 2.25869 117.287 2.25869 117.287 2.25869C117.287 2.25868 117.287 2.25868 117.287 2.25868C117.287 2.25868 117.287 2.25867 117.286 2.25867C117.286 2.25867 117.286 2.25867 117.286 2.25867C117.286 2.25866 117.286 2.25866 117.286 2.25866C117.286 2.25866 117.286 2.25865 117.286 2.25865C117.286 2.25865 117.285 2.25865 117.285 2.25864C117.285 2.25864 117.285 2.25864 117.285 2.25864C117.285 2.25863 117.285 2.25863 117.285 2.25863C117.285 2.25863 117.285 2.25863 117.284 2.25862C117.284 2.25862 117.284 2.25862 117.284 2.25862C117.284 2.25861 117.284 2.25861 117.284 2.25861C117.284 2.25861 117.284 2.2586 117.284 2.2586C117.283 2.2586 117.283 2.2586 117.283 2.25859C117.283 2.25859 117.283 2.25859 117.283 2.25859C117.283 2.25858 117.283 2.25858 117.283 2.25858C117.283 2.25858 117.282 2.25858 117.282 2.25857C117.282 2.25857 117.282 2.25857 117.282 2.25857C117.282 2.25856 117.282 2.25856 117.282 2.25856C117.282 2.25856 117.282 2.25855 117.281 2.25855C117.281 2.25855 117.281 2.25855 117.281 2.25854C117.281 2.25854 117.281 2.25854 117.281 2.25854C117.281 2.25853 117.281 2.25853 117.28 2.25853C117.28 2.25853 117.28 2.25852 117.28 2.25852C117.28 2.25852 117.28 2.25852 117.28 2.25851C117.28 2.25851 117.28 2.25851 117.28 2.25851C117.279 2.2585 117.279 2.2585 117.279 2.2585C117.279 2.2585 117.279 2.25849 117.279 2.25849C117.279 2.25849 117.279 2.25849 117.279 2.25848C117.278 2.25848 117.278 2.25848 117.278 2.25848C117.278 2.25847 117.278 2.25847 117.278 2.25847L117.326 0.259038C117.326 0.259041 117.326 0.259043 117.326 0.259046C117.326 0.259048 117.326 0.259051 117.326 0.259053C117.326 0.259056 117.327 0.259058 117.327 0.259061C117.327 0.259063 117.327 0.259066 117.327 0.259068C117.327 0.259071 117.327 0.259073 117.327 0.259076C117.327 0.259079 117.327 0.259081 117.328 0.259084C117.328 0.259086 117.328 0.259089 117.328 0.259091C117.328 0.259094 117.328 0.259096 117.328 0.259098C117.328 0.259101 117.328 0.259103 117.329 0.259106C117.329 0.259108 117.329 0.259111 117.329 0.259113C117.329 0.259116 117.329 0.259118 117.329 0.259121C117.329 0.259123 117.329 0.259126 117.329 0.259128C117.33 0.259131 117.33 0.259133 117.33 0.259135C117.33 0.259138 117.33 0.25914 117.33 0.259143C117.33 0.259145 117.33 0.259148 117.33 0.25915C117.33 0.259152 117.331 0.259155 117.331 0.259157C117.331 0.25916 117.331 0.259162 117.331 0.259164C117.331 0.259167 117.331 0.259169 117.331 0.259172C117.331 0.259174 117.331 0.259176 117.332 0.259179C117.332 0.259181 117.332 0.259183 117.332 0.259186C117.332 0.259188 117.332 0.259191 117.332 0.259193C117.332 0.259195 117.332 0.259198 117.332 0.2592C117.333 0.259202 117.333 0.259205 117.333 0.259207C117.333 0.259209 117.333 0.259212 117.333 0.259214C117.333 0.259216 117.333 0.259219 117.333 0.259221C117.333 0.259223 117.334 0.259226 117.334 0.259228C117.334 0.25923 117.334 0.259233 117.334 0.259235C117.334 0.259237 117.334 0.25924 117.334 0.259242C117.334 0.259244 117.334 0.259246 117.335 0.259249C117.335 0.259251 117.335 0.259253 117.335 0.259256C117.335 0.259258 117.335 0.25926 117.335 0.259262C117.335 0.259265 117.335 0.259267 117.335 0.259269C117.335 0.259271 117.336 0.259274 117.336 0.259276C117.336 0.259278 117.336 0.25928 117.336 0.259283C117.336 0.259285 117.336 0.259287 117.336 0.259289C117.336 0.259292 117.336 0.259294 117.336 0.259296C117.337 0.259298 117.337 0.259301 117.337 0.259303C117.337 0.259305 117.337 0.259307 117.337 0.259309C117.337 0.259312 117.337 0.259314 117.337 0.259316C117.337 0.259318 117.338 0.25932 117.338 0.259323C117.338 0.259325 117.338 0.259327 117.338 0.259329C117.338 0.259331 117.338 0.259334 117.338 0.259336C117.338 0.259338 117.338 0.25934 117.338 0.259342C117.339 0.259344 117.339 0.259347 117.339 0.259349C117.339 0.259351 117.339 0.259353 117.339 0.259355C117.339 0.259357 117.339 0.25936 117.339 0.259362C117.339 0.259364 117.339 0.259366 117.339 0.259368C117.34 0.25937 117.34 0.259372 117.34 0.259374C117.34 0.259377 117.34 0.259379 117.34 0.259381C117.34 0.259383 117.34 0.259385 117.34 0.259387C117.34 0.259389 117.34 0.259391 117.341 0.259393C117.341 0.259396 117.341 0.259398 117.341 0.2594C117.341 0.259402 117.341 0.259404 117.341 0.259406C117.341 0.259408 117.341 0.25941 117.341 0.259412C117.341 0.259414 117.342 0.259416 117.342 0.259419C117.342 0.259421 117.342 0.259423 117.342 0.259425C117.342 0.259427 117.342 0.259429 117.342 0.259431C117.342 0.259433 117.342 0.259435 117.342 0.259437C117.342 0.259439 117.343 0.259441 117.343 0.259443C117.343 0.259445 117.343 0.259447 117.343 0.259449C117.343 0.259451 117.343 0.259453 117.343 0.259455C117.343 0.259457 117.343 0.259459 117.343 0.259461C117.343 0.259463 117.344 0.259465 117.344 0.259467C117.344 0.259469 117.344 0.259471 117.344 0.259473C117.344 0.259475 117.344 0.259477 117.344 0.259479C117.344 0.259481 117.344 0.259483 117.344 0.259485C117.344 0.259487 117.345 0.259489 117.345 0.259491C117.345 0.259493 117.345 0.259495 117.345 0.259497C117.345 0.259499 117.345 0.259501 117.345 0.259503C117.345 0.259505 117.345 0.259507 117.345 0.259509C117.345 0.259511 117.346 0.259513 117.346 0.259515C117.346 0.259517 117.346 0.259519 117.346 0.259521C117.346 0.259523 117.346 0.259525 117.346 0.259527C117.346 0.259529 117.346 0.259531 117.346 0.259532C117.346 0.259534 117.347 0.259536 117.347 0.259538C117.347 0.25954 117.347 0.259542 117.347 0.259544C117.347 0.259546 117.347 0.259548 117.347 0.25955C117.347 0.259552 117.347 0.259554 117.347 0.259555C117.347 0.259557 117.348 0.259559 117.348 0.259561C117.348 0.259563 117.348 0.259565 117.348 0.259567C117.348 0.259569 117.348 0.259571 117.348 0.259572C117.348 0.259574 117.348 0.259576 117.348 0.259578C117.348 0.25958 117.348 0.259582 117.349 0.259584C117.349 0.259586 117.349 0.259587 117.349 0.259589C117.349 0.259591 117.349 0.259593 117.349 0.259595C117.349 0.259597 117.349 0.259599 117.349 0.2596C117.349 0.259602 117.349 0.259604 117.349 0.259606C117.35 0.259608 117.35 0.25961 117.35 0.259611C117.35 0.259613 117.35 0.259615 117.35 0.259617C117.35 0.259619 117.35 0.259621 117.35 0.259622C117.35 0.259624 117.35 0.259626 117.35 0.259628C117.35 0.25963 117.351 0.259631 117.351 0.259633C117.351 0.259635 117.351 0.259637 117.351 0.259639C117.351 0.25964 117.351 0.259642 117.351 0.259644C117.351 0.259646 117.351 0.259648 117.351 0.259649C117.351 0.259651 117.351 0.259653 117.352 0.259655C117.352 0.259657 117.352 0.259658 117.352 0.25966C117.352 0.259662 117.352 0.259664 117.352 0.259665C117.352 0.259667 117.352 0.259669 117.352 0.259671C117.352 0.259672 117.352 0.259674 117.352 0.259676C117.352 0.259678 117.353 0.259679 117.353 0.259681C117.353 0.259683 117.353 0.259685 117.353 0.259686C117.353 0.259688 117.353 0.25969 117.353 0.259692C117.353 0.259693 117.353 0.259695 117.353 0.259697C117.353 0.259699 117.353 0.2597 117.353 0.259702C117.354 0.259704 117.354 0.259706 117.354 0.259707C117.354 0.259709 117.354 0.259711 117.354 0.259712C117.354 0.259714 117.354 0.259716 117.354 0.259718C117.354 0.259719 117.354 0.259721 117.354 0.259723C117.354 0.259724 117.354 0.259726 117.355 0.259728C117.355 0.259729 117.355 0.259731 117.355 0.259733C117.355 0.259735 117.355 0.259736 117.355 0.259738C117.355 0.25974 117.355 0.259741 117.355 0.259743C117.355 0.259745 117.355 0.259746 117.355 0.259748C117.355 0.25975 117.356 0.259751 117.356 0.259753C117.356 0.259755 117.356 0.259756 117.356 0.259758C117.356 0.25976 117.356 0.259761 117.356 0.259763C117.356 0.259765 117.356 0.259766 117.356 0.259768C117.356 0.25977 117.356 0.259771 117.356 0.259773C117.357 0.259775 117.357 0.259776 117.357 0.259778C117.357 0.25978 117.357 0.259781 117.357 0.259783C117.357 0.259784 117.357 0.259786 117.357 0.259788C117.357 0.259789 117.357 0.259791 117.357 0.259793C117.357 0.259794 117.357 0.259796 117.357 0.259797C117.358 0.259799 117.358 0.259801 117.358 0.259802C117.358 0.259804 117.358 0.259806 117.358 0.259807C117.358 0.259809 117.358 0.25981 117.358 0.259812C117.358 0.259814 117.358 0.259815 117.358 0.259817C117.358 0.259818 117.358 0.25982 117.358 0.259822C117.359 0.259823 117.359 0.259825 117.359 0.259826C117.359 0.259828 117.359 0.25983 117.359 0.259831C117.359 0.259833 117.359 0.259834 117.359 0.259836C117.359 0.259837 117.359 0.259839 117.359 0.259841C117.359 0.259842 117.359 0.259844 117.359 0.259845C117.36 0.259847 117.36 0.259849 117.36 0.25985C117.36 0.259852 117.36 0.259853 117.36 0.259855C117.36 0.259856 117.36 0.259858 117.36 0.259859C117.36 0.259861 117.36 0.259863 117.36 0.259864C117.36 0.259866 117.36 0.259867 117.36 0.259869C117.361 0.25987 117.361 0.259872 117.361 0.259873C117.361 0.259875 117.361 0.259876 117.361 0.259878C117.361 0.25988 117.361 0.259881 117.361 0.259883C117.361 0.259884 117.361 0.259886 117.361 0.259887C117.361 0.259889 117.361 0.25989 117.361 0.259892C117.361 0.259893 117.362 0.259895 117.362 0.259896C117.362 0.259898 117.362 0.259899 117.362 0.259901C117.362 0.259902 117.362 0.259904 117.362 0.259905C117.362 0.259907 117.362 0.259909 117.362 0.25991C117.362 0.259912 117.362 0.259913 117.362 0.259915C117.362 0.259916 117.363 0.259918 117.363 0.259919C117.363 0.259921 117.363 0.259922 117.363 0.259924C117.363 0.259925 117.363 0.259927 117.363 0.259928C117.363 0.25993 117.363 0.259931 117.363 0.259933C117.363 0.259934 117.363 0.259935 117.363 0.259937C117.363 0.259938 117.363 0.25994 117.364 0.259941C117.364 0.259943 117.364 0.259944 117.364 0.259946C117.364 0.259947 117.364 0.259949 117.364 0.25995C117.364 0.259952 117.364 0.259953 117.364 0.259955C117.364 0.259956 117.364 0.259958 117.364 0.259959C117.364 0.259961 117.364 0.259962 117.364 0.259963C117.364 0.259965 117.365 0.259966 117.365 0.259968C117.365 0.259969 117.365 0.259971 117.365 0.259972C117.365 0.259974 117.365 0.259975 117.365 0.259977C117.365 0.259978 117.365 0.259979 117.365 0.259981C117.365 0.259982 117.365 0.259984 117.365 0.259985C117.365 0.259987 117.365 0.259988 117.366 0.25999C117.366 0.259991 117.366 0.259992 117.366 0.259994C117.366 0.259995 117.366 0.259997 117.366 0.259998C117.366 0.26 117.366 0.260001 117.366 0.260002C117.366 0.260004 117.366 0.260005 117.366 0.260007C117.366 0.260008 117.366 0.26001 117.366 0.260011C117.366 0.260012 117.367 0.260014 117.367 0.260015C117.367 0.260017 117.367 0.260018 117.367 0.26002C117.367 0.260021 117.367 0.260022 117.367 0.260024C117.367 0.260025 117.367 0.260027 117.367 0.260028C117.367 0.260029 117.367 0.260031 117.367 0.260032C117.367 0.260034 117.367 0.260035 117.367 0.260036C117.368 0.260038 117.368 0.260039 117.368 0.260041C117.368 0.260042 117.368 0.260043 117.368 0.260045C117.368 0.260046 117.368 0.260048 117.368 0.260049C117.368 0.26005 117.368 0.260052 117.368 0.260053C117.368 0.260055 117.368 0.260056 117.368 0.260057C117.368 0.260059 117.368 0.26006 117.369 0.260062C117.369 0.260063 117.369 0.260064 117.369 0.260066C117.369 0.260067 117.369 0.260068 117.369 0.26007C117.369 0.260071 117.369 0.260073 117.369 0.260074C117.369 0.260075 117.369 0.260077 117.369 0.260078C117.369 0.260079 117.369 0.260081 117.369 0.260082C117.369 0.260084 117.37 0.260085 117.37 0.260086C117.37 0.260088 117.37 0.260089 117.37 0.26009C117.37 0.260092 117.37 0.260093 117.37 0.260095C117.37 0.260096 117.37 0.260097 117.37 0.260099C117.37 0.2601 117.37 0.260101 117.37 0.260103C117.37 0.260104 117.37 0.260105 117.37 0.260107C117.37 0.260108 117.371 0.260109 117.371 0.260111C117.371 0.260112 117.371 0.260114 117.371 0.260115C117.371 0.260116 117.371 0.260118 117.371 0.260119C117.371 0.26012 117.371 0.260122 117.371 0.260123C117.371 0.260124 117.371 0.260126 117.371 0.260127C117.371 0.260128 117.371 0.26013 117.371 0.260131C117.372 0.260132 117.372 0.260134 117.372 0.260135C117.372 0.260136 117.372 0.260138 117.372 0.260139C117.372 0.26014 117.372 0.260142 117.372 0.260143C117.372 0.260144 117.372 0.260146 117.372 0.260147C117.372 0.260148 117.372 0.26015 117.372 0.260151C117.372 0.260152 117.372 0.260154 117.372 0.260155C117.373 0.260156 117.373 0.260158 117.373 0.260159C117.373 0.26016 117.373 0.260162 117.373 0.260163C117.373 0.260164 117.373 0.260166 117.373 0.260167C117.373 0.260168 117.373 0.26017 117.373 0.260171C117.373 0.260172 117.373 0.260174 117.373 0.260175C117.373 0.260176 117.373 0.260178 117.373 0.260179C117.374 0.26018 117.374 0.260182 117.374 0.260183C117.374 0.260184 117.374 0.260186 117.374 0.260187C117.374 0.260188 117.374 0.260189 117.374 0.260191C117.374 0.260192 117.374 0.260193 117.374 0.260195C117.374 0.260196 117.374 0.260197 117.374 0.260199C117.374 0.2602 117.374 0.260201 117.374 0.260203C117.375 0.260204 117.375 0.260205 117.375 0.260207C117.375 0.260208 117.375 0.260209 117.375 0.26021C117.375 0.260212 117.375 0.260213 117.375 0.260214C117.375 0.260216 117.375 0.260217 117.375 0.260218C117.375 0.26022 117.375 0.260221 117.375 0.260222C117.375 0.260223 117.375 0.260225 117.375 0.260226C117.375 0.260227 117.376 0.260229 117.376 0.26023C117.376 0.260231 117.376 0.260233 117.376 0.260234C117.376 0.260235 117.376 0.260236 117.376 0.260238C117.376 0.260239 117.376 0.26024 117.376 0.260242C117.376 0.260243 117.376 0.260244 117.376 0.260246C117.376 0.260247 117.376 0.260248 117.376 0.260249C117.376 0.260251 117.377 0.260252 117.377 0.260253C117.377 0.260255 117.377 0.260256 117.377 0.260257C117.377 0.260258 117.377 0.26026 117.377 0.260261C117.377 0.260262 117.377 0.260264 117.377 0.260265C117.377 0.260266 117.377 0.260268 117.377 0.260269C117.377 0.26027 117.377 0.260271 117.377 0.260273C117.377 0.260274 117.377 0.260275 117.378 0.260277C117.378 0.260278 117.378 0.260279 117.378 0.26028C117.378 0.260282 117.378 0.260283 117.378 0.260284C117.378 0.260286 117.378 0.260287 117.378 0.260288C117.378 0.260289 117.378 0.260291 117.378 0.260292C117.378 0.260293 117.378 0.260295 117.378 0.260296C117.378 0.260297 117.378 0.260298 117.379 0.2603C117.379 0.260301 117.379 0.260302 117.379 0.260304C117.379 0.260305 117.379 0.260306 117.379 0.260307C117.379 0.260309 117.379 0.26031 117.379 0.260311C117.379 0.260313 117.379 0.260314 117.379 0.260315C117.379 0.260316 117.379 0.260318 117.379 0.260319C117.379 0.26032 117.379 0.260322 117.379 0.260323C117.38 0.260324 117.38 0.260325 117.38 0.260327C117.38 0.260328 117.38 0.260329 117.38 0.26033C117.38 0.260332 117.38 0.260333 117.38 0.260334C117.38 0.260336 117.38 0.260337 117.38 0.260338C117.38 0.260339 117.38 0.260341 117.38 0.260342C117.38 0.260343 117.38 0.260345 117.38 0.260346C117.381 0.260347 117.381 0.260348 117.381 0.26035C117.381 0.260351 117.381 0.260352 117.381 0.260354C117.381 0.260355 117.381 0.260356 117.381 0.260357C117.381 0.260359 117.381 0.26036 117.381 0.260361C117.381 0.260363 117.381 0.260364 117.381 0.260365C117.381 0.260366 117.381 0.260368 117.381 0.260369C117.381 0.26037 117.382 0.260371 117.382 0.260373C117.382 0.260374 117.382 0.260375 117.382 0.260377C117.382 0.260378 117.382 0.260379 117.382 0.26038C117.382 0.260382 117.382 0.260383 117.382 0.260384C117.382 0.260386 117.382 0.260387 117.382 0.260388C117.382 0.260389 117.382 0.260391 117.382 0.260392C117.382 0.260393 117.382 0.260395 117.383 0.260396C117.383 0.260397 117.383 0.260398 117.383 0.2604C117.383 0.260401 117.383 0.260402 117.383 0.260404C117.383 0.260405 117.383 0.260406 117.383 0.260407C117.383 0.260409 117.383 0.26041 117.383 0.260411C117.383 0.260413 117.383 0.260414 117.383 0.260415C117.383 0.260416 117.383 0.260418 117.384 0.260419C117.384 0.26042 117.384 0.260422 117.384 0.260423C117.384 0.260424 117.384 0.260425 117.384 0.260427C117.384 0.260428 117.384 0.260429 117.384 0.260431C117.384 0.260432 117.384 0.260433 117.384 0.260434C117.384 0.260436 117.384 0.260437 117.384 0.260438C117.384 0.26044 117.384 0.260441 117.384 0.260442C117.385 0.260443 117.385 0.260445 117.385 0.260446C117.385 0.260447 117.385 0.260449 117.385 0.26045C117.385 0.260451 117.385 0.260453 117.385 0.260454C117.385 0.260455 117.385 0.260456 117.385 0.260458C117.385 0.260459 117.385 0.26046 117.385 0.260462C117.385 0.260463 117.385 0.260464 117.385 0.260466C117.386 0.260467 117.386 0.260468 117.386 0.260469C117.386 0.260471 117.386 0.260472 117.386 0.260473C117.386 0.260475 117.386 0.260476 117.386 0.260477C117.386 0.260479 117.386 0.26048 117.386 0.260481C117.386 0.260482 117.386 0.260484 117.386 0.260485C117.386 0.260486 117.386 0.260488 117.386 0.260489C117.386 0.26049 117.387 0.260492 117.387 0.260493C117.387 0.260494 117.387 0.260495 117.387 0.260497C117.387 0.260498 117.387 0.260499 117.387 0.260501C117.387 0.260502 117.387 0.260503 117.387 0.260505C117.387 0.260506 117.387 0.260507 117.387 0.260509C117.387 0.26051 117.387 0.260511 117.387 0.260513C117.387 0.260514 117.388 0.260515 117.388 0.260516C117.388 0.260518 117.388 0.260519 117.388 0.26052C117.388 0.260522 117.388 0.260523 117.388 0.260524C117.388 0.260526 117.388 0.260527 117.388 0.260528C117.388 0.26053 117.388 0.260531 117.388 0.260532C117.388 0.260534 117.388 0.260535 117.388 0.260536C117.388 0.260538 117.389 0.260539 117.389 0.26054C117.389 0.260542 117.389 0.260543 117.389 0.260544C117.389 0.260546 117.389 0.260547 117.389 0.260548C117.389 0.26055 117.389 0.260551 117.389 0.260552C117.389 0.260554 117.389 0.260555 117.389 0.260556C117.389 0.260558 117.389 0.260559 117.389 0.26056C117.389 0.260562 117.39 0.260563 117.39 0.260564C117.39 0.260566 117.39 0.260567 117.39 0.260568C117.39 0.26057 117.39 0.260571 117.39 0.260572C117.39 0.260574 117.39 0.260575 117.39 0.260576C117.39 0.260578 117.39 0.260579 117.39 0.26058C117.39 0.260582 117.39 0.260583 117.39 0.260584C117.39 0.260586 117.391 0.260587 117.391 0.260589C117.391 0.26059 117.391 0.260591 117.391 0.260593C117.391 0.260594 117.391 0.260595 117.391 0.260597C117.391 0.260598 117.391 0.260599 117.391 0.260601C117.391 0.260602 117.391 0.260603 117.391 0.260605C117.391 0.260606 117.391 0.260608 117.391 0.260609C117.392 0.26061 117.392 0.260612 117.392 0.260613C117.392 0.260614 117.392 0.260616 117.392 0.260617C117.392 0.260619 117.392 0.26062 117.392 0.260621C117.392 0.260623 117.392 0.260624 117.392 0.260625C117.392 0.260627 117.392 0.260628 117.392 0.26063C117.392 0.260631 117.392 0.260632 117.393 0.260634C117.393 0.260635 117.393 0.260636 117.393 0.260638C117.393 0.260639 117.393 0.260641 117.393 0.260642C117.393 0.260643 117.393 0.260645 117.393 0.260646C117.393 0.260648 117.393 0.260649 117.393 0.26065C117.393 0.260652 117.393 0.260653 117.393 0.260655C117.393 0.260656 117.393 0.260657 117.394 0.260659C117.394 0.26066 117.394 0.260662 117.394 0.260663C117.394 0.260664 117.394 0.260666 117.394 0.260667C117.394 0.260669 117.394 0.26067 117.394 0.260671C117.394 0.260673 117.394 0.260674 117.394 0.260676C117.394 0.260677 117.394 0.260678 117.394 0.26068C117.394 0.260681 117.395 0.260683 117.395 0.260684C117.395 0.260686 117.395 0.260687 117.395 0.260688C117.395 0.26069 117.395 0.260691 117.395 0.260693C117.395 0.260694 117.395 0.260695 117.395 0.260697C117.395 0.260698 117.395 0.2607 117.395 0.260701C117.395 0.260703 117.395 0.260704 117.396 0.260705C117.396 0.260707 117.396 0.260708 117.396 0.26071C117.396 0.260711 117.396 0.260713 117.396 0.260714C117.396 0.260716 117.396 0.260717 117.396 0.260718C117.396 0.26072 117.396 0.260721 117.396 0.260723C117.396 0.260724 117.396 0.260726 117.396 0.260727C117.396 0.260729 117.397 0.26073 117.397 0.260732C117.397 0.260733 117.397 0.260734 117.397 0.260736C117.397 0.260737 117.397 0.260739 117.397 0.26074C117.397 0.260742 117.397 0.260743 117.397 0.260745C117.397 0.260746 117.397 0.260748 117.397 0.260749C117.397 0.260751 117.397 0.260752 117.398 0.260754C117.398 0.260755 117.398 0.260756 117.398 0.260758C117.398 0.260759 117.398 0.260761 117.398 0.260762C117.398 0.260764 117.398 0.260765 117.398 0.260767C117.398 0.260768 117.398 0.26077 117.398 0.260771C117.398 0.260773 117.398 0.260774 117.398 0.260776C117.399 0.260777 117.399 0.260779 117.399 0.26078C117.399 0.260782 117.399 0.260783 117.399 0.260785C117.399 0.260786 117.399 0.260788 117.399 0.260789C117.399 0.260791 117.399 0.260792 117.399 0.260794C117.399 0.260795 117.399 0.260797 117.399 0.260798C117.399 0.2608 117.4 0.260801 117.4 0.260803C117.4 0.260805 117.4 0.260806 117.4 0.260808C117.4 0.260809 117.4 0.260811 117.4 0.260812C117.4 0.260814 117.4 0.260815 117.4 0.260817C117.4 0.260818 117.4 0.26082 117.4 0.260821C117.4 0.260823 117.4 0.260824 117.401 0.260826C117.401 0.260828 117.401 0.260829 117.401 0.260831C117.401 0.260832 117.401 0.260834 117.401 0.260835C117.401 0.260837 117.401 0.260838 117.401 0.26084C117.401 0.260842 117.401 0.260843 117.401 0.260845C117.401 0.260846 117.401 0.260848 117.402 0.260849C117.402 0.260851 117.402 0.260852 117.402 0.260854C117.402 0.260856 117.402 0.260857 117.402 0.260859C117.402 0.26086 117.402 0.260862 117.402 0.260863C117.402 0.260865 117.402 0.260867 117.402 0.260868C117.402 0.26087 117.402 0.260871 117.403 0.260873C117.403 0.260875 117.403 0.260876 117.403 0.260878C117.403 0.260879 117.403 0.260881 117.403 0.260883C117.403 0.260884 117.403 0.260886 117.403 0.260887C117.403 0.260889 117.403 0.260891 117.403 0.260892C117.403 0.260894 117.403 0.260895 117.404 0.260897C117.404 0.260899 117.404 0.2609 117.404 0.260902C117.404 0.260904 117.404 0.260905 117.404 0.260907C117.404 0.260908 117.404 0.26091 117.404 0.260912C117.404 0.260913 117.404 0.260915 117.404 0.260917C117.404 0.260918 117.404 0.26092 117.405 0.260922C117.405 0.260923 117.405 0.260925 117.405 0.260926C117.405 0.260928 117.405 0.26093 117.405 0.260931C117.405 0.260933 117.405 0.260935 117.405 0.260936C117.405 0.260938 117.405 0.26094 117.405 0.260941C117.405 0.260943 117.406 0.260945 117.406 0.260946C117.406 0.260948 117.406 0.26095 117.406 0.260951C117.406 0.260953 117.406 0.260955 117.406 0.260956C117.406 0.260958 117.406 0.26096 117.406 0.260961C117.406 0.260963 117.406 0.260965 117.406 0.260967C117.407 0.260968 117.407 0.26097 117.407 0.260972C117.407 0.260973 117.407 0.260975 117.407 0.260977C117.407 0.260978 117.407 0.26098 117.407 0.260982C117.407 0.260984 117.407 0.260985 117.407 0.260987C117.407 0.260989 117.407 0.26099 117.408 0.260992C117.408 0.260994 117.408 0.260996 117.408 0.260997C117.408 0.260999 117.408 0.261001 117.408 0.261002C117.408 0.261004 117.408 0.261006 117.408 0.261008C117.408 0.261009 117.408 0.261011 117.408 0.261013C117.408 0.261015 117.409 0.261016 117.409 0.261018C117.409 0.26102 117.409 0.261022 117.409 0.261023C117.409 0.261025 117.409 0.261027 117.409 0.261029C117.409 0.26103 117.409 0.261032 117.409 0.261034C117.409 0.261036 117.409 0.261038 117.409 0.261039C117.41 0.261041 117.41 0.261043 117.41 0.261045C117.41 0.261046 117.41 0.261048 117.41 0.26105C117.41 0.261052 117.41 0.261054 117.41 0.261055C117.41 0.261057 117.41 0.261059 117.41 0.261061C117.41 0.261063 117.411 0.261064 117.411 0.261066C117.411 0.261068 117.411 0.26107 117.411 0.261072C117.411 0.261073 117.411 0.261075 117.411 0.261077C117.411 0.261079 117.411 0.261081 117.411 0.261083C117.411 0.261084 117.411 0.261086 117.412 0.261088C117.412 0.26109 117.412 0.261092 117.412 0.261094C117.412 0.261095 117.412 0.261097 117.412 0.261099C117.412 0.261101 117.412 0.261103 117.412 0.261105C117.412 0.261106 117.412 0.261108 117.412 0.26111C117.413 0.261112 117.413 0.261114 117.413 0.261116C117.413 0.261118 117.413 0.261119 117.413 0.261121C117.413 0.261123 117.413 0.261125 117.413 0.261127C117.413 0.261129 117.413 0.261131 117.413 0.261133C117.413 0.261135 117.414 0.261136 117.414 0.261138C117.414 0.26114 117.414 0.261142 117.414 0.261144C117.414 0.261146 117.414 0.261148 117.414 0.26115C117.414 0.261152 117.414 0.261154 117.414 0.261155C117.414 0.261157 117.415 0.261159 117.415 0.261161C117.415 0.261163 117.415 0.261165 117.415 0.261167C117.415 0.261169 117.415 0.261171 117.415 0.261173C117.415 0.261175 117.415 0.261177 117.415 0.261179C117.415 0.261181 117.415 0.261182 117.416 0.261184C117.416 0.261186 117.416 0.261188 117.416 0.26119C117.416 0.261192 117.416 0.261194 117.416 0.261196C117.416 0.261198 117.416 0.2612 117.416 0.261202C117.416 0.261204 117.416 0.261206 117.417 0.261208C117.417 0.26121 117.417 0.261212 117.417 0.261214C117.417 0.261216 117.417 0.261218 117.417 0.26122C117.417 0.261222 117.417 0.261224 117.417 0.261226C117.417 0.261228 117.417 0.26123 117.418 0.261232C117.418 0.261234 117.418 0.261236 117.418 0.261238C117.418 0.26124 117.418 0.261242 117.418 0.261244C117.418 0.261246 117.418 0.261248 117.418 0.26125C117.418 0.261252 117.418 0.261254 117.419 0.261256C117.419 0.261258 117.419 0.26126 117.419 0.261262C117.419 0.261264 117.419 0.261266 117.419 0.261268C117.419 0.261271 117.419 0.261273 117.419 0.261275C117.419 0.261277 117.42 0.261279 117.42 0.261281C117.42 0.261283 117.42 0.261285 117.42 0.261287C117.42 0.261289 117.42 0.261291 117.42 0.261293C117.42 0.261295 117.42 0.261298 117.42 0.2613C117.42 0.261302 117.421 0.261304 117.421 0.261306C117.421 0.261308 117.421 0.26131 117.421 0.261312C117.421 0.261314 117.421 0.261316 117.421 0.261319C117.421 0.261321 117.421 0.261323 117.421 0.261325C117.422 0.261327 117.422 0.261329 117.422 0.261331C117.422 0.261333 117.422 0.261336 117.422 0.261338C117.422 0.26134 117.422 0.261342 117.422 0.261344C117.422 0.261346 117.422 0.261348 117.423 0.261351C117.423 0.261353 117.423 0.261355 117.423 0.261357C117.423 0.261359 117.423 0.261361 117.423 0.261364C117.423 0.261366 117.423 0.261368 117.423 0.26137C117.423 0.261372 117.424 0.261375 117.424 0.261377C117.424 0.261379 117.424 0.261381 117.424 0.261383C117.424 0.261386 117.424 0.261388 117.424 0.26139C117.424 0.261392 117.424 0.261394 117.424 0.261397C117.425 0.261399 117.425 0.261401 117.425 0.261403C117.425 0.261406 117.425 0.261408 117.425 0.26141C117.425 0.261412 117.425 0.261414 117.425 0.261417C117.425 0.261419 117.425 0.261421 117.426 0.261423C117.426 0.261426 117.426 0.261428 117.426 0.26143C117.426 0.261432 117.426 0.261435 117.426 0.261437C117.426 0.261439 117.426 0.261442 117.426 0.261444C117.427 0.261446 117.427 0.261448 117.427 0.261451C117.427 0.261453 117.427 0.261455 117.427 0.261458C117.427 0.26146 117.427 0.261462 117.427 0.261464C117.427 0.261467 117.427 0.261469 117.428 0.261471C117.428 0.261474 117.428 0.261476 117.428 0.261478C117.428 0.261481 117.428 0.261483 117.428 0.261485C117.428 0.261488 117.428 0.26149 117.428 0.261492C117.429 0.261495 117.429 0.261497 117.429 0.261499C117.429 0.261502 117.429 0.261504 117.429 0.261506C117.429 0.261509 117.429 0.261511 117.429 0.261514C117.429 0.261516 117.43 0.261518 117.43 0.261521C117.43 0.261523 117.43 0.261525 117.43 0.261528C117.43 0.26153 117.43 0.261533 117.43 0.261535C117.43 0.261537 117.43 0.26154 117.431 0.261542C117.431 0.261545 117.431 0.261547 117.431 0.261549C117.431 0.261552 117.431 0.261554 117.431 0.261557C117.431 0.261559 117.431 0.261562 117.431 0.261564C117.432 0.261566 117.432 0.261569 117.432 0.261571C117.432 0.261574 117.432 0.261576 117.432 0.261579C117.432 0.261581 117.432 0.261584 117.432 0.261586C117.432 0.261589 117.433 0.261591 117.433 0.261593C117.433 0.261596 117.433 0.261598 117.433 0.261601C117.433 0.261603 117.433 0.261606 117.433 0.261608C117.433 0.261611 117.434 0.261613 117.434 0.261616C117.434 0.261618 117.434 0.261621 117.434 0.261623C117.434 0.261626 117.434 0.261628 117.434 0.261631C117.434 0.261633 117.434 0.261636 117.435 0.261639C117.435 0.261641 117.435 0.261644 117.435 0.261646C117.435 0.261649 117.435 0.261651 117.435 0.261654C117.435 0.261656 117.435 0.261659 117.436 0.261661L117.388 2.26109ZM117.29 2.25868C113.072 2.20802 108.874 5.29337 107.627 9.44151L105.712 8.86571C107.211 3.87745 112.19 0.197287 117.314 0.258825L117.29 2.25868ZM107.627 9.44151C106.379 13.592 108.179 18.5588 111.705 20.9002L110.598 22.5662C106.331 19.7324 104.213 13.8516 105.712 8.86571L107.627 9.44151ZM111.723 20.9127C113.27 21.9903 115.038 22.4887 116.904 22.5332L116.856 24.5327C114.656 24.4802 112.493 23.8869 110.58 22.5537L111.723 20.9127ZM117.421 0.871083C121.043 0.957569 125.777 3.34921 127.675 7.73978L125.839 8.53332C124.299 4.97024 120.344 2.94144 117.373 2.87051L117.421 0.871083ZM127.677 7.74379C129.612 12.2761 128.348 18.0975 124.58 21.3033L123.284 19.78C126.361 17.1624 127.442 12.2857 125.837 8.5293L127.677 7.74379ZM124.586 21.298C120.885 24.5001 114.993 24.9113 110.932 22.1833L112.048 20.5232C115.345 22.7381 120.245 22.4092 123.278 19.7853L124.586 21.298ZM110.938 22.187C106.825 19.4633 104.874 13.8587 106.311 9.10053L108.226 9.67876C107.037 13.6164 108.687 18.2976 112.042 20.5195L110.938 22.187ZM106.311 9.10053C107.749 4.34014 112.443 0.813455 117.354 0.869552L117.331 2.86942C113.339 2.82382 109.414 5.74336 108.226 9.67876L106.311 9.10053ZM117.366 0.869771L117.421 0.871083L117.373 2.87051L117.318 2.8692L117.366 0.869771Z" fill="black" mask="url(#path-2-inside-1_1_232)"/>
<path d="M113.704 8.97809C113.431 8.91613 113.097 9.07446 112.982 9.29345C112.867 9.51243 112.807 9.73273 112.911 9.95696C113.016 10.1812 113.232 10.3526 113.506 10.3592C113.891 10.3684 114.227 10.0992 114.235 9.76683C114.244 9.37902 113.978 9.04005 113.704 8.97809Z" fill="black"/>
<path d="M121.189 9.16559C120.915 9.10363 120.582 9.26196 120.467 9.48095C120.351 9.69993 120.291 9.92023 120.396 10.1445C120.5 10.3687 120.717 10.4847 120.991 10.5467C121.375 10.5559 121.712 10.2867 121.72 9.95433C121.674 9.56521 121.407 9.22624 121.189 9.16559Z" fill="black"/>
<path d="M117.065 17.8259C120.141 17.8993 120.915 15.4233 120.97 15.4246C121.029 15.2597 120.923 15.0909 120.758 15.0869C120.594 15.0276 120.427 15.1345 120.423 15.3007C120.42 15.4115 119.768 17.3915 117.076 17.3273C114.549 17.2669 113.827 15.3095 113.828 15.2541C113.777 15.0866 113.613 15.0272 113.447 15.0787C113.281 15.1302 113.222 15.2951 113.273 15.4626C113.328 15.4639 114.153 17.7563 117.065 17.8259Z" fill="black"/>
<path d="M50.3394 35.3682L51.6551 40.9844L51.6906 41.1357L51.842 41.1709L57.5896 42.5058L52.581 45.2235L52.4316 45.3046L52.4521 45.4734L53.1389 51.1315L48.7218 47.2195L48.6054 47.1164L48.4614 47.1752L43.1231 49.3571L45.4211 44.2057L45.488 44.0558L45.377 43.9348L41.4152 39.6182L47.2281 40.347L47.3911 40.3674L47.4746 40.226L50.3394 35.3682Z" fill="#252525" stroke="#FCCB06" stroke-width="0.5"/>
<path d="M134.229 66.9815L133.19 74.3733L133.169 74.5273L133.297 74.6148L139.613 78.9165L132.287 79.8549L132.118 79.8765L132.077 80.0413L130.256 87.2006L126.754 80.4096L126.682 80.2714L126.527 80.2743L119.065 80.4105L124.25 75.267L124.366 75.1513L124.306 74.9984L121.54 67.9254L128.224 71.5293L128.369 71.6072L128.498 71.5054L134.229 66.9815Z" fill="#252525" stroke="#FCCB06" stroke-width="0.5"/>
<path d="M79.9269 7.62271L81.9459 16.2405L81.9813 16.3918L82.1327 16.427L90.9621 18.4776L83.2585 22.6578L83.109 22.7388L83.1295 22.9076L84.1859 31.6103L77.4003 25.6007L77.2839 25.4976L77.14 25.5564L68.9486 28.9044L72.4775 20.9939L72.5444 20.844L72.4333 20.723L66.3386 14.0823L75.2812 15.2035L75.4442 15.224L75.5276 15.0825L79.9269 7.62271Z" fill="#252525" stroke="#FCCB06" stroke-width="0.5"/>
<path d="M11.5951 26.5699C10.0442 25.641 8.19906 25.4577 6.25921 26.0403L6.25009 26.0432C4.3322 26.6944 2.93615 27.9148 2.21257 29.5714C1.57127 31.0402 1.50598 32.7497 2.02912 34.3847C2.55226 36.0198 3.59776 37.3754 4.97216 38.1978C6.52315 39.1271 8.36831 39.3104 10.3082 38.7279L10.3173 38.7249C12.235 38.0732 13.6312 36.8534 14.3548 35.1968C14.9961 33.7279 15.0614 32.0184 14.5383 30.3834C14.0151 28.7484 12.9699 27.3936 11.5951 26.5699ZM13.0647 30.8538C13.7993 33.1498 13.1024 36.1267 9.83697 37.2387C6.53305 38.2286 4.23715 36.2099 3.50251 33.9138C2.76787 31.6178 3.465 28.6414 6.73024 27.529C10.0345 26.54 12.3299 28.5573 13.0647 30.8538Z" fill="#FCCB06"/>
<path d="M80.0602 63.1343C79.3615 63.4727 75.2544 59.4909 74.6889 59.1966C73.4562 58.1771 74.9979 56.293 76.2412 57.303L79.7683 60.1938L86.2697 52.2598C87.2875 51.0279 89.1732 52.5676 88.1633 53.8115C87.8286 54.0124 80.5053 63.712 80.0602 63.1343Z" fill="#FCCB06"/>
<path d="M121.529 44.7046C120.83 45.043 116.723 41.0613 116.158 40.7669C114.925 39.7474 116.467 37.8633 117.71 38.8733L121.237 41.7641L127.738 33.8301C128.756 32.5982 130.642 34.1379 129.632 35.3818C129.297 35.5827 121.974 45.2823 121.529 44.7046Z" fill="#FCCB06"/>
<path d="M111.158 53.4863C110.054 52.8249 108.74 52.6944 107.359 53.1092L107.353 53.1112C105.987 53.5749 104.993 54.4439 104.478 55.6234C104.021 56.6693 103.975 57.8865 104.347 59.0507C104.72 60.2149 105.464 61.1802 106.443 61.7657C107.547 62.4274 108.861 62.5579 110.242 62.1431L110.249 62.141C111.614 61.677 112.608 60.8084 113.123 59.6289C113.58 58.583 113.627 57.3658 113.254 56.2016C112.882 55.0374 112.137 54.0728 111.158 53.4863ZM112.205 56.5365C112.728 58.1714 112.232 60.291 109.907 61.0828C107.554 61.7876 105.919 60.3502 105.396 58.7154C104.873 57.0806 105.37 54.9613 107.694 54.1692C110.047 53.465 111.682 54.9014 112.205 56.5365Z" fill="#FCCB06"/>
<mask id="path-14-inside-2_1_232" fill="white">
<path fill-rule="evenodd" clip-rule="evenodd" d="M28.8377 22.0834L25.3496 8.57766C25.2546 8.2113 25.2298 7.83057 25.2767 7.45725C25.3236 7.08392 25.4413 6.72532 25.623 6.40192C25.8046 6.07853 26.0468 5.79669 26.3355 5.57251C26.6243 5.34833 26.954 5.1862 27.3059 5.0954L40.2738 1.75262C40.6255 1.66133 40.9925 1.64316 41.3538 1.69915C41.7152 1.75515 42.0638 1.8842 42.3796 2.07892C42.6955 2.27365 42.9724 2.53023 43.1946 2.83399C43.4168 3.13775 43.5799 3.48272 43.6745 3.84917L47.1627 17.3549C47.2577 17.7212 47.2825 18.102 47.2355 18.4753C47.1886 18.8486 47.071 19.2072 46.8893 19.5306C46.7076 19.854 46.4655 20.1359 46.1767 20.36C45.888 20.5842 45.5582 20.7463 45.2064 20.8371L41.1609 21.8802L39.9559 27.2363L36.1116 23.1821L32.2387 24.1807C31.8869 24.2719 31.5198 24.2899 31.1585 24.2339C30.7971 24.1778 30.4485 24.0487 30.1327 23.8539C29.8168 23.6591 29.5399 23.4025 29.3177 23.0987C29.0955 22.7949 28.9324 22.4499 28.8377 22.0834Z"/>
</mask>
<path fill-rule="evenodd" clip-rule="evenodd" d="M28.8377 22.0834L25.3496 8.57766C25.2546 8.2113 25.2298 7.83057 25.2767 7.45725C25.3236 7.08392 25.4413 6.72532 25.623 6.40192C25.8046 6.07853 26.0468 5.79669 26.3355 5.57251C26.6243 5.34833 26.954 5.1862 27.3059 5.0954L40.2738 1.75262C40.6255 1.66133 40.9925 1.64316 41.3538 1.69915C41.7152 1.75515 42.0638 1.8842 42.3796 2.07892C42.6955 2.27365 42.9724 2.53023 43.1946 2.83399C43.4168 3.13775 43.5799 3.48272 43.6745 3.84917L47.1627 17.3549C47.2577 17.7212 47.2825 18.102 47.2355 18.4753C47.1886 18.8486 47.071 19.2072 46.8893 19.5306C46.7076 19.854 46.4655 20.1359 46.1767 20.36C45.888 20.5842 45.5582 20.7463 45.2064 20.8371L41.1609 21.8802L39.9559 27.2363L36.1116 23.1821L32.2387 24.1807C31.8869 24.2719 31.5198 24.2899 31.1585 24.2339C30.7971 24.1778 30.4485 24.0487 30.1327 23.8539C29.8168 23.6591 29.5399 23.4025 29.3177 23.0987C29.0955 22.7949 28.9324 22.4499 28.8377 22.0834Z" fill="#252525"/>
<path d="M25.3496 8.57766L25.8337 8.45272L25.8336 8.45224L25.3496 8.57766ZM28.8377 22.0834L29.3219 21.9584L29.3219 21.9584L28.8377 22.0834ZM25.2767 7.45725L25.7728 7.51966L25.7728 7.51966L25.2767 7.45725ZM25.623 6.40192L26.0589 6.64684L26.0589 6.64684L25.623 6.40192ZM26.3355 5.57251L26.6422 5.96744L26.6422 5.96744L26.3355 5.57251ZM27.3059 5.0954L27.181 4.61125L27.1808 4.61129L27.3059 5.0954ZM40.2738 1.75262L40.3987 2.23677L40.3995 2.23656L40.2738 1.75262ZM41.3538 1.69915L41.4303 1.20508L41.4303 1.20508L41.3538 1.69915ZM42.3796 2.07892L42.642 1.65335L42.642 1.65335L42.3796 2.07892ZM43.1946 2.83399L43.5982 2.53887L43.5982 2.53887L43.1946 2.83399ZM43.6745 3.84917L43.1904 3.9741L43.1904 3.97411L43.6745 3.84917ZM47.1627 17.3549L46.6786 17.4798L46.6787 17.4803L47.1627 17.3549ZM46.8893 19.5306L46.4533 19.2857L46.4533 19.2857L46.8893 19.5306ZM46.1767 20.36L45.87 19.9651L45.87 19.9651L46.1767 20.36ZM45.2064 20.8371L45.3313 21.3213L45.3314 21.3213L45.2064 20.8371ZM41.1609 21.8802L41.036 21.3961L40.7402 21.4723L40.6731 21.7704L41.1609 21.8802ZM39.9559 27.2363L39.5931 27.5803L40.238 28.2605L40.4437 27.3462L39.9559 27.2363ZM36.1116 23.1821L36.4745 22.8381L36.2718 22.6244L35.9867 22.6979L36.1116 23.1821ZM32.2387 24.1807L32.1137 23.6965L32.1131 23.6967L32.2387 24.1807ZM30.1327 23.8539L29.8702 24.2794L29.8702 24.2794L30.1327 23.8539ZM29.3177 23.0987L28.9141 23.3938L28.9141 23.3938L29.3177 23.0987ZM24.8654 8.7026L28.3536 22.2083L29.3219 21.9584L25.8337 8.45272L24.8654 8.7026ZM24.7806 7.39484C24.7257 7.83135 24.7547 8.2758 24.8655 8.70308L25.8336 8.45224C25.7544 8.14679 25.7339 7.8298 25.7728 7.51966L24.7806 7.39484ZM25.187 6.157C24.9732 6.53759 24.8354 6.9583 24.7806 7.39484L25.7728 7.51966C25.8118 7.20955 25.9094 6.91304 26.0589 6.64684L25.187 6.157ZM26.0289 5.17757C25.6866 5.44325 25.4008 5.77636 25.187 6.157L26.0589 6.64684C26.2084 6.3807 26.4069 6.15012 26.6422 5.96744L26.0289 5.17757ZM27.1808 4.61129C26.7626 4.71923 26.3711 4.91186 26.0289 5.17757L26.6422 5.96744C26.8775 5.78479 27.1455 5.65317 27.4309 5.57951L27.1808 4.61129ZM40.1489 1.26847L27.181 4.61125L27.4308 5.57955L40.3987 2.23677L40.1489 1.26847ZM41.4303 1.20508C41.002 1.13871 40.5662 1.16015 40.1481 1.26868L40.3995 2.23656C40.6848 2.16251 40.983 2.14762 41.2774 2.19323L41.4303 1.20508ZM42.642 1.65335C42.2702 1.42415 41.8586 1.27143 41.4303 1.20508L41.2774 2.19323C41.5718 2.23886 41.8573 2.34424 42.1172 2.5045L42.642 1.65335ZM43.5982 2.53887C43.3384 2.18367 43.0137 1.88251 42.642 1.65335L42.1172 2.5045C42.3772 2.66478 42.6065 2.87679 42.791 3.12911L43.5982 2.53887ZM44.1587 3.72424C44.0483 3.29683 43.858 2.89404 43.5982 2.53887L42.791 3.12911C42.9756 3.38145 43.1115 3.66861 43.1904 3.9741L44.1587 3.72424ZM47.6468 17.2299L44.1586 3.72423L43.1904 3.97411L46.6786 17.4798L47.6468 17.2299ZM47.7317 18.5377C47.7865 18.1012 47.7575 17.6567 47.6467 17.2295L46.6787 17.4803C46.7579 17.7857 46.7784 18.1027 46.7394 18.4129L47.7317 18.5377ZM47.3253 19.7755C47.5391 19.395 47.6768 18.9742 47.7317 18.5377L46.7394 18.4129C46.7005 18.723 46.6029 19.0195 46.4533 19.2857L47.3253 19.7755ZM46.4834 20.755C46.8256 20.4893 47.1114 20.1562 47.3253 19.7755L46.4533 19.2857C46.3038 19.5518 46.1053 19.7824 45.87 19.9651L46.4834 20.755ZM45.3314 21.3213C45.7497 21.2133 46.1412 21.0207 46.4834 20.755L45.87 19.9651C45.6348 20.1477 45.3668 20.2794 45.0814 20.353L45.3314 21.3213ZM41.2859 22.3643L45.3313 21.3213L45.0815 20.353L41.036 21.3961L41.2859 22.3643ZM40.6731 21.7704L39.4681 27.1265L40.4437 27.3462L41.6488 21.99L40.6731 21.7704ZM40.3187 26.8924L36.4745 22.8381L35.7488 23.526L39.5931 27.5803L40.3187 26.8924ZM32.3636 24.6648L36.2365 23.6662L35.9867 22.6979L32.1137 23.6965L32.3636 24.6648ZM31.0819 24.7279C31.5102 24.7944 31.9461 24.773 32.3642 24.6646L32.1131 23.6967C31.8278 23.7707 31.5295 23.7855 31.2351 23.7398L31.0819 24.7279ZM29.8702 24.2794C30.242 24.5087 30.6536 24.6615 31.0819 24.7279L31.2351 23.7398C30.9406 23.6941 30.6551 23.5887 30.3951 23.4283L29.8702 24.2794ZM28.9141 23.3938C29.1739 23.749 29.4985 24.0502 29.8702 24.2794L30.3951 23.4283C30.1351 23.268 29.9058 23.0559 29.7213 22.8036L28.9141 23.3938ZM28.3536 22.2083C28.464 22.6357 28.6543 23.0386 28.9141 23.3938L29.7213 22.8036C29.5367 22.5512 29.4008 22.264 29.3219 21.9584L28.3536 22.2083Z" fill="#FCCB06" mask="url(#path-14-inside-2_1_232)"/>
<path d="M35.8671 10.6949L36.3247 9.87973L36.3248 9.87949C36.6399 9.31971 37.1576 8.91941 37.7626 8.7634C38.3677 8.60737 39.0147 8.7074 39.5616 9.04509C40.1089 9.38302 40.5107 9.93132 40.6758 10.5706C40.8408 11.2097 40.7547 11.8837 40.4394 12.444C40.4394 12.4441 40.4394 12.4441 40.4394 12.4442L39.9784 13.2602L39.9781 13.2607L37.4919 17.6867L33.1639 15.0149L33.1634 15.0146L32.3673 14.5206L32.367 14.5204C31.8205 14.1822 31.4194 13.6342 31.2545 12.9955C31.0895 12.3568 31.1753 11.6834 31.4898 11.1232L31.5348 11.0429C31.8533 10.527 32.3492 10.1587 32.9236 10.0106C33.528 9.8547 34.1743 9.95421 34.721 10.2908C34.7211 10.2909 34.7213 10.291 34.7214 10.2911L35.5173 10.785L35.7393 10.9227L35.8671 10.6949Z" fill="#252525" stroke="#FCCB06" stroke-width="0.5"/>
</svg>
