<svg width="178" height="52" viewBox="0 0 178 52" fill="none" xmlns="http://www.w3.org/2000/svg">
<path d="M56.4054 14.0144C55.7681 11.6693 53.9017 9.82038 51.5346 9.18902C47.2101 8.01651 29.912 8.01651 29.912 8.01651C29.912 8.01651 12.614 8.01651 8.28944 9.14393C5.96786 9.77528 4.05597 11.6693 3.41867 14.0144C2.28064 18.2985 2.28064 27.1826 2.28064 27.1826C2.28064 27.1826 2.28064 36.1117 3.41867 40.3508C4.05597 42.6958 5.92234 44.5448 8.28944 45.1761C12.6595 46.3486 29.912 46.3486 29.912 46.3486C29.912 46.3486 47.2101 46.3486 51.5346 45.2212C53.9017 44.5899 55.7681 42.7409 56.4054 40.3959C57.5434 36.1117 57.5434 27.2277 57.5434 27.2277C57.5434 27.2277 57.5889 18.2985 56.4054 14.0144Z" fill="#FF0000"/>
<path d="M24.4009 18.976V35.3912L38.7856 27.1836L24.4009 18.976Z" fill="white"/>
<path d="M82.5481 42.9197C81.4556 42.1981 80.6817 41.0707 80.2265 39.4923C79.7713 37.9591 79.5437 35.8846 79.5437 33.3592V29.8868C79.5437 27.3163 79.8168 25.2418 80.3176 23.6634C80.8638 22.085 81.6832 20.9576 82.7757 20.2361C83.9137 19.5145 85.3704 19.1538 87.1913 19.1538C88.9666 19.1538 90.4233 19.5145 91.5158 20.2361C92.6083 20.9576 93.3822 22.1301 93.8829 23.6634C94.3836 25.1967 94.6567 27.2712 94.6567 29.8868V33.3592C94.6567 35.9297 94.4291 37.9591 93.9284 39.5374C93.4277 41.0707 92.6538 42.2432 91.5613 42.9648C90.4688 43.6863 88.9666 44.0471 87.1002 44.0471C85.1883 44.002 83.6406 43.6412 82.5481 42.9197ZM88.6935 39.1316C89.0121 38.3649 89.1487 37.0571 89.1487 35.2984V27.8123C89.1487 26.0986 89.0121 24.8359 88.6935 24.0242C88.3748 23.2125 87.8741 22.8517 87.1002 22.8517C86.3719 22.8517 85.8256 23.2576 85.5525 24.0242C85.2339 24.8359 85.0973 26.0986 85.0973 27.8123V35.2984C85.0973 37.0571 85.2339 38.3649 85.5525 39.1316C85.8256 39.8982 86.3719 40.3041 87.1457 40.3041C87.8741 40.3041 88.3748 39.9433 88.6935 39.1316Z" fill="white"/>
<path d="M166.574 33.4045V34.6221C166.574 36.1554 166.62 37.3279 166.711 38.0945C166.802 38.8612 166.984 39.4474 167.303 39.7631C167.576 40.1239 168.031 40.3043 168.668 40.3043C169.488 40.3043 170.034 39.9886 170.353 39.3572C170.671 38.7259 170.808 37.6887 170.853 36.2005L175.542 36.471C175.588 36.6965 175.588 36.9671 175.588 37.3279C175.588 39.5376 174.996 41.2062 173.767 42.2885C172.538 43.3708 170.808 43.912 168.577 43.912C165.892 43.912 164.025 43.0552 162.933 41.3866C161.84 39.718 161.294 37.1475 161.294 33.63V29.436C161.294 25.8282 161.84 23.2126 162.978 21.5441C164.116 19.8755 166.028 19.0637 168.714 19.0637C170.58 19.0637 172.037 19.4245 173.038 20.101C174.04 20.7774 174.723 21.8597 175.132 23.2577C175.542 24.7008 175.724 26.6851 175.724 29.2105V33.3143H166.574V33.4045ZM167.257 23.3028C166.984 23.6636 166.802 24.2048 166.711 24.9714C166.62 25.738 166.574 26.9106 166.574 28.4889V30.2026H170.58V28.4889C170.58 26.9557 170.535 25.7831 170.444 24.9714C170.353 24.1597 170.125 23.6185 169.852 23.3028C169.579 22.9872 169.124 22.8068 168.577 22.8068C167.94 22.7617 167.53 22.9421 167.257 23.3028Z" fill="white"/>
<path d="M69.2511 32.9544L63.0602 10.7218H68.4772L70.6622 20.7783C71.2085 23.2586 71.6182 25.3782 71.8913 27.1369H72.0279C72.2099 25.8742 72.6196 23.7998 73.2569 20.8234L75.533 10.7218H80.95L74.6681 32.9544V43.5972H69.2966V32.9544H69.2511Z" fill="white"/>
<path d="M112.268 19.6039V43.6404H107.989L107.534 40.7091H107.397C106.259 42.9188 104.484 44.0463 102.162 44.0463C100.569 44.0463 99.3854 43.5051 98.6115 42.4679C97.8377 41.4306 97.4735 39.8072 97.4735 37.5523V19.6039H102.936V37.2367C102.936 38.319 103.073 39.0856 103.3 39.5366C103.528 39.9876 103.938 40.213 104.484 40.213C104.939 40.213 105.394 40.0777 105.849 39.7621C106.305 39.4915 106.623 39.1307 106.805 38.6798V19.6039H112.268Z" fill="white"/>
<path d="M140.266 19.6039V43.6404H135.987L135.532 40.7091H135.395C134.257 42.9188 132.482 44.0463 130.16 44.0463C128.567 44.0463 127.383 43.5051 126.609 42.4679C125.836 41.4306 125.471 39.8072 125.471 37.5523V19.6039H130.934V37.2367C130.934 38.319 131.071 39.0856 131.298 39.5366C131.526 39.9876 131.935 40.213 132.482 40.213C132.937 40.213 133.392 40.0777 133.847 39.7621C134.303 39.4915 134.621 39.1307 134.803 38.6798V19.6039H140.266Z" fill="white"/>
<path d="M127.113 15.0961H121.696V43.5972H116.37V15.0961H110.953V10.7218H127.113V15.0961Z" fill="white"/>
<path d="M158.344 23.4379C158.025 21.9046 157.479 20.8223 156.751 20.1458C156.022 19.4694 154.975 19.1086 153.701 19.1086C152.699 19.1086 151.743 19.3792 150.878 19.9654C150.014 20.5066 149.331 21.2732 148.876 22.1752H148.83V9.50302H143.55V43.5961H148.056L148.602 41.3412H148.739C149.149 42.153 149.786 42.7843 150.651 43.2804C151.516 43.7314 152.426 44.0019 153.473 44.0019C155.34 44.0019 156.66 43.1451 157.525 41.4765C158.389 39.808 158.845 37.1473 158.845 33.5846V29.7965C158.799 27.0456 158.663 24.9261 158.344 23.4379ZM153.337 33.2239C153.337 34.9826 153.246 36.3355 153.109 37.3276C152.972 38.3198 152.699 39.0413 152.381 39.4472C152.017 39.8531 151.561 40.0785 151.015 40.0785C150.56 40.0785 150.15 39.9883 149.786 39.7629C149.422 39.5374 149.103 39.2217 148.876 38.8158V25.1966C149.058 24.5653 149.376 24.0241 149.831 23.5732C150.287 23.1673 150.787 22.9418 151.288 22.9418C151.834 22.9418 152.29 23.1673 152.563 23.5732C152.881 24.0241 153.064 24.7457 153.2 25.7378C153.337 26.775 153.382 28.2181 153.382 30.0671V33.2239H153.337Z" fill="white"/>
</svg>
