<svg width="24" height="24" viewBox="0 0 24 24" fill="none" xmlns="http://www.w3.org/2000/svg">
<path d="M1.17207 23.9997C0.94027 23.9998 0.713662 23.9311 0.520911 23.8023C0.328161 23.6735 0.177928 23.4905 0.0892148 23.2763C0.000501983 23.0622 -0.022705 22.8265 0.0225293 22.5992C0.0677636 22.3718 0.179407 22.163 0.343338 21.9991L21.9992 0.343273C22.219 0.123479 22.5171 0 22.8279 0C23.1388 0 23.4369 0.123479 23.6567 0.343273C23.8765 0.563067 23.9999 0.861172 23.9999 1.17201C23.9999 1.48284 23.8765 1.78095 23.6567 2.00074L2.00081 23.6566C1.89208 23.7656 1.76289 23.852 1.62067 23.9108C1.47845 23.9697 1.326 23.9999 1.17207 23.9997Z" fill="#39454D"/>
<path d="M22.8279 23.9997C22.674 23.9999 22.5215 23.9697 22.3793 23.9108C22.2371 23.852 22.1079 23.7656 21.9992 23.6566L0.343334 2.00074C0.12354 1.78095 6.10352e-05 1.48284 6.10352e-05 1.17201C6.10352e-05 0.861172 0.12354 0.563067 0.343334 0.343273C0.563128 0.123479 0.861233 0 1.17207 0C1.4829 0 1.78101 0.123479 2.0008 0.343273L23.6567 21.9991C23.8206 22.163 23.9322 22.3718 23.9775 22.5992C24.0227 22.8265 23.9995 23.0622 23.9108 23.2763C23.8221 23.4905 23.6718 23.6735 23.4791 23.8023C23.2863 23.9311 23.0597 23.9998 22.8279 23.9997Z" fill="#39454D"/>
</svg>
