<svg width="24" height="24" fill="none" xmlns="http://www.w3.org/2000/svg"><g clip-path="url(#a)" fill="#F0F6FC" fill-opacity=".6"><path d="M7.383 5.56c.338-.56 1.434-.393 2.012-.384.039 0 .058.02.058.059v8.675c0 .04-.02.06-.06.06l-2.151.017a.025.025 0 0 1-.022-.015 1142.203 1142.203 0 0 1-.042-6.863c-.003-.574-.11-1.03.205-1.549ZM14.303 6.394c.933-.021 2.252-.235 2.25.967-.003 2.198-.001 4.388.006 6.568a.06.06 0 0 1-.017.043.063.063 0 0 1-.044.02L14.353 14a.104.104 0 0 1-.098-.065.105.105 0 0 1-.008-.04V6.45c0-.036.019-.055.056-.055ZM10.801 14.004a.077.077 0 0 1-.077-.078V8.407c0-.2.078-.391.218-.532a.74.74 0 0 1 .527-.221h.762a.738.738 0 0 1 .527.22.755.755 0 0 1 .218.533v5.519a.078.078 0 0 1-.078.078h-2.097ZM8.256 16.126a.695.695 0 1 0 0-1.39.695.695 0 0 0 0 1.39ZM15.422 16.126a.695.695 0 1 0 0-1.39.695.695 0 0 0 0 1.39ZM11.777 16.73a.928.928 0 1 0 0-1.857.928.928 0 0 0 0 1.856ZM8.065 16.422c.282.08.686-.196.952-.007.36.255.578.592.652 1.01a.164.164 0 0 1-.13.191 6.67 6.67 0 0 1-2.505.011c-.112-.02-.163-.087-.152-.201.042-.417.251-.753.627-1.009.224-.153.327-.06.556.005ZM15.914 16.332c.405-.133.88.8.901 1.099.007.112-.044.178-.154.197a6.91 6.91 0 0 1-2.44.003c-.166-.03-.227-.124-.183-.285.12-.445.504-1.12 1.066-.965.242.066.513.05.81-.049ZM12.063 17.132c.817-.46 1.474.688 1.583 1.337a.206.206 0 0 1-.158.234 8.22 8.22 0 0 1-3.358.016c-.207-.04-.28-.171-.22-.391a2.064 2.064 0 0 1 1.1-1.346.126.126 0 0 1 .111 0c.262.128.538.188.828.182.04 0 .08-.012.114-.032Z"/></g><circle cx="12" cy="12" r="11.429" stroke="#F0F6FC" stroke-opacity=".6" stroke-width="1.143"/><defs><clipPath id="a"><path fill="#fff" transform="translate(6.857 5.143)" d="M0 0h10.286v13.714H0z"/></clipPath></defs></svg>