<svg width="48" height="48" viewBox="0 0 48 48" fill="none" xmlns="http://www.w3.org/2000/svg">
<path d="M36.786 20.0201C36.786 10.76 29.2791 3.25354 20.0191 3.25354C10.7591 3.25354 3.25256 10.7599 3.25256 20.0201C3.25256 29.2803 10.759 36.7869 20.0191 36.7869C29.2746 36.7764 36.7751 29.2759 36.786 20.0201ZM4.84938 20.0201C4.84938 11.6422 11.6413 4.85026 20.0191 4.85026C28.3973 4.85026 35.1888 11.6422 35.1888 20.0201C35.1888 28.3982 28.3973 35.1902 20.0191 35.1902C11.6451 35.1803 4.85876 28.3944 4.84938 20.0201Z" fill="#7B6300"/>
<path d="M43.0797 38.5637L43.0782 38.5613L43.0759 38.5594L41.3847 36.8682C41.237 36.7194 41.0613 36.6014 40.8676 36.521C40.674 36.4406 40.4663 36.3995 40.2566 36.4H40.2551C40.1168 36.4019 39.9794 36.4219 39.8465 36.4593L37.8399 34.4527C37.9129 34.1832 37.9136 33.8993 37.8421 33.6294C37.7705 33.3595 37.6293 33.1133 37.4324 32.9153L36.205 31.6826C42.2989 23.2311 40.8797 11.5163 32.9439 4.76471C25.0079 -1.98685 13.2171 -1.51068 5.85146 5.85877C-1.51413 13.2282 -1.9843 25.0194 4.77141 32.9519C11.5266 40.8843 23.2423 42.2977 31.6908 36.1995L32.9151 37.4322C33.111 37.6322 33.3572 37.7756 33.6279 37.8473C33.8985 37.9189 34.1835 37.9162 34.4527 37.8392L36.4592 39.8462C36.3824 40.1154 36.3799 40.4004 36.4517 40.6709C36.5236 40.9415 36.6672 41.1877 36.8674 41.3833L38.5601 43.0757L38.5617 43.0779L38.5639 43.0794L42.514 47.0294C42.9081 47.4358 43.4032 47.7301 43.9485 47.8821C44.4938 48.0342 45.0697 48.0385 45.6172 47.8947C46.1647 47.751 46.6642 47.4644 47.0645 47.0641C47.4648 46.6638 47.7515 46.1644 47.8953 45.6169C48.0391 45.0693 48.0347 44.4934 47.8827 43.9482C47.7307 43.4029 47.4364 42.9078 47.0301 42.5136L43.0797 38.5637ZM1.65755 20.0206C1.65146 11.9298 6.94175 4.78811 14.6836 2.43639C22.4254 0.0850673 30.7942 3.07721 35.2892 9.80459C39.7845 16.5321 39.3472 25.4087 34.2124 31.6614C34.1932 31.6852 34.1735 31.7082 34.1543 31.7316C33.4258 32.6089 32.6179 33.4171 31.7409 34.146C31.7122 34.1698 31.6835 34.194 31.6548 34.2178C26.1676 38.7215 18.5754 39.657 12.1592 36.6205C5.74298 33.5837 1.6533 27.1191 1.65745 20.0206H1.65755ZM33.2791 34.924C33.4309 34.7882 33.5805 34.6501 33.7281 34.5098C33.9979 34.2545 34.2603 33.9919 34.5156 33.7219C34.6546 33.5758 34.7913 33.4277 34.9257 33.2774C35.0224 33.1691 35.127 33.0682 35.2215 32.9575L36.302 34.043L36.3035 34.0452L34.0454 36.3033V36.3037L32.9641 35.2156C33.0729 35.1227 33.1722 35.0192 33.2791 34.924ZM36.8677 35.7387L38.5612 37.4321L37.4323 38.561L35.7388 36.8676L36.8677 35.7387ZM40.255 37.9963L41.3842 39.126L39.1262 41.384L37.9969 40.2545L40.255 37.9963ZM45.9008 45.9005C45.2689 46.5037 44.2746 46.5037 43.6426 45.9005L40.2554 42.5129L42.5131 40.2552L45.9008 43.6425C46.2001 43.942 46.3682 44.3481 46.3682 44.7715C46.3682 45.195 46.2001 45.6011 45.9008 45.9005Z" fill="#7B6300"/>
<path d="M23.8553 30.9434C24.2591 30.3285 24.7382 29.7664 25.2813 29.2701C25.9026 28.7741 26.3876 28.1284 26.6909 27.3936C26.9941 26.6588 27.1056 25.8589 27.0149 25.0692C27.9226 24.4221 28.5409 23.4454 28.7377 22.3481C29.0526 19.6353 28.3098 19.2876 28.03 19.1565C27.8614 19.0775 27.678 19.0352 27.4918 19.0326C27.493 18.9019 27.4896 18.7573 27.4888 18.6209C29.308 17.7666 30.4017 16.5815 30.4017 15.2306C30.4017 13.5938 28.8246 12.1836 26.0793 11.3067C25.8733 10.2362 25.5522 9.19122 25.1215 8.18982C25.026 7.97763 24.8853 7.78883 24.7093 7.63658C24.5334 7.48433 24.3263 7.37228 24.1026 7.30826C23.8789 7.24426 23.6439 7.22986 23.414 7.26607C23.1841 7.30227 22.965 7.3882 22.7717 7.51787C22.6452 7.60295 22.5073 7.70447 22.3567 7.8144C21.7085 8.39793 20.8903 8.75845 20.0223 8.8431C19.1542 8.75846 18.336 8.39779 17.688 7.81401C17.5376 7.70408 17.3994 7.60286 17.2729 7.51787C17.0798 7.38824 16.8607 7.30229 16.631 7.26602C16.4013 7.22975 16.1664 7.24404 15.9427 7.30788C15.7191 7.37185 15.5122 7.48383 15.3363 7.63603C15.1605 7.78822 15.02 7.97695 14.9246 8.18904C14.4933 9.1906 14.1718 10.2359 13.9657 11.3067C11.22 12.1836 9.64288 13.5938 9.64288 15.2306C9.64288 16.5815 10.7369 17.7666 12.5561 18.6205C12.5555 18.7565 12.5517 18.9008 12.5527 19.0314C12.3667 19.0345 12.1834 19.0771 12.015 19.1565C11.7347 19.2876 10.9919 19.6353 11.3099 22.375C11.5125 23.462 12.1292 24.4279 13.0302 25.0689C12.9393 25.8587 13.0507 26.6585 13.3539 27.3934C13.6571 28.1283 14.142 28.7741 14.7633 29.2701C15.3066 29.7661 15.7857 30.3283 16.1894 30.9434C16.8294 31.8536 17.4915 32.7955 19.0758 32.7955H20.9687C22.5533 32.7955 23.2151 31.8536 23.8553 30.9434ZM14.1857 20.0595C14.1706 19.7932 14.157 19.522 14.1525 19.2294C15.5149 19.6279 16.9178 19.8721 18.3348 19.9575C18.4114 19.9632 18.4881 19.9681 18.5652 19.9729C18.7498 19.984 18.9341 19.9949 19.1222 20.0017C19.1566 20.0028 19.1898 20.0066 19.2242 20.0077V21.1868C18.4685 21.5097 17.6495 21.657 16.8286 21.6177C16.2916 21.6058 15.7666 21.4563 15.3038 21.1835C14.8411 20.9106 14.4561 20.5236 14.1857 20.0595ZM20.8206 20.0077C20.8554 20.0066 20.8883 20.0029 20.9226 20.0017C21.1106 19.9949 21.2949 19.984 21.4796 19.9729C21.557 19.9681 21.6333 19.9632 21.71 19.9575C23.1269 19.8721 24.5298 19.6279 25.8923 19.2294C25.8877 19.522 25.8745 19.7932 25.859 20.0595C25.5885 20.5235 25.2035 20.9104 24.7408 21.1832C24.278 21.4561 23.7531 21.6056 23.2161 21.6177C22.3956 21.6563 21.577 21.51 20.8206 21.1898V20.0077ZM16.3842 8.84504C16.4934 8.91832 16.6127 9.00553 16.7422 9.10028C17.6588 9.89495 18.8114 10.3658 20.0223 10.4403C21.2332 10.366 22.386 9.89523 23.3027 9.10067C23.4319 9.00553 23.5512 8.91832 23.6675 8.84881C24.1234 9.93022 24.4448 11.0635 24.6246 12.2232C24.6529 12.3966 24.6751 12.5684 24.6967 12.7403C24.7122 12.8615 24.7299 12.9808 24.7423 13.1048C24.7658 13.3374 24.7801 13.5669 24.7914 13.7951C24.7944 13.8578 24.8017 13.9186 24.804 13.9817C23.5752 14.645 22.2266 15.057 20.8369 15.1936C20.5661 15.2181 20.2942 15.2305 20.0223 15.2306C19.2505 15.2276 18.4819 15.1305 17.7336 14.9417C16.8659 14.7258 16.0285 14.4027 15.2406 13.9798C15.2426 13.9175 15.2497 13.8575 15.2527 13.7955C15.2644 13.5663 15.2788 13.3362 15.3022 13.1029C15.3147 12.9797 15.3324 12.8611 15.3478 12.7407C15.3694 12.5688 15.392 12.3966 15.4197 12.2232C15.5994 11.0614 15.9234 9.92658 16.3842 8.84504ZM11.24 15.2306C11.24 14.4859 12.1733 13.6909 13.6975 13.0847C13.6926 13.1376 13.6945 13.1881 13.6903 13.2407C13.6578 13.6338 13.6352 14.0304 13.6352 14.4322C13.6352 14.5637 13.6676 14.6931 13.7296 14.8089C13.7916 14.9248 13.8812 15.0236 13.9905 15.0965C15.8079 16.2077 17.8923 16.8058 20.0223 16.8274C22.1523 16.8058 24.2367 16.2077 26.054 15.0965C26.1634 15.0237 26.2531 14.9249 26.3152 14.809C26.3773 14.6931 26.4098 14.5637 26.4098 14.4322C26.4098 14.0304 26.3867 13.6338 26.3547 13.2403C26.3505 13.1878 26.352 13.1376 26.3475 13.0847C27.8718 13.6909 28.8049 14.4859 28.8049 15.2306C28.8049 15.9754 27.8842 16.7647 26.3482 17.372C26.2421 17.4143 26.1295 17.4524 26.0192 17.4924C24.4255 18.0315 22.7618 18.3361 21.0805 18.3966C21.0333 18.3988 20.9873 18.403 20.9396 18.4053C20.639 18.4178 20.3331 18.4238 20.0223 18.4242C19.7114 18.4246 19.4059 18.4181 19.1053 18.4053C19.0574 18.403 19.0113 18.3988 18.9641 18.3966C17.2827 18.3361 15.6191 18.0315 14.0253 17.4924C13.9154 17.4524 13.8025 17.4143 13.6967 17.372C12.1604 16.7647 11.24 15.9762 11.24 15.2306ZM17.4954 30.0246C17.0201 29.3055 16.4564 28.649 15.8173 28.0706C14.5347 26.9433 14.5793 26.0372 14.6417 24.7834L14.6481 24.6541C14.6545 24.5149 14.6246 24.3765 14.5611 24.2524C14.4977 24.1284 14.4029 24.023 14.2863 23.9468C14.239 23.9158 14.1885 23.8902 14.1355 23.8705C13.819 23.6907 13.5444 23.4455 13.3301 23.1512C13.1157 22.8569 12.9666 22.5203 12.8927 22.1639C12.8451 21.7511 12.8281 21.3354 12.8417 20.9201C13.2551 21.6112 13.8385 22.185 14.5364 22.5867C15.2344 22.9884 16.0235 23.2046 16.8287 23.2149C17.9295 23.2653 19.0259 23.0456 20.0223 22.5752C21.0188 23.0456 22.1153 23.2652 23.2162 23.2149C24.0214 23.2046 24.8105 22.9882 25.5084 22.5864C26.2063 22.1847 26.7896 21.6109 27.2029 20.9198C27.2164 21.3243 27.201 21.7288 27.1565 22.131C27.0865 22.4938 26.9387 22.8372 26.7234 23.1375C26.508 23.4377 26.2302 23.6878 25.909 23.8705C25.8562 23.8902 25.8057 23.9159 25.7587 23.9469C25.642 24.023 25.5472 24.1284 25.4837 24.2524C25.4203 24.3765 25.3903 24.5149 25.3969 24.6541L25.4032 24.7833C25.4656 26.0368 25.5098 26.9432 24.2272 28.0705C23.5882 28.649 23.0245 29.3055 22.5493 30.0246C21.9228 30.9167 21.6893 31.1988 20.9687 31.1988H19.0759C18.3554 31.1988 18.1224 30.9167 17.4954 30.0246Z" fill="#7B6300"/>
<path d="M22.9799 26.6458C22.8308 26.4963 22.6286 26.4118 22.4174 26.4108C22.2062 26.4097 22.0032 26.4922 21.8526 26.6402C21.5731 26.9297 21.2121 27.1274 20.8177 27.2071C20.6075 27.2094 20.4067 27.2945 20.2588 27.444C20.111 27.5934 20.0281 27.7952 20.0281 28.0054C20.0281 28.2157 20.111 28.4174 20.2588 28.5669C20.4067 28.7163 20.6075 28.8015 20.8177 28.8038C21.6369 28.724 22.402 28.3587 22.979 27.7717C23.1284 27.6225 23.2124 27.4201 23.2126 27.2089C23.2127 26.9978 23.1291 26.7952 22.9799 26.6458Z" fill="#7B6300"/>
</svg>
