<svg width="39" height="39" viewBox="0 0 39 39" fill="none" xmlns="http://www.w3.org/2000/svg">
<path d="M26.2281 6.36648H22.4436C22.5775 4.70286 22.0109 2.99295 20.7411 1.72308C18.4436 -0.574261 14.7055 -0.574261 12.408 1.72308L11.2335 2.89758L10.059 1.72308C7.76152 -0.574412 4.02329 -0.574336 1.72587 1.72316C0.612952 2.836 0 4.3158 0 5.8897C0 7.46359 0.612876 8.94331 1.72587 10.0562L4.57354 12.9039C3.63164 14.6752 3.13672 16.653 3.13672 18.6784C3.13672 25.4672 8.65983 30.9902 15.4487 30.9902H17.2887L25.3124 38.4577V30.9902H26.2281C33.017 30.9902 38.54 25.4671 38.54 18.6784C38.54 11.8896 33.0169 6.36648 26.2281 6.36648ZM3.324 3.32121C4.03217 2.61304 4.96218 2.25903 5.8924 2.25903C6.82241 2.25903 7.75279 2.61319 8.46081 3.32121L11.2334 6.09384L14.0061 3.32121C15.4223 1.9051 17.7266 1.90502 19.1429 3.32129C19.829 4.00733 20.2068 4.91942 20.2068 5.8897C20.2068 6.85989 19.829 7.77206 19.1429 8.4581L11.2335 16.3676L3.324 8.4581C1.90781 7.04183 1.90781 4.73748 3.324 3.32121ZM26.2281 28.7301H23.0522V33.2669L18.1777 28.7301H15.4487C9.90606 28.7301 5.39688 24.221 5.39688 18.6784C5.39688 17.2603 5.69383 15.8713 6.26267 14.593L11.2336 19.5639L20.7412 10.0562C21.1624 9.63574 21.5171 9.15368 21.7934 8.62656H26.2282C31.7707 8.62656 36.28 13.1357 36.28 18.6784C36.28 24.221 31.7707 28.7301 26.2281 28.7301Z" fill="#909090"/>
<path d="M14.6749 18.0353H17.0636V20.2954H14.6749V18.0353ZM19.949 18.0353H22.3376V20.2954H19.949V18.0353ZM25.2229 18.0353H27.6116V20.2954H25.2229V18.0353Z" fill="#909090"/>
</svg>
