<svg id="Layer_1" data-name="Layer 1" xmlns="http://www.w3.org/2000/svg" viewBox="0 0 403.27 55.37"><defs><style>.cls-1{fill:#ffffff;fill-rule:evenodd;}</style></defs><title>fastrack_logo</title><path class="cls-1" d="M1.23,56.29l8-32.81s-3.36.26-4.39-.78c-.78-.52-1.29-1.81-1.81-2.33a16.48,16.48,0,0,1-1.55-3.1h9.3S13.11,6.68,16.73,3.84c3.88-3.62,8-2.58,14.21-2.58H51.86a14.74,14.74,0,0,1-1.81,3.36,3.53,3.53,0,0,1-2.58,1.55H36.1c-1.55,0-3.88-.26-4.91.52a5.81,5.81,0,0,0-2.07,3.62c-.52,1.55-2.07,7-2.07,7H44.89a23.53,23.53,0,0,1-1.81,3.36c-.77,1.29-2.32,2.84-3.1,2.84s-14.21-.26-14.21-.26l-8,33.07Z" transform="translate(-1.23 -1)"/><path class="cls-1" d="M50.06,17.28s1.29,2.58,2.07,3.87A5.42,5.42,0,0,0,55,23.22c.78.26,9.56,0,12.14,0,2.33,0,10.33-.26,12.4.78s1.81,2.84,1.29,4.13a5.62,5.62,0,0,1-5.43,3.62H55.48c-1.29,0-7-.26-9.82,1.81a11.47,11.47,0,0,0-4.13,6.2c-.78,2.07-1.81,5.68-2.07,6.72s-1,4.91-.52,6.2c.26,1.55.26,3.1,4.39,3.36,3.87.26,10.07.26,12.66.26,2.33,0,9.56,0,10.85-.52a7,7,0,0,0,2.84-2.58l1.55-2.33s-7.49.26-9.3.26A10.23,10.23,0,0,1,57,49.83c-.78-.52-1.55-1.81-.78-4.13.52-2.33.78-3.62,1-4.65.52-1,.78-2.58,1.55-3.36a6.84,6.84,0,0,1,4.39-1.55H79L74.08,56.29H90.36l6.72-27.13s1-5.17.52-7.49-2.84-4.39-8-4.39Z" transform="translate(-1.23 -1)"/><path class="cls-1" d="M154.68,17.53H121.1c-.52,0-7.23-.52-11.11,2.33a12.58,12.58,0,0,0-4.65,7.49c-.78,2.07-2.07,7.49-2.33,8.27,0,.78-.52,3.62,0,4.39.78,1,1.29,2.58,4.65,2.58,3.62,0,11.11-.26,15-.26s8,0,9,.52a3.57,3.57,0,0,1,2.84,3.1c0,1.55-.26,3.87-1.29,4.65s-10.59.52-12.66.52H97.85a8,8,0,0,0,2.84,4.13c1.81,1.55,9.56,1,12.66,1h22.47A15.2,15.2,0,0,0,144.35,54c3.1-2.33,4.39-4.65,5.94-10.08,1.29-5.42,1.55-5.42,1.81-7.23s.52-2.84-.78-4.13c-.78-1.55-3.87-1.81-7.75-1.81H126.27c-1,0-4.91,0-6.2-1.55a3.43,3.43,0,0,1-.77-3.62c.26-.78.77-2.33,6.46-2.33h22c1,0,3.36,0,4.65-1.55,1-1.55,2.33-4.14,2.33-4.14Z" transform="translate(-1.23 -1)"/><path class="cls-1" d="M172,7.72h16.53l-2.58,9.56h17.31a13,13,0,0,1-1.81,4.13c-1.29,1.81-3.62,1.81-4.91,2.07H184.65s-4.91,19.89-5.17,20.67-1,3.87-.78,4.65c.52.78,1.81,2.58,7.75,2.32h10.08a19.64,19.64,0,0,1-2.07,3.36,4.13,4.13,0,0,1-2.33,1.81H167.08A5.38,5.38,0,0,1,162.69,54c-1-1.81-.78-5.42,0-8.53,1-3.1,5.43-22,5.43-22s-2.84-.26-3.87-.52a7.2,7.2,0,0,1-2.84-2.84,17.28,17.28,0,0,1-1.55-2.84h9.82Z" transform="translate(-1.23 -1)"/><path class="cls-1" d="M202,56l8.27-32.55s.52-3.1,1.29-4.14a4.79,4.79,0,0,1,4.39-2.07c2.84,0,11.37.26,11.37.26s-7,28.68-7.49,30.48S219,52.67,218,54c-.78,1-1.29,2.33-4.65,2.33C210,56.54,202,56,202,56Z" transform="translate(-1.23 -1)"/><path class="cls-1" d="M254.4,17.53a23.1,23.1,0,0,0,2.07,3.36c1,1.55,1.81,2.58,2.84,2.84h13.18c2.33,0,8.52-.52,10.59.26,1.81.52,3.1,1.29,2.33,3.87A6.17,6.17,0,0,1,280.75,32H267.06c-2.33,0-10.33-.52-14.47.78s-5.17,2.58-7,7.75a30,30,0,0,0-2.32,9.82c-.26,1-.52,3.62.78,4.65,1.55,1,4.65,1.29,9.56,1.29h14.72c1.55,0,3.36.52,5.94-3.1l1.29-2.07s-7.75.26-9.3.26c-1.81,0-4.39-.78-5.17-1.55-.52-.52-1-2.07-.26-5.42.78-3.1,1-5.43,2.84-6.72,1.55-1.55,5.94-1.55,8.53-1.55h11.11l-4.91,20.15H294.7s6.46-25.32,6.46-26.35c.26-1,1.81-8,0-10.33-2.07-2.33-8.78-2.07-12.14-2.07Z" transform="translate(-1.23 -1)"/><path class="cls-1" d="M355.41,17.28H323.64a13.18,13.18,0,0,0-8,2.07,15.21,15.21,0,0,0-6.2,8.79c-1.29,4.13-3.62,14.47-4.13,16.53s-1,5.68-.52,7.49c.77,2.07,2.32,4.13,7.23,4.13h24.8c1.29,0,3.62.26,5.17-1a17.91,17.91,0,0,0,2.58-4.13s-14.72,0-17.05-.26-4.91-.52-5.68-1.81c-.52-1.29.26-5.68,1-8.27.52-2.58,2.84-11.63,3.1-12.4s.78-3.1,1.55-3.87a7.39,7.39,0,0,1,4.39-1.29h18.34a4.48,4.48,0,0,0,3.62-2.58c.52-1,1.55-3.36,1.55-3.36Z" transform="translate(-1.23 -1)"/><path class="cls-1" d="M365.49,1.26,351.8,56l16.53.26,3.88-16.54,10.33-6.46,7.23,23H404.5L394.17,24.77a12.69,12.69,0,0,0,4.91-3.87c1.81-2.33,3.36-7,3.36-7L374.79,29.68,382,1Z" transform="translate(-1.23 -1)"/><path class="cls-1" d="M227,26.06s2.07-4.39,4.91-6.2,5.68-2.33,10.08-2.33,6.71-.26,6.71-.26-1.29,3.1-2.07,4.39c-1,1.29-2.07,2.58-3.62,2.58h-9c-2.32.26-6.2,1-7,1.81Z" transform="translate(-1.23 -1)"/></svg>