<svg width="253" height="38" viewBox="0 0 253 38" fill="none" xmlns="http://www.w3.org/2000/svg">
<g clip-path="url(#clip0_70_726)">
<path d="M0 7.6C0 2.83547 2.83547 0 7.6 0H24.7C32.0454 0 38 5.9546 38 13.3V30.4C38 35.1645 35.1645 38 30.4 38H13.3C5.9546 38 0 32.0454 0 24.7V7.6Z" fill="url(#paint0_linear_70_726)"/>
<path d="M30.2785 26.3795C29.7639 27.9169 28.1559 28.8138 26.6121 28.3013C25.0684 27.7888 24.1679 26.1873 24.6825 24.6498C25.197 23.1123 26.8051 22.2155 28.3488 22.728C29.8926 23.1764 30.7288 24.7779 30.2785 26.3795Z" fill="white"/>
<path d="M16.574 11.2546L13.3519 21.245C12.8363 22.725 11.2252 23.5884 9.67855 23.0951C8.13191 22.6017 7.22968 21.06 7.74526 19.5799L10.9674 9.58947C11.483 8.10941 13.0941 7.24605 14.6407 7.7394C16.1874 8.17108 17.0896 9.71282 16.574 11.2546Z" fill="white"/>
<path d="M23.1123 18.4201L19.8816 28.4106C19.3647 29.8906 17.7494 30.754 16.1987 30.2606C14.648 29.7673 13.7434 28.2256 14.2603 26.7455L17.491 16.7551C18.0078 15.275 19.6232 14.4116 21.1739 14.905C22.7246 15.3367 23.5646 16.8784 23.1123 18.4201Z" fill="white"/>
<path d="M10.7534 23.2344C10.5628 23.2344 10.3723 23.2344 10.1817 23.1722C9.41957 22.9234 8.97493 22.1147 9.229 21.3682C9.41957 20.7461 10.0547 20.3729 10.6899 20.3729C11.325 20.1241 13.04 18.8799 14.1832 18.009C17.7402 15.3963 19.2236 14.5869 20.6209 14.8357C21.4466 14.9601 21.9548 15.7066 21.8277 16.5153C21.7007 17.2618 21.002 17.7595 20.3034 17.6973C19.5412 17.8839 17.3591 19.2532 15.9617 20.3107C13.2305 22.3013 11.8332 23.2344 10.7534 23.2344Z" fill="white"/>
</g>
<path d="M48.4586 12.5541C48.4586 17.6023 51.2934 20.7314 56.7963 21.8579L61.5071 22.8175C63.5498 23.2347 64.3419 24.1108 64.3419 25.8214C64.3419 27.7823 62.4242 28.9922 59.3809 28.9922C56.3794 28.9922 54.7118 27.7405 54.7118 25.4876H48C48 31.2868 52.4607 35 59.3393 35C66.4263 35 71.0954 31.1199 71.0954 25.1538C71.0954 20.2725 68.469 17.6441 62.9662 16.5176L58.3387 15.558C56.1709 15.0991 55.2121 14.1812 55.2121 12.3038C55.2121 10.2595 56.963 9.00782 59.7145 9.00782C62.2575 9.00782 63.8833 10.3429 63.8833 12.5124H70.5951C70.5951 6.67145 66.4263 3 59.7978 3C53.1694 3 48.4586 6.96349 48.4586 12.5541Z" fill="black"/>
<path d="M73.654 23.9857C73.654 30.5776 78.4899 34.9583 85.16 34.9583C91.7885 34.9583 96.6244 30.5776 96.6244 23.9857C96.6244 17.3937 91.7885 12.9713 85.16 12.9713C78.4899 12.9713 73.654 17.3937 73.654 23.9857ZM80.1157 23.9439C80.1157 20.8149 82.1585 18.7288 85.16 18.7288C88.1199 18.7288 90.1627 20.8149 90.1627 23.9439C90.1627 27.1147 88.1199 29.2008 85.16 29.2008C82.1585 29.2008 80.1157 27.1147 80.1157 23.9439Z" fill="black"/>
<path d="M113.698 13.5971V24.4446C113.698 27.8657 112.573 29.2842 109.821 29.2842C107.195 29.2842 106.028 27.7823 106.028 24.3611V13.5971H99.6077V26.6975C99.6077 31.8292 102.526 35 107.278 35C109.78 35 112.364 33.8318 113.657 32.1213L114.074 34.4576H120.118V13.5971H113.698Z" fill="black"/>
<path d="M139.277 13.5971C138.401 13.3885 137.568 13.3051 136.817 13.3051C134.024 13.3051 132.19 14.6819 131.314 16.7262L130.981 13.6389H124.936V34.4576H131.356V25.4042C131.356 21.2738 133.566 19.6467 137.234 19.6467H139.277V13.5971Z" fill="black"/>
<path d="M140.787 23.9439C140.787 30.6193 145.039 35 151.626 35C157.462 35 161.715 31.412 162.132 26.1552H155.67C155.253 28.1995 153.877 29.2425 151.626 29.2425C148.875 29.2425 147.249 27.2816 147.249 23.9439C147.249 20.7314 149 18.6871 151.709 18.6871C153.919 18.6871 155.211 19.6884 155.67 21.7744H162.132C161.715 16.309 157.629 12.9296 151.459 12.9296C145.206 12.9296 140.787 17.5189 140.787 23.9439Z" fill="black"/>
<path d="M175.319 35C181.03 35 185.158 32.0378 185.908 27.4068H180.03C179.571 28.9087 177.862 29.7849 175.444 29.7849C172.609 29.7849 171.067 28.4915 170.692 25.7379L185.825 25.6545V24.0274C185.825 17.2269 181.739 12.9296 175.194 12.9296C168.899 12.9296 164.522 17.4772 164.522 23.9857C164.522 30.4107 169.024 35 175.319 35ZM175.236 18.1447C177.82 18.1447 179.446 19.5632 179.446 21.7744H170.775C171.275 19.2712 172.693 18.1447 175.236 18.1447Z" fill="black"/>
<path d="M193.279 34.4576H199.532L201.533 27.9492C202.867 23.5684 203.242 21.9413 203.409 21.0652C203.534 21.9413 204.076 24.4029 205.118 27.824L207.119 34.4576H213.081L220.376 13.5971H213.581L211.58 20.3977C211.372 21.1486 210.371 24.8201 210.121 26.322C209.912 24.987 208.912 21.1069 208.703 20.3977L206.744 13.5971H200.157L198.031 20.3977C197.114 23.3181 196.906 24.1108 196.53 26.322C196.197 24.236 195.738 22.1917 195.238 20.3977L193.32 13.5971H186.567L193.279 34.4576Z" fill="black"/>
<path d="M226.382 10.3429C228.383 10.3429 230.009 8.71577 230.009 6.67145C230.009 4.62712 228.383 3.04172 226.382 3.04172C224.339 3.04172 222.713 4.62712 222.713 6.67145C222.713 8.71577 224.339 10.3429 226.382 10.3429ZM223.213 34.4576H229.633V13.5971H223.213V34.4576Z" fill="black"/>
<path d="M251 34.4576V29.1173H241.412L251 18.9374V13.5971H233.533V18.9374H242.871L233.533 29.1173V34.4576H251Z" fill="black"/>
<defs>
<linearGradient id="paint0_linear_70_726" x1="1.71" y1="2.85" x2="70.11" y2="74.48" gradientUnits="userSpaceOnUse">
<stop stop-color="#0B7763"/>
<stop offset="1" stop-color="#B6DA25"/>
</linearGradient>
<clipPath id="clip0_70_726">
<rect width="38" height="38" fill="white"/>
</clipPath>
</defs>
</svg>
