<?xml version="1.0" encoding="UTF-8"?>
<!DOCTYPE svg PUBLIC "-//W3C//DTD SVG 1.1//EN" "http://www.w3.org/Graphics/SVG/1.1/DTD/svg11.dtd">
<!-- Creator: CorelDRAW 2018 (64-Bit) -->
<svg xmlns="http://www.w3.org/2000/svg" xml:space="preserve" width="6.88442in" height="1.25468in" version="1.1" style="shape-rendering:geometricPrecision; text-rendering:geometricPrecision; image-rendering:optimizeQuality; fill-rule:evenodd; clip-rule:evenodd"
viewBox="0 0 6884.42 1254.68"
 xmlns:xlink="http://www.w3.org/1999/xlink">
 <defs>
  <style type="text/css">
   <![CDATA[
    .fil0 {fill:#373435}
   ]]>
  </style>
 </defs>
 <g id="Layer_x0020_1">
  <metadata id="CorelCorpID_0Corel-Layer"/>
  <path class="fil0" d="M1190.21 420.87c105.31,256.19 -47.58,630.58 -293.74,720.01l0 -973.57 390.91 0.03 103.34 -167.34 -662.31 0 0.17 1168.36 0 64.73 0 21.59c343.1,-22.44 657.35,-303.83 657.35,-660.45 0,-59.09 -7.66,-117.06 -22.04,-173.36l-173.67 0zm-528.3 -420.87l0 0 -661.92 0 103.03 167.34 390.83 -0.02 0 973.55c-243.7,-88.54 -402.85,-469 -292.89,-720.01l-174.53 0c-14.37,56.3 -22.03,114.27 -22.03,173.36 0,356.62 314.24,638.01 657.34,660.45l0 -21.59 0 -64.73 0.17 -1168.36zm2301.69 0l0 0 0 96.02 -374.84 0 0 1063.25 -194.77 0 0 -1063.25 -375.68 0 0 -96.02 945.29 0zm2981.07 0l0 0 106.53 0 739.2 827.59 0 -827.59 94.01 0 0 1159.26 -43.89 0 -801.84 -918.65 0 922.7 -94.02 2.22 0 -1165.54zm-1007.69 710.58l0 0 411.31 0 -198.98 -450 -212.33 450zm278.95 -710.58l0 0 535.85 1163.89 -194.39 0 -173.96 -379.82 -479.91 0 -179.69 379.82 -103.29 0 548.07 -1163.89 47.33 0zm-576.09 0l0 0 -945.3 0 0 96.01 375.68 0 0 1063.26 194.77 0 0 -1063.26 374.84 0 0 -96.01zm-1408.11 0l0 0 194.78 0 0 1159.27 -194.78 0 0 -1159.27z"/>
 </g>
</svg>
