<svg xmlns="http://www.w3.org/2000/svg" xmlns:xlink="http://www.w3.org/1999/xlink" width="2001" height="591" viewBox="0 0 1919 567" shape-rendering="geometricPrecision" image-rendering="optimizeQuality" fill-rule="evenodd" xmlns:v="https://vecta.io/nano"><defs><linearGradient id="A" gradientUnits="userSpaceOnUse" x1="65.194" y1="63.889" x2="173.94" y2="174.262"><stop offset="0" stop-color="#3d6fa8"/><stop offset="1" stop-color="#183460"/></linearGradient><linearGradient id="B" xlink:href="#A" x1="-33.574" y1="66.731" x2="272.947" y2="391.47"/><linearGradient id="C" xlink:href="#A" x1="119.569" y1="63.355" x2="119.569" y2="174.796"/><linearGradient id="D" xlink:href="#A" x1="119.686" y1="5.049" x2="119.686" y2="453.151"/><path id="E" d="M119 272c1-1 1-1 2-1 14-15 29-29 43-44 15-17 29-35 40-55 8-15 13-31 14-48 1-27-7-51-26-71-31-34-79-41-119-20-39 20-60 66-49 109 5 21 16 40 30 58 13 19 29 35 45 51 7 7 13 14 20 21zm11 86h4c16 0 31-1 47 0 5 0 8 1 10 6 2 3 1 7-1 11-3 2-6 3-9 3h-47c-4 0-4 0-4 5v23c0 2 1 3 3 3h49c8 0 13 8 9 15-2 3-5 5-9 5h-48-4v4 14c0 7-5 11-10 11h-1c-5 0-10-5-10-11V294c0-3 0-4-2-6-22-22-45-44-65-69-15-19-28-39-36-63C-14 92 21 24 86 5s132 20 149 85c7 27 4 52-6 78-9 21-22 39-36 57-19 22-39 42-60 62-2 3-3 5-3 8v58 5z"/><path id="F" d="M120 84c-20 0-36 16-36 35 0 20 16 35 36 35 19 0 35-16 35-35s-16-35-35-35zm0-21c31 0 56 25 56 56s-26 56-57 56c-30 0-56-26-56-56 1-31 26-56 57-56h0z"/><path id="G" d="M428 511c7 0 13 2 16 5 4 3 6 8 6 14s-2 11-6 15c-3 3-9 5-16 5h-12v16h-10v-55h22zm0 29c4 0 7 0 9-2s3-4 3-8c0-3-1-6-3-7-2-2-5-3-9-3h-12v20h12z"/><path id="H" d="M573 566l-10-16h-2-12v16h-11v-55h23c7 0 13 2 17 5s6 8 6 14c0 4-1 8-3 11s-5 5-8 7l12 18h-12zm-24-26h12c4 0 7 0 9-2s4-4 4-8c0-3-2-6-4-7-2-2-5-3-9-3h-12v20z"/></defs><path d="M642 338h0c0-32 23-58 56-58 18 0 30 6 40 14 2 1 3 3 3 5 0 4-3 7-7 7-1 0-3-1-4-2-8-7-18-13-32-13-25 0-43 21-43 46v1c0 25 19 46 43 46 14 0 24-5 33-14 1-1 3-2 4-2 4 0 6 3 6 6 0 2-1 4-2 5-11 10-23 16-41 16-32 0-56-25-56-57h0zm254 0h0c0-26-19-47-44-47-26 0-44 21-44 46v1c0 25 18 46 44 46s44-21 44-46zm-101 0h0c0-31 23-58 57-58s57 26 57 57v1c0 30-23 57-57 57s-57-26-57-57h0zm177 9v-60c0-3 3-6 6-6 4 0 7 3 7 6v59c0 24 13 38 34 38 20 0 34-13 34-37v-60c0-3 2-6 6-6 3 0 6 3 6 6v59c0 32-19 49-46 49-28 0-47-17-47-48h0zm161-60c0-3 3-6 7-6h1c3 0 5 2 7 4l68 86v-84c0-3 2-6 6-6 3 0 6 3 6 6v101c0 3-3 6-6 6h-1c-2 0-4-2-6-4l-69-89v87c0 3-3 6-7 6-3 0-6-3-6-6V287zm194 6h-32c-3 0-6-2-6-5 0-4 3-6 6-6h78c3 0 5 2 5 6 0 3-2 5-5 5h-33v95c0 3-3 6-6 6-4 0-7-3-7-6v-95zm113 94v-99c0-3 3-6 6-6h69c4 0 6 2 6 5 0 4-2 6-6 6h-63v38h56c3 0 6 3 6 6s-3 6-6 6h-56v39h64c3 0 6 3 6 6s-3 5-6 5h-70c-3 0-6-2-6-6h0zm192-48c17 0 29-9 29-23v-1c0-13-11-22-29-22h-34v46h34zm-47-51c0-3 3-6 6-6h42c14 0 25 4 32 11 5 5 8 13 8 22h0c0 19-12 29-29 33l27 35c2 2 2 3 2 5 0 3-3 6-6 6s-4-1-6-3l-31-41h-32v38c0 3-3 6-7 6-3 0-6-3-6-6V288zM443 141c17 0 29-9 29-23v-1c0-13-11-22-29-22h-35v46h35zm-47-51c0-4 3-6 6-6h42c14 0 25 4 32 11 5 5 8 13 8 22h0c0 18-12 29-30 33l28 35c2 2 2 3 2 5 0 3-3 6-6 6s-5-1-6-3l-31-41h-33v38c0 3-2 6-6 6-3 0-6-3-6-6V90zm154 99V90c0-4 3-6 6-6h69c4 0 6 2 6 5 0 4-2 6-6 6h-63v38h56c3 0 6 3 6 6s-3 6-6 6h-56v39h64c3 0 6 2 6 6 0 3-3 5-6 5h-70c-3 0-6-3-6-6h0zm141-7c-1-1-2-3-2-5 0-3 2-6 6-6 1 0 3 1 3 1 11 9 22 14 36 14 15 0 25-8 25-19v-1c0-10-6-16-29-21-26-6-38-14-38-32v-1c0-17 16-30 37-30 15 0 25 4 35 11 2 1 3 3 3 5 0 3-3 6-6 6-1 0-2 0-4-1-9-7-18-10-28-10-15 0-24 8-24 18v1c0 10 5 16 30 21 25 6 36 15 36 32h0c0 19-16 32-38 32-16 0-30-5-42-15h0zm145 7V90c0-4 2-6 6-6h69c3 0 6 2 6 5 0 4-3 6-6 6h-63v38h56c3 0 6 3 6 6s-3 6-6 6h-56v39h64c3 0 6 2 6 6 0 3-3 5-6 5h-70c-4 0-6-3-6-6h0zm192-48c17 0 29-9 29-23v-1c0-13-11-22-29-22h-35v46h35zm-47-51c0-4 3-6 6-6h42c14 0 25 4 32 11 5 5 8 13 8 22h0c0 18-12 29-30 33l28 35c1 2 2 3 2 5 0 3-3 6-6 6s-5-1-6-3l-31-41h-33v38c0 3-2 6-6 6-3 0-6-3-6-6V90zm187 101l-43-99c-1-1-1-2-1-3 0-3 3-6 6-6 4 0 6 2 7 5l39 92 38-93c2-2 4-4 7-4s6 3 6 6c0 1 0 2-1 2l-43 100c-1 4-4 6-7 6h-1c-3 0-6-2-7-6h0zm179-37l-26-57-26 57h52zm-80 33l46-99c1-4 4-6 8-6h0c4 0 7 2 8 6l46 99v3c0 3-2 6-6 6-3 0-5-2-6-4l-12-26h-61l-11 26c-2 3-4 4-7 4s-5-2-5-6v-3zm187-92h-33c-3 0-6-2-6-6 0-3 3-5 6-5h78c3 0 6 2 6 5 0 4-3 6-6 6h-33v95c0 3-2 6-6 6-3 0-6-3-6-6V95zm113-6c0-3 3-6 6-6 4 0 7 3 7 6v101c0 3-3 6-7 6-3 0-6-3-6-6V89zm180 51v-1c0-25-19-46-44-46-26 0-44 21-44 46h0c0 26 18 47 44 47s44-21 44-46zm-101 0v-1c0-30 23-57 57-57s57 26 57 57h0c0 31-23 58-57 58s-57-26-57-57h0zm179-51c0-3 3-6 6-6h2c3 0 4 2 6 4l68 86V89c0-3 3-6 6-6 4 0 6 3 6 6v101c0 3-2 6-5 6h-1c-3 0-5-2-7-4l-69-89v87c0 3-3 6-6 6s-6-3-6-6V89z" fill="#183460" fill-rule="nonzero"/><use xlink:href="#E" fill="url(#D)" fill-opacity="0"/><use xlink:href="#E" fill="url(#B)"/><path d="M119 272c1-1 1-1 2-1 14-15 29-29 43-44 15-17 29-35 40-55 8-15 13-31 14-48 1-27-7-51-26-71-31-34-79-41-119-20-39 20-60 66-49 109 5 21 16 40 30 58 13 19 29 35 45 51 7 7 13 14 20 21m11 86h4c16 0 31-1 47 0 5 0 8 1 10 6 2 3 1 7-1 11-3 2-6 3-9 3h-47c-4 0-4 0-4 5v23c0 2 1 3 3 3h49c8 0 13 8 9 15-2 3-5 5-9 5h-48-4v4 14c0 7-5 11-11 11-5 0-10-5-10-11V294c0-3 0-4-2-6-22-22-45-44-65-69-15-19-28-39-36-63C-14 92 21 24 86 5c11-3 23-5 34-5h0c53 0 101 36 115 90 7 27 4 52-6 78-9 21-22 39-36 57-19 22-39 42-60 62-2 3-3 5-3 8v63" stroke="#fff" stroke-width=".957" fill="none"/><use xlink:href="#F" fill="url(#C)" fill-opacity="0"/><use xlink:href="#F" fill="url(#A)"/><path d="M120 84c-20 0-36 16-36 35 0 20 16 35 36 35 19 0 35-16 35-35s-16-35-35-35zm0-21c31 0 56 25 56 56s-26 56-57 56c-30 0-56-26-56-56 1-31 26-56 57-56z" stroke="#fff" stroke-width=".957" fill="none"/><g fill-rule="nonzero" fill="#444649"><use xlink:href="#G"/><path d="M506 566l-4-12h-27l-5 12h-11l24-55h11l24 55h-12zm-27-21h19l-10-23-9 23z"/><use xlink:href="#H"/><path d="M602 511h45v9h-17v46h-11v-46h-17zm103-1c5 0 10 1 15 4 4 2 8 6 10 10 3 4 4 9 4 14 0 6-1 10-4 15-2 4-6 7-10 10-5 2-10 4-15 4-6 0-11-2-15-4-5-3-8-6-11-10-2-5-3-9-3-15 0-5 1-10 3-14 3-4 6-8 11-10 4-3 9-4 15-4zm0 10c-3 0-7 1-9 2-3 2-6 4-7 7-2 3-3 6-3 9 0 4 1 7 3 10s4 5 7 7c2 1 6 2 9 2s6-1 9-2c3-2 5-4 7-7 1-3 2-6 2-10 0-3-1-6-2-9-2-3-4-5-7-7-3-1-6-2-9-2zm51-9h38v9h-27v15h25v9h-25v22h-11zm66 0h44v9h-17v46h-10v-46h-17zm100 55l-9-16h-2-13v16h-10v-55h23c7 0 12 2 16 5s6 8 6 14c0 4-1 8-3 11s-4 5-8 7l12 18h-12zm-24-26h13c4 0 7 0 9-2s3-4 3-8c0-3-1-6-3-7-2-2-5-3-9-3h-13v20zm100 26l-5-12h-27l-4 12h-11l24-55h11l23 55h-11zm-28-21h20l-10-23-10 23zm45-34h12l16 43 16-43h11l-22 55h-11zm76 0h40v9h-30v14h27v9h-27v14h31v9h-41zm66 0h10v45h24v10h-34zm79 0c6 0 12 2 16 5 3 3 5 8 5 14a24.56 24.56 0 0 1-5 15c-4 3-10 5-16 5h-12v16h-11v-55h23zm-1 29c4 0 7 0 9-2s3-4 3-8c0-3-1-6-3-7-2-2-5-3-9-3h-11v20h11zm79 26l-5-12h-27l-5 12h-11l24-55h11l24 55h-11zm-28-21h19l-9-23-10 23zm92-20c-3-2-5-3-8-4s-6-1-8-1c-3 0-5 0-6 1-2 1-2 2-2 4s0 3 1 4 2 2 4 2c2 1 4 2 6 2l9 4c3 1 5 3 7 5 1 2 2 5 2 8s-1 6-3 9c-1 2-4 4-7 6-3 1-7 2-11 2s-8-1-13-3c-4-1-7-4-10-6l4-9c3 2 6 4 10 6 3 1 6 2 9 2s5-1 7-2 3-2 3-4-1-3-2-4-2-2-4-3c-1 0-4-1-6-2-4-1-7-2-9-3-3-1-5-3-6-5-2-2-3-5-3-8s1-6 3-8c1-3 4-5 7-6s7-2 11-2c3 0 7 1 10 2 4 1 7 2 9 4l-4 9zm63 0c-2-2-5-3-8-4s-6-1-8-1c-3 0-5 0-6 1s-2 2-2 4 0 3 1 4 3 2 4 2c2 1 4 2 6 2 4 2 7 3 10 4 2 1 4 3 6 5 1 2 2 5 2 8s-1 6-3 9c-1 2-4 4-7 6-3 1-7 2-11 2s-8-1-12-3c-4-1-8-4-11-6l4-9c3 2 6 4 10 6 3 1 6 2 9 2s6-1 7-2c2-1 3-2 3-4s-1-3-2-4-2-2-4-3c-1 0-3-1-6-2-4-1-7-2-9-3-3-1-5-3-6-5-2-2-3-5-3-8s1-6 3-8c1-3 4-5 7-6s7-2 11-2c3 0 7 1 10 2 4 1 7 2 10 4l-5 9zm78 14h9v20c-3 3-6 4-10 6-4 1-8 2-12 2-5 0-10-2-14-4-5-3-8-6-11-10-2-5-4-9-4-15 0-5 2-10 4-14 3-4 6-8 11-10 4-2 10-4 15-4 4 0 8 1 12 2 3 2 7 4 9 6l-5 8c-3-2-5-4-8-5-2-1-5-1-8-1s-7 1-10 2c-2 2-5 4-6 7-2 3-3 6-3 9 0 4 1 7 3 10 1 3 4 5 7 7 2 1 6 2 9 2 2 0 4 0 6-1 2 0 4-1 6-2v-15z"/><use xlink:href="#H" x="1015"/><path d="M1649 510c5 0 10 1 15 4 4 2 8 6 10 10 3 4 4 9 4 14 0 6-1 10-4 15-2 4-6 7-10 10-5 2-10 4-15 4s-10-2-15-4c-4-3-8-6-10-10-3-5-4-9-4-15 0-5 1-10 4-14 2-4 6-8 10-10 5-3 10-4 15-4zm0 10c-3 0-6 1-9 2-3 2-5 4-7 7s-3 6-3 9c0 4 1 7 3 10s4 5 7 7c3 1 6 2 9 2s6-1 9-2c3-2 5-4 7-7s2-6 2-10c0-3 0-6-2-9s-4-5-7-7c-3-1-6-2-9-2zm62 23c0 5 1 8 4 10 2 3 5 4 9 4 5 0 8-1 10-4 3-2 4-5 4-10v-32h10v32c0 5-1 9-3 13-2 3-4 6-8 8-3 2-8 3-13 3-4 0-9-1-12-3-4-2-7-5-9-8-2-4-3-8-3-13v-32h11v32z"/><use xlink:href="#G" x="1368"/><path d="M1833 511h27v6h-10v27h-7v-27h-10v-6zm31 0h8l10 20 9-20h9v33h-7v-22l-9 19h-5l-8-19v22h-7v-33z"/></g></svg>